<?xml version="1.0" encoding="UTF-8"?>
<svg width="24px" height="24px" viewBox="0 0 24 24" version="1.1" xmlns="http://www.w3.org/2000/svg" xmlns:xlink="http://www.w3.org/1999/xlink">
    <title>picto/warning</title>
    <g id="FC+-—-Mire-+-bandeau" stroke="none" stroke-width="1" fill="none" fill-rule="evenodd">
        <g id="fc+---mire-+-bandeau---m" transform="translate(-102.000000, -193.000000)">
            <g id="bandeau-info" transform="translate(32.000000, 179.000000)">
                <g id="picto/warning" transform="translate(70.000000, 14.000000)">
                    <path d="M12.7265077,13.7251052 L13.2987377,6 L10.2356241,6 L10.8078541,13.7251052 L12.7265077,13.7251052 Z M11.7840112,18 C12.2552595,18 12.6676017,17.826087 13.0210379,17.4782609 C13.3744741,17.1304347 13.5511921,16.7152876 13.5511921,16.2328191 C13.5511921,15.7615708 13.3744741,15.3520337 13.0210379,15.0042076 C12.6676017,14.6563814 12.2552595,14.4824684 11.7840112,14.4824684 C11.2903227,14.4824684 10.8695653,14.6563814 10.5217391,15.0042076 C10.173913,15.3520337 10,15.7615708 10,16.2328191 C10,16.7152876 10.1767181,17.1304347 10.5301543,17.4782609 C10.8835905,17.826087 11.3015427,18 11.7840112,18 Z" id="!" fill="#000091" fill-rule="nonzero"></path>
                    <circle id="Oval" stroke="#000091" cx="12" cy="12" r="11.5"></circle>
                </g>
            </g>
        </g>
    </g>
</svg>