<svg width="230" height="60" viewBox="0 0 230 60" fill="none" xmlns="http://www.w3.org/2000/svg">
<path d="M2.23462 0C0.827636 0 0 1.25 0 2.66667V57.5C0 58.9167 0.827636 60 2.23462 60H227.683C229.09 60 230 58.9167 230 57.5V2.66667C230 1.25 229.09 0 227.683 0H38.3195H2.23462Z" fill="#034EA2" class="background"/>
<path d="M82.0847 26.2995C82.6023 26.2995 83.0833 26.2207 83.5278 26.0632C83.9723 25.9056 84.3548 25.6806 84.6755 25.388C84.9962 25.0954 85.2494 24.7438 85.4351 24.3331C85.6207 23.9224 85.7136 23.4695 85.7136 22.9743C85.7136 22.0291 85.421 21.3034 84.8359 20.797C84.2508 20.2906 83.6122 19.8602 82.9202 19.5058C82.2281 19.1513 81.5895 18.7969 81.0044 18.4424C80.4193 18.088 80.1267 17.5957 80.1267 16.9655C80.1267 16.4817 80.2927 16.0738 80.6246 15.7418C80.9566 15.4099 81.3983 15.2439 81.9496 15.2439C82.4672 15.2439 82.937 15.3761 83.359 15.6405C83.781 15.905 84.1664 16.2847 84.5152 16.7799L85.6967 15.7502C85.2579 15.1764 84.729 14.7122 84.1101 14.3578C83.4912 14.0033 82.7654 13.8261 81.9327 13.8261C81.4376 13.8261 80.9791 13.9105 80.5571 14.0793C80.1352 14.248 79.7723 14.4759 79.4684 14.7628C79.1646 15.0498 78.9283 15.3874 78.7595 15.7756C78.5908 16.1638 78.5064 16.5717 78.5064 16.9993C78.5064 17.9332 78.7989 18.6534 79.3841 19.1598C79.9692 19.6661 80.6078 20.0965 81.2998 20.451C81.9918 20.8054 82.6304 21.1599 83.2155 21.5143C83.8007 21.8688 84.0932 22.3611 84.0932 22.9912C84.0932 23.5313 83.916 23.9814 83.5615 24.3415C83.2071 24.7016 82.7092 24.8816 82.0678 24.8816C81.5164 24.8816 80.996 24.7466 80.5065 24.4766C80.017 24.2065 79.5641 23.8127 79.1478 23.295L78 24.3584C78.5176 24.9998 79.1084 25.4837 79.7723 25.81C80.4362 26.1363 81.207 26.2995 82.0847 26.2995ZM88.7349 18.6871L90.4734 14.1636H88.8361L87.4015 18.6871H88.7349ZM93.5284 15.2608C93.8097 15.2608 94.046 15.1623 94.2373 14.9654C94.4286 14.7685 94.5243 14.5294 94.5243 14.248C94.5243 13.978 94.4286 13.7445 94.2373 13.5476C94.046 13.3507 93.8097 13.2522 93.5284 13.2522C93.2471 13.2522 93.008 13.3507 92.8111 13.5476C92.6142 13.7445 92.5157 13.978 92.5157 14.248C92.5157 14.5294 92.6142 14.7685 92.8111 14.9654C93.008 15.1623 93.2471 15.2608 93.5284 15.2608ZM94.2373 25.9788V17.4719H92.8026V25.9788H94.2373ZM100.921 26.3163C101.529 26.3163 102.089 26.2066 102.601 25.9872C103.113 25.7678 103.56 25.4499 103.943 25.0336V25.9788H105.377V13.3197H103.943V18.4171C103.56 18.0007 103.113 17.6829 102.601 17.4634C102.089 17.244 101.529 17.1343 100.921 17.1343C100.257 17.1343 99.6554 17.2581 99.1153 17.5056C98.5752 17.7532 98.1166 18.0851 97.7397 18.5015C97.3627 18.9178 97.0702 19.4045 96.862 19.9615C96.6538 20.5185 96.5497 21.1064 96.5497 21.7253C96.5497 22.3442 96.6538 22.9321 96.862 23.4891C97.0702 24.0461 97.3627 24.5328 97.7397 24.9492C98.1166 25.3655 98.5752 25.6974 99.1153 25.945C99.6554 26.1926 100.257 26.3163 100.921 26.3163ZM101.09 24.966C100.64 24.966 100.229 24.8816 99.858 24.7129C99.4866 24.5441 99.1687 24.3134 98.9043 24.0208C98.6399 23.7283 98.4345 23.3851 98.2882 22.9912C98.142 22.5974 98.0688 22.1754 98.0688 21.7253C98.0688 21.2752 98.142 20.8533 98.2882 20.4594C98.4345 20.0656 98.6399 19.7224 98.9043 19.4298C99.1687 19.1372 99.4866 18.9066 99.858 18.7378C100.229 18.569 100.64 18.4846 101.09 18.4846C101.664 18.4846 102.198 18.6196 102.694 18.8897C103.189 19.1598 103.605 19.5536 103.943 20.0712V23.3794C103.616 23.8858 103.206 24.2768 102.71 24.5525C102.215 24.8282 101.675 24.966 101.09 24.966ZM112.314 26.3163C113.102 26.3163 113.808 26.1588 114.433 25.8437C115.057 25.5287 115.566 25.1067 115.96 24.5778L114.897 23.7508C114.616 24.1334 114.256 24.44 113.817 24.6707C113.378 24.9013 112.888 25.0167 112.348 25.0167C111.403 25.0167 110.635 24.71 110.044 24.0968C109.454 23.4835 109.158 22.7099 109.158 21.776V21.7422H115.673C115.696 21.6297 115.718 21.4918 115.741 21.3287C115.763 21.1655 115.775 20.9995 115.775 20.8307C115.775 20.3019 115.685 19.8096 115.505 19.3539C115.325 18.8981 115.069 18.5071 114.737 18.1808C114.405 17.8545 114.002 17.5985 113.53 17.4128C113.057 17.2271 112.534 17.1343 111.96 17.1343C111.307 17.1343 110.714 17.2525 110.179 17.4888C109.645 17.7251 109.195 18.0486 108.829 18.4593C108.463 18.87 108.179 19.3567 107.977 19.9193C107.774 20.4819 107.673 21.0839 107.673 21.7253C107.673 22.3442 107.78 22.9321 107.994 23.4891C108.207 24.0461 108.514 24.5328 108.913 24.9492C109.313 25.3655 109.802 25.6974 110.382 25.945C110.961 26.1926 111.606 26.3163 112.314 26.3163ZM114.323 20.6113H109.276C109.445 19.8799 109.766 19.3229 110.238 18.9403C110.711 18.5577 111.29 18.3665 111.977 18.3665C112.675 18.3665 113.234 18.5887 113.656 19.0332C114.078 19.4776 114.301 20.0037 114.323 20.6113ZM119.64 25.9788V20.0881C119.91 19.638 120.25 19.2582 120.661 18.9488C121.072 18.6393 121.581 18.4846 122.189 18.4846C122.841 18.4846 123.364 18.6956 123.758 19.1176C124.152 19.5395 124.349 20.1275 124.349 20.8814V25.9788H125.801V20.8307C125.801 19.6267 125.483 18.7097 124.847 18.0795C124.211 17.4494 123.421 17.1343 122.475 17.1343C121.845 17.1343 121.302 17.2553 120.847 17.4972C120.391 17.7391 119.989 18.0514 119.64 18.434V17.4719H118.205V25.9788H119.64ZM132.13 26.1475C132.434 26.1475 132.704 26.1279 132.94 26.0885C133.177 26.0491 133.396 25.99 133.599 25.9112V24.6285C133.441 24.696 133.261 24.7466 133.058 24.7804C132.856 24.8141 132.614 24.831 132.333 24.831C131.815 24.831 131.402 24.7129 131.092 24.4766C130.783 24.2403 130.628 23.7902 130.628 23.1263V18.7884H133.582V17.4719H130.628V15.3452H129.176V17.4719H127.573V18.7884H129.176V23.1263C129.176 24.1615 129.432 24.9238 129.944 25.4133C130.456 25.9028 131.185 26.1475 132.13 26.1475ZM136.502 15.2608C136.783 15.2608 137.019 15.1623 137.211 14.9654C137.402 14.7685 137.498 14.5294 137.498 14.248C137.498 13.978 137.402 13.7445 137.211 13.5476C137.019 13.3507 136.783 13.2522 136.502 13.2522C136.22 13.2522 135.981 13.3507 135.784 13.5476C135.587 13.7445 135.489 13.978 135.489 14.248C135.489 14.5294 135.587 14.7685 135.784 14.9654C135.981 15.1623 136.22 15.2608 136.502 15.2608ZM137.211 25.9788V17.4719H135.776V25.9788H137.211ZM142.19 25.9788V18.7884H145.144V17.4719H142.19V16.3916C142.19 15.8403 142.339 15.407 142.637 15.092C142.935 14.7769 143.315 14.6194 143.776 14.6194C144.069 14.6194 144.319 14.6728 144.528 14.7797C144.736 14.8866 144.913 15.0245 145.059 15.1933L145.954 14.1468C145.706 13.8992 145.397 13.6995 145.025 13.5476C144.654 13.3957 144.232 13.3197 143.76 13.3197C142.848 13.3197 142.117 13.6095 141.565 14.189C141.014 14.7685 140.738 15.5139 140.738 16.4254V17.4719H139.135V18.7884H140.738V25.9788H142.19ZM147.625 15.2608C147.906 15.2608 148.142 15.1623 148.334 14.9654C148.525 14.7685 148.621 14.5294 148.621 14.248C148.621 13.978 148.525 13.7445 148.334 13.5476C148.142 13.3507 147.906 13.2522 147.625 13.2522C147.343 13.2522 147.104 13.3507 146.907 13.5476C146.711 13.7445 146.612 13.978 146.612 14.248C146.612 14.5294 146.711 14.7685 146.907 14.9654C147.104 15.1623 147.343 15.2608 147.625 15.2608ZM148.334 25.9788V17.4719H146.899V25.9788H148.334ZM155.288 26.3163C156.075 26.3163 156.781 26.1588 157.406 25.8437C158.031 25.5287 158.54 25.1067 158.934 24.5778L157.87 23.7508C157.589 24.1334 157.229 24.44 156.79 24.6707C156.351 24.9013 155.862 25.0167 155.321 25.0167C154.376 25.0167 153.608 24.71 153.018 24.0968C152.427 23.4835 152.131 22.7099 152.131 21.776V21.7422H158.647C158.669 21.6297 158.692 21.4918 158.714 21.3287C158.737 21.1655 158.748 20.9995 158.748 20.8307C158.748 20.3019 158.658 19.8096 158.478 19.3539C158.298 18.8981 158.042 18.5071 157.71 18.1808C157.378 17.8545 156.976 17.5985 156.503 17.4128C156.03 17.2271 155.507 17.1343 154.933 17.1343C154.281 17.1343 153.687 17.2525 153.153 17.4888C152.618 17.7251 152.168 18.0486 151.802 18.4593C151.437 18.87 151.152 19.3567 150.95 19.9193C150.747 20.4819 150.646 21.0839 150.646 21.7253C150.646 22.3442 150.753 22.9321 150.967 23.4891C151.181 24.0461 151.487 24.5328 151.887 24.9492C152.286 25.3655 152.776 25.6974 153.355 25.945C153.935 26.1926 154.579 26.3163 155.288 26.3163ZM157.296 20.6113H152.25C152.418 19.8799 152.739 19.3229 153.212 18.9403C153.684 18.5577 154.264 18.3665 154.95 18.3665C155.648 18.3665 156.208 18.5887 156.63 19.0332C157.052 19.4776 157.274 20.0037 157.296 20.6113ZM162.613 25.9788V20.2062C162.872 19.7786 163.193 19.4326 163.575 19.1682C163.958 18.9038 164.425 18.7715 164.976 18.7715C165.145 18.7715 165.297 18.7828 165.432 18.8053C165.567 18.8278 165.696 18.8559 165.82 18.8897V17.4044C165.719 17.3706 165.606 17.3453 165.482 17.3284C165.359 17.3115 165.229 17.3031 165.094 17.3031C164.554 17.3031 164.084 17.4156 163.685 17.6407C163.285 17.8657 162.928 18.1639 162.613 18.5352V17.4719H161.178V25.9788H162.613ZM174.766 26.3163C175.34 26.3163 175.88 26.1926 176.386 25.945C176.892 25.6974 177.303 25.3486 177.618 24.8985V25.9788H179.053V20.2737C179.053 19.3398 178.749 18.5831 178.142 18.0036C177.534 17.4241 176.69 17.1343 175.61 17.1343C174.867 17.1343 174.203 17.2806 173.618 17.5732C173.033 17.8657 172.555 18.2652 172.183 18.7715L173.264 19.5986C173.511 19.2273 173.835 18.9375 174.234 18.7293C174.634 18.5212 175.081 18.4171 175.576 18.4171C176.172 18.4171 176.662 18.5803 177.044 18.9066C177.427 19.2329 177.618 19.6886 177.618 20.2737V20.8645L174.766 21.3371C173.854 21.4834 173.159 21.7816 172.681 22.2317C172.203 22.6818 171.964 23.2332 171.964 23.8858C171.964 24.6285 172.223 25.2192 172.74 25.6581C173.258 26.0969 173.933 26.3163 174.766 26.3163ZM175.002 25.1179C174.518 25.1179 174.13 24.9942 173.837 24.7466C173.545 24.4991 173.399 24.1952 173.399 23.8352C173.399 23.4638 173.536 23.1488 173.812 22.89C174.088 22.6311 174.518 22.4567 175.103 22.3667L177.618 21.9279V23.5482C177.326 24.0321 176.957 24.4147 176.513 24.696C176.068 24.9773 175.565 25.1179 175.002 25.1179ZM185.804 25.9788L189.13 17.4719H187.577L184.859 24.4766L182.142 17.4719H180.589L183.914 25.9788H185.804ZM194.666 26.3163C195.453 26.3163 196.16 26.1588 196.784 25.8437C197.409 25.5287 197.918 25.1067 198.312 24.5778L197.248 23.7508C196.967 24.1334 196.607 24.44 196.168 24.6707C195.729 24.9013 195.24 25.0167 194.7 25.0167C193.754 25.0167 192.986 24.71 192.396 24.0968C191.805 23.4835 191.509 22.7099 191.509 21.776V21.7422H198.025C198.047 21.6297 198.07 21.4918 198.092 21.3287C198.115 21.1655 198.126 20.9995 198.126 20.8307C198.126 20.3019 198.036 19.8096 197.856 19.3539C197.676 18.8981 197.42 18.5071 197.088 18.1808C196.756 17.8545 196.354 17.5985 195.881 17.4128C195.408 17.2271 194.885 17.1343 194.311 17.1343C193.659 17.1343 193.065 17.2525 192.531 17.4888C191.996 17.7251 191.546 18.0486 191.18 18.4593C190.815 18.87 190.531 19.3567 190.328 19.9193C190.125 20.4819 190.024 21.0839 190.024 21.7253C190.024 22.3442 190.131 22.9321 190.345 23.4891C190.559 24.0461 190.865 24.5328 191.265 24.9492C191.664 25.3655 192.154 25.6974 192.733 25.945C193.313 26.1926 193.957 26.3163 194.666 26.3163ZM196.674 20.6113H191.628C191.796 19.8799 192.117 19.3229 192.59 18.9403C193.062 18.5577 193.642 18.3665 194.328 18.3665C195.026 18.3665 195.586 18.5887 196.008 19.0332C196.43 19.4776 196.652 20.0037 196.674 20.6113ZM204.422 26.3163C205.198 26.3163 205.89 26.1588 206.498 25.8437C207.105 25.5287 207.606 25.1067 208 24.5778L206.852 23.7001C206.593 24.0827 206.256 24.3893 205.84 24.62C205.423 24.8507 204.956 24.966 204.439 24.966C203.977 24.966 203.555 24.8816 203.173 24.7129C202.79 24.5441 202.461 24.3162 202.185 24.0293C201.91 23.7423 201.693 23.3991 201.535 22.9997C201.378 22.6002 201.299 22.1754 201.299 21.7253C201.299 21.2752 201.378 20.8533 201.535 20.4594C201.693 20.0656 201.907 19.7224 202.177 19.4298C202.447 19.1372 202.776 18.9066 203.164 18.7378C203.552 18.569 203.972 18.4846 204.422 18.4846C204.939 18.4846 205.409 18.5999 205.831 18.8306C206.253 19.0613 206.593 19.3679 206.852 19.7505L208 18.8728C207.606 18.3552 207.103 17.936 206.489 17.6153C205.876 17.2947 205.187 17.1343 204.422 17.1343C203.724 17.1343 203.088 17.2581 202.514 17.5056C201.941 17.7532 201.454 18.0851 201.054 18.5015C200.655 18.9178 200.345 19.4045 200.126 19.9615C199.907 20.5185 199.797 21.1064 199.797 21.7253C199.797 22.3442 199.907 22.9321 200.126 23.4891C200.345 24.0461 200.655 24.5328 201.054 24.9492C201.454 25.3655 201.941 25.6974 202.514 25.945C203.088 26.1926 203.724 26.3163 204.422 26.3163Z" fill="black"/>
<path d="M82.0847 26.2995C82.6023 26.2995 83.0833 26.2207 83.5278 26.0632C83.9723 25.9056 84.3548 25.6806 84.6755 25.388C84.9962 25.0954 85.2494 24.7438 85.4351 24.3331C85.6207 23.9224 85.7136 23.4695 85.7136 22.9743C85.7136 22.0291 85.421 21.3034 84.8359 20.797C84.2508 20.2906 83.6122 19.8602 82.9202 19.5058C82.2281 19.1513 81.5895 18.7969 81.0044 18.4424C80.4193 18.088 80.1267 17.5957 80.1267 16.9655C80.1267 16.4817 80.2927 16.0738 80.6246 15.7418C80.9566 15.4099 81.3983 15.2439 81.9496 15.2439C82.4672 15.2439 82.937 15.3761 83.359 15.6405C83.781 15.905 84.1664 16.2847 84.5152 16.7799L85.6967 15.7502C85.2579 15.1764 84.729 14.7122 84.1101 14.3578C83.4912 14.0033 82.7654 13.8261 81.9327 13.8261C81.4376 13.8261 80.9791 13.9105 80.5571 14.0793C80.1352 14.248 79.7723 14.4759 79.4684 14.7628C79.1646 15.0498 78.9283 15.3874 78.7595 15.7756C78.5908 16.1638 78.5064 16.5717 78.5064 16.9993C78.5064 17.9332 78.7989 18.6534 79.3841 19.1598C79.9692 19.6661 80.6078 20.0965 81.2998 20.451C81.9918 20.8054 82.6304 21.1599 83.2155 21.5143C83.8007 21.8688 84.0932 22.3611 84.0932 22.9912C84.0932 23.5313 83.916 23.9814 83.5615 24.3415C83.2071 24.7016 82.7092 24.8816 82.0678 24.8816C81.5164 24.8816 80.996 24.7466 80.5065 24.4766C80.017 24.2065 79.5641 23.8127 79.1478 23.295L78 24.3584C78.5176 24.9998 79.1084 25.4837 79.7723 25.81C80.4362 26.1363 81.207 26.2995 82.0847 26.2995ZM88.7349 18.6871L90.4734 14.1636H88.8361L87.4015 18.6871H88.7349ZM93.5284 15.2608C93.8097 15.2608 94.046 15.1623 94.2373 14.9654C94.4286 14.7685 94.5243 14.5294 94.5243 14.248C94.5243 13.978 94.4286 13.7445 94.2373 13.5476C94.046 13.3507 93.8097 13.2522 93.5284 13.2522C93.2471 13.2522 93.008 13.3507 92.8111 13.5476C92.6142 13.7445 92.5157 13.978 92.5157 14.248C92.5157 14.5294 92.6142 14.7685 92.8111 14.9654C93.008 15.1623 93.2471 15.2608 93.5284 15.2608ZM94.2373 25.9788V17.4719H92.8026V25.9788H94.2373ZM100.921 26.3163C101.529 26.3163 102.089 26.2066 102.601 25.9872C103.113 25.7678 103.56 25.4499 103.943 25.0336V25.9788H105.377V13.3197H103.943V18.4171C103.56 18.0007 103.113 17.6829 102.601 17.4634C102.089 17.244 101.529 17.1343 100.921 17.1343C100.257 17.1343 99.6554 17.2581 99.1153 17.5056C98.5752 17.7532 98.1166 18.0851 97.7397 18.5015C97.3627 18.9178 97.0702 19.4045 96.862 19.9615C96.6538 20.5185 96.5497 21.1064 96.5497 21.7253C96.5497 22.3442 96.6538 22.9321 96.862 23.4891C97.0702 24.0461 97.3627 24.5328 97.7397 24.9492C98.1166 25.3655 98.5752 25.6974 99.1153 25.945C99.6554 26.1926 100.257 26.3163 100.921 26.3163ZM101.09 24.966C100.64 24.966 100.229 24.8816 99.858 24.7129C99.4866 24.5441 99.1687 24.3134 98.9043 24.0208C98.6399 23.7283 98.4345 23.3851 98.2882 22.9912C98.142 22.5974 98.0688 22.1754 98.0688 21.7253C98.0688 21.2752 98.142 20.8533 98.2882 20.4594C98.4345 20.0656 98.6399 19.7224 98.9043 19.4298C99.1687 19.1372 99.4866 18.9066 99.858 18.7378C100.229 18.569 100.64 18.4846 101.09 18.4846C101.664 18.4846 102.198 18.6196 102.694 18.8897C103.189 19.1598 103.605 19.5536 103.943 20.0712V23.3794C103.616 23.8858 103.206 24.2768 102.71 24.5525C102.215 24.8282 101.675 24.966 101.09 24.966ZM112.314 26.3163C113.102 26.3163 113.808 26.1588 114.433 25.8437C115.057 25.5287 115.566 25.1067 115.96 24.5778L114.897 23.7508C114.616 24.1334 114.256 24.44 113.817 24.6707C113.378 24.9013 112.888 25.0167 112.348 25.0167C111.403 25.0167 110.635 24.71 110.044 24.0968C109.454 23.4835 109.158 22.7099 109.158 21.776V21.7422H115.673C115.696 21.6297 115.718 21.4918 115.741 21.3287C115.763 21.1655 115.775 20.9995 115.775 20.8307C115.775 20.3019 115.685 19.8096 115.505 19.3539C115.325 18.8981 115.069 18.5071 114.737 18.1808C114.405 17.8545 114.002 17.5985 113.53 17.4128C113.057 17.2271 112.534 17.1343 111.96 17.1343C111.307 17.1343 110.714 17.2525 110.179 17.4888C109.645 17.7251 109.195 18.0486 108.829 18.4593C108.463 18.87 108.179 19.3567 107.977 19.9193C107.774 20.4819 107.673 21.0839 107.673 21.7253C107.673 22.3442 107.78 22.9321 107.994 23.4891C108.207 24.0461 108.514 24.5328 108.913 24.9492C109.313 25.3655 109.802 25.6974 110.382 25.945C110.961 26.1926 111.606 26.3163 112.314 26.3163ZM114.323 20.6113H109.276C109.445 19.8799 109.766 19.3229 110.238 18.9403C110.711 18.5577 111.29 18.3665 111.977 18.3665C112.675 18.3665 113.234 18.5887 113.656 19.0332C114.078 19.4776 114.301 20.0037 114.323 20.6113ZM119.64 25.9788V20.0881C119.91 19.638 120.25 19.2582 120.661 18.9488C121.072 18.6393 121.581 18.4846 122.189 18.4846C122.841 18.4846 123.364 18.6956 123.758 19.1176C124.152 19.5395 124.349 20.1275 124.349 20.8814V25.9788H125.801V20.8307C125.801 19.6267 125.483 18.7097 124.847 18.0795C124.211 17.4494 123.421 17.1343 122.475 17.1343C121.845 17.1343 121.302 17.2553 120.847 17.4972C120.391 17.7391 119.989 18.0514 119.64 18.434V17.4719H118.205V25.9788H119.64ZM132.13 26.1475C132.434 26.1475 132.704 26.1279 132.94 26.0885C133.177 26.0491 133.396 25.99 133.599 25.9112V24.6285C133.441 24.696 133.261 24.7466 133.058 24.7804C132.856 24.8141 132.614 24.831 132.333 24.831C131.815 24.831 131.402 24.7129 131.092 24.4766C130.783 24.2403 130.628 23.7902 130.628 23.1263V18.7884H133.582V17.4719H130.628V15.3452H129.176V17.4719H127.573V18.7884H129.176V23.1263C129.176 24.1615 129.432 24.9238 129.944 25.4133C130.456 25.9028 131.185 26.1475 132.13 26.1475ZM136.502 15.2608C136.783 15.2608 137.019 15.1623 137.211 14.9654C137.402 14.7685 137.498 14.5294 137.498 14.248C137.498 13.978 137.402 13.7445 137.211 13.5476C137.019 13.3507 136.783 13.2522 136.502 13.2522C136.22 13.2522 135.981 13.3507 135.784 13.5476C135.587 13.7445 135.489 13.978 135.489 14.248C135.489 14.5294 135.587 14.7685 135.784 14.9654C135.981 15.1623 136.22 15.2608 136.502 15.2608ZM137.211 25.9788V17.4719H135.776V25.9788H137.211ZM142.19 25.9788V18.7884H145.144V17.4719H142.19V16.3916C142.19 15.8403 142.339 15.407 142.637 15.092C142.935 14.7769 143.315 14.6194 143.776 14.6194C144.069 14.6194 144.319 14.6728 144.528 14.7797C144.736 14.8866 144.913 15.0245 145.059 15.1933L145.954 14.1468C145.706 13.8992 145.397 13.6995 145.025 13.5476C144.654 13.3957 144.232 13.3197 143.76 13.3197C142.848 13.3197 142.117 13.6095 141.565 14.189C141.014 14.7685 140.738 15.5139 140.738 16.4254V17.4719H139.135V18.7884H140.738V25.9788H142.19ZM147.625 15.2608C147.906 15.2608 148.142 15.1623 148.334 14.9654C148.525 14.7685 148.621 14.5294 148.621 14.248C148.621 13.978 148.525 13.7445 148.334 13.5476C148.142 13.3507 147.906 13.2522 147.625 13.2522C147.343 13.2522 147.104 13.3507 146.907 13.5476C146.711 13.7445 146.612 13.978 146.612 14.248C146.612 14.5294 146.711 14.7685 146.907 14.9654C147.104 15.1623 147.343 15.2608 147.625 15.2608ZM148.334 25.9788V17.4719H146.899V25.9788H148.334ZM155.288 26.3163C156.075 26.3163 156.781 26.1588 157.406 25.8437C158.031 25.5287 158.54 25.1067 158.934 24.5778L157.87 23.7508C157.589 24.1334 157.229 24.44 156.79 24.6707C156.351 24.9013 155.862 25.0167 155.321 25.0167C154.376 25.0167 153.608 24.71 153.018 24.0968C152.427 23.4835 152.131 22.7099 152.131 21.776V21.7422H158.647C158.669 21.6297 158.692 21.4918 158.714 21.3287C158.737 21.1655 158.748 20.9995 158.748 20.8307C158.748 20.3019 158.658 19.8096 158.478 19.3539C158.298 18.8981 158.042 18.5071 157.71 18.1808C157.378 17.8545 156.976 17.5985 156.503 17.4128C156.03 17.2271 155.507 17.1343 154.933 17.1343C154.281 17.1343 153.687 17.2525 153.153 17.4888C152.618 17.7251 152.168 18.0486 151.802 18.4593C151.437 18.87 151.152 19.3567 150.95 19.9193C150.747 20.4819 150.646 21.0839 150.646 21.7253C150.646 22.3442 150.753 22.9321 150.967 23.4891C151.181 24.0461 151.487 24.5328 151.887 24.9492C152.286 25.3655 152.776 25.6974 153.355 25.945C153.935 26.1926 154.579 26.3163 155.288 26.3163ZM157.296 20.6113H152.25C152.418 19.8799 152.739 19.3229 153.212 18.9403C153.684 18.5577 154.264 18.3665 154.95 18.3665C155.648 18.3665 156.208 18.5887 156.63 19.0332C157.052 19.4776 157.274 20.0037 157.296 20.6113ZM162.613 25.9788V20.2062C162.872 19.7786 163.193 19.4326 163.575 19.1682C163.958 18.9038 164.425 18.7715 164.976 18.7715C165.145 18.7715 165.297 18.7828 165.432 18.8053C165.567 18.8278 165.696 18.8559 165.82 18.8897V17.4044C165.719 17.3706 165.606 17.3453 165.482 17.3284C165.359 17.3115 165.229 17.3031 165.094 17.3031C164.554 17.3031 164.084 17.4156 163.685 17.6407C163.285 17.8657 162.928 18.1639 162.613 18.5352V17.4719H161.178V25.9788H162.613ZM174.766 26.3163C175.34 26.3163 175.88 26.1926 176.386 25.945C176.892 25.6974 177.303 25.3486 177.618 24.8985V25.9788H179.053V20.2737C179.053 19.3398 178.749 18.5831 178.142 18.0036C177.534 17.4241 176.69 17.1343 175.61 17.1343C174.867 17.1343 174.203 17.2806 173.618 17.5732C173.033 17.8657 172.555 18.2652 172.183 18.7715L173.264 19.5986C173.511 19.2273 173.835 18.9375 174.234 18.7293C174.634 18.5212 175.081 18.4171 175.576 18.4171C176.172 18.4171 176.662 18.5803 177.044 18.9066C177.427 19.2329 177.618 19.6886 177.618 20.2737V20.8645L174.766 21.3371C173.854 21.4834 173.159 21.7816 172.681 22.2317C172.203 22.6818 171.964 23.2332 171.964 23.8858C171.964 24.6285 172.223 25.2192 172.74 25.6581C173.258 26.0969 173.933 26.3163 174.766 26.3163ZM175.002 25.1179C174.518 25.1179 174.13 24.9942 173.837 24.7466C173.545 24.4991 173.399 24.1952 173.399 23.8352C173.399 23.4638 173.536 23.1488 173.812 22.89C174.088 22.6311 174.518 22.4567 175.103 22.3667L177.618 21.9279V23.5482C177.326 24.0321 176.957 24.4147 176.513 24.696C176.068 24.9773 175.565 25.1179 175.002 25.1179ZM185.804 25.9788L189.13 17.4719H187.577L184.859 24.4766L182.142 17.4719H180.589L183.914 25.9788H185.804ZM194.666 26.3163C195.453 26.3163 196.16 26.1588 196.784 25.8437C197.409 25.5287 197.918 25.1067 198.312 24.5778L197.248 23.7508C196.967 24.1334 196.607 24.44 196.168 24.6707C195.729 24.9013 195.24 25.0167 194.7 25.0167C193.754 25.0167 192.986 24.71 192.396 24.0968C191.805 23.4835 191.509 22.7099 191.509 21.776V21.7422H198.025C198.047 21.6297 198.07 21.4918 198.092 21.3287C198.115 21.1655 198.126 20.9995 198.126 20.8307C198.126 20.3019 198.036 19.8096 197.856 19.3539C197.676 18.8981 197.42 18.5071 197.088 18.1808C196.756 17.8545 196.354 17.5985 195.881 17.4128C195.408 17.2271 194.885 17.1343 194.311 17.1343C193.659 17.1343 193.065 17.2525 192.531 17.4888C191.996 17.7251 191.546 18.0486 191.18 18.4593C190.815 18.87 190.531 19.3567 190.328 19.9193C190.125 20.4819 190.024 21.0839 190.024 21.7253C190.024 22.3442 190.131 22.9321 190.345 23.4891C190.559 24.0461 190.865 24.5328 191.265 24.9492C191.664 25.3655 192.154 25.6974 192.733 25.945C193.313 26.1926 193.957 26.3163 194.666 26.3163ZM196.674 20.6113H191.628C191.796 19.8799 192.117 19.3229 192.59 18.9403C193.062 18.5577 193.642 18.3665 194.328 18.3665C195.026 18.3665 195.586 18.5887 196.008 19.0332C196.43 19.4776 196.652 20.0037 196.674 20.6113ZM204.422 26.3163C205.198 26.3163 205.89 26.1588 206.498 25.8437C207.105 25.5287 207.606 25.1067 208 24.5778L206.852 23.7001C206.593 24.0827 206.256 24.3893 205.84 24.62C205.423 24.8507 204.956 24.966 204.439 24.966C203.977 24.966 203.555 24.8816 203.173 24.7129C202.79 24.5441 202.461 24.3162 202.185 24.0293C201.91 23.7423 201.693 23.3991 201.535 22.9997C201.378 22.6002 201.299 22.1754 201.299 21.7253C201.299 21.2752 201.378 20.8533 201.535 20.4594C201.693 20.0656 201.907 19.7224 202.177 19.4298C202.447 19.1372 202.776 18.9066 203.164 18.7378C203.552 18.569 203.972 18.4846 204.422 18.4846C204.939 18.4846 205.409 18.5999 205.831 18.8306C206.253 19.0613 206.593 19.3679 206.852 19.7505L208 18.8728C207.606 18.3552 207.103 17.936 206.489 17.6153C205.876 17.2947 205.187 17.1343 204.422 17.1343C203.724 17.1343 203.088 17.2581 202.514 17.5056C201.941 17.7532 201.454 18.0851 201.054 18.5015C200.655 18.9178 200.345 19.4045 200.126 19.9615C199.907 20.5185 199.797 21.1064 199.797 21.7253C199.797 22.3442 199.907 22.9321 200.126 23.4891C200.345 24.0461 200.655 24.5328 201.054 24.9492C201.454 25.3655 201.941 25.6974 202.514 25.945C203.088 26.1926 203.724 26.3163 204.422 26.3163Z" fill="white"/>
<path d="M80.5596 45.0184V39.6829H84.6334V37.5018H80.5596V34.5816H85.3544V32.4005H78V45.0184H80.5596ZM89.2119 45.0184V39.3223C89.3801 39.046 89.6475 38.7816 90.014 38.5292C90.3805 38.2769 90.8402 38.1507 91.393 38.1507C91.5972 38.1507 91.7805 38.1627 91.9427 38.1867C92.105 38.2108 92.2582 38.2408 92.4024 38.2769V35.8795C92.2942 35.8434 92.1741 35.8134 92.0419 35.7893C91.9097 35.7653 91.7655 35.7533 91.6093 35.7533C91.0925 35.7533 90.6389 35.8584 90.2483 36.0687C89.8578 36.279 89.5123 36.5344 89.2119 36.8348V35.9335H86.9226V45.0184H89.2119ZM96.404 45.3789C96.9328 45.3789 97.4435 45.2678 97.9362 45.0454C98.4289 44.8231 98.8195 44.5317 99.1079 44.1712V45.0184H101.415V39.1421C101.415 38.6494 101.331 38.1837 101.163 37.7451C100.995 37.3065 100.745 36.928 100.415 36.6095C100.084 36.2911 99.6667 36.0387 99.162 35.8524C98.6572 35.6662 98.0804 35.573 97.4315 35.573C96.6143 35.573 95.8783 35.7353 95.2234 36.0597C94.5685 36.3842 94.0367 36.8228 93.6281 37.3756L95.3225 38.6554C95.5268 38.3069 95.8062 38.0395 96.1607 37.8533C96.5152 37.667 96.9148 37.5739 97.3594 37.5739C97.8761 37.5739 98.2967 37.7151 98.6212 37.9975C98.9456 38.2799 99.1079 38.6614 99.1079 39.1421V39.3764L96.368 39.8451C95.3946 40.0013 94.6466 40.3318 94.1238 40.8365C93.6011 41.3412 93.3397 41.936 93.3397 42.621C93.3397 43.4742 93.6251 44.1472 94.1959 44.6399C94.7667 45.1326 95.5028 45.3789 96.404 45.3789ZM96.8727 43.5403C96.4882 43.5403 96.1817 43.4442 95.9534 43.2519C95.7251 43.0596 95.6109 42.8193 95.6109 42.5309C95.6109 42.2425 95.7161 42.0021 95.9264 41.8099C96.1367 41.6176 96.4822 41.4794 96.9628 41.3953L99.1079 41.0167V42.2605C98.8796 42.633 98.5791 42.9395 98.2066 43.1798C97.8341 43.4201 97.3894 43.5403 96.8727 43.5403ZM106.318 45.0184V39.088C106.486 38.7996 106.736 38.5022 107.066 38.1958C107.397 37.8893 107.85 37.7361 108.427 37.7361C108.98 37.7361 109.415 37.9134 109.734 38.2679C110.052 38.6224 110.212 39.1 110.212 39.7009V45.0184H112.537V39.6108C112.537 38.9378 112.444 38.349 112.257 37.8443C112.071 37.3395 111.819 36.9189 111.5 36.5825C111.182 36.246 110.809 35.9936 110.383 35.8254C109.956 35.6572 109.497 35.573 109.004 35.573C108.403 35.573 107.883 35.6782 107.445 35.8885C107.006 36.0988 106.631 36.3541 106.318 36.6546V35.9335H104.029V45.0184H106.318ZM119.495 45.3789C120.324 45.3789 121.066 45.2107 121.721 44.8742C122.376 44.5377 122.914 44.0931 123.334 43.5403L121.514 42.1524C121.297 42.4648 121.018 42.7202 120.675 42.9184C120.333 43.1167 119.939 43.2159 119.495 43.2159C118.738 43.2159 118.11 42.9575 117.611 42.4408C117.112 41.924 116.863 41.2691 116.863 40.476C116.863 39.6829 117.109 39.0279 117.602 38.5112C118.095 37.9945 118.714 37.7361 119.459 37.7361C119.927 37.7361 120.333 37.8352 120.675 38.0335C121.018 38.2318 121.297 38.4872 121.514 38.7996L123.334 37.4116C122.914 36.8589 122.376 36.4142 121.721 36.0778C121.066 35.7413 120.324 35.573 119.495 35.573C118.714 35.573 118.011 35.7052 117.386 35.9696C116.761 36.234 116.235 36.5885 115.809 37.0331C115.382 37.4777 115.054 37.9975 114.826 38.5923C114.598 39.1872 114.484 39.815 114.484 40.476C114.484 41.1369 114.598 41.7648 114.826 42.3596C115.054 42.9545 115.382 43.4742 115.809 43.9189C116.235 44.3635 116.761 44.718 117.386 44.9824C118.011 45.2467 118.714 45.3789 119.495 45.3789ZM129.084 45.3789C129.938 45.3789 130.707 45.2137 131.392 44.8832C132.077 44.5528 132.629 44.1051 133.05 43.5403L131.41 42.2425C131.169 42.5669 130.851 42.8283 130.454 43.0266C130.058 43.2249 129.613 43.324 129.12 43.324C128.351 43.324 127.72 43.1137 127.228 42.6931C126.735 42.2725 126.453 41.6897 126.38 40.9446H132.743C132.78 40.7884 132.813 40.5961 132.843 40.3678C132.873 40.1395 132.888 39.8992 132.888 39.6468C132.888 38.4571 132.503 37.4807 131.734 36.7177C130.965 35.9546 129.956 35.573 128.706 35.573C127.961 35.573 127.3 35.7022 126.723 35.9606C126.146 36.219 125.659 36.5704 125.263 37.0151C124.866 37.4597 124.563 37.9794 124.353 38.5743C124.142 39.1691 124.037 39.803 124.037 40.476C124.037 41.1369 124.148 41.7648 124.371 42.3596C124.593 42.9545 124.917 43.4742 125.344 43.9189C125.771 44.3635 126.299 44.718 126.93 44.9824C127.561 45.2467 128.279 45.3789 129.084 45.3789ZM130.616 39.2142H126.525C126.681 38.6254 126.945 38.1897 127.318 37.9073C127.69 37.6249 128.153 37.4837 128.706 37.4837C129.307 37.4837 129.772 37.661 130.103 38.0155C130.433 38.37 130.604 38.7696 130.616 39.2142ZM141.306 45.3789C142.447 45.3789 143.475 45.1446 144.388 44.6759C145.301 44.2073 146.046 43.5824 146.623 42.8013L144.604 41.2511C144.244 41.7678 143.784 42.1854 143.225 42.5038C142.667 42.8223 142.027 42.9815 141.306 42.9815C140.717 42.9815 140.17 42.8704 139.665 42.6481C139.161 42.4257 138.731 42.1253 138.376 41.7468C138.022 41.3682 137.743 40.9176 137.538 40.3949C137.334 39.8721 137.232 39.3103 137.232 38.7095C137.232 38.1086 137.334 37.5468 137.538 37.0241C137.743 36.5014 138.022 36.0507 138.376 35.6722C138.731 35.2936 139.161 34.9932 139.665 34.7709C140.17 34.5486 140.717 34.4374 141.306 34.4374C142.027 34.4374 142.667 34.5967 143.225 34.9151C143.784 35.2336 144.244 35.6511 144.604 36.1679L146.623 34.5997C146.046 33.8426 145.301 33.2267 144.388 32.752C143.475 32.2774 142.447 32.04 141.306 32.04C140.32 32.04 139.413 32.2203 138.584 32.5808C137.755 32.9413 137.046 33.422 136.457 34.0228C135.868 34.6237 135.411 35.3297 135.087 36.1408C134.762 36.952 134.6 37.8082 134.6 38.7095C134.6 39.6108 134.762 40.467 135.087 41.2781C135.411 42.0893 135.868 42.7953 136.457 43.3961C137.046 43.997 137.755 44.4776 138.584 44.8382C139.413 45.1987 140.32 45.3789 141.306 45.3789ZM152.68 45.3789C153.413 45.3789 154.086 45.2497 154.699 44.9914C155.311 44.733 155.837 44.3845 156.276 43.9459C156.714 43.5073 157.054 42.9875 157.294 42.3867C157.535 41.7858 157.655 41.1489 157.655 40.476C157.655 39.803 157.535 39.1661 157.294 38.5653C157.054 37.9644 156.714 37.4447 156.276 37.0061C155.837 36.5674 155.311 36.219 154.699 35.9606C154.086 35.7022 153.413 35.573 152.68 35.573C151.947 35.573 151.274 35.7022 150.661 35.9606C150.048 36.219 149.522 36.5674 149.084 37.0061C148.645 37.4447 148.306 37.9644 148.065 38.5653C147.825 39.1661 147.705 39.803 147.705 40.476C147.705 41.1489 147.825 41.7858 148.065 42.3867C148.306 42.9875 148.645 43.5073 149.084 43.9459C149.522 44.3845 150.048 44.733 150.661 44.9914C151.274 45.2497 151.947 45.3789 152.68 45.3789ZM152.716 43.2159C151.959 43.2159 151.331 42.9575 150.832 42.4408C150.333 41.924 150.084 41.2691 150.084 40.476C150.084 39.6829 150.333 39.0279 150.832 38.5112C151.331 37.9945 151.959 37.7361 152.716 37.7361C153.437 37.7361 154.044 37.9945 154.536 38.5112C155.029 39.0279 155.275 39.6829 155.275 40.476C155.275 41.2571 155.029 41.909 154.536 42.4317C154.044 42.9545 153.437 43.2159 152.716 43.2159ZM162.035 45.0184V39.088C162.203 38.7996 162.453 38.5022 162.783 38.1958C163.113 37.8893 163.567 37.7361 164.144 37.7361C164.697 37.7361 165.132 37.9134 165.451 38.2679C165.769 38.6224 165.928 39.1 165.928 39.7009V45.0184H168.254V39.6108C168.254 38.9378 168.161 38.349 167.974 37.8443C167.788 37.3395 167.536 36.9189 167.217 36.5825C166.899 36.246 166.526 35.9936 166.1 35.8254C165.673 35.6572 165.213 35.573 164.721 35.573C164.12 35.573 163.6 35.6782 163.162 35.8885C162.723 36.0988 162.347 36.3541 162.035 36.6546V35.9335H159.746V45.0184H162.035ZM173.139 45.0184V39.088C173.307 38.7996 173.556 38.5022 173.887 38.1958C174.217 37.8893 174.671 37.7361 175.248 37.7361C175.8 37.7361 176.236 37.9134 176.554 38.2679C176.873 38.6224 177.032 39.1 177.032 39.7009V45.0184H179.357V39.6108C179.357 38.9378 179.264 38.349 179.078 37.8443C178.892 37.3395 178.639 36.9189 178.321 36.5825C178.003 36.246 177.63 35.9936 177.203 35.8254C176.777 35.6572 176.317 35.573 175.824 35.573C175.224 35.573 174.704 35.6782 174.265 35.8885C173.827 36.0988 173.451 36.3541 173.139 36.6546V35.9335H170.849V45.0184H173.139ZM186.351 45.3789C187.205 45.3789 187.974 45.2137 188.659 44.8832C189.344 44.5528 189.896 44.1051 190.317 43.5403L188.677 42.2425C188.436 42.5669 188.118 42.8283 187.721 43.0266C187.325 43.2249 186.88 43.324 186.387 43.324C185.618 43.324 184.987 43.1137 184.495 42.6931C184.002 42.2725 183.72 41.6897 183.648 40.9446H190.011C190.047 40.7884 190.08 40.5961 190.11 40.3678C190.14 40.1395 190.155 39.8992 190.155 39.6468C190.155 38.4571 189.77 37.4807 189.001 36.7177C188.232 35.9546 187.223 35.573 185.973 35.573C185.228 35.573 184.567 35.7022 183.99 35.9606C183.413 36.219 182.927 36.5704 182.53 37.0151C182.133 37.4597 181.83 37.9794 181.62 38.5743C181.409 39.1691 181.304 39.803 181.304 40.476C181.304 41.1369 181.415 41.7648 181.638 42.3596C181.86 42.9545 182.184 43.4742 182.611 43.9189C183.038 44.3635 183.566 44.718 184.197 44.9824C184.828 45.2467 185.546 45.3789 186.351 45.3789ZM187.884 39.2142H183.792C183.948 38.6254 184.212 38.1897 184.585 37.9073C184.957 37.6249 185.42 37.4837 185.973 37.4837C186.574 37.4837 187.039 37.661 187.37 38.0155C187.7 38.37 187.872 38.7696 187.884 39.2142ZM196.68 45.3789C197.509 45.3789 198.251 45.2107 198.906 44.8742C199.561 44.5377 200.099 44.0931 200.519 43.5403L198.699 42.1524C198.483 42.4648 198.203 42.7202 197.861 42.9184C197.518 43.1167 197.125 43.2159 196.68 43.2159C195.923 43.2159 195.295 42.9575 194.796 42.4408C194.298 41.924 194.048 41.2691 194.048 40.476C194.048 39.6829 194.295 39.0279 194.787 38.5112C195.28 37.9945 195.899 37.7361 196.644 37.7361C197.113 37.7361 197.518 37.8352 197.861 38.0335C198.203 38.2318 198.483 38.4872 198.699 38.7996L200.519 37.4116C200.099 36.8589 199.561 36.4142 198.906 36.0778C198.251 35.7413 197.509 35.573 196.68 35.573C195.899 35.573 195.196 35.7052 194.571 35.9696C193.946 36.234 193.42 36.5885 192.994 37.0331C192.567 37.4777 192.24 37.9975 192.011 38.5923C191.783 39.1872 191.669 39.815 191.669 40.476C191.669 41.1369 191.783 41.7648 192.011 42.3596C192.24 42.9545 192.567 43.4742 192.994 43.9189C193.42 44.3635 193.946 44.718 194.571 44.9824C195.196 45.2467 195.899 45.3789 196.68 45.3789ZM206.252 45.1987C206.624 45.1987 206.952 45.1746 207.234 45.1266C207.516 45.0785 207.772 45.0064 208 44.9103V42.9094C207.844 42.9695 207.658 43.0176 207.441 43.0536C207.225 43.0897 206.961 43.1077 206.648 43.1077C206.203 43.1077 205.852 42.9996 205.594 42.7832C205.335 42.5669 205.206 42.2064 205.206 41.7017V38.0245H207.982V35.9335H205.206V33.6623H202.899V35.9335H201.204V38.0245H202.899V41.7017C202.899 42.8073 203.175 43.6665 203.728 44.2794C204.281 44.8922 205.122 45.1987 206.252 45.1987Z" fill="black"/>
<path d="M80.5596 45.0184V39.6829H84.6334V37.5018H80.5596V34.5816H85.3544V32.4005H78V45.0184H80.5596ZM89.2119 45.0184V39.3223C89.3801 39.046 89.6475 38.7816 90.014 38.5292C90.3805 38.2769 90.8402 38.1507 91.393 38.1507C91.5972 38.1507 91.7805 38.1627 91.9427 38.1867C92.105 38.2108 92.2582 38.2408 92.4024 38.2769V35.8795C92.2942 35.8434 92.1741 35.8134 92.0419 35.7893C91.9097 35.7653 91.7655 35.7533 91.6093 35.7533C91.0925 35.7533 90.6389 35.8584 90.2483 36.0687C89.8578 36.279 89.5123 36.5344 89.2119 36.8348V35.9335H86.9226V45.0184H89.2119ZM96.404 45.3789C96.9328 45.3789 97.4435 45.2678 97.9362 45.0454C98.4289 44.8231 98.8195 44.5317 99.1079 44.1712V45.0184H101.415V39.1421C101.415 38.6494 101.331 38.1837 101.163 37.7451C100.995 37.3065 100.745 36.928 100.415 36.6095C100.084 36.2911 99.6667 36.0387 99.162 35.8524C98.6572 35.6662 98.0804 35.573 97.4315 35.573C96.6143 35.573 95.8783 35.7353 95.2234 36.0597C94.5685 36.3842 94.0367 36.8228 93.6281 37.3756L95.3225 38.6554C95.5268 38.3069 95.8062 38.0395 96.1607 37.8533C96.5152 37.667 96.9148 37.5739 97.3594 37.5739C97.8761 37.5739 98.2967 37.7151 98.6212 37.9975C98.9456 38.2799 99.1079 38.6614 99.1079 39.1421V39.3764L96.368 39.8451C95.3946 40.0013 94.6466 40.3318 94.1238 40.8365C93.6011 41.3412 93.3397 41.936 93.3397 42.621C93.3397 43.4742 93.6251 44.1472 94.1959 44.6399C94.7667 45.1326 95.5028 45.3789 96.404 45.3789ZM96.8727 43.5403C96.4882 43.5403 96.1817 43.4442 95.9534 43.2519C95.7251 43.0596 95.6109 42.8193 95.6109 42.5309C95.6109 42.2425 95.7161 42.0021 95.9264 41.8099C96.1367 41.6176 96.4822 41.4794 96.9628 41.3953L99.1079 41.0167V42.2605C98.8796 42.633 98.5791 42.9395 98.2066 43.1798C97.8341 43.4201 97.3894 43.5403 96.8727 43.5403ZM106.318 45.0184V39.088C106.486 38.7996 106.736 38.5022 107.066 38.1958C107.397 37.8893 107.85 37.7361 108.427 37.7361C108.98 37.7361 109.415 37.9134 109.734 38.2679C110.052 38.6224 110.212 39.1 110.212 39.7009V45.0184H112.537V39.6108C112.537 38.9378 112.444 38.349 112.257 37.8443C112.071 37.3395 111.819 36.9189 111.5 36.5825C111.182 36.246 110.809 35.9936 110.383 35.8254C109.956 35.6572 109.497 35.573 109.004 35.573C108.403 35.573 107.883 35.6782 107.445 35.8885C107.006 36.0988 106.631 36.3541 106.318 36.6546V35.9335H104.029V45.0184H106.318ZM119.495 45.3789C120.324 45.3789 121.066 45.2107 121.721 44.8742C122.376 44.5377 122.914 44.0931 123.334 43.5403L121.514 42.1524C121.297 42.4648 121.018 42.7202 120.675 42.9184C120.333 43.1167 119.939 43.2159 119.495 43.2159C118.738 43.2159 118.11 42.9575 117.611 42.4408C117.112 41.924 116.863 41.2691 116.863 40.476C116.863 39.6829 117.109 39.0279 117.602 38.5112C118.095 37.9945 118.714 37.7361 119.459 37.7361C119.927 37.7361 120.333 37.8352 120.675 38.0335C121.018 38.2318 121.297 38.4872 121.514 38.7996L123.334 37.4116C122.914 36.8589 122.376 36.4142 121.721 36.0778C121.066 35.7413 120.324 35.573 119.495 35.573C118.714 35.573 118.011 35.7052 117.386 35.9696C116.761 36.234 116.235 36.5885 115.809 37.0331C115.382 37.4777 115.054 37.9975 114.826 38.5923C114.598 39.1872 114.484 39.815 114.484 40.476C114.484 41.1369 114.598 41.7648 114.826 42.3596C115.054 42.9545 115.382 43.4742 115.809 43.9189C116.235 44.3635 116.761 44.718 117.386 44.9824C118.011 45.2467 118.714 45.3789 119.495 45.3789ZM129.084 45.3789C129.938 45.3789 130.707 45.2137 131.392 44.8832C132.077 44.5528 132.629 44.1051 133.05 43.5403L131.41 42.2425C131.169 42.5669 130.851 42.8283 130.454 43.0266C130.058 43.2249 129.613 43.324 129.12 43.324C128.351 43.324 127.72 43.1137 127.228 42.6931C126.735 42.2725 126.453 41.6897 126.38 40.9446H132.743C132.78 40.7884 132.813 40.5961 132.843 40.3678C132.873 40.1395 132.888 39.8992 132.888 39.6468C132.888 38.4571 132.503 37.4807 131.734 36.7177C130.965 35.9546 129.956 35.573 128.706 35.573C127.961 35.573 127.3 35.7022 126.723 35.9606C126.146 36.219 125.659 36.5704 125.263 37.0151C124.866 37.4597 124.563 37.9794 124.353 38.5743C124.142 39.1691 124.037 39.803 124.037 40.476C124.037 41.1369 124.148 41.7648 124.371 42.3596C124.593 42.9545 124.917 43.4742 125.344 43.9189C125.771 44.3635 126.299 44.718 126.93 44.9824C127.561 45.2467 128.279 45.3789 129.084 45.3789ZM130.616 39.2142H126.525C126.681 38.6254 126.945 38.1897 127.318 37.9073C127.69 37.6249 128.153 37.4837 128.706 37.4837C129.307 37.4837 129.772 37.661 130.103 38.0155C130.433 38.37 130.604 38.7696 130.616 39.2142ZM141.306 45.3789C142.447 45.3789 143.475 45.1446 144.388 44.6759C145.301 44.2073 146.046 43.5824 146.623 42.8013L144.604 41.2511C144.244 41.7678 143.784 42.1854 143.225 42.5038C142.667 42.8223 142.027 42.9815 141.306 42.9815C140.717 42.9815 140.17 42.8704 139.665 42.6481C139.161 42.4257 138.731 42.1253 138.376 41.7468C138.022 41.3682 137.743 40.9176 137.538 40.3949C137.334 39.8721 137.232 39.3103 137.232 38.7095C137.232 38.1086 137.334 37.5468 137.538 37.0241C137.743 36.5014 138.022 36.0507 138.376 35.6722C138.731 35.2936 139.161 34.9932 139.665 34.7709C140.17 34.5486 140.717 34.4374 141.306 34.4374C142.027 34.4374 142.667 34.5967 143.225 34.9151C143.784 35.2336 144.244 35.6511 144.604 36.1679L146.623 34.5997C146.046 33.8426 145.301 33.2267 144.388 32.752C143.475 32.2774 142.447 32.04 141.306 32.04C140.32 32.04 139.413 32.2203 138.584 32.5808C137.755 32.9413 137.046 33.422 136.457 34.0228C135.868 34.6237 135.411 35.3297 135.087 36.1408C134.762 36.952 134.6 37.8082 134.6 38.7095C134.6 39.6108 134.762 40.467 135.087 41.2781C135.411 42.0893 135.868 42.7953 136.457 43.3961C137.046 43.997 137.755 44.4776 138.584 44.8382C139.413 45.1987 140.32 45.3789 141.306 45.3789ZM152.68 45.3789C153.413 45.3789 154.086 45.2497 154.699 44.9914C155.311 44.733 155.837 44.3845 156.276 43.9459C156.714 43.5073 157.054 42.9875 157.294 42.3867C157.535 41.7858 157.655 41.1489 157.655 40.476C157.655 39.803 157.535 39.1661 157.294 38.5653C157.054 37.9644 156.714 37.4447 156.276 37.0061C155.837 36.5674 155.311 36.219 154.699 35.9606C154.086 35.7022 153.413 35.573 152.68 35.573C151.947 35.573 151.274 35.7022 150.661 35.9606C150.048 36.219 149.522 36.5674 149.084 37.0061C148.645 37.4447 148.306 37.9644 148.065 38.5653C147.825 39.1661 147.705 39.803 147.705 40.476C147.705 41.1489 147.825 41.7858 148.065 42.3867C148.306 42.9875 148.645 43.5073 149.084 43.9459C149.522 44.3845 150.048 44.733 150.661 44.9914C151.274 45.2497 151.947 45.3789 152.68 45.3789ZM152.716 43.2159C151.959 43.2159 151.331 42.9575 150.832 42.4408C150.333 41.924 150.084 41.2691 150.084 40.476C150.084 39.6829 150.333 39.0279 150.832 38.5112C151.331 37.9945 151.959 37.7361 152.716 37.7361C153.437 37.7361 154.044 37.9945 154.536 38.5112C155.029 39.0279 155.275 39.6829 155.275 40.476C155.275 41.2571 155.029 41.909 154.536 42.4317C154.044 42.9545 153.437 43.2159 152.716 43.2159ZM162.035 45.0184V39.088C162.203 38.7996 162.453 38.5022 162.783 38.1958C163.113 37.8893 163.567 37.7361 164.144 37.7361C164.697 37.7361 165.132 37.9134 165.451 38.2679C165.769 38.6224 165.928 39.1 165.928 39.7009V45.0184H168.254V39.6108C168.254 38.9378 168.161 38.349 167.974 37.8443C167.788 37.3395 167.536 36.9189 167.217 36.5825C166.899 36.246 166.526 35.9936 166.1 35.8254C165.673 35.6572 165.213 35.573 164.721 35.573C164.12 35.573 163.6 35.6782 163.162 35.8885C162.723 36.0988 162.347 36.3541 162.035 36.6546V35.9335H159.746V45.0184H162.035ZM173.139 45.0184V39.088C173.307 38.7996 173.556 38.5022 173.887 38.1958C174.217 37.8893 174.671 37.7361 175.248 37.7361C175.8 37.7361 176.236 37.9134 176.554 38.2679C176.873 38.6224 177.032 39.1 177.032 39.7009V45.0184H179.357V39.6108C179.357 38.9378 179.264 38.349 179.078 37.8443C178.892 37.3395 178.639 36.9189 178.321 36.5825C178.003 36.246 177.63 35.9936 177.203 35.8254C176.777 35.6572 176.317 35.573 175.824 35.573C175.224 35.573 174.704 35.6782 174.265 35.8885C173.827 36.0988 173.451 36.3541 173.139 36.6546V35.9335H170.849V45.0184H173.139ZM186.351 45.3789C187.205 45.3789 187.974 45.2137 188.659 44.8832C189.344 44.5528 189.896 44.1051 190.317 43.5403L188.677 42.2425C188.436 42.5669 188.118 42.8283 187.721 43.0266C187.325 43.2249 186.88 43.324 186.387 43.324C185.618 43.324 184.987 43.1137 184.495 42.6931C184.002 42.2725 183.72 41.6897 183.648 40.9446H190.011C190.047 40.7884 190.08 40.5961 190.11 40.3678C190.14 40.1395 190.155 39.8992 190.155 39.6468C190.155 38.4571 189.77 37.4807 189.001 36.7177C188.232 35.9546 187.223 35.573 185.973 35.573C185.228 35.573 184.567 35.7022 183.99 35.9606C183.413 36.219 182.927 36.5704 182.53 37.0151C182.133 37.4597 181.83 37.9794 181.62 38.5743C181.409 39.1691 181.304 39.803 181.304 40.476C181.304 41.1369 181.415 41.7648 181.638 42.3596C181.86 42.9545 182.184 43.4742 182.611 43.9189C183.038 44.3635 183.566 44.718 184.197 44.9824C184.828 45.2467 185.546 45.3789 186.351 45.3789ZM187.884 39.2142H183.792C183.948 38.6254 184.212 38.1897 184.585 37.9073C184.957 37.6249 185.42 37.4837 185.973 37.4837C186.574 37.4837 187.039 37.661 187.37 38.0155C187.7 38.37 187.872 38.7696 187.884 39.2142ZM196.68 45.3789C197.509 45.3789 198.251 45.2107 198.906 44.8742C199.561 44.5377 200.099 44.0931 200.519 43.5403L198.699 42.1524C198.483 42.4648 198.203 42.7202 197.861 42.9184C197.518 43.1167 197.125 43.2159 196.68 43.2159C195.923 43.2159 195.295 42.9575 194.796 42.4408C194.298 41.924 194.048 41.2691 194.048 40.476C194.048 39.6829 194.295 39.0279 194.787 38.5112C195.28 37.9945 195.899 37.7361 196.644 37.7361C197.113 37.7361 197.518 37.8352 197.861 38.0335C198.203 38.2318 198.483 38.4872 198.699 38.7996L200.519 37.4116C200.099 36.8589 199.561 36.4142 198.906 36.0778C198.251 35.7413 197.509 35.573 196.68 35.573C195.899 35.573 195.196 35.7052 194.571 35.9696C193.946 36.234 193.42 36.5885 192.994 37.0331C192.567 37.4777 192.24 37.9975 192.011 38.5923C191.783 39.1872 191.669 39.815 191.669 40.476C191.669 41.1369 191.783 41.7648 192.011 42.3596C192.24 42.9545 192.567 43.4742 192.994 43.9189C193.42 44.3635 193.946 44.718 194.571 44.9824C195.196 45.2467 195.899 45.3789 196.68 45.3789ZM206.252 45.1987C206.624 45.1987 206.952 45.1746 207.234 45.1266C207.516 45.0785 207.772 45.0064 208 44.9103V42.9094C207.844 42.9695 207.658 43.0176 207.441 43.0536C207.225 43.0897 206.961 43.1077 206.648 43.1077C206.203 43.1077 205.852 42.9996 205.594 42.7832C205.335 42.5669 205.206 42.2064 205.206 41.7017V38.0245H207.982V35.9335H205.206V33.6623H202.899V35.9335H201.204V38.0245H202.899V41.7017C202.899 42.8073 203.175 43.6665 203.728 44.2794C204.281 44.8922 205.122 45.1987 206.252 45.1987Z" fill="white"/>
<path d="M39.8416 3.91767C39.5858 3.76475 39.1254 3.76475 38.8695 3.91767L16.4605 16.8139C16.2046 16.9668 16 17.3236 16 17.6294V43.3709C16 43.6767 16.2046 44.0335 16.4605 44.1864L38.8695 57.0826C39.1254 57.2356 39.5858 57.2356 39.8416 57.0826L62.2507 44.1864C62.5065 44.0335 62.7112 43.6767 62.7112 43.3709V17.6294C62.7112 17.3236 62.5065 16.9668 62.2507 16.8139L39.8416 3.91767Z" fill="white"/>
<path d="M32.7742 16.9147L32.7264 16.8669C32.7742 16.8669 32.7742 16.8669 32.7742 16.9147Z" fill="#EA212E"/>
<path d="M39.2705 51.3139L21.8118 41.2437C21.6076 41.1415 21.4545 40.8348 21.4545 40.6303V20.7967C21.4545 20.5411 21.6076 20.2855 21.8118 20.1833L39.3215 10.062" fill="#0053CC"/>
<path d="M21.5055 40.5407L21.4545 20.6798C21.4545 20.4238 21.6076 20.1679 21.8118 20.0655L39.3215 9.9303" fill="#034EA2"/>
<path d="M21.8488 19.9806L27.22 30.8191L33.4098 20.0824L28.1408 16.3678L21.8488 19.9806Z" fill="#E1000F"/>
<path d="M45.8641 16.9147L45.9119 16.8669C45.8641 16.8669 45.8641 16.8669 45.8641 16.9147Z" fill="#EA212E"/>
<path d="M39.3731 51.1822L56.8317 41.1245C57.0359 41.0223 57.1891 40.716 57.1891 40.5118V20.7027C57.1891 20.4475 57.0359 20.1922 56.8317 20.0901L39.322 9.9303" fill="#034EA2"/>
<path d="M57.138 40.5407L57.1891 20.695C57.1891 20.4399 57.0359 20.1848 56.8317 20.0828L39.322 9.9303" fill="#E1000F"/>
<path d="M56.6636 19.9265L51.3946 30.6881L45.1025 19.8753L50.3203 16.2368L56.6636 19.9265Z" fill="#0053CC"/>
<path fill-rule="evenodd" clip-rule="evenodd" d="M45.9578 19.4647C46.369 19.6712 46.7509 19.9366 47.0154 20.3497C47.1328 20.527 47.2799 20.8516 47.1917 21.0877C47.0739 21.3531 47.0154 21.8254 46.7509 21.9139C46.4279 22.0912 45.987 22.0912 45.5759 22.032C45.341 22.032 45.1354 21.9731 44.9002 21.9139C45.7229 22.2385 46.5161 22.6516 47.0739 23.4192C47.1328 23.5369 47.3384 23.5962 47.5733 23.5962C47.6322 23.5962 47.6322 23.7142 47.6322 23.7731C47.5148 23.8912 47.3973 23.9504 47.4559 24.0977H47.6322C47.8967 23.9796 47.8674 23.4192 48.249 23.5962C48.5135 23.7731 48.6309 24.1569 48.4842 24.4227C48.249 24.6585 48.0434 24.8062 47.8085 24.9831C47.7496 25.1012 47.7496 25.2488 47.8085 25.3669C47.9849 25.6031 48.0434 25.8096 48.0727 26.0458C48.249 26.4292 48.3079 26.8719 48.455 27.285C48.6898 28.1115 48.8954 28.9673 48.8365 29.7938C48.8365 30.2365 48.6017 30.6199 48.778 31.0626C48.8954 31.5053 49.1596 31.8299 49.3948 32.243C49.6297 32.568 49.8353 32.8038 50.0116 33.1287C50.0833 33.2532 50.1695 33.3776 50.2577 33.5032L50.3459 33.6292C50.6228 34.0291 50.8734 34.4426 50.6873 34.8991C50.511 35.2829 49.9234 35.2241 49.5122 35.4599C49.1892 35.7256 49.4537 36.1979 49.6297 36.4633C49.8942 36.9652 49.3066 37.2898 48.8954 37.4668C49.0129 37.6441 49.2185 37.5848 49.277 37.7029C49.3359 37.9683 49.6004 38.1456 49.4537 38.4406C49.3862 38.5336 49.2856 38.6142 49.1836 38.6936L49.107 38.7536C48.8804 38.9331 48.6876 39.1213 48.8954 39.4441C49.1303 39.8279 48.9836 40.2702 48.8365 40.6837C48.6602 41.1852 48.2197 41.4213 47.8378 41.5102C47.5148 41.6279 47.1032 41.6279 46.7806 41.569C46.6627 41.5102 46.5453 41.451 46.4571 41.451C45.5169 41.3329 44.5771 41.0671 43.6373 41.0671C43.3728 41.1263 43.079 41.1852 42.8734 41.274C42.6089 41.451 42.4033 41.6575 42.1977 41.864C42.1685 41.9232 42.1096 41.9525 42.0803 42.0117C42.051 42.0413 42.0218 42.0706 42.0218 42.1002L42.0041 42.1178L41.9801 42.1418C41.9756 42.1463 41.97 42.1519 41.9629 42.159C41.7865 42.3659 41.6691 42.5725 41.5224 42.8083C41.5224 42.8379 41.4928 42.8379 41.4928 42.8379C41.4928 42.8675 41.4635 42.8971 41.4343 42.9263C41.2575 43.2513 41.1108 43.6052 41.0227 43.9594C40.6407 45.2282 40.8171 46.3205 41.0816 46.5863C41.2575 46.7632 43.3732 47.4191 45.2337 48.029C41.9829 50.7441 39.3554 52.1017 37.3512 52.1017C34.5835 52.1017 29.9416 50.2624 23.4254 46.5839C25.0027 46.5839 24.7782 47.216 26.247 46.4802C26.952 46.1859 28.5382 45.4501 29.0672 44.9205C29.3903 44.5966 29.7133 44.2731 30.007 43.92C30.5946 43.2431 31.1821 42.625 31.8578 42.0361C32.0634 41.8599 32.269 41.683 32.4746 41.5653C32.5335 41.5064 32.5335 41.3887 32.592 41.3299C32.3279 41.4476 32.1512 41.6537 31.8578 41.7714C31.7989 41.7714 31.7404 41.7126 31.7989 41.6537C32.0045 41.5064 32.2101 41.3595 32.3864 41.2122H32.3572C32.2983 41.2122 32.2983 41.1533 32.2983 41.0945C31.564 40.9768 31.035 41.4772 30.5357 41.9184C30.4182 41.9776 30.3008 41.8599 30.2716 41.8599C29.4488 42.1245 28.832 42.8604 28.0096 43.1842V43.0661C27.6866 43.1842 27.3632 43.39 27.0109 43.4489C26.5115 43.5666 26.0707 43.5077 25.6302 43.5077C24.9545 43.5666 24.2788 43.7139 23.6031 43.8612C23.5739 43.8612 23.5739 43.8612 23.5446 43.8904C23.1919 43.9785 22.8396 44.1258 22.5162 44.3024L22.487 44.332C22.4577 44.3612 22.4281 44.3908 22.3988 44.4201C22.2814 44.5378 22.1639 44.6851 22.0169 44.7439C21.6646 44.9205 21.4001 45.2147 21.1063 45.4797C21.077 45.509 21.0478 45.509 21.0181 45.509C20.7244 45.8036 21.077 44.9205 21.4001 44.7143C21.3708 44.7143 21.3119 44.6851 21.3412 44.6558C21.3708 44.5966 21.4001 44.5674 21.4293 44.5085C21.4293 44.4789 21.4293 44.4789 21.4586 44.4497L21.4541 44.4321L21.4342 44.4081C21.4312 44.4036 21.4293 44.3983 21.4293 44.3908C21.3412 44.4497 21.2534 44.5085 21.1652 44.5674C21.0181 44.6851 21.077 44.0081 21.2237 43.92H21.1945C21.4001 43.802 21.6353 43.6843 21.8409 43.5666L21.9287 43.4785C21.6057 43.5962 21.3412 43.7435 21.0478 43.92C21.0478 43.92 21.0478 43.7139 21.1359 43.6258C21.1945 43.6258 21.2534 43.6258 21.2534 43.6843C22.3185 42.8619 23.6125 42.6429 24.9189 42.4521L25.2753 42.4004C26.0474 42.2876 26.8169 42.1665 27.5395 41.9184C27.7158 41.8007 27.8625 41.683 28.0389 41.5949C28.3034 41.4772 28.5382 41.2122 28.8613 41.0356C29.3021 40.7118 29.6251 40.2998 29.8015 39.7702C29.8015 39.7113 29.7429 39.6525 29.7429 39.6525C29.0083 40.4175 28.1859 41.0356 27.3046 41.4772C26.1296 42.0953 24.8663 41.9776 23.6328 42.1542C23.6913 42.0361 23.8091 42.0361 23.8969 42.0361C23.8969 41.8599 24.0143 41.8007 24.1317 41.7126H24.3085C24.367 41.7126 24.367 41.5949 24.4259 41.5949C24.5433 41.5949 24.7193 41.536 24.6607 41.536C24.4844 41.3003 24.1614 41.7126 23.8969 41.536C24.0143 41.4183 23.9558 41.271 24.0732 41.2122H24.3085C24.3085 41.0945 24.4259 40.9768 24.4259 40.9768C25.2483 40.4764 26.0414 40.094 26.8049 39.6525C26.6289 39.6525 26.5408 39.829 26.3644 39.7113C26.4822 39.7113 26.3644 39.5348 26.4822 39.5348C27.099 39.3582 27.5984 39.0344 28.2152 38.799C27.9803 38.799 27.8333 38.9755 27.5984 38.799C27.7158 38.7401 27.7744 38.6224 27.9214 38.6224V38.4459C27.9214 38.3866 27.9803 38.3866 28.0389 38.3866C27.9803 38.3866 27.9214 38.3282 27.9214 38.3282C27.9803 38.2101 28.1567 38.2693 28.2445 38.1516C28.1859 38.1516 28.0685 38.1516 28.0685 38.0924C28.2445 37.857 28.509 37.8277 28.8027 37.7689C28.7438 37.6512 28.5679 37.7689 28.5679 37.6512C28.5679 37.6006 28.6106 37.5935 28.6602 37.5923H28.5679C28.4501 37.5335 28.509 37.4158 28.509 37.3566C28.832 36.9742 28.832 36.4738 29.0083 36.0323C28.9494 36.0323 28.8909 36.0323 28.8909 35.9738C28.3326 36.5915 27.4513 36.7977 26.6289 37.0331H26.247C25.9829 37.1508 25.5713 37.1508 25.3072 36.9742C25.0719 36.8565 24.9838 36.7092 24.7489 36.5327C24.3085 36.268 23.8676 36.0323 23.3683 35.8561C21.9876 35.4145 20.5484 35.1787 19.1089 35.238C19.7256 34.9141 20.4013 34.8845 21.0478 34.6787C21.9876 34.4137 22.8689 34.0606 23.8676 34.1194C23.6913 34.0606 23.4857 34.1194 23.3097 34.1194C22.5455 34.0606 21.7527 34.296 20.93 34.4433C20.3717 34.5606 19.8723 34.7668 19.3144 34.8845C18.9914 35.0022 18.8151 35.3261 18.4332 35.2672V35.0907C18.9914 34.4137 19.6671 33.7663 20.5484 33.7075C21.5471 33.5306 22.487 33.7075 23.4857 33.8252C24.2203 33.884 24.8663 34.0606 25.6006 34.2079C25.8651 34.2079 25.924 34.6491 26.1588 34.7079C26.4822 34.8256 26.8345 34.7079 27.1576 34.9433C27.1576 34.8256 27.099 34.7079 27.1576 34.6199C27.3924 34.3845 27.6569 34.6787 27.8918 34.5606C28.3326 34.296 27.5102 33.7956 27.275 33.3836C27.275 33.3248 27.3339 33.2659 27.3339 33.2659C27.7744 33.6486 28.0978 34.0902 28.656 34.3845C28.9202 34.5022 29.5959 34.6491 29.478 34.3256C29.2139 33.7075 28.656 33.2071 28.1859 32.6478V32.4124C28.0685 32.4124 28.0685 32.3536 28.0096 32.2947V32.0593C27.7744 31.9416 27.8333 31.7355 27.7451 31.5589C27.5691 31.2943 27.6866 30.8819 27.5691 30.5585C27.4513 30.2346 27.3924 29.9403 27.3339 29.6165C27.1576 28.6749 26.952 27.8506 26.8345 26.9382C26.7171 25.8789 27.4513 25.0547 27.9507 24.1131C28.3326 23.4361 28.7735 22.7888 29.5077 22.3472C29.684 21.6702 30.1245 21.111 30.5649 20.5813C31.0058 20.0513 31.7404 19.6986 32.269 19.4628C32.9781 19.1352 33.3536 19.0194 33.7273 18.9069C33.7296 18.9062 33.7352 18.9047 33.7375 18.9035C34.2803 18.6651 41.4087 17.1658 44.8709 18.9035C44.9444 18.9406 44.9298 18.9035 45.1647 19.0512C45.4292 19.1989 45.7522 19.3758 45.9578 19.4647ZM19.0621 35.6063C19.0621 35.865 18.8882 36.0955 18.6277 36.1527C19.0621 36.2678 19.4966 36.2678 19.9314 36.4694C19.8733 36.5845 19.7575 36.5269 19.6997 36.5269C19.9603 36.6995 20.3081 36.5845 20.569 36.786C20.3951 36.9587 20.2504 36.786 20.0765 36.786C21.7858 37.275 23.582 37.6492 25.0019 38.7428C23.7852 39.3472 22.5392 39.6059 21.2355 39.8936C21.0616 39.8936 20.9746 39.8936 20.8007 39.8361C20.8007 39.8936 20.8007 40.0087 20.7429 40.0087C20.5109 40.0087 20.3658 40.0087 20.1923 40.1238C19.9891 40.2964 19.6709 40.3543 19.4966 40.1813C19.4389 40.1238 19.6709 40.1813 19.7286 40.0666H19.2942C19.2361 40.0666 19.2361 40.0087 19.2361 39.9515C18.9752 40.0087 18.6277 40.1238 18.3668 40.1813C17.9901 40.2964 18.164 38.4261 18.4249 38.3111C18.3668 38.2535 18.251 38.2535 18.251 38.1384C18.0193 38.1384 17.9324 37.5627 18.077 37.5341C18.3087 37.4765 18.5696 37.4765 18.7435 37.3039C18.3668 37.2464 18.251 35.894 18.8882 35.5484C18.9463 35.5484 19.0621 35.5484 19.0621 35.6063ZM21.5862 40.6892C21.2347 41.0497 20.7953 40.8857 20.415 41.0497C20.2976 41.0497 20.0927 41.1153 20.1514 40.9842C20.188 40.7998 20.3503 40.7309 20.5242 40.6729L20.6289 40.6387C20.6984 40.6153 20.7661 40.5911 20.8248 40.5581C20.9419 40.4926 21.0881 40.3616 21.2051 40.4271C21.3222 40.6237 21.4687 40.5581 21.5862 40.6892ZM19.5925 33.1503C19.5336 33.1503 19.4743 33.1503 19.415 33.0911C19.4743 33.0319 19.4743 32.9727 19.4743 32.9135C18.9125 33.5349 17.6414 33.3279 18.8238 32.7653C19.2674 32.5877 19.8288 32.6469 20.2724 32.8245C20.095 33.0617 19.8288 33.0021 19.5925 33.1503ZM46.6459 29.4514C46.5947 29.4621 46.5431 29.4725 46.4922 29.4813C46.2231 29.4813 45.9237 29.6553 45.6542 29.7133C45.265 29.8293 44.906 30.0325 44.5768 30.2645C44.9657 30.0905 45.3548 30.0325 45.8041 29.9453C46.1332 29.8873 46.4028 29.8293 46.7618 29.8873C47.0011 29.9453 47.3306 29.9453 47.3306 30.0613C47.211 30.4965 46.5523 30.6125 46.1933 31.0477H46.0136C45.8339 31.1637 45.8939 31.4245 45.744 31.4245C45.5644 31.3669 45.4149 31.4245 45.2352 31.4829C45.4745 31.7149 45.744 31.8597 46.0732 31.8017C46.1332 31.8017 46.2529 31.9177 46.2529 32.0337C46.2529 32.0337 46.3129 32.0337 46.3726 31.9757C46.4326 31.9757 46.4922 31.9757 46.4922 32.0337V32.2657C46.3848 32.405 46.2445 32.419 46.0981 32.4205L45.9994 32.4209C45.9341 32.4213 45.8679 32.4242 45.8041 32.4397C46.2529 32.5557 46.7021 32.5557 47.1207 32.4397C47.4503 32.3237 47.1208 31.7729 47.3605 31.5117C47.2408 31.5117 47.3605 31.3377 47.2408 31.3377C47.3605 31.2217 47.4801 31.0765 47.57 31.0185C47.6896 31.0185 47.8395 30.9605 47.8995 30.8445C47.8995 30.7285 47.6598 30.6705 47.7198 30.5837C48.049 30.3517 48.3484 30.0325 48.2283 29.7133C48.1687 29.5393 47.7198 29.5393 47.4503 29.4233C47.2637 29.3432 47.0343 29.3738 46.8015 29.4196L46.6459 29.4514Z" fill="white"/>
</svg>
