<?xml version="1.0" encoding="utf-8"?>
<svg viewBox="218.206 136.151 97.653 49.957" width="97.653" height="49.957" xmlns="http://www.w3.org/2000/svg">
  <defs>
    <linearGradient id="29uo14xnea" x1="-.025%" x2="100.081%" y1="49.996%" y2="49.996%">
      <stop offset="0" stop-color="#000091"/>
      <stop offset="0.4888" stop-color="#844470"/>
      <stop offset="1" stop-color="#E1000F"/>
    </linearGradient>
  </defs>
  <g fill="none" fill-rule="evenodd" transform="matrix(1, 0, 0, 1, 218.175613, 136.121063)">
    <g>
      <g>
        <g>
          <g fill-rule="nonzero">
            <g>
              <path fill="#FFF" d="M22.43.863c-.233-.14-.651-.14-.884 0L1.191 12.577c-.232.139-.418.463-.418.74V36.7c0 .278.186.602.418.741l20.355 11.714c.233.139.65.139.883 0L42.784 37.44c.232-.139.418-.463.418-.74V13.317c0-.278-.186-.602-.418-.741L22.429.863z" transform="translate(-198 -34) translate(198 34)"/>
              <path fill="url(#29uo14xnea)" d="M22.383.863l20.354 11.714c.233.139.419.463.419.74V36.7c0 .278-.186.602-.419.741L22.383 49.154c-.14.046-.28.093-.419.093-.139 0-.325-.047-.418-.093L1.191 37.44c-.232-.139-.418-.463-.418-.74V13.317c0-.278.186-.602.418-.741L21.546.863c.093-.046.279-.093.418-.093.14 0 .326.047.419.093zM21.174.215L.82 11.929c-.465.277-.79.88-.79 1.389v23.381c0 .556.325 1.111.79 1.39l20.354 11.713c.28.185.605.185.79.185.186 0 .512-.046.79-.185L43.11 38.088c.465-.278.79-.88.79-1.389V13.318c0-.556-.325-1.112-.79-1.39L22.801.216c-.325-.186-.604-.186-.837-.186-.185 0-.51.047-.79.186z" transform="translate(-198 -34) translate(198 34)"/>
            </g>
            <path fill="#EA212E" d="M16.014 12.673l-.047-.048c.047 0 .047 0 .047.048z" transform="translate(-198 -34) translate(198 34)"/>
            <path fill="#0053CC" d="M21.91 43.914L6.054 34.767c-.186-.093-.325-.371-.325-.557V16.195c0-.233.139-.465.325-.558l15.904-9.193" transform="translate(-198 -34) translate(198 34)"/>
            <path fill="#000091" d="M5.774 34.129l-.046-18.04c0-.233.139-.465.325-.558l15.904-9.206" transform="translate(-198 -34) translate(198 34)"/>
            <path fill="#E1000F" d="M6.086 15.453L10.965 25.298 16.587 15.546 11.801 12.172z" transform="translate(-198 -34) translate(198 34)"/>
            <path fill="#EA212E" d="M27.9 12.673l.047-.048c-.047 0-.047 0-.047.048z" transform="translate(-198 -34) translate(198 34)"/>
            <path fill="#000091" d="M22.003 43.795l15.859-9.136c.185-.093.324-.37.324-.556V16.109c0-.231-.139-.463-.324-.556L21.957 6.325" transform="translate(-198 -34) translate(198 34)"/>
            <path fill="#E1000F" d="M38.14 34.129l.046-18.027c0-.231-.139-.463-.324-.556L21.957 6.325" transform="translate(-198 -34) translate(198 34)"/>
            <path fill="#0053CC" d="M37.709 15.404L32.923 25.179 27.208 15.357 31.947 12.053z" transform="translate(-198 -34) translate(198 34)"/>
          </g>
          <path fill="#FFF" d="M27.985 14.985c.373.188.72.429.96.804.107.16.24.456.16.67-.107.241-.16.67-.4.75-.293.162-.694.162-1.067.108-.214 0-.4-.053-.614-.107.747.295 1.468.67 1.974 1.367.054.107.24.16.454.16.054 0 .054.108.054.161-.107.108-.214.162-.16.295h.16c.24-.107.213-.616.56-.455.24.16.347.51.214.75-.214.215-.4.349-.614.51-.054.107-.054.24 0 .348.16.215.213.402.24.617.16.348.213.75.347 1.125.213.751.4 1.528.346 2.28 0 .401-.213.75-.053 1.152.107.402.347.697.56 1.072.214.295.4.51.56.804.066.114.144.227.224.34l.08.115c.252.363.48.739.31 1.154-.16.348-.693.295-1.067.509-.293.241-.053.67.107.911.24.456-.293.751-.667.912.107.16.293.107.347.214.053.241.293.402.16.67-.061.085-.153.158-.245.23l-.07.055c-.206.163-.38.334-.192.627.213.348.08.75-.054 1.126-.16.455-.56.67-.907.75-.293.107-.667.107-.96.054-.107-.053-.214-.107-.294-.107-.854-.107-1.707-.349-2.561-.349-.24.054-.507.107-.694.188-.24.16-.427.348-.614.536-.026.054-.08.08-.106.134-.027.027-.054.054-.054.08l-.016.016-.021.022-.016.016c-.16.188-.267.375-.4.59 0 .027-.027.027-.027.027 0 .026-.027.053-.053.08-.16.295-.294.616-.374.938-.347 1.153-.187 2.145.053 2.386.16.161 2.082.757 3.772 1.31-2.953 2.467-5.34 3.7-7.16 3.7-2.514 0-6.73-1.67-12.65-5.012 1.434 0 1.23.574 2.564-.094.64-.267 2.081-.936 2.562-1.417.293-.294.586-.588.853-.909.534-.614 1.068-1.176 1.681-1.71.187-.16.374-.321.56-.428.054-.054.054-.16.107-.214-.24.107-.4.294-.667.4-.053 0-.106-.053-.053-.106.187-.134.373-.267.533-.401h-.026c-.054 0-.054-.054-.054-.107-.667-.107-1.147.348-1.6.748-.107.054-.214-.053-.24-.053-.748.24-1.308.909-2.055 1.203v-.107c-.294.107-.587.294-.907.348-.454.106-.854.053-1.254.053-.614.053-1.228.187-1.842.321-.026 0-.026 0-.053.027-.32.08-.64.213-.934.374l-.027.027-.08.08c-.106.107-.213.24-.347.294-.32.16-.56.427-.827.668-.026.027-.053.027-.08.027-.267.267.054-.535.347-.722-.026 0-.08-.027-.053-.053.027-.054.053-.08.08-.134 0-.027 0-.027.026-.053l-.004-.016-.018-.022c-.002-.004-.004-.01-.004-.016l-.24.16c-.134.107-.08-.508.053-.588h-.027c.187-.107.4-.214.588-.32l.08-.08c-.294.106-.534.24-.8.4 0 0 0-.187.08-.267.052 0 .106 0 .106.053.967-.747 2.143-.946 3.33-1.119l.323-.047c.702-.102 1.4-.212 2.057-.438.16-.107.293-.213.453-.294.24-.106.454-.347.747-.507.4-.295.694-.669.854-1.15 0-.053-.053-.107-.053-.107-.667.695-1.414 1.257-2.215 1.658-1.067.561-2.214.454-3.335.614.053-.107.16-.107.24-.107 0-.16.107-.214.213-.294h.161c.053 0 .053-.107.107-.107.106 0 .266-.053.213-.053-.16-.214-.454.16-.694 0 .107-.107.054-.24.16-.294h.214c0-.107.107-.214.107-.214.747-.454 1.467-.802 2.16-1.203-.16 0-.24.16-.4.054.107 0 0-.16.107-.16.56-.161 1.014-.455 1.575-.67-.214 0-.347.161-.56 0 .106-.053.16-.16.293-.16v-.16c0-.054.053-.054.106-.054-.053 0-.106-.053-.106-.053.053-.107.213-.053.293-.16-.053 0-.16 0-.16-.054.16-.214.4-.24.667-.294-.053-.107-.213 0-.213-.107 0-.046.039-.052.084-.053h-.084c-.107-.054-.054-.16-.054-.214.294-.348.294-.802.454-1.203-.053 0-.107 0-.107-.053-.507.56-1.307.748-2.054.962h-.347c-.24.107-.614.107-.854-.054-.214-.106-.294-.24-.507-.4-.4-.241-.8-.455-1.254-.615-1.254-.401-2.561-.615-3.869-.562.56-.294 1.174-.32 1.761-.508.854-.24 1.654-.561 2.562-.508-.16-.053-.347 0-.507 0-.694-.053-1.414.16-2.162.295-.507.106-.96.293-1.467.4-.294.107-.454.401-.8.348v-.16c.506-.615 1.12-1.203 1.92-1.257.908-.16 1.761 0 2.669.107.667.054 1.254.214 1.92.348.24 0 .294.4.508.454.293.107.613 0 .907.214 0-.107-.053-.214 0-.294.213-.214.453.053.667-.054.4-.24-.347-.695-.56-1.069 0-.053.053-.107.053-.107.4.348.694.749 1.201 1.016.24.107.854.24.747-.053-.24-.562-.747-1.016-1.174-1.524v-.214c-.107 0-.107-.054-.16-.107v-.214c-.214-.107-.16-.294-.24-.454-.16-.24-.054-.615-.16-.91-.107-.293-.16-.56-.214-.855-.16-.855-.347-1.604-.454-2.433-.106-.962.56-1.71 1.014-2.566.347-.615.748-1.203 1.415-1.604.16-.615.56-1.123.96-1.604.4-.481 1.068-.802 1.548-1.016.644-.297.985-.402 1.324-.505l.01-.003c.493-.216 6.968-1.578 10.112 0 .067.034.054 0 .267.134.24.135.534.295.72.376zM3.555 29.647c0 .235-.158.444-.395.496.395.105.79.105 1.184.288-.053.104-.158.052-.21.052.236.157.552.052.79.235-.159.157-.29 0-.448 0 1.553.445 3.184.784 4.474 1.778-1.105.549-2.237.784-3.421 1.045-.158 0-.237 0-.395-.052 0 .052 0 .157-.053.157-.21 0-.342 0-.5.104-.184.157-.473.21-.632.053-.052-.053.159 0 .211-.105h-.395c-.052 0-.052-.052-.052-.104-.237.052-.553.156-.79.209-.342.104-.184-1.595.053-1.7-.053-.052-.158-.052-.158-.156-.21 0-.29-.523-.158-.55.21-.051.447-.051.605-.208-.342-.052-.447-1.28.132-1.595.052 0 .158 0 .158.053zm2.292 4.617c-.319.327-.718.178-1.064.327-.106 0-.292.06-.239-.06.033-.167.18-.23.339-.282l.095-.031c.063-.021.124-.043.178-.073.106-.06.239-.179.345-.12.106.18.24.12.346.239zm-1.81-6.848c-.054 0-.108 0-.162-.054.054-.053.054-.107.054-.161-.51.564-1.665.376-.59-.135.402-.16.912-.107 1.315.054-.161.216-.403.161-.618.296zm24.573-3.36c-.047.01-.094.02-.14.027-.244 0-.516.158-.761.211-.354.106-.68.29-.979.5.353-.157.707-.21 1.115-.29.299-.052.544-.104.87-.052.217.053.517.053.517.158-.109.396-.707.5-1.033.896h-.164c-.163.106-.108.342-.244.342-.164-.052-.3 0-.463.054.218.21.463.342.762.29.054 0 .163.104.163.21 0 0 .054 0 .108-.053.055 0 .11 0 .11.053v.21c-.098.127-.226.14-.359.141h-.09c-.059 0-.119.004-.177.018.408.105.816.105 1.196 0 .3-.106 0-.606.218-.843-.109 0 0-.158-.109-.158.109-.106.217-.238.299-.29.109 0 .245-.053.3-.158 0-.106-.218-.158-.164-.237.3-.211.571-.5.462-.79-.054-.159-.462-.159-.707-.264-.17-.073-.377-.045-.589-.004l-.141.03z" transform="translate(-198 -34) translate(198 34)"/>
        </g>
        <g fill-rule="nonzero">
          <path fill="#19199C" d="M2.41 8.353V4.821h2.697V3.377H2.411V1.444h3.174V0H.716v8.353h1.695zm5.979 0v-3.77c.111-.184.288-.359.531-.526.243-.167.547-.25.913-.25.135 0 .256.008.364.024.107.015.209.035.304.06V2.302c-.071-.024-.151-.044-.238-.06-.088-.015-.183-.023-.287-.023-.342 0-.642.07-.9.208-.26.14-.488.309-.687.508v-.597H6.874v6.014h1.515zm5.048.239c.35 0 .688-.074 1.014-.22.326-.148.585-.341.776-.58v.561h1.527v-3.89c0-.326-.056-.634-.167-.925-.111-.29-.276-.54-.495-.752-.219-.21-.495-.377-.83-.5-.334-.124-.715-.186-1.145-.186-.541 0-1.028.108-1.462.322-.433.215-.785.506-1.056.872l1.122.847c.135-.23.32-.408.555-.531.234-.124.499-.185.793-.185.342 0 .62.093.836.28.214.187.322.44.322.758v.155l-1.814.31c-.645.104-1.14.323-1.486.657-.346.334-.519.728-.519 1.181 0 .565.19 1.01.567 1.337.378.326.865.489 1.462.489zm.31-1.217c-.255 0-.457-.064-.609-.191-.15-.128-.226-.287-.226-.478 0-.19.07-.35.209-.477.139-.127.367-.219.686-.274l1.42-.25v.822c-.151.247-.35.45-.597.609-.247.16-.54.239-.883.239zM20 8.353V4.427c.111-.19.276-.388.495-.59.219-.203.52-.305.901-.305.366 0 .655.118.865.352.211.235.317.551.317.949v3.52h1.539v-3.58c0-.445-.062-.835-.185-1.17-.123-.333-.29-.612-.501-.835-.211-.222-.458-.39-.74-.5-.282-.112-.587-.168-.913-.168-.398 0-.742.07-1.032.21-.29.138-.54.307-.746.506V2.34h-1.516v6.014H20zm8.723.239c.55 0 1.04-.111 1.474-.334.433-.223.79-.517 1.068-.883l-1.205-.92c-.144.208-.328.377-.555.508-.227.131-.487.197-.782.197-.501 0-.917-.171-1.247-.513-.33-.342-.495-.776-.495-1.3 0-.526.163-.96.49-1.302.325-.342.735-.513 1.228-.513.31 0 .579.066.806.197.227.131.411.3.555.507l1.205-.919c-.279-.366-.635-.66-1.068-.883-.434-.222-.925-.334-1.474-.334-.517 0-.982.088-1.396.263-.414.175-.762.41-1.044.704-.283.294-.5.638-.65 1.032-.152.394-.227.81-.227 1.247 0 .438.075.853.226 1.247.152.394.368.738.65 1.032.283.295.631.53 1.045.704.414.175.879.263 1.396.263zm6.587 0c.565 0 1.074-.11 1.528-.328.453-.22.82-.515 1.098-.89l-1.086-.858c-.16.214-.37.387-.633.519-.262.13-.557.197-.883.197-.509 0-.927-.14-1.253-.418-.326-.279-.513-.664-.56-1.158h4.212c.024-.103.045-.23.065-.382.02-.15.03-.31.03-.477 0-.787-.254-1.434-.764-1.939-.509-.505-1.177-.758-2.004-.758-.494 0-.931.086-1.313.257-.382.17-.704.404-.967.698-.262.294-.463.638-.602 1.032-.14.394-.209.814-.209 1.26 0 .437.074.852.22 1.246.148.394.363.738.645 1.032.283.295.633.53 1.05.704.418.175.893.263 1.426.263zm1.015-4.081h-2.71c.104-.39.28-.678.526-.865.246-.187.553-.28.919-.28.397 0 .706.116.924.351.22.235.333.5.34.794z" transform="translate(-198 -34) translate(198 34) translate(48.984 15.752)"/>
          <path fill="#ED1C24" d="M4.44 19.093c.755 0 1.435-.155 2.04-.465.604-.31 1.098-.724 1.48-1.241L6.622 16.36c-.239.342-.543.619-.913.83-.37.21-.794.316-1.27.316-.39 0-.753-.074-1.087-.22-.334-.148-.618-.347-.853-.597-.235-.251-.42-.55-.555-.895-.135-.347-.203-.718-.203-1.116 0-.398.068-.77.203-1.116.135-.346.32-.644.555-.895.235-.25.52-.45.853-.597.334-.147.696-.22 1.086-.22.477 0 .901.105 1.271.316.37.21.674.487.913.83l1.336-1.039c-.381-.501-.875-.909-1.48-1.223-.604-.314-1.284-.471-2.04-.471-.652 0-1.253.119-1.802.358-.549.238-1.018.556-1.408.954-.39.398-.692.865-.907 1.402-.215.537-.322 1.104-.322 1.7 0 .597.107 1.164.322 1.701.215.537.517 1.005.907 1.402.39.398.86.716 1.408.955.55.239 1.15.358 1.802.358zm7.648 0c.486 0 .931-.085 1.337-.256.406-.172.754-.402 1.044-.693.29-.29.515-.634.674-1.032.16-.398.239-.82.239-1.265 0-.445-.08-.867-.239-1.265-.159-.397-.384-.742-.674-1.032-.29-.29-.638-.521-1.044-.692-.406-.171-.851-.257-1.337-.257-.485 0-.93.086-1.336.257s-.754.402-1.044.692c-.29.29-.515.635-.675 1.032-.159.398-.238.82-.238 1.265 0 .446.08.867.238 1.265.16.398.384.742.675 1.032.29.29.638.521 1.044.693.406.17.851.256 1.336.256zm.024-1.432c-.501 0-.917-.17-1.247-.513-.33-.342-.495-.776-.495-1.3 0-.526.165-.96.495-1.301.33-.343.746-.514 1.247-.514.477 0 .88.171 1.205.514.327.342.49.775.49 1.3 0 .517-.163.949-.49 1.295-.326.346-.728.52-1.205.52zm6.17 1.193v-3.926c.111-.19.276-.387.495-.59.219-.203.519-.305.9-.305.367 0 .655.118.866.352.21.235.316.551.316.95v3.52h1.54v-3.58c0-.446-.062-.836-.185-1.17-.124-.334-.29-.613-.502-.835-.21-.223-.457-.39-.74-.502-.282-.11-.586-.167-.912-.167-.398 0-.742.07-1.033.21-.29.138-.539.308-.745.506v-.477h-1.516v6.014h1.516zm7.35 0v-3.926c.112-.19.277-.387.496-.59.218-.203.519-.305.9-.305.367 0 .655.118.866.352.21.235.316.551.316.95v3.52h1.54v-3.58c0-.446-.062-.836-.186-1.17-.123-.334-.29-.613-.5-.835-.212-.223-.458-.39-.74-.502-.283-.11-.587-.167-.913-.167-.398 0-.742.07-1.033.21-.29.138-.539.308-.746.506v-.477h-1.515v6.014h1.515zm8.747.24c.565 0 1.074-.11 1.528-.33.453-.218.82-.514 1.098-.888l-1.086-.86c-.16.216-.37.389-.633.52-.262.131-.556.197-.883.197-.509 0-.926-.14-1.253-.418-.326-.278-.513-.664-.56-1.157h4.212c.024-.104.046-.231.066-.382.02-.151.03-.31.03-.478 0-.787-.255-1.434-.764-1.939-.51-.505-1.178-.758-2.005-.758-.493 0-.93.086-1.313.257-.382.171-.704.404-.966.698-.263.294-.464.639-.603 1.032-.14.394-.209.814-.209 1.26 0 .437.074.852.22 1.246.148.394.363.738.645 1.032.283.295.633.53 1.05.705.418.175.893.262 1.426.262zm1.015-4.082h-2.709c.103-.39.278-.678.525-.865.247-.187.553-.28.919-.28.398 0 .706.117.925.351.218.235.332.5.34.794zm5.87 4.081c.55 0 1.041-.111 1.475-.334.433-.223.79-.517 1.068-.883l-1.206-.919c-.143.207-.328.376-.554.507-.227.131-.488.197-.782.197-.501 0-.917-.17-1.247-.513-.33-.342-.495-.776-.495-1.3 0-.526.163-.96.489-1.301.326-.343.736-.514 1.23-.514.31 0 .578.066.805.197.226.132.411.3.554.507l1.206-.918c-.279-.366-.635-.66-1.068-.883-.434-.223-.925-.335-1.474-.335-.517 0-.983.088-1.396.263-.414.175-.762.41-1.044.704-.283.294-.5.638-.65 1.032-.152.394-.228.81-.228 1.247 0 .438.076.853.227 1.247.151.394.368.738.65 1.032.283.295.631.53 1.045.705.413.175.879.262 1.396.262zm6.278-.12c.246 0 .463-.015.65-.047s.356-.08.507-.143v-1.325c-.103.04-.226.072-.37.096-.143.024-.318.035-.525.035-.294 0-.527-.071-.698-.214-.17-.143-.256-.382-.256-.716v-2.435h1.837V12.84H46.85v-1.503h-1.528v1.503H44.2v1.384h1.122v2.435c0 .732.183 1.3.55 1.706.365.406.922.609 1.67.609z" transform="translate(-198 -34) translate(198 34) translate(48.984 15.752)"/>
        </g>
      </g>
    </g>
  </g>
</svg>