<svg width="208" height="88" viewBox="0 0 208 88" fill="none" xmlns="http://www.w3.org/2000/svg">
<path d="M103.047 63.1881V53.1184H108.917V54.8159H105.09V57.2038H108.341V58.9013H105.09V63.1881H103.047ZM109.873 63.1881V55.9379H111.7V56.6572C112.256 56.0818 112.894 55.7941 113.613 55.7941C113.834 55.7941 114.045 55.8277 114.246 55.8947V57.6929C113.978 57.6258 113.709 57.5922 113.441 57.5922C112.654 57.5922 112.074 57.9087 111.7 58.5417V63.1881H109.873ZM117.121 63.4038C116.392 63.4038 115.802 63.2073 115.351 62.814C114.901 62.4209 114.676 61.8934 114.676 61.2317C114.676 60.6754 114.881 60.2056 115.294 59.8219C115.716 59.4383 116.31 59.1842 117.078 59.0595L119.293 58.6855V58.4985C119.293 58.1245 119.164 57.8224 118.904 57.5922C118.645 57.3621 118.305 57.247 117.883 57.247C117.212 57.247 116.665 57.5347 116.243 58.1101L114.906 57.0888C115.605 56.1297 116.617 55.6502 117.941 55.6502C118.957 55.6502 119.739 55.9187 120.285 56.4558C120.842 56.9832 121.12 57.6642 121.12 58.4985V63.1881H119.293V62.4832C119.063 62.7613 118.746 62.9866 118.343 63.1593C117.95 63.3224 117.543 63.4038 117.121 63.4038ZM116.488 61.1454C116.488 61.3947 116.579 61.5913 116.761 61.7352C116.943 61.879 117.188 61.9509 117.495 61.9509C118.291 61.9509 118.89 61.6296 119.293 60.9871V59.9657L117.566 60.2535C116.847 60.3782 116.488 60.6754 116.488 61.1454ZM122.924 63.1881V55.9379H124.751V56.5133C125.346 55.9379 126.06 55.6502 126.894 55.6502C127.719 55.6502 128.395 55.9284 128.923 56.4846C129.451 57.0408 129.714 57.8368 129.714 58.8725V63.1881H127.873V58.9445C127.873 58.4649 127.743 58.0861 127.484 57.808C127.226 57.5203 126.875 57.3765 126.434 57.3765C125.743 57.3765 125.183 57.7361 124.751 58.4553V63.1881H122.924ZM134.982 61.7495C135.692 61.7495 136.238 61.4714 136.622 60.9152L138.046 62.0085C137.308 62.9866 136.286 63.4758 134.982 63.4758C133.774 63.4758 132.805 63.097 132.076 62.3393C131.347 61.5817 130.983 60.6563 130.983 59.563C130.983 58.4697 131.347 57.5443 132.076 56.7867C132.805 56.029 133.774 55.6502 134.982 55.6502C136.286 55.6502 137.308 56.1393 138.046 57.1175L136.622 58.2108C136.238 57.6545 135.682 57.3765 134.953 57.3765C134.358 57.3765 133.865 57.5826 133.472 57.995C133.079 58.4074 132.882 58.93 132.882 59.563C132.882 60.2056 133.079 60.733 133.472 61.1454C133.865 61.5482 134.368 61.7495 134.982 61.7495ZM145.516 62.0085C144.787 62.9866 143.732 63.4758 142.351 63.4758C141.105 63.4758 140.121 63.1017 139.402 62.3537C138.683 61.5961 138.323 60.6659 138.323 59.563C138.323 58.4506 138.654 57.5203 139.316 56.7722C139.987 56.0242 140.898 55.6502 142.049 55.6502C143.046 55.6502 143.852 55.9571 144.466 56.5709C145.08 57.175 145.386 57.9566 145.386 58.9156C145.386 59.2705 145.348 59.611 145.271 59.937H140.194C140.356 61.2029 141.071 61.8359 142.337 61.8359C143.152 61.8359 143.775 61.5482 144.207 60.9728L145.516 62.0085ZM142.006 57.1463C141.047 57.1463 140.462 57.6354 140.251 58.6136H143.588C143.569 58.2108 143.42 57.8655 143.143 57.5778C142.864 57.2901 142.486 57.1463 142.006 57.1463ZM151.704 61.5626C152.817 61.5626 153.694 61.1022 154.337 60.1816L155.948 61.4187C155.478 62.0613 154.874 62.5647 154.136 62.9291C153.407 63.2935 152.596 63.4758 151.704 63.4758C150.151 63.4758 148.87 62.9579 147.863 61.9222C146.857 60.8864 146.353 59.6301 146.353 58.1532C146.353 56.6763 146.857 55.42 147.863 54.3843C148.87 53.3486 150.151 52.8307 151.704 52.8307C152.596 52.8307 153.407 53.0129 154.136 53.3773C154.865 53.7418 155.469 54.2405 155.948 54.8734L154.337 56.1249C153.694 55.2043 152.817 54.744 151.704 54.744C150.765 54.744 149.988 55.07 149.374 55.7221C148.76 56.3742 148.453 57.1847 148.453 58.1532C148.453 59.1218 148.76 59.9322 149.374 60.5843C149.988 61.2365 150.765 61.5626 151.704 61.5626ZM157.638 56.7867C158.386 56.029 159.34 55.6502 160.501 55.6502C161.661 55.6502 162.611 56.029 163.349 56.7867C164.097 57.5347 164.471 58.4601 164.471 59.563C164.471 60.6659 164.097 61.5961 163.349 62.3537C162.611 63.1017 161.661 63.4758 160.501 63.4758C159.34 63.4758 158.386 63.1017 157.638 62.3537C156.9 61.5961 156.53 60.6659 156.53 59.563C156.53 58.4601 156.9 57.5347 157.638 56.7867ZM160.529 61.7495C161.114 61.7495 161.598 61.5434 161.982 61.131C162.375 60.709 162.572 60.1864 162.572 59.563C162.572 58.93 162.375 58.4074 161.982 57.995C161.598 57.5826 161.114 57.3765 160.529 57.3765C159.925 57.3765 159.422 57.5826 159.019 57.995C158.626 58.4074 158.429 58.93 158.429 59.563C158.429 60.1959 158.626 60.7186 159.019 61.131C159.422 61.5434 159.925 61.7495 160.529 61.7495ZM165.849 63.1881V55.9379H167.677V56.5133C168.271 55.9379 168.985 55.6502 169.82 55.6502C170.644 55.6502 171.321 55.9284 171.848 56.4846C172.376 57.0408 172.639 57.8368 172.639 58.8725V63.1881H170.798V58.9445C170.798 58.4649 170.669 58.0861 170.409 57.808C170.151 57.5203 169.8 57.3765 169.36 57.3765C168.669 57.3765 168.108 57.7361 167.677 58.4553V63.1881H165.849ZM174.426 63.1881V55.9379H176.253V56.5133C176.847 55.9379 177.562 55.6502 178.397 55.6502C179.221 55.6502 179.897 55.9284 180.425 56.4846C180.952 57.0408 181.216 57.8368 181.216 58.8725V63.1881H179.374V58.9445C179.374 58.4649 179.245 58.0861 178.986 57.808C178.727 57.5203 178.377 57.3765 177.936 57.3765C177.246 57.3765 176.684 57.7361 176.253 58.4553V63.1881H174.426ZM189.677 62.0085C188.948 62.9866 187.894 63.4758 186.513 63.4758C185.266 63.4758 184.283 63.1017 183.564 62.3537C182.844 61.5961 182.485 60.6659 182.485 59.563C182.485 58.4506 182.816 57.5203 183.478 56.7722C184.148 56.0242 185.06 55.6502 186.211 55.6502C187.208 55.6502 188.014 55.9571 188.627 56.5709C189.241 57.175 189.548 57.9566 189.548 58.9156C189.548 59.2705 189.51 59.611 189.433 59.937H184.355C184.518 61.2029 185.232 61.8359 186.498 61.8359C187.314 61.8359 187.937 61.5482 188.368 60.9728L189.677 62.0085ZM186.168 57.1463C185.209 57.1463 184.623 57.6354 184.412 58.6136H187.75C187.731 58.2108 187.582 57.8655 187.304 57.5778C187.025 57.2901 186.647 57.1463 186.168 57.1463ZM194.471 61.7495C195.18 61.7495 195.727 61.4714 196.11 60.9152L197.535 62.0085C196.796 62.9866 195.775 63.4758 194.471 63.4758C193.262 63.4758 192.294 63.097 191.565 62.3393C190.836 61.5817 190.471 60.6563 190.471 59.563C190.471 58.4697 190.836 57.5443 191.565 56.7867C192.294 56.029 193.262 55.6502 194.471 55.6502C195.775 55.6502 196.796 56.1393 197.535 57.1175L196.11 58.2108C195.727 57.6545 195.171 57.3765 194.442 57.3765C193.847 57.3765 193.353 57.5826 192.96 57.995C192.567 58.4074 192.371 58.93 192.371 59.563C192.371 60.2056 192.567 60.733 192.96 61.1454C193.353 61.5482 193.857 61.7495 194.471 61.7495ZM199.141 60.5412V57.5778H197.789V55.9379H199.141V54.1254H200.983V55.9379H203.198V57.5778H200.983V60.5412C200.983 61.2892 201.366 61.6632 202.133 61.6632C202.594 61.6632 202.953 61.6105 203.212 61.505V63.1017C202.867 63.2552 202.402 63.3319 201.817 63.3319C200.925 63.3319 200.254 63.0922 199.803 62.6127C199.362 62.1332 199.141 61.4427 199.141 60.5412Z" fill="#E1000F"/>
<path d="M95.3447 64.7065L95.126 64.8325L65.959 81.642L65.7393 81.768L65.5205 81.6411C54.1303 74.9968 47.7447 71.2707 36.3545 64.6264L36.1377 64.5004V30.7573L36.3555 30.6303L65.5225 13.8022L65.7402 13.6762L65.959 13.8012L95.125 30.5815L95.3447 30.7075V64.7065Z" stroke="url(#paint0_linear_408_2783)" stroke-width="0.873591"/>
<path d="M87.6042 34.7394L65.738 22.0855L43.8717 34.8619C43.7367 34.9388 43.6244 35.05 43.5461 35.1841C43.4677 35.3183 43.4261 35.4707 43.4255 35.6261V60.3419C43.434 60.4956 43.4789 60.6449 43.5565 60.7778C43.6341 60.9107 43.7421 61.0232 43.8717 61.1061L65.7351 73.6478L87.6013 60.9515C87.731 60.8687 87.8391 60.7562 87.9167 60.6233C87.9943 60.4904 88.0391 60.341 88.0476 60.1874V35.5094C88.0484 35.3533 88.0078 35.1998 87.9299 35.0646C87.852 34.9293 87.7396 34.8171 87.6042 34.7394Z" fill="#000091"/>
<path d="M57.9257 35.4686L50.5917 48.0511L43.9461 34.6709L51.8065 30.1311L58.353 34.7394L57.9257 35.4686ZM88.049 60.2311V35.5007C88.049 35.3454 88.0077 35.1929 87.9292 35.0589C87.8508 34.9248 87.7381 34.8141 87.6028 34.738L65.738 22.0855" fill="#E1000F"/>
<path d="M43.4284 60.2311L65.7409 22.0855V73.6551L43.8717 61.1061C43.7421 61.0232 43.6341 60.9107 43.5565 60.7778C43.4789 60.6449 43.434 60.4956 43.4255 60.3419V35.6261L43.4284 60.2311ZM79.404 29.9926L87.3636 34.5936L80.8171 47.9374L72.9611 34.4682L79.404 29.9926Z" fill="#0063CB"/>
<path d="M94.333 30.6634L66.3476 14.5926C66.1591 14.4987 65.9514 14.4498 65.7409 14.4498C65.5303 14.4498 65.3227 14.4987 65.1342 14.5926L37.1488 30.6634C36.9803 30.7755 36.8406 30.9257 36.7408 31.1017C36.641 31.2778 36.5839 31.4748 36.5742 31.6769V63.7603C36.5828 63.9637 36.6393 64.1621 36.7392 64.3395C36.839 64.5169 36.9794 64.6682 37.1488 64.7811L65.1328 80.8519C65.3212 80.9458 65.5289 80.9947 65.7394 80.9947C65.95 80.9947 66.1576 80.9458 66.3461 80.8519L94.333 64.7811C94.5024 64.6682 94.6427 64.5169 94.7426 64.3395C94.8424 64.1621 94.899 63.9637 94.9076 63.7603V31.6769C94.8978 31.4748 94.8408 31.2778 94.741 31.1017C94.6412 30.9257 94.5014 30.7755 94.333 30.6634ZM52.3082 56.5576H52.4234C52.3621 56.5576 52.3082 56.5678 52.3082 56.6305C52.3082 56.7763 52.5284 56.6305 52.5998 56.7763C52.2533 56.7858 51.9242 56.9302 51.6826 57.1788C51.6826 57.2532 51.8284 57.2532 51.9028 57.2532C51.7934 57.399 51.5732 57.3261 51.4988 57.4734C51.5383 57.5128 51.5894 57.5384 51.6446 57.5463C51.5717 57.5463 51.4988 57.5463 51.4988 57.6207V57.8409C51.3151 57.8409 51.2421 57.9867 51.0948 58.0611C51.3865 58.2813 51.5717 58.0611 51.8648 58.0611C51.0948 58.3528 50.4707 58.7582 49.7007 58.9784C49.5548 58.9784 49.7007 59.1986 49.5548 59.1986C49.7751 59.3444 49.8859 59.1257 50.1046 59.1257C49.1509 59.6755 48.1607 60.1465 47.134 60.7765C47.0549 60.8552 47.0037 60.9577 46.9882 61.0682H46.6965C46.5507 61.1411 46.6236 61.3249 46.4763 61.4721C46.8059 61.6924 47.2055 61.1805 47.4301 61.4721C47.503 61.4721 47.2842 61.5451 47.1384 61.5451C47.0655 61.5451 47.0655 61.6909 46.9926 61.6909H46.768C46.6221 61.8003 46.4763 61.8746 46.4763 62.0934C46.4131 62.0817 46.3478 62.0894 46.289 62.1154C46.2302 62.1414 46.1806 62.1846 46.1467 62.2392C47.713 62.233 49.2656 61.9476 50.7317 61.3963C51.8687 60.8173 52.8985 60.0484 53.7767 59.1228C53.8162 59.1622 53.8418 59.2134 53.8496 59.2686C53.6351 59.9051 53.2234 60.4568 52.6742 60.8436C52.2703 61.0638 51.9771 61.3934 51.6534 61.5407C51.4371 61.6616 51.2286 61.796 51.0292 61.9432C50.1071 62.23 49.1606 62.4312 48.2015 62.544L47.7567 62.6082C47.4286 62.6563 47.1019 62.7088 46.7782 62.7657L43.8717 61.1061C43.7654 61.0391 43.6735 60.9516 43.6013 60.8487C43.5292 60.7458 43.4784 60.6295 43.4517 60.5067C43.5003 60.4807 43.5462 60.4499 43.5888 60.4149C43.5436 60.3669 43.4869 60.3312 43.424 60.3113V59.3634C44.9522 59.0917 46.4406 58.6302 47.8544 57.9896C46.5167 57.06 45.0133 56.3951 43.4255 56.0311V53.8217C44.2349 53.9544 45.0338 54.1455 45.8157 54.3934C46.4176 54.6145 46.9953 54.897 47.5394 55.2363C47.7533 55.4419 47.9867 55.6261 48.2365 55.7861C48.4125 55.8865 48.6092 55.9453 48.8114 55.9579C49.0136 55.9706 49.2161 55.9367 49.4032 55.859H49.8844C50.9292 55.6863 51.9064 55.2298 52.7092 54.5392C52.7092 54.6121 52.7821 54.6121 52.8551 54.6121C52.7408 55.1935 52.5299 55.7515 52.2309 56.263C52.2353 56.3374 52.1609 56.4846 52.3082 56.5576ZM56.4163 61.7653C56.7823 61.6194 56.9996 61.3613 57.3336 61.2155C57.2607 61.2884 57.2607 61.4357 57.1878 61.5072C56.9141 61.6781 56.6564 61.8734 56.4178 62.0905C55.5928 62.8175 54.8204 63.6021 54.1063 64.4384C53.7388 64.8759 53.3363 65.2813 52.9396 65.6853C52.7991 65.8167 52.6479 65.9362 52.4876 66.0426L48.8023 63.928C49.3265 63.9723 49.8542 63.9463 50.3715 63.8507C50.8009 63.7303 51.2183 63.5707 51.6184 63.3738V63.5196C52.6392 63.1157 53.4151 62.1984 54.4432 61.8688C54.4796 61.8688 54.6269 62.0146 54.7728 61.9417C55.0369 61.6144 55.3727 61.3521 55.7542 61.1751C56.1358 60.9981 56.5529 60.9112 56.9734 60.9209C56.9734 60.9938 56.9734 61.0667 57.0463 61.0667H57.0828C56.8626 61.2505 56.6059 61.4328 56.3536 61.6165C56.2705 61.6924 56.3434 61.7653 56.4163 61.7653ZM43.4255 52.7761V52.5049C44.1811 52.3072 44.9604 52.215 45.7413 52.2307C45.9722 52.1939 46.2075 52.1939 46.4384 52.2307C45.4094 52.2297 44.3888 52.4144 43.4255 52.7761ZM88.0505 60.1961C88.042 60.3497 87.9972 60.4992 87.9196 60.6321C87.842 60.7649 87.7339 60.8774 87.6042 60.9603L72.9057 69.493C71.2181 69.01 69.5589 68.433 67.9357 67.7649C67.7004 67.2531 67.5726 66.6985 67.5601 66.1354C67.5475 65.5723 67.6505 65.0126 67.8628 64.4909C67.9792 64.0418 68.1517 63.6092 68.3761 63.2032C68.4126 63.1667 68.449 63.1303 68.449 63.0924C68.4587 63.0924 68.468 63.0885 68.4748 63.0817C68.4816 63.0748 68.4855 63.0656 68.4855 63.0559C68.6475 62.7722 68.8313 62.5016 69.0353 62.2465L69.0571 62.2246L69.0863 62.194L69.1082 62.1721C69.1082 62.1357 69.1446 62.0992 69.1811 62.0613C69.2176 61.9869 69.2905 61.9505 69.3269 61.8776C69.5829 61.6065 69.8659 61.3622 70.1713 61.1484C70.4815 61.036 70.8005 60.9497 71.1251 60.8903C72.3077 60.9773 73.4839 61.1371 74.6469 61.3686C74.7899 61.3901 74.9272 61.4396 75.0509 61.5144C75.4901 61.6 75.9436 61.5749 76.3707 61.4415C76.6491 61.3906 76.9099 61.2693 77.1281 61.089C77.3464 60.9088 77.5149 60.6757 77.6176 60.4119C77.7459 60.1769 77.8192 59.9157 77.8318 59.6481C77.8445 59.3806 77.7961 59.1137 77.6905 58.8676C77.4309 58.4651 77.6715 58.2303 77.9544 58.0071L78.0536 57.9269C78.1796 57.8377 78.293 57.7317 78.3905 57.6119C78.5742 57.2444 78.2446 57.0286 78.1703 56.6932C78.0973 56.5474 77.8407 56.6203 77.6934 56.4015C78.2067 56.1813 78.9403 55.7759 78.6107 55.1517C78.3905 54.8207 78.0609 54.233 78.4648 53.9019C78.9782 53.6103 79.7117 53.6817 79.9319 53.2034C80.0039 52.9254 80.0026 52.6334 79.9279 52.356C79.8533 52.0787 79.7079 51.8255 79.5061 51.6211L79.3967 51.4636C79.2873 51.3076 79.1794 51.1515 79.089 50.9969C78.8572 50.6122 78.6 50.2434 78.319 49.893C77.9982 49.4388 77.7393 48.944 77.549 48.4215C77.3288 47.8703 77.6219 47.3919 77.6219 46.8407C77.6435 45.7788 77.4822 44.7212 77.1451 43.714C76.9613 43.1992 76.8884 42.648 76.6682 42.1696C76.6404 41.8622 76.5262 41.569 76.3386 41.3238C76.3024 41.2493 76.2835 41.1675 76.2835 41.0847C76.2835 41.0018 76.3024 40.92 76.3386 40.8455C76.6376 40.6347 76.9199 40.4012 77.183 40.1469C77.2643 39.9686 77.2796 39.7672 77.2261 39.5786C77.1727 39.39 77.0541 39.2266 76.8913 39.1174C76.4144 38.8971 76.4538 39.5957 76.1213 39.743H75.9011C75.8282 39.5592 75.974 39.4849 76.1213 39.339C76.1213 39.2661 76.1213 39.1188 76.0484 39.1188C75.7567 39.1188 75.4986 39.0444 75.4242 38.8986C74.7213 38.0227 73.7781 37.3709 72.7103 37.0232C72.9844 37.1074 73.2681 37.1564 73.5546 37.169C74.047 37.2732 74.5595 37.2222 75.0217 37.0232C75.3528 36.9124 75.4257 36.3246 75.5715 35.9936C75.6011 35.8333 75.5968 35.6687 75.5589 35.5102C75.521 35.3517 75.4502 35.2029 75.3513 35.0734C75.0201 34.5919 74.5631 34.2105 74.0301 33.9709C73.7734 33.8601 73.3694 33.6399 73.0398 33.4561C72.9276 33.3771 72.8042 33.3152 72.6738 33.2724C68.3498 31.1067 59.4482 32.9807 58.7701 33.2724H58.7569C58.132 33.4536 57.5229 33.6853 56.9355 33.9651C56.1267 34.2653 55.3963 34.7447 54.799 35.3672C54.2018 35.9898 53.7531 36.7393 53.4865 37.5599C52.6538 38.1068 51.9826 38.8667 51.5426 39.7605C50.9184 40.9271 50.0026 41.9611 50.1484 43.2809C50.2942 44.4184 50.5523 45.4451 50.7726 46.619C50.8352 47.0158 50.9328 47.4062 51.0642 47.7857C51.2101 48.1882 51.0642 48.703 51.2844 49.0326C51.3938 49.2528 51.3209 49.5094 51.6155 49.6567V49.9484C51.6884 50.0213 51.6884 50.0942 51.8357 50.0942V50.3859C52.4696 51.0035 53.0131 51.7075 53.4501 52.4771C53.5959 52.8797 52.753 52.6974 52.4292 52.5501C51.8233 52.1556 51.2687 51.6873 50.7784 51.1559C50.7383 51.195 50.7121 51.2463 50.704 51.3017C50.9957 51.8151 52.0253 52.4392 51.474 52.7688C51.1823 52.9146 50.8498 52.5486 50.5567 52.8432C50.4838 52.9526 50.5567 53.0999 50.5567 53.2457C50.1528 52.954 49.7138 53.0999 49.3098 52.954C49.0182 52.8811 48.9423 52.3313 48.6128 52.3313C47.7429 52.119 46.8609 51.9598 45.9717 51.8544C45.1315 51.7284 44.2848 51.651 43.4357 51.6226V35.6261C43.4363 35.4707 43.4779 35.3183 43.5563 35.1841C43.6346 35.05 43.7469 34.9389 43.8819 34.8619L65.738 22.0855L87.6042 34.7394C87.7393 34.8162 87.8517 34.9273 87.9301 35.0615C88.0084 35.1957 88.05 35.3482 88.0505 35.5036V60.1961ZM76.4509 48.1488C76.4068 48.2173 76.3458 48.2733 76.2738 48.3114C76.2017 48.3494 76.1211 48.3683 76.0396 48.3661C75.8935 48.4892 75.7561 48.6222 75.6284 48.7642C75.7742 48.7642 75.6284 48.9815 75.7742 48.9815C75.4753 49.3067 75.8865 49.9936 75.4753 50.138C74.9369 50.2823 74.3701 50.2823 73.8317 50.138C73.9117 50.1208 73.9935 50.1129 74.0753 50.1146H74.1992C74.2907 50.1257 74.3834 50.1139 74.4692 50.0803C74.555 50.0467 74.6311 49.9924 74.6907 49.9221V49.6305C74.6907 49.5576 74.6163 49.5576 74.5448 49.5576C74.5065 49.5985 74.4548 49.6244 74.399 49.6305C74.3954 49.5649 74.3721 49.5019 74.332 49.4498C74.2919 49.3977 74.2369 49.3591 74.1744 49.3388C73.9806 49.3647 73.7833 49.3418 73.6005 49.2723C73.4177 49.2028 73.2551 49.0888 73.1273 48.9407C73.3251 48.8457 73.5491 48.82 73.7632 48.8678C73.9498 48.8678 73.8755 48.5426 74.1001 48.3982H74.3246C74.7723 47.8557 75.5948 47.7113 75.7451 47.1688C75.7451 47.023 75.3338 47.023 75.0348 46.9515C74.6351 46.9025 74.2298 46.9272 73.839 47.0244C73.3143 47.0968 72.7999 47.2305 72.3063 47.4226C72.715 47.1226 73.1696 46.8906 73.6523 46.7357C73.9912 46.6051 74.3419 46.5075 74.6994 46.444L74.8919 46.4061L75.0859 46.3667C75.3504 46.2877 75.6322 46.2877 75.8967 46.3667C76.2336 46.5126 76.7936 46.5126 76.868 46.7284C77.0138 47.1265 76.6434 47.5232 76.2336 47.8134C76.1505 47.9315 76.4509 48.0103 76.4509 48.1488Z" fill="white"/>
<path d="M29.92 75.68H17.6005V31.6802H5.28027V19.36H29.92V75.68Z" fill="#000091"/>
<path d="M29.9198 58.08L29.9201 75.68H17.6001V71.167L29.9198 58.08Z" fill="#E1000F"/>
<path d="M23.7601 35.2C23.7601 35.2 23.814 36.6245 24.3948 37.2053C24.9756 37.7861 26.4001 37.84 26.4001 37.84C26.4001 37.84 24.9756 37.8939 24.3948 38.4747C23.814 39.0555 23.7601 40.48 23.7601 40.48C23.7601 40.48 23.7062 39.0555 23.1254 38.4747C22.5446 37.8939 21.1201 37.84 21.1201 37.84C21.1201 37.84 22.5446 37.7861 23.1254 37.2053C23.7062 36.6245 23.7601 35.2 23.7601 35.2Z" fill="white"/>
<path d="M8.80026 49.28C8.80026 49.28 8.87211 51.1792 9.64651 51.9537C10.421 52.7281 12.3203 52.8 12.3203 52.8C12.3203 52.8 10.421 52.8718 9.64651 53.6462C8.87211 54.4207 8.80026 56.32 8.80026 56.32C8.80026 56.32 8.7284 54.4207 7.954 53.6462C7.1796 52.8718 5.28027 52.8 5.28027 52.8C5.28027 52.8 7.1796 52.7281 7.954 51.9537C8.7284 51.1792 8.80026 49.28 8.80026 49.28Z" fill="#E1000F"/>
<path d="M25.5199 79.2C25.5199 79.2 25.5738 80.6246 26.1546 81.2053C26.7354 81.786 28.1599 81.84 28.1599 81.84C28.1599 81.84 26.7354 81.8941 26.1546 82.4747C25.5738 83.0554 25.5199 84.48 25.5199 84.48C25.5199 84.48 25.466 83.0554 24.8852 82.4747C24.3044 81.8941 22.8799 81.84 22.8799 81.84C22.8799 81.84 24.3044 81.786 24.8852 81.2053C25.466 80.6246 25.5199 79.2 25.5199 79.2Z" fill="#E1000F"/>
<path d="M51.9203 82.72C51.9203 82.72 51.9742 84.1446 52.555 84.7253C53.1358 85.3059 54.5603 85.36 54.5603 85.36C54.5603 85.36 53.1358 85.414 52.555 85.9947C51.9742 86.5753 51.9203 88 51.9203 88C51.9203 88 51.8664 86.5753 51.2856 85.9947C50.7048 85.414 49.2803 85.36 49.2803 85.36C49.2803 85.36 50.7048 85.3059 51.2856 84.7253C51.8664 84.1446 51.9203 82.72 51.9203 82.72Z" fill="#E1000F"/>
<path d="M85.36 80.96C85.36 80.96 85.414 82.3846 85.9947 82.9653C86.5753 83.5459 88 83.6 88 83.6C88 83.6 86.5753 83.654 85.9947 84.2347C85.414 84.8153 85.36 86.24 85.36 86.24C85.36 86.24 85.3059 84.8153 84.7253 84.2347C84.1446 83.654 82.72 83.6 82.72 83.6C82.72 83.6 84.1446 83.5459 84.7253 82.9653C85.3059 82.3846 85.36 80.96 85.36 80.96Z" fill="#000091"/>
<path d="M102.08 68.64C102.08 68.64 102.152 70.5393 102.927 71.314C103.701 72.088 105.6 72.16 105.6 72.16C105.6 72.16 103.701 72.2321 102.927 73.0061C102.152 73.7807 102.08 75.68 102.08 75.68C102.08 75.68 102.009 73.7807 101.234 73.0061C100.459 72.2321 98.5601 72.16 98.5601 72.16C98.5601 72.16 100.459 72.088 101.234 71.314C102.009 70.5393 102.08 68.64 102.08 68.64Z" fill="#000091"/>
<path d="M2.64 40.48C2.64 40.48 2.69387 41.9045 3.2747 42.4853C3.85552 43.0661 5.28 43.12 5.28 43.12C5.28 43.12 3.85552 43.1739 3.2747 43.7548C2.69387 44.3356 2.64 45.76 2.64 45.76C2.64 45.76 2.58613 44.3356 2.0053 43.7548C1.42448 43.1739 0 43.12 0 43.12C0 43.12 1.42448 43.0661 2.0053 42.4853C2.58613 41.9045 2.64 40.48 2.64 40.48Z" fill="#000091"/>
<path d="M20.2398 7.04004C20.2398 7.04004 20.3296 9.41417 21.2976 10.3822C22.2657 11.3502 24.6398 11.44 24.6398 11.44C24.6398 11.44 22.2657 11.5298 21.2976 12.4978C20.3296 13.4659 20.2398 15.84 20.2398 15.84C20.2398 15.84 20.15 13.4659 19.182 12.4978C18.214 11.5298 15.8398 11.44 15.8398 11.44C15.8398 11.44 18.214 11.3502 19.182 10.3822C20.15 9.41417 20.2398 7.04004 20.2398 7.04004Z" fill="#000091"/>
<path d="M41.3597 12.32C41.3597 12.32 41.4136 13.7445 41.9944 14.3253C42.5752 14.9062 43.9997 14.96 43.9997 14.96C43.9997 14.96 42.5752 15.0139 41.9944 15.5947C41.4136 16.1755 41.3597 17.6 41.3597 17.6C41.3597 17.6 41.3058 16.1755 40.725 15.5947C40.1442 15.0139 38.7197 14.96 38.7197 14.96C38.7197 14.96 40.1442 14.9062 40.725 14.3253C41.3058 13.7445 41.3597 12.32 41.3597 12.32Z" fill="#E1000F"/>
<path d="M76.5602 0C76.5602 0 76.6502 2.37413 77.6182 3.34217C78.5862 4.31021 80.9602 4.4 80.9602 4.4C80.9602 4.4 78.5862 4.48979 77.6182 5.45783C76.6502 6.42587 76.5602 8.8 76.5602 8.8C76.5602 8.8 76.4708 6.42587 75.5021 5.45783C74.5341 4.48979 72.1602 4.4 72.1602 4.4C72.1602 4.4 74.5341 4.31021 75.5021 3.34217C76.4708 2.37413 76.5602 0 76.5602 0Z" fill="#E1000F"/>
<path d="M25.5199 3.52008C25.5199 3.52008 25.5738 4.94456 26.1546 5.52538C26.7354 6.10621 28.1599 6.16008 28.1599 6.16008C28.1599 6.16008 26.7354 6.21395 26.1546 6.79478C25.5738 7.37558 25.5199 8.80007 25.5199 8.80007C25.5199 8.80007 25.466 7.37558 24.8852 6.79478C24.3044 6.21395 22.8799 6.16008 22.8799 6.16008C22.8799 6.16008 24.3044 6.10621 24.8852 5.52538C25.466 4.94456 25.5199 3.52008 25.5199 3.52008Z" fill="#000091"/>
<path d="M97.68 19.36C97.68 19.36 97.7341 20.7845 98.3147 21.3653C98.8954 21.9461 100.32 22 100.32 22C100.32 22 98.8954 22.0539 98.3147 22.6347C97.7341 23.2155 97.68 24.64 97.68 24.64C97.68 24.64 97.626 23.2155 97.0453 22.6347C96.4647 22.0539 95.04 22 95.04 22C95.04 22 96.4647 21.9461 97.0453 21.3653C97.626 20.7845 97.68 19.36 97.68 19.36Z" fill="#000091"/>
<path d="M7.04027 73.92C8.01229 73.92 8.80027 73.132 8.80027 72.16C8.80027 71.1879 8.01229 70.4 7.04027 70.4C6.06825 70.4 5.28027 71.1879 5.28027 72.16C5.28027 73.132 6.06825 73.92 7.04027 73.92Z" fill="#000091"/>
<path d="M98.5601 14.08C99.5321 14.08 100.32 13.292 100.32 12.32C100.32 11.348 99.5321 10.56 98.5601 10.56C97.588 10.56 96.8 11.348 96.8 12.32C96.8 13.292 97.588 14.08 98.5601 14.08Z" fill="#000091"/>
<path d="M106.089 48.0077C104.129 48.0077 102.79 46.882 102.79 45.0771C102.79 43.6022 103.935 42.4959 106.031 42.1466L109.02 41.642V41.3897C109.02 40.3611 108.243 39.7013 107.118 39.7013C106.167 39.7013 105.429 40.1476 104.905 40.8657L103.1 39.4878C103.974 38.2845 105.41 37.547 107.195 37.547C110.029 37.547 111.484 39.2355 111.484 41.3897V47.7166H109.02V46.7656C108.398 47.5225 107.234 48.0077 106.089 48.0077ZM105.235 44.9607C105.235 45.6205 105.759 46.0475 106.594 46.0475C107.719 46.0475 108.534 45.5235 109.02 44.7472V43.3693L106.691 43.7574C105.662 43.9321 105.235 44.3591 105.235 44.9607ZM113.336 47.7166V37.9352H115.801V38.7115C116.48 38.0516 117.392 37.547 118.693 37.547C120.808 37.547 122.497 39.0026 122.497 41.8943V47.7166H120.013V41.9913C120.013 40.691 119.275 39.8759 118.072 39.8759C116.83 39.8759 116.17 40.7104 115.801 41.3315V47.7166H113.336ZM123.471 46.2998L125.101 44.8248C125.703 45.5817 126.421 46.1251 127.353 46.1251C128.148 46.1251 128.556 45.6594 128.556 45.0771C128.556 43.3693 123.879 44.0097 123.879 40.5746C123.879 38.8473 125.334 37.547 127.372 37.547C128.866 37.547 130.225 38.2651 130.924 39.2161L129.293 40.6522C128.789 40.0312 128.148 39.5266 127.391 39.5266C126.615 39.5266 126.246 39.9536 126.246 40.4581C126.246 42.1272 130.924 41.545 130.924 44.9219C130.885 46.9791 129.235 48.1047 127.391 48.1047C125.645 48.1047 124.403 47.406 123.471 46.2998Z" fill="#000091"/>
<defs>
<linearGradient id="paint0_linear_408_2783" x1="39.0964" y1="40.4794" x2="92.3854" y2="41.353" gradientUnits="userSpaceOnUse">
<stop stop-color="#000091"/>
<stop offset="1" stop-color="#E1000F"/>
</linearGradient>
</defs>
</svg>
