<svg width="106" height="54" fill="none" xmlns="http://www.w3.org/2000/svg"><g clip-path="url(#a)"><path d="M24.224.932c-.251-.15-.703-.15-.954 0L1.287 13.582c-.251.15-.452.5-.452.8v25.253c0 .3.2.65.452.8L23.27 53.086c.25.15.703.15.954 0l21.983-12.651c.25-.15.451-.5.451-.8V14.383c0-.3-.2-.65-.451-.8L24.224.932Z" fill="#fff"/><path d="m24.173.932 21.984 12.65c.25.15.451.5.451.8v25.253c0 .3-.2.65-.451.8L24.172 53.086c-.15.05-.3.1-.451.1-.151 0-.352-.05-.452-.1L1.287 40.435c-.251-.15-.452-.5-.452-.8V14.383c0-.3.2-.65.452-.8L23.27.932c.1-.05.301-.1.452-.1.15 0 .35.05.451.1Zm-1.305-.7L.885 12.882c-.502.3-.853.95-.853 1.5v25.253c0 .6.351 1.2.853 1.5l21.983 12.651c.302.2.653.2.854.2.2 0 .552-.05.853-.2l21.983-12.65c.502-.3.853-.951.853-1.501V14.383c0-.6-.351-1.2-.853-1.5L24.625.232c-.351-.2-.652-.2-.903-.2-.201 0-.553.05-.854.2Z" fill="url(#b)"/><path d="m17.295 13.687-.051-.052c.051 0 .051 0 .051.052Z" fill="#EA212E"/><path d="M23.663 47.427 6.537 37.548c-.2-.1-.35-.4-.35-.602V17.49c0-.25.15-.502.35-.602L23.714 6.96" fill="#0053CC"/><path d="m6.236 36.859-.05-19.484c0-.25.15-.502.35-.602L23.715 6.83" fill="#000091"/><path d="m6.573 16.69 5.269 10.632 6.072-10.533-5.169-3.644-6.172 3.544Z" fill="#E1000F"/><path d="m30.132 13.687.051-.052c-.051 0-.051 0-.051.052Z" fill="#EA212E"/><path d="m23.764 47.298 17.127-9.866c.2-.1.35-.401.35-.601V17.398c0-.25-.15-.5-.35-.601L23.714 6.83" fill="#000091"/><path d="m41.191 36.859.05-19.469c0-.25-.15-.5-.35-.6L23.714 6.83" fill="#E1000F"/><path d="m40.725 16.636-5.168 10.557-6.173-10.607 5.119-3.57 6.222 3.62Z" fill="#0053CC"/><path fill-rule="evenodd" clip-rule="evenodd" d="M30.223 16.184c.404.202.779.463 1.038.868.115.174.26.492.173.724-.116.26-.173.724-.433.81-.316.174-.749.174-1.152.116-.23 0-.432-.058-.663-.116.807.319 1.585.724 2.132 1.477.058.116.26.174.49.174.058 0 .058.115.058.173-.115.116-.23.174-.173.319h.173c.26-.116.23-.666.605-.492.26.173.375.55.23.81-.23.232-.432.377-.662.55a.43.43 0 0 0 0 .377c.173.231.23.434.26.666.172.376.23.81.374 1.215.23.811.432 1.65.374 2.461 0 .435-.23.81-.057 1.245.115.434.374.753.605 1.158.23.319.432.55.605.869.07.122.155.244.242.367l.086.124c.272.392.518.798.335 1.246-.173.376-.75.319-1.153.55-.317.26-.057.724.115.984.26.492-.316.811-.72.984.115.174.317.116.375.232.057.26.317.434.173.724-.066.091-.165.17-.265.248l-.075.059c-.223.176-.412.36-.208.677.23.377.087.81-.058 1.216-.172.492-.605.724-.98.811-.316.115-.72.115-1.037.058-.115-.058-.23-.116-.317-.116-.922-.116-1.844-.377-2.766-.377-.26.059-.548.116-.75.203-.259.174-.46.377-.662.58-.029.057-.087.086-.115.144-.03.03-.058.058-.058.087l-.017.017-.024.024-.017.017c-.172.203-.288.405-.432.636 0 .03-.029.03-.029.03 0 .029-.028.058-.057.086a4.36 4.36 0 0 0-.404 1.014c-.375 1.245-.202 2.316.058 2.577.172.173 2.248.817 4.073 1.415-3.189 2.663-5.767 3.995-7.733 3.995-2.715 0-7.268-1.804-13.66-5.413 1.547 0 1.326.62 2.767-.101.692-.289 2.248-1.01 2.767-1.53.317-.318.634-.636.922-.982a18.322 18.322 0 0 1 1.815-1.848c.202-.173.404-.346.606-.462.057-.058.057-.173.115-.23-.26.115-.433.317-.72.432-.058 0-.116-.057-.058-.115.201-.145.403-.289.576-.433h-.029c-.058 0-.058-.058-.058-.116-.72-.115-1.239.376-1.729.809-.115.058-.23-.058-.259-.058-.807.26-1.412.982-2.219 1.3v-.117c-.316.116-.634.318-.98.376-.49.115-.922.058-1.354.058-.663.057-1.325.202-1.988.346-.03 0-.03 0-.058.03-.346.085-.691.23-1.009.403l-.028.03-.087.086c-.115.115-.23.26-.374.317-.346.174-.606.462-.894.722-.028.029-.057.029-.086.029-.288.289.058-.577.374-.78-.028 0-.086-.028-.057-.057.029-.058.057-.087.086-.145 0-.029 0-.029.029-.057l-.005-.018-.019-.023a.029.029 0 0 1-.005-.017l-.259.173c-.144.116-.086-.548.057-.635h-.028c.201-.116.432-.231.634-.347l.086-.086c-.317.115-.576.26-.864.433 0 0 0-.202.086-.288.058 0 .116 0 .116.057 1.044-.807 2.314-1.022 3.595-1.209l.35-.05c.758-.111 1.512-.23 2.221-.473.173-.116.317-.231.49-.318.26-.115.49-.375.807-.548.432-.318.75-.722.922-1.242 0-.058-.057-.115-.057-.115a8.803 8.803 0 0 1-2.392 1.79c-1.153.606-2.392.49-3.602.664.057-.116.173-.116.259-.116 0-.173.115-.23.23-.317h.174c.057 0 .057-.116.115-.116.115 0 .288-.057.23-.057-.173-.232-.49.173-.75 0 .116-.116.059-.26.174-.318h.23c0-.116.116-.231.116-.231.807-.491 1.585-.866 2.334-1.3-.173 0-.26.174-.433.058.116 0 0-.173.116-.173.605-.173 1.095-.49 1.7-.722-.23 0-.375.174-.605 0 .115-.057.173-.173.317-.173v-.173c0-.058.058-.058.115-.058-.057 0-.115-.058-.115-.058.058-.115.23-.057.317-.173-.058 0-.173 0-.173-.058.173-.23.432-.26.72-.317-.057-.116-.23 0-.23-.116 0-.05.042-.056.09-.057h-.09c-.115-.058-.058-.173-.058-.232.317-.375.317-.865.49-1.299-.058 0-.115 0-.115-.057-.548.606-1.412.808-2.219 1.04h-.375c-.259.114-.663.114-.922-.059-.23-.115-.317-.26-.547-.433a7.355 7.355 0 0 0-1.355-.663c-1.354-.434-2.766-.665-4.178-.607.605-.318 1.268-.347 1.902-.549.922-.26 1.786-.606 2.766-.548-.173-.058-.375 0-.547 0-.75-.058-1.528.173-2.335.318-.547.115-1.037.317-1.585.432-.316.116-.49.434-.864.376v-.173c.548-.665 1.21-1.3 2.075-1.357.98-.174 1.902 0 2.881.115.721.058 1.355.231 2.075.376.26 0 .317.432.548.49.317.116.663 0 .98.231 0-.115-.058-.23 0-.317.23-.231.49.058.72-.058.432-.26-.374-.75-.605-1.155 0-.058.057-.116.057-.116.433.376.75.81 1.298 1.098.259.115.921.26.806-.058-.26-.606-.806-1.097-1.268-1.646v-.23c-.115 0-.115-.058-.173-.116v-.231c-.23-.116-.173-.318-.26-.491-.172-.26-.056-.664-.172-.981a5.365 5.365 0 0 1-.23-.925c-.174-.923-.375-1.732-.49-2.627-.116-1.039.605-1.848 1.095-2.771.374-.664.807-1.3 1.527-1.733.173-.664.605-1.212 1.037-1.732.433-.52 1.153-.866 1.672-1.097a9.445 9.445 0 0 1 1.43-.546l.01-.003c.533-.234 7.526-1.705 10.922 0 .072.037.058 0 .288.145.26.145.577.318.778.406ZM3.84 32.018c0 .254-.17.48-.426.536.426.113.852.113 1.279.311-.057.113-.17.056-.228.056.256.17.597.057.853.255-.17.17-.312 0-.483 0 1.677.48 3.439.846 4.832 1.92-1.194.592-2.416.846-3.695 1.128-.17 0-.256 0-.427-.056 0 .056 0 .17-.056.17-.228 0-.37 0-.54.112-.2.17-.512.226-.683.056-.056-.056.171 0 .228-.112h-.426c-.057 0-.057-.057-.057-.113-.256.056-.597.169-.853.226-.37.112-.2-1.722.057-1.835-.057-.057-.17-.057-.17-.17-.228 0-.313-.564-.171-.592.227-.057.483-.057.653-.226-.37-.057-.483-1.383.142-1.722.057 0 .171 0 .171.056Zm2.476 4.987c-.345.353-.776.192-1.149.353-.115 0-.316.065-.258-.064.035-.18.195-.248.365-.305l.103-.034c.068-.023.135-.047.192-.079.115-.064.258-.193.373-.128.115.192.259.128.374.257Zm-1.956-7.396c-.058 0-.116 0-.174-.058.058-.058.058-.116.058-.174-.55.61-1.798.406-.638-.145.435-.175.986-.117 1.421.058-.174.232-.435.174-.667.32ZM30.9 25.98c-.05.011-.101.021-.151.03-.264 0-.558.17-.822.227a3.69 3.69 0 0 0-1.057.541c.381-.17.763-.227 1.204-.313.322-.057.587-.114.94-.057.234.057.557.057.557.17-.117.428-.763.542-1.116.969h-.176c-.176.113-.117.37-.264.37-.177-.057-.323 0-.5.056.235.228.5.37.823.313.058 0 .176.114.176.228 0 0 .059 0 .117-.057.06 0 .118 0 .118.057v.227c-.106.137-.243.15-.387.152h-.097a.828.828 0 0 0-.191.019c.44.114.88.114 1.291 0 .324-.114 0-.654.235-.91-.117 0 0-.171-.117-.171.117-.114.235-.256.323-.313.117 0 .264-.057.323-.17 0-.115-.235-.171-.176-.257.323-.227.616-.54.499-.854-.059-.17-.499-.17-.763-.284-.183-.079-.409-.049-.637-.004l-.152.031Z" fill="#fff"/><path d="M55.507 26.033v-3.815h2.912v-1.56h-2.912v-2.087h3.428v-1.56h-5.259v9.022h1.83Zm6.456 0v-4.072c.12-.198.312-.387.574-.567.262-.18.59-.271.986-.271a2.699 2.699 0 0 1 .722.09V19.5a1.73 1.73 0 0 0-.567-.09c-.37 0-.694.075-.974.225-.279.15-.526.333-.74.548v-.644h-1.637v6.495h1.636Zm5.452.258c.378 0 .743-.08 1.095-.239.353-.159.632-.367.838-.625v.606h1.65v-4.201c0-.352-.06-.686-.18-1a2.213 2.213 0 0 0-.535-.811 2.535 2.535 0 0 0-.896-.541c-.361-.134-.773-.2-1.237-.2-.585 0-1.11.116-1.58.348a3.107 3.107 0 0 0-1.14.94l1.212.916c.146-.25.346-.44.599-.574.253-.133.54-.2.857-.2.37 0 .67.101.902.303.232.202.348.475.348.819v.167l-1.959.335c-.696.112-1.23.348-1.604.71-.374.36-.561.785-.561 1.275 0 .61.204 1.091.612 1.444.408.352.935.528 1.579.528Zm.335-1.315c-.275 0-.494-.068-.657-.206a.647.647 0 0 1-.245-.515.67.67 0 0 1 .225-.516c.15-.137.398-.236.742-.296l1.533-.27v.888a2.045 2.045 0 0 1-.644.658c-.267.171-.584.257-.954.257Zm6.753 1.057v-4.24c.12-.206.299-.419.535-.638.236-.219.56-.329.973-.329.395 0 .707.127.934.38.228.254.342.596.342 1.025v3.802h1.663v-3.866c0-.481-.067-.902-.2-1.263a2.604 2.604 0 0 0-.541-.902 2.199 2.199 0 0 0-.8-.542 2.663 2.663 0 0 0-.985-.18c-.43 0-.802.075-1.115.226-.314.15-.582.332-.806.547v-.515h-1.636v6.495h1.636Zm9.421.258c.593 0 1.124-.12 1.592-.36.468-.242.853-.56 1.153-.955l-1.301-.992a1.835 1.835 0 0 1-.6.548 1.653 1.653 0 0 1-.844.212c-.541 0-.99-.184-1.347-.554-.356-.37-.534-.838-.534-1.405 0-.567.176-1.035.528-1.404.352-.37.795-.555 1.328-.555.335 0 .625.071.87.213.244.142.444.324.599.548l1.301-.992a3.346 3.346 0 0 0-1.153-.954c-.468-.24-.999-.361-1.592-.361-.558 0-1.06.095-1.508.284a3.345 3.345 0 0 0-1.127.76 3.3 3.3 0 0 0-.703 1.115 3.726 3.726 0 0 0-.245 1.346c0 .473.082.922.245 1.347a3.3 3.3 0 0 0 .703 1.115c.305.318.68.571 1.127.76.447.19.95.284 1.508.284Zm7.114 0c.61 0 1.16-.118 1.65-.355a3.16 3.16 0 0 0 1.186-.96l-1.173-.928c-.172.232-.4.42-.683.561a2.103 2.103 0 0 1-.954.213c-.55 0-1-.15-1.353-.451-.352-.301-.554-.718-.606-1.25h4.55a4.463 4.463 0 0 0 .103-.928c0-.851-.275-1.55-.825-2.095-.55-.545-1.272-.818-2.165-.818-.533 0-1.005.092-1.418.277-.412.185-.76.436-1.044.754-.283.318-.5.69-.65 1.115a4.05 4.05 0 0 0-.226 1.36c0 .472.08.92.238 1.346.16.425.391.797.696 1.115.305.318.683.571 1.134.76.451.19.965.284 1.54.284Zm1.096-4.408h-2.926c.112-.42.301-.732.567-.934.267-.202.597-.303.993-.303.43 0 .762.127.998.38.237.254.36.54.368.857Z" fill="#19199C"/><path d="M57.697 37.632c.817 0 1.551-.167 2.204-.502a4.512 4.512 0 0 0 1.598-1.34l-1.443-1.11c-.258.37-.586.669-.986.897-.4.227-.857.341-1.373.341-.42 0-.811-.08-1.172-.238a2.78 2.78 0 0 1-.922-.645 2.984 2.984 0 0 1-.599-.966 3.28 3.28 0 0 1-.22-1.205c0-.43.074-.832.22-1.205.146-.374.346-.696.6-.967.253-.27.56-.485.92-.644.362-.16.752-.239 1.173-.239.516 0 .974.114 1.373.342.4.227.728.526.986.896l1.443-1.122a4.695 4.695 0 0 0-1.598-1.32c-.653-.34-1.387-.51-2.204-.51a4.827 4.827 0 0 0-3.466 1.418c-.421.43-.748.934-.98 1.514a4.898 4.898 0 0 0-.348 1.837c0 .644.116 1.256.348 1.836.232.58.559 1.085.98 1.514.42.43.928.774 1.52 1.032a4.829 4.829 0 0 0 1.947.386Zm8.262 0a3.68 3.68 0 0 0 1.443-.277 3.494 3.494 0 0 0 1.128-.747c.313-.314.556-.686.728-1.115.172-.43.258-.885.258-1.366 0-.481-.086-.937-.258-1.366a3.277 3.277 0 0 0-.728-1.115 3.494 3.494 0 0 0-1.128-.748 3.68 3.68 0 0 0-1.443-.277 3.68 3.68 0 0 0-1.444.277 3.493 3.493 0 0 0-1.127.748 3.28 3.28 0 0 0-.729 1.115c-.172.43-.257.885-.257 1.366 0 .48.085.936.257 1.366.172.43.415.801.729 1.115.313.313.689.562 1.127.747.438.185.92.277 1.444.277Zm.025-1.546c-.54 0-.99-.185-1.346-.554-.357-.37-.535-.838-.535-1.405 0-.567.178-1.036.535-1.405.356-.37.805-.554 1.346-.554.516 0 .95.184 1.302.554.352.37.528.838.528 1.405 0 .558-.176 1.024-.528 1.398-.352.374-.786.56-1.302.56Zm6.663 1.288v-4.24c.12-.206.299-.419.535-.638.236-.219.56-.328.973-.328.395 0 .707.127.935.38.227.253.341.595.341 1.024v3.802h1.663v-3.866c0-.481-.067-.902-.2-1.263a2.604 2.604 0 0 0-.541-.902 2.199 2.199 0 0 0-.8-.541 2.663 2.663 0 0 0-.985-.18c-.43 0-.802.074-1.115.225-.314.15-.582.333-.806.547v-.515h-1.636v6.495h1.636Zm7.94 0v-4.24c.12-.206.298-.419.534-.638.236-.219.56-.328.973-.328.395 0 .707.127.935.38.227.253.341.595.341 1.024v3.802h1.663v-3.866c0-.481-.067-.902-.2-1.263a2.604 2.604 0 0 0-.541-.902 2.199 2.199 0 0 0-.8-.541 2.663 2.663 0 0 0-.985-.18c-.43 0-.802.074-1.115.225-.314.15-.582.333-.806.547v-.515H78.95v6.495h1.636Zm9.446.258c.61 0 1.16-.118 1.65-.354a3.16 3.16 0 0 0 1.185-.96l-1.172-.928c-.172.232-.4.419-.683.56a2.103 2.103 0 0 1-.954.213c-.55 0-1.001-.15-1.353-.451-.353-.3-.555-.718-.606-1.25h4.55a4.469 4.469 0 0 0 .102-.928c0-.85-.274-1.549-.824-2.094-.55-.546-1.272-.819-2.166-.819-.532 0-1.005.093-1.417.277-.413.185-.76.436-1.044.754-.284.318-.5.69-.651 1.115a4.05 4.05 0 0 0-.226 1.36c0 .472.08.921.239 1.346.159.426.39.797.696 1.115.305.318.683.572 1.134.76.451.19.964.284 1.54.284Zm1.096-4.407h-2.926c.112-.421.3-.733.567-.935.266-.202.597-.303.992-.303.43 0 .763.127 1 .38.236.254.358.54.367.858Zm6.34 4.407c.593 0 1.124-.12 1.592-.36.468-.241.853-.56 1.153-.954l-1.301-.993a1.836 1.836 0 0 1-.6.548 1.654 1.654 0 0 1-.844.213c-.54 0-.99-.185-1.346-.554-.357-.37-.535-.838-.535-1.405 0-.567.176-1.036.528-1.405.352-.37.795-.554 1.328-.554.335 0 .625.07.87.212.244.142.444.325.599.548l1.301-.992a3.34 3.34 0 0 0-1.153-.954c-.468-.24-.999-.36-1.592-.36-.558 0-1.06.094-1.507.283a3.345 3.345 0 0 0-1.128.76 3.3 3.3 0 0 0-.703 1.115 3.727 3.727 0 0 0-.245 1.347c0 .472.082.921.245 1.346a3.3 3.3 0 0 0 .703 1.115c.305.318.68.572 1.127.76.447.19.95.284 1.508.284Zm6.779-.129c.267 0 .501-.017.703-.051.202-.035.384-.086.547-.155v-1.43a2.049 2.049 0 0 1-.399.103 3.525 3.525 0 0 1-.567.038c-.318 0-.569-.077-.754-.232-.185-.154-.277-.412-.277-.773v-2.629h1.985v-1.495h-1.985v-1.624h-1.65v1.624h-1.211v1.495h1.211v2.63c0 .79.198 1.404.593 1.842.395.438.997.657 1.804.657Z" fill="#ED1C24"/></g><defs><linearGradient id="b" x1=".02" y1="27.007" x2="47.45" y2="27.007" gradientUnits="userSpaceOnUse"><stop stop-color="#000091"/><stop offset=".489" stop-color="#844470"/><stop offset="1" stop-color="#E1000F"/></linearGradient><clipPath id="a"><path fill="#fff" d="M0 0h105.84v54H0z"/></clipPath></defs></svg>