<svg width="52" height="39" viewBox="0 0 52 39" fill="none" xmlns="http://www.w3.org/2000/svg">
<g clip-path="url(#clip0_608_13095)">
<path d="M0 0H52V39H0V0Z" fill="white"/>
<path d="M25.0088 32.3867C25.0025 32.3823 24.997 32.3768 24.9926 32.3705H24.9845L24.8788 32.2567L24.5701 31.8911L24.172 31.3792L24.1232 31.3061L23.6195 31.1517L23.2457 30.9811L23.4407 30.7617L24.1232 31.0461L24.627 31.1517L25.5613 31.8424L25.2932 32.078C25.1978 32.1669 25.1082 32.2619 25.0251 32.3624L25.082 32.3217L25.147 32.3705L25.017 32.3867H25.0088ZM21.5476 31.3467C21.0895 31.3427 20.6407 31.2164 20.2476 30.9811C20.2476 30.9811 20.3045 30.8755 20.4345 30.7861C20.5645 30.6886 20.792 30.583 21.1657 30.5749C21.6045 30.5749 22.1407 30.7292 22.7501 31.0136C22.386 31.2286 21.9704 31.3409 21.5476 31.3386V31.3467ZM19.6382 30.9242C19.557 30.9242 19.4757 30.8917 19.427 30.843C19.3809 30.7868 19.3501 30.7196 19.3376 30.648C19.316 30.5576 19.3078 30.4645 19.3132 30.3717C19.3471 30.3597 19.3829 30.3542 19.4188 30.3555C19.5813 30.3555 19.7113 30.4936 19.7682 30.6317C19.8007 30.713 19.8088 30.778 19.7845 30.8349C19.7682 30.8836 19.7032 30.9161 19.6382 30.9161V30.9242ZM22.9938 30.5342C21.8645 30.3717 21.3851 29.9655 21.182 29.6486C20.9707 29.3155 21.0195 28.9986 21.0195 28.9986C21.0195 28.9986 21.0845 28.9824 21.182 28.9824C21.4907 28.9824 22.2545 29.1367 22.9938 30.5261V30.5342ZM20.6782 30.3067C20.1988 30.3067 19.8332 30.2255 19.5895 30.063C19.4853 29.9975 19.401 29.9048 19.3457 29.7949C19.3283 29.7535 19.3173 29.7096 19.3132 29.6649C19.4985 29.5876 19.6975 29.5489 19.8982 29.5511C20.1882 29.5615 20.4733 29.6294 20.7369 29.7507C21.0004 29.872 21.2374 30.0445 21.4338 30.258C21.1576 30.2905 20.9057 30.3067 20.6782 30.3067ZM18.3463 30.2255C17.8426 30.2255 17.1438 30.063 16.7051 29.6324C16.7051 29.6324 17.1845 29.5105 17.7126 29.4942H17.8101C18.2895 29.4942 18.6551 29.5836 18.8988 29.7705C18.9801 29.8355 19.0288 29.8924 19.037 29.9492C19.0451 29.998 19.0207 30.0467 18.972 30.0874C18.8582 30.1686 18.6632 30.2174 18.387 30.2174H18.3463V30.2255ZM16.697 29.3724C16.6655 29.3718 16.6346 29.3642 16.6065 29.3501C16.5784 29.336 16.5538 29.3159 16.5345 29.2911C16.5005 29.2427 16.4783 29.1871 16.4695 29.1286C16.4451 29.0149 16.4532 28.9011 16.4532 28.893C16.4788 28.8818 16.5065 28.8763 16.5345 28.8767C16.6076 28.8767 16.6645 28.9174 16.697 28.958C16.7464 29.0031 16.7852 29.0586 16.8107 29.1205C16.827 29.1936 16.8351 29.2505 16.8107 29.2992C16.8107 29.3317 16.762 29.3805 16.7051 29.3805L16.697 29.3724ZM20.5076 29.2911C20.4263 29.2911 20.3451 29.2586 20.2963 29.2099C20.2503 29.1536 20.2195 29.0865 20.207 29.0149C20.1854 28.9245 20.1772 28.8314 20.1826 28.7386C20.2165 28.7266 20.2523 28.7211 20.2882 28.7224C20.4507 28.7224 20.5888 28.8605 20.6376 28.9986C20.6701 29.0799 20.6782 29.1449 20.662 29.2017C20.6376 29.2505 20.5807 29.283 20.4995 29.283L20.5076 29.2911ZM18.6551 29.2099C17.6313 29.1774 17.0951 28.8849 16.8351 28.6411C16.7218 28.5431 16.628 28.4246 16.5588 28.2917C16.5182 28.2105 16.502 28.1455 16.502 28.1292C16.502 28.113 16.5995 28.0967 16.7457 28.0967H16.7782C17.1195 28.0967 17.8263 28.243 18.647 29.2099H18.6551ZM19.7601 29.1124C19.1753 29.0488 18.6316 28.7813 18.2245 28.3567C18.0746 28.1928 17.9611 27.9989 17.8913 27.788C17.8913 27.788 17.9888 27.7636 18.1351 27.7555C18.1622 27.7545 18.1893 27.7545 18.2163 27.7555C18.6226 27.7636 19.3782 27.9505 19.7601 29.1124ZM15.5351 28.7061C15.2755 28.7085 15.0166 28.6812 14.7632 28.6249C14.3326 28.5111 14.1457 28.3486 14.0645 28.2267C14.0313 28.1779 14.0091 28.1225 13.9995 28.0642C13.9969 28.0426 13.9969 28.0208 13.9995 27.9992C13.9995 27.9992 14.2838 27.918 14.682 27.9099C14.8835 27.9048 15.0851 27.9211 15.2832 27.9586C15.6977 28.0459 16.0669 28.2796 16.3232 28.6167C16.3232 28.6167 15.9982 28.7142 15.5351 28.7142V28.7061ZM17.4445 28.0236C17.4069 28.0246 17.3694 28.0179 17.3345 28.004C17.2996 27.99 17.2679 27.969 17.2413 27.9424C17.1953 27.8861 17.1645 27.819 17.152 27.7474C17.1195 27.6174 17.1276 27.4874 17.1276 27.4711C17.1584 27.4573 17.1914 27.449 17.2251 27.4467H17.2332C17.3957 27.4467 17.5257 27.593 17.5826 27.7311C17.6151 27.8124 17.6151 27.8774 17.5988 27.9261C17.5745 27.983 17.5176 28.0155 17.4445 28.0155V28.0236ZM16.0145 27.8205C15.7402 27.7427 15.4777 27.6279 15.2345 27.4792C14.877 27.2599 14.4301 26.8699 14.3813 26.2605L14.4626 26.2524H14.487C14.5926 26.2524 14.812 26.2767 15.0801 26.4799C15.4213 26.7399 15.7301 27.1949 16.0145 27.8205ZM16.9488 27.788C16.7248 27.686 16.5168 27.5519 16.3313 27.3899C15.8558 26.9794 15.4853 26.4613 15.2507 25.8786C15.2507 25.8786 15.3238 25.838 15.4376 25.8299C15.443 25.8297 15.4484 25.8297 15.4538 25.8299H15.4863C15.6488 25.8299 15.8845 25.903 16.1445 26.1874C16.4532 26.5124 16.7213 27.0486 16.957 27.788H16.9488ZM14.5195 27.7149C14.2026 27.7149 14.097 27.5524 14.0645 27.4711C14.033 27.394 14.0218 27.3101 14.032 27.2274C14.0853 27.2155 14.1398 27.2101 14.1945 27.2111C14.2954 27.2079 14.3956 27.2283 14.4873 27.2706C14.579 27.3129 14.6595 27.376 14.7226 27.4549C14.7388 27.4874 14.7876 27.5686 14.747 27.6417C14.7145 27.6905 14.6413 27.723 14.5195 27.723V27.7149ZM13.8288 26.8374C13.5839 26.84 13.3392 26.821 13.0976 26.7805C12.8213 26.7317 12.667 26.4961 12.5776 26.3011C12.4963 26.098 12.4638 25.8949 12.4638 25.8949C13.3251 25.9192 13.7395 26.1711 13.9263 26.3824C14.0443 26.5038 14.1187 26.661 14.1376 26.8292C14.1376 26.8292 14.0076 26.8455 13.8288 26.8455V26.8374ZM14.7226 25.9436C14.6531 25.8548 14.5881 25.7626 14.5276 25.6674C14.422 25.5049 14.3326 25.3424 14.3326 25.2124C14.3326 25.0742 14.3001 24.8061 14.2838 24.6436L14.2351 24.278C14.2595 24.278 14.7713 24.473 14.7713 24.9605C14.7713 25.448 14.7226 25.9355 14.7226 25.9355V25.9436ZM14.0563 25.8949H14.0401C13.4827 25.7279 12.9749 25.4266 12.5613 25.0174C12.4232 24.8549 12.3338 24.5949 12.3095 24.2536C12.2932 24.0099 12.3095 23.8067 12.3095 23.7824C12.3386 23.7747 12.3688 23.7719 12.3988 23.7742C12.5126 23.7742 12.6426 23.823 12.8051 23.9367C12.9559 24.0436 13.0973 24.1632 13.2276 24.2942C13.4876 24.5542 13.6907 24.8142 13.6907 24.8142C13.7151 24.8467 13.8532 25.1149 13.9751 25.3749C14.0321 25.4943 14.0757 25.6196 14.1051 25.7486C14.1132 25.7974 14.1213 25.8299 14.1051 25.8624C14.1012 25.8758 14.0926 25.8874 14.0807 25.8949C14.07 25.8973 14.0589 25.8973 14.0482 25.8949H14.0563Z" fill="#435125"/>
<path d="M23.2294 32.3867C23.2358 32.3823 23.2413 32.3768 23.2457 32.3705H23.2538L23.3594 32.2567L23.6682 31.8911L24.0663 31.3792L24.1151 31.3061L24.6188 31.1517L24.9926 30.9811L24.7976 30.7617L24.1151 31.0461L23.6113 31.1517L22.6769 31.8424L22.9451 32.078C23.0405 32.1669 23.13 32.2619 23.2132 32.3624L23.1563 32.3217L23.0913 32.3705L23.2213 32.3867H23.2294ZM26.6907 31.3467C27.1488 31.3427 27.5976 31.2164 27.9907 30.9811C27.9907 30.9811 27.9338 30.8755 27.8038 30.7861C27.6738 30.6886 27.4463 30.583 27.0726 30.5749C26.6338 30.5749 26.0976 30.7292 25.4882 31.0136C25.8523 31.2286 26.2679 31.3409 26.6907 31.3386V31.3467ZM28.6001 30.9242C28.6813 30.9242 28.7626 30.8917 28.8113 30.843C28.8574 30.7868 28.8882 30.7196 28.9007 30.648C28.9223 30.5576 28.9305 30.4645 28.9251 30.3717C28.8912 30.3597 28.8554 30.3542 28.8194 30.3555C28.6569 30.3555 28.5269 30.4936 28.4701 30.6317C28.4376 30.713 28.4294 30.778 28.4538 30.8349C28.4701 30.8836 28.5351 30.9161 28.6001 30.9161V30.9242ZM25.2444 30.5342C26.3738 30.3717 26.8532 29.9655 27.0563 29.6486C27.2676 29.3155 27.2188 28.9986 27.2188 28.9986C27.2188 28.9986 27.1538 28.9824 27.0563 28.9824C26.7476 28.9824 25.9838 29.1367 25.2444 30.5261V30.5342ZM27.5601 30.3067C28.0394 30.3067 28.4051 30.2255 28.6488 30.063C28.753 29.9975 28.8373 29.9048 28.8926 29.7949C28.91 29.7535 28.921 29.7096 28.9251 29.6649C28.7398 29.5876 28.5408 29.5489 28.3401 29.5511C28.0501 29.5615 27.765 29.6294 27.5014 29.7507C27.2378 29.872 27.0009 30.0445 26.8044 30.258C27.0807 30.2905 27.3326 30.3067 27.5601 30.3067ZM29.8919 30.2255C30.3957 30.2255 31.0944 30.063 31.5332 29.6324C31.5332 29.6324 31.0538 29.5105 30.5257 29.4942H30.4282C29.9488 29.4942 29.5832 29.5836 29.3394 29.7705C29.2582 29.8355 29.2094 29.8924 29.2013 29.9492C29.1932 29.998 29.2176 30.0467 29.2663 30.0874C29.3801 30.1686 29.5751 30.2174 29.8513 30.2174H29.8919V30.2255ZM31.5413 29.3724C31.5727 29.3718 31.6036 29.3642 31.6317 29.3501C31.6599 29.336 31.6845 29.3159 31.7038 29.2911C31.7378 29.2427 31.76 29.1871 31.7688 29.1286C31.7932 29.0149 31.7851 28.9011 31.7851 28.893C31.7595 28.8818 31.7317 28.8763 31.7038 28.8767C31.6307 28.8767 31.5738 28.9174 31.5413 28.958C31.4919 29.0031 31.4531 29.0586 31.4276 29.1205C31.4113 29.1936 31.4032 29.2505 31.4276 29.2992C31.4276 29.3317 31.4763 29.3805 31.5332 29.3805L31.5413 29.3724ZM27.7307 29.2911C27.8119 29.2911 27.8932 29.2586 27.9419 29.2099C27.988 29.1536 28.0188 29.0865 28.0313 29.0149C28.0529 28.9245 28.0611 28.8314 28.0557 28.7386C28.0218 28.7266 27.986 28.7211 27.9501 28.7224C27.7876 28.7224 27.6494 28.8605 27.6007 28.9986C27.5682 29.0799 27.5601 29.1449 27.5763 29.2017C27.6007 29.2505 27.6576 29.283 27.7388 29.283L27.7307 29.2911ZM29.5832 29.2099C30.6069 29.1774 31.1432 28.8849 31.4032 28.6411C31.5165 28.5431 31.6102 28.4246 31.6794 28.2917C31.7201 28.2105 31.7363 28.1455 31.7363 28.1292C31.7363 28.113 31.6388 28.0967 31.4926 28.0967H31.4601C31.1188 28.0967 30.4119 28.243 29.5913 29.2099H29.5832ZM28.4782 29.1124C29.063 29.0488 29.6067 28.7813 30.0138 28.3567C30.1637 28.1928 30.2772 27.9989 30.3469 27.788C30.3469 27.788 30.2494 27.7636 30.1032 27.7555C30.0761 27.7545 30.049 27.7545 30.0219 27.7555C29.6157 27.7636 28.8601 27.9505 28.4782 29.1124ZM32.7032 28.7061C32.9627 28.7085 33.2217 28.6812 33.4751 28.6249C33.9057 28.5111 34.0926 28.3486 34.1738 28.2267C34.207 28.1779 34.2292 28.1225 34.2388 28.0642C34.2414 28.0426 34.2414 28.0208 34.2388 27.9992C34.2388 27.9992 33.9544 27.918 33.5563 27.9099C33.3547 27.9048 33.1532 27.9211 32.9551 27.9586C32.5406 28.0459 32.1714 28.2796 31.9151 28.6167C31.9151 28.6167 32.2401 28.7142 32.7032 28.7142V28.7061ZM30.7938 28.0236C30.8314 28.0246 30.8688 28.0179 30.9038 28.004C30.9387 27.99 30.9704 27.969 30.9969 27.9424C31.043 27.8861 31.0738 27.819 31.0863 27.7474C31.1188 27.6174 31.1107 27.4874 31.1107 27.4711C31.0799 27.4573 31.0469 27.449 31.0132 27.4467H31.0051C30.8426 27.4467 30.7126 27.593 30.6557 27.7311C30.6232 27.8124 30.6232 27.8774 30.6394 27.9261C30.6638 27.983 30.7207 28.0155 30.7938 28.0155V28.0236ZM32.2238 27.8205C32.4981 27.7427 32.7605 27.6279 33.0038 27.4792C33.3613 27.2599 33.8082 26.8699 33.8569 26.2605L33.7757 26.2524H33.7513C33.6457 26.2524 33.4263 26.2767 33.1582 26.4799C32.8169 26.7399 32.5082 27.1949 32.2238 27.8205ZM31.2894 27.788C31.5135 27.686 31.7215 27.5519 31.9069 27.3899C32.3824 26.9794 32.7529 26.4613 32.9876 25.8786C32.9876 25.8786 32.9144 25.838 32.8007 25.8299C32.7953 25.8297 32.7899 25.8297 32.7844 25.8299H32.7519C32.5894 25.8299 32.3538 25.903 32.0938 26.1874C31.7851 26.5124 31.5169 27.0486 31.2813 27.788H31.2894ZM33.7188 27.7149C34.0357 27.7149 34.1413 27.5524 34.1738 27.4711C34.2053 27.394 34.2165 27.3101 34.2063 27.2274C34.153 27.2155 34.0984 27.2101 34.0438 27.2111C33.9429 27.2079 33.8426 27.2283 33.751 27.2706C33.6593 27.3129 33.5787 27.376 33.5157 27.4549C33.4994 27.4874 33.4507 27.5686 33.4913 27.6417C33.5238 27.6905 33.5969 27.723 33.7188 27.723V27.7149ZM34.4094 26.8374C34.6544 26.84 34.8991 26.821 35.1407 26.7805C35.4169 26.7317 35.5713 26.4961 35.6607 26.3011C35.7419 26.098 35.7744 25.8949 35.7744 25.8949C34.9132 25.9192 34.4988 26.1711 34.3119 26.3824C34.1939 26.5038 34.1196 26.661 34.1007 26.8292C34.1007 26.8292 34.2307 26.8455 34.4094 26.8455V26.8374ZM33.5157 25.9436C33.5851 25.8548 33.6502 25.7626 33.7107 25.6674C33.8163 25.5049 33.9057 25.3424 33.9057 25.2124C33.9057 25.0742 33.9382 24.8061 33.9544 24.6436L34.0032 24.278C33.9788 24.278 33.4669 24.473 33.4669 24.9605C33.4669 25.448 33.5157 25.9355 33.5157 25.9355V25.9436ZM34.1819 25.8949H34.1982C34.7556 25.7279 35.2634 25.4266 35.6769 25.0174C35.8151 24.8549 35.9044 24.5949 35.9288 24.2536C35.9451 24.0099 35.9288 23.8067 35.9288 23.7824C35.8997 23.7747 35.8695 23.7719 35.8394 23.7742C35.7257 23.7742 35.5957 23.823 35.4332 23.9367C35.2823 24.0436 35.141 24.1632 35.0107 24.2942C34.7507 24.5542 34.5476 24.8142 34.5476 24.8142C34.5232 24.8467 34.3851 25.1149 34.2632 25.3749C34.2062 25.4943 34.1626 25.6196 34.1332 25.7486C34.1251 25.7974 34.1169 25.8299 34.1332 25.8624C34.137 25.8758 34.1457 25.8874 34.1576 25.8949C34.1683 25.8973 34.1794 25.8973 34.1901 25.8949H34.1819Z" fill="#435125"/>
<path d="M42.1687 6.20703L42.0224 6.26391L41.9574 6.28828L41.7787 6.28016L41.5999 6.36141L41.2912 6.57266L41.2831 6.58078L41.1612 6.61328L41.0556 6.56453L40.9987 6.59703L40.9743 6.71891L40.9174 6.80828L40.8443 6.85703L40.6006 6.88141L40.3974 6.99516L40.1212 6.91391L39.9993 6.97078L39.7312 7.21453L39.5931 7.27141H39.5524L39.3656 7.26328L39.2924 7.28766L39.1787 7.39328L38.9674 7.40953L38.8943 7.45828L38.7887 7.66953L38.6749 7.79953L38.6099 7.80766L38.5449 7.78328L38.4881 7.79141L38.4637 7.92953L38.4149 7.98641L38.2687 8.03516L38.1549 8.13266L38.0493 8.18141H37.8868L37.7487 8.26266L37.4968 8.27891L37.3912 8.37641L37.3668 8.40078L37.3181 8.42516L37.2368 8.47391L37.2206 8.49016L37.1231 8.47391L37.0093 8.51453L36.9606 8.44953L36.8793 8.49016L36.7818 8.49828L36.6518 8.44141L36.5462 8.39266L36.4731 8.40891L36.4487 8.53078V8.54703L36.3674 8.64453L36.2293 8.73391L36.2131 8.75828L36.0506 8.96953L35.7418 9.29453L35.4818 9.42453L35.2137 9.50578L35.0268 9.66016L34.5393 9.90391L33.7512 10.2939L33.5887 10.3427L33.3612 10.3752L32.9549 10.5295L32.5974 10.6352L32.5731 10.6433L32.5081 10.6677L31.9962 10.822L31.7606 10.7895L31.6224 10.8464L31.2568 10.8058H31.0049L30.8424 10.8383L30.5418 10.9845L30.0299 11.2283L29.8674 11.3908L29.6074 11.5208L29.2987 11.6183V11.4883L29.1931 11.5208L29.1118 11.5452L28.8681 11.5777H28.7299L28.6406 11.5533H28.6243L28.1206 11.7239L27.5518 11.7808L27.2674 11.8702H27.0562L26.9262 11.9108L26.6662 11.9433L26.5687 11.9189L26.5524 11.9108L25.7887 11.9433L25.4393 11.9027L25.2768 11.9433L24.9924 11.8458L24.5862 11.797L24.4887 11.7727L24.2774 11.7077L24.1799 11.7645L24.0987 11.7727L23.9362 11.7077H23.8712L23.7249 11.7564L23.6437 11.7402L23.5624 11.6752L23.3918 11.6508L23.2781 11.5614L22.6687 11.6427L22.5062 11.5939L21.9456 11.4314H21.8643L21.7506 11.5127L21.5881 11.5777L21.4337 11.6102L21.2387 11.6183L21.0112 11.5614L20.7837 11.4477L20.6943 11.4233L20.4993 11.4477H20.4424L20.0849 11.2608L19.6299 10.9764L19.3212 10.822L19.1993 10.8058L19.1831 10.8627L19.2399 11.0414L19.2643 11.2283V11.3908L19.2562 11.4964L19.2806 11.5858L19.3943 11.7158L19.4431 11.8377L19.4756 12.1789V12.5283L19.4187 13.0808L19.4024 13.162L19.3374 13.4545L19.2806 13.7227L19.0449 14.4295L18.9881 14.5108L18.8256 14.6164L18.4762 14.8602L18.2162 15.0064L18.1349 15.0389L17.9237 15.0552H17.7937L17.6312 14.9658L17.4687 14.9252L17.2574 14.7708L17.0299 14.722L16.7699 14.5758L16.7049 14.4945L16.5668 14.4783L16.3718 14.4214L16.2987 14.397L16.2499 14.3889L16.0062 14.3808L15.7706 14.2752L15.6487 14.2427H15.4862L15.3156 14.3239L15.2262 14.3564L15.1124 14.3158H15.0312L14.9499 14.4539L14.9337 14.4783L14.8687 14.5108H14.7306L14.6656 14.5352L14.5762 14.5758L14.4949 14.6083L14.4543 14.6245H14.4299L14.3893 14.6408H14.3406L14.2431 14.592L14.1943 14.5677L14.1131 14.5514L14.0724 14.5758L14.0643 14.7302L14.0237 14.8195L13.8937 14.9333L13.7637 15.047L13.6824 15.177L13.4387 15.7214L13.2843 15.9408L13.2437 15.9977L13.0812 16.1683L12.9431 16.2739L12.6262 16.5177L12.3256 16.6395L12.0656 16.6883H11.9356L11.6918 16.6558L11.4806 16.5908L11.2368 16.4445L10.9849 16.2333L10.6031 15.8677L10.5543 15.8352L10.5381 15.827L10.4243 15.7458H10.3349L10.3024 15.8108L10.2781 15.892L10.2618 15.9652L10.2212 16.3714V16.3958L10.2456 16.5664L10.5381 16.9727L10.6193 17.1839L10.6356 17.2083L10.6924 17.3058L10.7412 17.387L10.8468 17.6795L10.7737 17.842L10.8062 17.9558L10.7249 18.0208L10.7087 18.1183L10.9606 18.4433L11.0174 18.5814L10.9606 18.7764L10.8549 18.8902L10.8306 18.9145L10.8468 18.9958L10.9606 19.1095L11.1637 19.2883L11.2693 19.5483L11.3506 19.6295L11.4481 19.6052L11.4968 19.6458H11.5781L11.6593 19.727L11.7081 19.7433L11.7893 19.7839L11.8543 19.8652L11.8624 20.1252L11.9843 20.4339V20.637L12.0656 20.7589L12.0818 20.8564L12.0412 21.1245L12.1387 21.2058L12.2362 21.1895L12.3012 21.1977L12.4068 21.287L12.5368 21.482L12.6668 21.4658L12.7481 21.4983L13.1299 21.8477L13.2112 21.8964L13.2843 21.9289L13.3656 22.0102L13.4793 21.9289H13.4956L13.6256 21.9127L13.6824 21.9533L13.7962 22.0264H13.9343L14.2593 22.1239L14.3893 22.1564L14.6656 22.327L14.7874 22.4002L14.8524 22.457L14.9499 22.5383L15.1287 22.6195L15.2912 22.652L15.3724 22.6683L15.4456 22.6927L15.7868 22.8308L15.9737 22.8714L16.1362 22.9364L16.2662 22.977H16.3637L16.4937 22.8714H16.6156L16.7212 22.8877L16.8268 22.8714L16.9893 22.7739L17.0137 22.7252L17.1274 22.6764L17.5174 22.6277L17.6312 22.6602L17.9237 22.5383L18.1187 22.587L18.2812 22.5302L18.6631 22.6114L18.7606 22.6845L18.8743 22.8064H19.0124L18.9556 22.8958L19.1181 23.0745L19.2724 23.2939L19.2806 23.3264L19.3862 23.6433L19.4674 23.757L19.5243 23.9114V24.0089L19.4431 24.082L19.4268 24.1145V24.1308L19.4431 24.1714L19.4756 24.1552L19.5324 24.1227L19.6137 24.1064L19.7437 24.1227L19.8331 24.1308L19.9712 24.0658L20.0687 24.017L20.2149 24.082H20.3774L20.4506 24.1064L20.6456 24.1958L20.7431 24.2039L20.7756 24.1795L20.7999 24.1308L20.7918 24.0658L20.7106 23.9764L20.5481 23.7814L20.4831 23.6839L20.4343 23.5458L20.4181 23.367L20.4018 23.2452L20.4262 23.0827L20.4668 23.0258L20.4993 22.8958L20.5074 22.8633L20.6049 22.7414L20.8487 22.5789L21.1087 22.3514L21.3118 22.2133L21.5231 22.1239V22.0995L21.5556 22.1077L22.0918 21.9208L22.3356 21.8802L23.9606 21.9939L24.0174 21.9777L24.0743 21.8233L24.0987 21.7989L24.1231 21.7827L24.3018 21.7014L24.3831 21.6852L24.6106 21.742L24.7081 21.7664L24.8624 21.6852H24.9681L25.1874 21.5633H25.3256L25.3824 21.547L25.6506 21.352L25.9024 21.2789L25.9674 21.2464L25.9918 21.2302L26.2599 21.092L26.4224 20.962L26.5687 20.8808L26.7312 20.8483L27.1374 20.8158L27.2268 20.6777L27.4056 20.6533L27.5112 20.5314L27.6331 20.4827L27.7224 20.3527L27.8037 20.247L27.9012 20.1902L28.2343 20.1658L28.6243 20.2145L28.6812 20.182L28.7624 19.8652L28.8599 19.8083L29.1037 19.4427V19.3127L29.1118 19.1989L29.1524 19.0364L29.1281 18.7602L29.1606 18.4677L29.3149 18.102L29.4531 17.9558L29.6724 17.8014L29.7862 17.7527L29.9487 17.7283H29.9649L30.0056 17.712H30.7531L30.9399 17.7039L31.4031 17.7852H31.4356L31.5899 17.842L31.7687 17.9802L31.9637 18.167L31.9962 18.1995L32.1181 18.2564L32.1587 18.2727L32.2562 18.2564L32.4024 18.1752L32.5162 18.0939L32.6624 18.0127V17.9964L32.7518 17.8745L32.7843 17.8177L33.0768 17.7039L33.4181 17.6877L33.4587 17.6633H33.4749L33.5643 17.5495H33.6456L33.8568 17.6308L33.9949 17.5983L34.1087 17.6389L34.1981 17.6308L34.3606 17.6064L34.5474 17.7364L34.6531 17.7527L35.0187 17.9639H35.0512L35.0674 17.972L35.1081 17.9558L35.1731 17.9395H35.1812L35.1893 17.9477L35.2381 18.0045L35.2949 18.0127L35.3599 17.9314L35.3356 17.8827L35.3274 17.8664L35.1893 17.842L35.0756 17.6389L35.1893 17.517L35.0106 17.3058L34.9781 17.2652V17.257L34.9131 17.1595L34.6043 16.6883L34.1981 16.3633L34.0599 16.2577L34.0112 16.217L33.7918 15.9977L33.6374 15.7945L33.6212 15.7539L33.5887 15.6808L33.4993 15.4858L33.3368 15.3639L33.2068 15.2177L32.9306 14.8439L32.8899 14.787L32.8249 14.7464H32.6868L32.6787 14.7302H32.6706V14.722L32.7356 14.657L32.8168 14.6408L32.8412 14.5677L32.7031 14.1695V14.1533L32.6949 14.0314L32.8006 13.4545L32.8168 13.3814L33.0118 12.9995L33.1256 12.902L33.2556 12.6502L33.3693 12.4877L33.4749 12.382L33.4912 12.3739L33.6781 12.2602L33.8406 12.2358L33.9949 12.2114L34.2631 12.2927H34.5068L34.5637 12.2845L34.6774 12.2683L34.8643 12.2114L34.9537 12.1545L35.0024 12.0895L35.0999 11.7645L35.1324 11.6589L35.1893 11.5452L35.5387 11.147L35.7987 10.9033L36.3837 10.4808L36.6681 10.3102L36.8143 10.2208L38.1224 9.63578L38.4637 9.29453L38.6424 9.11578L38.9512 8.90453L39.3168 8.75016L39.6418 8.50641L39.7068 8.41703L39.7881 8.13266L39.8693 8.11641L39.9262 7.97828L39.9506 7.93766L40.2024 7.75891L40.2349 7.74266L41.2343 7.23891L41.3806 7.26328L41.4618 7.14141L41.7462 7.09266H41.8031L41.8762 7.05203L41.9331 6.94641V6.92203L41.9412 6.64578L42.0062 6.57266L42.0387 6.39391L42.0712 6.34516L42.1037 6.30453L42.1849 6.24766L42.1687 6.21516V6.20703Z" fill="#D47600"/>
</g>
<rect x="0.25" y="0.25" width="51.5" height="38.5" stroke="#D0D0D0" stroke-width="0.5"/>
<defs>
<clipPath id="clip0_608_13095">
<rect width="52" height="39" fill="white"/>
</clipPath>
</defs>
</svg>
