<?xml version="1.0" encoding="UTF-8"?>
<svg width="50px" height="30px" viewBox="0 0 50 30" version="1.1" xmlns="http://www.w3.org/2000/svg" xmlns:xlink="http://www.w3.org/1999/xlink">
    <title>flag/cyprus@</title>
    <g id="FranceConnect+" stroke="none" stroke-width="1" fill="none" fill-rule="evenodd">
        <g id="flag/cyprus" fill-rule="nonzero">
            <rect id="Rectangle" fill="#FFFFFF" x="0" y="0" width="49.7512438" height="30"></rect>
            <path d="M13.3167496,18.485 C13.2835821,18.485 13.2504146,18.49 13.222775,18.5 L13.1896075,18.51 L13.1840796,18.54 C13.1840796,18.54 13.1619679,18.705 13.1785517,18.91 C13.1951354,19.115 13.2448867,19.36 13.4051962,19.525 C13.5599779,19.685 13.814262,19.845 14.0630182,19.975 C14.3117745,20.105 14.5494748,20.2 14.6932007,20.22 C14.7153123,20.225 14.7429519,20.22 14.7650636,20.21 C14.7871752,20.2 14.803759,20.18 14.8148148,20.16 C14.8313986,20.12 14.8258706,20.085 14.8203427,20.045 C14.803759,19.96 14.7595357,19.855 14.7042565,19.745 C14.5992261,19.53 14.4610282,19.31 14.4610282,19.31 L14.4610282,19.305 L14.4555003,19.3 C14.4555003,19.3 14.278607,19.1 14.0519624,18.895 C13.9358762,18.795 13.8087341,18.69 13.68712,18.615 C13.5655058,18.54 13.4383637,18.485 13.3167496,18.485 Z" id="Path" fill="#435024"></path>
            <path d="M33.2393588,18.485 C33.1177446,18.485 32.9961305,18.545 32.8689884,18.625 C32.7418463,18.705 32.6147043,18.805 32.5041459,18.905 C32.2775014,19.11 32.1006081,19.31 32.1006081,19.31 L32.0950802,19.315 L32.0950802,19.32 C32.0950802,19.32 31.9568823,19.54 31.8518519,19.755 C31.7965727,19.865 31.7523494,19.97 31.7357656,20.055 C31.7247098,20.095 31.7247098,20.135 31.7412935,20.17 C31.7523494,20.19 31.7689331,20.21 31.7910448,20.22 C31.8131564,20.23 31.840796,20.23 31.8629077,20.23 C32.0066335,20.21 32.2443339,20.11 32.4930901,19.985 C32.7418463,19.86 32.9961305,19.695 33.1509121,19.535 C33.3112217,19.37 33.3609729,19.125 33.3775567,18.92 C33.3941404,18.715 33.3720287,18.55 33.3720287,18.55 L33.3665008,18.52 L33.3333333,18.51 C33.3056938,18.49 33.2725263,18.485 33.2393588,18.485 Z" id="Path" fill="#435024"></path>
            <path d="M14.803759,18.845 L14.8148148,18.925 C14.8148148,18.925 14.8369265,19.055 14.8590381,19.215 C14.8811498,19.375 14.9032615,19.55 14.9032615,19.64 C14.9032615,19.76 14.9917081,19.9 15.0801548,20.02 C15.1630735,20.14 15.2515202,20.235 15.2515202,20.235 L15.3344389,20.33 L15.3510227,20.21 C15.3510227,20.21 15.395246,19.83 15.395246,19.45 C15.395246,19.035 14.8977336,18.875 14.8977336,18.875 L14.803759,18.845 Z" id="Path" fill="#435024"></path>
            <path d="M31.7578773,18.845 L31.6694306,18.875 C31.6694306,18.875 31.1719182,19.035 31.1719182,19.45 C31.1719182,19.83 31.2161415,20.21 31.2161415,20.21 L31.2327253,20.33 L31.315644,20.235 C31.315644,20.235 31.3985627,20.14 31.4870094,20.02 C31.5699281,19.9 31.6639027,19.76 31.6639027,19.64 C31.6639027,19.55 31.6860144,19.37 31.708126,19.215 C31.7302377,19.06 31.7523494,18.925 31.7523494,18.925 L31.7578773,18.845 Z" id="Path" fill="#435024"></path>
            <path d="M15.8872305,20.07 C15.7766722,20.075 15.7048093,20.11 15.7048093,20.11 L15.660586,20.13 L15.6771697,20.17 C15.9480376,20.755 16.318408,21.13 16.6169154,21.355 C16.9154229,21.585 17.1586512,21.67 17.1586512,21.67 L17.2636816,21.71 L17.2305141,21.61 C17.0038695,20.96 16.7606412,20.58 16.5339967,20.36 C16.3073521,20.14 16.0917634,20.075 15.9369818,20.07 C15.920398,20.07 15.9038143,20.07 15.8872305,20.07 Z" id="Path" fill="#435024"></path>
            <path d="M30.6191266,20.07 C30.4643449,20.075 30.2487562,20.135 30.0221117,20.36 C29.7954671,20.585 29.5467109,20.965 29.3255943,21.61 L29.2924268,21.71 L29.3974572,21.67 C29.3974572,21.67 29.6351575,21.585 29.9391929,21.355 C30.2377004,21.125 30.6080708,20.75 30.8789386,20.17 L30.8955224,20.13 L30.8512991,20.11 C30.8512991,20.11 30.7794362,20.075 30.6688778,20.07 C30.6522941,20.07 30.6357103,20.07 30.6191266,20.07 Z" id="Path" fill="#435024"></path>
            <path d="M13.3056938,20.115 L13.3112217,20.175 C13.3112217,20.175 13.3333333,20.335 13.4162521,20.5 C13.4991708,20.665 13.6428966,20.855 13.9027087,20.895 C14.3725815,20.97 14.7982311,20.935 14.7982311,20.935 L14.8479823,20.93 L14.8479823,20.885 C14.8479823,20.885 14.8479823,20.69 14.6545053,20.505 C14.4610282,20.32 14.0906578,20.135 13.3720287,20.115 L13.3056938,20.115 Z" id="Path" fill="#435024"></path>
            <path d="M33.2559425,20.115 L33.1896075,20.115 C32.4709784,20.135 32.0950802,20.315 31.907131,20.505 C31.7191819,20.695 31.713654,20.885 31.713654,20.885 L31.713654,20.93 L31.7634052,20.935 C31.7634052,20.935 32.1890547,20.975 32.6589276,20.895 C32.9132117,20.855 33.0624655,20.665 33.1453842,20.5 C33.2283029,20.335 33.2504146,20.175 33.2504146,20.175 L33.2559425,20.115 Z" id="Path" fill="#435024"></path>
            <path d="M15.063571,20.39 C15.0138198,20.39 14.9806523,20.4 14.9806523,20.4 L14.936429,20.41 L14.9419569,20.45 C14.9861802,20.925 15.3510227,21.24 15.6937535,21.43 C16.0364842,21.62 16.3736871,21.695 16.3736871,21.695 L16.4842454,21.72 L16.4400221,21.625 C16.1636263,21.055 15.8761747,20.745 15.6274185,20.575 C15.3786622,20.41 15.1741294,20.385 15.063571,20.39 Z" id="Path" fill="#435024"></path>
            <path d="M31.448314,20.39 C31.3322278,20.395 31.1498065,20.43 30.9342178,20.58 C30.6909895,20.75 30.4035379,21.06 30.1216142,21.63 L30.0773908,21.725 L30.1879491,21.7 C30.1879491,21.7 30.5196241,21.625 30.8678828,21.435 C31.2106136,21.245 31.5754561,20.93 31.6196794,20.455 L31.6252073,20.415 L31.580984,20.405 C31.580984,20.405 31.5478165,20.395 31.4980652,20.395 C31.4814815,20.39 31.4648977,20.39 31.448314,20.39 Z" id="Path" fill="#435024"></path>
            <path d="M14.8313986,21.13 C14.7871752,21.13 14.737424,21.135 14.6876727,21.145 L14.6489773,21.155 L14.6434494,21.19 C14.6434494,21.19 14.6268657,21.295 14.6766169,21.405 C14.7263682,21.515 14.8590381,21.62 15.1133223,21.62 C15.2294085,21.62 15.3123273,21.595 15.3565506,21.535 C15.4007739,21.475 15.3786622,21.405 15.3344389,21.345 C15.2459923,21.23 15.0580431,21.13 14.8313986,21.13 Z" id="Path" fill="#435024"></path>
            <path d="M31.7302377,21.13 C31.5035931,21.125 31.315644,21.23 31.2271973,21.345 C31.182974,21.405 31.1663903,21.475 31.2050857,21.535 C31.2437811,21.595 31.3322278,21.62 31.448314,21.62 C31.7025981,21.62 31.8297402,21.51 31.8850193,21.405 C31.9402985,21.3 31.9181868,21.19 31.9181868,21.19 L31.9126589,21.155 L31.8739635,21.145 C31.8242123,21.135 31.774461,21.13 31.7302377,21.13 Z" id="Path" fill="#435024"></path>
            <path d="M17.4184632,21.315 C17.3852957,21.315 17.3466003,21.325 17.3134328,21.335 L17.2857933,21.345 L17.2802653,21.375 C17.2802653,21.375 17.2692095,21.485 17.302377,21.6 C17.3189608,21.66 17.3466003,21.72 17.3963516,21.765 C17.4461028,21.815 17.5179657,21.845 17.6119403,21.845 C17.700387,21.845 17.7667219,21.805 17.7943615,21.745 C17.8220011,21.685 17.8054174,21.62 17.7777778,21.555 C17.7169707,21.44 17.5843007,21.31 17.4184632,21.315 Z" id="Path" fill="#435024"></path>
            <path d="M29.1100055,21.315 C28.9552239,21.325 28.8391376,21.445 28.7893864,21.565 C28.7617468,21.63 28.750691,21.695 28.7728027,21.755 C28.7949143,21.815 28.8667772,21.855 28.9552239,21.855 C29.0491985,21.855 29.1210614,21.82 29.1708126,21.775 C29.2205638,21.725 29.2482034,21.665 29.2647872,21.61 C29.2979547,21.495 29.2868988,21.385 29.2868988,21.385 L29.2813709,21.355 L29.2537313,21.345 C29.2205638,21.33 29.1818684,21.325 29.1487009,21.325 C29.1321172,21.315 29.1210614,21.315 29.1100055,21.315 Z" id="Path" fill="#435024"></path>
            <path d="M18.1923715,21.55 C18.0541736,21.555 17.9657269,21.575 17.9657269,21.575 L17.9104478,21.59 L17.9270315,21.64 C17.9270315,21.64 17.9933665,21.86 18.225539,22.1 C18.4632394,22.34 18.8723051,22.6 19.5632946,22.695 L19.6517413,22.71 L19.6241017,22.63 C19.2924268,21.73 18.6346048,21.565 18.2531786,21.555 C18.2365948,21.55 18.2144831,21.55 18.1923715,21.55 Z" id="Path" fill="#435024"></path>
            <path d="M28.3029298,21.55 C27.9215036,21.555 27.2636816,21.725 26.9320066,22.625 L26.9043671,22.705 L26.9928137,22.69 C27.6838032,22.595 28.092869,22.335 28.3305694,22.095 C28.5682698,21.855 28.6290768,21.635 28.6290768,21.635 L28.6456606,21.585 L28.5903814,21.57 C28.5903814,21.57 28.5019348,21.55 28.3637369,21.545 C28.3471531,21.55 28.3250415,21.55 28.3029298,21.55 Z" id="Path" fill="#435024"></path>
            <path d="M15.2459923,21.665 C14.8977336,21.67 14.6489773,21.735 14.6489773,21.735 L14.6158098,21.745 L14.6102819,21.775 C14.6102819,21.775 14.604754,21.805 14.6102819,21.845 C14.6158098,21.885 14.6323936,21.935 14.6766169,21.99 C14.7595357,22.105 14.936429,22.23 15.3012714,22.31 C16.0254284,22.475 16.6611388,22.31 16.6611388,22.31 L16.7330017,22.29 L16.6887783,22.23 C16.6887783,22.23 16.379215,21.815 15.7656164,21.7 C15.5831951,21.675 15.4063018,21.665 15.2459923,21.665 Z" id="Path" fill="#435024"></path>
            <path d="M31.3101161,21.665 C31.1498065,21.665 30.9729132,21.675 30.7849641,21.705 C30.1713654,21.815 29.8618021,22.235 29.8618021,22.235 L29.8175788,22.295 L29.8894417,22.315 C29.8894417,22.315 30.525152,22.48 31.249309,22.315 C31.6141515,22.235 31.7910448,22.105 31.8739635,21.995 C31.9181868,21.94 31.9347706,21.885 31.9402985,21.85 C31.9458264,21.815 31.9402985,21.78 31.9402985,21.78 L31.9347706,21.75 L31.9016031,21.74 C31.907131,21.735 31.6583748,21.67 31.3101161,21.665 Z" id="Path" fill="#435024"></path>
            <path d="M17.0093975,21.815 C16.8656716,21.82 16.7716971,21.85 16.7716971,21.85 L16.7274737,21.865 L16.7330017,21.905 C16.7330017,21.905 16.7440575,21.96 16.7882808,22.04 C16.8325041,22.12 16.9043671,22.225 17.037037,22.33 C17.2968491,22.54 17.7667219,22.75 18.618021,22.775 L18.7451631,22.78 L18.6622443,22.69 C17.9491432,21.925 17.3355445,21.805 17.0093975,21.815 Z" id="Path" fill="#435024"></path>
            <path d="M29.4803759,21.815 C29.143173,21.825 28.5627418,21.975 27.8883361,22.69 L27.8054174,22.78 L27.9325594,22.775 C28.7838585,22.75 29.2592593,22.54 29.5135434,22.33 C29.6406855,22.225 29.7180763,22.12 29.7622996,22.04 C29.8065229,21.96 29.8175788,21.905 29.8175788,21.905 L29.8231067,21.865 L29.7788834,21.85 C29.7788834,21.85 29.6904367,21.82 29.541183,21.815 C29.5245992,21.81 29.5024876,21.81 29.4803759,21.815 Z" id="Path" fill="#435024"></path>
            <path d="M20.0165837,22.29 C19.9834163,22.29 19.9447208,22.3 19.9115533,22.31 L19.8839138,22.32 L19.8783858,22.35 C19.8783858,22.35 19.86733,22.46 19.9004975,22.58 C19.9170813,22.64 19.9447208,22.695 19.9944721,22.745 C20.0442233,22.795 20.1160862,22.83 20.2100608,22.83 C20.2985075,22.83 20.3648425,22.79 20.392482,22.73 C20.4145937,22.67 20.4035379,22.605 20.3758983,22.54 C20.3150912,22.415 20.1879491,22.285 20.0165837,22.29 Z" id="Path" fill="#435024"></path>
            <path d="M26.511885,22.29 C26.3571034,22.3 26.2410171,22.42 26.1912659,22.54 C26.1636263,22.605 26.1525705,22.67 26.1746821,22.73 C26.1967938,22.79 26.2686567,22.83 26.3571034,22.83 C26.4510779,22.83 26.5229409,22.795 26.5726921,22.745 C26.6224433,22.695 26.6500829,22.635 26.6666667,22.58 C26.6998342,22.465 26.6887783,22.35 26.6887783,22.35 L26.6832504,22.32 L26.6556108,22.31 C26.6224433,22.295 26.5837479,22.29 26.5505804,22.29 C26.5339967,22.29 26.5229409,22.29 26.511885,22.29 Z" id="Path" fill="#435024"></path>
            <path d="M16.8214483,22.415 C16.7938087,22.415 16.7606412,22.42 16.7330017,22.435 L16.7053621,22.45 L16.7053621,22.48 C16.7053621,22.48 16.6998342,22.575 16.7219458,22.68 C16.7330017,22.73 16.7551133,22.785 16.7938087,22.825 C16.8325041,22.865 16.8988391,22.9 16.97623,22.9 C17.0480929,22.9 17.1088999,22.855 17.1310116,22.805 C17.1531233,22.755 17.1420674,22.695 17.1199558,22.64 C17.0978441,22.585 17.0591487,22.53 17.0149254,22.49 C16.970702,22.45 16.8933112,22.41 16.8214483,22.415 Z" id="Path" fill="#435024"></path>
            <path d="M29.7401879,22.415 C29.668325,22.415 29.607518,22.445 29.5577667,22.485 C29.5080155,22.525 29.474848,22.58 29.4527363,22.635 C29.4306247,22.69 29.4250967,22.745 29.4416805,22.8 C29.4582642,22.855 29.5190713,22.895 29.5964621,22.895 C29.673853,22.895 29.73466,22.86 29.7788834,22.82 C29.8231067,22.78 29.8396904,22.725 29.8507463,22.675 C29.8783858,22.575 29.86733,22.475 29.86733,22.475 L29.86733,22.445 L29.8396904,22.43 C29.7954671,22.42 29.7678275,22.415 29.7401879,22.415 Z" id="Path" fill="#435024"></path>
            <path d="M20.7849641,22.495 C20.6854616,22.495 20.6191266,22.51 20.6191266,22.51 L20.5859591,22.52 L20.5804312,22.55 C20.5804312,22.55 20.5362078,22.805 20.7352128,23.085 C20.9342178,23.365 21.3709232,23.665 22.3106689,23.785 L22.4212272,23.8 L22.371476,23.71 C21.7412935,22.64 21.0834715,22.49 20.7849641,22.495 Z" id="Path" fill="#435024"></path>
            <path d="M25.7711443,22.495 C25.4726368,22.495 24.8148148,22.64 24.1846324,23.715 L24.1348811,23.805 L24.2454395,23.79 C25.1851852,23.67 25.6218905,23.365 25.8208955,23.09 C26.0199005,22.81 25.9756772,22.555 25.9756772,22.555 L25.9701493,22.525 L25.9369818,22.515 C25.9369818,22.51 25.8761747,22.495 25.7711443,22.495 Z" id="Path" fill="#435024"></path>
            <path d="M17.8330569,22.89 C17.368712,22.9 16.9596462,22.995 16.9596462,22.995 L16.8656716,23.015 L16.9320066,23.08 C17.3189608,23.43 17.9436153,23.555 18.4024323,23.55 C18.6346048,23.545 18.817026,23.515 18.9275843,23.44 C18.9828635,23.405 19.0215589,23.345 19.0049751,23.285 C18.9939193,23.225 18.944168,23.17 18.8612493,23.115 C18.5903814,22.92 18.1923715,22.88 17.8330569,22.89 Z" id="Path" fill="#435024"></path>
            <path d="M28.5903814,22.89 C28.2697623,22.895 27.9325594,22.945 27.6893311,23.11 C27.6119403,23.165 27.5621891,23.22 27.5456053,23.28 C27.5345495,23.34 27.567717,23.4 27.6229961,23.435 C27.7335544,23.51 27.9215036,23.545 28.1481481,23.545 C28.6069652,23.55 29.2316197,23.425 29.6185738,23.075 L29.6849088,23.01 L29.5909342,22.99 C29.5909342,22.99 29.1873964,22.895 28.7175235,22.885 C28.684356,22.885 28.6346048,22.885 28.5903814,22.89 Z" id="Path" fill="#435024"></path>
            <path d="M19.6849088,22.935 C19.6627971,22.935 19.6406855,22.935 19.6185738,22.935 C19.342178,22.945 19.1652847,23.025 19.1652847,23.025 L19.1321172,23.04 L19.1321172,23.075 C19.1321172,23.075 19.1376451,23.13 19.1708126,23.195 C19.2039801,23.26 19.2703151,23.345 19.3919292,23.42 C19.6351575,23.57 20.0995025,23.685 20.9950249,23.575 L21.1111111,23.56 L21.0281924,23.49 C20.5196241,23.04 20.0331675,22.93 19.6849088,22.935 Z" id="Path" fill="#435024"></path>
            <path d="M26.8767275,22.935 C26.5284688,22.935 26.0364842,23.045 25.5334439,23.49 L25.4505252,23.56 L25.5666114,23.575 C26.4621338,23.685 26.9264787,23.57 27.169707,23.42 C27.2913212,23.345 27.3576562,23.26 27.3908237,23.195 C27.4239912,23.13 27.4295191,23.075 27.4295191,23.075 L27.4295191,23.04 L27.3963516,23.025 C27.3963516,23.025 27.2194583,22.95 26.9430625,22.935 C26.9209508,22.935 26.8988391,22.935 26.8767275,22.935 Z" id="Path" fill="#435024"></path>
            <path d="M19.275843,23.545 C19.2426755,23.545 19.2039801,23.555 19.1708126,23.565 L19.143173,23.575 L19.1376451,23.605 C19.1376451,23.605 19.1265893,23.715 19.1597568,23.835 C19.1763405,23.895 19.2039801,23.95 19.2537313,24 C19.3034826,24.05 19.3753455,24.085 19.4693201,24.085 C19.5577667,24.085 19.6241017,24.045 19.6517413,23.985 C19.673853,23.925 19.6627971,23.86 19.6351575,23.795 C19.5743505,23.67 19.4472084,23.545 19.275843,23.545 Z" id="Path" fill="#435024"></path>
            <path d="M27.2526258,23.545 C27.0978441,23.555 26.9817579,23.675 26.9320066,23.795 C26.9043671,23.86 26.8933112,23.925 26.9154229,23.985 C26.9375345,24.045 27.0093975,24.085 27.0978441,24.085 C27.1918187,24.085 27.2636816,24.05 27.3134328,24 C27.3631841,23.95 27.3908237,23.89 27.4074074,23.835 C27.4405749,23.72 27.4295191,23.605 27.4295191,23.605 L27.4239912,23.575 L27.3963516,23.565 C27.3631841,23.55 27.3244887,23.545 27.2913212,23.545 C27.2692095,23.545 27.2636816,23.545 27.2526258,23.545 Z" id="Path" fill="#435024"></path>
            <path d="M20.7628524,23.72 C20.4477612,23.72 20.2432283,23.805 20.1160862,23.885 C19.9889442,23.965 19.9391929,24.06 19.9391929,24.06 L19.9170813,24.1 L19.9613046,24.125 C21.1663903,24.75 22.1448314,24.15 22.1448314,24.15 L22.2222222,24.1 L22.1337756,24.06 C21.5367606,23.805 21.0889994,23.72 20.7628524,23.72 Z" id="Path" fill="#435024"></path>
            <path d="M25.7987839,23.72 C25.4726368,23.72 25.0248756,23.805 24.4223328,24.065 L24.3338861,24.105 L24.4112769,24.155 C24.4112769,24.155 25.3897181,24.76 26.5948038,24.13 L26.6390271,24.105 L26.6169154,24.065 C26.6169154,24.065 26.5671642,23.975 26.4400221,23.89 C26.31288,23.805 26.1138751,23.72 25.7987839,23.72 Z" id="Path" fill="#435024"></path>
            <path d="M22.6865672,23.85 L22.6589276,23.875 L22.4930901,24.045 L22.4433389,24.095 L22.5096739,24.125 L22.7418463,24.22 L22.0232172,24.7 L21.9679381,24.74 L22.0232172,24.78 C22.0232172,24.78 22.1337756,24.865 22.2498618,24.96 C22.305141,25.005 22.365948,25.055 22.4046434,25.095 C22.4267551,25.115 22.4433389,25.135 22.4488668,25.145 C22.4543947,25.155 22.4599226,25.165 22.4599226,25.16 C22.4599226,25.165 22.4599226,25.17 22.4654505,25.175 C22.4709784,25.185 22.4820343,25.195 22.498618,25.2 C22.5262576,25.21 22.5428413,25.2 22.5483693,25.2 C22.564953,25.19 22.5704809,25.185 22.5870647,25.175 C22.6091763,25.155 22.6423438,25.125 22.6810392,25.09 C22.7529022,25.015 22.8468767,24.91 22.9408513,24.805 C23.1011609,24.625 23.2338308,24.465 23.2835821,24.41 C23.3333333,24.465 23.4660033,24.625 23.6263129,24.805 C23.7202875,24.91 23.814262,25.015 23.8861249,25.09 C23.9248203,25.125 23.9524599,25.155 23.9800995,25.175 C23.9911553,25.185 23.9966833,25.19 24.0187949,25.2 C24.0298507,25.205 24.0409066,25.21 24.0685462,25.2 C24.079602,25.195 24.0961857,25.185 24.1017137,25.175 C24.1072416,25.17 24.1072416,25.165 24.1072416,25.16 C24.1072416,25.16 24.1072416,25.155 24.1182974,25.145 C24.1293532,25.13 24.145937,25.115 24.1625207,25.095 C24.2012161,25.055 24.2620232,25.005 24.3173024,24.96 C24.4333886,24.865 24.5439469,24.78 24.5439469,24.78 L24.5992261,24.74 L24.5439469,24.7 L23.8253179,24.22 L24.0574903,24.125 L24.1238253,24.095 L24.0740741,24.045 L23.9082366,23.875 L23.880597,23.85 L23.8419016,23.865 L23.28911,24.08 L22.7363184,23.865 L22.6865672,23.85 Z" id="Path" fill="#435024"></path>
            <path d="M38.0818132,3.95 C38.0486457,3.95 38.0154782,3.955 37.9823107,3.965 C37.9159757,3.985 37.8441128,4.045 37.827529,4.125 C37.8164732,4.17 37.7114428,4.31 37.6064124,4.415 C37.5234936,4.5 37.4682145,4.54 37.4405749,4.565 C37.368712,4.545 37.2028745,4.505 36.9872858,4.485 C36.8546158,4.475 36.71089,4.47 36.5837479,4.5 C36.4566059,4.525 36.3294638,4.595 36.2852405,4.72 C36.2410171,4.84 36.0088447,5.07 35.787728,5.24 C35.5776672,5.405 35.395246,5.52 35.3786622,5.53 L34.6987286,5.64 L34.6545053,5.65 L34.6268657,5.685 L34.3615257,6.025 L33.7037037,6.095 L33.6318408,6.105 L33.6097291,6.165 C33.6097291,6.165 33.5710337,6.28 33.4991708,6.385 C33.4660033,6.44 33.42178,6.485 33.3775567,6.515 C33.3388612,6.545 33.3056938,6.555 33.2669983,6.55 C33.0956329,6.53 32.8524046,6.55 32.6478718,6.575 C32.4433389,6.6 32.2719735,6.63 32.2719735,6.63 L32.1448314,6.65 L32.1835268,6.76 C32.1835268,6.76 32.1835268,6.76 32.1835268,6.78 C32.1835268,6.8 32.1779989,6.835 32.1448314,6.88 C32.0784964,6.97 31.907131,7.11 31.4648977,7.24 C30.5693753,7.5 29.9834163,7.91 29.9226092,7.95 C29.4914317,7.88 29.2150359,7.875 29.0491985,7.895 C28.9607518,7.905 28.8999447,7.925 28.8612493,7.94 C28.8391376,7.95 28.8225539,7.955 28.8114981,7.965 C28.8004422,7.97 28.7838585,7.98 28.7838585,7.98 L28.7783306,7.985 L28.7728027,7.99 C28.7728027,7.99 28.6235489,8.165 28.3969044,8.335 C28.1702598,8.505 27.8717523,8.67 27.6064124,8.67 C27.2802653,8.67 27.0923162,8.735 26.970702,8.79 C26.8490879,8.845 26.7993367,8.88 26.6611388,8.86 C26.2907684,8.82 25.9977888,9.04 25.9480376,9.085 L23.9524599,9.01 C23.9358762,9.005 23.7589829,8.955 23.5378662,8.9 C23.3056938,8.845 23.0514096,8.785 22.8911001,8.785 C22.8081813,8.785 22.5870647,8.725 22.305141,8.66 C22.0232172,8.595 21.6639027,8.54 21.2548369,8.56 C20.9010503,8.575 20.39801,8.395 19.9889442,8.205 C19.5854063,8.015 19.275843,7.82 19.275843,7.82 L19.1210614,7.72 L19.1044776,7.895 L19.0215589,8.84 L19.016031,8.875 L19.0381426,8.905 L19.3919292,9.365 C19.3919292,9.415 19.3477059,10.06 19.0547264,10.6 C18.8999447,10.88 18.6898839,11.115 18.3858485,11.225 C18.0818132,11.335 17.6838032,11.32 17.1254837,11.065 C16.5395246,10.795 16.0585959,10.7 15.6661139,10.72 C15.2736318,10.74 14.9640685,10.885 14.737424,11.075 C14.2841349,11.455 14.1238253,12.02 14.0464345,12.215 C13.9082366,12.565 13.488115,12.635 13.4715312,12.64 C13.4328358,12.635 12.4875622,12.565 12.1006081,12.565 C12.0508568,12.565 11.9789939,12.535 11.907131,12.47 C11.8352681,12.405 11.7634052,12.31 11.6970702,12.215 C11.5699281,12.025 11.4870094,11.835 11.4870094,11.835 L11.2769486,11.885 L11.4427861,12.87 L11.4427861,12.875 L11.448314,12.88 L11.6583748,13.525 L11.6749585,13.57 L11.7247098,13.585 L12.1503593,13.745 L12.0729685,14.35 L12.0674406,14.38 L12.0840243,14.405 L12.2830293,14.76 L12.2830293,15.115 L12.2830293,15.2 L12.3770039,15.215 L12.830293,15.28 L12.8689884,15.88 L12.8689884,15.92 L12.896628,15.95 L13.1398563,16.17 L13.1453842,16.175 L13.9745716,17.04 L14.0077391,17.075 L14.0519624,17.075 L14.9640685,17.11 L15.3123273,17.49 L15.3344389,17.515 L15.3731343,17.525 L15.8595909,17.635 L16.2244334,17.82 L16.2299613,17.825 L16.2354892,17.825 C16.2354892,17.825 16.4289663,17.895 16.7164179,18.08 C16.7993367,18.13 16.8601437,18.16 16.9320066,18.165 C16.970702,18.165 17.0093975,18.16 17.042565,18.135 C17.0757324,18.115 17.0923162,18.085 17.103372,18.06 C17.1199558,18.02 17.1088999,17.995 17.1088999,17.97 L17.4295191,17.78 L17.435047,17.78 L17.827529,17.565 L18.2365948,17.53 L18.6069652,17.665 L19.2316197,18.19 L19.2316197,18.565 L19.2316197,18.565 C19.2316197,18.575 19.2205638,18.655 19.2316197,18.75 C19.2371476,18.8 19.2482034,18.855 19.275843,18.91 C19.3034826,18.965 19.3587617,19.02 19.4361526,19.04 C19.5964621,19.075 19.5467109,19.08 19.8783858,19.08 C20.0939746,19.08 20.2321725,18.955 20.3095633,18.84 C20.3814262,18.73 20.4090658,18.62 20.4090658,18.62 L20.4090658,18.61 L20.4090658,18.6 L20.4090658,18.045 C20.4201216,18.02 20.4919845,17.79 20.4919845,17.62 C20.4919845,17.61 20.4975124,17.605 20.5085683,17.585 C20.5196241,17.565 20.5527916,17.55 20.5804312,17.535 C20.6357103,17.505 20.6799337,17.49 20.6909895,17.49 C20.6909895,17.49 20.6965174,17.49 20.6965174,17.49 C20.6965174,17.49 20.7020453,17.49 20.7020453,17.49 C20.7131012,17.49 20.8181316,17.47 20.9508015,17.44 C21.0889994,17.405 21.249309,17.365 21.3653952,17.285 C21.514649,17.185 21.6583748,17.155 21.6583748,17.15 L22.172471,17.04 L22.7584301,17.18 L23.2061913,17.44 L23.3167496,17.505 L23.3665008,17.395 L23.4825871,17.155 L23.7258154,17 L24.3615257,16.965 L24.4112769,16.96 L24.4444444,16.925 L24.6766169,16.645 L25.1907131,16.47 L25.2072968,16.465 L25.2238806,16.45 L25.4836926,16.25 L25.986733,16.25 L26.0309563,16.25 L26.0641238,16.22 L26.2686567,16.035 L26.2741846,16.03 L26.6224433,15.75 L27.3410724,15.64 L27.4405749,15.625 L27.435047,15.535 C27.3963516,14.81 27.5345495,14.35 27.6838032,14.065 C27.8109453,13.82 27.9215036,13.73 27.9491432,13.71 L28.1978994,13.71 C28.1978994,13.71 28.3416252,13.71 28.485351,13.775 C28.551686,13.805 28.6235489,13.805 28.684356,13.79 C28.7451631,13.775 28.7838585,13.735 28.8114981,13.7 C28.8501935,13.655 28.8557214,13.635 28.8667772,13.61 L29.0049751,13.54 L29.016031,13.595 L29.0326147,13.655 L29.0989497,13.67 L29.541183,13.78 C29.5577667,13.79 29.86733,13.965 30.0718629,14.075 C30.1768933,14.13 30.2432283,14.18 30.3427308,14.19 C30.392482,14.195 30.4643449,14.17 30.4975124,14.125 C30.5306799,14.08 30.5306799,14.04 30.5306799,13.99 C30.5306799,13.95 30.5638474,13.86 30.6025428,13.79 C30.6412383,13.72 30.6799337,13.67 30.6799337,13.67 C30.6799337,13.67 30.6799337,13.67 30.6799337,13.67 L30.9673853,13.375 L31.5035931,13.41 L31.8131564,13.65 L31.8352681,13.67 L31.8684356,13.675 C31.8684356,13.675 32.1614151,13.715 32.3161968,13.75 C32.5317855,13.8 32.697623,13.7 32.697623,13.7 L32.7584301,13.66 L32.7418463,13.595 L32.6147043,13.065 L32.6091763,13.05 L32.5981205,13.035 L32.305141,12.58 L32.2940851,12.56 L32.2719735,12.545 L31.9292427,12.34 C31.9181868,12.285 31.8960752,12.195 31.8131564,12.05 C31.7025981,11.855 31.4870094,11.605 31.1000553,11.37 C30.9397457,11.275 30.856827,11.135 30.8236595,10.97 C30.790492,10.805 30.8070757,10.615 30.8457711,10.43 C30.923162,10.075 31.0889994,9.775 31.0945274,9.765 L31.3101161,9.535 L31.9458264,9.39 L32.4488668,9.275 L32.5152018,9.26 L32.5317855,9.2 L32.5981205,8.955 L32.830293,8.895 L32.8689884,8.885 L32.8911001,8.855 L33.0514096,8.635 L33.0569375,8.63 L33.0569375,8.63 L33.3443892,8.295 L33.3499171,8.29 L33.355445,8.285 L33.6926479,7.775 L33.8695412,7.805 L33.9358762,7.815 L33.9745716,7.765 L34.3117745,7.355 L34.8369265,7.39 L34.8977336,7.395 L34.9309011,7.355 L35.2128248,7.025 L35.6163626,6.77 L35.6329464,6.76 L35.6440022,6.745 L35.7766722,6.56 L36.1359867,6.56 L36.1636263,6.56 L36.185738,6.55 L36.3515755,6.475 L36.379215,6.46 L36.3957988,6.435 L36.5229409,6.245 L36.5339967,6.23 L36.5395246,6.21 L36.6113875,5.83 L37.1088999,5.8 L37.2028745,5.795 L37.2139303,5.71 L37.2470978,5.42 L37.8606965,5.42 L37.9712548,5.42 L37.9712548,5.32 L37.9712548,5 L38.3747927,4.8 L38.4300719,4.775 L38.4355998,4.72 L38.4798231,4.115 L38.485351,4.045 L38.4134881,4.015 C38.4134881,4.015 38.3084577,3.975 38.1923715,3.955 C38.1481481,3.95 38.1149807,3.95 38.0818132,3.95 Z" id="Path" fill="#D87503"></path>
        </g>
    </g>
</svg>