<svg width="52" height="39" viewBox="0 0 52 39" fill="none" xmlns="http://www.w3.org/2000/svg">
<g clip-path="url(#clip0_1154_3802)">
<path d="M0 0H52V19.5H0V0Z" fill="#002B7F"/>
<path d="M0 19.5H52V39H0V19.5Z" fill="#CE1126"/>
<path d="M14.0659 7.94956L13.9424 12.0121H9.82144C9.31444 11.0241 8.89844 10.1921 8.89844 9.05456C8.89844 8.10556 9.64594 7.35156 10.7184 7.35156C11.8559 7.35156 13.1104 7.73506 14.0659 7.94956Z" fill="#FFD83D"/>
<path d="M9.39233 8.1377V10.4777ZM9.71733 7.8972V11.0172ZM10.0553 7.7347V11.4527ZM10.3803 7.6567V10.5752ZM10.7118 7.6437V10.5882ZM11.0433 7.5332V10.5882ZM11.3748 7.5332V10.5882ZM11.7063 7.5657V10.6207ZM12.0378 7.5982V10.6467ZM12.3693 7.7867V10.8417ZM12.6943 7.8192V11.2577ZM13.0323 7.8192V10.8742ZM13.3573 7.8192V10.8742Z" fill="#FFD83D"/>
<path d="M9.39233 8.1377V10.4777M9.71733 7.8972V11.0172M10.0553 7.7347V11.4527M10.3803 7.6567V10.5752M10.7118 7.6437V10.5882M11.0433 7.5332V10.5882M11.3748 7.5332V10.5882M11.7063 7.5657V10.6207M12.0378 7.5982V10.6467M12.3693 7.7867V10.8417M12.6943 7.8192V11.2577M13.0323 7.8192V10.8742M13.3573 7.8192V10.8742" stroke="black" stroke-width="0.15" stroke-linecap="round" stroke-linejoin="round"/>
<path d="M11.4659 7.66992C12.1679 7.78042 13.7019 8.50192 13.5264 9.47042C13.2794 10.8484 12.4734 10.2959 11.4074 10.1009L10.6014 10.3674C10.3089 10.6599 9.88638 10.9329 9.60038 10.5754H9.11938V12.4474H14.4104V7.92992L11.4659 7.66992Z" fill="black" stroke="black" stroke-width="0.15" stroke-linecap="round" stroke-linejoin="round"/>
<path d="M13.8319 7.66434C14.0078 7.66434 14.1504 7.52175 14.1504 7.34584C14.1504 7.16994 14.0078 7.02734 13.8319 7.02734C13.656 7.02734 13.5134 7.16994 13.5134 7.34584C13.5134 7.52175 13.656 7.66434 13.8319 7.66434Z" fill="#FFD83D" stroke="black" stroke-width="0.2" stroke-linecap="round" stroke-linejoin="round"/>
<path d="M13.1105 7.48856C13.2864 7.48856 13.429 7.34597 13.429 7.17006C13.429 6.99416 13.2864 6.85156 13.1105 6.85156C12.9346 6.85156 12.792 6.99416 12.792 7.17006C12.792 7.34597 12.9346 7.48856 13.1105 7.48856Z" fill="#FFD83D" stroke="black" stroke-width="0.2" stroke-linecap="round" stroke-linejoin="round"/>
<path d="M12.3759 7.30692C12.5518 7.30692 12.6944 7.16432 12.6944 6.98842C12.6944 6.81252 12.5518 6.66992 12.3759 6.66992C12.2 6.66992 12.0574 6.81252 12.0574 6.98842C12.0574 7.16432 12.2 7.30692 12.3759 7.30692Z" fill="#FFD83D" stroke="black" stroke-width="0.2" stroke-linecap="round" stroke-linejoin="round"/>
<path d="M11.6413 7.18388C11.8172 7.18388 11.9598 7.04128 11.9598 6.86538C11.9598 6.68947 11.8172 6.54688 11.6413 6.54688C11.4654 6.54688 11.3228 6.68947 11.3228 6.86538C11.3228 7.04128 11.4654 7.18388 11.6413 7.18388Z" fill="#FFD83D" stroke="black" stroke-width="0.2" stroke-linecap="round" stroke-linejoin="round"/>
<path d="M10.9069 7.11161C11.0828 7.11161 11.2254 6.96901 11.2254 6.79311C11.2254 6.61721 11.0828 6.47461 10.9069 6.47461C10.731 6.47461 10.5884 6.61721 10.5884 6.79311C10.5884 6.96901 10.731 7.11161 10.9069 7.11161Z" fill="#FFD83D" stroke="black" stroke-width="0.2" stroke-linecap="round" stroke-linejoin="round"/>
<path d="M10.1918 7.15067C10.3677 7.15067 10.5103 7.00807 10.5103 6.83217C10.5103 6.65627 10.3677 6.51367 10.1918 6.51367C10.0159 6.51367 9.87329 6.65627 9.87329 6.83217C9.87329 7.00807 10.0159 7.15067 10.1918 7.15067Z" fill="#FFD83D" stroke="black" stroke-width="0.2" stroke-linecap="round" stroke-linejoin="round"/>
<path d="M9.50283 7.38505C9.67873 7.38505 9.82133 7.24245 9.82133 7.06655C9.82133 6.89064 9.67873 6.74805 9.50283 6.74805C9.32692 6.74805 9.18433 6.89064 9.18433 7.06655C9.18433 7.24245 9.32692 7.38505 9.50283 7.38505Z" fill="#FFD83D" stroke="black" stroke-width="0.2" stroke-linecap="round" stroke-linejoin="round"/>
<path d="M8.92446 7.81278C9.10036 7.81278 9.24296 7.67018 9.24296 7.49428C9.24296 7.31838 9.10036 7.17578 8.92446 7.17578C8.74855 7.17578 8.60596 7.31838 8.60596 7.49428C8.60596 7.67018 8.74855 7.81278 8.92446 7.81278Z" fill="#FFD83D" stroke="black" stroke-width="0.2" stroke-linecap="round" stroke-linejoin="round"/>
<path d="M8.51479 8.40458C8.69069 8.40458 8.83329 8.26198 8.83329 8.08608C8.83329 7.91018 8.69069 7.76758 8.51479 7.76758C8.33889 7.76758 8.19629 7.91018 8.19629 8.08608C8.19629 8.26198 8.33889 8.40458 8.51479 8.40458Z" fill="#FFD83D" stroke="black" stroke-width="0.2" stroke-linecap="round" stroke-linejoin="round"/>
<path d="M8.31337 9.1077C8.48928 9.1077 8.63187 8.96511 8.63187 8.7892C8.63187 8.6133 8.48928 8.4707 8.31337 8.4707C8.13747 8.4707 7.99487 8.6133 7.99487 8.7892C7.99487 8.96511 8.13747 9.1077 8.31337 9.1077Z" fill="#FFD83D" stroke="black" stroke-width="0.2" stroke-linecap="round" stroke-linejoin="round"/>
<path d="M8.31996 9.82841C8.49587 9.82841 8.63846 9.68581 8.63846 9.50991C8.63846 9.334 8.49587 9.19141 8.31996 9.19141C8.14406 9.19141 8.00146 9.334 8.00146 9.50991C8.00146 9.68581 8.14406 9.82841 8.31996 9.82841Z" fill="#FFD83D" stroke="black" stroke-width="0.2" stroke-linecap="round" stroke-linejoin="round"/>
<path d="M8.46279 10.5374C8.63869 10.5374 8.78129 10.3948 8.78129 10.2189C8.78129 10.043 8.63869 9.90039 8.46279 9.90039C8.28688 9.90039 8.14429 10.043 8.14429 10.2189C8.14429 10.3948 8.28688 10.5374 8.46279 10.5374Z" fill="#FFD83D" stroke="black" stroke-width="0.2" stroke-linecap="round" stroke-linejoin="round"/>
<path d="M13.9748 7.76792L13.9423 8.19042C13.1428 8.06042 12.0118 7.61842 10.9523 7.61842C9.97734 7.61842 9.22334 8.00842 9.22334 8.99642C9.22334 9.96492 9.63284 10.8489 10.1788 11.7459L9.61334 12.0059C9.10634 11.0309 8.68384 10.1859 8.68384 9.05492C8.68384 8.10592 9.43134 7.16992 10.7183 7.16992C11.8558 7.16992 13.0193 7.55992 13.9748 7.76792Z" fill="#FFD83D" stroke="black" stroke-width="0.2" stroke-linecap="round" stroke-linejoin="round"/>
<path d="M14.7939 7.94956L14.9174 12.0121H19.0384C19.5454 11.0241 19.9614 10.1921 19.9614 9.05456C19.9614 8.10556 19.2139 7.35156 18.1414 7.35156C17.0039 7.35156 15.7494 7.73506 14.7939 7.94956Z" fill="#FFD83D"/>
<path d="M19.4675 8.1377V10.4777ZM19.1425 7.8972V11.0172ZM18.8045 7.7347V11.4527ZM18.4795 7.6567V10.5752ZM18.148 7.6437V10.5882ZM17.8165 7.5332V10.5882ZM17.485 7.5332V10.5882ZM17.1535 7.5657V10.6207ZM16.822 7.5982V10.6467ZM16.4905 7.7867V10.8417ZM16.1655 7.8192V11.2577ZM15.8275 7.8192V10.8742ZM15.5025 7.8192V10.8742Z" fill="#FFD83D"/>
<path d="M19.4675 8.1377V10.4777M19.1425 7.8972V11.0172M18.8045 7.7347V11.4527M18.4795 7.6567V10.5752M18.148 7.6437V10.5882M17.8165 7.5332V10.5882M17.485 7.5332V10.5882M17.1535 7.5657V10.6207M16.822 7.5982V10.6467M16.4905 7.7867V10.8417M16.1655 7.8192V11.2577M15.8275 7.8192V10.8742M15.5025 7.8192V10.8742" stroke="black" stroke-width="0.15" stroke-linecap="round" stroke-linejoin="round"/>
<path d="M17.394 7.66992C16.692 7.78042 15.158 8.50192 15.3335 9.47042C15.5805 10.8484 16.3865 10.2959 17.4525 10.1009L18.2585 10.3674C18.551 10.6599 18.9735 10.9329 19.2595 10.5754H19.7405V12.4474H14.4495V7.92992L17.394 7.66992Z" fill="black" stroke="black" stroke-width="0.15" stroke-linecap="round" stroke-linejoin="round"/>
<path d="M15.0279 7.66434C14.852 7.66434 14.7094 7.52175 14.7094 7.34584C14.7094 7.16994 14.852 7.02734 15.0279 7.02734C15.2038 7.02734 15.3464 7.16994 15.3464 7.34584C15.3464 7.52175 15.2038 7.66434 15.0279 7.66434Z" fill="#FFD83D" stroke="black" stroke-width="0.2" stroke-linecap="round" stroke-linejoin="round"/>
<path d="M15.7494 7.48856C15.5735 7.48856 15.4309 7.34597 15.4309 7.17006C15.4309 6.99416 15.5735 6.85156 15.7494 6.85156C15.9253 6.85156 16.0679 6.99416 16.0679 7.17006C16.0679 7.34597 15.9253 7.48856 15.7494 7.48856Z" fill="#FFD83D" stroke="black" stroke-width="0.2" stroke-linecap="round" stroke-linejoin="round"/>
<path d="M16.484 7.30692C16.3081 7.30692 16.1655 7.16432 16.1655 6.98842C16.1655 6.81252 16.3081 6.66992 16.484 6.66992C16.6599 6.66992 16.8025 6.81252 16.8025 6.98842C16.8025 7.16432 16.6599 7.30692 16.484 7.30692Z" fill="#FFD83D" stroke="black" stroke-width="0.2" stroke-linecap="round" stroke-linejoin="round"/>
<path d="M17.2186 7.18388C17.0427 7.18388 16.9001 7.04128 16.9001 6.86538C16.9001 6.68947 17.0427 6.54688 17.2186 6.54688C17.3945 6.54688 17.5371 6.68947 17.5371 6.86538C17.5371 7.04128 17.3945 7.18388 17.2186 7.18388Z" fill="#FFD83D" stroke="black" stroke-width="0.2" stroke-linecap="round" stroke-linejoin="round"/>
<path d="M17.953 7.11161C17.7771 7.11161 17.6345 6.96901 17.6345 6.79311C17.6345 6.61721 17.7771 6.47461 17.953 6.47461C18.1289 6.47461 18.2715 6.61721 18.2715 6.79311C18.2715 6.96901 18.1289 7.11161 17.953 7.11161Z" fill="#FFD83D" stroke="black" stroke-width="0.2" stroke-linecap="round" stroke-linejoin="round"/>
<path d="M18.6681 7.15067C18.4922 7.15067 18.3496 7.00807 18.3496 6.83217C18.3496 6.65627 18.4922 6.51367 18.6681 6.51367C18.844 6.51367 18.9866 6.65627 18.9866 6.83217C18.9866 7.00807 18.844 7.15067 18.6681 7.15067Z" fill="#FFD83D" stroke="black" stroke-width="0.2" stroke-linecap="round" stroke-linejoin="round"/>
<path d="M19.357 7.38505C19.1811 7.38505 19.0385 7.24245 19.0385 7.06655C19.0385 6.89064 19.1811 6.74805 19.357 6.74805C19.5329 6.74805 19.6755 6.89064 19.6755 7.06655C19.6755 7.24245 19.5329 7.38505 19.357 7.38505Z" fill="#FFD83D" stroke="black" stroke-width="0.2" stroke-linecap="round" stroke-linejoin="round"/>
<path d="M19.9354 7.81278C19.7595 7.81278 19.6169 7.67018 19.6169 7.49428C19.6169 7.31838 19.7595 7.17578 19.9354 7.17578C20.1113 7.17578 20.2539 7.31838 20.2539 7.49428C20.2539 7.67018 20.1113 7.81278 19.9354 7.81278Z" fill="#FFD83D" stroke="black" stroke-width="0.2" stroke-linecap="round" stroke-linejoin="round"/>
<path d="M20.3451 8.40458C20.1692 8.40458 20.0266 8.26198 20.0266 8.08608C20.0266 7.91018 20.1692 7.76758 20.3451 7.76758C20.521 7.76758 20.6636 7.91018 20.6636 8.08608C20.6636 8.26198 20.521 8.40458 20.3451 8.40458Z" fill="#FFD83D" stroke="black" stroke-width="0.2" stroke-linecap="round" stroke-linejoin="round"/>
<path d="M20.5465 9.1077C20.3706 9.1077 20.228 8.96511 20.228 8.7892C20.228 8.6133 20.3706 8.4707 20.5465 8.4707C20.7224 8.4707 20.865 8.6133 20.865 8.7892C20.865 8.96511 20.7224 9.1077 20.5465 9.1077Z" fill="#FFD83D" stroke="black" stroke-width="0.2" stroke-linecap="round" stroke-linejoin="round"/>
<path d="M20.5399 9.82841C20.364 9.82841 20.2214 9.68581 20.2214 9.50991C20.2214 9.334 20.364 9.19141 20.5399 9.19141C20.7158 9.19141 20.8584 9.334 20.8584 9.50991C20.8584 9.68581 20.7158 9.82841 20.5399 9.82841Z" fill="#FFD83D" stroke="black" stroke-width="0.2" stroke-linecap="round" stroke-linejoin="round"/>
<path d="M20.3971 10.5374C20.2212 10.5374 20.0786 10.3948 20.0786 10.2189C20.0786 10.043 20.2212 9.90039 20.3971 9.90039C20.573 9.90039 20.7156 10.043 20.7156 10.2189C20.7156 10.3948 20.573 10.5374 20.3971 10.5374Z" fill="#FFD83D" stroke="black" stroke-width="0.2" stroke-linecap="round" stroke-linejoin="round"/>
<path d="M14.885 7.76792L14.9175 8.19042C15.717 8.06042 16.848 7.61842 17.9075 7.61842C18.8825 7.61842 19.6365 8.00842 19.6365 8.99642C19.6365 9.96492 19.227 10.8489 18.681 11.7459L19.2465 12.0059C19.7535 11.0309 20.176 10.1859 20.176 9.05492C20.176 8.10592 19.4285 7.16992 18.1415 7.16992C17.004 7.16992 15.8405 7.55992 14.885 7.76792Z" fill="#FFD83D" stroke="black" stroke-width="0.2" stroke-linecap="round" stroke-linejoin="round"/>
<path d="M14.4299 3.45181L14.0919 4.08231L14.4299 4.70631L14.7614 4.08231L14.4299 3.44531V3.45181ZM14.4299 5.03781L14.0919 5.66181L14.4299 6.29231L14.7549 5.65531L14.4234 5.03131L14.4299 5.03781ZM13.2339 4.87531L13.7604 5.20681L14.2869 4.87531L13.7669 4.53731L13.2339 4.87531ZM14.5664 4.87531L15.0929 5.20681L15.6259 4.87531L15.0929 4.53731L14.5729 4.87531H14.5664Z" fill="#FFD83D" stroke="black" stroke-width="0.2" stroke-linecap="round" stroke-linejoin="round"/>
<path d="M14.43 5.13591C14.57 5.13591 14.6835 5.02241 14.6835 4.88241C14.6835 4.7424 14.57 4.62891 14.43 4.62891C14.29 4.62891 14.1765 4.7424 14.1765 4.88241C14.1765 5.02241 14.29 5.13591 14.43 5.13591Z" fill="#FFD83D" stroke="black" stroke-width="0.2" stroke-linecap="round" stroke-linejoin="round"/>
<path d="M14.4301 7.18336C14.807 7.18336 15.1126 6.87779 15.1126 6.50086C15.1126 6.12393 14.807 5.81836 14.4301 5.81836C14.0531 5.81836 13.7476 6.12393 13.7476 6.50086C13.7476 6.87779 14.0531 7.18336 14.4301 7.18336Z" fill="#FFD83D" stroke="black" stroke-width="0.2" stroke-linecap="round" stroke-linejoin="round"/>
<path d="M14.2543 5.84375V6.27275C14.0931 6.28051 13.9325 6.29788 13.7733 6.32475M15.0863 6.32475C14.925 6.29756 14.7622 6.28019 14.5988 6.27275V5.84375M13.7668 6.66925C13.9858 6.63132 14.2076 6.61176 14.4298 6.61075C14.6508 6.61075 14.8718 6.63025 15.0798 6.66925" stroke="black" stroke-width="0.15" stroke-linecap="round" stroke-linejoin="round"/>
<path d="M13.767 7.65039C13.702 8.75539 13.572 9.89289 13.1365 10.7119L13.8385 10.4259C14.0855 9.49639 14.1375 8.29389 14.209 7.72189L13.767 7.65039ZM15.093 7.65039L14.6445 7.72189C14.7225 8.29389 14.7745 9.49639 15.015 10.4259L15.717 10.7119C15.288 9.89289 15.158 8.76189 15.093 7.65039Z" fill="#FFD83D" stroke="black" stroke-width="0.2" stroke-linecap="round" stroke-linejoin="round"/>
<path d="M14.43 10.0566C13.585 10.0566 12.9675 10.4466 12.935 11.4606C12.727 11.0966 11.8625 9.96564 11.05 10.1151C10.569 10.2061 10.14 10.8756 10.218 11.6361C9.81496 10.4921 8.65146 10.3036 7.79346 10.9861C8.55396 11.6036 8.89196 13.4431 9.52896 14.2361H19.3245C19.9615 13.4431 20.2995 11.6036 21.06 10.9861C20.2085 10.3036 19.0385 10.4921 18.642 11.6361C18.707 10.8756 18.2845 10.2061 17.797 10.1151C16.991 9.96564 16.1265 11.0966 15.9185 11.4606C15.886 10.4531 15.2685 10.0566 14.4235 10.0566H14.43Z" fill="#FFD83D" stroke="black" stroke-width="0.2" stroke-linecap="round" stroke-linejoin="round"/>
<path d="M19.3112 14.2361C19.3112 14.6001 17.1272 14.9966 14.4297 14.9966C11.7322 14.9966 9.54175 14.6066 9.54175 14.2361C9.54175 13.8786 11.7322 13.6836 14.4297 13.6836C17.1207 13.6836 19.3112 13.8786 19.3112 14.2361Z" fill="black" stroke="black" stroke-width="0.15" stroke-linecap="round" stroke-linejoin="round"/>
<path d="M14.4299 7.66398C14.5555 7.66398 14.6574 7.56213 14.6574 7.43648C14.6574 7.31084 14.5555 7.20898 14.4299 7.20898C14.3042 7.20898 14.2024 7.31084 14.2024 7.43648C14.2024 7.56213 14.3042 7.66398 14.4299 7.66398Z" fill="#FFD83D" stroke="black" stroke-width="0.15" stroke-linecap="round" stroke-linejoin="round"/>
<path d="M14.43 8.17045C14.5628 8.17045 14.6705 8.06278 14.6705 7.92995C14.6705 7.79713 14.5628 7.68945 14.43 7.68945C14.2971 7.68945 14.1895 7.79713 14.1895 7.92995C14.1895 8.06278 14.2971 8.17045 14.43 8.17045Z" fill="#FFD83D" stroke="black" stroke-width="0.15" stroke-linecap="round" stroke-linejoin="round"/>
<path d="M14.4298 8.73027C14.577 8.73027 14.6963 8.61095 14.6963 8.46377C14.6963 8.31658 14.577 8.19727 14.4298 8.19727C14.2826 8.19727 14.1633 8.31658 14.1633 8.46377C14.1633 8.61095 14.2826 8.73027 14.4298 8.73027Z" fill="#FFD83D" stroke="black" stroke-width="0.15" stroke-linecap="round" stroke-linejoin="round"/>
<path d="M14.4298 9.361C14.5985 9.361 14.7353 9.22422 14.7353 9.0555C14.7353 8.88678 14.5985 8.75 14.4298 8.75C14.261 8.75 14.1243 8.88678 14.1243 9.0555C14.1243 9.22422 14.261 9.361 14.4298 9.361Z" fill="#FFD83D" stroke="black" stroke-width="0.15" stroke-linecap="round" stroke-linejoin="round"/>
<path d="M14.4299 10.0439C14.613 10.0439 14.7614 9.89544 14.7614 9.71236C14.7614 9.52928 14.613 9.38086 14.4299 9.38086C14.2468 9.38086 14.0984 9.52928 14.0984 9.71236C14.0984 9.89544 14.2468 10.0439 14.4299 10.0439Z" fill="#FFD83D" stroke="black" stroke-width="0.15" stroke-linecap="round" stroke-linejoin="round"/>
<path d="M14.2999 10.3477C14.2609 10.3477 14.2284 10.3802 14.2349 10.4387L14.2739 10.7182C14.2869 10.8157 14.3389 10.7832 14.3584 10.7182C14.3714 10.6402 14.3649 10.5882 14.3714 10.4517C14.3714 10.3802 14.3324 10.3477 14.2934 10.3477H14.2999ZM14.5599 10.3477C14.5209 10.3477 14.4884 10.3802 14.4884 10.4517C14.4884 10.5882 14.4884 10.6402 14.5014 10.7117C14.5144 10.7897 14.5664 10.8157 14.5859 10.7117L14.6184 10.4387C14.6314 10.3737 14.5924 10.3477 14.5599 10.3477ZM14.0594 10.3867C14.0421 10.3867 14.0256 10.3935 14.0134 10.4057C14.0012 10.4179 13.9944 10.4344 13.9944 10.4517C13.9944 10.5167 14.0139 10.6012 14.0204 10.6987C14.0334 10.7962 14.1049 10.7637 14.1114 10.6987C14.1114 10.6467 14.1244 10.5557 14.1114 10.4452C14.1114 10.4062 14.0984 10.3867 14.0724 10.3802C14.068 10.3796 14.0637 10.3796 14.0594 10.3802V10.3867ZM14.7809 10.3867C14.7614 10.3867 14.7419 10.4062 14.7354 10.4517C14.7319 10.5342 14.7362 10.6169 14.7484 10.6987C14.7484 10.7637 14.8264 10.7962 14.8329 10.6987C14.8329 10.6012 14.8589 10.5232 14.8589 10.4582C14.8589 10.4192 14.8264 10.3932 14.7939 10.3867C14.7895 10.3861 14.7852 10.3861 14.7809 10.3867ZM13.7799 10.4972C13.7474 10.5037 13.7149 10.5427 13.7279 10.5817C13.7474 10.6662 13.7669 10.7572 13.7669 10.8417C13.7669 10.9132 13.8254 10.8872 13.8319 10.8417C13.8369 10.7551 13.8391 10.6684 13.8384 10.5817C13.8384 10.5167 13.8059 10.4907 13.7734 10.4972H13.7799ZM15.0539 10.4972C15.0344 10.5037 15.0149 10.5297 15.0149 10.5817L15.0279 10.8417C15.0279 10.8872 15.0929 10.9132 15.0929 10.8417C15.0929 10.7572 15.1059 10.6662 15.1254 10.5817C15.1384 10.5427 15.1059 10.5037 15.0799 10.4972C15.0735 10.4955 15.0668 10.4955 15.0604 10.4972H15.0539ZM11.2189 10.5102C11.1799 10.5102 11.1539 10.5557 11.1799 10.6077C11.2189 10.6987 11.2644 10.7507 11.3034 10.8417C11.3359 10.9262 11.3944 10.8742 11.3749 10.8157L11.2839 10.5752C11.2644 10.5297 11.2384 10.5102 11.2189 10.5102ZM17.6409 10.5102C17.6149 10.5102 17.5954 10.5297 17.5759 10.5752C17.5174 10.6987 17.4979 10.7572 17.4784 10.8157C17.4654 10.8807 17.5174 10.9262 17.5564 10.8417L17.6734 10.6077C17.6994 10.5557 17.6734 10.5102 17.6409 10.5102ZM11.4789 10.5102C11.4464 10.5232 11.4334 10.5557 11.4464 10.5947C11.4854 10.6727 11.5309 10.7572 11.5634 10.8417C11.5894 10.9132 11.6544 10.8937 11.6284 10.8287L11.5634 10.5882C11.5374 10.5232 11.4984 10.5037 11.4789 10.5102ZM17.3614 10.5102C17.3354 10.5167 17.3094 10.5427 17.2964 10.5882C17.2509 10.7182 17.2444 10.7572 17.2249 10.8287C17.1989 10.8937 17.2639 10.9132 17.2899 10.8417L17.4069 10.5947C17.4199 10.5557 17.4069 10.5232 17.3809 10.5102C17.3745 10.5085 17.3678 10.5085 17.3614 10.5102ZM11.8039 10.5752C11.7649 10.5817 11.7389 10.6337 11.7649 10.6987C11.7909 10.7767 11.8299 10.8482 11.8689 10.9392C11.9079 11.0302 11.9664 11.0107 11.9534 10.9522C11.9339 10.8937 11.9209 10.8027 11.8754 10.6597C11.8559 10.5947 11.8299 10.5687 11.8039 10.5752ZM17.0559 10.5752C17.0299 10.5752 16.9974 10.5947 16.9779 10.6597C16.9389 10.8027 16.9129 10.8937 16.9064 10.9522C16.8869 11.0172 16.9519 11.0302 16.9844 10.9392C17.0234 10.8482 17.0624 10.7767 17.0884 10.6987C17.1144 10.6337 17.0884 10.5817 17.0559 10.5752ZM10.9979 10.6207C10.9589 10.6207 10.9329 10.6857 10.9524 10.7312C10.9849 10.7962 11.0109 10.8222 11.0434 10.9002C11.0824 10.9782 11.1214 10.9197 11.1084 10.8677C11.0889 10.8157 11.0694 10.7572 11.0564 10.6857C11.0434 10.6337 11.0174 10.6207 10.9914 10.6207H10.9979ZM17.8619 10.6207C17.8359 10.6207 17.8164 10.6337 17.7969 10.6857L17.7514 10.8677C17.7384 10.9197 17.7774 10.9782 17.8164 10.9002C17.8489 10.8222 17.8684 10.8027 17.9074 10.7312C17.9269 10.6857 17.8944 10.6272 17.8619 10.6207ZM13.5069 10.8027C13.4614 10.8027 13.4224 10.8547 13.4419 10.9002C13.4549 10.9782 13.4939 11.0432 13.5134 11.1407C13.5394 11.2252 13.5979 11.1862 13.5914 11.1277C13.5866 11.0403 13.5758 10.9535 13.5589 10.8677C13.5459 10.8222 13.5264 10.8027 13.5004 10.8027H13.5069ZM15.3529 10.8027C15.3334 10.8027 15.3074 10.8222 15.3009 10.8677C15.2818 10.9533 15.2687 11.0402 15.2619 11.1277C15.2619 11.1862 15.3204 11.2252 15.3399 11.1407L15.4179 10.9002C15.4309 10.8547 15.3919 10.8027 15.3529 10.8027ZM14.4299 10.8807C14.3779 10.8807 14.3714 10.9457 14.3714 10.9912C14.3674 11.1392 14.3224 11.2832 14.2414 11.4072C14.1764 11.4852 14.0919 11.4657 14.0139 11.4202C13.9383 11.379 13.8665 11.3311 13.7994 11.2772C13.7084 11.2122 13.6434 11.2512 13.7474 11.4007C14.0464 11.8297 14.3714 12.1937 14.3714 12.8957C14.3714 12.9802 14.3909 13.0062 14.4299 13.0062C14.4689 13.0062 14.4819 12.9802 14.4819 12.8892C14.4819 12.1937 14.8069 11.8297 15.1059 11.3942C15.2099 11.2512 15.1449 11.2122 15.0604 11.2772C14.9935 11.3315 14.9217 11.3794 14.8459 11.4202C14.7614 11.4657 14.6769 11.4852 14.6184 11.4072C14.5373 11.2832 14.4923 11.1392 14.4884 10.9912C14.4819 10.9457 14.4754 10.8807 14.4234 10.8807H14.4299ZM12.1354 10.7767C12.1311 10.7759 12.1267 10.7759 12.1224 10.7767C12.1029 10.7832 12.0964 10.8027 12.1029 10.8417L12.1744 11.0952C12.1939 11.1602 12.2654 11.1407 12.2524 11.0627L12.2134 10.8612C12.2004 10.8092 12.1614 10.7767 12.1354 10.7767ZM16.7244 10.7767C16.6919 10.7767 16.6594 10.8092 16.6464 10.8612C16.6204 10.9522 16.6204 10.9782 16.6074 11.0562C16.5879 11.1407 16.6659 11.1537 16.6789 11.0952L16.7569 10.8352C16.7569 10.8027 16.7504 10.7832 16.7309 10.7767C16.7266 10.7759 16.7222 10.7759 16.7179 10.7767H16.7244ZM10.7704 10.8027C10.7314 10.8027 10.7054 10.8547 10.7444 10.9197C10.7834 10.9977 10.8549 11.0887 10.8874 11.1472C10.9199 11.1992 10.9784 11.1602 10.9394 11.0952C10.9004 11.0302 10.8874 10.9457 10.8354 10.8482C10.8311 10.8345 10.8224 10.8226 10.8106 10.8143C10.7988 10.8061 10.7847 10.802 10.7704 10.8027ZM18.0829 10.8027C18.0634 10.8027 18.0374 10.8157 18.0179 10.8482C17.9724 10.9457 17.9529 11.0237 17.9204 11.0952C17.8814 11.1602 17.9334 11.1992 17.9659 11.1472C17.9984 11.0887 18.0699 10.9977 18.1089 10.9197C18.1479 10.8547 18.1219 10.8027 18.0829 10.8027ZM8.70986 11.0172C8.67086 11.0172 8.65786 11.0952 8.69686 11.1472C8.74733 11.211 8.80393 11.2698 8.86585 11.3227C8.91785 11.3747 8.93086 11.3097 8.90486 11.2577L8.78785 11.0822C8.75535 11.0367 8.72936 11.0172 8.70986 11.0172ZM20.1434 11.0172C20.1239 11.0172 20.0979 11.0367 20.0719 11.0822L19.9484 11.2577C19.9224 11.3097 19.9354 11.3747 19.9939 11.3227C20.0558 11.2699 20.1124 11.2111 20.1629 11.1472C20.2019 11.0952 20.1889 11.0172 20.1434 11.0172ZM9.04136 11.0822C9.00236 11.0822 8.97636 11.1082 9.00886 11.1667L9.13236 11.4137C9.16486 11.4787 9.26235 11.4982 9.22335 11.4007L9.13886 11.1537C9.11936 11.1082 9.07386 11.0887 9.04136 11.0887V11.0822ZM19.8184 11.0822C19.7794 11.0822 19.7339 11.1082 19.7144 11.1537L19.6364 11.4007C19.5974 11.4982 19.6949 11.4787 19.7274 11.4137C19.7599 11.3487 19.8119 11.2512 19.8444 11.1667C19.8769 11.1082 19.8509 11.0822 19.8184 11.0822ZM8.40436 11.1082C8.35236 11.1082 8.35235 11.1537 8.39785 11.1862C8.45635 11.2317 8.52785 11.2772 8.59285 11.3357C8.67735 11.4007 8.70335 11.3357 8.65785 11.2837C8.61885 11.2317 8.57986 11.1797 8.46936 11.1212C8.44336 11.1082 8.42386 11.1082 8.40436 11.1082ZM20.4489 11.1082C20.4359 11.1082 20.4099 11.1082 20.3839 11.1212C20.2799 11.1797 20.2344 11.2317 20.1889 11.2837C20.1499 11.3422 20.1824 11.4007 20.2604 11.3357C20.3254 11.2772 20.4034 11.2317 20.4554 11.1862C20.5074 11.1537 20.5009 11.1082 20.4554 11.1082H20.4489ZM13.3249 11.1537C13.2924 11.1537 13.2729 11.1862 13.2794 11.2317L13.3444 11.4657C13.3574 11.5372 13.4419 11.5372 13.4289 11.4657C13.4159 11.4007 13.4094 11.3162 13.3834 11.2122C13.3769 11.1732 13.3574 11.1537 13.3314 11.1472C13.3292 11.147 13.327 11.147 13.3249 11.1472V11.1537ZM15.5219 11.1537C15.5024 11.1537 15.4829 11.1732 15.4699 11.2187C15.4439 11.3162 15.4374 11.4007 15.4244 11.4722C15.4114 11.5372 15.4959 11.5372 15.5089 11.4657L15.5739 11.2317C15.5869 11.1862 15.5609 11.1537 15.5349 11.1537C15.5306 11.1529 15.5262 11.1529 15.5219 11.1537ZM11.3619 11.0237C11.3424 11.0237 11.3294 11.0692 11.3489 11.1342C11.4178 11.3215 11.453 11.5195 11.4529 11.7192C11.4334 11.7972 11.3879 11.8037 11.3294 11.7842C11.2656 11.7527 11.2047 11.7157 11.1474 11.6737C11.0954 11.6412 11.0369 11.6802 11.1149 11.7452C11.5049 12.0702 11.7844 12.4407 11.8949 12.8892C11.9079 12.9802 11.9664 12.9932 11.9534 12.8892C11.8624 12.3237 11.8429 11.8557 11.9794 11.5697C12.0314 11.4592 11.9794 11.3552 11.9014 11.5307C11.8429 11.6477 11.7584 11.6932 11.6869 11.5957C11.5852 11.437 11.4982 11.2695 11.4269 11.0952C11.4139 11.0497 11.3944 11.0302 11.3749 11.0237C11.3727 11.0233 11.3705 11.0233 11.3684 11.0237H11.3619ZM17.4784 11.0237C17.4589 11.0237 17.4394 11.0497 17.4264 11.0887C17.3809 11.2187 17.2379 11.4917 17.1664 11.5957C17.0949 11.6997 17.0104 11.6477 16.9584 11.5307C16.8739 11.3552 16.8284 11.4592 16.8739 11.5697C17.0104 11.8557 16.9909 12.3237 16.9064 12.8892C16.8869 12.9932 16.9454 12.9802 16.9714 12.8892C17.0916 12.4326 17.3617 12.0297 17.7384 11.7452C17.8164 11.6802 17.7579 11.6412 17.7059 11.6802C17.6482 11.718 17.5873 11.7506 17.5239 11.7777C17.4589 11.8037 17.4199 11.7972 17.4004 11.7127C17.3874 11.6347 17.4134 11.4592 17.5109 11.1277C17.5239 11.0757 17.5109 11.0302 17.4914 11.0237C17.4872 11.0222 17.4826 11.0222 17.4784 11.0237ZM9.38585 11.1797C9.35335 11.1797 9.32085 11.2057 9.34035 11.2577C9.36635 11.3487 9.41836 11.4397 9.43786 11.4917C9.45736 11.5502 9.51586 11.5242 9.50286 11.4462L9.47036 11.2447C9.47036 11.2057 9.42485 11.1797 9.38585 11.1797ZM19.4674 11.1797C19.4284 11.1797 19.3894 11.2057 19.3829 11.2447L19.3569 11.4462C19.3439 11.5242 19.4024 11.5502 19.4219 11.4917C19.4349 11.4397 19.4869 11.3487 19.5129 11.2577C19.5324 11.2057 19.5064 11.1797 19.4674 11.1797ZM10.6079 11.0692C10.5689 11.0627 10.5624 11.1667 10.5949 11.2122L10.7769 11.4137C10.8289 11.4787 10.8614 11.4202 10.8289 11.3682L10.6599 11.1212C10.6404 11.0887 10.6209 11.0692 10.6079 11.0692ZM18.2454 11.0692C18.2324 11.0692 18.2129 11.0887 18.1934 11.1212L18.0244 11.3682C17.9919 11.4202 18.0244 11.4787 18.0829 11.4137L18.2584 11.2122C18.2909 11.1667 18.2909 11.0627 18.2454 11.0692ZM9.66536 11.3292C9.63936 11.3292 9.61986 11.3422 9.63286 11.3942C9.64586 11.4722 9.66536 11.5242 9.68486 11.5957C9.70436 11.6607 9.74986 11.6542 9.74986 11.5892L9.73036 11.3812C9.72752 11.3656 9.7196 11.3514 9.70784 11.3408C9.69608 11.3302 9.68114 11.3238 9.66536 11.3227V11.3292ZM19.1879 11.3292C19.1727 11.3288 19.1578 11.3339 19.1459 11.3434C19.1341 11.3529 19.1259 11.3663 19.1229 11.3812L19.1034 11.5892C19.1034 11.6542 19.1554 11.6672 19.1684 11.5957L19.2269 11.4007C19.2399 11.3422 19.2139 11.3227 19.1879 11.3227V11.3292ZM10.5169 11.4202C10.4779 11.4202 10.4454 11.4657 10.4909 11.5242C10.5624 11.6217 10.6469 11.6867 10.6794 11.7192C10.7054 11.7582 10.7769 11.7452 10.7314 11.6737L10.5819 11.4462C10.5689 11.4202 10.5429 11.4137 10.5169 11.4202ZM18.3169 11.4202C18.3039 11.4202 18.2844 11.4267 18.2779 11.4462L18.1219 11.6737C18.0764 11.7452 18.1479 11.7582 18.1804 11.7257C18.2064 11.6867 18.2909 11.6217 18.3689 11.5242C18.4144 11.4592 18.3754 11.4202 18.3364 11.4202C18.332 11.4197 18.3277 11.4197 18.3234 11.4202H18.3169ZM9.17136 11.6867C9.14536 11.6867 9.13236 11.7127 9.17136 11.7712C9.27174 11.8929 9.34488 12.0348 9.38585 12.1872C9.39235 12.2782 9.35336 12.2782 9.31436 12.2782C9.19086 12.2782 9.13235 12.1872 9.02835 12.1612C8.91785 12.1417 8.89836 12.1937 8.97636 12.2522C9.34893 12.4878 9.6732 12.7922 9.93186 13.1492C9.99686 13.2727 10.0814 13.3117 10.0359 13.2012C9.90956 12.9477 9.85559 12.6643 9.87986 12.3822C9.91236 12.2002 9.95786 12.0832 9.95136 11.9792C9.95136 11.8817 9.88636 11.8882 9.86686 11.9792L9.80186 12.1612C9.77586 12.1937 9.68486 12.2132 9.60686 12.1027C9.49631 11.967 9.37455 11.8409 9.24285 11.7257C9.22335 11.7062 9.19735 11.6932 9.17785 11.6867H9.17136ZM19.6819 11.6867C19.6624 11.6867 19.6364 11.6997 19.6104 11.7257C19.481 11.8412 19.3614 11.9673 19.2529 12.1027C19.1684 12.2132 19.0774 12.1937 19.0579 12.1677C19.0282 12.1079 19.0064 12.0445 18.9929 11.9792C18.9669 11.8882 18.9084 11.8817 18.9019 11.9792C18.9019 12.0832 18.9409 12.2002 18.9734 12.3822C19.0059 12.5642 18.9734 12.8502 18.8239 13.2012C18.7719 13.3117 18.8629 13.2662 18.9279 13.1492C19.1841 12.7924 19.5062 12.4879 19.8769 12.2522C19.9549 12.1937 19.9419 12.1417 19.8314 12.1612C19.7209 12.1872 19.6624 12.2782 19.5454 12.2782C19.5064 12.2782 19.4609 12.2782 19.4674 12.1872C19.4739 12.1027 19.5844 11.9012 19.6819 11.7712C19.7209 11.7062 19.7144 11.6867 19.6819 11.6867Z" fill="black"/>
<path d="M9.75635 13.8254L9.88635 14.2219ZM10.0163 13.7474L10.1333 14.1504ZM10.3023 13.6954L10.3803 14.1114ZM10.5623 13.6499L10.6468 14.0594ZM10.8938 13.6174L10.9588 14.0334ZM11.2513 13.6174L11.3228 14.0269ZM11.6023 13.5004L11.6543 13.9164ZM11.9273 13.5199L11.9793 13.9359ZM12.2458 13.4809L12.2978 13.8969ZM12.5578 13.4419L12.5903 13.8644ZM12.9023 13.4419L12.9283 13.8644ZM13.2143 13.4224L13.2338 13.8449ZM13.5523 13.4029L13.5718 13.8189ZM13.9423 13.3899L13.9618 13.8124ZM19.0968 13.8254L18.9668 14.2219ZM18.8368 13.7474L18.7263 14.1504ZM18.5573 13.6954L18.4793 14.1114ZM18.2973 13.6499L18.2128 14.0594ZM17.9528 13.6174L17.8878 14.0334ZM17.6018 13.6174L17.5303 14.0334ZM17.2573 13.5004L17.2053 13.9164ZM16.9258 13.5199L16.8738 13.9359ZM16.6138 13.4809L16.5553 13.8969ZM16.2953 13.4419L16.2628 13.8644ZM15.9508 13.4419L15.9248 13.8644ZM15.6453 13.4224L15.6258 13.8449ZM15.3008 13.4029L15.2878 13.8189ZM14.9108 13.3899L14.8978 13.8124ZM14.4298 13.3574V13.8254Z" fill="#FFD83D"/>
<path d="M9.75635 13.8254L9.88635 14.2219M10.0163 13.7474L10.1333 14.1504M10.3023 13.6954L10.3803 14.1114M10.5623 13.6499L10.6468 14.0594M10.8938 13.6174L10.9588 14.0334M11.2513 13.6174L11.3228 14.0269M11.6023 13.5004L11.6543 13.9164M11.9273 13.5199L11.9793 13.9359M12.2458 13.4809L12.2978 13.8969M12.5578 13.4419L12.5903 13.8644M12.9023 13.4419L12.9283 13.8644M13.2143 13.4224L13.2338 13.8449M13.5523 13.4029L13.5718 13.8189M13.9423 13.3899L13.9618 13.8124M19.0968 13.8254L18.9668 14.2219M18.8368 13.7474L18.7263 14.1504M18.5573 13.6954L18.4793 14.1114M18.2973 13.6499L18.2128 14.0594M17.9528 13.6174L17.8878 14.0334M17.6018 13.6174L17.5303 14.0334M17.2573 13.5004L17.2053 13.9164M16.9258 13.5199L16.8738 13.9359M16.6138 13.4809L16.5553 13.8969M16.2953 13.4419L16.2628 13.8644M15.9508 13.4419L15.9248 13.8644M15.6453 13.4224L15.6258 13.8449M15.3008 13.4029L15.2878 13.8189M14.9108 13.3899L14.8978 13.8124M14.4298 13.3574V13.8254" stroke="black" stroke-width="0.15" stroke-linecap="round" stroke-linejoin="round"/>
</g>
<rect x="0.25" y="0.25" width="51.5" height="38.5" stroke="#D0D0D0" stroke-width="0.5"/>
<defs>
<clipPath id="clip0_1154_3802">
<rect width="52" height="39" fill="white"/>
</clipPath>
</defs>
</svg>
