<?xml version="1.0" encoding="UTF-8"?>
<svg width="50px" height="30px" viewBox="0 0 50 30" version="1.1" xmlns="http://www.w3.org/2000/svg" xmlns:xlink="http://www.w3.org/1999/xlink">
    <title>flag/liechtenstein@3x</title>
    <g id="FranceConnect+" stroke="none" stroke-width="1" fill="none" fill-rule="evenodd">
        <g id="flag/liechtenstein">
            <rect id="Rectangle" fill="#002B7F" fill-rule="nonzero" x="0" y="0" width="50" height="15"></rect>
            <rect id="Rectangle" fill="#CE1126" fill-rule="nonzero" x="0" y="15" width="50" height="15"></rect>
            <g id="Group" stroke-linecap="round" stroke-linejoin="round" transform="translate(5.950000, 2.650000)">
                <g id="half" transform="translate(0.150000, 2.300000)" fill-rule="nonzero">
                    <path d="M4.718853,1.16443 L4.626941,4.28943 L1.455985,4.28943 C1.065858,3.531016 0.743669,2.8868675 0.743669,2.014614 C0.743669,1.2846345 1.3178235,0.704871 2.1453235,0.704871 C3.0213095,0.704871 3.983756,1.00005 4.718853,1.16443 Z" id="Path" fill="#FFD83D"></path>
                    <g id="Group" transform="translate(0.900000, 0.800000)">
                        <line x1="0.2478055" y1="0.508042" x2="0.2478055" y2="2.3118105" id="Path" fill="#FFD83D"></line>
                        <line x1="0.502478" y1="0.3239665" x2="0.502478" y2="2.7256665" id="Path" fill="#FFD83D"></line>
                        <line x1="0.7571505" y1="0.197588" x2="0.7571505" y2="3.0588465" id="Path" fill="#FFD83D"></line>
                        <line x1="1.0118225" y1="0.1385405" x2="1.0118225" y2="2.3826005" id="Path" fill="#FFD83D"></line>
                        <line x1="1.2664945" y1="0.1274075" x2="1.2664945" y2="2.393733" id="Path" fill="#FFD83D"></line>
                        <line x1="1.5211675" y1="0.0482315" x2="1.5211675" y2="2.3924865" id="Path" fill="#FFD83D"></line>
                        <line x1="1.7758395" y1="0.0482315" x2="1.7758395" y2="2.3924865" id="Path" fill="#FFD83D"></line>
                        <line x1="2.030512" y1="0.0712095" x2="2.030512" y2="2.4154645" id="Path" fill="#FFD83D"></line>
                        <line x1="2.2851835" y1="0.0941875" x2="2.2851835" y2="2.4384425" id="Path" fill="#FFD83D"></line>
                        <line x1="2.539856" y1="0.243544" x2="2.539856" y2="2.587799" id="Path" fill="#FFD83D"></line>
                        <line x1="2.7945285" y1="0.266522" x2="2.7945285" y2="2.90949" id="Path" fill="#FFD83D"></line>
                        <line x1="3.049201" y1="0.266522" x2="3.049201" y2="2.610777" id="Path" fill="#FFD83D"></line>
                        <line x1="3.3038735" y1="0.266522" x2="3.3038735" y2="2.610777" id="Path" fill="#FFD83D"></line>
                        <path d="M1.819772,0.1461395 C2.3579455,0.234912 3.5400755,0.7879965 3.40525,1.5363055 C3.214183,2.5967685 2.5948625,2.1711865 1.773816,2.018842 L1.1534115,2.2256435 C0.9314195,2.452233 0.604524,2.6598205 0.3836505,2.386489 L0.0160035,2.386489 L0.0160035,3.82261 L4.083099,3.82261 L4.083099,0.352941 L1.819772,0.1461395 Z" id="Path" fill="#000000"></path>
                    </g>
                    <circle id="Oval" fill="#FFD83D" cx="4.5407745" cy="0.6991275" r="1"></circle>
                    <circle id="Oval" fill="#FFD83D" cx="3.98565" cy="0.565526" r="1"></circle>
                    <circle id="Oval" fill="#FFD83D" cx="3.4224865" cy="0.424089" r="1"></circle>
                    <circle id="Oval" fill="#FFD83D" cx="2.8571475" cy="0.329798" r="1"></circle>
                    <circle id="Oval" fill="#FFD83D" cx="2.2918085" cy="0.2740355" r="1"></circle>
                    <circle id="Oval" fill="#FFD83D" cx="1.7374655" cy="0.3056305" r="1"></circle>
                    <circle id="Oval" fill="#FFD83D" cx="1.208973" cy="0.4865815" r="1"></circle>
                    <circle id="Oval" fill="#FFD83D" cx="0.7637755" cy="0.8140175" r="1"></circle>
                    <circle id="Oval" fill="#FFD83D" cx="0.4478285" cy="1.270704" r="1"></circle>
                    <circle id="Oval" fill="#FFD83D" cx="0.2956" cy="1.8078135" r="1"></circle>
                    <circle id="Oval" fill="#FFD83D" cx="0.3013445" cy="2.3650285" r="1"></circle>
                    <circle id="Oval" fill="#FFD83D" cx="0.407618" cy="2.9107545" r="1"></circle>
                    <path d="M4.649919,1.0265625 L4.626941,1.3482535 C4.012391,1.254097 3.1411955,0.911673 2.329147,0.911673 C1.578828,0.911673 0.9964265,1.211808 0.9964265,1.968658 C0.9964265,2.7145815 1.3123155,3.392919 1.7317205,4.0826285 L1.2951395,4.28943 C0.9050125,3.531016 0.5828235,2.8868675 0.5828235,2.014614 C0.5828235,1.2846345 1.156978,0.5670035 2.1453235,0.5670035 C3.0213095,0.5670035 3.914822,0.8621825 4.649919,1.0265625 Z" id="Path" fill="#FFD83D"></path>
                </g>
                <g id="half-link" transform="translate(7.146875, 4.800000) scale(-1, 1) translate(-7.146875, -4.800000) translate(4.146875, 2.300000)" fill-rule="nonzero">
                    <g id="half">
                        <path d="M4.718853,1.16443 L4.626941,4.28943 L1.455985,4.28943 C1.065858,3.531016 0.743669,2.8868675 0.743669,2.014614 C0.743669,1.2846345 1.3178235,0.704871 2.1453235,0.704871 C3.0213095,0.704871 3.983756,1.00005 4.718853,1.16443 Z" id="Path" fill="#FFD83D"></path>
                        <g id="Group" transform="translate(0.900000, 0.800000)">
                            <line x1="0.2478055" y1="0.508042" x2="0.2478055" y2="2.3118105" id="Path" fill="#FFD83D"></line>
                            <line x1="0.502478" y1="0.3239665" x2="0.502478" y2="2.7256665" id="Path" fill="#FFD83D"></line>
                            <line x1="0.7571505" y1="0.197588" x2="0.7571505" y2="3.0588465" id="Path" fill="#FFD83D"></line>
                            <line x1="1.0118225" y1="0.1385405" x2="1.0118225" y2="2.3826005" id="Path" fill="#FFD83D"></line>
                            <line x1="1.2664945" y1="0.1274075" x2="1.2664945" y2="2.393733" id="Path" fill="#FFD83D"></line>
                            <line x1="1.5211675" y1="0.0482315" x2="1.5211675" y2="2.3924865" id="Path" fill="#FFD83D"></line>
                            <line x1="1.7758395" y1="0.0482315" x2="1.7758395" y2="2.3924865" id="Path" fill="#FFD83D"></line>
                            <line x1="2.030512" y1="0.0712095" x2="2.030512" y2="2.4154645" id="Path" fill="#FFD83D"></line>
                            <line x1="2.2851835" y1="0.0941875" x2="2.2851835" y2="2.4384425" id="Path" fill="#FFD83D"></line>
                            <line x1="2.539856" y1="0.243544" x2="2.539856" y2="2.587799" id="Path" fill="#FFD83D"></line>
                            <line x1="2.7945285" y1="0.266522" x2="2.7945285" y2="2.90949" id="Path" fill="#FFD83D"></line>
                            <line x1="3.049201" y1="0.266522" x2="3.049201" y2="2.610777" id="Path" fill="#FFD83D"></line>
                            <line x1="3.3038735" y1="0.266522" x2="3.3038735" y2="2.610777" id="Path" fill="#FFD83D"></line>
                            <path d="M1.819772,0.1461395 C2.3579455,0.234912 3.5400755,0.7879965 3.40525,1.5363055 C3.214183,2.5967685 2.5948625,2.1711865 1.773816,2.018842 L1.1534115,2.2256435 C0.9314195,2.452233 0.604524,2.6598205 0.3836505,2.386489 L0.0160035,2.386489 L0.0160035,3.82261 L4.083099,3.82261 L4.083099,0.352941 L1.819772,0.1461395 Z" id="Path" fill="#000000"></path>
                        </g>
                        <circle id="Oval" fill="#FFD83D" cx="4.5407745" cy="0.6991275" r="1"></circle>
                        <circle id="Oval" fill="#FFD83D" cx="3.98565" cy="0.565526" r="1"></circle>
                        <circle id="Oval" fill="#FFD83D" cx="3.4224865" cy="0.424089" r="1"></circle>
                        <circle id="Oval" fill="#FFD83D" cx="2.8571475" cy="0.329798" r="1"></circle>
                        <circle id="Oval" fill="#FFD83D" cx="2.2918085" cy="0.2740355" r="1"></circle>
                        <circle id="Oval" fill="#FFD83D" cx="1.7374655" cy="0.3056305" r="1"></circle>
                        <circle id="Oval" fill="#FFD83D" cx="1.208973" cy="0.4865815" r="1"></circle>
                        <circle id="Oval" fill="#FFD83D" cx="0.7637755" cy="0.8140175" r="1"></circle>
                        <circle id="Oval" fill="#FFD83D" cx="0.4478285" cy="1.270704" r="1"></circle>
                        <circle id="Oval" fill="#FFD83D" cx="0.2956" cy="1.8078135" r="1"></circle>
                        <circle id="Oval" fill="#FFD83D" cx="0.3013445" cy="2.3650285" r="1"></circle>
                        <circle id="Oval" fill="#FFD83D" cx="0.407618" cy="2.9107545" r="1"></circle>
                        <path d="M4.649919,1.0265625 L4.626941,1.3482535 C4.012391,1.254097 3.1411955,0.911673 2.329147,0.911673 C1.578828,0.911673 0.9964265,1.211808 0.9964265,1.968658 C0.9964265,2.7145815 1.3123155,3.392919 1.7317205,4.0826285 L1.2951395,4.28943 C0.9050125,3.531016 0.5828235,2.8868675 0.5828235,2.014614 C0.5828235,1.2846345 1.156978,0.5670035 2.1453235,0.5670035 C3.0213095,0.5670035 3.914822,0.8621825 4.649919,1.0265625 Z" id="Path" fill="#FFD83D"></path>
                    </g>
                </g>
                <path d="M5.15,0.00625 L4.65,0.4890625 L5.15,0.9703125 L5.65,0.4890625 L5.15,0.00625 Z M5.15,1.225 L4.65,1.70625 L5.15,2.1890625 L5.65,1.70625 L5.15,1.225 Z" id="Shape" fill="#FFD83D" fill-rule="nonzero"></path>
                <path d="M4.2293655,1.33984375 L4.6359415,1.83984375 L5.0412015,1.33984375 L4.6359415,0.83984375 L4.2293655,1.33984375 Z M5.2556735,1.33984375 L5.6609335,1.83984375 L6.0675095,1.33984375 L5.6609335,0.83984375 L5.2556735,1.33984375 Z" id="Shape" fill="#FFD83D" fill-rule="nonzero"></path>
                <circle id="Oval" fill="#FFD83D" fill-rule="nonzero" cx="5.1484375" cy="1.1034465" r="1"></circle>
                <circle id="Oval" fill="#FFD83D" fill-rule="nonzero" cx="5.1484375" cy="2.35" r="1"></circle>
                <path d="M5.0171875,1.84375 C5.0171875,2.08922295 5.0160815,2.23185948 5.015625,2.36591749 C4.8896035,2.37473443 4.765338,2.39560907 4.64375,2.42749384 M5.653125,2.42749384 C5.531537,2.39560907 5.4072715,2.37473443 5.28125,2.36591749 C5.28125,2.23205778 5.28125,2.08982937 5.28125,1.84375 M4.6421875,2.8632774 C4.806923,2.8082424 4.975894,2.7789024 5.1484375,2.7789024 C5.320981,2.7789024 5.489952,2.8082424 5.6546875,2.8632774" id="Shape"></path>
                <path d="M4.6375,3.234375 C4.587906,4.088484 4.4870715,4.9583335 4.1546875,5.590625 L4.6953125,5.371875 C4.884136,4.6554365 4.9238045,3.729746 4.98125,3.2921875 L4.6375,3.234375 Z M5.659375,3.234375 L5.315625,3.2921875 C5.37307,3.729746 5.412739,4.6554365 5.6015625,5.371875 L6.1421875,5.590625 C5.8098035,4.9583335 5.708969,4.088484 5.659375,3.234375 Z" id="Shape" fill="#FFD83D" fill-rule="nonzero"></path>
                <path d="M5.1476565,5.084375 C4.501987,5.084375 4.027699,5.388706 3.999219,6.1640625 C3.8413865,5.886318 3.17371,5.012776 2.5507815,5.1296875 C2.180288,5.199222 1.852927,5.712981 1.908594,6.3015625 C1.60185,5.4200675 0.7032545,5.2756125 0.0476565,5.796875 C0.6297645,6.2755005 0.8887105,7.6886125 1.3789065,8.3015625 L5.1476565,8.3015625 L8.9164065,8.3015625 C9.406602,7.6886125 9.667111,6.2755005 10.249219,5.796875 C9.5936205,5.2756125 8.6950255,5.4200675 8.3882815,6.3015625 C8.443948,5.712981 8.115025,5.199222 7.7445315,5.1296875 C7.1216025,5.012776 6.455489,5.886318 6.2976565,6.1640625 C6.269177,5.388706 5.793326,5.084375 5.1476565,5.084375 Z" id="Path" fill="#FFD83D" fill-rule="nonzero"></path>
                <g transform="translate(0.450000, 2.850000)" fill-rule="nonzero">
                    <path d="M8.455331,5.4512865 C8.455331,5.7303315 6.772243,6.0372235 4.6984375,6.0372235 C2.6246325,6.0372235 0.9415445,5.7303315 0.9415445,5.4512865 C0.9415445,5.1722435 2.6246325,5.026195 4.6984375,5.026195 C6.772243,5.026195 8.455331,5.1722435 8.455331,5.4512865 Z" id="Path" fill="#000000"></path>
                    <circle id="Oval" fill="#FFD83D" cx="4.6984375" cy="0.2222295" r="1"></circle>
                    <circle id="Oval" fill="#FFD83D" cx="4.6984375" cy="0.6013655" r="1"></circle>
                    <circle id="Oval" fill="#FFD83D" cx="4.6984375" cy="1.0092235" r="1"></circle>
                    <circle id="Oval" fill="#FFD83D" cx="4.6984375" cy="1.4630375" r="1"></circle>
                    <circle id="Oval" fill="#FFD83D" cx="4.6984375" cy="1.9685525" r="1"></circle>
                    <path d="M4.5968755,2.46029026 C4.569228,2.4599505 4.5430825,2.483245 4.5500005,2.5274815 C4.5581485,2.5796575 4.568353,2.677241 4.5781255,2.7431065 C4.5891695,2.817766 4.6326865,2.7996165 4.6437505,2.741544 C4.6548155,2.683493 4.6503545,2.64625 4.6531255,2.538419 C4.654512,2.4845145 4.6245235,2.460638 4.5968755,2.46029026 Z M4.8000005,2.46029026 C4.7723525,2.460638 4.742365,2.4845145 4.7437505,2.538419 C4.7465215,2.64625 4.7420615,2.683493 4.7531255,2.741544 C4.7641895,2.7996165 4.8077075,2.817766 4.8187505,2.7431065 C4.828523,2.677241 4.8387285,2.5796575 4.8468755,2.5274815 C4.8537935,2.483245 4.827649,2.4599505 4.8000005,2.46029026 Z M4.41773471,2.488419 C4.39137765,2.491937 4.36404879,2.517446 4.36562814,2.544669 C4.36849504,2.594428 4.38284415,2.654115 4.38842477,2.729044 C4.39417994,2.8064535 4.45103863,2.7763855 4.45681464,2.732169 C4.46256981,2.687933 4.46908157,2.622559 4.46332796,2.5368565 C4.46117023,2.504711 4.4465387,2.490575 4.42913303,2.488419 C4.42550745,2.4879705 4.42149993,2.4879165 4.41773471,2.488419 Z M4.97178584,2.488419 C4.95438013,2.490575 4.93974963,2.504711 4.93759085,2.5368565 C4.93183723,2.622559 4.93835004,2.687933 4.94410418,2.732169 C4.9498802,2.7763855 5.00674003,2.8064535 5.01249417,2.729044 C5.01807479,2.654115 5.03242497,2.594428 5.03529083,2.544669 C5.03687019,2.517446 5.00954233,2.491937 4.98318417,2.488419 C4.97941895,2.4879165 4.97541247,2.4879705 4.97178584,2.488419 Z M4.20491565,2.575919 C4.1778982,2.5819025 4.15308724,2.609747 4.16115939,2.641544 C4.17727978,2.7051385 4.19215341,2.7754495 4.19215341,2.8399815 C4.19215399,2.895283 4.2472618,2.87555 4.2504951,2.8368565 C4.25370506,2.798142 4.25961098,2.716182 4.25961098,2.641544 C4.25961098,2.585816 4.23193369,2.569936 4.20491565,2.575919 Z M5.18802653,2.575919 C5.16884438,2.5804735 5.151563,2.599748 5.151563,2.641544 C5.151563,2.716182 5.15747009,2.798142 5.16067888,2.8368565 C5.16391218,2.87555 5.21902112,2.895283 5.21902054,2.8399815 C5.21902054,2.7754495 5.23389533,2.7051385 5.25001454,2.641544 C5.25808669,2.609747 5.23327691,2.5819025 5.2062583,2.575919 C5.19950409,2.574423 5.19442078,2.574401 5.18802653,2.575919 Z M2.2281255,2.584467 C2.2004225,2.583547 2.1809865,2.621127 2.2000005,2.662592 C2.230402,2.728958 2.2627035,2.7708295 2.2937505,2.8422795 C2.3214015,2.905874 2.363815,2.866224 2.3500005,2.821967 C2.336165,2.7777305 2.321154,2.7284615 2.279688,2.634467 C2.2641315,2.5992115 2.2447475,2.5850195 2.2281255,2.584467 Z M7.1687505,2.584467 C7.1521285,2.5850195 7.1327445,2.5992115 7.117188,2.634467 C7.075722,2.7284615 7.060711,2.7777305 7.0468755,2.821967 C7.033061,2.866224 7.0754745,2.905874 7.1031255,2.8422795 C7.1341725,2.7708295 7.166474,2.728958 7.1968755,2.662592 C7.2158895,2.621127 7.1964535,2.583547 7.1687505,2.584467 Z M2.4281255,2.587592 C2.4077345,2.593815 2.3953735,2.6196805 2.407813,2.650092 C2.4327135,2.7109155 2.468642,2.773268 2.4937505,2.8391545 C2.515859,2.8972065 2.565045,2.880747 2.548438,2.828217 C2.531852,2.7756875 2.526923,2.744942 2.4937505,2.6454045 C2.4771545,2.5956465 2.448517,2.5813695 2.4281255,2.587592 Z M6.9531255,2.587592 C6.9356905,2.5913145 6.9155725,2.608086 6.9031255,2.6454045 C6.869953,2.744942 6.865024,2.7756875 6.848438,2.828217 C6.831831,2.880747 6.881017,2.8972065 6.9031255,2.8391545 C6.928234,2.773268 6.9641625,2.7109155 6.989063,2.650092 C7.0015025,2.6196805 6.9891415,2.593815 6.9687505,2.587592 C6.9636525,2.5860365 6.958937,2.586351 6.9531255,2.587592 Z M2.6781255,2.6360295 C2.652419,2.6409215 2.632513,2.6801385 2.6500005,2.728217 C2.67213,2.7890405 2.7036,2.846601 2.7312505,2.915717 C2.7589015,2.9848335 2.804815,2.9708905 2.7937505,2.9266545 C2.782687,2.882418 2.7691315,2.8091105 2.735938,2.6985295 C2.7214255,2.6501415 2.69812,2.632225 2.6781255,2.6360295 Z M6.7187505,2.6360295 C6.698756,2.632225 6.6754505,2.6501415 6.660938,2.6985295 C6.6277445,2.8091105 6.614189,2.882418 6.6031255,2.9266545 C6.592061,2.9708905 6.6379745,2.9848335 6.6656255,2.915717 C6.693276,2.846601 6.724746,2.7890405 6.7468755,2.728217 C6.764363,2.6801385 6.744457,2.6409215 6.7187505,2.6360295 Z M2.0593755,2.6704045 C2.031532,2.673248 2.0061695,2.7186665 2.023438,2.753217 C2.05111,2.8085185 2.068621,2.8273325 2.095313,2.8860295 C2.122964,2.946853 2.153252,2.8997445 2.142188,2.8610295 C2.131124,2.822315 2.116941,2.7772465 2.1031255,2.721967 C2.0929995,2.6814685 2.076082,2.6686985 2.0593755,2.6704045 Z M7.3375005,2.6704045 C7.320794,2.6686985 7.3038765,2.6814685 7.2937505,2.721967 C7.279935,2.7772465 7.265752,2.822315 7.254688,2.8610295 C7.243624,2.8997445 7.273912,2.946853 7.301563,2.8860295 C7.328255,2.8273325 7.345766,2.8085185 7.373438,2.753217 C7.3907065,2.7186665 7.365344,2.673248 7.3375005,2.6704045 Z M3.985938,2.81029399 C3.9567505,2.810268 3.9255715,2.849012 3.935938,2.885294 C3.9525245,2.943367 3.978164,2.9948435 3.9968755,3.069669 C4.013462,3.1360145 4.060584,3.1029685 4.057813,3.0587315 C4.0550425,3.0144955 4.047463,2.95431 4.0281255,2.860294 C4.020867,2.825046 4.003451,2.81031 3.985938,2.81029399 Z M5.410938,2.81029399 C5.393425,2.81031 5.37601,2.825046 5.3687505,2.860294 C5.349413,2.95431 5.3418345,3.0144955 5.339063,3.0587315 C5.336292,3.1029685 5.383415,3.1360145 5.4000005,3.069669 C5.418712,2.9948435 5.4443525,2.943367 5.460938,2.885294 C5.4713045,2.849012 5.4401265,2.810268 5.410938,2.81029399 Z M4.698438,2.869669 C4.662479,2.869669 4.6575115,2.9179495 4.6562505,2.957169 C4.652118,3.085733 4.5987585,3.210596 4.5531255,3.272794 C4.507514,3.3350125 4.4403445,3.3184665 4.3781255,3.285294 C4.3159075,3.2521225 4.278845,3.227261 4.2125005,3.1774815 C4.146135,3.127724 4.0958205,3.1568165 4.1750005,3.269669 C4.4058735,3.5986845 4.6562505,3.87991 4.6562505,4.416544 C4.656251,4.485931 4.6683735,4.507169 4.698438,4.507169 C4.7285025,4.507169 4.742187,4.485931 4.742188,4.416544 C4.742188,3.87991 4.9910035,3.5986845 5.2218755,3.269669 C5.3010555,3.1568165 5.250742,3.127724 5.1843755,3.1774815 C5.118031,3.227261 5.0809695,3.2521225 5.0187505,3.285294 C4.9565315,3.3184665 4.889363,3.3350125 4.8437505,3.272794 C4.7981175,3.210596 4.744759,3.085733 4.7406255,2.957169 C4.7393645,2.9179495 4.734398,2.869669 4.698438,2.869669 Z M2.9343755,2.7891479 C2.9312295,2.7890685 2.9277985,2.789836 2.9250005,2.790717 C2.9115715,2.7949475 2.9026245,2.8111575 2.907813,2.8391545 C2.917086,2.8892675 2.9518105,2.98748 2.9656255,3.034467 C2.979462,3.081476 3.037253,3.071478 3.023438,3.0079045 C3.009603,2.9443105 3.010337,2.925104 2.9937505,2.853217 C2.9846805,2.813904 2.9564025,2.7897585 2.9343755,2.7891479 Z M6.4625005,2.7891479 C6.4404735,2.7897585 6.4121965,2.813904 6.4031255,2.853217 C6.386539,2.925104 6.387274,2.9443105 6.373438,3.0079045 C6.359623,3.071478 6.417415,3.081476 6.4312505,3.034467 C6.4450655,2.98748 6.47979,2.8892675 6.489063,2.8391545 C6.4942515,2.8111575 6.4853045,2.7949475 6.4718755,2.790717 C6.4690775,2.789836 6.4656475,2.7890685 6.4625005,2.7891479 Z M1.885938,2.809467 C1.8569985,2.8117325 1.8362455,2.8480905 1.8656255,2.9016545 C1.8973185,2.959498 1.951684,3.032064 1.976563,3.0735295 C2.001443,3.1149955 2.0444845,3.087018 2.014063,3.034467 C1.983662,2.9819385 1.9734445,2.921605 1.9375005,2.846967 C1.9240225,2.8189705 1.903302,2.808108 1.885938,2.809467 Z M7.510938,2.809467 C7.493574,2.808108 7.4728535,2.8189705 7.4593755,2.846967 C7.4234315,2.921605 7.413214,2.9819385 7.382813,3.034467 C7.3523915,3.087018 7.395433,3.1149955 7.420313,3.0735295 C7.445192,3.032064 7.4995575,2.959498 7.5312505,2.9016545 C7.5606305,2.8480905 7.5398775,2.8117325 7.510938,2.809467 Z M0.301563,2.975919 C0.2681725,2.974145 0.2577045,3.0344315 0.289063,3.0743565 C0.3346965,3.1324085 0.3664505,3.1632025 0.4187505,3.210294 C0.460237,3.2476135 0.472296,3.1991755 0.451563,3.1618565 C0.430831,3.124538 0.400841,3.086575 0.3593755,3.0243565 C0.336644,2.990256 0.3167405,2.9767255 0.301563,2.975919 Z M9.095313,2.975919 C9.0801355,2.9767255 9.060232,2.990256 9.0375005,3.0243565 C8.996035,3.086575 8.966045,3.124538 8.945313,3.1618565 C8.92458,3.1991755 8.936639,3.2476135 8.9781255,3.210294 C9.0304255,3.1632025 9.0621795,3.1324085 9.107813,3.0743565 C9.1391715,3.0344315 9.1287035,2.974145 9.095313,2.975919 Z M0.5531255,3.02591437 C0.5265145,3.026266 0.5089555,3.0459215 0.529688,3.091544 C0.5593815,3.1568475 0.598538,3.230827 0.623438,3.2806065 C0.648318,3.330366 0.7241515,3.347078 0.6937505,3.269669 C0.6633295,3.1922605 0.6573385,3.152494 0.629688,3.0806065 C0.615863,3.0446635 0.579737,3.0255725 0.5531255,3.02591437 Z M8.8437505,3.02591437 C8.817139,3.0255725 8.781013,3.0446635 8.767188,3.0806065 C8.7395375,3.152494 8.7335465,3.1922605 8.7031255,3.269669 C8.6727245,3.347078 8.748558,3.330366 8.773438,3.2806065 C8.798338,3.230827 8.8374945,3.1568475 8.867188,3.091544 C8.8879205,3.0459215 8.8703615,3.026266 8.8437505,3.02591437 Z M0.0656255,3.04310324 C0.026937,3.0435015 0.023604,3.08229 0.057813,3.107169 C0.103446,3.140342 0.1578245,3.177161 0.210938,3.219669 C0.2731365,3.269428 0.297235,3.223655 0.264063,3.182169 C0.230891,3.140704 0.1985765,3.098655 0.1156255,3.057169 C0.094888,3.046803 0.0785215,3.042975 0.0656255,3.04310324 Z M9.3312505,3.04310324 C9.3183545,3.042975 9.301988,3.046803 9.2812505,3.057169 C9.1982995,3.098655 9.165985,3.140704 9.132813,3.182169 C9.099641,3.223655 9.1237395,3.269428 9.185938,3.219669 C9.2390515,3.177161 9.2934295,3.140342 9.339063,3.107169 C9.373272,3.08229 9.3699385,3.0435015 9.3312505,3.04310324 Z M3.848438,3.079044 C3.82679,3.0820725 3.8081175,3.106661 3.817188,3.138419 C3.8337745,3.196471 3.8526025,3.2579915 3.864063,3.3181065 C3.875128,3.3761795 3.942315,3.3768865 3.9312505,3.3243565 C3.9202075,3.2718275 3.9146495,3.2060995 3.895313,3.125919 C3.8880545,3.095852 3.8728975,3.0814085 3.857813,3.079044 C3.854671,3.078552 3.8515305,3.0786115 3.848438,3.079044 Z M5.539063,3.079044 C5.5239785,3.0814085 5.5088225,3.095852 5.501563,3.125919 C5.4822265,3.2060995 5.4766695,3.2718275 5.4656255,3.3243565 C5.454561,3.3768865 5.521749,3.3761795 5.532813,3.3181065 C5.5442735,3.2579915 5.5631025,3.196471 5.579688,3.138419 C5.5887585,3.106661 5.570087,3.0820725 5.548438,3.079044 C5.5453455,3.0786115 5.542206,3.078552 5.539063,3.079044 Z M2.3437505,2.9797795 C2.326752,2.984478 2.316971,3.0169775 2.329688,3.062592 C2.4002,3.315574 2.421815,3.4488105 2.4093755,3.5110295 C2.3969365,3.5732285 2.3628,3.581762 2.317188,3.5610295 C2.2715765,3.540297 2.218028,3.510368 2.176563,3.481342 C2.135098,3.452296 2.0919695,3.487042 2.151563,3.5360295 C2.454303,3.7848645 2.664153,4.069241 2.745313,4.4141545 C2.7619,4.484647 2.8061905,4.492939 2.7937505,4.4141545 C2.725135,3.9796645 2.711941,3.6224845 2.8156255,3.3985295 C2.854591,3.314369 2.8153445,3.2335475 2.7531255,3.3704045 C2.7116605,3.4616505 2.644551,3.4976475 2.5906255,3.418842 C2.53672,3.340058 2.42536,3.1298585 2.392188,3.034467 C2.379741,2.9986955 2.364389,2.982146 2.351563,2.9797795 C2.3488915,2.979287 2.346179,2.9791085 2.3437505,2.9797795 Z M7.045313,2.9797795 C7.032487,2.982146 7.017135,2.9986955 7.004688,3.034467 C6.971516,3.1298585 6.860156,3.340058 6.8062505,3.418842 C6.752325,3.4976475 6.6852155,3.4616505 6.6437505,3.3704045 C6.5815315,3.2335475 6.542285,3.314369 6.5812505,3.3985295 C6.684935,3.6224845 6.671741,3.9796645 6.6031255,4.4141545 C6.5906855,4.492939 6.634976,4.484647 6.651563,4.4141545 C6.732723,4.069241 6.942573,3.7848645 7.245313,3.5360295 C7.3049065,3.487042 7.261778,3.452296 7.220313,3.481342 C7.178848,3.510368 7.1252995,3.540297 7.079688,3.5610295 C7.034076,3.581762 6.9999395,3.5732285 6.9875005,3.5110295 C6.975061,3.4488105 6.996676,3.315574 7.067188,3.062592 C7.079905,3.0169775 7.070124,2.984478 7.0531255,2.9797795 C7.050697,2.9791085 7.0479845,2.979287 7.045313,2.9797795 Z M0.8218755,3.10091381 C0.794572,3.101266 0.771936,3.120391 0.7843755,3.1618565 C0.804317,3.228285 0.8455605,3.3000785 0.8593755,3.341544 C0.8732115,3.3830105 0.9176685,3.3636585 0.9093755,3.3056065 C0.9010835,3.2475555 0.8970025,3.212951 0.885938,3.1493565 C0.8804065,3.1175705 0.8491795,3.1005725 0.8218755,3.10091381 Z M8.5750005,3.10091381 C8.5476965,3.1005725 8.5164695,3.1175705 8.510938,3.1493565 C8.4998735,3.212951 8.4957925,3.2475555 8.4875005,3.3056065 C8.4792075,3.3636585 8.5236645,3.3830105 8.5375005,3.341544 C8.5513155,3.3000785 8.592559,3.228285 8.6125005,3.1618565 C8.62494,3.120391 8.602304,3.101266 8.5750005,3.10091381 Z M1.760938,3.0141545 C1.729186,3.0084565 1.724621,3.090367 1.751563,3.1235295 C1.7875075,3.167788 1.8374295,3.221269 1.8875005,3.281342 C1.9289665,3.331122 1.9545875,3.2868705 1.929688,3.2454045 C1.9048095,3.2039185 1.867907,3.159839 1.801563,3.0547795 C1.784972,3.028515 1.771522,3.016054 1.760938,3.0141545 Z M7.635938,3.0141545 C7.625354,3.016054 7.611904,3.028515 7.595313,3.0547795 C7.528969,3.159839 7.4920665,3.2039185 7.467188,3.2454045 C7.4422885,3.2868705 7.4679095,3.331122 7.5093755,3.281342 C7.5594465,3.221269 7.6093685,3.167788 7.645313,3.1235295 C7.672255,3.090367 7.66769,3.0084565 7.635938,3.0141545 Z M1.03774802,3.2118565 C1.01687017,3.210474 0.999154583,3.226454 1.00794297,3.266544 C1.0201988,3.3223665 1.03798858,3.3687015 1.05265054,3.4212315 C1.06729184,3.473762 1.1056373,3.464761 1.1056373,3.4149815 C1.1056373,3.365223 1.09621148,3.309699 1.0874231,3.257169 C1.08302944,3.2309045 1.05862639,3.2132395 1.03774802,3.2118565 Z M8.36476478,3.2118565 C8.34388641,3.2132395 8.31948336,3.2309045 8.3150897,3.257169 C8.30630131,3.309699 8.2968755,3.365223 8.2968755,3.4149815 C8.2968755,3.464761 8.33522096,3.473762 8.34986226,3.4212315 C8.36452422,3.3687015 8.38231399,3.3223665 8.39456983,3.266544 C8.40335821,3.226454 8.38564262,3.210474 8.36476478,3.2118565 Z M1.6906255,3.2829045 C1.6596825,3.2875795 1.632455,3.3174925 1.6687505,3.3641545 C1.7268035,3.438792 1.7903715,3.4911915 1.8125005,3.518842 C1.834609,3.5464935 1.8906315,3.5362895 1.854688,3.478217 C1.817953,3.4188945 1.76238,3.347454 1.7375005,3.303217 C1.7281715,3.2866285 1.7091915,3.2801 1.6906255,3.2829045 Z M7.6937505,3.2829045 C7.6801425,3.284335 7.6663725,3.2907755 7.6593755,3.303217 C7.634496,3.347454 7.578923,3.4188945 7.542188,3.478217 C7.5062445,3.5362895 7.562267,3.5464935 7.5843755,3.518842 C7.6065045,3.4911915 7.6700725,3.438792 7.7281255,3.3641545 C7.764421,3.3174925 7.7371935,3.2875795 7.7062505,3.2829045 C7.701609,3.2822035 7.6982865,3.2824275 7.6937505,3.2829045 Z M0.657813,3.491544 C0.6334,3.489327 0.624969,3.5090235 0.657813,3.554044 C0.7324515,3.656333 0.814791,3.8111365 0.820313,3.8774815 C0.8258565,3.9438475 0.7930475,3.9431065 0.7625005,3.9431065 C0.671256,3.9431075 0.6266815,3.876506 0.5437505,3.857169 C0.4607995,3.8378125 0.448761,3.8814325 0.507813,3.9243565 C0.811928,4.145541 1.1167505,4.392318 1.239063,4.616544 C1.2888225,4.707789 1.3560905,4.741142 1.3187505,4.654044 C1.2043975,4.3871855 1.1766835,4.161213 1.201563,4.0243565 C1.226463,3.8875005 1.260397,3.795349 1.2562505,3.716544 C1.252105,3.63776 1.20742,3.6431355 1.189063,3.716544 C1.1766235,3.766324 1.152524,3.832269 1.135938,3.857169 C1.1193525,3.8820495 1.052657,3.8959965 0.989063,3.810294 C0.9254685,3.724593 0.7650305,3.559572 0.7125005,3.5181065 C0.6928025,3.5025575 0.672461,3.4928745 0.657813,3.491544 Z M8.739063,3.491544 C8.724415,3.4928745 8.7040735,3.5025575 8.6843755,3.5181065 C8.6318455,3.559572 8.4714075,3.724593 8.407813,3.810294 C8.344219,3.8959965 8.2775235,3.8820495 8.260938,3.857169 C8.244352,3.832269 8.2202525,3.766324 8.207813,3.716544 C8.189456,3.6431355 8.144771,3.63776 8.1406255,3.716544 C8.136479,3.795349 8.170413,3.8875005 8.195313,4.0243565 C8.2201925,4.161213 8.1924785,4.3871855 8.0781255,4.654044 C8.0407855,4.741142 8.1080535,4.707789 8.157813,4.616544 C8.2801255,4.392318 8.584948,4.145541 8.889063,3.9243565 C8.948115,3.8814325 8.9360765,3.8378125 8.8531255,3.857169 C8.7701945,3.876506 8.72562,3.9431075 8.6343755,3.9431065 C8.6038285,3.9431065 8.5710195,3.9438475 8.576563,3.8774815 C8.582085,3.8111365 8.6644245,3.656333 8.739063,3.554044 C8.771907,3.5090235 8.763476,3.489327 8.739063,3.491544 Z" id="Shape" fill="#000000"></path>
                    <path d="M1.1063435,5.31291015 L1.2063435,5.779182 M1.306871,5.22453419 L1.406871,5.69577522 M1.523484,5.17073257 L1.623484,5.6514143 M1.7244965,5.10999072 L1.8244965,5.58945432 M1.9822765,5.07155808 L2.0822765,5.55426449 M2.2565035,5.0720633 L2.3565035,5.55376077 M2.5291035,4.93534503 L2.6094555,5.42053301 M2.7809455,4.95988586 L2.8612975,5.44507384 M3.0246635,4.91080497 L3.1050155,5.39599295 M3.2783335,4.87267516 L3.3225335,5.36050179 M3.541224,4.87253394 L3.579574,5.36064302 M3.77966275,4.84787531 L3.81232375,5.33622076 M4.0423945,4.82323782 L4.0695225,5.3117766 M4.34298,4.81096741 L4.370108,5.29950619 M8.293045,5.31291015 L8.193045,5.779182 M8.1036225,5.22453419 L8.0036225,5.69577522 M7.9140395,5.17073257 L7.8140395,5.6514143 M7.7088555,5.10999072 L7.6088555,5.58945432 M7.4629515,5.07155808 L7.3629515,5.55426449 M7.184751,5.0720633 L7.084751,5.55376077 M6.917772,4.93534503 L6.83742,5.42053301 M6.66593,4.95988586 L6.585578,5.44507384 M6.422212,4.91080497 L6.34186,5.39599295 M6.168542,4.87267516 L6.124342,5.36050179 M5.9056515,4.87253394 L5.8673015,5.36064302 M5.66721275,4.84787531 L5.63455175,5.33622076 M5.404481,4.82323782 L5.377353,5.3117766 M5.1038955,4.81096741 L5.0767675,5.29950619 M4.723438,4.779182 L4.723438,5.31711961" id="Shape" fill="#FFD83D"></path>
                </g>
            </g>
        </g>
    </g>
</svg>