<svg width="52" height="39" viewBox="0 0 52 39" fill="none" xmlns="http://www.w3.org/2000/svg">
<g clip-path="url(#clip0_608_13183)">
<path fill-rule="evenodd" clip-rule="evenodd" d="M26 0H52V39H26V0Z" fill="#CE0000"/>
<path fill-rule="evenodd" clip-rule="evenodd" d="M0 0H26V39H0V0Z" fill="white"/>
<path fill-rule="evenodd" clip-rule="evenodd" d="M12.6045 11.5256C12.6045 11.6425 12.4876 11.7204 12.3447 11.7204C12.1889 11.7204 12.085 11.6425 12.085 11.5386C12.085 11.4347 12.1889 11.3438 12.3447 11.3438C12.4876 11.3438 12.6045 11.4347 12.6045 11.5386V11.5256Z" fill="#F1EEEE"/>
<path fill-rule="evenodd" clip-rule="evenodd" d="M4.27881 10.6162V15.448H9.12357C9.12357 16.2532 9.92886 17.0585 10.7342 17.0585V21.8903H15.5789V17.0585C16.3842 17.0585 17.1895 16.2532 17.1895 15.448H22.0213V10.6162H17.1765C17.1765 9.81089 16.3712 9.0056 15.5659 9.0056V4.17383H10.7342V9.0056C9.91587 9.0056 9.11058 9.81089 9.11058 10.6162H4.27881Z" fill="#CC0000"/>
<path fill-rule="evenodd" clip-rule="evenodd" d="M4.44775 10.7724V15.2925H9.27952C9.27952 16.0978 10.0848 16.9031 10.8901 16.9031V21.7348H15.3972V16.9161C16.2025 16.9161 17.0078 16.1108 17.0078 15.3055H21.8525V10.7854H17.0207C17.0207 9.98013 16.2154 9.17484 15.4102 9.17484V4.33008H10.8901V9.16185C10.0848 9.16185 9.27952 9.96714 9.27952 10.7724H4.44775Z" fill="#FFE600"/>
<path fill-rule="evenodd" clip-rule="evenodd" d="M4.60352 10.9404V15.1227H9.43528C9.43528 15.928 10.2406 16.7333 11.0459 16.7333V21.5651H15.2412V16.7333C16.0465 16.7333 16.8518 15.928 16.8518 15.1227H21.6836V10.9404H16.8518C16.8518 10.1351 16.0465 9.32982 15.2412 9.32982V4.49805H11.0459V9.31683C10.2406 9.31683 9.43528 10.1221 9.43528 10.9274H4.60352V10.9404Z" fill="#707070"/>
<path fill-rule="evenodd" clip-rule="evenodd" d="M4.77227 11.0967V14.9673H9.60403C9.60403 15.7726 10.4093 16.5779 11.2146 16.5779V21.3966H15.0722V16.5649C15.8775 16.5649 16.6828 15.7596 16.6828 14.9543H21.5146V11.0837H16.6828C16.6828 10.2784 15.8775 9.47308 15.0722 9.47308V4.6543H11.2146V9.48607C10.4093 9.48607 9.60403 10.2914 9.60403 11.0967H4.75928H4.77227Z" fill="#A0A0A0"/>
<path fill-rule="evenodd" clip-rule="evenodd" d="M11.2537 9.08377C11.5265 9.36952 11.3057 10.0579 10.7342 10.6294C10.1627 11.2009 9.4873 11.4087 9.20155 11.149C8.9158 10.8502 9.14959 10.1618 9.72109 9.59033C10.2926 9.01883 10.968 8.81101 11.2537 9.08377Z" fill="#D0D0D0"/>
<path fill-rule="evenodd" clip-rule="evenodd" d="M10.9031 9.42207C11.1888 9.70782 11.1109 10.2404 10.7342 10.63C10.3575 11.0197 9.825 11.0846 9.53925 10.7989C9.2535 10.5131 9.33143 9.98058 9.7081 9.60391C10.0848 9.22724 10.6173 9.14931 10.9031 9.42207Z" fill="#808080"/>
<path fill-rule="evenodd" clip-rule="evenodd" d="M9.4873 10.278L9.59121 10.174L10.0458 10.3948L9.82501 9.94025L9.94191 9.82335L10.3965 10.7326L9.4873 10.278ZM10.1627 9.60254L10.2926 9.47266L10.968 10.174L10.8511 10.278L10.1627 9.60254Z" fill="#D0D0D0"/>
<path fill-rule="evenodd" clip-rule="evenodd" d="M17.0857 11.1351C16.7999 11.4208 16.1115 11.1871 15.553 10.6156C14.9945 10.0441 14.7477 9.36864 15.0335 9.08289C15.3192 8.79714 16.0076 9.03094 16.5791 9.60244C17.1506 10.1739 17.3584 10.8493 17.0987 11.1351H17.0857Z" fill="#D0D0D0"/>
<path fill-rule="evenodd" clip-rule="evenodd" d="M16.7481 10.7981C16.4623 11.0838 15.9298 11.0059 15.5531 10.6292C15.1765 10.2526 15.0985 9.72002 15.3713 9.43427C15.657 9.14852 16.2026 9.22645 16.5792 9.60312C16.9559 9.97979 17.0338 10.5123 16.7481 10.7981Z" fill="#808080"/>
<path fill-rule="evenodd" clip-rule="evenodd" d="M15.8906 9.36914L16.0075 9.48604L15.7737 9.94064L16.2283 9.70684L16.3582 9.83673L15.436 10.2783L15.8906 9.36914ZM16.579 10.0575L16.6829 10.1614L16.0075 10.8498L15.8906 10.7329L16.579 10.0575Z" fill="#D0D0D0"/>
<path fill-rule="evenodd" clip-rule="evenodd" d="M15.0333 16.9803C14.7476 16.6945 14.9814 16.0061 15.5529 15.4346C16.1244 14.8631 16.7998 14.6423 17.0855 14.9151C17.3713 15.2008 17.1375 15.8892 16.566 16.4607C15.9945 17.0322 15.3191 17.253 15.0333 16.9803Z" fill="#D0D0D0"/>
<path fill-rule="evenodd" clip-rule="evenodd" d="M15.384 16.6301C15.0982 16.3444 15.1762 15.8118 15.5528 15.4352C15.9295 15.0585 16.462 14.9805 16.7478 15.2663C17.0335 15.552 16.9556 16.0846 16.5789 16.4613C16.2023 16.8379 15.6697 16.9159 15.371 16.6301H15.384Z" fill="#808080"/>
<path fill-rule="evenodd" clip-rule="evenodd" d="M16.7997 15.773L16.6828 15.9028L16.2282 15.6691L16.462 16.1237L16.3451 16.2276L15.8905 15.3184L16.7997 15.773ZM16.1373 16.4614L16.0074 16.5783L15.332 15.8899L15.4489 15.773L16.1373 16.4614Z" fill="#D0D0D0"/>
<path fill-rule="evenodd" clip-rule="evenodd" d="M9.20144 14.9289C9.48719 14.6432 10.1756 14.877 10.7341 15.4355C11.2926 15.994 11.5264 16.6954 11.2536 16.9681C10.9679 17.2539 10.2795 17.0331 9.708 16.4616C9.1365 15.8901 8.92868 15.2017 9.18846 14.9289H9.20144Z" fill="#D0D0D0"/>
<path fill-rule="evenodd" clip-rule="evenodd" d="M9.53925 15.2663C9.825 14.9805 10.3575 15.0585 10.7342 15.4352C11.1109 15.8118 11.1888 16.3444 10.9031 16.6301C10.6303 16.9159 10.0848 16.8379 9.7081 16.4613C9.33143 16.0846 9.2535 15.552 9.53925 15.2663Z" fill="#808080"/>
<path fill-rule="evenodd" clip-rule="evenodd" d="M10.3963 16.6955L10.2794 16.5657L10.5132 16.124L10.0586 16.3449L9.92872 16.228L10.8509 15.7734L10.3963 16.6826V16.6955ZM9.70791 16.0072L9.604 15.8903L10.2794 15.2148L10.3963 15.3188L9.70791 16.0072Z" fill="#D0D0D0"/>
<path d="M16.537 13.0349C16.537 14.8989 15.0226 16.4174 13.153 16.4174C11.2834 16.4174 9.77344 14.9034 9.77344 13.0349C9.77344 11.1663 11.2878 9.65234 13.1574 9.65234C15.0271 9.65234 16.5414 11.1663 16.5414 13.0349H16.537Z" stroke="#707070" stroke-width="0.0921716"/>
<path d="M15.7156 13.0283C15.7156 14.4486 14.5618 15.6055 13.1374 15.6055C11.7129 15.6055 10.5625 14.452 10.5625 13.0283C10.5625 11.6047 11.7163 10.4512 13.1408 10.4512C14.5652 10.4512 15.719 11.6047 15.719 13.0283H15.7156Z" stroke="#707070" stroke-width="0.0702257"/>
<path fill-rule="evenodd" clip-rule="evenodd" d="M12.02 15.7717C12.02 15.8148 12.0029 15.8561 11.9725 15.8865C11.942 15.917 11.9007 15.9341 11.8577 15.9341C11.8146 15.9341 11.7733 15.917 11.7429 15.8865C11.7124 15.8561 11.6953 15.8148 11.6953 15.7717C11.6953 15.7287 11.7124 15.6874 11.7429 15.6569C11.7733 15.6265 11.8146 15.6094 11.8577 15.6094C11.9007 15.6094 11.942 15.6265 11.9725 15.6569C12.0029 15.6874 12.02 15.7287 12.02 15.7717ZM14.5918 15.7717C14.5918 15.8148 14.5747 15.8561 14.5442 15.8865C14.5138 15.917 14.4725 15.9341 14.4294 15.9341C14.3864 15.9341 14.3451 15.917 14.3146 15.8865C14.2842 15.8561 14.2671 15.8148 14.2671 15.7717C14.2671 15.7287 14.2842 15.6874 14.3146 15.6569C14.3451 15.6265 14.3864 15.6094 14.4294 15.6094C14.4725 15.6094 14.5138 15.6265 14.5442 15.6569C14.5747 15.6874 14.5918 15.7287 14.5918 15.7717ZM13.0331 15.7717V15.9406H12.8253C12.6045 15.9406 12.6045 16.1094 12.8253 16.1094H13.0331V16.2653C13.0331 16.4471 13.228 16.4601 13.241 16.2783V16.0964H13.4618C13.6826 16.0964 13.6826 15.9406 13.4618 15.9406H13.2539V15.7717C13.2539 15.6029 13.0331 15.6029 13.0331 15.7717Z" fill="#D0D0D0"/>
<path fill-rule="evenodd" clip-rule="evenodd" d="M12.3447 13.3819V13.4859C12.3447 13.4859 12.2928 13.5508 11.9681 13.5768C11.6433 13.6028 11.5914 13.5768 11.5914 13.5768C11.6044 13.6677 11.6693 13.8236 11.6433 14.0054C11.6563 14.2262 11.5914 14.421 11.5914 14.421C11.5914 14.434 11.5524 14.447 11.4875 14.434C11.5394 14.3821 11.5394 14.2522 11.5394 14.0444C11.5394 13.8625 11.3446 13.5638 11.3836 13.4859C11.4225 13.4079 12.3447 13.3819 12.3447 13.3819ZM13.6176 13.0442L14.4619 13.0312C14.4619 13.0312 14.5918 13.291 14.5788 13.4209C14.5788 13.5508 14.5268 13.6807 14.4749 13.6157C14.4099 13.5508 14.5008 13.5638 14.5138 13.4209C14.5138 13.265 14.4099 13.1222 14.4099 13.1222C14.4099 13.1222 14.1761 13.2131 13.8384 13.2001C13.5007 13.1741 13.6566 13.0442 13.6176 13.0442Z" fill="#D0D0D0" stroke="#707070" stroke-width="0.0199825"/>
<path fill-rule="evenodd" clip-rule="evenodd" d="M13.7215 13.2926C14.0332 13.2796 14.241 13.3186 14.241 13.3186C14.241 13.3186 14.3709 13.5783 14.3709 13.7082C14.3579 13.8381 14.319 13.968 14.254 13.9031C14.2021 13.8511 14.28 13.8641 14.293 13.7082C14.293 13.5653 14.1891 13.4095 14.1891 13.4095C14.1891 13.4095 13.9683 13.5004 13.6306 13.4874C13.2929 13.4614 13.3968 13.4485 13.3578 13.4355C13.3188 13.4355 13.3059 13.5394 12.7993 13.5524C12.2798 13.5524 12.02 13.4355 12.02 13.4355C12.02 13.4355 11.968 13.5134 11.6563 13.5394H11.2666C11.2796 13.6173 11.3446 13.7732 11.3316 13.968C11.3316 14.1758 11.2666 14.3836 11.2666 14.3836H11.1757C11.2277 14.3447 11.2147 14.2018 11.2277 14.007C11.2277 13.8121 11.0199 13.5264 11.0588 13.4355C11.1108 13.3575 11.3446 13.4355 11.3835 13.3965C11.4225 13.3445 11.1757 13.0458 11.2277 12.773C11.2666 12.5003 11.5394 12.5782 11.8641 12.5782C12.1888 12.5912 12.9032 12.6821 13.085 12.5782C13.2669 12.4873 13.189 12.1366 13.3448 11.9158C13.3966 11.8526 13.4621 11.8022 13.5364 11.7684C13.6108 11.7347 13.6918 11.7184 13.7734 11.721C13.8903 11.721 14.0332 12.1106 14.0332 12.2015L13.9943 12.2535H13.9423V12.2925C13.8124 12.3055 13.7994 12.1886 13.7215 12.1106C13.6955 12.2405 13.8254 12.6821 13.8254 12.9679C13.8254 13.2017 13.7345 13.3056 13.7215 13.2926Z" fill="#D0D0D0" stroke="#707070" stroke-width="0.0199825"/>
<path fill-rule="evenodd" clip-rule="evenodd" d="M12.6953 12.8753C12.6953 12.9663 12.2927 13.1871 12.2537 13.265C12.2278 13.3559 12.3576 13.3949 12.3187 13.4468C12.2797 13.4988 12.2407 13.4728 12.2278 13.4858L12.0719 13.1611C12.0719 13.1611 12.4615 12.9792 12.4486 12.9013C12.4356 12.8234 12.1628 12.7714 12.1109 12.5896C12.0589 12.4077 12.0849 12.0311 12.0459 11.9531C12.0069 11.8752 11.5264 11.7973 11.5264 11.6934C11.5264 11.5635 12.0199 11.2518 12.0719 11.1998C12.1238 11.1478 12.1758 11.2518 12.1238 11.2907C12.0719 11.3427 11.6952 11.6414 11.6952 11.6804C11.6952 11.7323 12.0069 11.7843 12.1109 11.7843C12.2278 11.7843 12.2797 11.7323 12.2797 11.6804C12.2797 11.6414 12.1628 11.6414 12.1628 11.5505C12.1628 11.4596 12.2278 11.3946 12.3317 11.3946C12.3836 11.3946 12.4875 11.4596 12.4875 11.5375C12.4875 11.6154 12.3966 11.6284 12.3836 11.6804C12.3706 11.7453 12.4875 11.7843 12.5914 11.7843C12.6953 11.7843 13.059 12.057 13.111 12.109C13.1759 12.148 13.2279 12.148 13.1759 12.1999C13.124 12.2519 13.1499 12.3038 13.098 12.2519C13.0727 12.2269 13.0547 12.1954 13.046 12.161C13.046 12.122 12.6564 11.9272 12.5914 11.9661C12.5395 12.0181 12.5914 12.5896 12.5914 12.6415C12.5914 12.7325 12.7083 12.7325 12.6953 12.8753Z" fill="#D0D0D0" stroke="#707070" stroke-width="0.0199825"/>
<path fill-rule="evenodd" clip-rule="evenodd" d="M12.02 11.7715H12.6695V12.4339H12.02V11.7715Z" fill="#A7A7A7"/>
<path d="M14.0862 14.1619L11.9547 10.9623C11.9348 10.9324 11.9084 10.9137 11.8958 10.9204C11.8831 10.9272 11.889 10.9568 11.9089 10.9867L14.0404 14.1863C14.0603 14.2162 14.0867 14.2349 14.0993 14.2281C14.112 14.2214 14.1061 14.1917 14.0862 14.1619Z" fill="#808080"/>
<path fill-rule="evenodd" clip-rule="evenodd" d="M12.1881 11.2517C12.1881 11.277 12.1769 11.3012 12.1569 11.3191C12.1369 11.337 12.1098 11.3471 12.0815 11.3471C12.0532 11.3471 12.0261 11.337 12.0061 11.3191C11.9861 11.3012 11.9749 11.277 11.9749 11.2517C11.9749 11.2263 11.9861 11.2021 12.0061 11.1842C12.0261 11.1663 12.0532 11.1562 12.0815 11.1562C12.1098 11.1562 12.1369 11.1663 12.1569 11.1842C12.1769 11.2021 12.1881 11.2263 12.1881 11.2517Z" fill="#D0D0D0" stroke="#707070" stroke-width="0.02914"/>
<path fill-rule="evenodd" clip-rule="evenodd" d="M14.0463 12.1103C14.0463 12.1493 13.7865 12.2012 13.5137 12.2012C13.228 12.2012 12.9812 12.1493 12.9812 12.1103C12.9812 12.0713 13.228 12.1752 13.5007 12.1752C13.7995 12.1752 14.0463 12.0713 14.0463 12.1103Z" fill="#808080"/>
<path fill-rule="evenodd" clip-rule="evenodd" d="M12.072 12.4355H12.6046V12.6304H12.085L12.072 12.4355Z" fill="#A7A7A7"/>
<path fill-rule="evenodd" clip-rule="evenodd" d="M13.7995 11.9663C13.7475 12.0702 13.7085 12.1352 13.6956 12.1222C13.6956 12.1222 13.7215 12.0183 13.7735 11.9273L13.8774 11.7715C13.8904 11.7845 13.8514 11.8754 13.7995 11.9663ZM13.9294 12.2261L13.8254 12.291C13.8524 12.2458 13.8876 12.2062 13.9294 12.1741C13.9943 12.1222 14.0463 12.0962 14.0463 12.1092L13.9423 12.2131L13.9294 12.2261Z" fill="#808080"/>
<path fill-rule="evenodd" clip-rule="evenodd" d="M13.8774 12.0967L13.9423 12.2525L13.8384 12.1227L13.7735 11.9668L13.8774 12.0967ZM13.8254 12.5123C13.8254 12.5123 13.6696 12.5383 13.4618 12.5383C13.2539 12.5383 13.0851 12.5253 13.0851 12.5123L13.4618 12.4863C13.6696 12.4863 13.8254 12.4863 13.8254 12.5123ZM12.6045 12.4604C12.6045 12.4734 12.4876 12.4863 12.3447 12.4863C12.1889 12.4863 12.085 12.4863 12.085 12.4604C12.085 12.4604 12.1889 12.4344 12.3447 12.4344C12.4876 12.4344 12.6045 12.4474 12.6045 12.4604Z" fill="#808080"/>
<path fill-rule="evenodd" clip-rule="evenodd" d="M11.4355 14.1232C11.4355 14.1232 11.5265 14.331 11.9031 14.331C12.2668 14.331 12.3967 14.266 12.2538 14.1621C12.111 14.0582 11.8122 14.0842 11.8642 14.1751C11.8901 14.279 11.7473 14.305 11.7213 14.2401C11.6823 14.1751 11.5524 13.9673 11.7862 13.9543C12.033 13.9413 12.5396 13.8634 12.6695 14.0063C12.7994 14.1491 12.5266 14.266 12.7344 14.305C12.9292 14.331 12.9682 14.266 13.3189 14.253C13.6696 14.2271 13.8125 14.318 13.9294 14.305C14.0592 14.305 14.0333 14.0842 13.9294 14.0452C13.8384 13.9803 13.6566 13.9673 13.6046 13.9153C13.5657 13.8504 13.4358 13.9153 13.4488 13.8374C13.4488 13.7725 13.6306 13.8764 13.6306 13.8504L13.6566 13.8244H13.6176L13.6306 13.7984L13.6046 13.8114L13.6176 13.7855C13.6176 13.7855 13.5787 13.8114 13.5787 13.7855H13.5527C13.5787 13.7595 13.5657 13.7595 13.5527 13.7465H13.5137V13.7075C13.4877 13.7075 13.4877 13.7075 13.4748 13.7335V13.6686C13.4748 13.6556 13.5007 13.6426 13.5397 13.6426C13.6306 13.6426 13.6696 13.7465 13.7086 13.7465C13.7345 13.7465 13.7735 13.6426 13.8904 13.6815L14.0852 13.7595C14.1502 13.7984 14.0463 13.8374 14.0852 13.8894C14.1242 13.9413 14.358 14.1102 14.293 14.305C14.2281 14.4868 14.0333 14.5128 14.0333 14.5907C14.0073 14.6687 14.5918 14.6427 14.7347 14.6687C14.834 14.6867 14.9225 14.7426 14.9814 14.8245L14.7217 14.8375C14.7217 14.8375 14.5918 14.7726 14.2671 14.7596C13.9424 14.7596 13.8255 14.6297 13.6956 14.6037L13.176 14.6297L12.7864 14.5907C12.7084 14.5778 12.2408 14.7986 12.2408 14.8505H11.9291C11.9291 14.8505 11.9681 14.7336 12.1499 14.7206C12.3188 14.6947 12.5006 14.6167 12.4876 14.5648L12.5396 14.2271C12.5396 14.1491 12.6175 14.0972 12.6045 14.0712C12.5915 14.0192 12.3837 13.9803 12.1889 13.9803C11.9941 13.9803 11.7862 13.9933 11.7473 14.0322C11.7213 14.0842 11.7473 14.2271 11.7862 14.2011C11.8252 14.2011 11.7733 14.0972 11.8122 14.0842C11.8964 14.0583 11.9839 14.0452 12.072 14.0452C12.1759 14.0452 12.3448 14.1361 12.3448 14.1751C12.3448 14.1881 12.3967 14.279 12.3188 14.318C12.1891 14.361 12.0524 14.3786 11.9161 14.3699C11.7804 14.3629 11.6477 14.3275 11.5265 14.266C11.4745 14.2271 11.4355 14.1361 11.4355 14.1232Z" fill="#D0D0D0" stroke="#808080" stroke-width="0.0199825"/>
<path fill-rule="evenodd" clip-rule="evenodd" d="M13.7994 13.7987C13.7994 13.8038 13.7984 13.8089 13.7964 13.8136C13.7944 13.8184 13.7916 13.8227 13.788 13.8263C13.7843 13.8299 13.78 13.8328 13.7753 13.8347C13.7706 13.8367 13.7655 13.8377 13.7604 13.8377C13.7553 13.8377 13.7502 13.8367 13.7455 13.8347C13.7408 13.8328 13.7365 13.8299 13.7328 13.8263C13.7292 13.8227 13.7264 13.8184 13.7244 13.8136C13.7224 13.8089 13.7214 13.8038 13.7214 13.7987C13.7214 13.7884 13.7255 13.7785 13.7328 13.7712C13.7402 13.7639 13.7501 13.7598 13.7604 13.7598C13.7707 13.7598 13.7806 13.7639 13.788 13.7712C13.7953 13.7785 13.7994 13.7884 13.7994 13.7987Z" fill="black"/>
<path d="M15.8127 13.1888L16.0205 13.2277L16.3712 12.9939L16.3452 13.1238L16.1633 13.2407L16.0594 13.2927L16.1244 13.3966L16.2413 13.5784L16.2153 13.7083L15.9945 13.3316L15.7867 13.2927L15.8127 13.1888ZM15.462 11.6561L15.8516 11.4743L15.7477 11.2405L15.7997 11.2145L16.0594 11.786L16.0205 11.812L15.9036 11.5652L15.5139 11.76L15.462 11.6561ZM14.8385 10.9028L15.2022 10.5651L15.2801 10.643V11.2145L15.5659 10.9547L15.6308 11.0327L15.2671 11.3704L15.1892 11.2924V10.7209L14.9035 10.9807L14.8385 10.9028ZM13.2279 10.2533L13.2929 9.75977H13.3968L13.3318 10.2144L13.7215 10.2533V10.3183L13.2279 10.2533ZM12.4356 10.3313L12.3447 9.8377L12.4486 9.81172L12.5265 10.2533L12.9162 10.1754V10.2403L12.4356 10.3313ZM10.9679 11.0456L10.9289 11.0067L11.1887 10.7989L11.3186 10.9287C11.2907 10.9849 11.2558 11.0373 11.2147 11.0846C11.181 11.1324 11.1417 11.176 11.0978 11.2145C11.0429 11.2584 10.9816 11.2934 10.9159 11.3184C10.851 11.3314 10.7861 11.3444 10.7471 11.3184C10.6974 11.3131 10.6513 11.29 10.6172 11.2535C10.5909 11.2153 10.5773 11.1699 10.5782 11.1236C10.5782 11.0716 10.5912 11.0067 10.6302 10.9547C10.6562 10.9028 10.7081 10.8508 10.7601 10.8118C10.8033 10.7752 10.8514 10.7446 10.903 10.7209L11.0199 10.6949C11.0458 10.6949 11.0848 10.6949 11.1108 10.7209L11.0588 10.7859C11.0342 10.7754 11.0075 10.771 10.9809 10.7729L10.903 10.7859C10.8699 10.8033 10.8393 10.8252 10.812 10.8508C10.7731 10.8768 10.7341 10.9028 10.7211 10.9417C10.6992 10.9643 10.6816 10.9908 10.6692 11.0197V11.0846C10.6692 11.1236 10.6821 11.1625 10.7081 11.1885L10.799 11.2535L10.9289 11.2405C11.0485 11.19 11.1455 11.0976 11.2017 10.9807L11.1497 10.9028L10.9679 11.0456ZM10.9549 14.6435L10.5393 14.9422L10.2275 14.5006L10.2795 14.4616L10.5393 14.8123L10.6562 14.7214L10.4484 14.4227L10.4873 14.3967L10.7081 14.6954L10.89 14.5656L10.9549 14.6435ZM10.3444 13.9941C10.4094 13.9811 10.4484 13.9421 10.4743 13.8772V13.6823C10.4538 13.6153 10.413 13.5563 10.3574 13.5135C10.3185 13.4745 10.2535 13.4615 10.2016 13.4745C10.1605 13.4835 10.1237 13.5064 10.0977 13.5395C10.0847 13.5654 10.0587 13.6044 10.0587 13.6434L10.0717 13.7862C10.0977 13.8642 10.1236 13.9161 10.1756 13.9681C10.2146 14.007 10.2795 14.02 10.3444 13.9941ZM10.3834 14.098C10.3453 14.1101 10.3047 14.1117 10.2658 14.1025C10.2269 14.0934 10.1913 14.0738 10.1626 14.046C10.0933 13.9836 10.0437 13.9024 10.0197 13.8122C9.99375 13.7343 9.99375 13.6823 9.99375 13.6044C9.99375 13.5265 10.0197 13.5005 10.0457 13.4615C10.0753 13.4152 10.122 13.3826 10.1756 13.3706C10.2192 13.3609 10.2647 13.3654 10.3055 13.3836C10.3574 13.4096 10.3964 13.4355 10.4354 13.4875C10.5151 13.6009 10.552 13.7391 10.5393 13.8772C10.5346 13.9285 10.5167 13.9777 10.4873 14.02C10.4613 14.059 10.4224 14.085 10.3834 14.098ZM10.4224 13.0849H9.90283V12.7212L9.92881 12.5653L9.98076 12.4744C9.99131 12.465 10.0037 12.4578 10.0171 12.4534C10.0305 12.4489 10.0446 12.4472 10.0587 12.4484C10.0977 12.4484 10.1236 12.4614 10.1496 12.5004C10.1626 12.5393 10.1886 12.5913 10.1886 12.6692C10.2057 12.6144 10.2371 12.5651 10.2795 12.5263L10.4224 12.3965V12.5263L10.3185 12.6173L10.2405 12.6952C10.2251 12.7105 10.2119 12.728 10.2016 12.7471C10.1994 12.7644 10.1994 12.7819 10.2016 12.7991V12.8511L10.1886 12.9809H10.4224V13.0849ZM10.1366 12.968V12.7471C10.141 12.7083 10.141 12.6691 10.1366 12.6303C10.132 12.6112 10.1231 12.5934 10.1106 12.5783C10.1013 12.5651 10.0875 12.5558 10.0717 12.5523C10.0457 12.5523 10.0197 12.5653 10.0067 12.5913L9.98076 12.7212V12.9809H10.1496L10.1366 12.968ZM11.5264 10.7729V10.1884L11.6303 10.1234L12.1629 10.3832L12.0589 10.4482L11.9031 10.3702L11.6303 10.5391V10.7209L11.5264 10.7729ZM11.6173 10.4741L11.8511 10.3443L11.7212 10.2663C11.681 10.2471 11.6419 10.2254 11.6043 10.2014L11.6173 10.3053V10.4741ZM14.0332 10.3183L14.5787 10.0975L14.6697 10.1624L14.6307 10.7599L14.5398 10.682L14.5528 10.5131L14.293 10.3183L14.1241 10.3832L14.0332 10.3183ZM14.3449 10.2923L14.5657 10.4482V10.2923C14.5718 10.2485 14.5804 10.2051 14.5917 10.1624C14.564 10.1875 14.5335 10.2093 14.5008 10.2274L14.3449 10.2923ZM15.6828 12.1497L16.1763 12.0328L16.2543 12.3835L16.2802 12.5393L16.2543 12.6303C16.2476 12.6429 16.2384 12.6541 16.2272 12.663C16.216 12.6719 16.2031 12.6785 16.1893 12.6822C16.1504 12.6822 16.1114 12.6822 16.0854 12.6562C16.0425 12.6127 16.0112 12.5591 15.9945 12.5004C15.9967 12.522 15.9967 12.5437 15.9945 12.5653L15.9425 12.6692L15.8386 12.8251L15.8127 12.6952L15.8906 12.5653L15.9425 12.4874C15.9601 12.4556 15.9691 12.4198 15.9685 12.3835C15.9657 12.3615 15.9613 12.3398 15.9555 12.3185L15.9296 12.2016L15.7087 12.2536L15.6828 12.1497ZM15.9815 12.1886L16.0335 12.4094C16.0335 12.4484 16.0594 12.4874 16.0724 12.5134C16.0724 12.5393 16.0984 12.5523 16.1114 12.5653L16.1633 12.5783C16.1763 12.5783 16.2023 12.5523 16.2023 12.5263C16.2128 12.4837 16.2128 12.4391 16.2023 12.3965L16.1374 12.1497L15.9815 12.1886Z" fill="#D0D0D0"/>
</g>
<rect x="0.25" y="0.25" width="51.5" height="38.5" stroke="#D0D0D0" stroke-width="0.5"/>
<defs>
<clipPath id="clip0_608_13183">
<rect width="52" height="39" fill="white"/>
</clipPath>
</defs>
</svg>
