<?xml version="1.0" encoding="UTF-8"?>
<svg width="50px" height="30px" viewBox="0 0 50 30" version="1.1" xmlns="http://www.w3.org/2000/svg" xmlns:xlink="http://www.w3.org/1999/xlink">
    <title>flag/malta@</title>
    <g id="FranceConnect+" stroke="none" stroke-width="1" fill="none" fill-rule="evenodd">
        <g id="flag/malta">
            <rect id="rect4" fill="#CF142B" fill-rule="nonzero" x="24.8756219" y="0" width="24.8756219" height="30"></rect>
            <rect id="Rectangle" fill="#FFFFFF" fill-rule="nonzero" x="0" y="0" width="24.8756219" height="30"></rect>
            <path d="M5.55555556,4.575 C5.55555556,4.625 5.49474848,4.665 5.41735766,4.665 C5.33996683,4.665 5.27915976,4.625 5.27915976,4.575 C5.27915976,4.525 5.33996683,4.485 5.41735766,4.485 C5.49474848,4.485 5.55555556,4.525 5.55555556,4.575 Z" id="path2289" fill="#F1EEEE"></path>
            <path d="M1.22719735,4.14 L1.22719735,6.415 L3.74239912,6.415 C3.74239912,6.795 4.16252073,7.175 4.58264234,7.175 L4.58264234,9.45 L7.09784411,9.45 L7.09784411,7.175 C7.51796573,7.175 7.93808734,6.795 7.93808734,6.415 L10.4532891,6.415 L10.4532891,4.14 L7.93808734,4.14 C7.93808734,3.76 7.51796573,3.38 7.09784411,3.38 L7.09784411,1.105 L4.58264234,1.105 L4.58264234,3.38 C4.16252073,3.38 3.74239912,3.76 3.74239912,4.14 C3.74239912,4.14 1.22719735,4.14 1.22719735,4.14 Z" id="path2291" fill="#E60D2E"></path>
            <path d="M1.39856274,4.295 L1.39856274,6.265 L3.91376451,6.265 C3.91376451,6.645 4.33388612,7.025 4.75400774,7.025 L4.75400774,9.3 L6.93200663,9.3 L6.93200663,7.025 C7.35212825,7.025 7.77224986,6.645 7.77224986,6.265 L10.2874516,6.265 L10.2874516,4.295 L7.77224986,4.295 C7.77224986,3.915 7.35212825,3.535 6.93200663,3.535 L6.93200663,1.26 L4.75400774,1.26 L4.75400774,3.535 C4.33388612,3.535 3.91376451,3.915 3.91376451,4.295 C3.90823659,4.295 1.39856274,4.295 1.39856274,4.295 Z" id="path2295" fill="#96877D"></path>
            <path d="M1.48148148,4.37 L1.48148148,6.19 L3.99668325,6.19 C3.99668325,6.57 4.41680486,6.95 4.83692648,6.95 L4.83692648,9.225 L6.84908789,9.225 L6.84908789,6.95 C7.26920951,6.95 7.68933112,6.57 7.68933112,6.19 L10.2045329,6.19 L10.2045329,4.37 L7.68933112,4.37 C7.68933112,3.99 7.26920951,3.61 6.84908789,3.61 L6.84908789,1.335 L4.83692648,1.335 L4.83692648,3.61 C4.41680486,3.61 3.99668325,3.99 3.99668325,4.37 L1.48148148,4.37 Z" id="path2297" fill="#CCCCCC"></path>
            <path d="M4.671089,3.585 C4.82034273,3.72 4.7761194,3.97 4.58264234,4.145 C4.38363737,4.325 4.10724157,4.36 3.96351575,4.225 C3.81426202,4.09 3.85848535,3.84 4.05196241,3.66 C4.24543947,3.485 4.52736318,3.45 4.671089,3.585 Z" id="path2301" fill="#96877D"></path>
            <polygon id="path2303" fill="#D0D0D0" points="3.93034826 3.985 3.99115533 3.93 4.22885572 4.035 4.11276949 3.82 4.17357656 3.765 4.41127695 4.195"></polygon>
            <path d="M7.70591487,4.225 C7.55666114,4.36 7.28026534,4.32 7.08678828,4.145 C6.88778331,3.965 6.84908789,3.715 6.99834163,3.585 C7.14759536,3.45 7.42399116,3.49 7.61746821,3.665 C7.81647319,3.84 7.8551686,4.095 7.70591487,4.225 Z" id="path2309" fill="#96877D"></path>
            <polygon id="rect2313" fill="#D0D0D0" transform="translate(7.469776, 4.062261) rotate(-45.000000) translate(-7.469776, -4.062261) " points="7.22828866 4.01077172 7.70730425 4.03479167 7.71126358 4.11375028 7.23224799 4.08973033"></polygon>
            <path d="M6.99834163,6.97 C6.84908789,6.835 6.89331122,6.585 7.08678828,6.41 C7.28579326,6.23 7.56218905,6.195 7.70591487,6.33 C7.8551686,6.465 7.81094527,6.715 7.61746821,6.89 C7.42399116,7.07 7.14206744,7.105 6.99834163,6.97 L6.99834163,6.97 Z" id="path2317" fill="#96877D"></path>
            <polygon id="path2319" fill="#D0D0D0" points="7.73908237 6.57 7.67827529 6.625 7.4405749 6.52 7.55666114 6.735 7.49585406 6.79 7.25815368 6.36"></polygon>
            <polygon id="rect2321" fill="#D0D0D0" transform="translate(7.169060, 6.762457) rotate(-45.000000) translate(-7.169060, -6.762457) " points="7.11757042 6.52096954 7.19652903 6.52492887 7.22054898 7.00394446 7.14159037 6.99998513"></polygon>
            <path d="M3.96351575,6.33 C4.11276949,6.195 4.38916528,6.235 4.58264234,6.41 C4.78164732,6.59 4.82034273,6.84 4.671089,6.97 C4.52183527,7.1 4.24543947,7.065 4.05196241,6.89 C3.85295744,6.715 3.81426202,6.46 3.96351575,6.33 L3.96351575,6.33 Z" id="path2325" fill="#96877D"></path>
            <polygon id="path2327" fill="#D0D0D0" points="4.40574903 7 4.34494196 6.945 4.46102819 6.73 4.22332781 6.835 4.16252073 6.78 4.6379215 6.565"></polygon>
            <polygon id="rect2329" fill="#D0D0D0" transform="translate(4.194929, 6.483889) rotate(-45.000000) translate(-4.194929, -6.483889) " points="3.95344179 6.43239972 4.43245737 6.45641967 4.4364167 6.53537828 3.95740112 6.51135833"></polygon>
            <path d="M5.83747927,3.67714 C4.85671378,3.67714 4.06538419,4.39289762 4.06538419,5.28 C4.06538419,6.1638244 4.85861346,6.88286 5.83747927,6.88286 C6.81824476,6.88286 7.60957435,6.16710238 7.60957435,5.28 C7.60957435,4.39289762 6.81824476,3.67714 5.83747927,3.67714 Z M5.83747927,3.70286 C6.80254021,3.70286 7.58113875,4.40710238 7.58113875,5.28 C7.58113875,6.15289762 6.80254021,6.85714 5.83747927,6.85714 C4.87433184,6.85714 4.09381979,6.14963212 4.09381979,5.28 C4.09381979,4.40710238 4.87241833,3.70286 5.83747927,3.70286 Z" id="path2331" fill="#96877D" fill-rule="nonzero"></path>
            <path d="M5.83747927,4.05714 C5.09251216,4.05714 4.4855058,4.60461304 4.4855058,5.28 C4.4855058,5.95210238 5.09441417,6.50286 5.83747927,6.50286 C6.58244638,6.50286 7.18945274,5.95538696 7.18945274,5.28 C7.18945274,4.60461304 6.58244638,4.05714 5.83747927,4.05714 Z M5.83747927,4.08286 C6.56675997,4.08286 7.16101714,4.61883425 7.16101714,5.28 C7.16101714,5.94116575 6.56675997,6.47714 5.83747927,6.47714 C5.11011872,6.47714 4.5139414,5.93789762 4.5139414,5.28 C4.5139414,4.61883425 5.10819857,4.08286 5.83747927,4.08286 Z" id="path2333" fill="#96877D" fill-rule="nonzero"></path>
            <path d="M5.24599226,6.565 C5.24599226,6.59 5.22940851,6.615 5.20176893,6.63 C5.17412935,6.645 5.14648977,6.645 5.11885019,6.63 C5.09121061,6.615 5.07462687,6.59 5.07462687,6.565 C5.07462687,6.54 5.09121061,6.515 5.11885019,6.5 C5.14648977,6.485 5.17412935,6.485 5.20176893,6.5 C5.23493643,6.515 5.24599226,6.54 5.24599226,6.565 L5.24599226,6.565 Z" id="path2335" fill="#000000" fill-rule="nonzero"></path>
            <path d="M6.58927584,6.565 C6.58927584,6.59 6.5726921,6.615 6.54505252,6.63 C6.51741294,6.645 6.48977336,6.645 6.46213378,6.63 C6.4344942,6.615 6.41791045,6.59 6.41791045,6.565 C6.41791045,6.54 6.4344942,6.515 6.46213378,6.5 C6.48977336,6.485 6.51741294,6.485 6.54505252,6.5 C6.5726921,6.515 6.58927584,6.54 6.58927584,6.565 L6.58927584,6.565 Z" id="path2337" fill="#000000" fill-rule="nonzero"></path>
            <path d="M5.77667219,6.565 L5.77667219,6.645 L5.66611388,6.645 C5.55555556,6.645 5.55555556,6.725 5.66611388,6.725 L5.77667219,6.725 L5.77667219,6.805 C5.77667219,6.885 5.87617468,6.895 5.8817026,6.81 L5.88723051,6.725 L5.99778883,6.725 C6.10834715,6.725 6.10834715,6.645 5.99778883,6.645 L5.88723051,6.645 L5.88723051,6.565 C5.89275843,6.485 5.77667219,6.485 5.77667219,6.565 L5.77667219,6.565 Z" id="path2339" fill="#000000" fill-rule="nonzero"></path>
            <path d="M7.01414696,5.50279105 C7.0618266,5.50233003 7.11167607,5.50374075 7.16212374,5.50659598 L7.29296127,5.5169473 L7.33049907,5.52114337 L7.3620397,5.55232762 L7.36561415,5.57352267 C7.37015592,5.60743407 7.37058258,5.64324867 7.36400763,5.67796031 C7.3609267,5.69422572 7.35640473,5.7094718 7.35038805,5.72347824 L7.33946634,5.74444867 L7.4059285,5.75320929 L7.4561822,5.75761172 L7.55869115,5.76352108 L7.68807876,5.76635661 L7.71009125,5.84106451 L7.58356736,5.95145924 L7.59165699,5.95565688 C7.61493679,5.96882505 7.63871215,5.98656469 7.66281571,6.00807634 L7.69919626,6.04307291 C7.72841401,6.07312192 7.75355633,6.10305632 7.77239634,6.12759269 L7.7890531,6.15013404 L7.76495551,6.21724552 L7.71637459,6.22255285 C7.65734407,6.22779057 7.59645494,6.2295781 7.5391734,6.2258395 C7.50510238,6.22361579 7.47390623,6.21955922 7.44588675,6.21334267 L7.42915086,6.20879057 L7.436839,6.23312276 L7.4513638,6.29300709 L7.46208449,6.35333866 L7.46953131,6.41758037 C7.47027766,6.4267766 7.47080095,6.43516524 7.47113764,6.44266795 L7.47162444,6.46243989 L7.42603894,6.50270507 L7.38023779,6.48779109 L7.31406509,6.46209048 C7.23086686,6.42741403 7.14764843,6.38381018 7.06973587,6.33046098 C6.9695357,6.26185075 6.88578448,6.18231084 6.82367803,6.09078005 L6.7890531,6.03441419 L6.85127494,5.99041962 C6.9083472,6.0937246 6.99656597,6.18332968 7.10772962,6.25944696 C7.15676414,6.29302245 7.20824889,6.32262649 7.26055637,6.34839845 L7.35667641,6.39126164 L7.39479591,6.40557335 L7.39188904,6.37440517 C7.38521723,6.32512141 7.37284101,6.26909884 7.35265867,6.2115611 L7.32979645,6.15371178 L7.38296129,6.1006167 C7.41386421,6.1239236 7.47022973,6.13819293 7.54339955,6.14296851 C7.57907163,6.14529673 7.61662722,6.14531935 7.65428846,6.14360393 L7.68373919,6.14128712 L7.64983893,6.10449444 C7.61780427,6.07154837 7.58684682,6.04574266 7.55884271,6.02990219 C7.54558203,6.02240132 7.53340563,6.01739402 7.52254304,6.01488925 L7.50726319,6.01301012 L7.48132123,5.94215768 L7.51308833,5.91007829 L7.58175921,5.84713573 L7.50435178,5.84393866 L7.45130137,5.84043665 C7.37594798,5.83475352 7.31504448,5.82670349 7.27169347,5.81541323 L7.24251979,5.80632434 L7.24251979,5.72757529 C7.27063435,5.71697333 7.28578607,5.69475341 7.29226142,5.66056756 C7.29522461,5.64492374 7.29607302,5.62801419 7.29532404,5.61112221 L7.29390082,5.6000322 L7.23269285,5.59469627 C7.15855138,5.58855901 7.08405537,5.58512691 7.01477407,5.5857968 C6.95858291,5.58634013 6.90865441,5.5895984 6.86665445,5.59584267 L6.82735903,5.60309232 L6.81296901,5.52169551 C6.86697525,5.5094761 6.9350008,5.50355633 7.01414696,5.50279105 Z" id="path4942" fill="#000000" fill-rule="nonzero"></path>
            <path d="M6.5348584,5.51670961 L6.58565729,5.44063295 L6.70711498,5.53628149 L6.81292622,5.61240678 C6.83185269,5.62550437 6.85135185,5.63872418 6.8713143,5.65194205 C6.93422453,5.69359722 6.99513085,5.73049894 7.0528704,5.76137 C7.26302618,5.87373203 7.40610803,5.89230511 7.45440809,5.80885894 L7.46521005,5.78356531 L7.5348584,5.82590424 C7.47668988,6.01842193 7.29371175,6.00500179 7.0261434,5.86194352 C6.96646657,5.83003667 6.90381963,5.79208035 6.83926191,5.74933432 L6.73362455,5.67637836 L6.71016509,5.65853063 L6.73515489,5.70000245 C6.75723951,5.73469386 6.78027422,5.76912466 6.80421557,5.80302999 L6.87871605,5.9029048 C7.0402496,6.10765297 7.21250417,6.25235113 7.39111992,6.3133051 L7.46804628,6.33423196 L7.45733005,6.44063295 C7.23429156,6.39543824 7.02302143,6.22995896 6.82822472,5.98304884 C6.7479385,5.88128388 6.67591269,5.77237908 6.61312725,5.66343639 L6.56509056,5.57669354 L6.5348584,5.51670961 Z" id="path4944" fill="#000000" fill-rule="nonzero"></path>
            <path d="M6.12210562,5.87055539 L5.90904742,5.89990943 L5.72981781,6.16776953 L5.48858736,6.24425853 L5.42963316,6.43765264 L5.25652463,6.47895553 L4.97523432,6.46324066 L4.97427653,6.49480617 L5.32664456,6.64733573 L5.0584745,6.60394465 L5.05444153,6.63169391 L5.14829189,6.86654539 L6.58374793,6.87055539 L6.69780958,6.61669874 L6.69699168,6.590365 L6.51457046,6.30868993 L6.23173473,6.0415397 L6.12210562,5.87055539 Z M6.11969774,5.90031935 L6.22725867,6.07051092 L6.51011159,6.33768782 L6.68419016,6.60680582 L6.58024459,6.84228318 L5.15201769,6.83880436 C5.15246002,6.83790543 5.15273647,6.8373436 5.15236286,6.83561864 L5.15060543,6.83017334 L5.07418463,6.63825954 L5.44467641,6.69839464 L5.44584508,6.66685207 L5.05986733,6.49961281 L5.25693815,6.51063421 L5.43446487,6.46362211 L5.4935288,6.27019578 L5.73308207,6.19756345 L5.91197323,5.92978293 L6.11969774,5.90031935 Z" id="path4946" fill="#000000" fill-rule="nonzero"></path>
            <path d="M6.47053621,6.26578896 L6.4750503,6.26673437 C6.47667831,6.2669117 6.47832907,6.26694945 6.4799996,6.26685151 C6.4918677,6.2661557 6.50404513,6.25884299 6.5161217,6.24719761 C6.52354698,6.24003744 6.52933158,6.23289419 6.53272673,6.2280174 C6.53816439,6.23042856 6.5524468,6.22867011 6.56686852,6.22334331 L6.57398071,6.22037613 C6.58764375,6.21395808 6.59786524,6.20460147 6.603325,6.19164993 L6.60381426,6.19010661 L6.59935707,6.1894877 C6.61498378,6.19288292 6.63154649,6.18949141 6.64884652,6.18003836 C6.68114584,6.16238943 6.71516985,6.12433346 6.74967001,6.07192299 C6.76655145,6.04627778 6.78245389,6.01882931 6.7969112,5.99138295 L6.80614266,5.97347633 L6.81526974,5.95469344 L6.85402564,5.8660812 L6.90546689,5.85596634 L6.90989882,5.85033089 L6.91012261,5.84809573 C6.91064381,5.84135792 6.91027523,5.83387034 6.90830536,5.82659443 L6.90643715,5.82105486 C6.90211673,5.81055993 6.89428367,5.80365665 6.88278373,5.80189846 L6.88197899,5.80182624 C6.87977833,5.77814235 6.8653882,5.76501002 6.84383867,5.76575567 L6.83869541,5.76623104 L6.83845769,5.76436797 C6.83700816,5.75878067 6.83327815,5.75348705 6.82809889,5.74852739 C6.82448216,5.74506401 6.82091416,5.7424608 6.8184284,5.74093057 C6.79085811,5.74689023 6.77524389,5.78100323 6.76519245,5.83355074 C6.76141175,5.85331576 6.75870226,5.87443306 6.7568801,5.89554172 L6.75519869,5.91986589 C6.75512968,5.92132818 6.75507659,5.92263454 6.75503803,5.92377395 C6.75436012,5.92281525 6.75242978,5.92379053 6.7496317,5.92594099 L6.74299253,5.93158396 L6.71818682,5.95376437 L6.69045989,5.97786307 L6.67348825,5.99209864 L6.65218969,6.00900804 L6.64400221,6.01492104 L6.64317654,6.00794578 C6.63976967,5.98612163 6.63038272,5.96193022 6.61488932,5.93200874 L6.60442238,5.91254748 L6.57814747,5.8662348 L6.566715,5.84535202 L6.55749053,5.8274178 C6.53982379,5.79148845 6.53699904,5.77372683 6.54442694,5.75726544 C6.54988908,5.74516045 6.55723054,5.74313937 6.56992355,5.74936076 C6.57435022,5.75153047 6.57928164,5.75466716 6.58517822,5.75900926 L6.60088673,5.7714381 L6.61677195,5.78453498 C6.64942294,5.81123938 6.67119403,5.82393035 6.69447909,5.82530907 C6.70259737,5.82578975 6.7104573,5.82464811 6.71806716,5.82176526 C6.78561925,5.79617447 6.82705638,5.69618042 6.82705638,5.59056906 C6.82258164,5.57707416 6.81747491,5.56357922 6.81165742,5.54914141 L6.79939498,5.51956761 L6.78607852,5.48868035 L6.76628376,5.44434664 L6.75998249,5.43060617 L6.71487009,5.42103244 L6.67738024,5.3088955 L6.66908378,5.30577942 L6.6558578,5.31750051 C6.64599574,5.32667459 6.6361327,5.3367131 6.62690872,5.34731256 C6.61034045,5.36635148 6.59766572,5.38507762 6.59040196,5.4029639 C6.58600876,5.4137817 6.58366777,5.42415772 6.58366777,5.43403183 C6.58366777,5.46367718 6.60125294,5.49141733 6.6302261,5.51705638 L6.64032415,5.52552224 C6.64717325,5.53096837 6.6542229,5.53601337 6.66127165,5.54062379 L6.66567164,5.54347177 L6.66145768,5.54613912 L6.65517064,5.54964837 C6.63575419,5.55989359 6.61609846,5.5646284 6.59804744,5.56092433 C6.59379705,5.56005215 6.58968387,5.55871164 6.58571705,5.55688016 L6.57817416,5.5625827 C6.57471638,5.6008976 6.59326376,5.61722413 6.62594728,5.61900315 L6.63100735,5.61917691 L6.6420774,5.61892927 L6.65726921,5.61792904 L6.65581847,5.6131704 C6.66006172,5.62884326 6.66752735,5.64354994 6.67727634,5.65715329 C6.68473317,5.66755825 6.69218421,5.67567233 6.69811341,5.68116695 L6.70225128,5.68479163 C6.70127221,5.68374084 6.70114889,5.68429319 6.7013699,5.68567255 L6.70211948,5.68930396 C6.70358833,5.69623632 6.70435402,5.70320197 6.70406084,5.70951877 C6.70323855,5.72723582 6.69474585,5.73613773 6.67275261,5.73342992 L6.6665374,5.73220543 C6.66146519,5.73077317 6.65648403,5.72818377 6.65026794,5.72348079 L6.64213101,5.71676148 L6.63229939,5.70764587 L6.61326059,5.68867596 L6.60551538,5.68075663 C6.54688354,5.6206004 6.51196664,5.60553 6.46972482,5.6463935 C6.44345311,5.67010896 6.43449797,5.70227766 6.44034038,5.73973969 C6.444603,5.76707196 6.45645434,5.79590501 6.47352115,5.82497953 C6.48105201,5.83780886 6.48911054,5.8498341 6.4971712,5.86072685 L6.50281924,5.86818441 L6.50165953,5.86916582 C6.49710871,5.87283339 6.49146297,5.87779453 6.48497558,5.88412063 C6.46705841,5.90159234 6.4491635,5.92351156 6.43247292,5.95020825 L6.42307027,5.96601126 C6.41391098,5.98219649 6.40549481,5.99953178 6.39793889,6.01804782 L6.39369818,6.02894133 L6.39933519,6.03440402 C6.33001001,5.96505462 6.26983861,5.93204163 6.20623504,5.92555686 L6.17579423,5.92383395 L6.16092473,5.9237777 L6.14987083,5.9245734 L6.13754528,5.92637176 L6.12272784,5.9294288 L6.11086255,5.93229253 L6.07160855,5.94289494 L5.96737157,5.97281651 L5.93496606,5.98148462 C5.929726,5.98281551 5.92453091,5.98409767 5.9193276,5.98534334 C5.82228176,5.92018335 5.76242101,5.9624976 5.68586336,6.10277303 L5.65577303,6.15933237 L5.64498509,6.17882419 L5.63554892,6.19483753 L5.62706295,6.20794141 L5.61912563,6.21870488 C5.6152272,6.22359635 5.61138392,6.22782356 5.60736993,6.23170658 L5.60996007,6.243956 C5.66826608,6.25529068 5.71646511,6.23104406 5.78808377,6.16804789 L5.83061468,6.13003065 L5.84658163,6.11610888 L5.86008932,6.10485907 L5.87231902,6.09534152 L5.8787728,6.09053533 L5.87643217,6.08295823 C5.89445604,6.14398341 5.91690498,6.1819872 5.94307866,6.19971096 C5.97407189,6.22069832 6.00696223,6.21213217 6.0383076,6.18559989 L6.04470263,6.17992011 L6.05038446,6.17438508 L6.05771144,6.16628573 L6.06036525,6.17088754 C6.06231251,6.17419925 6.06458671,6.17794035 6.06717866,6.18203963 C6.07794906,6.19907345 6.09041426,6.21610188 6.10443995,6.23201099 L6.11294987,6.24132889 C6.17286804,6.30459239 6.24005407,6.32629747 6.31097491,6.28372319 L6.31774461,6.27933283 L6.32149679,6.28285581 C6.34639436,6.30431597 6.37320648,6.30216125 6.39626217,6.28899242 L6.40412172,6.28395764 C6.40268002,6.28464881 6.40303564,6.28511659 6.40428954,6.28549392 L6.40772868,6.28616736 C6.41711911,6.28761255 6.42683111,6.28807245 6.43600766,6.28694263 C6.44968538,6.28525863 6.46058506,6.28023279 6.46742687,6.27090939 L6.47053621,6.26578896 Z M6.66965174,5.32207369 L6.70570433,5.42985481 L6.7101944,5.4340772 L6.75441773,5.44088317 C6.75367698,5.44167288 6.75404118,5.44384395 6.75513341,5.44703236 L6.75817689,5.45465777 L6.77620266,5.49522653 L6.79561352,5.5406408 L6.80706577,5.56891741 C6.81053028,5.57773153 6.81362905,5.58590887 6.81632359,5.5933733 C6.81584024,5.69077011 6.77675716,5.78508348 6.71476866,5.80856662 C6.70842974,5.81096799 6.7018669,5.81192124 6.69501787,5.8115157 C6.67668456,5.81043018 6.6585434,5.80092203 6.63294294,5.78099659 L6.59744195,5.75211688 C6.58810943,5.7447935 6.58076165,5.73980962 6.57407207,5.73653077 C6.55659282,5.72796343 6.54314795,5.73166478 6.53462226,5.75055905 C6.52465314,5.7726522 6.52718712,5.79270438 6.54712382,5.83323751 L6.55674787,5.85192845 L6.56858858,5.87352124 L6.59515318,5.92032303 L6.59856199,5.92652022 C6.62200983,5.96953423 6.63341902,6.00010853 6.63341902,6.02615089 L6.64153509,6.0323266 L6.64631071,6.02923453 L6.65780134,6.0209706 C6.65992482,6.0193696 6.6621501,6.01765925 6.66447364,6.01584323 L6.67956538,6.00370896 L6.70403328,5.98305446 L6.72472174,5.96498768 L6.75837762,5.93474998 L6.76400608,5.92958512 C6.76642784,5.9189299 6.76696762,5.90934799 6.76803343,5.89700116 C6.76980963,5.87642489 6.77244859,5.85585725 6.77610992,5.83671633 C6.78522468,5.78906561 6.79908443,5.75878568 6.81713696,5.75384651 C6.81639993,5.75408412 6.81643508,5.75457498 6.81693043,5.75525834 L6.82121285,5.7594278 C6.82648078,5.76447237 6.82850938,5.76872756 6.82748813,5.77124229 L6.83360398,5.78110071 C6.85775179,5.77515456 6.8711194,5.78562795 6.8711194,5.80835997 L6.87672747,5.81526462 C6.88878035,5.81526462 6.89496,5.82097092 6.89766479,5.83096131 L6.89870717,5.83625213 L6.89898005,5.83894129 L6.89900498,5.8434107 L6.84798806,5.85603713 L6.80316475,5.95287897 L6.79234022,5.97458113 C6.79082533,5.97752159 6.78921074,5.98062276 6.78750079,5.98386901 C6.7732445,6.01093373 6.75756561,6.03799634 6.74095631,6.06322814 C6.70747798,6.11408631 6.67460428,6.15085565 6.64429665,6.16741628 C6.6289068,6.17582557 6.61454856,6.17876568 6.60130628,6.17588852 L6.59501139,6.18050467 C6.59129501,6.1942315 6.58020375,6.20400047 6.56364558,6.21011639 C6.55047608,6.21498068 6.53716729,6.21661925 6.52846877,6.21661925 C6.52125749,6.22327255 6.51596533,6.2298077 6.50920577,6.23632593 C6.49879098,6.24636887 6.4885379,6.25252597 6.47946611,6.25305784 C6.47601662,6.25326008 6.47278395,6.25263981 6.46974448,6.25114293 L6.46245473,6.25498941 C6.45904508,6.26548432 6.44941267,6.27141403 6.43489161,6.27320186 C6.42666547,6.27421466 6.41774635,6.2737923 6.40911987,6.27246469 L6.40242653,6.27120107 L6.39696202,6.27309662 C6.37430944,6.28838277 6.3466048,6.29182821 6.32205764,6.26592327 L6.31568444,6.26512992 C6.24256155,6.31514594 6.17370506,6.2918008 6.11203964,6.22185479 C6.09849943,6.20649636 6.08644119,6.19002386 6.07602913,6.17355676 L6.06695753,6.158471 L6.06335154,6.15180479 L6.05444627,6.15081967 C6.05020149,6.15656846 6.04238353,6.16539181 6.03195334,6.17422044 C6.0037326,6.19810787 5.97502616,6.20558435 5.94848393,6.18761103 C5.92501919,6.17172165 5.90414732,6.13638768 5.88697303,6.078239 L5.87895318,6.07458069 L5.86653772,6.08350567 L5.85407456,6.09319817 C5.85192665,6.09493053 5.84972669,6.09673461 5.84744966,6.09863029 L5.8326624,6.11126236 L5.78153083,6.15684066 L5.76878875,6.16784048 C5.71470089,6.21358696 5.67482993,6.23443978 5.63183704,6.23270943 L5.62404643,6.23203136 L5.6268584,6.22874405 C5.63098282,6.22360492 5.63512626,6.21782076 5.63953143,6.21105282 L5.64876264,6.19610484 L5.65912326,6.17793119 L5.67772563,6.14330521 L5.68755257,6.12465543 C5.76506965,5.97826319 5.82068505,5.93471986 5.91776695,5.99821867 C5.93627194,5.99496325 5.95260843,5.99099756 5.96978115,5.98627693 L6.08449644,5.95345869 L6.11725547,5.94480993 L6.13196763,5.94146746 L6.14773576,5.93876058 L6.15787524,5.93778969 L6.16493427,5.9375288 L6.17782664,5.93772593 L6.19304014,5.93841011 C6.2588517,5.94148043 6.32010716,5.97294119 6.39226238,6.04512162 L6.4009235,6.04256707 C6.41217021,6.01141146 6.42582402,5.98348281 6.44136093,5.95863141 C6.45746889,5.93286662 6.47471527,5.91174178 6.4919394,5.89494588 C6.49604838,5.89093906 6.49978175,5.8875247 6.50306461,5.88468295 L6.51148679,5.8778556 C6.51264026,5.87699739 6.51366239,5.87627735 6.5145438,5.87569301 L6.51575726,5.86461915 L6.51159933,5.85949378 L6.50546222,5.85142654 C6.49767042,5.84089711 6.48987649,5.82926673 6.48261171,5.81689067 C6.46641891,5.78930509 6.45525591,5.76214671 6.45135531,5.73713571 C6.44629627,5.70469672 6.45374433,5.67794176 6.47650602,5.6573907 C6.5111084,5.62392194 6.54003352,5.63371716 6.58940484,5.68237587 L6.6206711,5.71395087 L6.63220569,5.72499059 C6.64960056,5.74099316 6.6586642,5.74557354 6.67163656,5.7471707 C6.69997117,5.75065925 6.71407183,5.73587917 6.71525872,5.71030658 C6.7156277,5.7023564 6.71471252,5.69403077 6.71297241,5.68581819 L6.71056904,5.67648229 C6.70287449,5.66870644 6.69427603,5.66000206 6.68568663,5.64801675 C6.67686182,5.63570298 6.67017598,5.62253242 6.66645903,5.60880351 L6.66113875,5.6040823 L6.63615422,5.60533874 L6.62644267,5.60520732 L6.61997997,5.6046336 C6.60149556,5.60228228 6.59115671,5.59413904 6.58929956,5.57694609 L6.58905473,5.57266936 L6.59620352,5.57454575 C6.61670972,5.57875362 6.63837516,5.5735347 6.6595889,5.56234112 L6.67000583,5.55633739 C6.67154239,5.55537019 6.67297459,5.55442843 6.67429563,5.55352517 L6.6808333,5.54867231 L6.67997032,5.53660154 L6.6708289,5.5311846 C6.66949031,5.53034295 6.66805498,5.52942356 6.66653376,5.52842857 C6.65637722,5.52178543 6.64622267,5.51420593 6.63677224,5.50584301 C6.61046624,5.48256419 6.59488391,5.45798347 6.59488391,5.43403183 C6.59488391,5.42651293 6.59676564,5.41817254 6.60043398,5.40913961 C6.60699001,5.39299605 6.6188838,5.3754237 6.6345617,5.35740792 C6.6434762,5.3471641 6.65304724,5.33742278 6.66261926,5.32851851 L6.66965174,5.32207369 Z" id="path4948" fill="#000000" fill-rule="nonzero"></path>
            <path d="M5.6886883,5.87341503 C5.72070205,5.92040194 5.73952195,5.9768917 5.74844179,6.04419177 C5.75431917,6.0885366 5.75568355,6.12758077 5.75465615,6.19131349 L5.75331738,6.26279859 C5.75265809,6.33208554 5.75647392,6.3556502 5.77228834,6.374219 C5.78043428,6.3822515 5.78832683,6.38759795 5.79655125,6.39104682 C5.82349049,6.40234368 5.85168321,6.39314841 5.87894007,6.3713274 C5.89025365,6.3622701 5.89885314,6.35318257 5.90384154,6.34690698 C5.93282982,6.36545865 5.98034313,6.36883616 6.03556501,6.36199196 C6.07809476,6.35672083 6.12343271,6.34561813 6.16950869,6.33042123 C6.18491018,6.32534147 6.19973406,6.32002011 6.21378543,6.31461727 L6.25528535,6.29747518 C6.25694424,6.29672864 6.25836702,6.29607491 6.25954336,6.29552242 C6.30377411,6.33539632 6.32546533,6.33315816 6.34319166,6.29645228 L6.35299766,6.27383297 C6.35821785,6.26290233 6.36288747,6.25782401 6.37045172,6.25613015 L6.36767285,6.24703629 C6.38919442,6.32600488 6.43054344,6.37584625 6.48542092,6.40143089 C6.52586869,6.4202882 6.568333,6.42407787 6.60606722,6.41935006 L6.61701527,6.41759408 L6.62223239,6.39435186 L6.58353538,6.33938651 C6.55392228,6.2982106 6.52306038,6.25703212 6.49249087,6.21857453 C6.47780276,6.20009633 6.46350858,6.18266703 6.44970543,6.16645981 C6.41267145,6.12297569 6.38013199,6.08938005 6.35320267,6.06782126 C6.27735668,6.12237399 6.05429469,6.15355403 6.00126709,6.13409674 C5.98516541,6.12935616 5.98066764,6.11873758 5.97946225,6.08459217 L5.97879641,6.05385952 C5.97832727,6.03998773 5.97738372,6.02978987 5.97541721,6.02101824 L5.97341713,6.01406817 L5.96879113,6.02200218 C6.0422613,5.91416925 6.01173036,5.64082475 5.94249642,5.47824015 C5.84596121,5.38886968 5.73645144,5.40883279 5.67021646,5.50799083 C5.60582572,5.60438793 5.60449512,5.74182217 5.67683348,5.85586955 L5.6886883,5.87341503 Z M5.9296643,5.497155 C5.99179683,5.64572662 6.02094539,5.90669467 5.95558684,6.0026221 L5.95442026,6.01991363 C5.95796067,6.02770808 5.95947101,6.03704308 5.96011687,6.05467398 L5.96047788,6.07116145 C5.96120344,6.12825726 5.96761733,6.15215365 5.99717147,6.16082904 C6.05415124,6.18175248 6.28205574,6.14989554 6.35326607,6.09183102 L6.37107314,6.11247603 L6.40831579,6.15382861 L6.43804006,6.18786153 C6.4516704,6.20386584 6.46580368,6.22109895 6.48033819,6.23938391 C6.5005455,6.26480547 6.52089897,6.29144916 6.54093489,6.318501 L6.59455446,6.39283033 L6.6044789,6.39204181 C6.56897746,6.39648987 6.52881731,6.39290583 6.49107421,6.37530947 C6.44117945,6.35204784 6.40428366,6.30757432 6.38501094,6.23685737 L6.37634189,6.22824304 C6.35800114,6.22824304 6.34767943,6.23738761 6.33782157,6.25789903 L6.33150521,6.27254362 C6.31834143,6.30500226 6.30806453,6.30798348 6.26116869,6.2704401 C6.25329226,6.2711676 6.2469187,6.27306992 6.24007716,6.27568427 L6.22921749,6.28008196 C6.20967211,6.28812504 6.18818196,6.29617129 6.16541446,6.30368053 C6.12010995,6.31862297 6.07558346,6.32952696 6.03399372,6.33468159 C5.98083067,6.34127062 5.93542588,6.33804298 5.90033023,6.32332577 L5.88904769,6.33125448 L5.86999813,6.34726641 C5.8466363,6.36596918 5.8230599,6.37365881 5.80168131,6.36469378 C5.79530971,6.36202188 5.78918146,6.35787057 5.78330018,6.35211589 C5.77607974,6.3435939 5.7728527,6.32847049 5.77213007,6.29251101 L5.77203441,6.26141222 L5.77362339,6.16493145 C5.77387616,6.11442858 5.77207212,6.07894858 5.76677189,6.03895833 C5.75837777,5.97562477 5.74165632,5.92066652 5.71416186,5.87351043 L5.70171181,5.85377668 C5.62493529,5.74702181 5.62309306,5.61768729 5.68355084,5.52717809 C5.74368753,5.43714958 5.84357941,5.41893976 5.9296643,5.497155 Z" id="path4950" fill="#000000" fill-rule="nonzero"></path>
            <path d="M4.92406005,6.23041421 L4.92528127,6.23325462 C4.92652599,6.23660516 4.92764856,6.24061241 4.92877795,6.24551267 L4.93152902,6.25870043 C4.93914855,6.29565196 4.95393777,6.31328839 4.99734973,6.31789013 L5.00910605,6.30679055 C5.00224054,6.29405484 5.00224054,6.26935703 5.00806258,6.23695688 C5.00962848,6.22824252 5.01157716,6.21916231 5.01384467,6.20983884 L5.02055191,6.18463488 L5.02890615,6.15751964 L5.02733795,6.15755313 C5.05242051,6.1584394 5.08049696,6.15780809 5.10725388,6.1544991 C5.14793263,6.14946841 5.17794342,6.13907651 5.19245659,6.12112825 C5.20510662,6.10548413 5.20594666,6.08311384 5.19813097,6.05556697 C5.19437667,6.04233473 5.18871488,6.02834138 5.18165586,6.01402452 L5.1769015,6.00470553 C5.17375949,5.99874934 5.17070025,5.99333168 5.16776223,5.98842352 L5.19386545,5.98845969 L5.2004584,5.97378353 C5.18727243,5.96644541 5.17614557,5.95388535 5.16725178,5.93754423 L5.16205404,5.927086 C5.15892394,5.9201682 5.15645225,5.91342587 5.15456877,5.90725955 L5.15194867,5.89744595 L5.17274831,5.89150229 C5.19494668,5.88455844 5.21714759,5.87593416 5.2379315,5.86550169 C5.29820577,5.83524705 5.3348282,5.79608411 5.3348282,5.74723653 C5.3348282,5.71006827 5.30708958,5.67653175 5.24416072,5.62599549 L5.16564972,5.56422002 L5.15104828,5.55130578 L5.13889356,5.53750165 C5.12082422,5.51538675 5.12226599,5.50103202 5.14601076,5.48869878 C5.17440709,5.47529694 5.20022344,5.47547142 5.25685504,5.49342128 L5.28789338,5.50389693 L5.32499525,5.51745178 L5.34610989,5.52542036 C5.43085879,5.55763489 5.48077072,5.5713584 5.53633757,5.57221146 C5.57887439,5.57286449 5.61828909,5.56422588 5.65511293,5.54493853 L5.67075151,5.53634333 L5.69592373,5.52308074 L5.71621112,5.51322872 L5.72978309,5.50736178 L5.73557076,5.49960189 C5.73962648,5.4447963 5.69598215,5.41576181 5.5921034,5.43389812 C5.5337313,5.4466252 5.46450322,5.43512938 5.35033099,5.39944697 L5.22823131,5.35983232 L5.18563089,5.34685912 C5.06462586,5.31148553 5.0028789,5.30810768 4.94887921,5.33892955 C4.8228596,5.41085884 4.8454655,5.59444857 4.95582991,5.71490281 L4.96845068,5.72801792 C4.99535928,5.75463993 4.99551762,5.77551685 4.97376411,5.79597291 C4.96315538,5.8059489 4.95023711,5.81438389 4.92874114,5.82509316 L4.90415377,5.83670183 L4.83665107,5.86646485 L4.81080962,5.87878314 C4.79192203,5.88833713 4.77914585,5.89643839 4.76868602,5.90552755 L4.76265773,5.91111911 C4.72451852,5.94410893 4.72979451,5.9802323 4.76118649,6.01358397 L4.76801793,6.0204059 C4.77476298,6.02673811 4.78111548,6.03157354 4.78587493,6.03466367 L4.84640029,6.06469358 L4.83634574,6.13210673 L4.86915934,6.2235582 C4.87392357,6.22861257 4.87700491,6.23057233 4.88097629,6.23253687 C4.88809925,6.23606042 4.89546347,6.23824615 4.90315582,6.23824615 C4.91054451,6.23824615 4.91693858,6.23624292 4.92211215,6.23237972 L4.92406005,6.23041421 Z M5.31631766,5.40635746 C5.45057868,5.44986819 5.52892584,5.46467061 5.59772066,5.44965691 C5.68636531,5.43419299 5.71690381,5.4545088 5.71369994,5.49812012 L5.71347916,5.49922499 L5.71372107,5.49536583 C5.70821073,5.49768646 5.70194371,5.50054727 5.69488922,5.50396819 L5.67133257,5.51593116 L5.64223453,5.53172634 C5.60951359,5.54886204 5.57470917,5.55649021 5.53679216,5.55590811 C5.49074363,5.55520117 5.44756056,5.54452322 5.37970125,5.51970808 L5.31493965,5.49549624 L5.27996722,5.48311915 C5.20492027,5.45772042 5.17331609,5.45648618 5.13381008,5.47514051 C5.09898188,5.49322094 5.09657699,5.51716479 5.12010105,5.54595568 L5.13307816,5.56078172 L5.14344376,5.57024457 L5.16773162,5.58989425 L5.2117948,5.62425526 C5.28234101,5.67908991 5.31285168,5.71283306 5.31285168,5.74723653 C5.31285168,5.78980854 5.28042516,5.8244845 5.22561785,5.851995 C5.2061232,5.86178032 5.18516852,5.86992049 5.16421129,5.8764761 L5.14772466,5.881308 L5.13660889,5.88407839 L5.128806,5.89291181 C5.13096468,5.90572593 5.13651163,5.92461068 5.14687423,5.94365054 L5.15338931,5.95447467 C5.15568296,5.95791668 5.15810067,5.96118857 5.16064875,5.96427809 L5.16787055,5.97210864 L5.15054061,5.97215284 L5.14071241,5.98395259 L5.15201819,6.00252614 C5.15490643,6.00767689 5.15796176,6.01343028 5.16101721,6.01962725 C5.16774052,6.03326325 5.17310961,6.04653317 5.17662585,6.05892635 C5.18340125,6.08280666 5.18269928,6.10150019 5.17361188,6.11273845 C5.16325749,6.12554359 5.13855962,6.13409578 5.10364096,6.13841413 C5.08699588,6.1404726 5.06961099,6.14142491 5.05286077,6.14158338 L5.02147864,6.14095565 L5.00994888,6.14698007 L5.00211678,6.17087695 L4.9959273,6.19248846 C4.99198433,6.2071171 4.98869572,6.22135151 4.98627884,6.2348017 L4.98396834,6.24932985 C4.98142152,6.26800047 4.98104776,6.28383635 4.98329908,6.29643264 L4.98374001,6.29848664 L4.98264637,6.29820223 C4.96762412,6.29319784 4.96037138,6.28345736 4.95550939,6.26576048 L4.95223253,6.25117259 C4.94741017,6.22701937 4.94339747,6.21691724 4.93085512,6.20761066 L4.91242507,6.21139851 C4.9096399,6.21966503 4.90657488,6.22193931 4.90315582,6.22193931 C4.90061269,6.22193931 4.89701031,6.2208701 4.89316667,6.21896875 L4.88753029,6.21564755 L4.85786787,6.13086182 L4.86901905,6.06157554 L4.86419319,6.05389108 L4.79920594,6.02174353 L4.79072398,6.01518972 C4.78722262,6.0122148 4.78321489,6.00850837 4.77920378,6.00424685 C4.75557418,5.97914214 4.7498716,5.95376611 4.77154127,5.92940016 L4.77979124,5.92131734 C4.79192118,5.90933676 4.80752341,5.89954599 4.83614808,5.88595151 L4.86409543,5.8732278 L4.91665372,5.85015173 C4.95559769,5.83247654 4.97494312,5.82118886 4.99101644,5.80607421 C5.01904677,5.77971571 5.01882654,5.75067918 4.98603189,5.71823381 C4.87120672,5.60463158 4.8435066,5.41964722 4.96227853,5.35185475 C5.01054126,5.32430742 5.07155848,5.32973334 5.19788166,5.36812113 L5.24248021,5.38213785 L5.31631766,5.40635746 Z" id="path4952" fill="#000000" fill-rule="nonzero"></path>
            <path d="M5.14962546,4.37994833 L5.13926661,4.38172615 C5.09531111,4.39172238 5.06363838,4.43080641 5.05030647,4.47119035 L5.04905712,4.47531002 L5.04662313,4.47526642 C4.99360527,4.47804661 4.94097515,4.57508869 4.9418674,4.62917068 L4.94208139,4.63260133 L4.93567958,4.63016374 C4.88589761,4.61343352 4.84338616,4.64764754 4.81658985,4.71455592 L4.8120745,4.7266118 C4.79359363,4.77947449 4.78929815,4.83951299 4.80199799,4.87197 L4.80266453,4.8734238 L4.79501636,4.87513131 C4.75576329,4.88584804 4.7327897,4.92269522 4.72046707,4.98051609 L4.71495507,5.01096376 L4.71320975,5.02601056 L4.70820235,5.07627492 L4.70657844,5.08899566 C4.70603696,5.09247712 4.70548144,5.09527866 4.70487032,5.09763692 L4.70154001,5.10822301 C4.67496284,5.19823433 4.70745546,5.24281883 4.77151424,5.21695658 L4.78078962,5.21276455 L4.78204734,5.22168222 C4.78462909,5.25038344 4.77216322,5.27044647 4.74921116,5.2763511 L4.74601681,5.28861112 C4.83275918,5.41413442 4.89645635,5.40498184 4.99491249,5.29357114 L5.01441808,5.27073959 L5.02847461,5.25367736 C5.10467514,5.16091485 5.14079132,5.12948685 5.19013031,5.12948685 C5.24615718,5.1091945 5.29446062,5.0842954 5.3369456,5.05559981 C5.37794243,5.02790937 5.41139472,4.99820372 5.43786924,4.96845201 L5.44436283,4.9609988 L5.45526425,4.94762811 L5.46353239,4.93639459 C5.46470121,4.93470573 5.46576798,4.93310991 5.46673655,4.93160909 L5.54342169,4.94574624 L5.55003541,4.93836799 L5.58473416,4.84402323 L5.69223097,4.55962279 L5.68922166,4.54944508 L5.68142355,4.54547651 L5.66502077,4.53794831 C5.65649918,4.53430152 5.64744594,4.53081169 5.63763001,4.52739333 L5.61691274,4.52062658 L5.59375084,4.5138984 L5.56773356,4.50705681 L5.53845013,4.49994979 L5.50548979,4.49242536 L5.40086142,4.46942265 L5.35935868,4.45956251 L5.32143571,4.44967121 C5.24897513,4.42975073 5.19624337,4.4086828 5.15274133,4.38070457 L5.14962546,4.37994833 Z M5.14133055,4.39640006 L5.1491791,4.39501137 L5.14755877,4.39403718 C5.19202748,4.42263712 5.24546467,4.44401641 5.31865867,4.46415434 L5.35695202,4.47414754 L5.40877646,4.48635082 L5.50339714,4.50708759 L5.55101375,4.51810825 C5.55584729,4.51928029 5.56053678,4.52043792 5.56509058,4.52158418 L5.59085175,4.52835 L5.61375695,4.53499042 C5.61735876,4.53609488 5.62085826,4.53720025 5.62426381,4.53830959 L5.64363654,4.54503785 L5.66115526,4.55200865 L5.6790317,4.56031051 L5.56628055,4.8589182 L5.54484799,4.91765922 L5.54058579,4.93013977 L5.46510006,4.91629649 L5.45967789,4.91914732 L5.45459761,4.92692921 L5.44689376,4.93732586 L5.43648678,4.95006431 C5.4345226,4.95236738 5.43244247,4.95475664 5.43024473,4.95722642 C5.40444357,4.98622143 5.37173968,5.0152625 5.33155807,5.04240232 C5.28977477,5.07062398 5.24220976,5.09514243 5.18853849,5.11486731 C5.1417956,5.11460922 5.10666028,5.14109034 5.0428882,5.21603657 L4.99670166,5.27151214 C4.90347256,5.3807832 4.84650015,5.39845758 4.7706572,5.30060872 L4.76091372,5.28747976 L4.76409236,5.28607959 C4.78930488,5.27253741 4.80044897,5.24037411 4.79011324,5.20048971 L4.78238773,5.19596677 C4.71510237,5.23202878 4.68495411,5.1951882 4.71569304,5.10292975 C4.7165016,5.09984217 4.71718927,5.0965025 4.71782439,5.09257526 L4.71964043,5.07869533 L4.72635546,5.01369642 L4.72928326,4.99655493 C4.74140746,4.92849821 4.76618596,4.89041739 4.81349503,4.88703665 L4.8172708,4.87432479 C4.7996253,4.85162748 4.80352511,4.77972723 4.82689179,4.72138237 C4.85415464,4.65330905 4.89735928,4.6234553 4.9479663,4.65135339 L4.95543134,4.64116971 C4.94089005,4.60376094 4.99962261,4.48462853 5.05257396,4.49030445 L5.05855209,4.48523394 C5.06859477,4.44648039 5.09861868,4.4061384 5.14133055,4.39640006 Z" id="path4954" fill="#000000" fill-rule="nonzero"></path>
            <path d="M6.12733831,4.1999275 C5.85450918,4.1999275 5.62733831,4.42709837 5.62733831,4.6999275 C5.62733831,4.97275663 5.85450918,5.1999275 6.12733831,5.1999275 C6.40016744,5.1999275 6.62733831,4.97275663 6.62733831,4.6999275 C6.62733831,4.42709837 6.40016744,4.1999275 6.12733831,4.1999275 Z M6.12733831,4.22975302 C6.38369526,4.22975302 6.59751279,4.44357055 6.59751279,4.6999275 C6.59751279,4.95628445 6.38369526,5.17010198 6.12733831,5.17010198 C5.87098136,5.17010198 5.65716382,4.95628445 5.65716382,4.6999275 C5.65716382,4.44357055 5.87098136,4.22975302 6.12733831,4.22975302 Z" id="path4956" fill="#000000" fill-rule="nonzero"></path>
            <path d="M6.13037153,4.34376974 L6.12357074,4.34007895 C6.117134,4.34153446 6.10612373,4.34498955 6.09205986,4.35104706 C6.06872375,4.36109826 6.04540487,4.37495866 6.02364306,4.39323626 C6.01500902,4.40048792 6.0067782,4.40831945 5.99900851,4.41675266 C5.89030253,4.56185386 5.84726219,4.74017832 5.85951895,4.94527379 C5.84618648,5.02913952 5.80021727,5.06821383 5.67939874,5.10198681 L5.65234802,5.10915713 C5.64293897,5.11152978 5.63313266,5.11388978 5.62291369,5.11625151 L5.59100345,5.1233563 L5.54556777,5.13291231 L5.51001473,5.14074794 L5.47650565,5.14884569 C5.29230213,5.19562599 5.20374547,5.25886637 5.1631651,5.40375432 L5.16526011,5.41489323 C5.19150718,5.53345736 5.34112238,5.64324238 5.47556538,5.67247192 L5.48468767,5.67425 L5.48390028,5.67160407 C5.49043049,5.6893238 5.4893362,5.71141446 5.48204902,5.74045216 L5.4771854,5.75804364 L5.46240797,5.8064795 L5.45912799,5.81905971 C5.45425341,5.83980052 5.45559811,5.84852731 5.4624427,5.85781372 C5.46706553,5.86776394 5.47561539,5.87127886 5.49764741,5.8736343 L5.50550386,5.87438375 C5.6035989,5.88282133 5.66703954,5.90394624 5.77295385,5.98879721 C5.79107112,5.98797183 5.79747828,5.99059254 5.80714645,5.99978789 L5.81276116,6.00518516 C5.82015513,6.01213023 5.82657354,6.01651756 5.83539649,6.0197097 C5.84615872,6.02360348 5.86432397,6.02557513 5.8881866,6.0261507 C5.89819942,6.02639221 5.9086718,6.02637279 5.91917093,6.02615667 L5.94841063,6.02506127 L5.95320619,6.01803158 L5.94209593,5.99555837 C5.93345222,5.97873153 5.92415857,5.96190218 5.91456484,5.94617582 C5.90353443,5.92809442 5.89280769,5.9126388 5.88260594,5.9005918 C5.87796075,5.89510641 5.87345252,5.89036421 5.86908436,5.8864132 C5.85867445,5.87699744 5.84622092,5.87107329 5.83224484,5.86823857 C5.8145446,5.86464847 5.79582465,5.86614891 5.77775356,5.87079557 L5.76912658,5.87328261 L5.76329573,5.87538217 C5.76066878,5.87181605 5.75460033,5.86816023 5.7464861,5.86384906 L5.71285016,5.8464552 L5.70099865,5.84010204 C5.65158088,5.81294253 5.62701651,5.79011654 5.613624,5.7526161 L5.61188502,5.7473 L5.61357758,5.74647854 C5.65583863,5.72080432 5.69725971,5.62567388 5.68139635,5.58966991 L5.68026534,5.5877 L5.68363206,5.58643062 C5.70466881,5.57692671 5.71324887,5.55444168 5.71935286,5.51190602 L5.72263946,5.48855691 L5.72468393,5.47626358 L5.72598121,5.4698 L5.79823107,5.4651 L5.79831867,5.46548421 L5.79923905,5.46600319 L5.80288384,5.4673122 C5.82616659,5.47433194 5.86640197,5.46947956 5.92820358,5.44463531 C5.95472595,5.43397332 5.97724911,5.42247277 6.00696703,5.40467302 L6.0307794,5.39005679 L6.06181193,5.37040555 C6.11785893,5.33491939 6.15129316,5.31739866 6.19303932,5.3048122 C6.27045801,5.31367383 6.33551296,5.30412066 6.43506568,5.27548886 L6.49911237,5.25644701 L6.52143729,5.25006681 L6.54102556,5.24488744 C6.56720689,5.26746844 6.58784193,5.27102357 6.63429227,5.26502152 C6.66174002,5.27900012 6.68742726,5.29810078 6.70966519,5.32143675 C6.71316934,5.32511392 6.71631088,5.32852147 6.71926765,5.33188179 L6.72776148,5.34204343 L6.73621366,5.353256 L6.74569119,5.36685383 L6.75726107,5.38417124 C6.77328787,5.40841458 6.77926927,5.41468131 6.79007322,5.4109889 L6.79277613,5.40973613 C6.79628908,5.40765407 6.79946923,5.40389813 6.80268816,5.39814397 L6.80469873,5.3942 L6.80758956,5.40067143 C6.83604818,5.45980727 6.88157797,5.4788854 6.92457772,5.47587725 L6.93287357,5.47501152 L6.93685643,5.46745292 L6.83735394,5.31245292 L6.81947065,5.29978749 L6.79503649,5.28281601 C6.77461474,5.26860718 6.75419342,5.25420921 6.73437939,5.2400023 L6.68890022,5.20690743 L6.66095637,5.18594505 C6.65656608,5.1826009 6.65231345,5.17933414 6.64820469,5.17614867 C6.62595032,5.16368832 6.59817107,5.15581088 6.56561795,5.15139423 L6.54379672,5.14899681 C6.52178916,5.14711693 6.49934242,5.1467449 6.47753476,5.14747768 L6.45964621,5.14835 L6.46687164,5.14330345 C6.48459489,5.13048052 6.50231467,5.1157874 6.51886671,5.09943862 L6.52902609,5.08903332 C6.5651319,5.05064079 6.58848215,5.00963785 6.59386112,4.96691423 L6.59452736,4.95915 L6.59053687,4.9599426 C6.65183194,4.94714843 6.70641006,4.95704479 6.77204941,4.98551906 L6.78977143,4.99354377 L6.83928415,5.01710059 L6.85168297,5.02241488 C6.86446434,5.02748103 6.87454428,5.03009318 6.88329831,5.03024539 L6.88441128,5.03015 L6.88270137,5.02714509 C6.91008316,5.08021687 6.96253741,5.07913366 7.01596519,5.05319628 L7.02349988,5.04925872 L7.02410297,5.04114867 L6.98220142,5.0091551 C6.9610448,4.99316273 6.93960571,4.97717008 6.9184466,4.96164977 L6.86913643,4.9260114 L6.85927358,4.92474157 C6.8560068,4.924236 6.85272773,4.92363835 6.84933693,4.92291935 L6.83872992,4.92036902 L6.82685595,4.91691483 L6.81311846,4.91238107 L6.7877131,4.90317184 L6.72161356,4.87767693 C6.66326996,4.85537683 6.62600526,4.8449275 6.59480376,4.8449275 C6.59174298,4.84745138 6.58935144,4.84963132 6.58733177,4.85161126 L6.57974978,4.85965662 C6.56339786,4.87736607 6.53951805,4.89632741 6.51011643,4.91582951 C6.48936707,4.92959256 6.46711282,4.94281058 6.44485629,4.95500104 L6.42826432,4.96390012 L6.41973466,4.9683 L6.41049613,4.95611086 C6.40113455,4.94403945 6.39119078,4.93196632 6.3810831,4.92068284 C6.37260776,4.91122159 6.3643809,4.9027314 6.35652177,4.89545048 L6.34992071,4.88954745 C6.34128074,4.88211318 6.33328896,4.87644195 6.32559425,4.87255 L6.32687143,4.86855879 C6.33237812,4.84450385 6.31307771,4.80646549 6.27506874,4.7569804 C6.26505631,4.7439449 6.25389031,4.73034923 6.24177005,4.71634123 C6.22935494,4.70199247 6.2163535,4.68767864 6.20315684,4.67369341 L6.17750778,4.64714501 L6.16401327,4.63365 L6.17868704,4.6314343 C6.19772781,4.62829116 6.21677469,4.62425312 6.23459289,4.61922126 C6.25923372,4.61226268 6.27954948,4.60395125 6.29413322,4.594058 L6.30339851,4.59582971 C6.33957288,4.60165947 6.36543593,4.59244324 6.39286698,4.56958481 L6.3973466,4.5656 L6.39817104,4.56577006 C6.4042694,4.56689576 6.41067775,4.56709587 6.41685608,4.56574113 C6.42896619,4.56308571 6.43742756,4.55493543 6.44002596,4.54083391 C6.44637744,4.50636443 6.44383574,4.49027163 6.42303517,4.44793986 L6.41828349,4.44493873 L6.40790775,4.44418343 L6.39210983,4.44245021 L6.37400359,4.43968252 L6.34232957,4.43377224 L6.26125744,4.41731863 L6.24471593,4.41421233 C6.1964573,4.40546622 6.16022988,4.40189514 6.1286346,4.404 L6.12989308,4.40117251 C6.13137073,4.39705877 6.13244361,4.39265572 6.1331456,4.38799941 C6.13487195,4.37654854 6.1342876,4.36442225 6.13227736,4.35273344 L6.13092694,4.34597151 C6.13072289,4.3450988 6.13053495,4.344361 6.13037153,4.34376974 Z M6.1173011,4.35244696 L6.12061913,4.3514 L6.12119451,4.3542928 C6.12305167,4.36509152 6.12359123,4.37628836 6.12203231,4.38662869 C6.12081977,4.39467145 6.1183808,4.40168177 6.1145941,4.40739022 L6.12009858,4.41503333 C6.15227568,4.41139531 6.19008414,4.41465395 6.24267671,4.42418992 L6.29458839,4.43444591 L6.34028483,4.4437536 L6.35766826,4.44710318 L6.3723285,4.44972503 L6.38495554,4.45172544 L6.39623937,4.45321074 L6.41409619,4.45485 L6.41278573,4.45206014 C6.43271717,4.49262311 6.43494245,4.5067125 6.42896243,4.53916609 C6.42710652,4.54923812 6.42197653,4.5541795 6.41421355,4.55588171 C6.40987148,4.55683381 6.40503376,4.55668275 6.40041382,4.55582994 L6.39757221,4.5551878 L6.39183328,4.5564132 C6.36185084,4.58353232 6.33647584,4.59309552 6.29186821,4.585026 C6.2740206,4.59502065 6.25477824,4.60289293 6.23125015,4.60953728 C6.21391477,4.6144328 6.1952971,4.61837984 6.17667332,4.62145415 L6.15530323,4.6245738 C6.15403014,4.62472847 6.15289744,4.62485772 6.15191523,4.62496224 L6.14849929,4.63348858 L6.16391962,4.64864329 L6.17486611,4.6597232 C6.1946671,4.67995485 6.2144673,4.701247 6.23293728,4.72259368 C6.24493312,4.73645787 6.25597404,4.74990125 6.2658574,4.76276871 C6.30624961,4.81535662 6.32431673,4.85460875 6.31348466,4.87257102 L6.31619883,4.87966236 C6.32500075,4.88307436 6.33599533,4.89095638 6.34849635,4.90253766 C6.35609145,4.90957397 6.36409651,4.91783527 6.37236849,4.9270695 C6.37898734,4.9344583 6.38554647,4.9422062 6.39191657,4.9500743 L6.40848884,4.97134194 L6.41320208,4.97775564 L6.42058148,4.97946021 L6.43597863,4.97157897 L6.45066609,4.96367896 C6.47318569,4.95134442 6.49570756,4.93796744 6.51674925,4.92401049 C6.54681897,4.90406524 6.57132728,4.88460485 6.5883585,4.8661597 C6.59254028,4.86163075 6.5962509,4.85718117 6.59946996,4.85281372 C6.60890167,4.85368248 6.6200741,4.85572242 6.63349412,4.85914293 L6.65070942,4.86392362 C6.65376926,4.86483531 6.65692711,4.86580558 6.66018702,4.8668361 L6.68100377,4.87375556 C6.68468818,4.87503377 6.68848276,4.87637558 6.69239158,4.87778266 L6.72334509,4.88936352 L6.78197033,4.91200575 L6.79930728,4.91840671 L6.82048714,4.92565667 L6.83212719,4.92913432 C6.83393698,4.92963365 6.83568868,4.93009485 6.83739282,4.93052096 L6.84713123,4.93268073 L6.85623377,4.93414361 C6.85921813,4.93453124 6.86218076,4.93482696 6.86520592,4.93505498 C6.86662101,4.93659315 6.86881234,4.93842383 6.87140392,4.94041279 L6.88000343,4.94672033 C6.90069033,4.96161299 6.92194323,4.97721713 6.94319738,4.99305861 L6.99594768,5.03284114 L7.01072416,5.04415 C6.96216777,5.06779921 6.9165399,5.06874146 6.89286524,5.02285491 L6.887164,5.01995852 C6.87826284,5.02085309 6.8662445,5.01763139 6.84853601,5.00993632 L6.79139403,4.98286947 C6.71714565,4.94855575 6.65677907,4.93570418 6.58801481,4.9500574 L6.58367307,4.95477966 C6.58136212,5.00285536 6.55433783,5.04938139 6.51059489,5.09258714 C6.49446188,5.10852203 6.47716196,5.12286701 6.45986551,5.13538115 L6.44862943,5.14325897 L6.4369531,5.15075447 L6.44071771,5.16003333 L6.45680861,5.15868109 C6.49148343,5.15635788 6.52891318,5.15667281 6.56395414,5.16142699 C6.59513677,5.16565769 6.62153786,5.17314433 6.64161583,5.18432004 L6.67091422,5.20666459 L6.69814214,5.22677496 C6.71724826,5.24073309 6.73726087,5.25506866 6.75757535,5.26940328 L6.8291393,5.319058 L6.92283029,5.4658 L6.91729823,5.46603208 C6.87661353,5.46652197 6.83439861,5.44409997 6.81018485,5.37839593 L6.79957621,5.37831177 C6.79376814,5.3931964 6.78910598,5.40047442 6.78610877,5.40149876 C6.78487447,5.4019206 6.78271856,5.40042407 6.7790241,5.39595202 L6.77381277,5.38908965 L6.76688754,5.37896482 L6.75512595,5.36136277 C6.7533706,5.35877865 6.75170258,5.35635046 6.75009924,5.35404995 L6.74107391,5.34155288 L6.7325127,5.33076338 C6.73106406,5.32903206 6.72958942,5.32731537 6.72806611,5.32558503 L6.71816095,5.31481325 C6.69503421,5.29054459 6.66824692,5.27062594 6.63608647,5.25549959 C6.58913035,5.26060909 6.57162569,5.25759328 6.5431148,5.2361032 C6.52977822,5.23775167 6.51891815,5.24025058 6.50744355,5.24341635 L6.4519323,5.2598748 C6.34205563,5.29270131 6.27491562,5.30397045 6.19193407,5.29496363 C6.15402862,5.30596548 6.12396631,5.32024221 6.08208457,5.34553495 L6.01232679,5.38920219 L5.99029576,5.40239797 C5.96607137,5.41646915 5.94631806,5.42625144 5.92364827,5.43536469 C5.86418123,5.45927044 5.82668029,5.46379306 5.8064307,5.4576878 L5.80296536,5.45641251 C5.80262705,5.45625132 5.80240344,5.45612316 5.80228719,5.45603904 L5.72099348,5.45994039 L5.71591851,5.46389962 L5.71364302,5.47447163 L5.71153689,5.48711417 L5.70822713,5.51062069 C5.70178015,5.55554611 5.69280047,5.57498688 5.67028163,5.58007895 L5.66767629,5.5885868 C5.69169034,5.61030751 5.64475796,5.72148699 5.60279879,5.74046302 L5.59988809,5.74630699 C5.61348096,5.79241233 5.63980814,5.81840154 5.69565921,5.84903725 L5.74962452,5.87722125 L5.76267719,5.88432004 C5.77032714,5.88363516 5.77480286,5.88210126 5.78082057,5.88055391 C5.79724707,5.87633014 5.81418518,5.87497251 5.82979066,5.87813773 C5.84175894,5.88056522 5.85230154,5.88558034 5.86115335,5.8935868 C5.8651453,5.89719752 5.86933842,5.90160826 5.87370169,5.90676074 C5.88351352,5.91834728 5.89396165,5.93340148 5.90474448,5.95107704 C5.91104807,5.96141009 5.91723011,5.97224423 5.92318215,5.98324613 L5.93483342,6.00554321 L5.93969044,6.0153 L5.93441375,6.01555699 C5.91902347,6.01614312 5.90321346,6.01636454 5.88848559,6.0160093 L5.87051392,6.01521576 C5.85673669,6.01427987 5.84608939,6.01265189 5.83956206,6.0102903 C5.83422782,6.00836037 5.82995646,6.00586975 5.82545982,6.00221429 L5.81527405,5.99279663 C5.80326598,5.98137581 5.7933919,5.97733704 5.77575023,5.97999652 C5.67719798,5.89864642 5.61289579,5.87502856 5.52003289,5.86554731 L5.50656568,5.86428431 C5.48542129,5.86246559 5.47738186,5.86049062 5.47352937,5.85516307 L5.47226353,5.85300184 C5.46717425,5.84600142 5.46630775,5.83807487 5.47046752,5.82015392 L5.47357296,5.80812948 L5.48057731,5.78464317 L5.4880304,5.76063284 L5.49149799,5.74843263 C5.49201562,5.74650271 5.49250899,5.74460225 5.49298691,5.74269784 C5.50068806,5.71201058 5.5018642,5.68826784 5.49454085,5.66839593 L5.4903204,5.665026 C5.35283517,5.64015493 5.19304606,5.52390314 5.17415314,5.40428264 C5.21807075,5.24903056 5.32002992,5.1909785 5.54810818,5.14279366 L5.59342661,5.13326258 L5.62521993,5.12618593 L5.65464886,5.11910084 C5.800734,5.08232847 5.85548514,5.04186382 5.87067056,4.94571736 C5.85858469,4.74168402 5.9011033,4.5655212 6.00795978,4.4228449 C6.01508527,4.41514994 6.02298694,4.40763161 6.03127509,4.40067045 C6.0521572,4.38313171 6.07452824,4.36983469 6.09688205,4.36020658 C6.1048921,4.35675654 6.11180833,4.35421161 6.1173011,4.35244696 Z" id="path4958" fill="#000000" fill-rule="nonzero"></path>
            <path d="M5.0290562,4.98817042 C5.01470165,5.00833005 5.02665388,5.04190161 5.05498493,5.091637 L5.06864901,5.11459138 L5.09689877,5.15742653 L5.31180888,5.34988637 L5.71776841,5.8387539 L6.01182933,5.97749007 L6.02296266,5.95640724 L5.85819233,5.62971851 L5.39991737,5.21769941 L5.17548423,5.0260241 L5.15584215,5.01514817 L5.12969063,5.00205327 L5.10521421,4.99126105 C5.06608152,4.97543975 5.04075259,4.97174395 5.0290562,4.98817042 Z M5.11135119,5.02270456 L5.1367639,5.03473886 L5.15938527,5.04666376 L5.16734077,5.05115819 L5.38951432,5.24113564 L5.84487797,5.64934084 L5.98964167,5.93784586 L5.72727702,5.81516826 L5.32348711,5.32775103 L5.11015577,5.13691398 L5.09773421,5.11870356 C5.08804241,5.10404532 5.07865405,5.08897665 5.07034136,5.07438367 C5.05021055,5.03904388 5.04035494,5.0113613 5.04296204,5.00769987 C5.04590471,5.00356717 5.05920207,5.0043669 5.07855777,5.01023685 L5.09977378,5.01780197 L5.11135119,5.02270456 Z" id="path4960" fill="#000000" fill-rule="nonzero"></path>
            <path d="M6.80518355,5.52581089 C6.7455083,5.56250312 6.68307836,5.60431736 6.61871373,5.6502978 C6.56077483,5.69168786 6.5032066,5.73503404 6.44714475,5.77903138 L6.3441569,5.86189645 L6.26843469,5.92566502 C6.26489398,5.92873476 6.26167349,5.93154675 6.25878445,5.93408814 L6.25939786,5.95064468 L6.78241357,6.36375321 L6.80797859,6.3462486 L6.80739852,6.34581175 L6.80632653,6.34378073 L6.80513527,6.33321495 L6.80521117,6.31481844 L6.80655045,6.28960034 L6.81091991,6.24119019 L6.81540105,6.20333308 L6.82446556,6.14069474 L6.83633007,6.07406058 L6.84578898,6.02909981 L6.85648288,5.98488596 C6.85836789,5.97763529 6.86030421,5.97045779 6.86229175,5.96337448 C6.93417948,5.70717693 7.06378837,5.50234304 7.25878445,5.38924606 L7.25196848,5.36706895 C7.14942281,5.34865968 6.99737727,5.40763771 6.80518355,5.52581089 Z M7.18854101,5.39039364 L7.20414729,5.38938085 L7.17154856,5.41208018 C7.00497247,5.53440738 6.89286769,5.72594988 6.82765383,5.95836272 L6.82141369,5.98142011 C6.81602202,6.00207584 6.81104611,6.02311293 6.80650298,6.04416315 L6.7941889,6.10698501 L6.78457349,6.16767631 L6.7777588,6.22402769 C6.77506864,6.25075017 6.77346702,6.27501667 6.77301133,6.29558441 L6.77296375,6.31851739 L6.29580587,5.94161059 L6.35236372,5.89382444 L6.39085888,5.86210709 C6.47178216,5.79601903 6.55733696,5.72993398 6.64363379,5.66828575 C6.70741079,5.62272509 6.76920953,5.58133361 6.82816484,5.54508406 C6.97710169,5.453508 7.10080924,5.39918397 7.18854101,5.39039364 Z" id="path4962" fill="#000000" fill-rule="nonzero"></path>
            <path d="M5.80983969,4.3049275 C5.7321211,4.3049275 5.67733664,4.39164445 5.69426536,4.42226849 C5.7018816,4.44308025 5.70140763,4.4619253 5.69694537,4.46936767 L5.69531587,4.4714132 C5.69341945,4.47426176 5.69102801,4.47653866 5.68739979,4.47916404 C5.68461201,4.48118128 5.68120077,4.48333895 5.67731115,4.48557778 C5.6737074,4.48765207 5.6700932,4.48958335 5.66678288,4.49126607 L5.65807795,4.49546302 C5.65923627,4.49458055 5.65716702,4.49350256 5.65337731,4.49236605 L5.64659079,4.49063451 C5.61613532,4.48374776 5.58067005,4.48374776 5.5427263,4.4951878 L5.53068855,4.49896923 C5.46337766,4.52098346 5.41192195,4.5527574 5.40205448,4.58381201 L5.40154782,4.58585 L5.39860665,4.58658957 C5.36915282,4.59508697 5.3293709,4.62524317 5.3195901,4.64871915 L5.31934771,4.64935 L5.3141675,4.64921956 C5.28304391,4.64998899 5.25005514,4.67978703 5.20793691,4.74751315 C5.16961044,4.76182123 5.14128751,4.80253942 5.12301902,4.85992869 C5.1146599,4.88618833 5.10896956,4.91427028 5.10544616,4.94234416 L5.10371075,4.95787995 L5.10235907,4.97563373 C5.10228106,4.97719364 5.10222486,4.97860743 5.10218823,4.97986656 C5.10092574,4.98071796 5.09897192,4.98297795 5.09667113,4.98610384 L5.09170897,4.99334938 C5.09083885,4.9946958 5.08995569,4.99609823 5.08907224,4.99753658 C5.08594481,5.00262834 5.08320784,5.00757951 5.0809703,5.01230184 C5.07684176,5.02101514 5.07454671,5.02862665 5.07454671,5.035 L5.07478765,5.04025038 C5.07637667,5.0574298 5.08565214,5.07105858 5.09789939,5.0711 L5.09829727,5.07224671 C5.10249548,5.08186451 5.11405702,5.09066647 5.12471712,5.09099705 L5.12719735,5.0908 C5.13425024,5.09996371 5.14621795,5.10647561 5.15689584,5.10636019 L5.15981205,5.106 L5.16165015,5.10764362 C5.1661246,5.11051774 5.1738897,5.11126488 5.18348526,5.11068627 C5.19531127,5.10997316 5.20724317,5.10722215 5.21126235,5.1035868 C5.21463894,5.09797745 5.21502093,5.09148861 5.21388189,5.07939117 L5.21146533,5.05583724 L5.21126235,5.0485868 C5.21091635,5.04889976 5.21125763,5.04936075 5.21220068,5.05002235 L5.22836359,5.05898966 C5.24004529,5.06522431 5.24742659,5.06752255 5.25402818,5.06453698 C5.26215457,5.06086182 5.26344948,5.05289736 5.26034668,5.04354243 C5.25818583,5.03702747 5.25374377,5.02983764 5.24995777,5.0264132 L5.23624655,5.01736475 L5.23043407,5.01313579 C5.22114547,5.00543437 5.21504437,4.99619099 5.21282862,4.98416609 C5.21186623,4.97894324 5.21177371,4.97308483 5.21247908,4.96670473 C5.2135484,4.95703268 5.2163836,4.94658499 5.22044467,4.9359734 C5.22203834,4.93180916 5.22363064,4.92807484 5.22508487,4.92491063 L5.22889661,4.91726849 L5.23034345,4.91646996 L5.23510723,4.91313705 L5.24590626,4.90467292 C5.25975846,4.89345638 5.27361054,4.88117995 5.28655396,4.86822316 C5.30990113,4.84485188 5.32767849,4.82189541 5.33766524,4.80016504 L5.34111897,4.79184972 C5.34213276,4.78910799 5.34300793,4.78639662 5.3437409,4.78371657 L5.344555,4.7799 L5.34942982,4.77970039 C5.38063198,4.77722826 5.40849878,4.76252394 5.4353128,4.73815773 L5.44051962,4.7332 L5.43926562,4.73647092 C5.41732048,4.79821905 5.4300201,4.87614724 5.48010245,4.9138968 C5.48429234,4.98878978 5.55443571,5.12500925 5.60353337,5.1398122 L5.61664171,5.14324116 C5.65973682,5.15413231 5.71929402,5.16575783 5.77875585,5.17485134 L5.81820124,5.18050273 C5.87680303,5.18830961 5.93163001,5.19285863 5.96612472,5.19088342 L5.96943062,5.19055 L5.97010606,5.18441857 C5.95557593,5.29832028 6.03061879,5.39528637 6.17135544,5.48908365 C6.16907407,5.50342183 6.17131675,5.51457858 6.18107178,5.52781372 L6.18386593,5.53067267 C6.19618324,5.54068481 6.23013128,5.54543276 6.24736101,5.54205139 L6.25046987,5.5412 L6.24740677,5.53781372 C6.26951377,5.56780739 6.3908327,5.58838232 6.4059929,5.56781372 C6.40754769,5.5637832 6.40580137,5.55895917 6.39957614,5.5520964 L6.39404902,5.54654759 L6.38236757,5.53653552 L6.36628593,5.52414658 L6.3373549,5.50324966 L6.23370566,5.430925 L6.21258128,5.41557524 L6.20401892,5.40891423 L6.1952314,5.4014132 C6.14472172,5.31722508 6.09534014,5.20137359 6.08628781,5.11949527 C6.04755185,5.07651276 5.99709882,5.04989479 5.93920026,5.03430591 L5.92556924,5.03086303 C5.89868003,5.02451658 5.87415444,5.02134746 5.85427308,5.02030108 L5.84875622,5.02005 L5.85414113,4.84013704 L5.86519266,4.63024127 L5.86223003,4.62552426 L5.78949696,4.59045 L5.79287627,4.58888088 C5.79470325,4.58794299 5.79656948,4.58691082 5.79843971,4.58578308 L5.80365466,4.58233083 L5.80552792,4.58075 L5.80630007,4.58100357 C5.82471256,4.58489575 5.84924933,4.56635883 5.86361814,4.54723536 L5.86782753,4.541 L5.86334542,4.5398122 C5.88560862,4.54652455 5.90942233,4.54456641 5.90942233,4.53 C5.91025516,4.52894246 5.91095859,4.52722267 5.91161688,4.52454231 L5.91289827,4.51781245 L5.91420912,4.50799075 L5.91679117,4.4855327 L5.918438,4.47462434 C5.91901144,4.47146274 5.91962252,4.46872018 5.92031072,4.46623026 C5.98366271,4.415289 5.90857728,4.3049275 5.80983969,4.3049275 Z M5.80983969,4.3150725 C5.89947647,4.3150725 5.96741895,4.41493522 5.9110977,4.46124665 C5.90825385,4.46872562 5.90685608,4.475445 5.90568087,4.48420212 L5.90232999,4.51254944 L5.90098729,4.52074786 C5.90053721,4.52295319 5.90007592,4.5246678 5.89957735,4.52600192 L5.89879825,4.52773151 C5.89820619,4.53361541 5.88253479,4.53490402 5.86689228,4.5301878 L5.86010284,4.53273151 C5.84974746,4.55146439 5.82027959,4.57655022 5.80681978,4.57046302 L5.80034627,4.5714132 C5.79803379,4.57350484 5.79529553,4.57548624 5.79221811,4.57734192 C5.78570649,4.58126843 5.77913095,4.5839118 5.77489877,4.5851878 L5.7740331,4.59447574 L5.85378662,4.63295 L5.84293338,4.83975873 L5.83740116,5.02486296 L5.84292514,5.03007196 L5.84452304,5.03009311 C5.86791374,5.03056451 5.9002463,5.03440269 5.93600029,5.04402927 C5.99195372,5.05909443 6.04053338,5.08472404 6.0764179,5.12326738 C6.08436144,5.20402725 6.13421844,5.3209941 6.18634259,5.40742898 L6.19584498,5.41572249 L6.20474831,5.42276365 L6.22108486,5.43480637 L6.26046834,5.46250872 L6.31259058,5.49874701 L6.34701465,5.52330568 L6.36710498,5.53816595 L6.38207335,5.54979066 L6.38911227,5.55566063 L6.39373309,5.55996909 C6.39542953,5.56172472 6.39619793,5.56287626 6.39600642,5.56339593 C6.38663798,5.57578435 6.27490698,5.55683547 6.25673917,5.53218628 L6.2464649,5.535 L6.24549192,5.53502442 L6.23866317,5.53449828 L6.22744647,5.53319009 C6.21279116,5.5312005 6.19437709,5.52757654 6.19040417,5.52218628 C6.18219348,5.51104642 6.18029022,5.50157817 6.18029022,5.485 C6.0401866,5.38906146 5.96730443,5.29488727 5.98124828,5.18558143 L5.97498157,5.17996667 C5.94409675,5.18345859 5.88833272,5.17933662 5.8274047,5.17145651 L5.79038593,5.16630831 C5.78416543,5.1653854 5.77793272,5.16443262 5.77170752,5.16345382 L5.73460408,5.15729972 L5.6986271,5.15070635 C5.6635288,5.14395504 5.6315397,5.13682245 5.60691827,5.13014143 C5.56348818,5.1170448 5.49519128,4.98441121 5.48928647,4.9096386 C5.42972089,4.86279688 5.42565587,4.75896724 5.47108057,4.70026422 L5.47701598,4.69316877 L5.46825765,4.68683123 L5.45376434,4.70364207 C5.44713628,4.7112368 5.44123597,4.71761103 5.43505968,4.72370535 C5.40502506,4.75334132 5.37446273,4.7699275 5.33996683,4.7699275 L5.33442397,4.77422869 C5.33323422,4.78122358 5.33084033,4.78858548 5.32730828,4.79627095 C5.3178943,4.81675501 5.30079721,4.83883302 5.27823185,4.86142169 C5.26557614,4.87409047 5.25200057,4.88612183 5.23842513,4.89711428 L5.22594775,4.90692025 L5.22040559,4.91101868 C5.21657956,4.91686511 5.21320986,4.923864 5.20984558,4.93265486 C5.2055206,4.94395603 5.20248555,4.95514016 5.2013186,4.96569527 C5.20052038,4.97291517 5.20062686,4.97965676 5.20176508,4.98583391 C5.2044222,5.0002541 5.211824,5.0114681 5.22285504,5.02061421 L5.2291545,5.02525709 L5.24202676,5.0335868 C5.24441359,5.03574569 5.24794827,5.04146684 5.24960357,5.04645757 C5.2513286,5.05165856 5.2508448,5.05463421 5.24901217,5.05546302 C5.24770093,5.05605603 5.24412418,5.05514262 5.23858301,5.05253174 L5.23027472,5.04817996 L5.22010988,5.04259685 C5.20919494,5.03680569 5.20778661,5.03738342 5.20333134,5.0414132 C5.2004576,5.0440125 5.19956487,5.04661824 5.20004523,5.05456449 L5.20261779,5.07940301 L5.20324584,5.08821901 C5.20342242,5.09314965 5.20311008,5.09623141 5.20228084,5.09773151 L5.19180502,5.0995788 C5.18895279,5.10000055 5.18580304,5.10037898 5.18273917,5.10056373 C5.17923306,5.10077515 5.17628262,5.10070608 5.1740043,5.10055554 L5.16868159,5.1 L5.16056552,5.09546302 C5.15364617,5.09859229 5.13986035,5.09166492 5.13492204,5.08273151 L5.12739802,5.08046302 C5.12133321,5.08320583 5.10787452,5.07255412 5.10787452,5.065 L5.09975844,5.06046302 C5.09401016,5.06306268 5.08576285,5.05187314 5.08576285,5.035 C5.08576285,5.03027335 5.08769666,5.02385986 5.09127956,5.01629816 C5.09335379,5.01192049 5.09592363,5.00727166 5.09887691,5.00246342 L5.10264973,4.99653103 L5.10955357,4.98662363 C5.11057844,4.98523983 5.11152227,4.98400641 5.11235784,4.98294833 L5.11547426,4.952971 C5.11580769,4.94995286 5.11617579,4.94679455 5.11659072,4.94348846 C5.12004859,4.9159368 5.12562983,4.8883932 5.13379729,4.86273567 C5.15123719,4.80794933 5.1779262,4.76958015 5.21510242,4.75463531 C5.26232357,4.68075245 5.2945601,4.65495888 5.32228325,4.659974 L5.32888225,4.6559948 C5.33359019,4.63470315 5.37963481,4.59999702 5.40740166,4.594974 L5.41185353,4.59071736 C5.41648032,4.56142283 5.47292524,4.52692659 5.54627315,4.5048122 C5.58203495,4.49403001 5.61536152,4.49403001 5.64387048,4.5004766 L5.65279988,4.50277919 L5.65830831,4.50463531 C5.66818559,4.50223429 5.67573831,4.49850806 5.68333283,4.49413672 C5.68753807,4.49171622 5.69126765,4.4893572 5.69440646,4.48708596 C5.69919967,4.48361759 5.70255208,4.48042574 5.70429738,4.47726849 C5.71275951,4.46998262 5.71456839,4.44544066 5.70460165,4.41839593 C5.69100682,4.39368889 5.74067366,4.3150725 5.80983969,4.3150725 Z" id="path4964" fill="#000000" fill-rule="nonzero"></path>
            <path d="M5.96539316,4.46723602 C5.95879867,4.48676069 5.95302293,4.50577428 5.94813797,4.52326433 L5.94042318,4.5524191 L5.93097522,4.54051454 L5.91025519,4.5162702 L5.88534858,4.49009842 C5.85851586,4.46349498 5.83222733,4.44296879 5.80747912,4.43090661 L5.79085034,4.42401623 C5.75299463,4.41126714 5.72183683,4.42209897 5.69915438,4.46242711 L5.69422356,4.47248149 L5.69858321,4.47820192 C5.60188202,4.34466184 5.5316979,4.3818763 5.48530781,4.52689378 L5.47666663,4.556157 C5.4714005,4.57551686 5.46711023,4.59441493 5.46371506,4.61186784 L5.45863156,4.64090177 L5.46216196,4.64101849 C5.43588735,4.63818185 5.40348835,4.64826623 5.37201741,4.68267204 C5.32992382,4.72869115 5.29904837,4.81041325 5.28494516,4.9353837 L5.29351403,4.97287307 C5.36322562,4.96217655 5.42109095,5.00318297 5.49646285,5.10067454 L5.60409796,5.24627526 C5.60732899,5.25040996 5.610383,5.25424823 5.61328106,5.25781122 L5.62896624,5.27605475 L5.64191875,5.28870597 L5.65314898,5.29677955 L5.66366734,5.30129015 C5.66541721,5.30180137 5.66717952,5.30220641 5.66897532,5.30252641 L5.68032035,5.30359503 C5.6823343,5.30365941 5.68442384,5.30368104 5.68661002,5.30368104 C5.71226426,5.20626741 5.74365438,5.13781647 5.80265234,5.04239277 L5.86956004,4.93678731 L5.89369631,4.89597507 L5.91362766,4.85839531 C5.94864999,4.8272875 5.99114378,4.83448618 6.04679233,4.87552667 L6.06749031,4.8917285 L6.14286386,4.95794871 L6.17321952,4.98276827 C6.22402196,5.02174602 6.249872,5.02521914 6.27915668,4.99948405 C6.30598346,4.77802167 6.23764038,4.38761994 6.11402632,4.31789247 L6.09892989,4.31109575 C6.05583939,4.28332625 6.01416282,4.33531005 5.97588994,4.43769225 L5.96539316,4.46723602 Z M6.09631936,4.36632781 C6.16572006,4.38986729 6.21427627,4.497225 6.24371983,4.65930132 C6.26446782,4.77351158 6.27353025,4.91638906 6.26863997,4.96366192 C6.26272763,4.96627615 6.25670059,4.96762437 6.25007776,4.96741922 L6.23589521,4.96485262 C6.23080787,4.96324993 6.2253132,4.96087172 6.21926866,4.95763283 L6.19934288,4.945249 C6.19569947,4.94272631 6.19188295,4.93996716 6.18787551,4.93696092 L6.1613973,4.91587317 L6.08326283,4.84723216 L6.05066485,4.82100766 C5.99241878,4.77805151 5.94725909,4.77040122 5.90664383,4.80779314 C5.89982163,4.82101754 5.89298636,4.83365207 5.88564941,4.84656578 L5.86164495,4.88701353 L5.81361498,4.96259755 C5.73970256,5.07834156 5.70302135,5.1535714 5.67954797,5.25946269 L5.6662075,5.253599 L5.65780001,5.24823211 L5.64871938,5.24046038 L5.63184492,5.22197129 L5.5984931,5.1789932 L5.5291204,5.0838742 L5.5026427,5.0483995 C5.43385977,4.95949459 5.37879603,4.91603062 5.3164504,4.91528859 L5.30653186,4.91572176 L5.31144166,4.88841831 C5.32575677,4.81743468 5.3484151,4.76753564 5.3775942,4.73563539 C5.40091211,4.71014293 5.42507785,4.69897428 5.44628734,4.69687344 L5.46365065,4.69720332 L5.47224987,4.67967911 C5.47562843,4.65246287 5.48370021,4.60984283 5.49739383,4.56703598 C5.53865953,4.43803758 5.60136085,4.4047908 5.69174589,4.52960856 L5.7003717,4.52627675 C5.72169974,4.47473386 5.75798736,4.46334948 5.80488319,4.48620633 C5.82869341,4.49781134 5.85417421,4.51770684 5.88024409,4.54355396 L5.90452607,4.56906599 L5.92467402,4.59262916 L5.93982752,4.61230264 L5.95026486,4.60304718 C5.95706289,4.57292807 5.96974866,4.52681102 5.98697692,4.4807244 C6.01776415,4.39836674 6.05032413,4.35287016 6.08318978,4.36053874 L6.09631936,4.36632781 Z" id="path4966" fill="#000000" fill-rule="nonzero"></path>
            <path d="M5.51327797,4.53142505 C5.49167685,4.56965596 5.51526432,4.60576863 5.57403734,4.65351426 L5.59818572,4.6723649 L5.64413887,4.70555972 L5.76731213,4.79093136 C5.80767857,4.82608187 5.83167228,4.87025718 5.8460588,4.92806997 L5.8498895,4.94446481 L5.8567373,4.98284004 L5.86422823,5.03191897 L5.87027605,5.0645407 C5.87866456,5.10344468 5.88895929,5.1252123 5.90844772,5.14460635 C5.97125121,5.22057126 6.03426155,5.26663615 6.14473318,5.32439483 L6.27053387,5.38843652 L6.30428529,5.40612006 L6.33189697,5.42123842 L6.35550337,5.43501797 L6.37723895,5.44868508 L6.39923816,5.46346613 L6.42363545,5.48058748 L6.44831972,5.47392519 L6.50539132,4.79441107 L6.49812376,4.78486449 L6.39824848,4.74429648 L6.1824243,4.68282472 L6.14023385,4.6630209 C6.13536127,4.66067185 6.13020544,4.65816553 6.12480829,4.655515 C6.07981021,4.63341653 6.03481646,4.60938845 5.99287341,4.58428843 C5.96265434,4.56620441 5.9352186,4.54826181 5.91115667,4.53063848 L5.88610751,4.51173259 C5.78658123,4.45867315 5.63655194,4.4788492 5.51327797,4.53142505 Z M5.85061387,4.51974555 L5.86800582,4.5278746 L5.86660405,4.52679952 C5.89661712,4.55080038 5.93294293,4.57532383 5.97422887,4.60003061 C6.01694091,4.62559082 6.06264905,4.6500004 6.10835286,4.67244545 L6.16101777,4.69738382 C6.16417955,4.69881013 6.16700243,4.70006461 6.1694623,4.70114064 L6.38569117,4.76278304 L6.47581829,4.79957883 L6.42117224,5.44998541 L6.39812112,5.4343638 L6.36678275,5.41484589 L6.34346618,5.40150727 L6.31616476,5.38673039 L6.24259452,5.34882661 L6.1928193,5.32368212 C6.06550654,5.25951131 5.99947985,5.21410313 5.93270264,5.13340919 C5.91782044,5.11855495 5.90881659,5.10126668 5.90155691,5.07259134 L5.89566504,5.045015 L5.88187902,4.95857636 L5.87664945,4.93309297 L5.87456582,4.92448561 C5.85939044,4.86350274 5.83368843,4.81618226 5.78778257,4.77638043 L5.61174808,4.65070924 L5.56806229,4.61801369 L5.55264906,4.60563194 L5.54097338,4.5954042 C5.53931602,4.59385866 5.53779724,4.59238756 5.53640846,4.59098324 L5.52956718,4.58329741 C5.52866409,4.58212958 5.52787386,4.58101322 5.52718789,4.57994066 L5.52425472,4.57396983 L5.52341235,4.56868293 L5.52424911,4.56371245 L5.52775204,4.55604607 L5.53445717,4.54350153 C5.63518872,4.50323603 5.76304359,4.48426075 5.85061387,4.51974555 Z" id="path4968" fill="#000000" fill-rule="nonzero"></path>
            <path d="M5.92568326,4.59895702 C5.88832895,4.60063416 5.84857844,4.60395744 5.80814416,4.6084426 L5.72608079,4.61912035 L5.70032283,4.69539711 C5.71298221,4.71661671 5.73450868,4.7470614 5.76289072,4.77764462 L5.79136201,4.80575836 C5.82960407,4.8400365 5.86890832,4.86107103 5.90856395,4.86386738 L5.93175757,4.8626155 L5.93660232,4.87695277 C5.97926884,4.99573252 6.04949309,5.0715342 6.14102348,5.08862868 L6.15562005,5.08974125 L6.14538701,5.05955917 C6.16909022,5.14895447 6.22541306,5.20861239 6.31402897,5.26113107 L6.40802876,5.31214506 L6.4063573,5.280508 C6.4063573,5.3537078 6.43009435,5.42831022 6.46909833,5.50186087 C6.49180162,5.54467294 6.51448255,5.57793844 6.53020059,5.59769833 L6.58762957,5.59256746 L6.70031203,5.40368949 C6.70077009,5.32517861 6.68663816,5.26668109 6.66253908,5.20740609 L6.64178215,5.16213899 C6.61977317,5.11974038 6.59393004,5.08623762 6.56355117,5.06424425 L6.55601838,5.05999297 L6.55768984,5.09163003 C6.55768984,4.94035354 6.49596041,4.87383668 6.3438303,4.81008668 C6.32820308,4.74334313 6.27270195,4.69292681 6.16691281,4.64274685 L6.12345666,4.6238078 C6.08672423,4.60071876 6.01996436,4.59472398 5.92568326,4.59895702 Z M6.09436538,4.71210049 C6.21435993,4.76238411 6.26929758,4.80554957 6.29769774,4.87695597 C6.44418439,4.95313085 6.48147894,4.99331778 6.48147894,5.09163003 L6.50753439,5.13707592 C6.54076633,5.15100174 6.57034743,5.19116457 6.59467825,5.25100953 L6.60843599,5.28837909 C6.62071139,5.32529792 6.62858485,5.35996978 6.6324622,5.38434177 L6.55714521,5.49110694 L6.53250963,5.44871595 C6.50108708,5.38946178 6.4825682,5.33125937 6.4825682,5.280508 L6.46150403,5.23766121 L6.34652676,5.17446996 C6.27498407,5.13206981 6.23321598,5.08782847 6.21768702,5.02926191 L6.18153702,4.99650637 C6.09224841,4.99650637 6.027293,4.92505514 5.99232211,4.79316445 L5.94378479,4.76301074 L5.92020298,4.76797872 C5.887604,4.76866641 5.85064285,4.74601532 5.81193856,4.703958 C5.8540441,4.69953174 5.89250981,4.69631588 5.92840335,4.69470433 L6.00129757,4.69403479 C6.03360907,4.69514831 6.05921189,4.69839839 6.07583219,4.70362368 L6.09436538,4.71210049 Z" id="path4970" fill="#000000" fill-rule="nonzero"></path>
            <path d="M6.69520623,4.36766497 C6.65403739,4.36639978 6.61077667,4.36901845 6.56817627,4.37412428 L6.528623,4.37967408 C6.52585535,4.38013443 6.5233975,4.38056509 6.52127027,4.38095734 L6.05883243,4.67628773 L5.85797778,4.73406005 L5.82634686,4.97527769 L5.98630205,5.19582708 L5.91754549,5.36007181 L5.95667193,5.36734955 L6.00097151,5.35046905 C6.03411523,5.33756721 6.06726327,5.32412037 6.09824242,5.31079173 L6.14028976,5.29210688 C6.18709316,5.27053158 6.21968986,5.25249997 6.23465306,5.23870458 C6.24513366,5.22010455 6.23540181,5.18916217 6.21168206,5.14729348 L6.19168955,5.11459273 L6.17080187,5.08390441 L6.14440754,5.04865412 L6.13463938,5.04061093 C6.07369459,4.9866233 6.06312683,4.90605469 6.1666621,4.80241804 C6.22054926,4.74847812 6.30157575,4.69591703 6.42722482,4.62887576 L6.67469555,4.50095937 L6.68475061,4.49556822 C6.75687972,4.45635543 6.80222795,4.42632678 6.82634686,4.39964293 C6.7904448,4.37687259 6.74665053,4.36924595 6.69520623,4.36766497 Z M6.69137464,4.38462124 C6.73088844,4.38583557 6.76289258,4.39140899 6.78644739,4.40226722 L6.73285771,4.4362051 L6.69422851,4.45925916 C6.6870615,4.46341747 6.67951819,4.46773007 6.67158074,4.47219146 L6.62373225,4.49814482 L6.43317673,4.59611361 C6.28013135,4.67552671 6.18498416,4.73485971 6.12336836,4.79653585 C6.01564434,4.90436535 6.02679083,4.98934615 6.09226998,5.04734332 L6.10202331,5.0551285 L6.12959704,5.09303989 L6.14682684,5.11856631 C6.15407297,5.12969255 6.1606847,5.14047536 6.16651872,5.15077321 L6.18079132,5.1784522 C6.19249414,5.20409769 6.1963077,5.22337516 6.19061254,5.23387651 C6.18286084,5.24076791 6.16669088,5.25058049 6.14368933,5.26238741 L6.10426165,5.28147767 L6.06321146,5.29971849 L6.01617752,5.31938604 L5.97378661,5.33609219 L6.0313921,5.19487736 L5.87167744,4.97336961 L5.89519548,4.74107913 L6.0909598,4.68878945 L6.09682637,4.68629493 L6.55161687,4.39278761 C6.55079184,4.39357873 6.55256942,4.39369812 6.55619498,4.39341331 L6.58243704,4.39030617 C6.61969465,4.38584069 6.65719358,4.38357079 6.69137464,4.38462124 Z" id="path4972" fill="#000000" fill-rule="nonzero"></path>
            <path d="M6.78945696,4.56344937 L6.78167995,4.5399275 L6.72535018,4.5399275 C6.71697302,4.55038148 6.71111689,4.56104697 6.7045249,4.57421403 L6.68455324,4.61423515 L6.65514063,4.67009734 C6.6498655,4.67982094 6.6444049,4.68974106 6.63876035,4.69984259 C6.57421618,4.81535149 6.49908048,4.93087942 6.41415565,5.03868631 C6.26703056,5.22545264 6.10635857,5.36889397 5.93393237,5.45196299 C5.88417097,5.46860048 5.85857363,5.3808696 5.85423824,5.2169776 C5.85264194,5.15663242 5.85415387,5.0918044 5.85765311,5.02829498 L5.86167734,4.96842652 L5.84992869,4.95196193 L5.81237551,4.96666155 L5.80537622,4.97797749 L5.80256042,5.00049395 L5.79918507,5.0323085 C5.79859683,5.03831693 5.798001,5.04466114 5.79740542,5.05131532 C5.79128944,5.11964716 5.78823501,5.18887166 5.78991294,5.25367597 C5.79449422,5.43061209 5.8331767,5.5399275 5.91795677,5.5399275 C6.1323195,5.47686309 6.33621733,5.29002325 6.52514721,5.02128803 C6.5928407,4.92500032 6.65436616,4.82398232 6.70892176,4.72344774 L6.72347367,4.69634195 L6.74936278,4.64651165 C6.75331572,4.6387238 6.75708613,4.6312047 6.76067164,4.62396953 L6.78788532,4.56692972 L6.78945696,4.56344937 Z M6.76402995,4.56733493 L6.7556147,4.58527268 L6.73439206,4.62806951 L6.70880155,4.67732045 C6.70417903,4.68602583 6.69937944,4.69496941 6.69440523,4.70413584 C6.64035452,4.80373999 6.57938827,4.90383983 6.51233845,4.99921198 C6.32578825,5.26456234 6.12480524,5.44873121 5.91619087,5.51036055 C5.84665644,5.51010198 5.8131664,5.41546025 5.80894615,5.25246782 C5.80732046,5.18968099 5.81029992,5.12215549 5.81626993,5.05545463 L5.82129296,5.00580261 C5.82180607,5.00129919 5.82229722,4.99713976 5.82275946,4.99332973 L5.84106664,4.98612691 L5.83867475,5.02573149 C5.83511147,5.09040324 5.8335715,5.15643357 5.8352057,5.21821186 C5.8399943,5.39923641 5.87047342,5.50369882 5.93872901,5.48079802 C6.11448809,5.3961829 6.27725137,5.25087455 6.4261522,5.06185402 C6.51197255,4.95291033 6.58787369,4.83620548 6.65309675,4.71948162 C6.67022703,4.6888251 6.68569233,4.65980175 6.69945212,4.63281952 L6.72733525,4.57607436 L6.73316883,4.5633564 L6.76402995,4.56733493 Z" id="path4974" fill="#000000" fill-rule="nonzero"></path>
            <path d="M5.86836911,5.61042951 C6.14850713,5.41286119 6.41837372,5.54160914 6.66203948,5.87561588 C6.7188473,5.95348564 6.76966135,6.03688771 6.8137954,6.120302 C6.82409888,6.13977581 6.83354295,6.15832822 6.84210179,6.1757549 L6.86300167,6.21984539 L6.86836911,6.2319306 L6.85355773,6.2479257 L6.84344653,6.22537897 L6.82914927,6.19548981 L6.81076636,6.15903226 C6.80736766,6.15245164 6.8038029,6.14562959 6.80007418,6.13858223 C6.75652189,6.05626747 6.70636285,5.97394049 6.65032765,5.8971298 C6.43245957,5.59848542 6.19456673,5.46781176 5.94759281,5.59284495 L5.92657649,5.60408314 L5.93554177,5.60388409 C6.01540996,5.60444542 6.07128709,5.6353608 6.10680672,5.68860849 L6.11526462,5.70238103 C6.13052394,5.72939244 6.13905773,5.75656323 6.14306685,5.77948986 L6.14467663,5.79113759 L6.15207062,5.79121495 C6.16600059,5.79172143 6.18129432,5.7939393 6.19672876,5.79863868 L6.21216481,5.80419376 C6.26575039,5.82661094 6.29667262,5.87571483 6.29134252,5.95552764 L6.28957636,5.97272753 L6.29111153,5.97266504 C6.33077984,5.972898 6.35842545,5.99894453 6.37528193,6.04290974 L6.38050285,6.05821763 C6.38618783,6.07701147 6.38958699,6.09568802 6.39139673,6.11222504 L6.39209226,6.12111004 L6.39659986,6.11865858 C6.40480287,6.11431968 6.41303304,6.1111292 6.42110312,6.10948431 L6.43306477,6.10822582 C6.45816063,6.10822582 6.47696046,6.12611736 6.48563272,6.16406685 L6.48798568,6.17729644 L6.49427154,6.17398499 C6.52846389,6.15892225 6.5595895,6.19036388 6.58662785,6.2519353 L6.59330169,6.26794638 C6.60162357,6.28894191 6.60846775,6.30987722 6.61374238,6.3283502 L6.61990537,6.35216082 L6.62211076,6.35238418 C6.63400234,6.35393588 6.64856034,6.35883472 6.66371375,6.36903095 L6.67515809,6.37770185 C6.69924836,6.39808954 6.71772952,6.42937091 6.72465298,6.46629745 C6.75124721,6.49443096 6.77676986,6.49443096 6.7996512,6.47767315 C6.80342766,6.47490735 6.80645539,6.47218096 6.80862365,6.46994788 L6.81121757,6.46702498 L6.82240961,6.48922467 C6.81942571,6.49301261 6.81424875,6.49829361 6.80715905,6.50348596 C6.77902282,6.52409233 6.74698718,6.52409233 6.71129634,6.48311596 C6.70256571,6.44617211 6.6871398,6.42006209 6.66672704,6.40278668 C6.65078215,6.38929246 6.63472543,6.3829636 6.6223021,6.38097183 L6.61372439,6.38024701 L6.60527708,6.37076322 C6.60044571,6.34904141 6.59117475,6.31597828 6.578136,6.28308243 C6.55181493,6.21667619 6.52340584,6.18605515 6.49321103,6.2046402 L6.4856253,6.21031936 L6.4723717,6.1994632 C6.46920833,6.15428588 6.45562866,6.1366553 6.43306477,6.1366553 C6.42345727,6.1366553 6.41289188,6.14000837 6.4022654,6.14562915 L6.39158193,6.15204859 L6.38815143,6.15456121 L6.37518729,6.14184717 C6.37518729,6.12441719 6.37245362,6.09730566 6.36435117,6.07051995 C6.35123334,6.02715405 6.32826097,6.00152883 6.29164534,6.00108911 L6.27892963,6.00188554 L6.26957238,5.98381482 C6.28460296,5.90033691 6.26019777,5.8536889 6.20759755,5.83168394 C6.1886253,5.82374702 6.16893336,5.82027691 6.15161588,5.81964084 L6.1373536,5.81976651 L6.12796571,5.8064562 C6.12715856,5.78596354 6.12026098,5.75381673 6.10192409,5.72135753 C6.06568971,5.65721694 5.99940026,5.6227361 5.89443941,5.63456929 L5.87292907,5.63755839 L5.86836911,5.61042951 Z" id="path4976" fill="#000000" fill-rule="nonzero"></path>
            <path d="M6.74651183,5.93657388 L6.77613713,5.88665974 L6.80592018,5.94941861 L6.82040047,5.97878868 C6.8549223,6.04815203 6.8918429,6.11751023 6.92961092,6.1821537 C6.96745174,6.24692177 7.00407787,6.30334187 7.03864077,6.34897774 C7.09879297,6.42840098 7.15002028,6.47144403 7.18815213,6.47144403 C7.24425369,6.47144403 7.28255924,6.37309879 7.30486602,6.20128822 C7.31613181,6.11451724 7.32141303,6.02719511 7.32307489,5.95893311 L7.32367961,5.91161681 L7.36228745,5.90120498 C7.36560403,5.92355673 7.37251631,5.9584952 7.38273257,5.9929209 C7.40049626,6.05277916 7.41914193,6.08071574 7.44021905,6.07196355 L7.45096741,6.064508 L7.4794523,6.09840645 C7.4794523,6.16696091 7.49423069,6.21533681 7.51956008,6.24947777 C7.53126907,6.26526007 7.54307075,6.27547128 7.55232658,6.28116435 L7.56063608,6.28539038 L7.57483586,6.33762318 L7.56576069,6.37312214 L7.55046726,6.42391879 C7.53008088,6.48728978 7.50482032,6.55059598 7.47435932,6.6097428 C7.28167392,6.98388441 6.99798433,7.01276973 6.6161253,6.48606003 L6.57483586,6.42749126 L6.59859047,6.36704847 C6.98615727,6.93179788 7.26123285,6.91592763 7.44640773,6.55636937 C7.47864853,6.4937667 7.50281192,6.43119409 7.51941563,6.37831809 L7.52903221,6.34534235 L7.51243703,6.33011642 L7.49698565,6.31157492 C7.47177169,6.27758955 7.45354782,6.23180675 7.44519247,6.17383984 L7.4425026,6.14809249 L7.43691384,6.15020904 C7.41164077,6.15402103 7.38919583,6.13110568 7.37000092,6.08928559 L7.35771911,6.05880704 L7.35658171,6.07995076 C7.3549646,6.10377751 7.35304542,6.12744507 7.35079937,6.15078734 L7.34305583,6.21967224 C7.31685947,6.42144094 7.26785936,6.54724327 7.18815213,6.54724327 C7.14014239,6.54724327 7.08252865,6.49883411 7.01637867,6.41149156 C6.980321,6.36388205 6.9424463,6.30553859 6.90345814,6.23880676 C6.87770852,6.1947339 6.85239066,6.14860561 6.8279431,6.10179369 L6.76457189,5.97513599 L6.74651183,5.93657388 Z" id="path4978" fill="#000000" fill-rule="nonzero"></path>
            <path d="M6.49517169,5.89773151 C6.53757432,6.03067788 6.50976053,6.15216279 6.43026539,6.29028402 L6.40264898,6.33557809 L6.33618873,6.4385597 L6.31792352,6.47110055 C6.31502778,6.47689985 6.31529915,6.47752332 6.3161005,6.47815144 C6.37831151,6.52691451 6.63356893,6.33736572 6.76211266,6.14833026 C6.83321043,6.14833026 6.87374673,6.17378839 6.88862491,6.22924413 C6.89795891,6.26403491 6.89707292,6.29293379 6.8867653,6.35671131 L6.87936314,6.39968034 L6.88266668,6.40234276 C6.90578401,6.42363611 6.92164446,6.45363662 6.93081805,6.49000732 L6.93645337,6.51844323 C6.94223977,6.55731957 6.94125686,6.59783893 6.9362164,6.63646974 C6.93464916,6.64848133 6.93304454,6.6576117 6.92430746,6.67863498 C6.91864829,6.68454945 6.90893118,6.69271008 6.89569457,6.70069108 C6.874125,6.71369643 6.8509069,6.72138472 6.82653381,6.72182938 L6.81799132,6.72097609 C6.82357597,6.74714772 6.82491323,6.77296964 6.8234962,6.79803594 L6.82120765,6.82279774 L6.81822695,6.84126343 L6.7999965,6.8618622 C6.76806502,6.8618622 6.72172433,6.8469603 6.6751528,6.80203191 C6.64514127,6.77307924 6.61949322,6.73461589 6.59941989,6.68581517 L6.58424803,6.6431762 L6.56599126,6.66336865 C6.53527902,6.69359263 6.49569086,6.72050605 6.44865967,6.74465275 L6.4120131,6.76225251 C6.36475127,6.78351931 6.3142459,6.80111389 6.26375882,6.81528216 L6.19937691,6.83089709 L6.14433747,6.85478777 L6.10052075,6.87158677 L6.08089898,6.87836127 C6.01941655,6.89870899 5.9786834,6.90462159 5.95795812,6.88837641 C5.93809567,6.87280757 5.93649284,6.84171287 5.94617328,6.80925373 C5.95016345,6.79587444 5.95626271,6.78113445 5.96426279,6.76498582 L5.98680729,6.72385392 L5.99673665,6.7075052 C6.01234439,6.68238209 6.02789448,6.65955529 6.03702388,6.65056232 L6.04256762,6.6465917 L6.13727722,6.02300476 L6.17466523,6.03695998 L6.07376761,6.67644206 L6.06345882,6.69062956 L6.03810523,6.72783926 L6.02426975,6.74954194 C6.01783859,6.75989392 6.01189212,6.76991083 6.00653211,6.77947253 C5.99815295,6.79442008 5.99141636,6.80790307 5.98664114,6.81930544 L5.98000079,6.83648815 C5.98519676,6.83764793 5.99241918,6.83773567 6.00135279,6.83680439 L6.03297193,6.83100655 C6.0389923,6.82954841 6.04536165,6.82784878 6.05204058,6.82591427 L6.09197641,6.81284414 L6.13473778,6.79645035 L6.19147154,6.77214984 L6.23609955,6.76164538 C6.24261321,6.75993874 6.24959293,6.75804942 6.25698647,6.75597456 C6.30627576,6.74214242 6.35554675,6.72497787 6.40140953,6.70434061 C6.47240679,6.67239338 6.52816154,6.63516677 6.56262044,6.59386391 L6.57804721,6.57287835 L6.60962843,6.58360242 C6.62784376,6.65975062 6.65737187,6.71413355 6.69529552,6.75071917 C6.71900015,6.77358746 6.74278789,6.78733516 6.76352355,6.79467439 L6.78446413,6.79996377 L6.78542377,6.7874852 C6.78568676,6.77958357 6.78555678,6.77166254 6.78496882,6.7638723 L6.78176605,6.7410441 C6.77981276,6.73185778 6.7770885,6.72337895 6.77350267,6.71563263 L6.76746641,6.70456565 L6.78571529,6.6540382 C6.82017543,6.66754371 6.85283849,6.66197797 6.88189787,6.64445665 L6.89234262,6.63815931 C6.89365568,6.63750524 6.8947109,6.63714418 6.89544232,6.63721906 L6.89641087,6.638722 L6.89856287,6.62439579 C6.90258647,6.5935583 6.90336866,6.56131323 6.89902558,6.5321339 C6.89418415,6.49960645 6.88344335,6.47395088 6.86499504,6.45599408 L6.8496854,6.44398292 L6.83817944,6.40870595 L6.84868916,6.34682608 L6.85481529,6.30332443 C6.85729745,6.27967907 6.85663659,6.26542073 6.85319767,6.2526028 C6.84583392,6.22515573 6.81944184,6.20858064 6.77570083,6.19975718 C6.65009401,6.39666681 6.38106981,6.59643852 6.29891267,6.53204102 C6.26597485,6.50622326 6.27181349,6.46202605 6.29967029,6.41161576 L6.32000538,6.37853022 L6.38184271,6.28305983 C6.45978321,6.15807058 6.49167729,6.0567198 6.46849176,5.95303219 L6.46079603,5.9246763 L6.49517169,5.89773151 Z" id="path4980" fill="#000000" fill-rule="nonzero"></path>
            <path d="M4.20121614,5.67 L4.31730238,5.645 L4.30624655,5.595 C4.30071863,5.585 4.30071863,5.575 4.2896628,5.57 C4.27860697,5.565 4.27307905,5.565 4.2564953,5.565 L4.2564953,5.56 L4.35599779,5.54 L4.35599779,5.545 C4.34494196,5.55 4.33388612,5.55 4.33388612,5.555 C4.33388612,5.56 4.32835821,5.565 4.32283029,5.57 C4.32283029,5.575 4.32283029,5.58 4.32283029,5.59 L4.33388612,5.64 L4.4278607,5.62 C4.44444444,5.615 4.44997236,5.615 4.45550028,5.61 C4.46102819,5.61 4.46102819,5.605 4.46102819,5.6 C4.46102819,5.595 4.46102819,5.585 4.46102819,5.58 L4.46102819,5.57 L4.46655611,5.57 L4.49419569,5.685 L4.48866777,5.685 L4.48866777,5.675 C4.48313986,5.665 4.47761194,5.655 4.47208402,5.655 C4.46655611,5.655 4.45550028,5.655 4.43891653,5.655 L4.25096739,5.695 C4.23438364,5.7 4.22885572,5.7 4.22332781,5.705 C4.21779989,5.705 4.21779989,5.71 4.21779989,5.715 C4.21779989,5.72 4.21779989,5.73 4.21779989,5.735 L4.21779989,5.745 L4.21227197,5.745 L4.16252073,5.55 L4.22885572,5.535 L4.22885572,5.54 C4.21779989,5.545 4.20674406,5.55 4.20121614,5.56 C4.19568823,5.565 4.19016031,5.57 4.19016031,5.58 C4.19016031,5.585 4.19016031,5.6 4.19568823,5.61 L4.20121614,5.67 L4.20121614,5.67 Z" id="text1930-path" fill="#000000" fill-rule="nonzero"></path>
            <path d="M4.12382532,5.2 C4.12382532,5.165 4.14040907,5.135 4.17357656,5.11 C4.20674406,5.085 4.23991155,5.075 4.2896628,5.075 C4.33388612,5.075 4.37258154,5.09 4.40022112,5.12 C4.4278607,5.15 4.44444444,5.18 4.43891653,5.215 C4.43891653,5.25 4.42233278,5.285 4.38916528,5.305 C4.35599779,5.325 4.31730238,5.34 4.27307905,5.335 C4.22332781,5.335 4.18463239,5.315 4.15699281,5.285 C4.13488115,5.265 4.12382532,5.235 4.12382532,5.2 C4.12382532,5.2 4.12382532,5.2 4.12382532,5.2 Z" id="text1930-path" fill="#000000" fill-rule="nonzero"></path>
            <path d="M4.14040907,5.205 C4.14040907,5.23 4.14593698,5.25 4.16804865,5.265 C4.19016031,5.285 4.22885572,5.295 4.27307905,5.3 C4.32283029,5.305 4.3615257,5.295 4.38916528,5.275 C4.41127695,5.26 4.42233278,5.245 4.42233278,5.22 C4.42233278,5.195 4.41680486,5.175 4.3946932,5.155 C4.37258154,5.135 4.33941404,5.125 4.2896628,5.125 C4.23991155,5.12 4.20121614,5.13 4.17357656,5.145 C4.1514649,5.16 4.14040907,5.18 4.14040907,5.205 C4.14040907,5.205 4.14040907,5.205 4.14040907,5.205 Z" id="text1930-path" fill="#000000" fill-rule="nonzero"></path>
            <path d="M4.57711443,4.705 L4.54947485,4.775 L4.38363737,4.815 C4.38363737,4.82 4.37810945,4.825 4.37810945,4.83 C4.37810945,4.83 4.37810945,4.835 4.37810945,4.835 C4.37810945,4.835 4.37810945,4.84 4.37810945,4.84 L4.46102819,4.87 C4.47761194,4.875 4.48866777,4.88 4.49419569,4.875 C4.4997236,4.87 4.51077944,4.865 4.51077944,4.855 L4.51630735,4.845 L4.52183527,4.85 L4.47761194,4.96 L4.47208402,4.955 L4.47761194,4.945 C4.48313986,4.935 4.48313986,4.925 4.47761194,4.92 C4.47208402,4.915 4.46655611,4.91 4.44997236,4.905 L4.26755113,4.84 C4.25096739,4.835 4.23991155,4.83 4.23438364,4.835 C4.22885572,4.84 4.21779989,4.845 4.21779989,4.855 L4.21227197,4.865 L4.20674406,4.86 L4.24543947,4.765 C4.2564953,4.74 4.26755113,4.72 4.27860697,4.705 C4.2896628,4.69 4.30071863,4.685 4.31730238,4.68 C4.33388612,4.675 4.35046987,4.675 4.36705362,4.68 C4.38363737,4.685 4.3946932,4.695 4.40574903,4.71 C4.41680486,4.725 4.41680486,4.745 4.41127695,4.765 L4.51630735,4.74 C4.53841902,4.735 4.55500276,4.73 4.5660586,4.72 C4.57711443,4.715 4.58264234,4.705 4.59369818,4.69 L4.57711443,4.705 Z" id="text1930-path" fill="#000000" fill-rule="nonzero"></path>
            <path d="M4.35599779,4.84 C4.35599779,4.84 4.35599779,4.835 4.35599779,4.835 C4.35599779,4.835 4.35599779,4.83 4.35599779,4.83 C4.36705362,4.805 4.36705362,4.785 4.3615257,4.77 C4.35599779,4.755 4.34494196,4.74 4.32283029,4.735 C4.30624655,4.73 4.2896628,4.73 4.27307905,4.735 C4.2564953,4.74 4.24543947,4.75 4.23991155,4.77 C4.23438364,4.775 4.23438364,4.79 4.22885572,4.8 L4.35599779,4.84 L4.35599779,4.84 Z" id="text1930-path" fill="#000000" fill-rule="nonzero"></path>
            <path d="M4.99723604,3.935 L5.05804312,4.005 L5.0525152,4.01 C5.03040354,3.995 5.01381979,3.985 4.99723604,3.985 C4.97512438,3.98 4.9474848,3.985 4.92537313,4 C4.89220564,4.02 4.87562189,4.045 4.87562189,4.08 C4.87562189,4.11 4.88667772,4.135 4.90326147,4.16 C4.91984522,4.18 4.93642897,4.2 4.95854063,4.21 C4.98065229,4.225 5.00276396,4.23 5.02487562,4.23 C5.04698729,4.23 5.06357103,4.225 5.08015478,4.215 C5.09121061,4.21 5.09673853,4.205 5.10226645,4.195 C5.10779436,4.19 5.11332228,4.18 5.11885019,4.17 L5.06909895,4.105 C5.06357103,4.095 5.0525152,4.085 5.0525152,4.085 C5.04698729,4.085 5.04145937,4.08 5.03593145,4.08 C5.03040354,4.08 5.02487562,4.085 5.01381979,4.09 L5.00829187,4.085 L5.10779436,4.03 L5.11332228,4.035 L5.10779436,4.04 C5.09673853,4.045 5.09121061,4.055 5.09673853,4.06 C5.09673853,4.065 5.10226645,4.075 5.11332228,4.085 L5.16307352,4.155 C5.15201769,4.17 5.14096186,4.185 5.12990603,4.195 C5.11885019,4.205 5.10226645,4.215 5.0856827,4.225 C5.03593145,4.255 4.99170813,4.26 4.94195688,4.25 C4.90878939,4.24 4.88114981,4.22 4.85903814,4.195 C4.84245439,4.175 4.83692648,4.15 4.83139856,4.13 C4.82587065,4.1 4.83139856,4.075 4.84798231,4.05 C4.85903814,4.03 4.87562189,4.01 4.90326147,3.995 C4.9143173,3.99 4.91984522,3.985 4.93090105,3.98 C4.94195688,3.975 4.95301271,3.975 4.96959646,3.97 C4.98065229,3.97 4.98618021,3.965 4.98618021,3.965 C4.98618021,3.965 4.99170813,3.96 4.99170813,3.96 C4.99170813,3.96 4.99170813,3.955 4.98618021,3.945 L4.99723604,3.935 L4.99723604,3.935 Z" id="text1930-path" fill="#000000" fill-rule="nonzero"></path>
            <path d="M5.48922056,3.965 L5.37866224,3.99 L5.37313433,4.035 C5.37313433,4.045 5.37313433,4.055 5.37313433,4.06 C5.37313433,4.065 5.37866224,4.065 5.38419016,4.07 C5.38971808,4.07 5.40077391,4.07 5.41182974,4.07 L5.41182974,4.075 L5.31785517,4.095 L5.31785517,4.09 C5.328911,4.085 5.33443892,4.08 5.33996683,4.075 C5.34549475,4.065 5.35102266,4.05 5.35102266,4.03 L5.38971808,3.79 L5.39524599,3.79 L5.56108347,3.985 C5.5721393,4 5.58319514,4.01 5.59425097,4.015 C5.59977888,4.02 5.61083472,4.02 5.62189055,4.015 L5.62189055,4.02 L5.50580431,4.05 L5.50580431,4.045 C5.51686014,4.04 5.52238806,4.04 5.52791598,4.035 C5.53344389,4.03 5.53344389,4.025 5.53344389,4.025 C5.53344389,4.02 5.52791598,4.01 5.51686014,4 L5.48922056,3.965 L5.48922056,3.965 Z" id="text1930-path" fill="#000000" fill-rule="nonzero"></path>
            <path d="M5.47816473,3.955 L5.39524599,3.86 L5.37313433,3.98 C5.37866224,3.975 5.47816473,3.955 5.47816473,3.955 Z" id="text1930-path" fill="#000000" fill-rule="nonzero"></path>
            <path d="M6.00884467,3.95 L6.01437258,3.95 L5.986733,4.025 L5.75456053,4.015 L5.75456053,4.01 L5.76561636,4.01 C5.77667219,4.01 5.78772803,4.005 5.79325594,4 C5.79878386,3.995 5.79878386,3.985 5.79878386,3.97 L5.80431177,3.795 C5.80431177,3.78 5.80431177,3.765 5.79878386,3.765 C5.79325594,3.76 5.78220011,3.755 5.77114428,3.755 L5.76008845,3.755 L5.76008845,3.75 L5.89828635,3.755 L5.89828635,3.76 C5.8817026,3.76 5.87064677,3.76 5.86511885,3.765 C5.85959093,3.77 5.85406302,3.77 5.85406302,3.775 C5.85406302,3.78 5.8485351,3.79 5.8485351,3.805 L5.84300719,3.975 C5.84300719,3.985 5.84300719,3.995 5.84300719,4 C5.84300719,4.005 5.8485351,4.005 5.8485351,4.005 C5.8485351,4.005 5.86511885,4.01 5.8817026,4.01 L5.90381426,4.01 C5.92592593,4.01 5.94250967,4.01 5.95356551,4.005 C5.96462134,4 5.97014925,3.995 5.98120509,3.99 C5.99226092,3.98 6.00331675,3.97 6.00884467,3.95 L6.00884467,3.95 L6.00884467,3.95 Z" id="text1930-path" fill="#000000" fill-rule="nonzero"></path>
            <path d="M6.41238253,4.05 L6.41791045,4.055 L6.3681592,4.12 L6.14704256,4.055 L6.14704256,4.05 L6.1580984,4.055 C6.16915423,4.06 6.18021006,4.06 6.18573798,4.05 C6.19126589,4.045 6.19679381,4.04 6.20232172,4.025 L6.2631288,3.86 C6.26865672,3.845 6.26865672,3.835 6.26865672,3.83 C6.2631288,3.825 6.25760088,3.82 6.24654505,3.815 L6.23548922,3.81 L6.23548922,3.805 L6.36263129,3.845 L6.36263129,3.85 C6.34604754,3.845 6.33499171,3.845 6.32946379,3.845 C6.32393588,3.845 6.31840796,3.85 6.31288004,3.85 C6.30735213,3.85 6.30182421,3.865 6.2962963,3.88 L6.23548922,4.045 C6.2299613,4.055 6.2299613,4.065 6.2299613,4.07 C6.2299613,4.075 6.2299613,4.075 6.23548922,4.08 C6.24101714,4.085 6.24654505,4.085 6.26865672,4.09 L6.29076838,4.095 C6.31288004,4.1 6.32946379,4.105 6.34051962,4.105 C6.35157546,4.105 6.36263129,4.1 6.3681592,4.095 C6.38474295,4.07 6.39579878,4.065 6.41238253,4.05 L6.41238253,4.05 L6.41238253,4.05 Z" id="text1930-path" fill="#000000" fill-rule="nonzero"></path>
            <path d="M6.73300166,4.205 L6.63902709,4.145 L6.59480376,4.17 C6.58374793,4.175 6.57822001,4.18 6.5726921,4.185 C6.5726921,4.19 6.56716418,4.19 6.5726921,4.195 C6.5726921,4.2 6.57822001,4.205 6.58927584,4.215 L6.58374793,4.22 L6.5063571,4.17 L6.51188502,4.165 C6.52294085,4.17 6.53399668,4.17 6.5395246,4.17 C6.55058043,4.17 6.56716418,4.16 6.58374793,4.15 L6.8159204,4.02 L6.82144831,4.025 L6.76064124,4.265 C6.75511332,4.285 6.75511332,4.3 6.75511332,4.305 C6.75511332,4.315 6.76064124,4.32 6.77169707,4.325 L6.76616915,4.33 L6.66666667,4.27 L6.67219458,4.265 C6.68325041,4.27 6.68877833,4.275 6.69430625,4.275 C6.69983416,4.275 6.70536208,4.275 6.70536208,4.27 C6.71088999,4.265 6.71088999,4.255 6.71641791,4.245 L6.73300166,4.205 L6.73300166,4.205 Z" id="text1930-path" fill="#000000" fill-rule="nonzero"></path>
            <path d="M6.73852957,4.19 L6.76616915,4.075 L6.65561083,4.14 C6.65561083,4.135 6.73852957,4.19 6.73852957,4.19 Z" id="text1930-path" fill="#000000" fill-rule="nonzero"></path>
            <path d="M7.09784411,4.25 L7.14759536,4.31 L7.07573245,4.565 L7.21393035,4.47 C7.2305141,4.46 7.23604201,4.45 7.23604201,4.445 C7.23604201,4.44 7.23604201,4.43 7.2305141,4.42 L7.22498618,4.41 L7.2305141,4.405 L7.29132117,4.48 L7.28579326,4.485 L7.28026534,4.475 C7.27473742,4.465 7.26368159,4.46 7.25262576,4.46 C7.24709784,4.46 7.23604201,4.465 7.22498618,4.475 L7.02045329,4.61 L7.01492537,4.605 L7.0923162,4.33 L6.94306247,4.43 C6.92647872,4.44 6.9209508,4.45 6.9209508,4.455 C6.9209508,4.46 6.9209508,4.47 6.92647872,4.48 L6.93200663,4.49 L6.92647872,4.495 L6.86567164,4.42 L6.87119956,4.415 L6.87672747,4.425 C6.88225539,4.435 6.89331122,4.44 6.90436705,4.44 C6.90989497,4.44 6.9209508,4.435 6.93200663,4.425 L7.09784411,4.31 C7.10337203,4.3 7.10337203,4.29 7.10337203,4.285 C7.10337203,4.28 7.10337203,4.275 7.09784411,4.265 C7.09784411,4.26 7.0923162,4.255 7.08678828,4.25 L7.09784411,4.25 L7.09784411,4.25 Z" id="text1930-path" fill="#000000" fill-rule="nonzero"></path>
            <path d="M7.4737424,4.88 L7.40740741,4.905 L7.40187949,4.9 C7.41293532,4.895 7.41846324,4.89 7.42399116,4.885 C7.42951907,4.88 7.43504699,4.87 7.43504699,4.865 C7.43504699,4.855 7.43504699,4.85 7.42951907,4.835 L7.41293532,4.8 L7.1973466,4.87 C7.18076285,4.875 7.16970702,4.88 7.1641791,4.885 C7.15865119,4.89 7.15865119,4.9 7.1641791,4.91 L7.16970702,4.92 L7.1641791,4.92 L7.11995578,4.81 L7.12548369,4.81 L7.13101161,4.82 C7.13653952,4.83 7.14206744,4.835 7.15312327,4.84 C7.15865119,4.84 7.16970702,4.84 7.18629077,4.835 L7.40187949,4.765 L7.39082366,4.735 C7.38529574,4.725 7.37976783,4.715 7.37976783,4.71 C7.37423991,4.705 7.368712,4.7 7.35765616,4.7 C7.34660033,4.7 7.3355445,4.7 7.32448867,4.7 L7.31896075,4.695 L7.38529574,4.675 L7.4737424,4.88 L7.4737424,4.88 Z" id="text1930-path" fill="#000000" fill-rule="nonzero"></path>
            <path d="M7.23604201,5.365 L7.2305141,5.29 L7.36318408,5.19 C7.36318408,5.185 7.36318408,5.18 7.36318408,5.175 C7.36318408,5.175 7.36318408,5.17 7.36318408,5.17 C7.36318408,5.17 7.36318408,5.165 7.36318408,5.165 L7.27473742,5.17 C7.25815368,5.17 7.24156993,5.175 7.24156993,5.175 C7.23604201,5.18 7.2305141,5.19 7.2305141,5.2 L7.2305141,5.21 L7.22498618,5.21 L7.21945826,5.095 L7.22498618,5.095 L7.22498618,5.105 C7.22498618,5.115 7.2305141,5.125 7.24156993,5.13 C7.24709784,5.135 7.25815368,5.135 7.27473742,5.135 L7.46821448,5.125 C7.48479823,5.125 7.50138198,5.12 7.50138198,5.12 C7.50690989,5.115 7.51243781,5.105 7.51243781,5.095 L7.51243781,5.085 L7.51796573,5.085 L7.52349364,5.185 C7.52349364,5.215 7.52349364,5.235 7.51796573,5.25 C7.51243781,5.265 7.50690989,5.275 7.49585406,5.285 C7.48479823,5.295 7.46821448,5.3 7.45163074,5.3 C7.43504699,5.3 7.41846324,5.295 7.40187949,5.285 C7.38529574,5.275 7.37976783,5.26 7.368712,5.235 L7.28579326,5.295 C7.26920951,5.31 7.25262576,5.32 7.24709784,5.33 C7.24156993,5.34 7.23604201,5.35 7.23604201,5.365 L7.23604201,5.365 L7.23604201,5.365 Z" id="text1930-path" fill="#000000" fill-rule="nonzero"></path>
            <path d="M7.37976783,5.16526316 C7.37976783,5.17052632 7.37976783,5.17052632 7.37976783,5.17052632 C7.37976783,5.17052632 7.37976783,5.17578947 7.37976783,5.17578947 C7.37976783,5.20210526 7.39082366,5.22315789 7.40187949,5.23894737 C7.41293532,5.25473684 7.42951907,5.26 7.45163074,5.26 C7.46821448,5.26 7.48479823,5.25473684 7.49585406,5.23894737 C7.50690989,5.22842105 7.51243781,5.21263158 7.51243781,5.19157895 C7.51243781,5.18105263 7.51243781,5.17052632 7.50690989,5.16 L7.37976783,5.16526316 L7.37976783,5.16526316 Z" id="text1930-path" fill="#000000" fill-rule="nonzero"></path>
            <path d="M7.46268657,5.725 L7.43504699,5.815 L7.42951907,5.815 L7.42951907,5.81 C7.42951907,5.805 7.42951907,5.8 7.42951907,5.795 C7.42951907,5.79 7.42399116,5.78 7.41846324,5.775 C7.41293532,5.77 7.40740741,5.76 7.39635158,5.75 L7.302377,5.66 L7.2305141,5.645 C7.21393035,5.64 7.20287452,5.64 7.1973466,5.64 C7.19181868,5.645 7.18629077,5.65 7.18076285,5.66 L7.18076285,5.67 L7.17523494,5.67 L7.20840243,5.56 L7.21393035,5.56 L7.21393035,5.57 C7.20840243,5.58 7.21393035,5.59 7.21945826,5.595 C7.22498618,5.6 7.2305141,5.605 7.24709784,5.605 L7.31343284,5.62 L7.45715865,5.575 C7.4737424,5.57 7.48479823,5.565 7.49032615,5.565 C7.49585406,5.565 7.50138198,5.56 7.50690989,5.55 C7.50690989,5.55 7.51243781,5.545 7.51243781,5.54 L7.51796573,5.54 L7.48479823,5.655 L7.47927032,5.655 L7.47927032,5.65 C7.47927032,5.645 7.47927032,5.64 7.47927032,5.63 C7.47927032,5.625 7.4737424,5.62 7.46821448,5.62 C7.46268657,5.62 7.45163074,5.62 7.43504699,5.625 L7.32448867,5.66 L7.40187949,5.735 C7.41293532,5.745 7.42399116,5.75 7.42951907,5.755 C7.43504699,5.755 7.43504699,5.755 7.4405749,5.755 C7.44610282,5.755 7.44610282,5.75 7.45163074,5.75 C7.45715865,5.745 7.45715865,5.74 7.45715865,5.735 L7.46268657,5.725 L7.46268657,5.725 Z" id="text1930-path" fill="#000000" fill-rule="nonzero"></path>
        </g>
    </g>
</svg>