<svg width="54" height="41" viewBox="0 0 54 41" fill="none" xmlns="http://www.w3.org/2000/svg">
<path d="M49.7331 1H4.26693C2.46265 1 1 2.87081 1 5.17857V35.8214C1 38.1292 2.46265 40 4.26693 40H49.7331C51.5373 40 53 38.1292 53 35.8214V5.17857C53 2.87081 51.5373 1 49.7331 1Z" fill="#FFC400" stroke="black" stroke-width="2"/>
<path d="M22.1959 12.7892L26.3696 14.4295C26.9185 14.6451 27.4673 14.8607 28.0158 15.0763C28.3193 15.1956 28.5776 15.384 28.7179 15.6901C28.7786 15.8224 28.8087 15.9672 28.8447 16.1079L29.9722 20.4917C30.1568 21.2093 30.341 21.9265 30.5257 22.6441C30.5713 22.822 30.6169 22.9995 30.663 23.1775C30.6768 23.2315 30.6915 23.2855 30.7002 23.3407C30.7095 23.3977 30.6818 23.5157 30.7333 23.5488C30.7685 23.5714 30.8032 23.594 30.8384 23.6166C31.3638 23.9558 31.8897 24.2953 32.4151 24.6344C32.5888 24.7466 32.763 24.8588 32.9367 24.9714C32.9807 24.9999 32.9937 24.9296 33.0175 24.8952C33.1184 24.7495 33.2198 24.6034 33.3207 24.4577C33.5179 24.1735 33.715 23.8888 33.9118 23.6045C34.9359 24.3141 35.7866 25.2905 36.1889 26.4824C36.3673 27.0103 36.4791 27.5998 36.4234 28.16C36.4238 28.1658 36.423 28.1738 36.4221 28.1822C35.9566 28.4082 35.411 28.5041 34.8994 28.5364C33.5932 28.6188 32.3192 28.1805 31.2525 27.4415C31.6071 26.9299 31.9613 26.4183 32.3159 25.9071C31.7477 25.5404 31.1792 25.1737 30.6111 24.8065L30.2339 24.5628C30.2058 24.5448 30.1782 24.5268 30.1501 24.5088C30.1476 24.5071 30.1422 24.5021 30.1388 24.5017C30.0404 24.5565 29.9345 24.5976 29.8244 24.621C29.2081 24.7521 28.6429 24.3489 28.4905 23.7565C28.4667 23.6635 28.4428 23.5702 28.4189 23.4772C28.4127 23.4534 28.4093 23.3851 28.3867 23.3705C28.3252 23.3307 28.2636 23.2913 28.2025 23.2516L27.2982 22.6679C26.6853 22.2723 26.0723 21.8767 25.4594 21.481C25.4427 21.4702 25.4259 21.4593 25.4092 21.4488L24.9352 22.2706C24.9227 22.2928 24.9997 22.3736 25.0127 22.392C25.0969 22.5089 25.181 22.6252 25.2652 22.7421C25.7274 23.3826 26.1896 24.0227 26.6518 24.6633C26.8582 24.9492 27.0072 25.249 26.9578 25.6166C26.9247 25.8619 26.7975 26.0696 26.6836 26.2835L25.5335 28.4472L25.0897 29.282C24.903 29.6337 24.6359 29.9117 24.2244 29.9837C23.5491 30.1013 22.9135 29.5675 22.9072 28.8847C22.9043 28.5711 23.0538 28.3195 23.1949 28.0545C23.5738 27.3415 23.9531 26.6281 24.332 25.9151C24.3864 25.8129 24.4404 25.7108 24.4948 25.6086C24.5191 25.5634 24.5275 25.5647 24.4982 25.5245C24.3177 25.2745 24.1373 25.0246 23.9573 24.7747C23.704 24.4238 23.4507 24.0726 23.197 23.7217C23.112 23.6041 23.027 23.4864 22.942 23.3688C22.9223 23.342 22.9031 23.3148 22.8834 23.288C22.865 23.2625 22.6694 23.221 22.6694 23.221C22.4706 23.566 22.2717 23.911 22.0724 24.2559C21.2422 25.6953 20.4124 27.1347 19.5822 28.574L19.2046 29.2284C19.107 29.3975 19.0166 29.565 18.8671 29.6977C18.3313 30.1717 17.4617 30.0142 17.1276 29.3808C16.9375 29.0207 16.9672 28.6059 17.1674 28.2584C17.7916 27.1757 18.4158 26.0935 19.04 25.0108L21.3264 21.0465L21.9062 20.017C22.0054 19.8449 22.1047 19.6732 22.2035 19.5012C22.2541 19.4133 22.2675 19.4229 22.1846 19.3693C21.8589 19.1591 21.5328 18.9485 21.2071 18.7384C21.0643 18.6463 20.9215 18.5542 20.7788 18.4616L20.7005 18.4114C20.6887 18.4039 20.5426 18.4763 20.5204 18.4834C20.4124 18.5173 20.299 18.5349 20.1859 18.5349C19.506 18.5349 18.9705 17.9086 19.0748 17.2383C19.1087 17.021 19.2176 16.8092 19.3005 16.607C19.4466 16.2507 19.5927 15.8944 19.7388 15.5377C20.0214 14.8486 20.304 14.1594 20.5866 13.4703C20.7356 13.1065 20.9831 12.8134 21.3774 12.7067C21.6621 12.6292 21.9305 12.6849 22.1959 12.7892ZM27.1299 18.4641L25.9719 20.4725L27.9798 21.7687L27.1299 18.4641ZM22.2742 15.2848C22.2252 15.4041 22.1763 15.5235 22.1273 15.6428C21.964 16.0409 21.8007 16.4395 21.637 16.8376L21.3657 17.4991C21.8497 17.8115 22.3337 18.1242 22.8181 18.4365C23.2866 17.6243 23.7546 16.8125 24.2231 16.0003C23.606 15.7579 22.9893 15.5155 22.3722 15.2731C22.3098 15.2484 22.2998 15.2229 22.2742 15.2848ZM28.7355 10.0582C29.9856 10.3622 30.6785 11.7693 30.1593 12.9462C29.7532 13.8672 28.7162 14.3772 27.7386 14.1394C26.7648 13.9028 26.0811 12.9746 26.1402 11.9753C26.2164 10.6854 27.4799 9.75302 28.7355 10.0582Z" fill="black"/>
</svg>
