<?xml version="1.0" encoding="UTF-8"?>
<svg width="50px" height="30px" viewBox="0 0 50 30" version="1.1" xmlns="http://www.w3.org/2000/svg" xmlns:xlink="http://www.w3.org/1999/xlink">
    <title>fi-mock</title>
    <g id="FC+-—-eIDAS-choix-pays" stroke="none" stroke-width="1" fill="none" fill-rule="evenodd">
        <g id="fc+---eidas-pays---hover-copy" transform="translate(-136.000000, -263.000000)" fill-rule="nonzero">
            <g id="fi-mock" transform="translate(136.000000, 263.000000)">
                <rect id="Rectangle" stroke="#000000" stroke-width="2" fill="#FFC400" x="1" y="1" width="47.7512438" height="28" rx="3"></rect>
                <path d="M21.1959335,7.78916314 L25.3695904,9.42948693 L25.3695904,9.42948693 C25.9184583,9.64509866 26.4673263,9.86071039 27.0157755,10.0763221 C27.3193066,10.1956412 27.577622,10.3840398 27.7178743,10.6900829 C27.7785805,10.8223806 27.8087243,10.9672382 27.8447293,11.1079091 L28.9721903,15.4917352 L28.9721903,15.4917352 C29.1568209,16.2093245 29.3410329,16.9264951 29.5256635,17.6440845 C29.5712978,17.8220165 29.6169322,17.9995298 29.6629851,18.1774618 C29.676801,18.2314694 29.6914543,18.285477 29.7002462,18.3407406 C29.7094568,18.3976789 29.681825,18.515742 29.7333206,18.5488164 C29.7684884,18.5714242 29.8032374,18.5940321 29.8384052,18.6166399 C30.3638279,18.9557574 30.8896694,19.2952935 31.4150921,19.634411 C31.5888375,19.7466128 31.7630015,19.8588147 31.9367469,19.9714351 C31.9807066,19.9999043 31.9936851,19.9295688 32.017549,19.8952384 C32.1184469,19.7495435 32.2197635,19.6034299 32.3206614,19.457735 C32.5178519,19.1734624 32.7150424,18.8887712 32.9118143,18.6044987 C33.9358653,19.3141334 34.7865897,20.2904568 35.1889254,21.4823919 C35.367276,22.0103266 35.4790592,22.5998049 35.4233769,23.1599768 C35.4237956,23.165838 35.4229583,23.1737926 35.422121,23.1821659 C34.9565671,23.4082442 34.4110485,23.5041182 33.8994416,23.5363553 C32.5932113,23.618832 31.3192182,23.1804913 30.2524634,22.4415501 C30.6070715,21.9299432 30.9612608,21.4183364 31.3158688,20.9071482 C30.7477424,20.5403989 30.1791973,20.1736496 29.6110709,19.8064817 L29.233855,19.5628195 L29.233855,19.5628195 C29.2058046,19.544817 29.1781728,19.5268145 29.1501223,19.5088119 C29.1476103,19.5071373 29.1421677,19.5021133 29.1388184,19.5016946 C29.0404324,19.5565396 28.9345106,19.5975686 28.8244021,19.6210138 C28.2081293,19.7520554 27.6429335,19.3488824 27.49054,18.7564735 C27.4666762,18.6635302 27.4428123,18.5701682 27.4189485,18.4772249 C27.4126686,18.4533611 27.4093193,18.385119 27.3867114,18.3704657 C27.3251679,18.3306927 27.2636243,18.2913383 27.2024995,18.2515653 L26.2981862,17.6679483 L26.2981862,17.6679483 C25.6852628,17.2723112 25.0723393,16.8766742 24.4594159,16.4810371 C24.4426693,16.4701519 24.4259228,16.4592666 24.4091762,16.4488 L23.9352491,17.2706366 L23.9352491,17.2706366 C23.9226892,17.2928257 23.9997233,17.3736278 24.0127019,17.392049 C24.0968532,17.5088561 24.1810046,17.6252446 24.265156,17.7420517 C24.7273605,18.382607 25.1895651,19.0227435 25.6517697,19.6632988 C25.8581708,19.949246 26.007215,20.2490091 25.9578127,20.6165957 C25.9247383,20.8619325 25.7974646,21.0695896 25.6835881,21.2835267 L24.5335193,23.4471799 L24.5335193,23.4471799 L24.089736,24.2819951 L24.089736,24.2819951 C23.903012,24.6336725 23.6359047,24.911665 23.2243584,24.9836752 C22.5490541,25.1013196 21.9135228,24.5675236 21.9072429,23.8846834 C21.9043122,23.5711044 22.0537751,23.3194876 22.1948647,23.0544735 C22.5737552,22.3414895 22.9530644,21.6280868 23.3319549,20.9151028 C23.3863812,20.8129489 23.4403888,20.710795 23.4948151,20.6086411 C23.5190975,20.5634254 23.5274708,20.5646814 23.4981644,20.5244897 C23.3177204,20.2745476 23.1372764,20.0246054 22.9572511,19.7746633 C22.7039596,19.4238232 22.4506682,19.0725645 22.196958,18.7217244 C22.1119693,18.60408 22.0269806,18.4864355 21.9419919,18.3687911 C21.9223148,18.3419966 21.9030562,18.3147835 21.883379,18.287989 C21.8649578,18.2624505 21.6702793,18.2193282 21.669442,18.2210028 C21.4705768,18.5659816 21.2717116,18.9109604 21.0724277,19.2559391 C20.2422179,20.6953044 19.4124268,22.1346697 18.5822169,23.574035 L18.2045824,24.2284061 L18.2045824,24.2284061 C18.1070338,24.3975462 18.0166025,24.5650116 17.8671396,24.697728 C17.3312503,25.1716551 16.4616861,25.0142376 16.1275925,24.3807997 C15.9375193,24.020749 15.9672444,23.6058534 16.1673656,23.2583627 C16.7915929,22.1756987 17.4158203,21.0934535 18.0400476,20.0107895 L20.3263693,16.0464644 L20.3263693,16.0464644 L20.9062183,15.0169707 L20.9062183,15.0169707 C21.0054416,14.8449 21.1046648,14.6732479 21.2034694,14.5011772 C21.2541277,14.4132578 21.267525,14.4228871 21.1846296,14.3692982 C20.8589093,14.1591291 20.5327704,13.9485413 20.2070502,13.7383722 C20.0642859,13.6462662 19.9215216,13.5541602 19.7787574,13.4616356 L19.7004673,13.411396 L19.7004673,13.411396 C19.6887447,13.40386 19.5426311,13.4762888 19.520442,13.4834061 C19.4124268,13.5173178 19.2989689,13.5349017 19.1859298,13.5349017 C18.5060202,13.5349017 17.9705495,12.908581 18.0747967,12.2383007 C18.1087085,12.0210143 18.217561,11.8091706 18.3004564,11.6069561 C18.44657,11.2506734 18.5926835,10.8943907 18.7387971,10.5376894 C19.021395,9.84856915 19.3039929,9.15944894 19.5865908,8.47032874 C19.735635,8.10651011 19.9830652,7.81344563 20.3774463,7.70668642 C20.6621375,7.62923366 20.9305008,7.68491592 21.1959335,7.78916314 Z M26.1298834,13.4641476 L24.9718601,15.4724766 L24.9718601,15.4724766 L26.9797704,16.768659 L26.9797704,16.768659 L26.1298834,13.4641476 L26.1298834,13.4641476 Z M21.2742236,10.2848166 C21.2252399,10.4041357 21.1762563,10.5234548 21.1272727,10.6427739 C20.9639939,11.0409229 20.8007151,11.4394906 20.6370177,11.8376397 L20.3657237,12.4991281 L20.3657237,12.4991281 C20.8496987,12.8114511 21.3336738,13.1241928 21.8180675,13.4365158 C22.286552,12.6243085 22.7546179,11.8125199 23.2231024,11.0003126 C22.6059923,10.7579064 21.9893009,10.5155002 21.3721908,10.273094 C21.30981,10.2483928 21.2997621,10.2228544 21.2742236,10.2848166 Z M27.7354582,5.0582208 C28.9855875,5.36217053 29.6784757,6.76929873 29.1593329,7.94616197 C28.7532293,8.86722178 27.7161996,9.37715399 26.7386202,9.13935309 C25.7648088,8.90280819 25.0811312,7.97463109 25.1401628,6.9752812 C25.2163596,5.6853788 26.4798862,4.75301507 27.7354582,5.0582208 Z" id="Combined-Shape" fill="#000000"></path>
            </g>
        </g>
    </g>
</svg>