<svg width="52" height="39" viewBox="0 0 52 39" fill="none" xmlns="http://www.w3.org/2000/svg">
<g clip-path="url(#clip0_608_13239)">
<path d="M20.8 0H52V39H20.8V0Z" fill="#FF0000"/>
<path d="M0 0H20.8V39H0V0Z" fill="#006600"/>
<path fill-rule="evenodd" clip-rule="evenodd" d="M27.5844 24.8777C24.96 24.7965 12.9594 17.3052 12.8782 16.1027L13.5363 15.0059C14.7307 16.7365 26.9994 24.0246 28.21 23.7646L27.5844 24.8777Z" fill="#FFFF00" stroke="black" stroke-width="0.075" stroke-linecap="round" stroke-linejoin="round"/>
<path fill-rule="evenodd" clip-rule="evenodd" d="M13.3982 14.8516C13.1625 15.4853 16.5344 17.5653 20.5807 20.0353C24.635 22.4972 28.1288 24.0166 28.3807 23.8053L28.5025 23.5778C28.4538 23.6591 28.34 23.6834 28.1532 23.6266C27.0563 23.3097 24.2044 22.0016 20.67 19.8566C17.1275 17.7116 14.0563 15.7372 13.5769 14.9003C13.5396 14.8219 13.5228 14.7352 13.5282 14.6484H13.5119L13.4144 14.8272L13.3982 14.8516ZM27.6413 24.9103C27.6007 24.9916 27.5113 24.9916 27.3569 24.9753C26.3819 24.8697 23.4082 23.4234 19.89 21.3191C15.795 18.8653 12.415 16.6391 12.7888 16.0541L12.8863 15.8753L12.9025 15.8834C12.5775 16.8747 19.5732 20.8722 19.9875 21.1322C24.0338 23.6347 27.4463 25.1053 27.7469 24.7234L27.6413 24.9103Z" fill="#FFFF00" stroke="black" stroke-width="0.075" stroke-linecap="round" stroke-linejoin="round"/>
<path fill-rule="evenodd" clip-rule="evenodd" d="M20.8162 16.8342C23.4325 16.8098 26.6662 16.4767 28.535 15.7292L28.1287 15.0792C27.0319 15.6886 23.7819 16.0948 20.7919 16.1517C17.2656 16.1192 14.7712 15.7861 13.52 14.9492L13.1462 15.648C15.4375 16.623 17.7937 16.8261 20.8162 16.8342Z" fill="#FFFF00" stroke="black" stroke-width="0.075" stroke-linecap="round" stroke-linejoin="round"/>
<path fill-rule="evenodd" clip-rule="evenodd" d="M28.6405 15.7444C28.5755 15.85 27.3567 16.2644 25.5692 16.5731C23.9935 16.8119 22.4017 16.9287 20.808 16.9225C19.281 16.9282 17.7555 16.8305 16.2417 16.63C14.3649 16.3375 13.398 15.9312 13.0324 15.785L13.1217 15.6063C14.1536 16.0125 15.1286 16.2562 16.2661 16.435C17.7688 16.6379 19.2835 16.7383 20.7999 16.7356C22.3853 16.7373 23.9687 16.6205 25.5367 16.3862C27.3649 16.0856 28.3642 15.7037 28.5105 15.5331L28.6405 15.7525V15.7444ZM28.283 15.0862C28.088 15.2487 27.0967 15.5981 25.358 15.8744C23.8565 16.0916 22.3413 16.2002 20.8242 16.1994C19.0367 16.1994 17.5661 16.0694 16.453 15.9069C14.6817 15.6794 13.7392 15.2569 13.398 15.1431L13.5036 14.9644C13.7717 15.1025 14.6736 15.4681 16.4692 15.72C17.9127 15.9133 19.3679 16.0057 20.8242 15.9962C22.3305 15.9967 23.8349 15.8881 25.3255 15.6712C27.0724 15.4275 28.0149 14.9888 28.1611 14.875L28.283 15.0862ZM12.2117 19.9856C13.8205 20.855 17.4036 21.2856 20.7917 21.3181C23.8792 21.3262 27.893 20.8469 29.3961 20.0506L29.3555 19.1813C28.8842 19.9125 24.578 20.6194 20.7592 20.595C16.9405 20.5625 13.3899 19.9775 12.2036 19.2137V19.9856" fill="#FFFF00"/>
<path d="M12.2117 19.9856C13.8205 20.855 17.4036 21.2856 20.7917 21.3181C23.8792 21.3262 27.893 20.8469 29.3961 20.0506L29.3555 19.1813C28.8842 19.9125 24.578 20.6194 20.7592 20.595C16.9405 20.5625 13.3899 19.9775 12.2036 19.2137V19.9856M28.6405 15.7444C28.5755 15.85 27.3567 16.2644 25.5692 16.5731C23.9935 16.8119 22.4017 16.9287 20.808 16.9225C19.281 16.9282 17.7555 16.8305 16.2417 16.63C14.3649 16.3375 13.398 15.9312 13.0324 15.785L13.1217 15.6063C14.1536 16.0125 15.1286 16.2562 16.2661 16.435C17.7688 16.6379 19.2835 16.7383 20.7999 16.7356C22.3853 16.7373 23.9687 16.6205 25.5367 16.3862C27.3649 16.0856 28.3642 15.7037 28.5105 15.5331L28.6405 15.7525V15.7444ZM28.283 15.0862C28.088 15.2487 27.0967 15.5981 25.358 15.8744C23.8565 16.0916 22.3413 16.2002 20.8242 16.1994C19.0367 16.1994 17.5661 16.0694 16.453 15.9069C14.6817 15.6794 13.7392 15.2569 13.398 15.1431L13.5036 14.9644C13.7717 15.1025 14.6736 15.4681 16.4692 15.72C17.9127 15.9133 19.3679 16.0057 20.8242 15.9962C22.3305 15.9967 23.8349 15.8881 25.3255 15.6712C27.0724 15.4275 28.0149 14.9888 28.1611 14.875L28.283 15.0862Z" stroke="black" stroke-width="0.075" stroke-linecap="round" stroke-linejoin="round"/>
<path fill-rule="evenodd" clip-rule="evenodd" d="M29.4774 19.8653V20.0684C29.25 20.3447 27.8362 20.7509 26.0649 21.0434C24.3052 21.2964 22.5289 21.4159 20.7512 21.4009C19.0655 21.4153 17.3813 21.2985 15.7137 21.0516C14.4694 20.9078 13.2535 20.5792 12.1062 20.0766V19.8409C12.8943 20.3609 15.0231 20.7509 15.7381 20.8647C17.0218 21.0597 18.6712 21.2059 20.7512 21.2059C22.9368 21.2059 24.6837 21.0516 26.0324 20.8484C27.3081 20.6616 29.1199 20.1822 29.4774 19.8653ZM29.4774 19.1341V19.3372C29.25 19.6053 27.8362 20.0116 26.0649 20.3041C24.3055 20.5597 22.5291 20.6819 20.7512 20.6697C19.0657 20.6796 17.3817 20.5628 15.7137 20.3203C14.4694 20.1765 13.2535 19.8479 12.1062 19.3453V19.1016C12.8943 19.6297 15.0312 20.0116 15.7381 20.1253C17.3979 20.3684 19.0737 20.4852 20.7512 20.4747C22.9368 20.4747 24.6918 20.3122 26.0324 20.1091C27.3081 19.9303 29.1199 19.4509 29.4774 19.1341ZM20.7837 24.7241C17.0787 24.7078 13.9018 23.7166 13.2275 23.5541L13.715 24.3178C15.9939 25.125 18.3988 25.5184 20.8162 25.4797C23.6356 25.3984 26.0975 25.1791 27.8281 24.3341L28.3318 23.5378C27.1537 24.0984 23.1318 24.7241 20.7756 24.7241" fill="#FFFF00"/>
<path d="M20.7837 24.7241C17.0787 24.7078 13.9018 23.7166 13.2275 23.5541L13.715 24.3178C15.9939 25.125 18.3988 25.5184 20.8162 25.4797C23.6356 25.3984 26.0975 25.1791 27.8281 24.3341L28.3318 23.5378C27.1537 24.0984 23.1318 24.7241 20.7756 24.7241M29.4774 19.8653V20.0684C29.2499 20.3447 27.8362 20.7509 26.0649 21.0434C24.3052 21.2964 22.5289 21.4159 20.7512 21.4009C19.0655 21.4153 17.3813 21.2985 15.7137 21.0516C14.4694 20.9078 13.2535 20.5792 12.1062 20.0766V19.8409C12.8943 20.3609 15.0231 20.7509 15.7381 20.8647C17.0218 21.0597 18.6712 21.2059 20.7512 21.2059C22.9368 21.2059 24.6837 21.0516 26.0325 20.8484C27.3081 20.6616 29.1199 20.1822 29.4774 19.8653ZM29.4774 19.1341V19.3372C29.2499 19.6053 27.8362 20.0116 26.0649 20.3041C24.3055 20.5597 22.5291 20.6819 20.7512 20.6697C19.0657 20.6796 17.3817 20.5628 15.7137 20.3203C14.4694 20.1765 13.2535 19.8479 12.1062 19.3453V19.1016C12.8943 19.6297 15.0312 20.0116 15.7381 20.1253C17.3979 20.3684 19.0737 20.4852 20.7512 20.4747C22.9368 20.4747 24.6918 20.3122 26.0325 20.1091C27.3081 19.9303 29.1199 19.4509 29.4774 19.1341Z" stroke="black" stroke-width="0.075" stroke-linecap="round" stroke-linejoin="round"/>
<path fill-rule="evenodd" clip-rule="evenodd" d="M28.0232 24.1548C27.9492 24.2644 27.8734 24.3727 27.7957 24.4798C26.9832 24.7723 25.6832 25.081 25.1469 25.1623C23.708 25.4304 22.2475 25.5664 20.7838 25.5685C17.5013 25.5198 14.8119 24.8779 13.5525 24.3254L13.4469 24.1548L13.4632 24.1223L13.6338 24.1954C15.9462 24.9606 18.3644 25.3581 20.8 25.3735C22.3275 25.3735 23.8469 25.2029 25.0738 24.9835C26.9588 24.6016 27.7225 24.3173 27.9582 24.1873L28.015 24.1548H28.0232ZM28.4538 23.4398C28.4003 23.5349 28.3461 23.6297 28.2913 23.7241C27.8525 23.8866 26.6663 24.2279 24.9357 24.4716C23.7982 24.626 23.0913 24.7804 20.8244 24.821C18.2331 24.795 15.6576 24.4122 13.1707 23.6835L13.0813 23.4804C15.608 24.1787 18.2117 24.5608 20.8325 24.6179C22.9044 24.5773 23.79 24.4229 24.9194 24.2685C26.9344 23.9598 27.95 23.6185 28.2507 23.5291C28.2509 23.5237 28.2509 23.5183 28.2507 23.5129L28.4619 23.4316L28.4538 23.4398Z" fill="#FFFF00" stroke="black" stroke-width="0.075" stroke-linecap="round" stroke-linejoin="round"/>
<path fill-rule="evenodd" clip-rule="evenodd" d="M28.5024 19.305C28.5105 21.7425 27.2593 23.9362 26.2599 24.895C24.7838 26.3346 22.8127 27.1544 20.7511 27.1863C18.2893 27.2269 15.9736 25.6263 15.348 24.9194C13.9484 23.4351 13.1518 21.4828 13.1136 19.4431C13.2599 16.7781 14.308 14.9256 15.8193 13.65C17.2873 12.4415 19.1341 11.7885 21.0355 11.8056C22.1455 11.8594 23.232 12.1445 24.2254 12.6426C25.2188 13.1407 26.0971 13.8408 26.8043 14.6981C27.8199 15.9331 28.2668 17.2738 28.5024 19.305ZM20.7674 10.9688C23.0403 10.9687 25.2212 11.8671 26.8345 13.4683C28.4478 15.0694 29.3627 17.2434 29.3799 19.5162C29.3799 20.6441 29.1577 21.7608 28.7261 22.8028C28.2946 23.8447 27.662 24.7915 26.8645 25.589C26.067 26.3865 25.1202 27.019 24.0783 27.4506C23.0363 27.8822 21.9196 28.1044 20.7918 28.1044C19.6639 28.1044 18.5472 27.8822 17.5052 27.4506C16.4633 27.019 15.5165 26.3865 14.719 25.589C13.9215 24.7915 13.289 23.8447 12.8574 22.8028C12.4258 21.7608 12.2036 20.6441 12.2036 19.5162C12.1955 14.8037 16.0468 10.9688 20.7674 10.9688Z" fill="#FFFF00" stroke="black" stroke-width="0.075" stroke-linecap="round" stroke-linejoin="round"/>
<path fill-rule="evenodd" clip-rule="evenodd" d="M20.7918 10.9277C25.5206 10.9277 29.3718 14.779 29.3718 19.5077C29.3718 24.2365 25.5206 28.0877 20.8 28.0877C16.0793 28.0877 12.22 24.2365 12.22 19.5077C12.22 14.779 16.0712 10.9277 20.8 10.9277H20.7918ZM12.3987 19.4996C12.3987 24.1146 16.1931 27.8927 20.7918 27.8927C25.3906 27.8927 29.185 24.1146 29.185 19.4996C29.185 14.8846 25.3906 11.1065 20.7918 11.1065C16.1931 11.1065 12.3987 14.8846 12.3987 19.4996Z" fill="#FFFF00" stroke="black" stroke-width="0.075" stroke-linecap="round" stroke-linejoin="round"/>
<path fill-rule="evenodd" clip-rule="evenodd" d="M20.8 11.6426C22.8818 11.649 24.8765 12.4788 26.3485 13.9509C27.8206 15.423 28.6504 17.4177 28.6569 19.4995C28.6504 21.582 27.8209 23.5775 26.349 25.0509C24.8772 26.5242 22.8825 27.3559 20.8 27.3645C16.4937 27.3645 12.9431 23.822 12.9431 19.4995C12.9517 17.4183 13.7822 15.4249 15.2538 13.9533C16.7254 12.4817 18.7189 11.6511 20.8 11.6426ZM13.13 19.4995C13.13 23.7245 16.5912 27.1695 20.8 27.1695C25.0087 27.1695 28.47 23.7163 28.47 19.4995C28.47 15.2745 25.0087 11.8295 20.8 11.8295C18.7684 11.838 16.8225 12.6488 15.3859 14.0854C13.9494 15.5219 13.1385 17.4679 13.13 19.4995Z" fill="#FFFF00" stroke="black" stroke-width="0.075" stroke-linecap="round" stroke-linejoin="round"/>
<path fill-rule="evenodd" clip-rule="evenodd" d="M21.1493 10.8867H20.4099V28.1361H21.1412L21.1493 10.8867Z" fill="#FFFF00" stroke="black" stroke-width="0.075" stroke-linecap="round" stroke-linejoin="round"/>
<path fill-rule="evenodd" clip-rule="evenodd" d="M21.0682 10.7891H21.255V28.2334H21.0763V10.7891H21.0682ZM20.3369 10.7891H20.5319V28.2334H20.345V10.7891H20.3369Z" fill="#FFFF00" stroke="black" stroke-width="0.075" stroke-linecap="round" stroke-linejoin="round"/>
<path fill-rule="evenodd" clip-rule="evenodd" d="M29.3801 19.8397V19.2059L28.8601 18.7184L25.9107 17.9384L21.6694 17.5078L16.5507 17.7678L12.9107 18.6291L12.1794 19.1734V19.8153L14.0401 18.9784L18.4601 18.2878H22.7094L25.8294 18.6291L27.9907 19.1491L29.3801 19.8397Z" fill="#FFFF00" stroke="black" stroke-width="0.075" stroke-linecap="round" stroke-linejoin="round"/>
<path fill-rule="evenodd" clip-rule="evenodd" d="M20.8 18.183C22.8231 18.183 24.7812 18.3699 26.3493 18.6705C27.9581 18.9955 29.0875 19.4017 29.4774 19.8486V20.0761C29.0062 19.5074 27.4868 19.1011 26.3087 18.8574C24.7649 18.5649 22.8149 18.3699 20.7918 18.3699C18.6712 18.3699 16.6887 18.5811 15.1612 18.8736C13.9425 19.1174 12.3093 19.6049 12.1062 20.0761V19.8405C12.2118 19.5155 13.4306 19.028 15.1368 18.6786C16.6725 18.378 18.655 18.183 20.7918 18.183H20.8ZM20.8 17.4436C22.6606 17.4399 24.5178 17.603 26.3493 17.9311C27.9581 18.2561 29.0875 18.6624 29.4774 19.1174V19.3367C29.0062 18.7761 27.4868 18.3617 26.3087 18.1261C24.7649 17.8255 22.8149 17.6386 20.7918 17.6386C18.9061 17.6327 17.0239 17.8013 15.1693 18.1424C13.9912 18.3617 12.2931 18.8655 12.1062 19.3367V19.1092C12.22 18.7842 13.455 18.2724 15.1368 17.9474C16.6806 17.6467 18.655 17.4436 20.8 17.4436ZM20.7512 13.6899C23.9443 13.6736 26.7312 14.1367 28.0068 14.7867L28.4699 15.5992C27.365 14.998 24.3587 14.3805 20.7593 14.4617C17.8262 14.4861 14.69 14.7867 13.1218 15.6317L13.6743 14.7055C14.9662 14.0311 18.005 13.6899 20.7512 13.6899Z" fill="#FFFF00" stroke="black" stroke-width="0.075" stroke-linecap="round" stroke-linejoin="round"/>
<path fill-rule="evenodd" clip-rule="evenodd" d="M20.7999 14.3563C22.4671 14.3282 24.1336 14.4451 25.7806 14.7057C27.0806 14.9495 28.3237 15.307 28.5024 15.502L28.6406 15.7457C28.2099 15.4695 27.1293 15.1526 25.7481 14.8926C24.3668 14.6326 22.6037 14.5432 20.7918 14.5513C18.7362 14.5432 17.1356 14.6488 15.7706 14.8926C14.8296 15.0245 13.916 15.307 13.0649 15.7295L13.2031 15.4776C13.6906 15.2338 14.4462 14.9332 15.7299 14.6976C17.1518 14.4376 18.7687 14.3645 20.7999 14.3563ZM20.7999 13.6251C22.5387 13.6088 24.2612 13.7063 25.6018 13.9501C26.4704 14.079 27.311 14.3537 28.0881 14.7626L28.2912 15.0876C27.9499 14.7057 26.6662 14.3401 25.5206 14.1451C24.1881 13.9095 22.5387 13.8201 20.7999 13.8038C19.1814 13.7894 17.5644 13.909 15.9656 14.1613C15.1296 14.2778 14.3176 14.5274 13.5606 14.9007L13.7393 14.6326C14.2106 14.3888 14.9743 14.1613 15.9331 13.9745C17.5424 13.7188 19.1705 13.5992 20.7999 13.617V13.6251ZM25.0574 23.0745C23.6491 22.8306 22.2208 22.7218 20.7918 22.7495C15.4699 22.8145 13.7556 23.8463 13.5443 24.1551L13.1381 23.5051C14.5031 22.5301 17.3956 21.9776 20.8243 22.0263C22.6037 22.0588 24.1393 22.1807 25.4231 22.4326L25.0574 23.0826" fill="#FFFF00"/>
<path d="M25.0574 23.0745C23.6491 22.8306 22.2208 22.7218 20.7918 22.7495C15.4699 22.8145 13.7556 23.8463 13.5443 24.1551L13.1381 23.5051C14.5031 22.5301 17.3956 21.9776 20.8243 22.0263C22.6037 22.0588 24.1393 22.1807 25.4231 22.4326L25.0574 23.0826M20.7999 14.3563C22.4671 14.3282 24.1336 14.4451 25.7806 14.7057C27.0806 14.9495 28.3237 15.307 28.5024 15.502L28.6406 15.7457C28.2099 15.4695 27.1293 15.1526 25.7481 14.8926C24.3668 14.6326 22.6037 14.5432 20.7918 14.5513C18.7362 14.5432 17.1356 14.6488 15.7706 14.8926C14.8296 15.0245 13.916 15.307 13.0649 15.7295L13.2031 15.4776C13.6906 15.2338 14.4462 14.9332 15.7299 14.6976C17.1518 14.4376 18.7687 14.3645 20.7999 14.3563ZM20.7999 13.6251C22.5387 13.6088 24.2612 13.7063 25.6018 13.9501C26.4704 14.079 27.311 14.3537 28.0881 14.7626L28.2912 15.0876C27.9499 14.7057 26.6662 14.3401 25.5206 14.1451C24.1881 13.9095 22.5387 13.8201 20.7999 13.8038C19.1814 13.7894 17.5644 13.909 15.9656 14.1613C15.1296 14.2778 14.3176 14.5274 13.5606 14.9007L13.7393 14.6326C14.2106 14.3888 14.9743 14.1613 15.9331 13.9745C17.5424 13.7188 19.1705 13.5992 20.7999 13.617V13.6251Z" stroke="black" stroke-width="0.075" stroke-linecap="round" stroke-linejoin="round"/>
<path fill-rule="evenodd" clip-rule="evenodd" d="M20.7674 22.6596C22.2461 22.684 23.6924 22.7409 25.098 23.0009L25.0005 23.1796C23.7005 22.9359 22.303 22.8546 20.7755 22.8546C18.8011 22.8384 16.8186 23.0252 15.088 23.5209C14.5436 23.6752 13.6417 24.0246 13.5442 24.3171L13.4467 24.1546C13.4792 23.9759 14.0155 23.6184 15.0392 23.3421C17.0217 22.7734 18.8742 22.6677 20.7674 22.6596ZM20.8324 21.9121C22.3932 21.9105 23.9511 22.0465 25.488 22.3184L25.3824 22.5052C23.8816 22.2299 22.3582 22.0966 20.8324 22.1071C18.8661 22.1071 16.778 22.2534 14.8767 22.8059C14.2674 22.9846 13.203 23.3746 13.1705 23.6752L13.073 23.4965C13.0892 23.2202 14.0074 22.8546 14.8361 22.619C16.7455 22.0584 18.8417 21.9202 20.8324 21.9121Z" fill="#FFFF00" stroke="black" stroke-width="0.075" stroke-linecap="round" stroke-linejoin="round"/>
<path fill-rule="evenodd" clip-rule="evenodd" d="M28.3886 23.6022L27.7549 24.6016L25.9105 22.9684L21.1493 19.7591L15.7705 16.8097L12.9836 15.8591L13.5768 14.7541L13.7799 14.6484L15.5105 15.0791L21.2305 18.0284L24.5293 20.1084L27.2999 22.0991L28.4293 23.3991L28.3886 23.6022Z" fill="#FFFF00" stroke="black" stroke-width="0.075" stroke-linecap="round" stroke-linejoin="round"/>
<path fill-rule="evenodd" clip-rule="evenodd" d="M12.8861 15.8841C13.3736 15.5591 16.9649 17.1516 20.7349 19.4266C24.4805 21.7016 28.0718 24.2691 27.7468 24.7485L27.6411 24.9191L27.5924 24.9597C27.6005 24.9516 27.6574 24.8785 27.5924 24.7079C27.4299 24.1797 24.8786 22.1485 20.6618 19.5972C16.5424 17.1516 13.1136 15.6729 12.7805 16.0954L12.8861 15.8841ZM28.5186 23.5947C28.8274 22.9772 25.4961 20.4666 21.3605 18.021C17.1355 15.6241 14.0805 14.2104 13.5199 14.6329L13.4061 14.8685C13.4061 14.8766 13.4061 14.8522 13.4386 14.8279C13.5361 14.7466 13.7068 14.7466 13.7799 14.7466C14.7386 14.7629 17.4768 16.0222 21.3199 18.2241C23.0099 19.1991 28.4374 22.6929 28.413 23.6679C28.413 23.7491 28.4211 23.7654 28.3886 23.8141L28.5268 23.6029L28.5186 23.5947Z" fill="#FFFF00" stroke="black" stroke-width="0.075" stroke-linecap="round" stroke-linejoin="round"/>
<path d="M15.6521 20.4567C15.6534 21.1294 15.7881 21.7953 16.0484 22.4156C16.3088 23.0359 16.6896 23.5985 17.1688 24.0707C17.6421 24.5513 18.2059 24.9336 18.8277 25.1954C19.4494 25.4571 20.1168 25.5933 20.7914 25.596C22.1567 25.5959 23.4661 25.0535 24.4315 24.088C24.909 23.6132 25.288 23.0488 25.5468 22.4271C25.8056 21.8054 25.939 21.1387 25.9395 20.4653V13.6013L15.6521 13.584V20.4567Z" fill="white" stroke="black" stroke-width="0.0933336"/>
<path d="M15.8428 20.4646C15.8446 21.11 15.9742 21.7486 16.2241 22.3436C16.474 22.9386 16.8393 23.4782 17.2988 23.9313C18.2215 24.8588 19.4745 25.3825 20.7828 25.3873C22.0888 25.388 23.3418 24.8706 24.2668 23.9486C24.7248 23.4948 25.0884 22.9548 25.3368 22.3599C25.5852 21.7649 25.7134 21.1267 25.7141 20.4819V13.8086H15.8601V20.4646M23.7468 15.8106V20.0486L23.7381 20.4906C23.7411 20.8778 23.6658 21.2616 23.5169 21.619C23.368 21.9764 23.1484 22.3001 22.8715 22.5706C22.3203 23.1237 21.5722 23.4354 20.7915 23.4373C19.9768 23.4373 19.2575 23.0906 18.7201 22.5533C18.1671 22.0022 17.8554 21.2541 17.8534 20.4733V15.7933L23.7468 15.8106Z" fill="#FF0000"/>
<path d="M15.8428 20.4646C15.8446 21.11 15.9742 21.7486 16.2241 22.3436C16.474 22.9386 16.8393 23.4782 17.2988 23.9313C18.2215 24.8588 19.4745 25.3825 20.7828 25.3873C22.0888 25.388 23.3418 24.8706 24.2668 23.9486C24.7248 23.4948 25.0884 22.9548 25.3368 22.3599C25.5852 21.7649 25.7134 21.1267 25.7141 20.4819V13.8086H15.8601V20.4646M23.7468 15.8106V20.0486L23.7381 20.4906C23.7411 20.8778 23.6658 21.2616 23.5169 21.619C23.368 21.9764 23.1484 22.3001 22.8715 22.5706C22.3203 23.1237 21.5722 23.4354 20.7915 23.4373C19.9768 23.4373 19.2575 23.0906 18.7201 22.5533C18.1671 22.0022 17.8554 21.2541 17.8534 20.4733V15.7933L23.7468 15.8106Z" stroke="black" stroke-width="0.0666669"/>
<path d="M16.4841 15.5522C16.4928 15.0756 16.8308 14.9629 16.8308 14.9629C16.8395 14.9629 17.2035 15.0842 17.2035 15.5609H16.4841" fill="#FFFF00"/>
<path d="M16.1894 14.9716L16.1288 15.5176H16.4928C16.4928 15.0669 16.8395 14.9976 16.8395 14.9976C16.8481 14.9976 17.1861 15.0929 17.1948 15.5176H17.5588L17.4895 14.9629H16.1894V14.9716ZM16.1028 15.5262H17.5761C17.6021 15.5262 17.6281 15.5522 17.6281 15.5869C17.6281 15.6302 17.6021 15.6562 17.5761 15.6562H16.1028C16.0768 15.6562 16.0508 15.6302 16.0508 15.5869C16.0508 15.5522 16.0768 15.5262 16.1114 15.5262H16.1028Z" fill="#FFFF00" stroke="black" stroke-width="0.0666669"/>
<path d="M16.6401 15.5168C16.6401 15.2308 16.8395 15.1528 16.8395 15.1528C16.8395 15.1528 17.0388 15.2395 17.0388 15.5168H16.6401ZM16.1374 14.7368H17.5501C17.5761 14.7368 17.6021 14.7715 17.6021 14.8061C17.6021 14.8321 17.5761 14.8581 17.5501 14.8581H16.1374C16.1114 14.8581 16.0854 14.8321 16.0854 14.7975C16.0854 14.7715 16.1114 14.7455 16.1374 14.7455V14.7368ZM16.1721 14.8668H17.5068C17.5328 14.8668 17.5588 14.8928 17.5588 14.9275C17.5588 14.9621 17.5328 14.9881 17.5068 14.9881H16.1634C16.1288 14.9881 16.1114 14.9621 16.1114 14.9275C16.1114 14.8928 16.1288 14.8668 16.1634 14.8668H16.1721ZM16.6055 13.9481H16.7095V14.0175H16.7875V13.9481H16.9001V14.0261H16.9781V13.9395H17.0821V14.1128C17.0821 14.1475 17.0648 14.1648 17.0388 14.1648H16.6575C16.6315 14.1648 16.6055 14.1475 16.6055 14.1215V13.9481ZM17.0041 14.1821L17.0301 14.7368H16.6575L16.6835 14.1735H17.0041" fill="#FFFF00"/>
<path d="M17.0041 14.1821L17.0301 14.7368H16.6575L16.6835 14.1735H17.0041M16.6401 15.5168C16.6401 15.2308 16.8395 15.1528 16.8395 15.1528C16.8395 15.1528 17.0388 15.2395 17.0388 15.5168H16.6401ZM16.1374 14.7368H17.5501C17.5761 14.7368 17.6021 14.7715 17.6021 14.8061C17.6021 14.8321 17.5761 14.8581 17.5501 14.8581H16.1374C16.1114 14.8581 16.0854 14.8321 16.0854 14.7975C16.0854 14.7715 16.1114 14.7455 16.1374 14.7455V14.7368ZM16.1721 14.8668H17.5068C17.5328 14.8668 17.5588 14.8928 17.5588 14.9275C17.5588 14.9621 17.5328 14.9881 17.5068 14.9881H16.1634C16.1288 14.9881 16.1114 14.9621 16.1114 14.9275C16.1114 14.8928 16.1288 14.8668 16.1634 14.8668H16.1721ZM16.6055 13.9481H16.7095V14.0175H16.7875V13.9481H16.9001V14.0261H16.9781V13.9395H17.0821V14.1128C17.0821 14.1475 17.0648 14.1648 17.0388 14.1648H16.6575C16.6315 14.1648 16.6055 14.1475 16.6055 14.1215V13.9481Z" stroke="black" stroke-width="0.0666669"/>
<path d="M16.5535 14.4414V14.7361H16.2068V14.4414H16.5535Z" fill="#FFFF00" stroke="black" stroke-width="0.0666669"/>
<path d="M16.5535 14.4414V14.7361H16.2068V14.4414H16.5535Z" fill="#FFFF00" stroke="black" stroke-width="0.0666669"/>
<path d="M16.146 14.2168H16.25V14.3035H16.328V14.2168H16.432V14.3035H16.51V14.2168H16.614V14.3901C16.614 14.4248 16.5967 14.4421 16.5707 14.4421H16.198C16.1842 14.4421 16.171 14.4367 16.1612 14.4269C16.1515 14.4171 16.146 14.4039 16.146 14.3901V14.2168Z" fill="#FFFF00" stroke="black" stroke-width="0.0666669"/>
<path d="M16.146 14.2168H16.25V14.3035H16.328V14.2168H16.432V14.3035H16.51V14.2168H16.614V14.3901C16.614 14.4248 16.5967 14.4421 16.5707 14.4421H16.198C16.1842 14.4421 16.171 14.4367 16.1612 14.4269C16.1515 14.4171 16.146 14.4039 16.146 14.3901V14.2168Z" fill="#FFFF00" stroke="black" stroke-width="0.0666669"/>
<path d="M16.8047 14.3554C16.8047 14.3034 16.8827 14.3034 16.8827 14.3554V14.4941H16.8047V14.3554Z" fill="black"/>
<path d="M16.3455 14.5468C16.3455 14.4948 16.4148 14.4948 16.4148 14.5468V14.6508H16.3455V14.5468Z" fill="black"/>
<path d="M16.3455 14.5468C16.3455 14.4948 16.4148 14.4948 16.4148 14.5468V14.6508H16.3455V14.5468Z" fill="black"/>
<path d="M16.4841 15.5522C16.4928 15.0756 16.8308 14.9629 16.8308 14.9629C16.8395 14.9629 17.2035 15.0842 17.2035 15.5609H16.4841" fill="#FFFF00"/>
<path d="M16.1894 14.9716L16.1288 15.5176H16.4928C16.4928 15.0669 16.8395 14.9976 16.8395 14.9976C16.8481 14.9976 17.1861 15.0929 17.1948 15.5176H17.5588L17.4895 14.9629H16.1894V14.9716ZM16.1028 15.5262H17.5761C17.6021 15.5262 17.6281 15.5522 17.6281 15.5869C17.6281 15.6302 17.6021 15.6562 17.5761 15.6562H16.1028C16.0768 15.6562 16.0508 15.6302 16.0508 15.5869C16.0508 15.5522 16.0768 15.5262 16.1114 15.5262H16.1028Z" fill="#FFFF00" stroke="black" stroke-width="0.0666669"/>
<path d="M16.6401 15.5168C16.6401 15.2308 16.8395 15.1528 16.8395 15.1528C16.8395 15.1528 17.0388 15.2395 17.0388 15.5168H16.6401ZM16.1374 14.7368H17.5501C17.5761 14.7368 17.6021 14.7715 17.6021 14.8061C17.6021 14.8321 17.5761 14.8581 17.5501 14.8581H16.1374C16.1114 14.8581 16.0854 14.8321 16.0854 14.7975C16.0854 14.7715 16.1114 14.7455 16.1374 14.7455V14.7368ZM16.1721 14.8668H17.5068C17.5328 14.8668 17.5588 14.8928 17.5588 14.9275C17.5588 14.9621 17.5328 14.9881 17.5068 14.9881H16.1634C16.1288 14.9881 16.1114 14.9621 16.1114 14.9275C16.1114 14.8928 16.1288 14.8668 16.1634 14.8668H16.1721ZM16.6055 13.9481H16.7095V14.0175H16.7875V13.9481H16.9001V14.0261H16.9781V13.9395H17.0821V14.1128C17.0821 14.1475 17.0648 14.1648 17.0388 14.1648H16.6575C16.6315 14.1648 16.6055 14.1475 16.6055 14.1215V13.9481ZM17.0041 14.1821L17.0301 14.7368H16.6575L16.6835 14.1735H17.0041" fill="#FFFF00"/>
<path d="M17.0041 14.1821L17.0301 14.7368H16.6575L16.6835 14.1735H17.0041M16.6401 15.5168C16.6401 15.2308 16.8395 15.1528 16.8395 15.1528C16.8395 15.1528 17.0388 15.2395 17.0388 15.5168H16.6401ZM16.1374 14.7368H17.5501C17.5761 14.7368 17.6021 14.7715 17.6021 14.8061C17.6021 14.8321 17.5761 14.8581 17.5501 14.8581H16.1374C16.1114 14.8581 16.0854 14.8321 16.0854 14.7975C16.0854 14.7715 16.1114 14.7455 16.1374 14.7455V14.7368ZM16.1721 14.8668H17.5068C17.5328 14.8668 17.5588 14.8928 17.5588 14.9275C17.5588 14.9621 17.5328 14.9881 17.5068 14.9881H16.1634C16.1288 14.9881 16.1114 14.9621 16.1114 14.9275C16.1114 14.8928 16.1288 14.8668 16.1634 14.8668H16.1721ZM16.6055 13.9481H16.7095V14.0175H16.7875V13.9481H16.9001V14.0261H16.9781V13.9395H17.0821V14.1128C17.0821 14.1475 17.0648 14.1648 17.0388 14.1648H16.6575C16.6315 14.1648 16.6055 14.1475 16.6055 14.1215V13.9481Z" stroke="black" stroke-width="0.0666669"/>
<path d="M16.5535 14.4414V14.7361H16.2068V14.4414H16.5535Z" fill="#FFFF00" stroke="black" stroke-width="0.0666669"/>
<path d="M16.5535 14.4414V14.7361H16.2068V14.4414H16.5535Z" fill="#FFFF00" stroke="black" stroke-width="0.0666669"/>
<path d="M16.146 14.2168H16.25V14.3035H16.328V14.2168H16.432V14.3035H16.51V14.2168H16.614V14.3901C16.614 14.4248 16.5967 14.4421 16.5707 14.4421H16.198C16.1842 14.4421 16.171 14.4367 16.1612 14.4269C16.1515 14.4171 16.146 14.4039 16.146 14.3901V14.2168Z" fill="#FFFF00" stroke="black" stroke-width="0.0666669"/>
<path d="M16.146 14.2168H16.25V14.3035H16.328V14.2168H16.432V14.3035H16.51V14.2168H16.614V14.3901C16.614 14.4248 16.5967 14.4421 16.5707 14.4421H16.198C16.1842 14.4421 16.171 14.4367 16.1612 14.4269C16.1515 14.4171 16.146 14.4039 16.146 14.3901V14.2168Z" fill="#FFFF00" stroke="black" stroke-width="0.0666669"/>
<path d="M16.8047 14.3554C16.8047 14.3034 16.8827 14.3034 16.8827 14.3554V14.4941H16.8047V14.3554Z" fill="black"/>
<path d="M16.3455 14.5468C16.3455 14.4948 16.4148 14.4948 16.4148 14.5468V14.6508H16.3455V14.5468Z" fill="black"/>
<path d="M16.3455 14.5468C16.3455 14.4948 16.4148 14.4948 16.4148 14.5468V14.6508H16.3455V14.5468Z" fill="black"/>
<path d="M18.0483 23.7473C17.7162 23.4053 17.8744 23.086 17.8744 23.086C17.8805 23.0799 18.2231 22.9071 18.5613 23.243L18.0545 23.7534" fill="#FFFF00"/>
<path d="M17.4286 23.5464L17.7732 23.9742L18.0297 23.7159C17.71 23.3983 17.905 23.1035 17.905 23.1035C17.9111 23.0973 18.2169 22.9247 18.5244 23.2178L18.7809 22.9595L18.3384 22.6178L17.4224 23.5403L17.4286 23.5464ZM17.7611 23.9987L18.7992 22.9533C18.8176 22.9348 18.8543 22.9347 18.8789 22.9591C18.9097 22.9897 18.9098 23.0264 18.8915 23.0449L17.8533 24.0903C17.835 24.1088 17.7982 24.1089 17.7675 24.0784C17.7429 24.0539 17.7428 24.0172 17.7672 23.9926L17.7611 23.9987Z" fill="#FFFF00" stroke="black" stroke-width="0.0666669"/>
<path d="M18.1336 23.6104C17.9307 23.4089 18.0158 23.2125 18.0158 23.2125C18.0158 23.2125 18.2177 23.1321 18.4145 23.3276L18.1336 23.6104ZM17.2259 23.4175L18.2214 22.4151C18.2397 22.3967 18.2826 22.4026 18.3072 22.4271C18.3256 22.4454 18.3258 22.4822 18.3075 22.5006L17.312 23.503C17.2937 23.5215 17.2569 23.5216 17.2323 23.4972C17.2139 23.4788 17.2138 23.4421 17.2321 23.4236L17.2259 23.4175ZM17.3426 23.4845L18.2831 22.5375C18.3014 22.519 18.3382 22.5189 18.3628 22.5433C18.3874 22.5677 18.3875 22.6045 18.3692 22.623L17.4226 23.5762C17.3982 23.6008 17.3675 23.5947 17.3429 23.5703C17.3183 23.5459 17.3121 23.5153 17.3365 23.4907L17.3426 23.4845ZM16.9961 22.5297L17.0694 22.4559L17.1186 22.5048L17.1735 22.4494L17.1243 22.4006L17.2037 22.3206L17.2591 22.3756L17.314 22.3202L17.2525 22.2592L17.3258 22.1854L17.4488 22.3075C17.4734 22.3319 17.4735 22.3564 17.4552 22.3749L17.1865 22.6455C17.1682 22.6639 17.1375 22.6702 17.1191 22.6518L16.9961 22.5297ZM17.4431 22.4117L17.8549 22.7841L17.5924 23.0485L17.2109 22.6331L17.4369 22.4056" fill="#FFFF00"/>
<path d="M17.4431 22.4117L17.8549 22.7841L17.5924 23.0485L17.2109 22.6331L17.4369 22.4056M18.1336 23.6104C17.9307 23.4089 18.0158 23.2125 18.0158 23.2125C18.0158 23.2125 18.2177 23.1321 18.4145 23.3276L18.1336 23.6104ZM17.2259 23.4175L18.2214 22.4151C18.2397 22.3967 18.2826 22.4026 18.3072 22.4271C18.3256 22.4454 18.3258 22.4822 18.3075 22.5006L17.312 23.503C17.2937 23.5215 17.2569 23.5216 17.2323 23.4972C17.2139 23.4788 17.2138 23.4421 17.2321 23.4236L17.2259 23.4175ZM17.3426 23.4845L18.2831 22.5375C18.3014 22.519 18.3382 22.5189 18.3628 22.5433C18.3874 22.5677 18.3875 22.6045 18.3692 22.623L17.4226 23.5762C17.3982 23.6008 17.3675 23.5947 17.3429 23.5703C17.3183 23.5459 17.3121 23.5153 17.3365 23.4907L17.3426 23.4845ZM16.9961 22.5297L17.0694 22.4559L17.1186 22.5048L17.1735 22.4494L17.1243 22.4006L17.2037 22.3206L17.2591 22.3756L17.314 22.3202L17.2525 22.2592L17.3258 22.1854L17.4488 22.3075C17.4734 22.3319 17.4735 22.3564 17.4552 22.3749L17.1865 22.6455C17.1682 22.6639 17.1375 22.6702 17.1191 22.6518L16.9961 22.5297Z" stroke="black" stroke-width="0.0666669"/>
<path d="M17.3099 22.9161L17.519 23.1238L17.2748 23.3697L17.0657 23.1621L17.3099 22.9161Z" fill="#FFFF00" stroke="black" stroke-width="0.0666669"/>
<path d="M17.3099 22.9161L17.519 23.1238L17.2748 23.3697L17.0657 23.1621L17.3099 22.9161Z" fill="#FFFF00" stroke="black" stroke-width="0.0666669"/>
<path d="M16.863 23.0449L16.9363 22.9711L16.9978 23.0322L17.0528 22.9768L16.9913 22.9158L17.0646 22.842L17.1261 22.9031L17.181 22.8477L17.1195 22.7866L17.1928 22.7128L17.3158 22.835C17.3404 22.8594 17.3405 22.8839 17.3222 22.9024L17.0596 23.1668C17.0499 23.1766 17.0366 23.1821 17.0229 23.1822C17.0091 23.1822 16.9958 23.1768 16.986 23.1671L16.863 23.0449Z" fill="#FFFF00" stroke="black" stroke-width="0.0666669"/>
<path d="M16.863 23.0449L16.9363 22.9711L16.9978 23.0322L17.0528 22.9768L16.9913 22.9158L17.0646 22.842L17.1261 22.9031L17.181 22.8477L17.1195 22.7866L17.1928 22.7128L17.3158 22.835C17.3404 22.8594 17.3405 22.8839 17.3222 22.9024L17.0596 23.1668C17.0499 23.1766 17.0366 23.1821 17.0229 23.1822C17.0091 23.1822 16.9958 23.1768 16.986 23.1671L16.863 23.0449Z" fill="#FFFF00" stroke="black" stroke-width="0.0666669"/>
<path d="M17.4256 22.6759C17.3887 22.6393 17.4437 22.5839 17.4806 22.6206L17.579 22.7183L17.524 22.7736L17.4256 22.6759Z" fill="black"/>
<path d="M17.2371 23.1369C17.2002 23.1002 17.2491 23.051 17.286 23.0877L17.3598 23.1609L17.3109 23.2101L17.2371 23.1369Z" fill="black"/>
<path d="M17.2371 23.1369C17.2002 23.1002 17.2491 23.051 17.286 23.0877L17.3598 23.1609L17.3109 23.2101L17.2371 23.1369Z" fill="black"/>
<path d="M16.4841 15.5522C16.4928 15.0756 16.8308 14.9629 16.8308 14.9629C16.8395 14.9629 17.2035 15.0842 17.2035 15.5609H16.4841" fill="#FFFF00"/>
<path d="M16.1894 14.9716L16.1288 15.5176H16.4928C16.4928 15.0669 16.8395 14.9976 16.8395 14.9976C16.8481 14.9976 17.1861 15.0929 17.1948 15.5176H17.5588L17.4895 14.9629H16.1894V14.9716ZM16.1028 15.5262H17.5761C17.6021 15.5262 17.6281 15.5522 17.6281 15.5869C17.6281 15.6302 17.6021 15.6562 17.5761 15.6562H16.1028C16.0768 15.6562 16.0508 15.6302 16.0508 15.5869C16.0508 15.5522 16.0768 15.5262 16.1114 15.5262H16.1028Z" fill="#FFFF00" stroke="black" stroke-width="0.0666669"/>
<path d="M16.6401 15.5168C16.6401 15.2308 16.8395 15.1528 16.8395 15.1528C16.8395 15.1528 17.0388 15.2395 17.0388 15.5168H16.6401ZM16.1374 14.7368H17.5501C17.5761 14.7368 17.6021 14.7715 17.6021 14.8061C17.6021 14.8321 17.5761 14.8581 17.5501 14.8581H16.1374C16.1114 14.8581 16.0854 14.8321 16.0854 14.7975C16.0854 14.7715 16.1114 14.7455 16.1374 14.7455V14.7368ZM16.1721 14.8668H17.5068C17.5328 14.8668 17.5588 14.8928 17.5588 14.9275C17.5588 14.9621 17.5328 14.9881 17.5068 14.9881H16.1634C16.1288 14.9881 16.1114 14.9621 16.1114 14.9275C16.1114 14.8928 16.1288 14.8668 16.1634 14.8668H16.1721ZM16.6055 13.9481H16.7095V14.0175H16.7875V13.9481H16.9001V14.0261H16.9781V13.9395H17.0821V14.1128C17.0821 14.1475 17.0648 14.1648 17.0388 14.1648H16.6575C16.6315 14.1648 16.6055 14.1475 16.6055 14.1215V13.9481ZM17.0041 14.1821L17.0301 14.7368H16.6575L16.6835 14.1735H17.0041" fill="#FFFF00"/>
<path d="M17.0041 14.1821L17.0301 14.7368H16.6575L16.6835 14.1735H17.0041M16.6401 15.5168C16.6401 15.2308 16.8395 15.1528 16.8395 15.1528C16.8395 15.1528 17.0388 15.2395 17.0388 15.5168H16.6401ZM16.1374 14.7368H17.5501C17.5761 14.7368 17.6021 14.7715 17.6021 14.8061C17.6021 14.8321 17.5761 14.8581 17.5501 14.8581H16.1374C16.1114 14.8581 16.0854 14.8321 16.0854 14.7975C16.0854 14.7715 16.1114 14.7455 16.1374 14.7455V14.7368ZM16.1721 14.8668H17.5068C17.5328 14.8668 17.5588 14.8928 17.5588 14.9275C17.5588 14.9621 17.5328 14.9881 17.5068 14.9881H16.1634C16.1288 14.9881 16.1114 14.9621 16.1114 14.9275C16.1114 14.8928 16.1288 14.8668 16.1634 14.8668H16.1721ZM16.6055 13.9481H16.7095V14.0175H16.7875V13.9481H16.9001V14.0261H16.9781V13.9395H17.0821V14.1128C17.0821 14.1475 17.0648 14.1648 17.0388 14.1648H16.6575C16.6315 14.1648 16.6055 14.1475 16.6055 14.1215V13.9481Z" stroke="black" stroke-width="0.0666669"/>
<path d="M16.5535 14.4414V14.7361H16.2068V14.4414H16.5535Z" fill="#FFFF00" stroke="black" stroke-width="0.0666669"/>
<path d="M16.5535 14.4414V14.7361H16.2068V14.4414H16.5535Z" fill="#FFFF00" stroke="black" stroke-width="0.0666669"/>
<path d="M16.146 14.2168H16.25V14.3035H16.328V14.2168H16.432V14.3035H16.51V14.2168H16.614V14.3901C16.614 14.4248 16.5967 14.4421 16.5707 14.4421H16.198C16.1842 14.4421 16.171 14.4367 16.1612 14.4269C16.1515 14.4171 16.146 14.4039 16.146 14.3901V14.2168Z" fill="#FFFF00" stroke="black" stroke-width="0.0666669"/>
<path d="M16.146 14.2168H16.25V14.3035H16.328V14.2168H16.432V14.3035H16.51V14.2168H16.614V14.3901C16.614 14.4248 16.5967 14.4421 16.5707 14.4421H16.198C16.1842 14.4421 16.171 14.4367 16.1612 14.4269C16.1515 14.4171 16.146 14.4039 16.146 14.3901V14.2168Z" fill="#FFFF00" stroke="black" stroke-width="0.0666669"/>
<path d="M16.8047 14.3554C16.8047 14.3034 16.8827 14.3034 16.8827 14.3554V14.4941H16.8047V14.3554Z" fill="black"/>
<path d="M16.3455 14.5468C16.3455 14.4948 16.4148 14.4948 16.4148 14.5468V14.6508H16.3455V14.5468Z" fill="black"/>
<path d="M16.3455 14.5468C16.3455 14.4948 16.4148 14.4948 16.4148 14.5468V14.6508H16.3455V14.5468Z" fill="black"/>
<path d="M25.0989 15.5522C25.0902 15.0756 24.7522 14.9629 24.7522 14.9629C24.7435 14.9629 24.3795 15.0842 24.3795 15.5609H25.0989" fill="#FFFF00"/>
<path d="M25.3936 14.9716L25.4542 15.5176H25.0902C25.0902 15.0669 24.7436 14.9976 24.7436 14.9976C24.7349 14.9976 24.3969 15.0929 24.3882 15.5176H24.0242L24.0936 14.9629H25.3936V14.9716ZM25.4802 15.5262H24.0069C23.9809 15.5262 23.9549 15.5522 23.9549 15.5869C23.9549 15.6302 23.9809 15.6562 24.0069 15.6562H25.4802C25.5062 15.6562 25.5322 15.6302 25.5322 15.5869C25.5322 15.5522 25.5062 15.5262 25.4716 15.5262H25.4802Z" fill="#FFFF00" stroke="black" stroke-width="0.0666669"/>
<path d="M24.9429 15.5168C24.9429 15.2308 24.7436 15.1528 24.7436 15.1528C24.7436 15.1528 24.5442 15.2395 24.5442 15.5168H24.9429ZM25.4456 14.7368H24.0329C24.0069 14.7368 23.9809 14.7715 23.9809 14.8061C23.9809 14.8321 24.0069 14.8581 24.0329 14.8581H25.4456C25.4716 14.8581 25.4976 14.8321 25.4976 14.7975C25.4976 14.7715 25.4716 14.7455 25.4456 14.7455V14.7368ZM25.4109 14.8668H24.0762C24.0502 14.8668 24.0242 14.8928 24.0242 14.9275C24.0242 14.9621 24.0502 14.9881 24.0762 14.9881H25.4196C25.4542 14.9881 25.4716 14.9621 25.4716 14.9275C25.4716 14.8928 25.4542 14.8668 25.4196 14.8668H25.4109ZM24.9776 13.9481H24.8736V14.0175H24.7956V13.9481H24.6829V14.0261H24.6049V13.9395H24.5009V14.1128C24.5009 14.1475 24.5182 14.1648 24.5442 14.1648H24.9256C24.9516 14.1648 24.9776 14.1475 24.9776 14.1215V13.9481ZM24.5789 14.1821L24.5529 14.7368H24.9256L24.8996 14.1735H24.5789" fill="#FFFF00"/>
<path d="M24.5789 14.1821L24.5529 14.7368H24.9256L24.8996 14.1735H24.5789M24.9429 15.5168C24.9429 15.2308 24.7436 15.1528 24.7436 15.1528C24.7436 15.1528 24.5442 15.2395 24.5442 15.5168H24.9429ZM25.4456 14.7368H24.0329C24.0069 14.7368 23.9809 14.7715 23.9809 14.8061C23.9809 14.8321 24.0069 14.8581 24.0329 14.8581H25.4456C25.4716 14.8581 25.4976 14.8321 25.4976 14.7975C25.4976 14.7715 25.4716 14.7455 25.4456 14.7455V14.7368ZM25.4109 14.8668H24.0762C24.0502 14.8668 24.0242 14.8928 24.0242 14.9275C24.0242 14.9621 24.0502 14.9881 24.0762 14.9881H25.4196C25.4542 14.9881 25.4716 14.9621 25.4716 14.9275C25.4716 14.8928 25.4542 14.8668 25.4196 14.8668H25.4109ZM24.9776 13.9481H24.8736V14.0175H24.7956V13.9481H24.6829V14.0261H24.6049V13.9395H24.5009V14.1128C24.5009 14.1475 24.5182 14.1648 24.5442 14.1648H24.9256C24.9516 14.1648 24.9776 14.1475 24.9776 14.1215V13.9481Z" stroke="black" stroke-width="0.0666669"/>
<path d="M25.0296 14.4414V14.7361H25.3762V14.4414H25.0296Z" fill="#FFFF00" stroke="black" stroke-width="0.0666669"/>
<path d="M25.0296 14.4414V14.7361H25.3762V14.4414H25.0296Z" fill="#FFFF00" stroke="black" stroke-width="0.0666669"/>
<path d="M25.437 14.2168H25.333V14.3035H25.255V14.2168H25.151V14.3035H25.073V14.2168H24.969V14.3901C24.969 14.4248 24.9863 14.4421 25.0123 14.4421H25.385C25.3988 14.4421 25.412 14.4367 25.4218 14.4269C25.4315 14.4171 25.437 14.4039 25.437 14.3901V14.2168Z" fill="#FFFF00" stroke="black" stroke-width="0.0666669"/>
<path d="M25.437 14.2168H25.333V14.3035H25.255V14.2168H25.151V14.3035H25.073V14.2168H24.969V14.3901C24.969 14.4248 24.9863 14.4421 25.0123 14.4421H25.385C25.3988 14.4421 25.412 14.4367 25.4218 14.4269C25.4315 14.4171 25.437 14.4039 25.437 14.3901V14.2168Z" fill="#FFFF00" stroke="black" stroke-width="0.0666669"/>
<path d="M24.7783 14.3554C24.7783 14.3034 24.7003 14.3034 24.7003 14.3554V14.4941H24.7783V14.3554Z" fill="black"/>
<path d="M25.2375 14.5468C25.2375 14.4948 25.1682 14.4948 25.1682 14.5468V14.6508H25.2375V14.5468Z" fill="black"/>
<path d="M25.2375 14.5468C25.2375 14.4948 25.1682 14.4948 25.1682 14.5468V14.6508H25.2375V14.5468Z" fill="black"/>
<path d="M25.0989 15.5522C25.0902 15.0756 24.7522 14.9629 24.7522 14.9629C24.7435 14.9629 24.3795 15.0842 24.3795 15.5609H25.0989" fill="#FFFF00"/>
<path d="M25.3936 14.9716L25.4542 15.5176H25.0902C25.0902 15.0669 24.7436 14.9976 24.7436 14.9976C24.7349 14.9976 24.3969 15.0929 24.3882 15.5176H24.0242L24.0936 14.9629H25.3936V14.9716ZM25.4802 15.5262H24.0069C23.9809 15.5262 23.9549 15.5522 23.9549 15.5869C23.9549 15.6302 23.9809 15.6562 24.0069 15.6562H25.4802C25.5062 15.6562 25.5322 15.6302 25.5322 15.5869C25.5322 15.5522 25.5062 15.5262 25.4716 15.5262H25.4802Z" fill="#FFFF00" stroke="black" stroke-width="0.0666669"/>
<path d="M24.9429 15.5168C24.9429 15.2308 24.7436 15.1528 24.7436 15.1528C24.7436 15.1528 24.5442 15.2395 24.5442 15.5168H24.9429ZM25.4456 14.7368H24.0329C24.0069 14.7368 23.9809 14.7715 23.9809 14.8061C23.9809 14.8321 24.0069 14.8581 24.0329 14.8581H25.4456C25.4716 14.8581 25.4976 14.8321 25.4976 14.7975C25.4976 14.7715 25.4716 14.7455 25.4456 14.7455V14.7368ZM25.4109 14.8668H24.0762C24.0502 14.8668 24.0242 14.8928 24.0242 14.9275C24.0242 14.9621 24.0502 14.9881 24.0762 14.9881H25.4196C25.4542 14.9881 25.4716 14.9621 25.4716 14.9275C25.4716 14.8928 25.4542 14.8668 25.4196 14.8668H25.4109ZM24.9776 13.9481H24.8736V14.0175H24.7956V13.9481H24.6829V14.0261H24.6049V13.9395H24.5009V14.1128C24.5009 14.1475 24.5182 14.1648 24.5442 14.1648H24.9256C24.9516 14.1648 24.9776 14.1475 24.9776 14.1215V13.9481ZM24.5789 14.1821L24.5529 14.7368H24.9256L24.8996 14.1735H24.5789" fill="#FFFF00"/>
<path d="M24.5789 14.1821L24.5529 14.7368H24.9256L24.8996 14.1735H24.5789M24.9429 15.5168C24.9429 15.2308 24.7436 15.1528 24.7436 15.1528C24.7436 15.1528 24.5442 15.2395 24.5442 15.5168H24.9429ZM25.4456 14.7368H24.0329C24.0069 14.7368 23.9809 14.7715 23.9809 14.8061C23.9809 14.8321 24.0069 14.8581 24.0329 14.8581H25.4456C25.4716 14.8581 25.4976 14.8321 25.4976 14.7975C25.4976 14.7715 25.4716 14.7455 25.4456 14.7455V14.7368ZM25.4109 14.8668H24.0762C24.0502 14.8668 24.0242 14.8928 24.0242 14.9275C24.0242 14.9621 24.0502 14.9881 24.0762 14.9881H25.4196C25.4542 14.9881 25.4716 14.9621 25.4716 14.9275C25.4716 14.8928 25.4542 14.8668 25.4196 14.8668H25.4109ZM24.9776 13.9481H24.8736V14.0175H24.7956V13.9481H24.6829V14.0261H24.6049V13.9395H24.5009V14.1128C24.5009 14.1475 24.5182 14.1648 24.5442 14.1648H24.9256C24.9516 14.1648 24.9776 14.1475 24.9776 14.1215V13.9481Z" stroke="black" stroke-width="0.0666669"/>
<path d="M25.0296 14.4414V14.7361H25.3762V14.4414H25.0296Z" fill="#FFFF00" stroke="black" stroke-width="0.0666669"/>
<path d="M25.0296 14.4414V14.7361H25.3762V14.4414H25.0296Z" fill="#FFFF00" stroke="black" stroke-width="0.0666669"/>
<path d="M25.437 14.2168H25.333V14.3035H25.255V14.2168H25.151V14.3035H25.073V14.2168H24.969V14.3901C24.969 14.4248 24.9863 14.4421 25.0123 14.4421H25.385C25.3988 14.4421 25.412 14.4367 25.4218 14.4269C25.4315 14.4171 25.437 14.4039 25.437 14.3901V14.2168Z" fill="#FFFF00" stroke="black" stroke-width="0.0666669"/>
<path d="M25.437 14.2168H25.333V14.3035H25.255V14.2168H25.151V14.3035H25.073V14.2168H24.969V14.3901C24.969 14.4248 24.9863 14.4421 25.0123 14.4421H25.385C25.3988 14.4421 25.412 14.4367 25.4218 14.4269C25.4315 14.4171 25.437 14.4039 25.437 14.3901V14.2168Z" fill="#FFFF00" stroke="black" stroke-width="0.0666669"/>
<path d="M24.7783 14.3554C24.7783 14.3034 24.7003 14.3034 24.7003 14.3554V14.4941H24.7783V14.3554Z" fill="black"/>
<path d="M25.2375 14.5468C25.2375 14.4948 25.1682 14.4948 25.1682 14.5468V14.6508H25.2375V14.5468Z" fill="black"/>
<path d="M25.2375 14.5468C25.2375 14.4948 25.1682 14.4948 25.1682 14.5468V14.6508H25.2375V14.5468Z" fill="black"/>
<path d="M23.5347 23.7473C23.8668 23.4053 23.7086 23.086 23.7086 23.086C23.7025 23.0799 23.3599 22.9071 23.0217 23.243L23.5286 23.7534" fill="#FFFF00"/>
<path d="M24.1544 23.5464L23.8098 23.9742L23.5533 23.7159C23.8731 23.3983 23.678 23.1035 23.678 23.1035C23.6719 23.0973 23.3661 22.9247 23.0586 23.2178L22.8021 22.9595L23.2446 22.6178L24.1606 23.5403L24.1544 23.5464ZM23.8219 23.9987L22.7838 22.9533C22.7654 22.9348 22.7287 22.9347 22.7041 22.9591C22.6733 22.9897 22.6732 23.0264 22.6915 23.0449L23.7297 24.0903C23.748 24.1088 23.7848 24.1089 23.8155 24.0784C23.8401 24.0539 23.8403 24.0172 23.8158 23.9926L23.8219 23.9987Z" fill="#FFFF00" stroke="black" stroke-width="0.0666669"/>
<path d="M23.4494 23.6104C23.6523 23.4089 23.5672 23.2125 23.5672 23.2125C23.5672 23.2125 23.3653 23.1321 23.1685 23.3276L23.4494 23.6104ZM24.3571 23.4175L23.3616 22.4151C23.3433 22.3967 23.3004 22.4026 23.2758 22.4271C23.2574 22.4454 23.2572 22.4822 23.2756 22.5006L24.271 23.503C24.2893 23.5215 24.3261 23.5216 24.3507 23.4972C24.3691 23.4788 24.3692 23.4421 24.3509 23.4236L24.3571 23.4175ZM24.2404 23.4845L23.2999 22.5375C23.2816 22.519 23.2448 22.5189 23.2203 22.5433C23.1957 22.5677 23.1955 22.6045 23.2138 22.623L24.1604 23.5762C24.1848 23.6008 24.2155 23.5947 24.2401 23.5703C24.2647 23.5459 24.2709 23.5153 24.2465 23.4907L24.2404 23.4845ZM24.5869 22.5297L24.5136 22.4559L24.4644 22.5048L24.4095 22.4494L24.4587 22.4006L24.3793 22.3206L24.3239 22.3756L24.269 22.3202L24.3305 22.2592L24.2572 22.1854L24.1342 22.3075C24.1096 22.3319 24.1095 22.3564 24.1278 22.3749L24.3965 22.6455C24.4149 22.6639 24.4455 22.6702 24.4639 22.6518L24.5869 22.5297ZM24.14 22.4117L23.7281 22.7841L23.9907 23.0485L24.3721 22.6331L24.1461 22.4056" fill="#FFFF00"/>
<path d="M24.14 22.4117L23.7281 22.7841L23.9907 23.0485L24.3721 22.6331L24.1461 22.4056M23.4494 23.6104C23.6523 23.4089 23.5672 23.2125 23.5672 23.2125C23.5672 23.2125 23.3653 23.1321 23.1685 23.3276L23.4494 23.6104ZM24.3571 23.4175L23.3616 22.4151C23.3433 22.3967 23.3004 22.4026 23.2758 22.4271C23.2574 22.4454 23.2572 22.4822 23.2756 22.5006L24.271 23.503C24.2893 23.5215 24.3261 23.5216 24.3507 23.4972C24.3691 23.4788 24.3692 23.4421 24.3509 23.4236L24.3571 23.4175ZM24.2404 23.4845L23.2999 22.5375C23.2816 22.519 23.2448 22.5189 23.2203 22.5433C23.1957 22.5677 23.1955 22.6045 23.2138 22.623L24.1604 23.5762C24.1848 23.6008 24.2155 23.5947 24.2401 23.5703C24.2647 23.5459 24.2709 23.5153 24.2465 23.4907L24.2404 23.4845ZM24.5869 22.5297L24.5136 22.4559L24.4644 22.5048L24.4095 22.4494L24.4587 22.4006L24.3793 22.3206L24.3239 22.3756L24.269 22.3202L24.3305 22.2592L24.2572 22.1854L24.1342 22.3075C24.1096 22.3319 24.1095 22.3564 24.1278 22.3749L24.3965 22.6455C24.4149 22.6639 24.4455 22.6702 24.4639 22.6518L24.5869 22.5297Z" stroke="black" stroke-width="0.0666669"/>
<path d="M24.2731 22.9161L24.064 23.1238L24.3082 23.3697L24.5173 23.1621L24.2731 22.9161Z" fill="#FFFF00" stroke="black" stroke-width="0.0666669"/>
<path d="M24.2731 22.9161L24.064 23.1238L24.3082 23.3697L24.5173 23.1621L24.2731 22.9161Z" fill="#FFFF00" stroke="black" stroke-width="0.0666669"/>
<path d="M24.72 23.0449L24.6467 22.9711L24.5852 23.0322L24.5302 22.9768L24.5917 22.9158L24.5184 22.842L24.4569 22.9031L24.402 22.8477L24.4635 22.7866L24.3902 22.7128L24.2672 22.835C24.2426 22.8594 24.2425 22.8839 24.2608 22.9024L24.5234 23.1668C24.5332 23.1766 24.5464 23.1821 24.5602 23.1822C24.5739 23.1822 24.5872 23.1768 24.597 23.1671L24.72 23.0449Z" fill="#FFFF00" stroke="black" stroke-width="0.0666669"/>
<path d="M24.72 23.0449L24.6467 22.9711L24.5852 23.0322L24.5302 22.9768L24.5917 22.9158L24.5184 22.842L24.4569 22.9031L24.402 22.8477L24.4635 22.7866L24.3902 22.7128L24.2672 22.835C24.2426 22.8594 24.2425 22.8839 24.2608 22.9024L24.5234 23.1668C24.5332 23.1766 24.5464 23.1821 24.5602 23.1822C24.5739 23.1822 24.5872 23.1768 24.597 23.1671L24.72 23.0449Z" fill="#FFFF00" stroke="black" stroke-width="0.0666669"/>
<path d="M24.1574 22.6759C24.1943 22.6393 24.1393 22.5839 24.1024 22.6206L24.004 22.7183L24.059 22.7736L24.1574 22.6759Z" fill="black"/>
<path d="M24.3459 23.1369C24.3828 23.1002 24.3339 23.051 24.297 23.0877L24.2232 23.1609L24.2721 23.2101L24.3459 23.1369Z" fill="black"/>
<path d="M24.3459 23.1369C24.3828 23.1002 24.3339 23.051 24.297 23.0877L24.2232 23.1609L24.2721 23.2101L24.3459 23.1369Z" fill="black"/>
<path d="M20.1587 19.7114C20.1571 19.8943 20.2253 20.071 20.3494 20.2054C20.4073 20.2701 20.478 20.322 20.5571 20.3579C20.6362 20.3937 20.7219 20.4126 20.8087 20.4134C20.9907 20.4134 21.1554 20.3267 21.2681 20.2054C21.3921 20.071 21.4603 19.8943 21.4587 19.7114V18.7754H20.1587V19.7114Z" fill="#003399"/>
<path d="M20.462 19.26C20.5338 19.26 20.592 19.2018 20.592 19.13C20.592 19.0582 20.5338 19 20.462 19C20.3902 19 20.332 19.0582 20.332 19.13C20.332 19.2018 20.3902 19.26 20.462 19.26Z" fill="white"/>
<path d="M21.1813 19.26C21.2531 19.26 21.3113 19.2018 21.3113 19.13C21.3113 19.0582 21.2531 19 21.1813 19C21.1095 19 21.0513 19.0582 21.0513 19.13C21.0513 19.2018 21.1095 19.26 21.1813 19.26Z" fill="white"/>
<path d="M20.8175 19.6077C20.8893 19.6077 20.9475 19.5495 20.9475 19.4777C20.9475 19.4059 20.8893 19.3477 20.8175 19.3477C20.7457 19.3477 20.6875 19.4059 20.6875 19.4777C20.6875 19.5495 20.7457 19.6077 20.8175 19.6077Z" fill="white"/>
<path d="M20.462 19.9709C20.5338 19.9709 20.592 19.9127 20.592 19.8409C20.592 19.7691 20.5338 19.7109 20.462 19.7109C20.3902 19.7109 20.332 19.7691 20.332 19.8409C20.332 19.9127 20.3902 19.9709 20.462 19.9709Z" fill="white"/>
<path d="M21.1813 19.9709C21.2531 19.9709 21.3113 19.9127 21.3113 19.8409C21.3113 19.7691 21.2531 19.7109 21.1813 19.7109C21.1095 19.7109 21.0513 19.7691 21.0513 19.8409C21.0513 19.9127 21.1095 19.9709 21.1813 19.9709Z" fill="white"/>
<path d="M20.1587 19.7114C20.1571 19.8943 20.2253 20.071 20.3494 20.2054C20.4073 20.2701 20.478 20.322 20.5571 20.3579C20.6362 20.3937 20.7219 20.4126 20.8087 20.4134C20.9907 20.4134 21.1554 20.3267 21.2681 20.2054C21.3921 20.071 21.4603 19.8943 21.4587 19.7114V18.7754H20.1587V19.7114Z" fill="#003399"/>
<path d="M20.462 19.26C20.5338 19.26 20.592 19.2018 20.592 19.13C20.592 19.0582 20.5338 19 20.462 19C20.3902 19 20.332 19.0582 20.332 19.13C20.332 19.2018 20.3902 19.26 20.462 19.26Z" fill="white"/>
<path d="M21.1813 19.26C21.2531 19.26 21.3113 19.2018 21.3113 19.13C21.3113 19.0582 21.2531 19 21.1813 19C21.1095 19 21.0513 19.0582 21.0513 19.13C21.0513 19.2018 21.1095 19.26 21.1813 19.26Z" fill="white"/>
<path d="M20.8175 19.6077C20.8893 19.6077 20.9475 19.5495 20.9475 19.4777C20.9475 19.4059 20.8893 19.3477 20.8175 19.3477C20.7457 19.3477 20.6875 19.4059 20.6875 19.4777C20.6875 19.5495 20.7457 19.6077 20.8175 19.6077Z" fill="white"/>
<path d="M20.462 19.9709C20.5338 19.9709 20.592 19.9127 20.592 19.8409C20.592 19.7691 20.5338 19.7109 20.462 19.7109C20.3902 19.7109 20.332 19.7691 20.332 19.8409C20.332 19.9127 20.3902 19.9709 20.462 19.9709Z" fill="white"/>
<path d="M21.1813 19.9709C21.2531 19.9709 21.3113 19.9127 21.3113 19.8409C21.3113 19.7691 21.2531 19.7109 21.1813 19.7109C21.1095 19.7109 21.0513 19.7691 21.0513 19.8409C21.0513 19.9127 21.1095 19.9709 21.1813 19.9709Z" fill="white"/>
<path d="M20.1587 19.7114C20.1571 19.8943 20.2253 20.071 20.3494 20.2054C20.4073 20.2701 20.478 20.322 20.5571 20.3579C20.6362 20.3937 20.7219 20.4126 20.8087 20.4134C20.9907 20.4134 21.1554 20.3267 21.2681 20.2054C21.3921 20.071 21.4603 19.8943 21.4587 19.7114V18.7754H20.1587V19.7114Z" fill="#003399"/>
<path d="M20.462 19.26C20.5338 19.26 20.592 19.2018 20.592 19.13C20.592 19.0582 20.5338 19 20.462 19C20.3902 19 20.332 19.0582 20.332 19.13C20.332 19.2018 20.3902 19.26 20.462 19.26Z" fill="white"/>
<path d="M21.1813 19.26C21.2531 19.26 21.3113 19.2018 21.3113 19.13C21.3113 19.0582 21.2531 19 21.1813 19C21.1095 19 21.0513 19.0582 21.0513 19.13C21.0513 19.2018 21.1095 19.26 21.1813 19.26Z" fill="white"/>
<path d="M20.8175 19.6077C20.8893 19.6077 20.9475 19.5495 20.9475 19.4777C20.9475 19.4059 20.8893 19.3477 20.8175 19.3477C20.7457 19.3477 20.6875 19.4059 20.6875 19.4777C20.6875 19.5495 20.7457 19.6077 20.8175 19.6077Z" fill="white"/>
<path d="M20.462 19.9709C20.5338 19.9709 20.592 19.9127 20.592 19.8409C20.592 19.7691 20.5338 19.7109 20.462 19.7109C20.3902 19.7109 20.332 19.7691 20.332 19.8409C20.332 19.9127 20.3902 19.9709 20.462 19.9709Z" fill="white"/>
<path d="M21.1813 19.9709C21.2531 19.9709 21.3113 19.9127 21.3113 19.8409C21.3113 19.7691 21.2531 19.7109 21.1813 19.7109C21.1095 19.7109 21.0513 19.7691 21.0513 19.8409C21.0513 19.9127 21.1095 19.9709 21.1813 19.9709Z" fill="white"/>
<path d="M20.1587 19.7114C20.1571 19.8943 20.2253 20.071 20.3494 20.2054C20.4073 20.2701 20.478 20.322 20.5571 20.3579C20.6362 20.3937 20.7219 20.4126 20.8087 20.4134C20.9907 20.4134 21.1554 20.3267 21.2681 20.2054C21.3921 20.071 21.4603 19.8943 21.4587 19.7114V18.7754H20.1587V19.7114Z" fill="#003399"/>
<path d="M20.462 19.26C20.5338 19.26 20.592 19.2018 20.592 19.13C20.592 19.0582 20.5338 19 20.462 19C20.3902 19 20.332 19.0582 20.332 19.13C20.332 19.2018 20.3902 19.26 20.462 19.26Z" fill="white"/>
<path d="M21.1813 19.26C21.2531 19.26 21.3113 19.2018 21.3113 19.13C21.3113 19.0582 21.2531 19 21.1813 19C21.1095 19 21.0513 19.0582 21.0513 19.13C21.0513 19.2018 21.1095 19.26 21.1813 19.26Z" fill="white"/>
<path d="M20.8175 19.6077C20.8893 19.6077 20.9475 19.5495 20.9475 19.4777C20.9475 19.4059 20.8893 19.3477 20.8175 19.3477C20.7457 19.3477 20.6875 19.4059 20.6875 19.4777C20.6875 19.5495 20.7457 19.6077 20.8175 19.6077Z" fill="white"/>
<path d="M20.462 19.9709C20.5338 19.9709 20.592 19.9127 20.592 19.8409C20.592 19.7691 20.5338 19.7109 20.462 19.7109C20.3902 19.7109 20.332 19.7691 20.332 19.8409C20.332 19.9127 20.3902 19.9709 20.462 19.9709Z" fill="white"/>
<path d="M21.1813 19.9709C21.2531 19.9709 21.3113 19.9127 21.3113 19.8409C21.3113 19.7691 21.2531 19.7109 21.1813 19.7109C21.1095 19.7109 21.0513 19.7691 21.0513 19.8409C21.0513 19.9127 21.1095 19.9709 21.1813 19.9709Z" fill="white"/>
<path d="M20.1587 19.7114C20.1571 19.8943 20.2253 20.071 20.3494 20.2054C20.4073 20.2701 20.478 20.322 20.5571 20.3579C20.6362 20.3937 20.7219 20.4126 20.8087 20.4134C20.9907 20.4134 21.1554 20.3267 21.2681 20.2054C21.3921 20.071 21.4603 19.8943 21.4587 19.7114V18.7754H20.1587V19.7114Z" fill="#003399"/>
<path d="M20.462 19.26C20.5338 19.26 20.592 19.2018 20.592 19.13C20.592 19.0582 20.5338 19 20.462 19C20.3902 19 20.332 19.0582 20.332 19.13C20.332 19.2018 20.3902 19.26 20.462 19.26Z" fill="white"/>
<path d="M21.1813 19.26C21.2531 19.26 21.3113 19.2018 21.3113 19.13C21.3113 19.0582 21.2531 19 21.1813 19C21.1095 19 21.0513 19.0582 21.0513 19.13C21.0513 19.2018 21.1095 19.26 21.1813 19.26Z" fill="white"/>
<path d="M20.8175 19.6077C20.8893 19.6077 20.9475 19.5495 20.9475 19.4777C20.9475 19.4059 20.8893 19.3477 20.8175 19.3477C20.7457 19.3477 20.6875 19.4059 20.6875 19.4777C20.6875 19.5495 20.7457 19.6077 20.8175 19.6077Z" fill="white"/>
<path d="M20.462 19.9709C20.5338 19.9709 20.592 19.9127 20.592 19.8409C20.592 19.7691 20.5338 19.7109 20.462 19.7109C20.3902 19.7109 20.332 19.7691 20.332 19.8409C20.332 19.9127 20.3902 19.9709 20.462 19.9709Z" fill="white"/>
<path d="M21.1813 19.9709C21.2531 19.9709 21.3113 19.9127 21.3113 19.8409C21.3113 19.7691 21.2531 19.7109 21.1813 19.7109C21.1095 19.7109 21.0513 19.7691 21.0513 19.8409C21.0513 19.9127 21.1095 19.9709 21.1813 19.9709Z" fill="white"/>
</g>
<rect x="0.25" y="0.25" width="51.5" height="38.5" stroke="#D0D0D0" stroke-width="0.5"/>
<defs>
<clipPath id="clip0_608_13239">
<rect width="52" height="39" fill="white"/>
</clipPath>
</defs>
</svg>
