<svg width="52" height="39" viewBox="0 0 52 39" fill="none" xmlns="http://www.w3.org/2000/svg">
<g clip-path="url(#clip0_608_13382)">
<path d="M0 0H52V39H0V0Z" fill="#EE1C25"/>
<path d="M0 0H52V26H0V0Z" fill="#0B4EA2"/>
<path d="M0 0H52V13H0V0Z" fill="white"/>
<path d="M18.9314 30.128C15.4376 28.4462 10.4326 25.0987 10.4326 18.493C10.4326 11.8793 10.7576 8.87305 10.7576 8.87305H27.1132C27.1132 8.87305 27.4301 11.8793 27.4301 18.493C27.4301 25.1068 22.4251 28.438 18.9314 30.128Z" fill="white"/>
<path d="M18.9313 29.25C15.722 27.7062 11.1313 24.635 11.1313 18.5738C11.1313 12.5125 11.4238 9.75 11.4238 9.75H26.4388C26.4388 9.75 26.7232 12.5125 26.7232 18.5738C26.7313 24.6431 22.1407 27.7062 18.9313 29.25Z" fill="#EE1C25"/>
<path d="M19.6138 16.9814C20.4832 16.9977 22.1813 17.0302 23.6845 16.5264C23.6845 16.5264 23.652 17.0708 23.652 17.6964C23.652 18.322 23.6926 18.8664 23.6926 18.8664C22.3113 18.4033 20.597 18.3952 19.6138 18.4033V21.7508H18.2488V18.4033C17.2738 18.3952 15.5595 18.4033 14.1782 18.8664C14.1782 18.8664 14.2188 18.322 14.2188 17.6964C14.2188 17.0627 14.1782 16.5264 14.1782 16.5264C15.6813 17.0302 17.3795 16.9977 18.2407 16.9814V14.877C17.4526 14.877 16.3151 14.9095 15.0232 15.3402C15.0232 15.3402 15.0638 14.8039 15.0638 14.1702C15.0638 13.5445 15.0232 13.0002 15.0232 13.0002C16.3151 13.4308 17.4526 13.4714 18.2407 13.4633C18.2001 12.1308 17.8101 10.457 17.8101 10.457C17.8101 10.457 18.6145 10.5139 18.9313 10.5139C19.2563 10.5139 20.0526 10.457 20.0526 10.457C20.0526 10.457 19.6626 12.1308 19.622 13.4633C20.4101 13.4714 21.5476 13.4308 22.8395 13.0002C22.8395 13.0002 22.7988 13.5445 22.7988 14.1702C22.7988 14.8039 22.8395 15.3402 22.8395 15.3402C21.7982 15.0044 20.7075 14.8478 19.6138 14.877V16.9895V16.9814Z" fill="white"/>
<path d="M18.9312 21.3926C17.3144 21.3926 16.4531 23.627 16.4531 23.627C16.4531 23.627 15.9656 22.5707 14.6494 22.5707C13.7556 22.5707 13.1056 23.3588 12.6831 24.0982C14.3081 26.6738 16.9 28.2663 18.9312 29.2495C20.9625 28.2745 23.5625 26.6738 25.1794 24.0982C24.7569 23.367 24.1069 22.5707 23.2131 22.5707C21.8969 22.5707 21.4094 23.627 21.4094 23.627C21.4094 23.627 20.5562 21.3926 18.9312 21.3926Z" fill="#0B4EA2"/>
</g>
<rect x="0.25" y="0.25" width="51.5" height="38.5" stroke="#D0D0D0" stroke-width="0.5"/>
<defs>
<clipPath id="clip0_608_13382">
<rect width="52" height="39" fill="white"/>
</clipPath>
</defs>
</svg>
