<?xml version="1.0" encoding="UTF-8"?>
<svg width="50px" height="30px" viewBox="0 0 50 30" version="1.1" xmlns="http://www.w3.org/2000/svg" xmlns:xlink="http://www.w3.org/1999/xlink">
    <title>flag/slovenia@</title>
    <g id="FranceConnect+" stroke="none" stroke-width="1" fill="none" fill-rule="evenodd">
        <g id="flag/slovenia" fill-rule="nonzero">
            <rect id="Rectangle" fill="#ED1C24" x="0" y="0" width="49.7512438" height="30"></rect>
            <rect id="Rectangle" fill="#005DA4" x="0" y="0" width="49.7512438" height="20"></rect>
            <rect id="Rectangle" fill="#FFFFFF" x="0" y="0" width="49.7512438" height="10"></rect>
            <path d="M15.3936825,10.5224288 L15.6548898,5.87351785 C13.617795,4.70918785 11.2556662,4.70918785 9.21857139,5.87351785 L9.47977865,10.5224288 C9.59724146,12.6117543 10.7745514,14.3944729 12.4367306,14.9999245 C14.0989098,14.3944729 15.2762197,12.6111075 15.3936825,10.5224288" id="Path" fill="#005DA4"></path>
            <path d="M10.0231112,11.1518138 C10.303091,12.6706176 11.2170483,13.9048074 12.4367306,14.4106441 C13.6564129,13.9041606 14.5703701,12.6699708 14.85035,11.1518138 L13.6435403,9.21126385 L13.1608164,9.98748385 L12.4367306,8.24098885 L11.7126448,9.98748385 L11.2299209,9.21126385 L10.0231112,11.1518138" id="Path" fill="#FFFFFF"></path>
            <path d="M10.1298468,11.6361816 C10.3524362,12.0986793 10.8432054,12.2603918 11.2293845,11.9919491 C11.2293845,11.9919491 11.2293845,11.9919491 11.2293845,11.9919491 C11.4787919,11.8172996 11.784517,11.8172996 12.0339243,11.9919491 C12.2833317,12.1665986 12.5890568,12.1665986 12.8384641,11.9919491 C13.0878715,11.8172996 13.3935966,11.8172996 13.6430039,11.9919491 C14.0265012,12.2603918 14.5199523,12.1019136 14.7425417,11.6361816 C14.7425417,11.6361816 14.7425417,11.6361816 14.7425417,11.6361816 L14.7425417,11.9175613 C14.5199523,12.3800591 14.029183,12.5417716 13.6430039,12.2733288 C13.6430039,12.2733288 13.6430039,12.2733288 13.6430039,12.2733288 C13.3935966,12.0986793 13.0878715,12.0986793 12.8384641,12.2733288 C12.5890568,12.4479783 12.2833317,12.4479783 12.0339243,12.2733288 C11.784517,12.0986793 11.4787919,12.0986793 11.2293845,12.2733288 C10.8458872,12.5417716 10.3524362,12.3832933 10.1298468,11.9175613 C10.1298468,11.9175613 10.1298468,11.9175613 10.1298468,11.9175613 L10.1298468,11.6361816 Z" id="Path" fill="#005DA4"></path>
            <g id="wave_1_" transform="translate(10.121801, 12.291576)" fill="#005DA4">
                <path d="M0.00804539801,0.0194055 C0.230634743,0.48190325 0.721404022,0.64361575 1.10758313,0.375173 C1.10758313,0.375173 1.10758313,0.375173 1.10758313,0.375173 C1.35699046,0.2005235 1.66271559,0.2005235 1.91212293,0.375173 C2.16153027,0.5498225 2.46725539,0.5498225 2.71666273,0.375173 C2.96607007,0.2005235 3.27179519,0.2005235 3.52120253,0.375173 C3.90469983,0.64361575 4.39815091,0.4851375 4.62074026,0.0194055 C4.62074026,0.0194055 4.62074026,0.0194055 4.62074026,0.0194055 L4.62074026,0.30078525 C4.39815091,0.763283 3.90738163,0.9249955 3.52120253,0.65655275 C3.52120253,0.65655275 3.52120253,0.65655275 3.52120253,0.65655275 C3.27179519,0.48190325 2.96607007,0.48190325 2.71666273,0.65655275 C2.46725539,0.83120225 2.16153027,0.83120225 1.91212293,0.65655275 C1.66271559,0.48190325 1.35699046,0.48190325 1.10758313,0.65655275 C0.724085821,0.9249955 0.230634743,0.76651725 0.00804539801,0.30078525 C0.00804539801,0.30078525 0.00804539801,0.30078525 0.00804539801,0.30078525 L0.00804539801,0.0194055 Z" id="Path"></path>
            </g>
            <polygon id="Path" fill="#FFDD00" points="12.4371329 6.90734586 12.4974734 7.1445781 12.6990106 7.08927242 12.5578138 7.27119899 12.6990106 7.45312555 12.4974734 7.39781987 12.4371329 7.63505211 12.3767924 7.39781987 12.1752552 7.45312555 12.3164519 7.27119899 12.1752552 7.08927242 12.3767924 7.1445781"></polygon>
            <g id="s_1_" transform="translate(11.081886, 5.156485)" fill="#FFDD00">
                <polygon id="Path" points="0.499318442 0.00582165 0.61127325 0.3221313 0.982963212 0.2483904 0.720988962 0.49095915 0.982963212 0.7335279 0.61127325 0.659787 0.499318442 0.97609665 0.387363635 0.659787 0.0134345769 0.7335279 0.275408827 0.49095915 0.0134345769 0.2483904 0.387363635 0.3221313"></polygon>
            </g>
            <g id="s_2_" transform="translate(13.254143, 5.156485)" fill="#FFDD00">
                <polygon id="Path" points="0.499318442 0.00582165 0.61127325 0.3221313 0.985202308 0.2483904 0.723228058 0.49095915 0.985202308 0.7335279 0.61127325 0.659787 0.499318442 0.97609665 0.387363635 0.659787 0.0134345769 0.7335279 0.275408827 0.49095915 0.0134345769 0.2483904 0.387363635 0.3221313"></polygon>
            </g>
            <path d="M9.4443789,5.74932265 L9.71148611,10.5030233 C9.82090352,12.444867 10.9005959,14.1098589 12.4367306,14.7056078 C13.9728653,14.1098589 15.0525577,12.4442202 15.1619751,10.5030233 L15.4290823,5.74932265 C15.5036363,5.79201475 15.5792631,5.83341315 15.6548898,5.872871 L15.3936825,10.521782 C15.2762197,12.6111075 14.0989098,14.3938261 12.4367306,14.9992777 C10.7745514,14.3938261 9.59724146,12.6104606 9.47977865,10.521782 L9.21857139,5.872871 C9.29473449,5.83341315 9.36982488,5.79201475 9.4443789,5.74932265" id="Path" fill="#ED1C24"></path>
        </g>
    </g>
</svg>