<svg width="52" height="39" viewBox="0 0 52 39" fill="none" xmlns="http://www.w3.org/2000/svg">
<g clip-path="url(#clip0_608_13390)">
<mask id="mask0_608_13390" style="mask-type:luminance" maskUnits="userSpaceOnUse" x="-1" y="0" width="53" height="39">
<path d="M0.00297854 0H51.9979V39H-0.00463867L0.00297854 0Z" fill="white"/>
</mask>
<g mask="url(#mask0_608_13390)">
<path fill-rule="evenodd" clip-rule="evenodd" d="M-3.57715 0H74.4229V39H-3.57715V0Z" fill="white"/>
<path fill-rule="evenodd" clip-rule="evenodd" d="M-3.57715 25.998H74.4229V39.0006H-3.57715V25.998Z" fill="#D50000"/>
<path fill-rule="evenodd" clip-rule="evenodd" d="M-3.57715 13.002H74.4229V25.9969H-3.57715V13.002Z" fill="#0000BF"/>
<path fill-rule="evenodd" clip-rule="evenodd" d="M18.5431 7.08496C18.2384 11.7771 18.0556 14.3518 17.3472 15.54C16.5702 16.8197 15.8237 17.7566 12.7997 18.8916C9.7833 17.7566 9.03682 16.8197 8.25986 15.54C7.54385 14.3518 7.36865 11.7771 7.06396 7.08496L7.50576 6.93262C8.40459 6.6584 9.0749 6.4375 9.57002 6.33848C10.2784 6.18613 10.8878 6.01855 12.7921 5.98047C14.6964 6.01094 15.3058 6.19375 16.0142 6.34609C16.5017 6.45273 17.2024 6.65078 18.0937 6.93262L18.5431 7.08496Z" fill="#D50000"/>
<path fill-rule="evenodd" clip-rule="evenodd" d="M18.1014 6.93262C17.8119 11.6172 17.5682 13.7652 17.1873 14.7936C16.4561 16.5607 15.2982 17.5281 12.7998 18.4498C10.3014 17.5281 9.14355 16.5607 8.40469 14.7936C8.02383 13.7576 7.79531 11.6172 7.50586 6.925C8.38945 6.65078 9.075 6.4375 9.57012 6.33848C10.2785 6.18613 10.8879 6.01094 12.7922 5.98047C14.6965 6.01094 15.3059 6.18613 16.0143 6.33848C16.7193 6.49898 17.4159 6.69473 18.1014 6.925V6.93262Z" fill="#0000BF"/>
<path fill-rule="evenodd" clip-rule="evenodd" d="M12.7999 8.36328L12.9142 8.64512L13.4474 8.72129L13.1046 8.92695L13.4321 9.14785L12.9522 9.22402L12.7999 9.48301L12.6476 9.21641L12.1905 9.15547L12.4952 8.92695L12.1753 8.72129L12.6856 8.64512L12.7999 8.36328Z" fill="#FFDF00"/>
<path fill-rule="evenodd" clip-rule="evenodd" d="M17.012 13.6801L16.7149 13.4516L16.5093 13.1012L16.0979 12.7432L15.8771 12.3852L15.4657 12.0119L15.2677 11.6539L15.0392 11.4787L14.9021 11.334L14.5212 11.6615L14.3231 12.0195L14.0718 12.248L13.7899 12.0271L13.5843 11.6615L12.7997 10.2676L12.0151 11.6615L11.8095 12.0271L11.5276 12.248L11.2763 12.0195L11.0706 11.6615L10.6974 11.334L10.5526 11.4711L10.3317 11.6539L10.1337 12.0119L9.72236 12.3852L9.50146 12.7432L9.09014 13.1012L8.88447 13.4516L8.5874 13.6801C8.75487 14.7286 9.25098 15.6968 10.0042 16.4451C10.8214 17.1445 11.7689 17.6752 12.7921 18.0066C13.8231 17.6826 14.777 17.1512 15.5952 16.4451C16.037 15.9881 16.8597 14.975 17.012 13.6801Z" fill="white"/>
<path fill-rule="evenodd" clip-rule="evenodd" d="M14.0491 6.39043L14.171 6.67227L14.7042 6.74844L14.3538 6.9541L14.689 7.175L14.2091 7.25117L14.0567 7.51016L13.9044 7.24355L13.4474 7.18262L13.7521 6.9541L13.4321 6.74844L13.9349 6.67227L14.0567 6.39043H14.0491ZM11.5354 6.39043L11.6573 6.67227L12.1905 6.74082L11.8478 6.94648L12.1753 7.16738L11.6954 7.24355L11.5431 7.50254L11.3907 7.24355L10.9337 7.175L11.2384 6.94648L10.9185 6.74082L11.4288 6.66465L11.5431 6.38281L11.5354 6.39043Z" fill="#FFDF00"/>
<path fill-rule="evenodd" clip-rule="evenodd" d="M16.357 15.4627H15.7934L15.2602 15.4246L14.6279 15.1199H13.9119L13.2949 15.4246L12.7998 15.4703L12.3123 15.4246L11.6953 15.1199H10.9717L10.3318 15.4246L9.80625 15.4703L9.22734 15.4627L8.95312 14.9904L8.96074 14.9752L9.81387 15.1199L10.3395 15.0818L10.9717 14.7695H11.6877L12.3123 15.0742L12.7998 15.1199L13.2949 15.0742L13.9119 14.7695H14.6279L15.2678 15.0742L15.7934 15.1199L16.616 14.9676L16.6313 14.998L16.3494 15.4627H16.357ZM9.77578 16.1863L10.3395 16.1482L10.9717 15.8436H11.6877L12.3123 16.1482L12.7998 16.1863L13.2873 16.1482L13.9119 15.8436H14.6279L15.2602 16.1482L15.8314 16.1863L16.1971 15.7293H16.1895L15.7934 15.8359L15.2678 15.7979L14.6355 15.4932H13.9195L13.2949 15.7979L12.8074 15.8436L12.3123 15.7979L11.6953 15.4932H10.9717L10.3318 15.7979L9.80625 15.8436L9.42539 15.7445V15.7598L9.76816 16.1863H9.77578Z" fill="#0000BF"/>
</g>
</g>
<rect x="0.25" y="0.25" width="51.5" height="38.5" stroke="#D0D0D0" stroke-width="0.5"/>
<defs>
<clipPath id="clip0_608_13390">
<rect width="52" height="39" fill="white"/>
</clipPath>
</defs>
</svg>
