<?xml version="1.0" encoding="UTF-8"?>
<svg width="50px" height="30px" viewBox="0 0 50 30" version="1.1" xmlns="http://www.w3.org/2000/svg" xmlns:xlink="http://www.w3.org/1999/xlink">
    <title>flag/slovakia@</title>
    <g id="FranceConnect+" stroke="none" stroke-width="1" fill="none" fill-rule="evenodd">
        <g id="flag/slovakia">
            <rect id="Rectangle" fill="#EE1C25" fill-rule="nonzero" x="0" y="0" width="49.7512438" height="30"></rect>
            <rect id="Rectangle" fill="#0B4EA2" fill-rule="nonzero" x="0" y="0" width="49.7512438" height="20"></rect>
            <rect id="Rectangle" fill="#FFFFFF" fill-rule="nonzero" x="0" y="0" width="49.7512438" height="10"></rect>
            <g id="Group" transform="translate(9.383224, 6.271000)" fill="#FFFFFF" fill-rule="nonzero">
                <path d="M7.87523494,17.84875 C4.63355445,16.4372 0,13.6359 0,8.09325 C0,2.5506 0.295245992,0.02725 0.295245992,0.02725 L7.87523494,0.02725 L15.4552239,0.02725 C15.4552239,0.02725 15.7504699,2.5506 15.7504699,8.09325 C15.7504699,13.6359 11.11089,16.4372 7.87523494,17.84875 Z" id="coa"></path>
            </g>
            <g id="Path" transform="translate(10.818132, 7.500000)" fill-rule="nonzero">
                <g id="Mask" transform="translate(0.047680, 0.000000)" fill="#EE1C25">
                    <path d="M6.62797125,15 C3.90270868,13.81 0,11.455 0,6.785 C0,2.12 0.248756219,0 0.248756219,0 L6.63349917,0 L13.0182421,0 C13.0182421,0 13.2669983,2.12 13.2669983,6.785 C13.2559425,11.455 9.35323383,13.81 6.62797125,15 Z" id="coa_1_"></path>
                </g>
                <g id="Group-2" transform="translate(2.653400, 0.550000)" fill="#FFFFFF">
                    <path d="M4.62686567,8.695 L3.4604754,8.695 L3.4604754,6.12 C2.62576009,6.11 1.1774461,6.12 0,6.475 C0,6.475 0.0331674959,6.06 0.0331674959,5.575 C0.0331674959,5.09 0,4.675 0,4.675 C1.28247651,5.065 2.72526258,5.035 3.4604754,5.025 L3.4604754,3.405 C2.78606965,3.4 1.81868436,3.43 0.718629077,3.76 C0.718629077,3.76 0.751796573,3.345 0.751796573,2.86 C0.751796573,2.375 0.718629077,1.96 0.718629077,1.96 C1.81315644,2.29 2.78054174,2.32 3.45494748,2.315 C3.42177999,1.29 3.09010503,-2.13162821e-14 3.09010503,-2.13162821e-14 C3.09010503,-2.13162821e-14 3.7700387,0.05 4.04090658,0.05 L4.62686567,8.695 Z" id="k"></path>
                    <path d="M8.05417358,8.695 L6.88778331,8.695 L6.88778331,6.12 C6.05306799,6.11 4.60475401,6.12 3.4273079,6.475 C3.4273079,6.475 3.4604754,6.06 3.4604754,5.575 C3.4604754,5.09 3.4273079,4.675 3.4273079,4.675 C4.70978441,5.065 6.15257048,5.035 6.88778331,5.025 L6.88778331,3.405 C6.21337756,3.4 5.24599226,3.43 4.14593698,3.76 C4.14593698,3.76 4.17910448,3.345 4.17910448,2.86 C4.17910448,2.375 4.14593698,1.96 4.14593698,1.96 C5.24046434,2.29 6.20784964,2.32 6.88225539,2.315 C6.84908789,1.29 6.51741294,-2.13162821e-14 6.51741294,-2.13162821e-14 C6.51741294,-2.13162821e-14 7.1973466,0.05 7.46821448,0.05 L8.05417358,8.695 Z" id="k" transform="translate(5.740741, 4.347500) scale(-1, 1) translate(-5.740741, -4.347500) "></path>
                </g>
                <path d="M6.54298115,16.53 L0.893451023,11.975 C0.893451023,11.975 1.61760802,9.86 3.02722659,9.86 C4.14939353,9.86 4.55845931,10.675 4.55845931,10.675 C4.55845931,10.675 5.29367214,8.95 6.67012322,8.95 C8.04104638,8.95 8.78178712,10.675 8.78178712,10.675 C8.78178712,10.675 9.1908529,9.86 10.3130198,9.86 C11.7226384,9.86 12.4467954,11.975 12.4467954,11.975 L6.54298115,16.53 L6.54298115,16.53 Z" fill="#0B4EA2"></path>
            </g>
            <g id="Group" transform="translate(11.686014, 16.450000)"></g>
        </g>
    </g>
</svg>