<?xml version="1.0" encoding="UTF-8"?>
<svg width="50px" height="30px" viewBox="0 0 50 30" version="1.1" xmlns="http://www.w3.org/2000/svg" xmlns:xlink="http://www.w3.org/1999/xlink">
    <title>flag/unitedkingdom@3x</title>
    <defs>
        <polygon id="path-1" points="0 0 0 30 50 30 50 0"></polygon>
        <path d="M25,15 L50,15 L50,30 L25,15 Z M25,15 L25,30 L0,30 L25,15 Z M25,15 L0,15 L0,0 L25,15 Z M25,15 L25,0 L50,0 L25,15 Z" id="path-3"></path>
    </defs>
    <g id="FranceConnect+" stroke="none" stroke-width="1" fill="none" fill-rule="evenodd">
        <g id="flag/unitedkingdom">
            <mask id="mask-2" fill="white">
                <use xlink:href="#path-1"></use>
            </mask>
            <g id="Path"></g>
            <g id="Group" mask="url(#mask-2)">
                <polygon id="Path" fill="#012169" fill-rule="nonzero" points="0 0 0 30 50 30 50 0"></polygon>
                <polygon id="Shape" fill="#FFFFFF" fill-rule="nonzero" points="48.4565127 -2.57247878 51.5434873 2.57247878 30.8309 15 51.5434873 27.4275212 48.4565127 32.5724788 25 18.49855 1.54348727 32.5724788 -1.54348727 27.4275212 19.1691 15 -1.54348727 2.57247878 1.54348727 -2.57247878 25 11.50145"></polygon>
                <g id="Clipped">
                    <mask id="mask-4" fill="white">
                        <use xlink:href="#path-3"></use>
                    </mask>
                    <g id="Shape"></g>
                    <polygon id="Shape" fill="#C8102E" fill-rule="nonzero" mask="url(#mask-4)" points="48.9710085 -1.71498585 51.0289915 1.71498585 28.8872 15 51.0289915 28.2850141 48.9710085 31.7149859 25 17.33235 1.02899151 31.7149859 -1.02899151 28.2850141 21.11275 15 -1.02899151 1.71498585 1.02899151 -1.71498585 25 12.66765"></polygon>
                </g>
                <polygon id="Shape" fill="#FFFFFF" fill-rule="nonzero" points="30 0 30 10 50 10 50 20 30 20 30 30 20 30 20 20 0 20 0 10 20 10 20 0"></polygon>
                <polygon id="Shape" fill="#C8102E" fill-rule="nonzero" points="28 0 28 12 50 12 50 18 28 18 28 30 22 30 22 18 0 18 0 12 22 12 22 0"></polygon>
            </g>
        </g>
    </g>
</svg>