<svg width="649" height="248" viewBox="0 0 649 248" fill="none" xmlns="http://www.w3.org/2000/svg">
<g filter="url(#filter0_d_61_5287)">
<rect x="8" y="13.7012" width="633" height="225.386" fill="white"/>
</g>
<path d="M24.6117 45.0691C26.8623 45.0691 27.9621 47.1407 27.9621 49.8006C27.9621 52.4605 26.8623 54.5321 24.6117 54.5321C22.3866 54.5321 21.274 52.4605 21.274 49.8006C21.274 47.1407 22.3866 45.0691 24.6117 45.0691ZM24.6244 46.1433C23.1922 46.1433 22.4505 47.7034 22.4505 49.8006C22.4505 51.8978 23.1922 53.4579 24.6244 53.4579C26.0439 53.4579 26.7728 51.8978 26.7728 49.8006C26.7728 47.7034 26.0439 46.1433 24.6244 46.1433ZM29.2505 54.2764V53.2405L32.2812 50.1203C33.3298 49.0205 33.8029 48.5218 33.8029 47.5755C33.8029 46.642 33.1252 46.1049 32.2173 46.1049C31.2709 46.1049 30.6571 46.5781 30.1328 47.4476L29.1865 46.8722C29.9154 45.7341 30.9129 45.0691 32.3068 45.0691C33.8029 45.0691 34.9922 46.041 34.9922 47.4988C34.9922 48.7136 34.1994 49.6216 33.1252 50.7469L30.6699 53.2405H35.2352V54.2764H29.2505ZM40.2371 53.0487L41.1322 52.2303C41.746 53.0232 42.4621 53.4452 43.2934 53.4452C44.2908 53.4452 44.8663 52.8441 44.8663 52.0257C44.8663 50.0052 40.6207 50.44 40.6207 47.486C40.6207 46.1561 41.7204 45.0691 43.2806 45.0691C44.5338 45.0691 45.4545 45.6445 46.1195 46.5269L45.2115 47.3198C44.6872 46.5653 44.0606 46.1433 43.2934 46.1433C42.411 46.1433 41.8483 46.6932 41.8483 47.4604C41.8483 49.4681 46.0811 49.0078 46.0811 51.9873C46.0811 53.5347 44.8918 54.5193 43.3061 54.5193C41.989 54.5193 41.0171 54.0206 40.2371 53.0487ZM53.8182 53.215C53.2171 54.0206 52.2581 54.5321 51.056 54.5321C48.8821 54.5321 47.5393 52.9336 47.5393 51.0538C47.5393 49.0973 48.7925 47.5755 50.7875 47.5755C52.5394 47.5755 53.6775 48.8032 53.6775 50.3889C53.6775 50.6446 53.6391 50.8876 53.6008 51.0666H48.6519C48.6902 52.6139 49.6749 53.5475 51.056 53.5475C51.8872 53.5475 52.5905 53.1638 53.0125 52.5884L53.8182 53.215ZM50.7619 48.4962C49.7005 48.4962 48.9588 49.1229 48.7286 50.2354H52.5905C52.5522 49.2891 51.9 48.4962 50.7619 48.4962ZM55.5197 57.4222V47.8313H56.6066V48.5985C57.1821 47.9464 57.9366 47.5755 58.8957 47.5755C60.9161 47.5755 62.2077 49.174 62.2077 51.0538C62.2077 52.9336 60.9161 54.5321 58.8957 54.5321C57.9366 54.5321 57.1821 54.1613 56.6066 53.5091V57.4222H55.5197ZM58.7678 48.5985C57.8726 48.5985 57.0926 49.0333 56.6066 49.8006V52.307C57.1054 53.0871 57.8854 53.5091 58.7678 53.5091C60.1361 53.5091 61.0696 52.4221 61.0696 51.0538C61.0696 49.6855 60.1361 48.5985 58.7678 48.5985ZM64.2326 52.1152V48.8159H63.0178V47.8313H64.2326V46.22H65.3324V47.8313H67.5702V48.8159H65.3324V52.1152C65.3324 53.1255 65.8439 53.4068 66.6239 53.4068C67.0459 53.4068 67.3401 53.3556 67.583 53.2533V54.2252C67.2761 54.3531 66.9308 54.4042 66.4705 54.4042C65.0382 54.4042 64.2326 53.6881 64.2326 52.1152ZM74.8358 53.215C74.2347 54.0206 73.2756 54.5321 72.0736 54.5321C69.8996 54.5321 68.5569 52.9336 68.5569 51.0538C68.5569 49.0973 69.8101 47.5755 71.805 47.5755C73.557 47.5755 74.6951 48.8032 74.6951 50.3889C74.6951 50.6446 74.6567 50.8876 74.6184 51.0666H69.6695C69.7078 52.6139 70.6925 53.5475 72.0736 53.5475C72.9048 53.5475 73.6081 53.1638 74.0301 52.5884L74.8358 53.215ZM71.7795 48.4962C70.7181 48.4962 69.9764 49.1229 69.7462 50.2354H73.6081C73.5698 49.2891 72.9176 48.4962 71.7795 48.4962ZM76.5372 54.2764V47.8313H77.6242V48.5346C78.1102 47.9719 78.7495 47.5755 79.6447 47.5755C80.5782 47.5755 81.3455 47.9975 81.7419 48.8159C82.2534 48.1126 82.9312 47.5755 84.0437 47.5755C85.4248 47.5755 86.4351 48.4962 86.4351 50.2482V54.2764H85.3481V50.2865C85.3481 49.2124 84.7471 48.5985 83.8263 48.5985C83.0079 48.5985 82.4325 49.0589 82.0105 49.8134C82.0232 49.9541 82.036 50.0947 82.036 50.2482V54.2764H80.9491V50.2865C80.9491 49.2124 80.3608 48.5985 79.4273 48.5985C78.5449 48.5985 77.9951 49.1484 77.6242 49.8134V54.2764H76.5372ZM95.3138 51.0538C95.3138 52.9336 94.0223 54.5321 92.0018 54.5321C91.0427 54.5321 90.2882 54.1613 89.7128 53.5091V54.2764H88.6258V44.6855H89.7128V48.5985C90.2882 47.9464 91.0427 47.5755 92.0018 47.5755C94.0223 47.5755 95.3138 49.174 95.3138 51.0538ZM91.8739 48.5985C90.9788 48.5985 90.1859 49.0333 89.7128 49.7878V52.3198C90.2115 53.0871 90.9915 53.5091 91.8739 53.5091C93.2422 53.5091 94.1757 52.4221 94.1757 51.0538C94.1757 49.6855 93.2422 48.5985 91.8739 48.5985ZM97.0803 54.2764V47.8313H98.1672V48.6369C98.6404 48.0742 99.2286 47.7034 100.047 47.7034C100.252 47.7034 100.443 47.729 100.597 47.7801V48.8415C100.405 48.7904 100.213 48.7648 99.9575 48.7648C99.1135 48.7648 98.5637 49.1996 98.1672 49.8518V54.2764H97.0803ZM107.505 53.215C106.904 54.0206 105.945 54.5321 104.743 54.5321C102.569 54.5321 101.226 52.9336 101.226 51.0538C101.226 49.0973 102.479 47.5755 104.474 47.5755C106.226 47.5755 107.364 48.8032 107.364 50.3889C107.364 50.6446 107.326 50.8876 107.287 51.0666H102.338C102.377 52.6139 103.362 53.5475 104.743 53.5475C105.574 53.5475 106.277 53.1638 106.699 52.5884L107.505 53.215ZM104.448 48.4962C103.387 48.4962 102.645 49.1229 102.415 50.2354H106.277C106.239 49.2891 105.587 48.4962 104.448 48.4962ZM112.372 54.2764V53.2405L115.402 50.1203C116.451 49.0205 116.924 48.5218 116.924 47.5755C116.924 46.642 116.246 46.1049 115.338 46.1049C114.392 46.1049 113.778 46.5781 113.254 47.4476L112.308 46.8722C113.037 45.7341 114.034 45.0691 115.428 45.0691C116.924 45.0691 118.113 46.041 118.113 47.4988C118.113 48.7136 117.321 49.6216 116.246 50.7469L113.791 53.2405H118.356V54.2764H112.372ZM122.993 45.0691C125.244 45.0691 126.344 47.1407 126.344 49.8006C126.344 52.4605 125.244 54.5321 122.993 54.5321C120.768 54.5321 119.656 52.4605 119.656 49.8006C119.656 47.1407 120.768 45.0691 122.993 45.0691ZM123.006 46.1433C121.574 46.1433 120.832 47.7034 120.832 49.8006C120.832 51.8978 121.574 53.4579 123.006 53.4579C124.426 53.4579 125.155 51.8978 125.155 49.8006C125.155 47.7034 124.426 46.1433 123.006 46.1433ZM127.632 54.2764V53.2405L130.663 50.1203C131.712 49.0205 132.185 48.5218 132.185 47.5755C132.185 46.642 131.507 46.1049 130.599 46.1049C129.653 46.1049 129.039 46.5781 128.515 47.4476L127.568 46.8722C128.297 45.7341 129.295 45.0691 130.689 45.0691C132.185 45.0691 133.374 46.041 133.374 47.4988C133.374 48.7136 132.581 49.6216 131.507 50.7469L129.052 53.2405H133.617V54.2764H127.632ZM137.361 54.2764V46.4885L134.995 47.7673L134.407 46.9489L137.348 45.3249H138.499V54.2764H137.361Z" fill="#161616"/>
<path d="M20.8456 69.8059H22.8022L24.6868 74.985L26.557 69.8059H28.528L25.8809 77.0566H23.4783L20.8456 69.8059ZM33.0472 69.5182C35.4065 69.5182 37.0178 71.2589 37.0178 73.4313C37.0178 75.6036 35.4065 77.3444 33.0472 77.3444C30.6878 77.3444 29.0765 75.6036 29.0765 73.4313C29.0765 71.2589 30.6878 69.5182 33.0472 69.5182ZM33.076 75.618C34.2412 75.618 35.1188 74.6829 35.1188 73.4313C35.1188 72.1653 34.2412 71.2445 33.076 71.2445C31.8675 71.2445 30.9755 72.1653 30.9755 73.4313C30.9755 74.6973 31.8675 75.618 33.076 75.618ZM39.0603 74.4095V71.446H37.708V69.8059H39.0603V67.9932H40.9018V69.8059H43.1173V71.446H40.9018V74.4095C40.9018 75.2152 41.3334 75.5317 42.0527 75.5317C42.5562 75.5317 42.8871 75.4741 43.1317 75.3734V76.9703C42.772 77.1286 42.3404 77.2005 41.7362 77.2005C39.9235 77.2005 39.0603 76.1791 39.0603 74.4095ZM44.7535 77.0566V69.8059H46.5806V70.5252C47.0553 70.0361 47.674 69.662 48.494 69.662C48.7385 69.662 48.9543 69.7052 49.127 69.7628V71.561C48.8968 71.5035 48.6522 71.4603 48.3213 71.4603C47.4294 71.4603 46.8539 71.9495 46.5806 72.4098V77.0566H44.7535ZM56.9642 75.877C56.288 76.7833 55.1659 77.3444 53.7992 77.3444C51.224 77.3444 49.771 75.5461 49.771 73.4313C49.771 71.2877 51.1233 69.5182 53.4971 69.5182C55.5111 69.5182 56.8347 70.8849 56.8347 72.7839C56.8347 73.1867 56.7771 73.5608 56.7196 73.8053H51.6412C51.8139 75.1576 52.6483 75.7043 53.7848 75.7043C54.576 75.7043 55.2666 75.359 55.655 74.8411L56.9642 75.877ZM53.4539 71.0144C52.5188 71.0144 51.9002 71.5323 51.6988 72.4818H55.0364C55.0076 71.7481 54.4753 71.0144 53.4539 71.0144ZM69.1729 75.877C68.4968 76.7833 67.3746 77.3444 66.0079 77.3444C63.4328 77.3444 61.9797 75.5461 61.9797 73.4313C61.9797 71.2877 63.3321 69.5182 65.7058 69.5182C67.7199 69.5182 69.0434 70.8849 69.0434 72.7839C69.0434 73.1867 68.9859 73.5608 68.9283 73.8053H63.85C64.0226 75.1576 64.857 75.7043 65.9935 75.7043C66.7848 75.7043 67.4753 75.359 67.8638 74.8411L69.1729 75.877ZM65.6626 71.0144C64.7275 71.0144 64.1089 71.5323 63.9075 72.4818H67.2451C67.2164 71.7481 66.6841 71.0144 65.6626 71.0144ZM70.0975 76.0064L71.3059 74.9131C71.7519 75.4741 72.2842 75.877 72.9747 75.877C73.5646 75.877 73.8667 75.5317 73.8667 75.1001C73.8667 73.8341 70.3996 74.3088 70.3996 71.7625C70.3996 70.4821 71.4786 69.5182 72.9891 69.5182C74.0969 69.5182 75.1039 70.0505 75.6218 70.7554L74.4134 71.82C74.0393 71.3596 73.5646 70.9856 73.0035 70.9856C72.4281 70.9856 72.1547 71.3021 72.1547 71.6761C72.1547 72.9134 75.6218 72.4818 75.6218 74.985C75.5931 76.51 74.3702 77.3444 73.0035 77.3444C71.7087 77.3444 70.788 76.8265 70.0975 76.0064ZM77.3055 80.5957V69.8059H79.1325V70.3958C79.6936 69.8347 80.3985 69.5182 81.3912 69.5182C83.693 69.5182 85.0741 71.3165 85.0741 73.4313C85.0741 75.5461 83.693 77.3444 81.3912 77.3444C80.3985 77.3444 79.6936 77.0279 79.1325 76.4668V80.5957H77.3055ZM81.1323 71.2445C80.2835 71.2445 79.5929 71.6186 79.1325 72.2948V74.5678C79.6217 75.2583 80.2978 75.618 81.1323 75.618C82.3695 75.618 83.1751 74.6973 83.1751 73.4313C83.1751 72.1653 82.3695 71.2445 81.1323 71.2445ZM88.6208 77.2724C87.1678 77.2724 86.1751 76.438 86.1751 75.1001C86.1751 74.0067 87.0239 73.1867 88.5776 72.9278L90.7931 72.5537V72.3667C90.7931 71.6042 90.2177 71.1151 89.3833 71.1151C88.6783 71.1151 88.1317 71.446 87.7432 71.9783L86.4053 70.9568C87.0527 70.0649 88.1173 69.5182 89.4408 69.5182C91.5412 69.5182 92.6202 70.7698 92.6202 72.3667V77.0566H90.7931V76.3517C90.3328 76.9128 89.4696 77.2724 88.6208 77.2724ZM87.9878 75.0138C87.9878 75.5029 88.3762 75.8194 88.9948 75.8194C89.8293 75.8194 90.4335 75.431 90.7931 74.8555V73.8341L89.0668 74.1218C88.3043 74.2513 87.9878 74.5678 87.9878 75.0138ZM98.1939 75.618C98.9132 75.618 99.4887 75.2871 99.834 74.7836L101.258 75.877C100.582 76.7689 99.5175 77.3444 98.1939 77.3444C95.6907 77.3444 94.1945 75.5461 94.1945 73.4313C94.1945 71.3165 95.6907 69.5182 98.1939 69.5182C99.5175 69.5182 100.582 70.0936 101.258 70.9856L99.834 72.079C99.4887 71.5754 98.9132 71.2445 98.1651 71.2445C96.9711 71.2445 96.0935 72.1653 96.0935 73.4313C96.0935 74.7117 96.9711 75.618 98.1939 75.618ZM109.016 75.877C108.34 76.7833 107.218 77.3444 105.851 77.3444C103.276 77.3444 101.823 75.5461 101.823 73.4313C101.823 71.2877 103.176 69.5182 105.549 69.5182C107.563 69.5182 108.887 70.8849 108.887 72.7839C108.887 73.1867 108.829 73.5608 108.772 73.8053H103.693C103.866 75.1576 104.7 75.7043 105.837 75.7043C106.628 75.7043 107.319 75.359 107.707 74.8411L109.016 75.877ZM105.506 71.0144C104.571 71.0144 103.952 71.5323 103.751 72.4818H107.089C107.06 71.7481 106.528 71.0144 105.506 71.0144ZM114.55 80.5957V69.8059H116.377V70.3958C116.938 69.8347 117.643 69.5182 118.636 69.5182C120.937 69.5182 122.319 71.3165 122.319 73.4313C122.319 75.5461 120.937 77.3444 118.636 77.3444C117.643 77.3444 116.938 77.0279 116.377 76.4668V80.5957H114.55ZM118.377 71.2445C117.528 71.2445 116.837 71.6186 116.377 72.2948V74.5678C116.866 75.2583 117.542 75.618 118.377 75.618C119.614 75.618 120.42 74.6973 120.42 73.4313C120.42 72.1653 119.614 71.2445 118.377 71.2445ZM125.865 77.2724C124.412 77.2724 123.42 76.438 123.42 75.1001C123.42 74.0067 124.268 73.1867 125.822 72.9278L128.038 72.5537V72.3667C128.038 71.6042 127.462 71.1151 126.628 71.1151C125.923 71.1151 125.376 71.446 124.988 71.9783L123.65 70.9568C124.297 70.0649 125.362 69.5182 126.685 69.5182C128.786 69.5182 129.865 70.7698 129.865 72.3667V77.0566H128.038V76.3517C127.577 76.9128 126.714 77.2724 125.865 77.2724ZM125.232 75.0138C125.232 75.5029 125.621 75.8194 126.239 75.8194C127.074 75.8194 127.678 75.431 128.038 74.8555V73.8341L126.311 74.1218C125.549 74.2513 125.232 74.5678 125.232 75.0138ZM131.957 77.0566V69.8059H133.784V70.5252C134.259 70.0361 134.877 69.662 135.697 69.662C135.942 69.662 136.158 69.7052 136.33 69.7628V71.561C136.1 71.5035 135.856 71.4603 135.525 71.4603C134.633 71.4603 134.057 71.9495 133.784 72.4098V77.0566H131.957ZM138.739 74.4095V71.446H137.387V69.8059H138.739V67.9932H140.581V69.8059H142.796V71.446H140.581V74.4095C140.581 75.2152 141.012 75.5317 141.732 75.5317C142.235 75.5317 142.566 75.4741 142.811 75.3734V76.9703C142.451 77.1286 142.019 77.2005 141.415 77.2005C139.602 77.2005 138.739 76.1791 138.739 74.4095ZM145.353 68.5399C144.706 68.5399 144.159 67.9932 144.159 67.3458C144.159 66.6985 144.706 66.1518 145.353 66.1518C146.001 66.1518 146.533 66.6985 146.533 67.3458C146.533 67.9932 146.001 68.5399 145.353 68.5399ZM144.432 77.0566V69.8059H146.26V77.0566H144.432ZM151.932 75.618C152.651 75.618 153.227 75.2871 153.572 74.7836L154.996 75.877C154.32 76.7689 153.256 77.3444 151.932 77.3444C149.429 77.3444 147.933 75.5461 147.933 73.4313C147.933 71.3165 149.429 69.5182 151.932 69.5182C153.256 69.5182 154.32 70.0936 154.996 70.9856L153.572 72.079C153.227 71.5754 152.651 71.2445 151.903 71.2445C150.709 71.2445 149.832 72.1653 149.832 73.4313C149.832 74.7117 150.709 75.618 151.932 75.618ZM161.137 73.9204V69.8059H162.978V73.8341C162.978 76.0064 161.712 77.3444 159.583 77.3444C157.454 77.3444 156.202 76.0064 156.202 73.8341V69.8059H158.043V73.9204C158.043 74.9706 158.59 75.618 159.597 75.618C160.59 75.618 161.137 74.9706 161.137 73.9204ZM165 77.0566V66.2669H166.828V77.0566H165ZM169.939 68.5399C169.292 68.5399 168.745 67.9932 168.745 67.3458C168.745 66.6985 169.292 66.1518 169.939 66.1518C170.587 66.1518 171.119 66.6985 171.119 67.3458C171.119 67.9932 170.587 68.5399 169.939 68.5399ZM169.019 77.0566V69.8059H170.846V77.0566H169.019ZM179.712 75.877C179.036 76.7833 177.914 77.3444 176.547 77.3444C173.972 77.3444 172.519 75.5461 172.519 73.4313C172.519 71.2877 173.871 69.5182 176.245 69.5182C178.259 69.5182 179.582 70.8849 179.582 72.7839C179.582 73.1867 179.525 73.5608 179.467 73.8053H174.389C174.562 75.1576 175.396 75.7043 176.533 75.7043C177.324 75.7043 178.014 75.359 178.403 74.8411L179.712 75.877ZM176.202 71.0144C175.267 71.0144 174.648 71.5323 174.446 72.4818H177.784C177.755 71.7481 177.223 71.0144 176.202 71.0144ZM181.368 77.0566V69.8059H183.195V70.5252C183.67 70.0361 184.288 69.662 185.108 69.662C185.353 69.662 185.569 69.7052 185.741 69.7628V71.561C185.511 71.5035 185.266 71.4603 184.936 71.4603C184.044 71.4603 183.468 71.9495 183.195 72.4098V77.0566H181.368ZM190.572 73.4313C190.572 71.3165 191.967 69.5182 194.255 69.5182C195.233 69.5182 195.938 69.8203 196.499 70.3814V66.2669H198.341V77.0566H196.499V76.4812C195.938 77.0423 195.233 77.3444 194.255 77.3444C191.967 77.3444 190.572 75.5461 190.572 73.4313ZM192.485 73.4313C192.485 74.6973 193.277 75.618 194.514 75.618C195.334 75.618 196.01 75.2727 196.499 74.611V72.2516C196.01 71.5898 195.334 71.2445 194.514 71.2445C193.277 71.2445 192.485 72.1653 192.485 73.4313ZM201.506 71.1295H199.809L201.104 66.9862H203.175L201.506 71.1295ZM205.554 68.5399C204.907 68.5399 204.36 67.9932 204.36 67.3458C204.36 66.6985 204.907 66.1518 205.554 66.1518C206.201 66.1518 206.734 66.6985 206.734 67.3458C206.734 67.9932 206.201 68.5399 205.554 68.5399ZM204.633 77.0566V69.8059H206.46V77.0566H204.633ZM208.651 77.0566V69.8059H210.478V70.3526C210.968 69.8778 211.586 69.5182 212.478 69.5182C213.399 69.5182 214.204 69.921 214.679 70.6979C215.197 70.0649 215.888 69.5182 217.11 69.5182C218.607 69.5182 219.786 70.554 219.786 72.5969V77.0566H217.945V72.6688C217.945 71.7912 217.47 71.2445 216.65 71.2445C215.859 71.2445 215.427 71.7912 215.14 72.2804C215.154 72.3811 215.154 72.4818 215.154 72.5969V77.0566H213.312V72.6688C213.312 71.7912 212.838 71.2445 212.018 71.2445C211.183 71.2445 210.752 71.8632 210.478 72.3235V77.0566H208.651ZM221.872 80.5957V69.8059H223.699V70.3958C224.26 69.8347 224.965 69.5182 225.957 69.5182C228.259 69.5182 229.64 71.3165 229.64 73.4313C229.64 75.5461 228.259 77.3444 225.957 77.3444C224.965 77.3444 224.26 77.0279 223.699 76.4668V80.5957H221.872ZM225.698 71.2445C224.85 71.2445 224.159 71.6186 223.699 72.2948V74.5678C224.188 75.2583 224.864 75.618 225.698 75.618C226.936 75.618 227.741 74.6973 227.741 73.4313C227.741 72.1653 226.936 71.2445 225.698 71.2445ZM233.785 68.655H232.189L233.67 66.2669H236.001L237.483 68.655H235.886L234.836 67.0869L233.785 68.655ZM234.836 69.5182C237.195 69.5182 238.806 71.2589 238.806 73.4313C238.806 75.6036 237.195 77.3444 234.836 77.3444C232.476 77.3444 230.865 75.6036 230.865 73.4313C230.865 71.2589 232.476 69.5182 234.836 69.5182ZM234.864 75.618C236.03 75.618 236.907 74.6829 236.907 73.4313C236.907 72.1653 236.03 71.2445 234.864 71.2445C233.656 71.2445 232.764 72.1653 232.764 73.4313C232.764 74.6973 233.656 75.618 234.864 75.618ZM240.849 74.4095V71.446H239.496V69.8059H240.849V67.9932H242.69V69.8059H244.906V71.446H242.69V74.4095C242.69 75.2152 243.122 75.5317 243.841 75.5317C244.345 75.5317 244.676 75.4741 244.92 75.3734V76.9703C244.56 77.1286 244.129 77.2005 243.525 77.2005C241.712 77.2005 240.849 76.1791 240.849 74.4095ZM245.909 76.0064L247.117 74.9131C247.563 75.4741 248.096 75.877 248.786 75.877C249.376 75.877 249.678 75.5317 249.678 75.1001C249.678 73.8341 246.211 74.3088 246.211 71.7625C246.211 70.4821 247.29 69.5182 248.801 69.5182C249.908 69.5182 250.915 70.0505 251.433 70.7554L250.225 71.82C249.851 71.3596 249.376 70.9856 248.815 70.9856C248.24 70.9856 247.966 71.3021 247.966 71.6761C247.966 72.9134 251.433 72.4818 251.433 74.985C251.405 76.51 250.182 77.3444 248.815 77.3444C247.52 77.3444 246.599 76.8265 245.909 76.0064ZM253.91 77.2293C253.205 77.2293 252.644 76.6682 252.644 75.9777C252.644 75.3015 253.205 74.726 253.91 74.726C254.586 74.726 255.176 75.3015 255.176 75.9777C255.176 76.6682 254.586 77.2293 253.91 77.2293ZM256.135 78.3226C256.135 77.6033 256.494 77.0279 257.142 76.5531C256.854 76.2654 256.696 75.877 256.696 75.5029C256.696 74.9275 256.94 74.4671 257.487 74.0643C256.854 73.5895 256.509 72.8702 256.509 72.0646C256.509 70.6547 257.602 69.5182 259.415 69.5182C259.976 69.5182 260.465 69.6189 260.882 69.8059H263.529V71.3596H262.249C262.321 71.5898 262.35 71.82 262.35 72.0646C262.35 73.4888 261.285 74.6397 259.415 74.6397C259.17 74.6397 258.94 74.6253 258.724 74.5822C258.566 74.726 258.48 74.8843 258.48 75.0425C258.48 75.3303 258.638 75.4741 258.969 75.4741H260.796C262.623 75.4741 263.616 76.4524 263.616 77.8047C263.616 79.416 262.076 80.6532 259.818 80.6532C257.501 80.6532 256.135 79.8476 256.135 78.3226ZM259.444 73.2586C260.206 73.2586 260.695 72.7839 260.695 72.0646C260.695 71.3453 260.206 70.8849 259.444 70.8849C258.652 70.8849 258.178 71.3596 258.178 72.0646C258.178 72.7839 258.652 73.2586 259.444 73.2586ZM257.861 78.0637C257.861 78.7542 258.523 79.1858 259.803 79.1858C261.127 79.1858 261.803 78.6967 261.803 77.9774C261.803 77.4307 261.472 77.0423 260.594 77.0423H258.35C258.077 77.3012 257.861 77.6177 257.861 78.0637ZM267.978 69.5182C270.337 69.5182 271.948 71.2589 271.948 73.4313C271.948 75.6036 270.337 77.3444 267.978 77.3444C265.618 77.3444 264.007 75.6036 264.007 73.4313C264.007 71.2589 265.618 69.5182 267.978 69.5182ZM268.006 75.618C269.172 75.618 270.049 74.6829 270.049 73.4313C270.049 72.1653 269.172 71.2445 268.006 71.2445C266.798 71.2445 265.906 72.1653 265.906 73.4313C265.906 74.6973 266.798 75.618 268.006 75.618ZM278.391 73.9204V69.8059H280.232V73.8341C280.232 76.0064 278.966 77.3444 276.837 77.3444C274.708 77.3444 273.456 76.0064 273.456 73.8341V69.8059H275.298V73.9204C275.298 74.9706 275.845 75.618 276.852 75.618C277.844 75.618 278.391 74.9706 278.391 73.9204ZM281.332 69.8059H283.288L285.173 74.985L287.043 69.8059H289.014L286.367 77.0566H283.964L281.332 69.8059ZM290.171 77.2293C289.466 77.2293 288.905 76.6682 288.905 75.9777C288.905 75.3015 289.466 74.726 290.171 74.726C290.847 74.726 291.437 75.3015 291.437 75.9777C291.437 76.6682 290.847 77.2293 290.171 77.2293ZM292.293 69.8059H293.646V69.0434C293.646 67.5041 294.667 66.2669 296.48 66.2669C297.141 66.2669 297.703 66.4251 298.163 66.6697L297.386 68.1946C297.17 68.0364 296.883 67.9069 296.508 67.9069C295.89 67.9069 295.487 68.3385 295.487 69.0003V69.8059H297.703V71.446H295.487V77.0566H293.646V71.446H292.293V69.8059ZM298.861 77.0566V69.8059H300.688V70.5252C301.163 70.0361 301.782 69.662 302.602 69.662C302.846 69.662 303.062 69.7052 303.235 69.7628V71.561C303.004 71.5035 302.76 71.4603 302.429 71.4603C301.537 71.4603 300.962 71.9495 300.688 72.4098V77.0566H298.861Z" fill="#000091"/>
<path d="M27.6935 115.318V109.666H28.8956V115.241C28.8956 117.543 27.5273 118.873 25.4301 118.873C23.3329 118.873 21.9518 117.543 21.9518 115.241V109.666H23.1538V115.318C23.1538 116.865 24.049 117.748 25.4301 117.748C26.7984 117.748 27.6935 116.865 27.6935 115.318ZM31.1553 118.617V112.172H32.2422V112.901C32.7665 112.326 33.4315 111.916 34.3906 111.916C35.8356 111.916 36.9098 112.888 36.9098 114.717V118.617H35.8228V114.755C35.8228 113.604 35.1707 112.939 34.1732 112.939C33.2397 112.939 32.6514 113.476 32.2422 114.154V118.617H31.1553ZM44.8267 117.556C44.2257 118.361 43.2666 118.873 42.0645 118.873C39.8906 118.873 38.5479 117.274 38.5479 115.395C38.5479 113.438 39.8011 111.916 41.796 111.916C43.5479 111.916 44.686 113.144 44.686 114.73C44.686 114.985 44.6477 115.228 44.6093 115.407H39.6604C39.6988 116.955 40.6834 117.888 42.0645 117.888C42.8957 117.888 43.5991 117.505 44.0211 116.929L44.8267 117.556ZM41.7704 112.837C40.709 112.837 39.9673 113.464 39.7371 114.576H43.5991C43.5607 113.63 42.9085 112.837 41.7704 112.837ZM52.9417 117.85C53.7346 117.85 54.3867 117.466 54.7832 116.904L55.64 117.556C55.0389 118.361 54.1054 118.873 52.9289 118.873C50.7933 118.873 49.425 117.274 49.425 115.395C49.425 113.515 50.7933 111.916 52.9289 111.916C54.0926 111.916 55.0389 112.441 55.64 113.233L54.7832 113.886C54.3867 113.323 53.7346 112.939 52.9289 112.939C51.5478 112.939 50.5632 114.026 50.5632 115.395C50.5632 116.776 51.5478 117.85 52.9417 117.85ZM59.8221 111.916C61.8937 111.916 63.3132 113.515 63.3132 115.395C63.3132 117.274 61.8937 118.873 59.8221 118.873C57.7377 118.873 56.331 117.274 56.331 115.395C56.331 113.515 57.7377 111.916 59.8221 111.916ZM59.8349 117.85C61.1776 117.85 62.1623 116.725 62.1623 115.395C62.1623 114.052 61.1776 112.939 59.8349 112.939C58.4538 112.939 57.4691 114.052 57.4691 115.395C57.4691 116.737 58.4538 117.85 59.8349 117.85ZM65.0606 118.617V112.172H66.1476V112.901C66.6719 112.326 67.3369 111.916 68.296 111.916C69.741 111.916 70.8152 112.888 70.8152 114.717V118.617H69.7282V114.755C69.7282 113.604 69.076 112.939 68.0786 112.939C67.145 112.939 66.5568 113.476 66.1476 114.154V118.617H65.0606ZM73.0031 118.617V112.172H74.0901V112.901C74.6144 112.326 75.2793 111.916 76.2384 111.916C77.6835 111.916 78.7576 112.888 78.7576 114.717V118.617H77.6707V114.755C77.6707 113.604 77.0185 112.939 76.021 112.939C75.0875 112.939 74.4993 113.476 74.0901 114.154V118.617H73.0031ZM86.6745 117.556C86.0735 118.361 85.1144 118.873 83.9124 118.873C81.7384 118.873 80.3957 117.274 80.3957 115.395C80.3957 113.438 81.6489 111.916 83.6438 111.916C85.3957 111.916 86.5339 113.144 86.5339 114.73C86.5339 114.985 86.4955 115.228 86.4571 115.407H81.5082C81.5466 116.955 82.5313 117.888 83.9124 117.888C84.7436 117.888 85.4469 117.505 85.8689 116.929L86.6745 117.556ZM83.6182 112.837C82.5568 112.837 81.8151 113.464 81.585 114.576H85.4469C85.4085 113.63 84.7564 112.837 83.6182 112.837ZM88.6604 118.617H87.3944L89.7729 115.28L87.5734 112.172H88.8138L90.489 114.551L92.1642 112.172H93.4174L91.2051 115.28L93.5837 118.617H92.3433L90.5018 116.008L88.6604 118.617ZM95.5821 110.497C95.1601 110.497 94.8148 110.152 94.8148 109.73C94.8148 109.32 95.1601 108.975 95.5821 108.975C96.0041 108.975 96.3366 109.32 96.3366 109.73C96.3366 110.152 96.0041 110.497 95.5821 110.497ZM95.0322 118.617V112.172H96.1192V118.617H95.0322ZM101.358 111.916C103.429 111.916 104.849 113.515 104.849 115.395C104.849 117.274 103.429 118.873 101.358 118.873C99.2733 118.873 97.8666 117.274 97.8666 115.395C97.8666 113.515 99.2733 111.916 101.358 111.916ZM101.371 117.85C102.713 117.85 103.698 116.725 103.698 115.395C103.698 114.052 102.713 112.939 101.371 112.939C99.9894 112.939 99.0047 114.052 99.0047 115.395C99.0047 116.737 99.9894 117.85 101.371 117.85ZM106.596 118.617V112.172H107.683V112.901C108.208 112.326 108.872 111.916 109.832 111.916C111.277 111.916 112.351 112.888 112.351 114.717V118.617H111.264V114.755C111.264 113.604 110.612 112.939 109.614 112.939C108.681 112.939 108.092 113.476 107.683 114.154V118.617H106.596ZM119.865 111.149L118.369 109.026H119.584L120.914 111.149H119.865ZM119.737 118.796C118.471 118.796 117.615 118.093 117.615 116.993C117.615 116.021 118.356 115.331 119.725 115.101L121.899 114.742V114.295C121.899 113.4 121.259 112.888 120.338 112.888C119.597 112.888 118.996 113.233 118.599 113.783L117.781 113.157C118.344 112.389 119.251 111.916 120.377 111.916C122.014 111.916 122.986 112.875 122.986 114.295V118.617H121.899V117.799C121.413 118.425 120.569 118.796 119.737 118.796ZM118.714 116.955C118.714 117.505 119.162 117.901 119.916 117.901C120.773 117.901 121.477 117.492 121.899 116.801V115.535L119.993 115.855C119.111 116.008 118.714 116.405 118.714 116.955ZM131.58 117.85C132.373 117.85 133.025 117.466 133.421 116.904L134.278 117.556C133.677 118.361 132.743 118.873 131.567 118.873C129.431 118.873 128.063 117.274 128.063 115.395C128.063 113.515 129.431 111.916 131.567 111.916C132.731 111.916 133.677 112.441 134.278 113.233L133.421 113.886C133.025 113.323 132.373 112.939 131.567 112.939C130.186 112.939 129.201 114.026 129.201 115.395C129.201 116.776 130.186 117.85 131.58 117.85ZM141.248 117.556C140.647 118.361 139.688 118.873 138.486 118.873C136.312 118.873 134.969 117.274 134.969 115.395C134.969 113.438 136.222 111.916 138.217 111.916C139.969 111.916 141.107 113.144 141.107 114.73C141.107 114.985 141.069 115.228 141.03 115.407H136.082C136.12 116.955 137.105 117.888 138.486 117.888C139.317 117.888 140.02 117.505 140.442 116.929L141.248 117.556ZM138.192 112.837C137.13 112.837 136.388 113.464 136.158 114.576H140.02C139.982 113.63 139.33 112.837 138.192 112.837ZM145.705 117.735L146.473 117.083C146.92 117.645 147.457 117.965 148.11 117.965C148.826 117.965 149.235 117.53 149.235 116.968C149.235 115.523 146.012 116.034 146.012 113.758C146.012 112.748 146.869 111.916 148.11 111.916C149.03 111.916 149.823 112.351 150.271 112.978L149.516 113.617C149.171 113.131 148.685 112.824 148.122 112.824C147.432 112.824 147.061 113.233 147.061 113.732C147.061 115.177 150.296 114.717 150.296 116.916C150.284 118.118 149.324 118.873 148.122 118.873C147.099 118.873 146.294 118.464 145.705 117.735ZM157.72 117.556C157.119 118.361 156.16 118.873 154.958 118.873C152.784 118.873 151.441 117.274 151.441 115.395C151.441 113.438 152.694 111.916 154.689 111.916C156.441 111.916 157.579 113.144 157.579 114.73C157.579 114.985 157.541 115.228 157.502 115.407H152.553C152.592 116.955 153.576 117.888 154.958 117.888C155.789 117.888 156.492 117.505 156.914 116.929L157.72 117.556ZM154.663 112.837C153.602 112.837 152.86 113.464 152.63 114.576H156.492C156.454 113.63 155.802 112.837 154.663 112.837ZM159.421 118.617V112.172H160.508V112.978C160.981 112.415 161.57 112.044 162.388 112.044C162.593 112.044 162.784 112.07 162.938 112.121V113.182C162.746 113.131 162.554 113.106 162.298 113.106C161.454 113.106 160.905 113.54 160.508 114.193V118.617H159.421ZM163.757 112.172H164.933L166.992 117.479L169.051 112.172H170.227L167.708 118.617H166.276L163.757 112.172ZM172.11 110.497C171.688 110.497 171.342 110.152 171.342 109.73C171.342 109.32 171.688 108.975 172.11 108.975C172.532 108.975 172.864 109.32 172.864 109.73C172.864 110.152 172.532 110.497 172.11 110.497ZM171.56 118.617V112.172H172.647V118.617H171.56ZM177.911 117.85C178.704 117.85 179.356 117.466 179.752 116.904L180.609 117.556C180.008 118.361 179.074 118.873 177.898 118.873C175.762 118.873 174.394 117.274 174.394 115.395C174.394 113.515 175.762 111.916 177.898 111.916C179.062 111.916 180.008 112.441 180.609 113.233L179.752 113.886C179.356 113.323 178.704 112.939 177.898 112.939C176.517 112.939 175.532 114.026 175.532 115.395C175.532 116.776 176.517 117.85 177.911 117.85ZM187.579 117.556C186.978 118.361 186.019 118.873 184.817 118.873C182.643 118.873 181.3 117.274 181.3 115.395C181.3 113.438 182.553 111.916 184.548 111.916C186.3 111.916 187.438 113.144 187.438 114.73C187.438 114.985 187.4 115.228 187.362 115.407H182.413C182.451 116.955 183.436 117.888 184.817 117.888C185.648 117.888 186.351 117.505 186.773 116.929L187.579 117.556ZM184.523 112.837C183.461 112.837 182.72 113.464 182.489 114.576H186.351C186.313 113.63 185.661 112.837 184.523 112.837ZM194.479 118.796C193.213 118.796 192.356 118.093 192.356 116.993C192.356 116.021 193.098 115.331 194.466 115.101L196.64 114.742V114.295C196.64 113.4 196.001 112.888 195.08 112.888C194.338 112.888 193.737 113.233 193.341 113.783L192.523 113.157C193.085 112.389 193.993 111.916 195.118 111.916C196.755 111.916 197.727 112.875 197.727 114.295V118.617H196.64V117.799C196.154 118.425 195.31 118.796 194.479 118.796ZM193.456 116.955C193.456 117.505 193.904 117.901 194.658 117.901C195.515 117.901 196.218 117.492 196.64 116.801V115.535L194.735 115.855C193.852 116.008 193.456 116.405 193.456 116.955ZM209.084 117.556C208.482 118.361 207.523 118.873 206.321 118.873C204.147 118.873 202.805 117.274 202.805 115.395C202.805 113.438 204.058 111.916 206.053 111.916C207.805 111.916 208.943 113.144 208.943 114.73C208.943 114.985 208.904 115.228 208.866 115.407H203.917C203.956 116.955 204.94 117.888 206.321 117.888C207.153 117.888 207.856 117.505 208.278 116.929L209.084 117.556ZM206.027 112.837C204.966 112.837 204.224 113.464 203.994 114.576H207.856C207.818 113.63 207.165 112.837 206.027 112.837ZM215.174 115.855V112.172H216.261V115.817C216.261 117.748 215.148 118.873 213.396 118.873C211.657 118.873 210.544 117.748 210.544 115.817V112.172H211.631V115.855C211.631 117.121 212.309 117.85 213.409 117.85C214.483 117.85 215.174 117.121 215.174 115.855ZM221.85 118.617V109.026H222.936V118.617H221.85ZM225.784 110.497C225.362 110.497 225.016 110.152 225.016 109.73C225.016 109.32 225.362 108.975 225.784 108.975C226.206 108.975 226.538 109.32 226.538 109.73C226.538 110.152 226.206 110.497 225.784 110.497ZM225.234 118.617V112.172H226.321V118.617H225.234ZM234.347 117.556C233.746 118.361 232.787 118.873 231.585 118.873C229.411 118.873 228.068 117.274 228.068 115.395C228.068 113.438 229.321 111.916 231.316 111.916C233.068 111.916 234.206 113.144 234.206 114.73C234.206 114.985 234.168 115.228 234.13 115.407H229.181C229.219 116.955 230.204 117.888 231.585 117.888C232.416 117.888 233.119 117.505 233.541 116.929L234.347 117.556ZM231.291 112.837C230.229 112.837 229.488 113.464 229.257 114.576H233.119C233.081 113.63 232.429 112.837 231.291 112.837ZM240.437 115.855V112.172H241.524V115.817C241.524 117.748 240.412 118.873 238.66 118.873C236.921 118.873 235.808 117.748 235.808 115.817V112.172H236.895V115.855C236.895 117.121 237.573 117.85 238.672 117.85C239.747 117.85 240.437 117.121 240.437 115.855ZM247.113 118.617V109.026H248.2V118.617H247.113ZM256.226 117.556C255.625 118.361 254.666 118.873 253.464 118.873C251.29 118.873 249.947 117.274 249.947 115.395C249.947 113.438 251.201 111.916 253.196 111.916C254.948 111.916 256.086 113.144 256.086 114.73C256.086 114.985 256.047 115.228 256.009 115.407H251.06C251.098 116.955 252.083 117.888 253.464 117.888C254.295 117.888 254.999 117.505 255.421 116.929L256.226 117.556ZM253.17 112.837C252.109 112.837 251.367 113.464 251.137 114.576H254.999C254.96 113.63 254.308 112.837 253.17 112.837ZM261.963 113.655C261.502 113.655 261.132 113.285 261.132 112.837C261.132 112.389 261.502 112.031 261.963 112.031C262.423 112.031 262.781 112.389 262.781 112.837C262.781 113.285 262.423 113.655 261.963 113.655ZM261.963 118.758C261.502 118.758 261.132 118.4 261.132 117.952C261.132 117.505 261.502 117.134 261.963 117.134C262.423 117.134 262.781 117.505 262.781 117.952C262.781 118.4 262.423 118.758 261.963 118.758ZM270.953 109.41C273.306 109.41 274.406 111.456 274.406 114.141C274.406 116.827 273.306 118.873 270.953 118.873C268.6 118.873 267.501 116.827 267.501 114.141C267.501 111.456 268.6 109.41 270.953 109.41ZM270.953 111.008C269.815 111.008 269.265 112.262 269.265 114.141C269.265 116.034 269.815 117.274 270.953 117.274C272.079 117.274 272.629 116.021 272.629 114.141C272.629 112.249 272.079 111.008 270.953 111.008ZM275.502 118.617V117.057L278.571 114.039C279.261 113.336 279.696 112.85 279.696 112.121C279.696 111.379 279.184 110.944 278.481 110.944C277.624 110.944 277.1 111.469 276.627 112.262L275.22 111.405C275.975 110.177 277.087 109.41 278.647 109.41C280.207 109.41 281.461 110.407 281.461 111.942C281.461 113.17 280.655 114.116 279.773 114.973L277.612 117.057H281.691V118.617H275.502ZM282.568 121.136L285.458 109.026H287.108L284.218 121.136H282.568ZM291.084 109.41C293.437 109.41 294.537 111.456 294.537 114.141C294.537 116.827 293.437 118.873 291.084 118.873C288.731 118.873 287.632 116.827 287.632 114.141C287.632 111.456 288.731 109.41 291.084 109.41ZM291.084 111.008C289.946 111.008 289.396 112.262 289.396 114.141C289.396 116.034 289.946 117.274 291.084 117.274C292.21 117.274 292.76 116.021 292.76 114.141C292.76 112.249 292.21 111.008 291.084 111.008ZM298.253 118.873C296.77 118.873 295.823 118.195 295.248 117.415L296.578 116.315C297.038 116.929 297.563 117.313 298.279 117.313C299.57 117.313 300.248 116.379 300.363 114.615C299.788 115.126 299.059 115.407 298.176 115.407C296.399 115.407 295.274 114.141 295.274 112.505C295.274 110.817 296.488 109.41 298.534 109.41C300.862 109.41 302.153 111.111 302.153 114.103C302.153 116.891 301.002 118.873 298.253 118.873ZM297.051 112.441C297.051 113.272 297.639 113.873 298.496 113.873C299.225 113.873 299.877 113.579 300.312 112.991C300.107 111.533 299.481 110.97 298.56 110.97C297.639 110.97 297.051 111.597 297.051 112.441ZM302.737 121.136L305.627 109.026H307.276L304.386 121.136H302.737ZM308.158 118.617V117.057L311.227 114.039C311.918 113.336 312.353 112.85 312.353 112.121C312.353 111.379 311.841 110.944 311.138 110.944C310.281 110.944 309.757 111.469 309.283 112.262L307.877 111.405C308.631 110.177 309.744 109.41 311.304 109.41C312.864 109.41 314.117 110.407 314.117 111.942C314.117 113.17 313.312 114.116 312.429 114.973L310.268 117.057H314.347V118.617H308.158ZM318.921 109.41C321.273 109.41 322.373 111.456 322.373 114.141C322.373 116.827 321.273 118.873 318.921 118.873C316.568 118.873 315.468 116.827 315.468 114.141C315.468 111.456 316.568 109.41 318.921 109.41ZM318.921 111.008C317.782 111.008 317.233 112.262 317.233 114.141C317.233 116.034 317.782 117.274 318.921 117.274C320.046 117.274 320.596 116.021 320.596 114.141C320.596 112.249 320.046 111.008 318.921 111.008ZM323.469 118.617V117.057L326.538 114.039C327.228 113.336 327.663 112.85 327.663 112.121C327.663 111.379 327.152 110.944 326.448 110.944C325.591 110.944 325.067 111.469 324.594 112.262L323.187 111.405C323.942 110.177 325.054 109.41 326.614 109.41C328.175 109.41 329.428 110.407 329.428 111.942C329.428 113.17 328.622 114.116 327.74 114.973L325.579 117.057H329.658V118.617H323.469ZM332.944 118.604V111.43L331.09 112.479L330.233 111.251L332.995 109.653H334.67V118.604H332.944ZM342.31 111.149L340.776 109.026H342.541L343.858 111.149H342.31ZM342.349 118.809C341.057 118.809 340.175 118.067 340.175 116.878C340.175 115.906 340.929 115.177 342.31 114.947L344.28 114.615V114.448C344.28 113.771 343.768 113.336 343.026 113.336C342.4 113.336 341.914 113.63 341.569 114.103L340.379 113.195C340.955 112.402 341.901 111.916 343.078 111.916C344.945 111.916 345.904 113.029 345.904 114.448V118.617H344.28V117.991C343.87 118.489 343.103 118.809 342.349 118.809ZM341.786 116.801C341.786 117.236 342.131 117.517 342.681 117.517C343.423 117.517 343.96 117.172 344.28 116.661V115.753L342.745 116.008C342.067 116.124 341.786 116.405 341.786 116.801ZM352.975 118.604V111.43L351.121 112.479L350.264 111.251L353.026 109.653H354.701V118.604H352.975ZM358.773 118.617H356.778L361.279 111.226H356.663V109.666H363.108V111.226L358.773 118.617ZM364.89 114.244C364.264 114.244 363.765 113.732 363.765 113.118C363.765 112.517 364.264 112.019 364.89 112.019C365.491 112.019 366.016 112.517 366.016 113.118C366.016 113.732 365.491 114.244 364.89 114.244ZM364.89 118.771C364.264 118.771 363.765 118.272 363.765 117.658C363.765 117.057 364.264 116.546 364.89 116.546C365.491 116.546 366.016 117.057 366.016 117.658C366.016 118.272 365.491 118.771 364.89 118.771ZM367.749 114.653L368.017 109.666H373.35V111.226H369.667L369.565 113.093H370.255C372.634 113.093 373.682 114.18 373.682 115.919C373.682 117.748 372.25 118.873 370.409 118.873C368.746 118.873 367.646 118.144 366.905 116.852L368.414 115.919C368.925 116.904 369.539 117.338 370.409 117.338C371.291 117.338 371.918 116.814 371.918 115.983C371.918 115.139 371.291 114.653 370.178 114.653H367.749ZM375.354 114.653L375.623 109.666H380.955V111.226H377.272L377.17 113.093H377.86C380.239 113.093 381.288 114.18 381.288 115.919C381.288 117.748 379.855 118.873 378.014 118.873C376.351 118.873 375.252 118.144 374.51 116.852L376.019 115.919C376.53 116.904 377.144 117.338 378.014 117.338C378.896 117.338 379.523 116.814 379.523 115.983C379.523 115.139 378.896 114.653 377.784 114.653H375.354ZM387.581 115.088C387.581 117.185 388.284 118.822 389.678 120.216L388.527 121.175C386.929 119.73 385.97 117.658 385.97 115.088C385.97 112.492 387.018 110.42 388.527 109.026L389.678 109.985C388.336 111.315 387.581 113.003 387.581 115.088ZM390.935 118.617V109.026H392.559V112.684C393.007 112.249 393.608 111.916 394.464 111.916C395.858 111.916 396.971 112.875 396.971 114.781V118.617H395.334V114.845C395.334 113.988 394.861 113.451 394.055 113.451C393.237 113.451 392.802 114.001 392.559 114.41V118.617H390.935ZM404.749 117.569C404.148 118.374 403.15 118.873 401.935 118.873C399.646 118.873 398.355 117.274 398.355 115.395C398.355 113.489 399.557 111.916 401.667 111.916C403.457 111.916 404.634 113.131 404.634 114.819C404.634 115.177 404.582 115.51 404.531 115.727H400.017C400.171 116.929 400.912 117.415 401.923 117.415C402.626 117.415 403.24 117.108 403.585 116.648L404.749 117.569ZM401.628 113.246C400.797 113.246 400.247 113.707 400.068 114.551H403.035C403.01 113.898 402.536 113.246 401.628 113.246ZM410.391 115.829V112.172H412.028V115.753C412.028 117.684 410.903 118.873 409.01 118.873C407.117 118.873 406.005 117.684 406.005 115.753V112.172H407.642V115.829C407.642 116.763 408.128 117.338 409.023 117.338C409.905 117.338 410.391 116.763 410.391 115.829ZM413.826 118.617V112.172H415.45V112.811C415.872 112.377 416.422 112.044 417.151 112.044C417.368 112.044 417.56 112.083 417.713 112.134V113.732C417.509 113.681 417.291 113.643 416.997 113.643C416.204 113.643 415.693 114.077 415.45 114.487V118.617H413.826ZM424.68 117.569C424.079 118.374 423.081 118.873 421.866 118.873C419.577 118.873 418.286 117.274 418.286 115.395C418.286 113.489 419.488 111.916 421.598 111.916C423.388 111.916 424.565 113.131 424.565 114.819C424.565 115.177 424.514 115.51 424.462 115.727H419.948C420.102 116.929 420.843 117.415 421.854 117.415C422.557 117.415 423.171 117.108 423.516 116.648L424.68 117.569ZM421.56 113.246C420.728 113.246 420.178 113.707 419.999 114.551H422.966C422.941 113.898 422.467 113.246 421.56 113.246ZM429.138 115.395C429.138 113.515 430.378 111.916 432.412 111.916C433.281 111.916 433.908 112.185 434.407 112.684V109.026H436.043V118.617H434.407V118.106C433.908 118.604 433.281 118.873 432.412 118.873C430.378 118.873 429.138 117.274 429.138 115.395ZM430.839 115.395C430.839 116.52 431.542 117.338 432.642 117.338C433.371 117.338 433.972 117.031 434.407 116.443V114.346C433.972 113.758 433.371 113.451 432.642 113.451C431.542 113.451 430.839 114.269 430.839 115.395ZM443.924 117.569C443.323 118.374 442.326 118.873 441.111 118.873C438.822 118.873 437.53 117.274 437.53 115.395C437.53 113.489 438.732 111.916 440.842 111.916C442.632 111.916 443.809 113.131 443.809 114.819C443.809 115.177 443.758 115.51 443.707 115.727H439.192C439.346 116.929 440.088 117.415 441.098 117.415C441.801 117.415 442.415 117.108 442.76 116.648L443.924 117.569ZM440.804 113.246C439.973 113.246 439.423 113.707 439.244 114.551H442.21C442.185 113.898 441.712 113.246 440.804 113.246ZM449.188 118.617V109.666H452.142C454.111 109.666 455.313 110.676 455.313 112.338C455.313 113.988 454.111 114.998 452.142 114.998H451.004V118.617H449.188ZM452.219 111.175H451.004V113.489H452.219C452.986 113.489 453.446 113.042 453.446 112.313C453.446 111.635 452.986 111.175 452.219 111.175ZM458.164 118.809C456.872 118.809 455.99 118.067 455.99 116.878C455.99 115.906 456.744 115.177 458.126 114.947L460.095 114.615V114.448C460.095 113.771 459.583 113.336 458.842 113.336C458.215 113.336 457.729 113.63 457.384 114.103L456.195 113.195C456.77 112.402 457.716 111.916 458.893 111.916C460.76 111.916 461.719 113.029 461.719 114.448V118.617H460.095V117.991C459.686 118.489 458.918 118.809 458.164 118.809ZM457.601 116.801C457.601 117.236 457.947 117.517 458.496 117.517C459.238 117.517 459.775 117.172 460.095 116.661V115.753L458.56 116.008C457.883 116.124 457.601 116.405 457.601 116.801ZM463.579 118.617V112.172H465.203V112.811C465.625 112.377 466.175 112.044 466.904 112.044C467.121 112.044 467.313 112.083 467.466 112.134V113.732C467.262 113.681 467.044 113.643 466.75 113.643C465.957 113.643 465.446 114.077 465.203 114.487V118.617H463.579ZM469.592 111.047C469.017 111.047 468.531 110.561 468.531 109.985C468.531 109.41 469.017 108.924 469.592 108.924C470.168 108.924 470.641 109.41 470.641 109.985C470.641 110.561 470.168 111.047 469.592 111.047ZM468.774 118.617V112.172H470.398V118.617H468.774ZM471.695 117.684L472.769 116.712C473.166 117.211 473.639 117.569 474.253 117.569C474.777 117.569 475.046 117.262 475.046 116.878C475.046 115.753 471.964 116.175 471.964 113.911C471.964 112.773 472.923 111.916 474.266 111.916C475.25 111.916 476.145 112.389 476.606 113.016L475.532 113.962C475.199 113.553 474.777 113.221 474.278 113.221C473.767 113.221 473.524 113.502 473.524 113.835C473.524 114.934 476.606 114.551 476.606 116.776C476.58 118.131 475.493 118.873 474.278 118.873C473.128 118.873 472.309 118.413 471.695 117.684ZM479.06 115.113C479.06 113.016 478.356 111.366 476.95 109.985L478.1 109.026C479.686 110.459 480.658 112.53 480.658 115.113C480.658 117.709 479.622 119.768 478.1 121.175L476.95 120.216C478.318 118.886 479.06 117.198 479.06 115.113ZM22.2075 140.617V131.666H23.4096V139.517H27.0158V140.617H22.2075ZM31.4864 133.916C33.5581 133.916 34.9775 135.515 34.9775 137.395C34.9775 139.274 33.5581 140.873 31.4864 140.873C29.402 140.873 27.9954 139.274 27.9954 137.395C27.9954 135.515 29.402 133.916 31.4864 133.916ZM31.4992 139.85C32.842 139.85 33.8266 138.725 33.8266 137.395C33.8266 136.052 32.842 134.939 31.4992 134.939C30.1181 134.939 29.1335 136.052 29.1335 137.395C29.1335 138.737 30.1181 139.85 31.4992 139.85ZM39.7542 139.85C40.5471 139.85 41.1992 139.466 41.5957 138.904L42.4525 139.556C41.8514 140.361 40.9179 140.873 39.7414 140.873C37.6058 140.873 36.2375 139.274 36.2375 137.395C36.2375 135.515 37.6058 133.916 39.7414 133.916C40.9051 133.916 41.8514 134.441 42.4525 135.233L41.5957 135.886C41.1992 135.323 40.5471 134.939 39.7414 134.939C38.3603 134.939 37.3757 136.026 37.3757 137.395C37.3757 138.776 38.3603 139.85 39.7542 139.85ZM45.6077 140.796C44.3417 140.796 43.4849 140.093 43.4849 138.993C43.4849 138.021 44.2266 137.331 45.5949 137.101L47.7688 136.742V136.295C47.7688 135.4 47.1294 134.888 46.2087 134.888C45.467 134.888 44.866 135.233 44.4695 135.783L43.6511 135.157C44.2138 134.389 45.1217 133.916 46.2471 133.916C47.8839 133.916 48.8558 134.875 48.8558 136.295V140.617H47.7688V139.799C47.2829 140.425 46.4389 140.796 45.6077 140.796ZM44.5846 138.955C44.5846 139.505 45.0322 139.901 45.7867 139.901C46.6435 139.901 47.3468 139.492 47.7688 138.801V137.535L45.8634 137.855C44.9811 138.008 44.5846 138.405 44.5846 138.955ZM51.0364 140.617V131.026H52.1234V140.617H51.0364ZM54.9706 132.497C54.5486 132.497 54.2033 132.152 54.2033 131.73C54.2033 131.32 54.5486 130.975 54.9706 130.975C55.3926 130.975 55.7251 131.32 55.7251 131.73C55.7251 132.152 55.3926 132.497 54.9706 132.497ZM54.4207 140.617V134.172H55.5077V140.617H54.4207ZM57.0645 139.735L57.8318 139.083C58.2793 139.645 58.8164 139.965 59.4686 139.965C60.1847 139.965 60.594 139.53 60.594 138.968C60.594 137.523 57.3714 138.034 57.3714 135.758C57.3714 134.748 58.2282 133.916 59.4686 133.916C60.3893 133.916 61.1822 134.351 61.6298 134.978L60.8753 135.617C60.53 135.131 60.0441 134.824 59.4814 134.824C58.7909 134.824 58.42 135.233 58.42 135.732C58.42 137.177 61.6553 136.717 61.6553 138.916C61.6426 140.118 60.6835 140.873 59.4814 140.873C58.4584 140.873 57.6527 140.464 57.0645 139.735ZM65.1516 140.796C63.8856 140.796 63.0288 140.093 63.0288 138.993C63.0288 138.021 63.7705 137.331 65.1388 137.101L67.3128 136.742V136.295C67.3128 135.4 66.6734 134.888 65.7527 134.888C65.011 134.888 64.4099 135.233 64.0135 135.783L63.1951 135.157C63.7578 134.389 64.6657 133.916 65.791 133.916C67.4279 133.916 68.3998 134.875 68.3998 136.295V140.617H67.3128V139.799C66.8268 140.425 65.9828 140.796 65.1516 140.796ZM64.1286 138.955C64.1286 139.505 64.5762 139.901 65.3307 139.901C66.1875 139.901 66.8908 139.492 67.3128 138.801V137.535L65.4074 137.855C64.525 138.008 64.1286 138.405 64.1286 138.955ZM70.9512 138.456V135.157H69.7364V134.172H70.9512V132.561H72.051V134.172H74.2889V135.157H72.051V138.456C72.051 139.466 72.5625 139.748 73.3426 139.748C73.7646 139.748 74.0587 139.696 74.3017 139.594V140.566C73.9948 140.694 73.6495 140.745 73.1891 140.745C71.7569 140.745 70.9512 140.029 70.9512 138.456ZM76.5002 132.497C76.0782 132.497 75.7329 132.152 75.7329 131.73C75.7329 131.32 76.0782 130.975 76.5002 130.975C76.9222 130.975 77.2547 131.32 77.2547 131.73C77.2547 132.152 76.9222 132.497 76.5002 132.497ZM75.9503 140.617V134.172H77.0373V140.617H75.9503ZM82.2758 133.916C84.3474 133.916 85.7669 135.515 85.7669 137.395C85.7669 139.274 84.3474 140.873 82.2758 140.873C80.1914 140.873 78.7847 139.274 78.7847 137.395C78.7847 135.515 80.1914 133.916 82.2758 133.916ZM82.2886 139.85C83.6313 139.85 84.616 138.725 84.616 137.395C84.616 136.052 83.6313 134.939 82.2886 134.939C80.9075 134.939 79.9228 136.052 79.9228 137.395C79.9228 138.737 80.9075 139.85 82.2886 139.85ZM87.5143 140.617V134.172H88.6013V134.901C89.1256 134.326 89.7906 133.916 90.7497 133.916C92.1947 133.916 93.2689 134.888 93.2689 136.717V140.617H92.1819V136.755C92.1819 135.604 91.5297 134.939 90.5323 134.939C89.5988 134.939 89.0105 135.476 88.6013 136.154V140.617H87.5143ZM99.4918 135.655C99.0314 135.655 98.6606 135.285 98.6606 134.837C98.6606 134.389 99.0314 134.031 99.4918 134.031C99.9521 134.031 100.31 134.389 100.31 134.837C100.31 135.285 99.9521 135.655 99.4918 135.655ZM99.4918 140.758C99.0314 140.758 98.6606 140.4 98.6606 139.952C98.6606 139.505 99.0314 139.134 99.4918 139.134C99.9521 139.134 100.31 139.505 100.31 139.952C100.31 140.4 99.9521 140.758 99.4918 140.758ZM109.953 139.172C110.976 139.172 111.782 138.673 112.293 137.945L113.725 139.044C112.907 140.157 111.577 140.873 109.953 140.873C107.127 140.873 105.196 138.699 105.196 136.141C105.196 133.584 107.127 131.41 109.953 131.41C111.577 131.41 112.907 132.139 113.725 133.226L112.293 134.338C111.782 133.609 110.976 133.111 109.953 133.111C108.265 133.111 107.063 134.428 107.063 136.141C107.063 137.855 108.265 139.172 109.953 139.172ZM118.028 133.916C120.125 133.916 121.558 135.464 121.558 137.395C121.558 139.326 120.125 140.873 118.028 140.873C115.931 140.873 114.499 139.326 114.499 137.395C114.499 135.464 115.931 133.916 118.028 133.916ZM118.054 139.338C119.09 139.338 119.87 138.507 119.87 137.395C119.87 136.269 119.09 135.451 118.054 135.451C116.98 135.451 116.187 136.269 116.187 137.395C116.187 138.52 116.98 139.338 118.054 139.338ZM123.039 140.617V131.026H124.663V140.617H123.039ZM129.68 133.916C131.777 133.916 133.209 135.464 133.209 137.395C133.209 139.326 131.777 140.873 129.68 140.873C127.582 140.873 126.15 139.326 126.15 137.395C126.15 135.464 127.582 133.916 129.68 133.916ZM129.705 139.338C130.741 139.338 131.521 138.507 131.521 137.395C131.521 136.269 130.741 135.451 129.705 135.451C128.631 135.451 127.838 136.269 127.838 137.395C127.838 138.52 128.631 139.338 129.705 139.338ZM134.69 140.617V134.172H136.314V134.658C136.749 134.236 137.299 133.916 138.092 133.916C138.91 133.916 139.627 134.274 140.049 134.965C140.509 134.402 141.123 133.916 142.21 133.916C143.54 133.916 144.588 134.837 144.588 136.653V140.617H142.951V136.717C142.951 135.937 142.529 135.451 141.8 135.451C141.097 135.451 140.714 135.937 140.458 136.372C140.471 136.461 140.471 136.551 140.471 136.653V140.617H138.834V136.717C138.834 135.937 138.412 135.451 137.683 135.451C136.941 135.451 136.557 136.001 136.314 136.41V140.617H134.69ZM153.347 137.395C153.347 139.274 152.12 140.873 150.074 140.873C149.191 140.873 148.565 140.592 148.066 140.093V140.617H146.442V131.026H148.066V134.696C148.565 134.198 149.191 133.916 150.074 133.916C152.12 133.916 153.347 135.515 153.347 137.395ZM149.843 135.451C149.089 135.451 148.462 135.783 148.066 136.372V138.418C148.501 139.019 149.114 139.338 149.843 139.338C150.943 139.338 151.659 138.52 151.659 137.395C151.659 136.269 150.943 135.451 149.843 135.451ZM160.767 139.569C160.166 140.374 159.169 140.873 157.954 140.873C155.665 140.873 154.373 139.274 154.373 137.395C154.373 135.489 155.576 133.916 157.686 133.916C159.476 133.916 160.652 135.131 160.652 136.819C160.652 137.177 160.601 137.51 160.55 137.727H156.036C156.189 138.929 156.931 139.415 157.941 139.415C158.645 139.415 159.258 139.108 159.604 138.648L160.767 139.569ZM157.647 135.246C156.816 135.246 156.266 135.707 156.087 136.551H159.054C159.028 135.898 158.555 135.246 157.647 135.246ZM161.589 139.684L162.663 138.712C163.06 139.211 163.533 139.569 164.147 139.569C164.671 139.569 164.94 139.262 164.94 138.878C164.94 137.753 161.858 138.175 161.858 135.911C161.858 134.773 162.817 133.916 164.16 133.916C165.144 133.916 166.039 134.389 166.5 135.016L165.426 135.962C165.093 135.553 164.671 135.221 164.172 135.221C163.661 135.221 163.418 135.502 163.418 135.835C163.418 136.934 166.5 136.551 166.5 138.776C166.474 140.131 165.387 140.873 164.172 140.873C163.021 140.873 162.203 140.413 161.589 139.684ZM172.735 137.088C172.735 139.185 173.438 140.822 174.832 142.216L173.681 143.175C172.082 141.73 171.123 139.658 171.123 137.088C171.123 134.492 172.172 132.42 173.681 131.026L174.832 131.985C173.489 133.315 172.735 135.003 172.735 137.088ZM176.434 140.617V131.666H181.651V133.175H178.25V135.297H181.14V136.806H178.25V140.617H176.434ZM183.377 140.617V131.666H186.114C188.083 131.666 189.298 132.676 189.298 134.338C189.298 135.425 188.774 136.231 187.853 136.653L190.654 140.617H188.518L186.127 136.998H185.193V140.617H183.377ZM186.216 133.175H185.193V135.489H186.216C186.984 135.489 187.431 135.042 187.431 134.313C187.431 133.635 186.984 133.175 186.216 133.175ZM192.993 137.113C192.993 135.016 192.29 133.366 190.883 131.985L192.034 131.026C193.62 132.459 194.592 134.53 194.592 137.113C194.592 139.709 193.556 141.768 192.034 143.175L190.883 142.216C192.251 140.886 192.993 139.198 192.993 137.113ZM21.1334 154.666H22.4121L25.5068 162.402L28.6015 154.666H29.8803L26.2997 163.617H24.714L21.1334 154.666ZM31.9299 155.497C31.5079 155.497 31.1627 155.152 31.1627 154.73C31.1627 154.32 31.5079 153.975 31.9299 153.975C32.3519 153.975 32.6844 154.32 32.6844 154.73C32.6844 155.152 32.3519 155.497 31.9299 155.497ZM31.38 163.617V157.172H32.467V163.617H31.38ZM36.5163 163.796C35.2503 163.796 34.3935 163.093 34.3935 161.993C34.3935 161.021 35.1352 160.331 36.5035 160.101L38.6774 159.742V159.295C38.6774 158.4 38.038 157.888 37.1173 157.888C36.3756 157.888 35.7746 158.233 35.3782 158.783L34.5597 158.157C35.1224 157.389 36.0303 156.916 37.1557 156.916C38.7925 156.916 39.7644 157.875 39.7644 159.295V163.617H38.6774V162.799C38.1915 163.425 37.3475 163.796 36.5163 163.796ZM35.4932 161.955C35.4932 162.505 35.9408 162.901 36.6953 162.901C37.5521 162.901 38.2554 162.492 38.6774 161.801V160.535L36.772 160.855C35.8897 161.008 35.4932 161.405 35.4932 161.955ZM45.3918 163.617V154.026H46.4787V163.617H45.3918ZM54.505 162.556C53.904 163.361 52.9449 163.873 51.7428 163.873C49.5689 163.873 48.2262 162.274 48.2262 160.395C48.2262 158.438 49.4794 156.916 51.4743 156.916C53.2262 156.916 54.3644 158.144 54.3644 159.73C54.3644 159.985 54.326 160.228 54.2876 160.407H49.3387C49.3771 161.955 50.3618 162.888 51.7428 162.888C52.5741 162.888 53.2774 162.505 53.6994 161.929L54.505 162.556ZM51.4487 157.837C50.3873 157.837 49.6456 158.464 49.4155 159.576H53.2774C53.239 158.63 52.5868 157.837 51.4487 157.837ZM62.62 162.85C63.4129 162.85 64.0651 162.466 64.4615 161.904L65.3183 162.556C64.7172 163.361 63.7837 163.873 62.6072 163.873C60.4717 163.873 59.1034 162.274 59.1034 160.395C59.1034 158.515 60.4717 156.916 62.6072 156.916C63.7709 156.916 64.7172 157.441 65.3183 158.233L64.4615 158.886C64.0651 158.323 63.4129 157.939 62.6072 157.939C61.2262 157.939 60.2415 159.026 60.2415 160.395C60.2415 161.776 61.2262 162.85 62.62 162.85ZM69.5004 156.916C71.5721 156.916 72.9915 158.515 72.9915 160.395C72.9915 162.274 71.5721 163.873 69.5004 163.873C67.416 163.873 66.0093 162.274 66.0093 160.395C66.0093 158.515 67.416 156.916 69.5004 156.916ZM69.5132 162.85C70.8559 162.85 71.8406 161.725 71.8406 160.395C71.8406 159.052 70.8559 157.939 69.5132 157.939C68.1321 157.939 67.1474 159.052 67.1474 160.395C67.1474 161.737 68.1321 162.85 69.5132 162.85ZM74.7389 163.617V157.172H75.8259V157.875C76.3119 157.313 76.9513 156.916 77.8464 156.916C78.7799 156.916 79.5472 157.338 79.9436 158.157C80.4551 157.453 81.1329 156.916 82.2454 156.916C83.6265 156.916 84.6368 157.837 84.6368 159.589V163.617H83.5498V159.627C83.5498 158.553 82.9488 157.939 82.028 157.939C81.2096 157.939 80.6342 158.4 80.2122 159.154C80.2249 159.295 80.2377 159.436 80.2377 159.589V163.617H79.1508V159.627C79.1508 158.553 78.5625 157.939 77.629 157.939C76.7466 157.939 76.1968 158.489 75.8259 159.154V163.617H74.7389ZM86.8275 166.763V157.172H87.9145V157.939C88.4899 157.287 89.2444 156.916 90.2035 156.916C92.224 156.916 93.5156 158.515 93.5156 160.395C93.5156 162.274 92.224 163.873 90.2035 163.873C89.2444 163.873 88.4899 163.502 87.9145 162.85V166.763H86.8275ZM90.0756 157.939C89.1805 157.939 88.4004 158.374 87.9145 159.141V161.648C88.4132 162.428 89.1932 162.85 90.0756 162.85C91.4439 162.85 92.3774 161.763 92.3774 160.395C92.3774 159.026 91.4439 157.939 90.0756 157.939ZM95.5404 161.456V158.157H94.3256V157.172H95.5404V155.561H96.6402V157.172H98.8781V158.157H96.6402V161.456C96.6402 162.466 97.1517 162.748 97.9318 162.748C98.3538 162.748 98.6479 162.696 98.8909 162.594V163.566C98.5839 163.694 98.2387 163.745 97.7783 163.745C96.3461 163.745 95.5404 163.029 95.5404 161.456ZM106.144 162.556C105.543 163.361 104.583 163.873 103.381 163.873C101.207 163.873 99.8647 162.274 99.8647 160.395C99.8647 158.438 101.118 156.916 103.113 156.916C104.865 156.916 106.003 158.144 106.003 159.73C106.003 159.985 105.965 160.228 105.926 160.407H100.977C101.016 161.955 102 162.888 103.381 162.888C104.213 162.888 104.916 162.505 105.338 161.929L106.144 162.556ZM103.087 157.837C102.026 157.837 101.284 158.464 101.054 159.576H104.916C104.878 158.63 104.225 157.837 103.087 157.837ZM111.88 158.655C111.42 158.655 111.049 158.285 111.049 157.837C111.049 157.389 111.42 157.031 111.88 157.031C112.34 157.031 112.698 157.389 112.698 157.837C112.698 158.285 112.34 158.655 111.88 158.655ZM111.88 163.758C111.42 163.758 111.049 163.4 111.049 162.952C111.049 162.505 111.42 162.134 111.88 162.134C112.34 162.134 112.698 162.505 112.698 162.952C112.698 163.4 112.34 163.758 111.88 163.758ZM117.226 163.617L120.615 154.666H122.994L126.382 163.617H124.451L123.595 161.29H120.014L119.157 163.617H117.226ZM120.577 159.742H123.032L121.804 156.379L120.577 159.742ZM127.934 163.617V157.172H129.558V157.658C129.993 157.236 130.543 156.916 131.336 156.916C132.154 156.916 132.87 157.274 133.292 157.965C133.753 157.402 134.367 156.916 135.454 156.916C136.784 156.916 137.832 157.837 137.832 159.653V163.617H136.195V159.717C136.195 158.937 135.773 158.451 135.044 158.451C134.341 158.451 133.957 158.937 133.702 159.372C133.714 159.461 133.714 159.551 133.714 159.653V163.617H132.078V159.717C132.078 158.937 131.656 158.451 130.927 158.451C130.185 158.451 129.801 159.001 129.558 159.41V163.617H127.934ZM145.619 162.569C145.018 163.374 144.021 163.873 142.806 163.873C140.517 163.873 139.225 162.274 139.225 160.395C139.225 158.489 140.427 156.916 142.537 156.916C144.328 156.916 145.504 158.131 145.504 159.819C145.504 160.177 145.453 160.51 145.402 160.727H140.888C141.041 161.929 141.783 162.415 142.793 162.415C143.496 162.415 144.11 162.108 144.456 161.648L145.619 162.569ZM142.499 158.246C141.668 158.246 141.118 158.707 140.939 159.551H143.906C143.88 158.898 143.407 158.246 142.499 158.246ZM147.091 163.617V154.026H148.715V163.617H147.091ZM151.481 156.047C150.906 156.047 150.42 155.561 150.42 154.985C150.42 154.41 150.906 153.924 151.481 153.924C152.057 153.924 152.53 154.41 152.53 154.985C152.53 155.561 152.057 156.047 151.481 156.047ZM150.663 163.617V157.172H152.287V163.617H150.663ZM155.002 163.771C154.375 163.771 153.876 163.272 153.876 162.658C153.876 162.057 154.375 161.546 155.002 161.546C155.603 161.546 156.127 162.057 156.127 162.658C156.127 163.272 155.603 163.771 155.002 163.771ZM156.888 157.172H158.09V156.494C158.09 155.126 158.998 154.026 160.61 154.026C161.198 154.026 161.697 154.167 162.106 154.384L161.415 155.74C161.223 155.599 160.968 155.484 160.635 155.484C160.085 155.484 159.727 155.868 159.727 156.456V157.172H161.697V158.63H159.727V163.617H158.09V158.63H156.888V157.172ZM162.726 163.617V157.172H164.35V157.811C164.772 157.377 165.322 157.044 166.051 157.044C166.269 157.044 166.46 157.083 166.614 157.134V158.732C166.409 158.681 166.192 158.643 165.898 158.643C165.105 158.643 164.593 159.077 164.35 159.487V163.617H162.726ZM22.2075 185.617V176.666H23.7804L28.8445 184.147V176.666H30.0465V185.617H28.4736L23.4096 178.136V185.617H22.2075ZM33.1663 177.497C32.7443 177.497 32.399 177.152 32.399 176.73C32.399 176.32 32.7443 175.975 33.1663 175.975C33.5883 175.975 33.9207 176.32 33.9207 176.73C33.9207 177.152 33.5883 177.497 33.1663 177.497ZM32.6164 185.617V179.172H33.7033V185.617H32.6164ZM35.0288 179.172H36.2053L38.2641 184.479L40.323 179.172H41.4995L38.9802 185.617H37.548L35.0288 179.172ZM48.4608 184.556C47.8597 185.361 46.9006 185.873 45.6986 185.873C43.5246 185.873 42.1819 184.274 42.1819 182.395C42.1819 180.438 43.4351 178.916 45.43 178.916C47.182 178.916 48.3201 180.144 48.3201 181.73C48.3201 181.985 48.2817 182.228 48.2434 182.407H43.2945C43.3328 183.955 44.3175 184.888 45.6986 184.888C46.5298 184.888 47.2331 184.505 47.6551 183.929L48.4608 184.556ZM45.4045 179.837C44.3431 179.837 43.6014 180.464 43.3712 181.576H47.2331C47.1948 180.63 46.5426 179.837 45.4045 179.837ZM51.8642 185.796C50.5982 185.796 49.7414 185.093 49.7414 183.993C49.7414 183.021 50.4831 182.331 51.8514 182.101L54.0254 181.742V181.295C54.0254 180.4 53.386 179.888 52.4653 179.888C51.7236 179.888 51.1225 180.233 50.7261 180.783L49.9077 180.157C50.4704 179.389 51.3783 178.916 52.5036 178.916C54.1405 178.916 55.1124 179.875 55.1124 181.295V185.617H54.0254V184.799C53.5394 185.425 52.6954 185.796 51.8642 185.796ZM50.8412 183.955C50.8412 184.505 51.2888 184.901 52.0433 184.901C52.9 184.901 53.6034 184.492 54.0254 183.801V182.535L52.12 182.855C51.2376 183.008 50.8412 183.405 50.8412 183.955ZM61.7815 182.855V179.172H62.8685V182.817C62.8685 184.748 61.756 185.873 60.004 185.873C58.2649 185.873 57.1523 184.748 57.1523 182.817V179.172H58.2393V182.855C58.2393 184.121 58.917 184.85 60.0168 184.85C61.091 184.85 61.7815 184.121 61.7815 182.855ZM67.9075 182.395C67.9075 180.515 69.1991 178.916 71.2196 178.916C72.1787 178.916 72.9332 179.287 73.5086 179.939V176.026H74.5956V185.617H73.5086V184.85C72.9332 185.502 72.1787 185.873 71.2196 185.873C69.1991 185.873 67.9075 184.274 67.9075 182.395ZM69.0584 182.395C69.0584 183.763 69.9792 184.85 71.3475 184.85C72.2426 184.85 73.0355 184.415 73.5086 183.661V181.129C73.0099 180.361 72.2298 179.939 71.3475 179.939C69.9792 179.939 69.0584 181.026 69.0584 182.395ZM82.6159 184.556C82.0149 185.361 81.0558 185.873 79.8537 185.873C77.6798 185.873 76.337 184.274 76.337 182.395C76.337 180.438 77.5902 178.916 79.5852 178.916C81.3371 178.916 82.4752 180.144 82.4752 181.73C82.4752 181.985 82.4369 182.228 82.3985 182.407H77.4496C77.4879 183.955 78.4726 184.888 79.8537 184.888C80.6849 184.888 81.3882 184.505 81.8102 183.929L82.6159 184.556ZM79.5596 179.837C78.4982 179.837 77.7565 180.464 77.5263 181.576H81.3882C81.3499 180.63 80.6977 179.837 79.5596 179.837ZM87.0224 186.781C87.0224 186.129 87.3421 185.604 87.9815 185.157C87.6874 184.927 87.5339 184.581 87.5339 184.236C87.5339 183.725 87.8025 183.303 88.3012 182.983C87.7385 182.561 87.406 181.909 87.406 181.193C87.406 179.952 88.3779 178.904 89.9125 178.904C90.3856 178.904 90.8076 179.006 91.1529 179.172H93.5442V180.118H92.1503C92.3294 180.438 92.4189 180.809 92.4189 181.193C92.4189 182.42 91.4598 183.469 89.9125 183.469C89.5928 183.469 89.2859 183.418 89.0173 183.341C88.7488 183.533 88.5953 183.763 88.5953 184.006C88.5953 184.274 88.736 184.466 89.1324 184.466H90.9739C92.6747 184.466 93.4675 185.297 93.4675 186.448C93.4675 187.804 92.112 188.814 90.181 188.814C88.2756 188.814 87.0224 188.072 87.0224 186.781ZM89.9253 182.612C90.8588 182.612 91.3959 181.973 91.3959 181.193C91.3959 180.4 90.8588 179.76 89.9253 179.76C88.9662 179.76 88.4419 180.4 88.4419 181.193C88.4419 181.985 88.9662 182.612 89.9253 182.612ZM88.0838 186.653C88.0838 187.433 88.8894 187.906 90.1682 187.906C91.5237 187.906 92.3805 187.369 92.3805 186.525C92.3805 185.911 92.0353 185.425 90.8843 185.425H88.7999C88.3523 185.758 88.0838 186.141 88.0838 186.653ZM96.3096 185.796C95.0436 185.796 94.1868 185.093 94.1868 183.993C94.1868 183.021 94.9285 182.331 96.2968 182.101L98.4708 181.742V181.295C98.4708 180.4 97.8314 179.888 96.9106 179.888C96.1689 179.888 95.5679 180.233 95.1715 180.783L94.3531 180.157C94.9157 179.389 95.8237 178.916 96.949 178.916C98.5858 178.916 99.5577 179.875 99.5577 181.295V185.617H98.4708V184.799C97.9848 185.425 97.1408 185.796 96.3096 185.796ZM95.2866 183.955C95.2866 184.505 95.7341 184.901 96.4886 184.901C97.3454 184.901 98.0488 184.492 98.4708 183.801V182.535L96.5654 182.855C95.683 183.008 95.2866 183.405 95.2866 183.955ZM101.738 185.617V179.172H102.825V179.978C103.298 179.415 103.887 179.044 104.705 179.044C104.91 179.044 105.102 179.07 105.255 179.121V180.182C105.063 180.131 104.871 180.106 104.616 180.106C103.772 180.106 103.222 180.54 102.825 181.193V185.617H101.738ZM108.286 185.796C107.02 185.796 106.163 185.093 106.163 183.993C106.163 183.021 106.905 182.331 108.273 182.101L110.447 181.742V181.295C110.447 180.4 109.808 179.888 108.887 179.888C108.145 179.888 107.544 180.233 107.148 180.783L106.329 180.157C106.892 179.389 107.8 178.916 108.925 178.916C110.562 178.916 111.534 179.875 111.534 181.295V185.617H110.447V184.799C109.961 185.425 109.117 185.796 108.286 185.796ZM107.263 183.955C107.263 184.505 107.71 184.901 108.465 184.901C109.322 184.901 110.025 184.492 110.447 183.801V182.535L108.542 182.855C107.659 183.008 107.263 183.405 107.263 183.955ZM113.715 185.617V179.172H114.801V179.901C115.326 179.326 115.991 178.916 116.95 178.916C118.395 178.916 119.469 179.888 119.469 181.717V185.617H118.382V181.755C118.382 180.604 117.73 179.939 116.732 179.939C115.799 179.939 115.211 180.476 114.801 181.154V185.617H113.715ZM122.028 183.456V180.157H120.813V179.172H122.028V177.561H123.128V179.172H125.365V180.157H123.128V183.456C123.128 184.466 123.639 184.748 124.419 184.748C124.841 184.748 125.135 184.696 125.378 184.594V185.566C125.071 185.694 124.726 185.745 124.266 185.745C122.833 185.745 122.028 185.029 122.028 183.456ZM127.577 177.497C127.155 177.497 126.809 177.152 126.809 176.73C126.809 176.32 127.155 175.975 127.577 175.975C127.999 175.975 128.331 176.32 128.331 176.73C128.331 177.152 127.999 177.497 127.577 177.497ZM127.027 185.617V179.172H128.114V185.617H127.027ZM136.14 184.556C135.539 185.361 134.58 185.873 133.378 185.873C131.204 185.873 129.861 184.274 129.861 182.395C129.861 180.438 131.115 178.916 133.109 178.916C134.861 178.916 135.999 180.144 135.999 181.73C135.999 181.985 135.961 182.228 135.923 182.407H130.974C131.012 183.955 131.997 184.888 133.378 184.888C134.209 184.888 134.913 184.505 135.335 183.929L136.14 184.556ZM133.084 179.837C132.022 179.837 131.281 180.464 131.051 181.576H134.913C134.874 180.63 134.222 179.837 133.084 179.837ZM147.017 184.556C146.416 185.361 145.457 185.873 144.255 185.873C142.081 185.873 140.738 184.274 140.738 182.395C140.738 180.438 141.992 178.916 143.987 178.916C145.739 178.916 146.877 180.144 146.877 181.73C146.877 181.985 146.838 182.228 146.8 182.407H141.851C141.889 183.955 142.874 184.888 144.255 184.888C145.086 184.888 145.79 184.505 146.212 183.929L147.017 184.556ZM143.961 179.837C142.9 179.837 142.158 180.464 141.928 181.576H145.79C145.751 180.63 145.099 179.837 143.961 179.837ZM148.987 185.617V176.666H150.189V185.617H148.987ZM153.034 185.617V176.666H156.473C159.274 176.666 161.179 178.725 161.179 181.141C161.179 183.558 159.274 185.617 156.473 185.617H153.034ZM156.499 177.765H154.236V184.517H156.499C158.494 184.517 159.939 183.008 159.939 181.141C159.939 179.262 158.494 177.765 156.499 177.765ZM161.962 185.617L165.53 176.666H167.141L170.709 185.617H169.43L168.395 182.983H164.277L163.241 185.617H161.962ZM164.673 181.947H167.998L166.336 177.714L164.673 181.947ZM171.725 184.39L172.62 183.571C173.234 184.364 173.95 184.786 174.781 184.786C175.779 184.786 176.354 184.185 176.354 183.367C176.354 181.346 172.109 181.781 172.109 178.827C172.109 177.497 173.208 176.41 174.768 176.41C176.022 176.41 176.942 176.985 177.607 177.868L176.699 178.661C176.175 177.906 175.548 177.484 174.781 177.484C173.899 177.484 173.336 178.034 173.336 178.801C173.336 180.809 177.569 180.349 177.569 183.328C177.569 184.875 176.38 185.86 174.794 185.86C173.477 185.86 172.505 185.361 171.725 184.39ZM183.687 180.655C183.227 180.655 182.856 180.285 182.856 179.837C182.856 179.389 183.227 179.031 183.687 179.031C184.147 179.031 184.505 179.389 184.505 179.837C184.505 180.285 184.147 180.655 183.687 180.655ZM183.687 185.758C183.227 185.758 182.856 185.4 182.856 184.952C182.856 184.505 183.227 184.134 183.687 184.134C184.147 184.134 184.505 184.505 184.505 184.952C184.505 185.4 184.147 185.758 183.687 185.758ZM190.158 185.617V176.666H195.376V178.175H191.974V180.297H194.864V181.806H191.974V185.617H190.158ZM198.285 185.809C196.994 185.809 196.111 185.067 196.111 183.878C196.111 182.906 196.866 182.177 198.247 181.947L200.216 181.615V181.448C200.216 180.771 199.705 180.336 198.963 180.336C198.336 180.336 197.85 180.63 197.505 181.103L196.316 180.195C196.891 179.402 197.838 178.916 199.014 178.916C200.881 178.916 201.84 180.029 201.84 181.448V185.617H200.216V184.991C199.807 185.489 199.04 185.809 198.285 185.809ZM197.723 183.801C197.723 184.236 198.068 184.517 198.618 184.517C199.359 184.517 199.897 184.172 200.216 183.661V182.753L198.682 183.008C198.004 183.124 197.723 183.405 197.723 183.801ZM204.518 178.047C203.943 178.047 203.457 177.561 203.457 176.985C203.457 176.41 203.943 175.924 204.518 175.924C205.094 175.924 205.567 176.41 205.567 176.985C205.567 177.561 205.094 178.047 204.518 178.047ZM203.7 185.617V179.172H205.324V185.617H203.7ZM214.177 182.395C214.177 184.274 212.949 185.873 210.903 185.873C210.021 185.873 209.394 185.592 208.896 185.093V185.617H207.272V176.026H208.896V179.696C209.394 179.198 210.021 178.916 210.903 178.916C212.949 178.916 214.177 180.515 214.177 182.395ZM210.673 180.451C209.919 180.451 209.292 180.783 208.896 181.372V183.418C209.33 184.019 209.944 184.338 210.673 184.338C211.773 184.338 212.489 183.52 212.489 182.395C212.489 181.269 211.773 180.451 210.673 180.451ZM215.664 185.617V176.026H217.288V185.617H215.664ZM225.169 184.569C224.568 185.374 223.57 185.873 222.356 185.873C220.067 185.873 218.775 184.274 218.775 182.395C218.775 180.489 219.977 178.916 222.087 178.916C223.877 178.916 225.054 180.131 225.054 181.819C225.054 182.177 225.003 182.51 224.951 182.727H220.437C220.591 183.929 221.333 184.415 222.343 184.415C223.046 184.415 223.66 184.108 224.005 183.648L225.169 184.569ZM222.049 180.246C221.217 180.246 220.668 180.707 220.489 181.551H223.455C223.43 180.898 222.957 180.246 222.049 180.246ZM26.1462 206.748C27.3483 206.748 28.3329 206.159 28.934 205.29L29.8931 206.031C29.0746 207.144 27.7575 207.873 26.1462 207.873C23.3457 207.873 21.4403 205.699 21.4403 203.141C21.4403 200.584 23.3457 198.41 26.1462 198.41C27.7575 198.41 29.0746 199.152 29.8931 200.251L28.934 200.993C28.3329 200.123 27.3483 199.535 26.1462 199.535C24.1257 199.535 22.6807 201.147 22.6807 203.141C22.6807 205.136 24.1257 206.748 26.1462 206.748ZM34.4337 200.916C36.5053 200.916 37.9247 202.515 37.9247 204.395C37.9247 206.274 36.5053 207.873 34.4337 207.873C32.3492 207.873 30.9426 206.274 30.9426 204.395C30.9426 202.515 32.3492 200.916 34.4337 200.916ZM34.4464 206.85C35.7892 206.85 36.7738 205.725 36.7738 204.395C36.7738 203.052 35.7892 201.939 34.4464 201.939C33.0653 201.939 32.0807 203.052 32.0807 204.395C32.0807 205.737 33.0653 206.85 34.4464 206.85ZM39.1847 204.395C39.1847 202.515 40.4763 200.916 42.4968 200.916C43.4559 200.916 44.2104 201.287 44.7858 201.939V198.026H45.8728V207.617H44.7858V206.85C44.2104 207.502 43.4559 207.873 42.4968 207.873C40.4763 207.873 39.1847 206.274 39.1847 204.395ZM40.3357 204.395C40.3357 205.763 41.2564 206.85 42.6247 206.85C43.5198 206.85 44.3127 206.415 44.7858 205.661V203.129C44.2871 202.361 43.5071 201.939 42.6247 201.939C41.2564 201.939 40.3357 203.026 40.3357 204.395ZM53.8931 206.556C53.2921 207.361 52.333 207.873 51.1309 207.873C48.957 207.873 47.6143 206.274 47.6143 204.395C47.6143 202.438 48.8675 200.916 50.8624 200.916C52.6143 200.916 53.7524 202.144 53.7524 203.73C53.7524 203.985 53.7141 204.228 53.6757 204.407H48.7268C48.7652 205.955 49.7498 206.888 51.1309 206.888C51.9621 206.888 52.6655 206.505 53.0875 205.929L53.8931 206.556ZM50.8368 201.837C49.7754 201.837 49.0337 202.464 48.8035 203.576H52.6655C52.6271 202.63 51.9749 201.837 50.8368 201.837ZM58.4914 204.395C58.4914 202.515 59.783 200.916 61.8035 200.916C62.7626 200.916 63.5171 201.287 64.0925 201.939V198.026H65.1795V207.617H64.0925V206.85C63.5171 207.502 62.7626 207.873 61.8035 207.873C59.783 207.873 58.4914 206.274 58.4914 204.395ZM59.6424 204.395C59.6424 205.763 60.5631 206.85 61.9314 206.85C62.8265 206.85 63.6194 206.415 64.0925 205.661V203.129C63.5938 202.361 62.8138 201.939 61.9314 201.939C60.5631 201.939 59.6424 203.026 59.6424 204.395ZM67.9428 202.093H66.9325L68.0195 198.666H69.2599L67.9428 202.093ZM71.5674 199.497C71.1454 199.497 70.8001 199.152 70.8001 198.73C70.8001 198.32 71.1454 197.975 71.5674 197.975C71.9894 197.975 72.3218 198.32 72.3218 198.73C72.3218 199.152 71.9894 199.497 71.5674 199.497ZM71.0175 207.617V201.172H72.1044V207.617H71.0175ZM73.8519 204.395C73.8519 202.515 75.1435 200.916 77.1639 200.916C78.123 200.916 78.8775 201.287 79.453 201.939V198.026H80.54V207.617H79.453V206.85C78.8775 207.502 78.123 207.873 77.1639 207.873C75.1435 207.873 73.8519 206.274 73.8519 204.395ZM75.0028 204.395C75.0028 205.763 75.9235 206.85 77.2918 206.85C78.187 206.85 78.9798 206.415 79.453 205.661V203.129C78.9543 202.361 78.1742 201.939 77.2918 201.939C75.9235 201.939 75.0028 203.026 75.0028 204.395ZM88.5602 206.556C87.9592 207.361 87.0001 207.873 85.7981 207.873C83.6241 207.873 82.2814 206.274 82.2814 204.395C82.2814 202.438 83.5346 200.916 85.5295 200.916C87.2815 200.916 88.4196 202.144 88.4196 203.73C88.4196 203.985 88.3812 204.228 88.3429 204.407H83.3939C83.4323 205.955 84.417 206.888 85.7981 206.888C86.6293 206.888 87.3326 206.505 87.7546 205.929L88.5602 206.556ZM85.5039 201.837C84.4426 201.837 83.7009 202.464 83.4707 203.576H87.3326C87.2942 202.63 86.6421 201.837 85.5039 201.837ZM90.2617 207.617V201.172H91.3487V201.901C91.873 201.326 92.538 200.916 93.4971 200.916C94.9421 200.916 96.0163 201.888 96.0163 203.717V207.617H94.9293V203.755C94.9293 202.604 94.2771 201.939 93.2797 201.939C92.3462 201.939 91.7579 202.476 91.3487 203.154V207.617H90.2617ZM98.5751 205.456V202.157H97.3602V201.172H98.5751V199.561H99.6748V201.172H101.913V202.157H99.6748V205.456C99.6748 206.466 100.186 206.748 100.966 206.748C101.388 206.748 101.683 206.696 101.925 206.594V207.566C101.619 207.694 101.273 207.745 100.813 207.745C99.3807 207.745 98.5751 207.029 98.5751 205.456ZM104.124 199.497C103.702 199.497 103.357 199.152 103.357 198.73C103.357 198.32 103.702 197.975 104.124 197.975C104.546 197.975 104.878 198.32 104.878 198.73C104.878 199.152 104.546 199.497 104.124 199.497ZM103.574 207.617V201.172H104.661V207.617H103.574ZM106.114 201.172H107.329V200.379C107.329 199.011 108.212 198.026 109.618 198.026C110.207 198.026 110.68 198.193 111.038 198.397L110.552 199.305C110.309 199.126 110.015 199.011 109.644 199.011C108.915 199.011 108.429 199.51 108.429 200.354V201.172H110.667V202.157H108.429V207.617H107.329V202.157H106.114V201.172ZM112.541 199.497C112.119 199.497 111.774 199.152 111.774 198.73C111.774 198.32 112.119 197.975 112.541 197.975C112.963 197.975 113.296 198.32 113.296 198.73C113.296 199.152 112.963 199.497 112.541 199.497ZM111.991 207.617V201.172H113.078V207.617H111.991ZM118.342 206.85C119.135 206.85 119.787 206.466 120.184 205.904L121.04 206.556C120.439 207.361 119.506 207.873 118.329 207.873C116.194 207.873 114.826 206.274 114.826 204.395C114.826 202.515 116.194 200.916 118.329 200.916C119.493 200.916 120.439 201.441 121.04 202.233L120.184 202.886C119.787 202.323 119.135 201.939 118.329 201.939C116.948 201.939 115.964 203.026 115.964 204.395C115.964 205.776 116.948 206.85 118.342 206.85ZM124.196 207.796C122.93 207.796 122.073 207.093 122.073 205.993C122.073 205.021 122.815 204.331 124.183 204.101L126.357 203.742V203.295C126.357 202.4 125.717 201.888 124.797 201.888C124.055 201.888 123.454 202.233 123.058 202.783L122.239 202.157C122.802 201.389 123.71 200.916 124.835 200.916C126.472 200.916 127.444 201.875 127.444 203.295V207.617H126.357V206.799C125.871 207.425 125.027 207.796 124.196 207.796ZM123.173 205.955C123.173 206.505 123.62 206.901 124.375 206.901C125.231 206.901 125.935 206.492 126.357 205.801V204.535L124.451 204.855C123.569 205.008 123.173 205.405 123.173 205.955ZM129.995 205.456V202.157H128.78V201.172H129.995V199.561H131.095V201.172H133.333V202.157H131.095V205.456C131.095 206.466 131.607 206.748 132.387 206.748C132.809 206.748 133.103 206.696 133.346 206.594V207.566C133.039 207.694 132.694 207.745 132.233 207.745C130.801 207.745 129.995 207.029 129.995 205.456ZM135.544 199.497C135.122 199.497 134.777 199.152 134.777 198.73C134.777 198.32 135.122 197.975 135.544 197.975C135.966 197.975 136.299 198.32 136.299 198.73C136.299 199.152 135.966 199.497 135.544 199.497ZM134.994 207.617V201.172H136.081V207.617H134.994ZM141.32 200.916C143.391 200.916 144.811 202.515 144.811 204.395C144.811 206.274 143.391 207.873 141.32 207.873C139.235 207.873 137.829 206.274 137.829 204.395C137.829 202.515 139.235 200.916 141.32 200.916ZM141.333 206.85C142.675 206.85 143.66 205.725 143.66 204.395C143.66 203.052 142.675 201.939 141.333 201.939C139.952 201.939 138.967 203.052 138.967 204.395C138.967 205.737 139.952 206.85 141.333 206.85ZM146.558 207.617V201.172H147.645V201.901C148.17 201.326 148.835 200.916 149.794 200.916C151.239 200.916 152.313 201.888 152.313 203.717V207.617H151.226V203.755C151.226 202.604 150.574 201.939 149.576 201.939C148.643 201.939 148.055 202.476 147.645 203.154V207.617H146.558ZM158.536 202.655C158.075 202.655 157.705 202.285 157.705 201.837C157.705 201.389 158.075 201.031 158.536 201.031C158.996 201.031 159.354 201.389 159.354 201.837C159.354 202.285 158.996 202.655 158.536 202.655ZM158.536 207.758C158.075 207.758 157.705 207.4 157.705 206.952C157.705 206.505 158.075 206.134 158.536 206.134C158.996 206.134 159.354 206.505 159.354 206.952C159.354 207.4 158.996 207.758 158.536 207.758ZM163.869 201.172H165.071V200.494C165.071 199.126 165.979 198.026 167.59 198.026C168.179 198.026 168.677 198.167 169.087 198.384L168.396 199.74C168.204 199.599 167.949 199.484 167.616 199.484C167.066 199.484 166.708 199.868 166.708 200.456V201.172H168.677V202.63H166.708V207.617H165.071V202.63H163.869V201.172ZM172.722 198.41C175.075 198.41 176.174 200.456 176.174 203.141C176.174 205.827 175.075 207.873 172.722 207.873C170.369 207.873 169.269 205.827 169.269 203.141C169.269 200.456 170.369 198.41 172.722 198.41ZM172.722 200.008C171.583 200.008 171.034 201.262 171.034 203.141C171.034 205.034 171.583 206.274 172.722 206.274C173.847 206.274 174.397 205.021 174.397 203.141C174.397 201.249 173.847 200.008 172.722 200.008ZM180.489 198.41C182.497 198.41 183.52 199.561 183.52 200.827C183.52 201.645 183.124 202.349 182.343 202.771C183.366 203.193 183.916 204.024 183.916 205.111C183.916 206.671 182.714 207.873 180.489 207.873C178.277 207.873 177.062 206.671 177.062 205.111C177.062 204.024 177.612 203.193 178.648 202.771C177.855 202.349 177.458 201.645 177.458 200.827C177.458 199.561 178.494 198.41 180.489 198.41ZM180.515 202.118C181.256 202.118 181.742 201.684 181.742 201.019C181.742 200.341 181.256 199.893 180.515 199.893C179.709 199.893 179.236 200.341 179.236 201.019C179.236 201.684 179.722 202.118 180.515 202.118ZM180.502 206.377C181.512 206.377 182.139 205.84 182.139 205.021C182.139 204.177 181.512 203.602 180.502 203.602C179.479 203.602 178.84 204.177 178.84 205.021C178.84 205.852 179.479 206.377 180.502 206.377ZM188.467 198.41C189.964 198.41 190.897 199.088 191.485 199.868L190.155 200.967C189.695 200.354 189.171 199.97 188.467 199.97C187.176 199.97 186.485 200.904 186.37 202.655C186.946 202.157 187.675 201.875 188.557 201.875C190.334 201.875 191.46 203.141 191.46 204.778C191.46 206.466 190.245 207.873 188.199 207.873C185.872 207.873 184.58 206.172 184.58 203.18C184.58 200.392 185.731 198.41 188.467 198.41ZM188.237 203.41C187.508 203.41 186.882 203.691 186.421 204.292C186.626 205.75 187.253 206.313 188.161 206.313C189.107 206.313 189.682 205.686 189.682 204.842C189.682 204.011 189.094 203.41 188.237 203.41ZM192.964 203.653L193.233 198.666H198.565V200.226H194.883L194.78 202.093H195.471C197.849 202.093 198.898 203.18 198.898 204.919C198.898 206.748 197.466 207.873 195.624 207.873C193.962 207.873 192.862 207.144 192.12 205.852L193.629 204.919C194.141 205.904 194.755 206.338 195.624 206.338C196.507 206.338 197.133 205.814 197.133 204.983C197.133 204.139 196.507 203.653 195.394 203.653H192.964ZM206.44 205.06C206.44 206.76 205.046 207.873 203.179 207.873C201.491 207.873 200.404 207.131 199.675 205.852L201.184 204.919C201.683 205.904 202.284 206.338 203.166 206.338C204.036 206.338 204.688 205.814 204.688 204.983C204.688 204.164 204.049 203.653 203.102 203.653H201.632V202.118H202.987C203.742 202.118 204.292 201.696 204.292 201.006C204.292 200.328 203.78 199.944 203.077 199.944C202.361 199.944 201.875 200.328 201.504 200.967L200.097 200.098C200.749 199.037 201.76 198.41 203.205 198.41C204.841 198.41 206.056 199.343 206.056 200.814C206.056 201.645 205.698 202.349 205.033 202.809C205.941 203.269 206.44 204.075 206.44 205.06ZM214.083 205.06C214.083 206.76 212.689 207.873 210.822 207.873C209.134 207.873 208.047 207.131 207.318 205.852L208.827 204.919C209.326 205.904 209.927 206.338 210.809 206.338C211.679 206.338 212.331 205.814 212.331 204.983C212.331 204.164 211.691 203.653 210.745 203.653H209.274V202.118H210.63C211.384 202.118 211.934 201.696 211.934 201.006C211.934 200.328 211.423 199.944 210.719 199.944C210.003 199.944 209.517 200.328 209.147 200.967L207.74 200.098C208.392 199.037 209.402 198.41 210.847 198.41C212.484 198.41 213.699 199.343 213.699 200.814C213.699 201.645 213.341 202.349 212.676 202.809C213.584 203.269 214.083 204.075 214.083 205.06ZM218.976 198.41C220.472 198.41 221.406 199.088 221.994 199.868L220.664 200.967C220.204 200.354 219.679 199.97 218.976 199.97C217.684 199.97 216.994 200.904 216.879 202.655C217.454 202.157 218.183 201.875 219.066 201.875C220.843 201.875 221.968 203.141 221.968 204.778C221.968 206.466 220.754 207.873 218.707 207.873C216.38 207.873 215.089 206.172 215.089 203.18C215.089 200.392 216.239 198.41 218.976 198.41ZM218.746 203.41C218.017 203.41 217.39 203.691 216.93 204.292C217.135 205.75 217.761 206.313 218.669 206.313C219.615 206.313 220.191 205.686 220.191 204.842C220.191 204.011 219.603 203.41 218.746 203.41ZM222.927 203.563H226.38V205.136H222.927V203.563ZM229.805 207.873C228.322 207.873 227.376 207.195 226.8 206.415L228.13 205.315C228.591 205.929 229.115 206.313 229.831 206.313C231.123 206.313 231.8 205.379 231.915 203.615C231.34 204.126 230.611 204.407 229.729 204.407C227.951 204.407 226.826 203.141 226.826 201.505C226.826 199.817 228.041 198.41 230.087 198.41C232.414 198.41 233.706 200.111 233.706 203.103C233.706 205.891 232.555 207.873 229.805 207.873ZM228.603 201.441C228.603 202.272 229.192 202.873 230.048 202.873C230.777 202.873 231.43 202.579 231.864 201.991C231.66 200.533 231.033 199.97 230.112 199.97C229.192 199.97 228.603 200.597 228.603 201.441ZM241.054 206.569C240.453 207.374 239.455 207.873 238.24 207.873C235.951 207.873 234.66 206.274 234.66 204.395C234.66 202.489 235.862 200.916 237.972 200.916C239.762 200.916 240.939 202.131 240.939 203.819C240.939 204.177 240.888 204.51 240.836 204.727H236.322C236.476 205.929 237.217 206.415 238.228 206.415C238.931 206.415 239.545 206.108 239.89 205.648L241.054 206.569ZM237.934 202.246C237.102 202.246 236.552 202.707 236.373 203.551H239.34C239.315 202.898 238.841 202.246 237.934 202.246ZM241.733 201.172H242.935V200.494C242.935 199.126 243.843 198.026 245.454 198.026C246.042 198.026 246.541 198.167 246.95 198.384L246.26 199.74C246.068 199.599 245.812 199.484 245.48 199.484C244.93 199.484 244.572 199.868 244.572 200.456V201.172H246.541V202.63H244.572V207.617H242.935V202.63H241.733V201.172ZM249.626 207.617H247.631L252.133 200.226H247.516V198.666H253.961V200.226L249.626 207.617ZM253.586 203.563H257.039V205.136H253.586V203.563ZM257.999 205.239V203.679L261.835 198.666H263.856V203.679H264.764V205.239H263.856V207.617H262.13V205.239H257.999ZM259.777 203.679H262.13V200.622L259.777 203.679ZM266.048 207.617V206.057L269.117 203.039C269.808 202.336 270.242 201.85 270.242 201.121C270.242 200.379 269.731 199.944 269.028 199.944C268.171 199.944 267.647 200.469 267.173 201.262L265.767 200.405C266.521 199.177 267.634 198.41 269.194 198.41C270.754 198.41 272.007 199.407 272.007 200.942C272.007 202.17 271.202 203.116 270.319 203.973L268.158 206.057H272.237V207.617H266.048ZM275.762 207.809C274.47 207.809 273.588 207.067 273.588 205.878C273.588 204.906 274.342 204.177 275.723 203.947L277.693 203.615V203.448C277.693 202.771 277.181 202.336 276.44 202.336C275.813 202.336 275.327 202.63 274.982 203.103L273.792 202.195C274.368 201.402 275.314 200.916 276.491 200.916C278.358 200.916 279.317 202.029 279.317 203.448V207.617H277.693V206.991C277.284 207.489 276.516 207.809 275.762 207.809ZM275.199 205.801C275.199 206.236 275.544 206.517 276.094 206.517C276.836 206.517 277.373 206.172 277.693 205.661V204.753L276.158 205.008C275.48 205.124 275.199 205.405 275.199 205.801ZM283.53 207.873C282.046 207.873 281.1 207.195 280.524 206.415L281.854 205.315C282.315 205.929 282.839 206.313 283.555 206.313C284.847 206.313 285.524 205.379 285.64 203.615C285.064 204.126 284.335 204.407 283.453 204.407C281.675 204.407 280.55 203.141 280.55 201.505C280.55 199.817 281.765 198.41 283.811 198.41C286.138 198.41 287.43 200.111 287.43 203.103C287.43 205.891 286.279 207.873 283.53 207.873ZM282.327 201.441C282.327 202.272 282.916 202.873 283.773 202.873C284.501 202.873 285.154 202.579 285.588 201.991C285.384 200.533 284.757 199.97 283.836 199.97C282.916 199.97 282.327 200.597 282.327 201.441ZM288.378 203.563H291.831V205.136H288.378V203.563ZM294.844 207.809C293.552 207.809 292.67 207.067 292.67 205.878C292.67 204.906 293.424 204.177 294.805 203.947L296.775 203.615V203.448C296.775 202.771 296.263 202.336 295.521 202.336C294.895 202.336 294.409 202.63 294.064 203.103L292.874 202.195C293.45 201.402 294.396 200.916 295.573 200.916C297.44 200.916 298.399 202.029 298.399 203.448V207.617H296.775V206.991C296.365 207.489 295.598 207.809 294.844 207.809ZM294.281 205.801C294.281 206.236 294.626 206.517 295.176 206.517C295.918 206.517 296.455 206.172 296.775 205.661V204.753L295.24 205.008C294.562 205.124 294.281 205.405 294.281 205.801ZM300.028 207.617V206.057L303.097 203.039C303.788 202.336 304.223 201.85 304.223 201.121C304.223 200.379 303.711 199.944 303.008 199.944C302.151 199.944 301.627 200.469 301.154 201.262L299.747 200.405C300.501 199.177 301.614 198.41 303.174 198.41C304.734 198.41 305.987 199.407 305.987 200.942C305.987 202.17 305.182 203.116 304.299 203.973L302.138 206.057H306.218V207.617H300.028ZM311.021 206.338C311.66 206.338 312.172 206.044 312.479 205.597L313.745 206.569C313.144 207.361 312.197 207.873 311.021 207.873C308.796 207.873 307.466 206.274 307.466 204.395C307.466 202.515 308.796 200.916 311.021 200.916C312.197 200.916 313.144 201.428 313.745 202.221L312.479 203.193C312.172 202.745 311.66 202.451 310.995 202.451C309.934 202.451 309.154 203.269 309.154 204.395C309.154 205.533 309.934 206.338 311.021 206.338ZM317.31 207.873C315.827 207.873 314.88 207.195 314.305 206.415L315.635 205.315C316.095 205.929 316.619 206.313 317.336 206.313C318.627 206.313 319.305 205.379 319.42 203.615C318.845 204.126 318.116 204.407 317.233 204.407C315.456 204.407 314.33 203.141 314.33 201.505C314.33 199.817 315.545 198.41 317.591 198.41C319.919 198.41 321.21 200.111 321.21 203.103C321.21 205.891 320.059 207.873 317.31 207.873ZM316.108 201.441C316.108 202.272 316.696 202.873 317.553 202.873C318.282 202.873 318.934 202.579 319.369 201.991C319.164 200.533 318.538 199.97 317.617 199.97C316.696 199.97 316.108 200.597 316.108 201.441ZM322.158 203.563H325.611V205.136H322.158V203.563ZM328.624 207.809C327.333 207.809 326.45 207.067 326.45 205.878C326.45 204.906 327.205 204.177 328.586 203.947L330.555 203.615V203.448C330.555 202.771 330.044 202.336 329.302 202.336C328.675 202.336 328.189 202.63 327.844 203.103L326.655 202.195C327.23 201.402 328.177 200.916 329.353 200.916C331.22 200.916 332.179 202.029 332.179 203.448V207.617H330.555V206.991C330.146 207.489 329.379 207.809 328.624 207.809ZM328.062 205.801C328.062 206.236 328.407 206.517 328.957 206.517C329.698 206.517 330.235 206.172 330.555 205.661V204.753L329.021 205.008C328.343 205.124 328.062 205.405 328.062 205.801ZM335.855 207.809C334.563 207.809 333.681 207.067 333.681 205.878C333.681 204.906 334.435 204.177 335.816 203.947L337.786 203.615V203.448C337.786 202.771 337.274 202.336 336.533 202.336C335.906 202.336 335.42 202.63 335.075 203.103L333.886 202.195C334.461 201.402 335.407 200.916 336.584 200.916C338.451 200.916 339.41 202.029 339.41 203.448V207.617H337.786V206.991C337.377 207.489 336.609 207.809 335.855 207.809ZM335.292 205.801C335.292 206.236 335.637 206.517 336.187 206.517C336.929 206.517 337.466 206.172 337.786 205.661V204.753L336.251 205.008C335.574 205.124 335.292 205.405 335.292 205.801ZM341.449 203.653L341.717 198.666H347.05V200.226H343.367L343.265 202.093H343.955C346.334 202.093 347.382 203.18 347.382 204.919C347.382 206.748 345.95 207.873 344.109 207.873C342.446 207.873 341.346 207.144 340.605 205.852L342.114 204.919C342.625 205.904 343.239 206.338 344.109 206.338C344.991 206.338 345.617 205.814 345.617 204.983C345.617 204.139 344.991 203.653 343.878 203.653H341.449ZM354.924 205.06C354.924 206.76 353.53 207.873 351.663 207.873C349.975 207.873 348.888 207.131 348.159 205.852L349.668 204.919C350.167 205.904 350.768 206.338 351.65 206.338C352.52 206.338 353.172 205.814 353.172 204.983C353.172 204.164 352.533 203.653 351.587 203.653H350.116V202.118H351.471C352.226 202.118 352.776 201.696 352.776 201.006C352.776 200.328 352.264 199.944 351.561 199.944C350.845 199.944 350.359 200.328 349.988 200.967L348.581 200.098C349.234 199.037 350.244 198.41 351.689 198.41C353.326 198.41 354.541 199.343 354.541 200.814C354.541 201.645 354.182 202.349 353.518 202.809C354.425 203.269 354.924 204.075 354.924 205.06ZM359.818 198.41C361.314 198.41 362.247 199.088 362.835 199.868L361.506 200.967C361.045 200.354 360.521 199.97 359.818 199.97C358.526 199.97 357.835 200.904 357.72 202.655C358.296 202.157 359.025 201.875 359.907 201.875C361.685 201.875 362.81 203.141 362.81 204.778C362.81 206.466 361.595 207.873 359.549 207.873C357.222 207.873 355.93 206.172 355.93 203.18C355.93 200.392 357.081 198.41 359.818 198.41ZM359.587 203.41C358.858 203.41 358.232 203.691 357.771 204.292C357.976 205.75 358.603 206.313 359.511 206.313C360.457 206.313 361.032 205.686 361.032 204.842C361.032 204.011 360.444 203.41 359.587 203.41ZM363.711 205.239V203.679L367.548 198.666H369.568V203.679H370.476V205.239H369.568V207.617H367.842V205.239H363.711ZM365.489 203.679H367.842V200.622L365.489 203.679ZM377.824 206.569C377.223 207.374 376.226 207.873 375.011 207.873C372.722 207.873 371.43 206.274 371.43 204.395C371.43 202.489 372.632 200.916 374.742 200.916C376.533 200.916 377.709 202.131 377.709 203.819C377.709 204.177 377.658 204.51 377.607 204.727H373.093C373.246 205.929 373.988 206.415 374.998 206.415C375.701 206.415 376.315 206.108 376.66 205.648L377.824 206.569ZM374.704 202.246C373.873 202.246 373.323 202.707 373.144 203.551H376.111C376.085 202.898 375.612 202.246 374.704 202.246ZM381.025 207.809C379.733 207.809 378.851 207.067 378.851 205.878C378.851 204.906 379.605 204.177 380.986 203.947L382.956 203.615V203.448C382.956 202.771 382.444 202.336 381.702 202.336C381.076 202.336 380.59 202.63 380.244 203.103L379.055 202.195C379.631 201.402 380.577 200.916 381.753 200.916C383.62 200.916 384.58 202.029 384.58 203.448V207.617H382.956V206.991C382.546 207.489 381.779 207.809 381.025 207.809ZM380.462 205.801C380.462 206.236 380.807 206.517 381.357 206.517C382.099 206.517 382.636 206.172 382.956 205.661V204.753L381.421 205.008C380.743 205.124 380.462 205.405 380.462 205.801ZM388.255 207.809C386.964 207.809 386.081 207.067 386.081 205.878C386.081 204.906 386.836 204.177 388.217 203.947L390.186 203.615V203.448C390.186 202.771 389.675 202.336 388.933 202.336C388.306 202.336 387.82 202.63 387.475 203.103L386.286 202.195C386.861 201.402 387.808 200.916 388.984 200.916C390.851 200.916 391.81 202.029 391.81 203.448V207.617H390.186V206.991C389.777 207.489 389.01 207.809 388.255 207.809ZM387.693 205.801C387.693 206.236 388.038 206.517 388.588 206.517C389.329 206.517 389.866 206.172 390.186 205.661V204.753L388.652 205.008C387.974 205.124 387.693 205.405 387.693 205.801ZM393.158 205.239V203.679L396.995 198.666H399.015V203.679H399.923V205.239H399.015V207.617H397.289V205.239H393.158ZM394.936 203.679H397.289V200.622L394.936 203.679ZM400.877 204.395C400.877 202.515 402.118 200.916 404.151 200.916C405.021 200.916 405.647 201.185 406.146 201.684V198.026H407.783V207.617H406.146V207.106C405.647 207.604 405.021 207.873 404.151 207.873C402.118 207.873 400.877 206.274 400.877 204.395ZM402.578 204.395C402.578 205.52 403.281 206.338 404.381 206.338C405.11 206.338 405.711 206.031 406.146 205.443V203.346C405.711 202.758 405.11 202.451 404.381 202.451C403.281 202.451 402.578 203.269 402.578 204.395ZM409.269 204.395C409.269 202.515 410.51 200.916 412.543 200.916C413.413 200.916 414.039 201.185 414.538 201.684V198.026H416.175V207.617H414.538V207.106C414.039 207.604 413.413 207.873 412.543 207.873C410.51 207.873 409.269 206.274 409.269 204.395ZM410.97 204.395C410.97 205.52 411.673 206.338 412.773 206.338C413.502 206.338 414.103 206.031 414.538 205.443V203.346C414.103 202.758 413.502 202.451 412.773 202.451C411.673 202.451 410.97 203.269 410.97 204.395Z" fill="#161616"/>
<path fill-rule="evenodd" clip-rule="evenodd" d="M602.902 39.9385H621.551V42.3837H602.902V39.9385Z" fill="#000091"/>
<rect width="130.576" height="25.5758" transform="translate(20.7881 0.913086)" fill="#0063CB"/>
<path d="M35.0133 17.7012V9.8686H39.5786V11.1889H36.6022V13.0464H39.131V14.3667H36.6022V17.7012H35.0133ZM41.0888 17.7012V9.8686H43.4834C45.2065 9.8686 46.2695 10.7526 46.2695 12.2072C46.2695 13.1583 45.8107 13.8632 45.0051 14.2325L47.4556 17.7012H45.587L43.4945 14.5346H42.6777V17.7012H41.0888ZM43.5729 11.1889H42.6777V13.2142H43.5729C44.2442 13.2142 44.6359 12.8226 44.6359 12.1848C44.6359 11.5918 44.2442 11.1889 43.5729 11.1889ZM47.928 17.7012L50.8932 9.8686H52.9744L55.9396 17.7012H54.25L53.5003 15.6647H50.3673L49.6176 17.7012H47.928ZM50.8596 14.3108H53.008L51.9338 11.368L50.8596 14.3108ZM57.261 17.7012V9.8686H59.2975L62.7997 15.5304V9.8686H64.3886V17.7012H62.3522L58.8499 12.0393V17.7012H57.261ZM70.1822 16.4368C71.0774 16.4368 71.7823 16.0004 72.2299 15.3626L73.4831 16.3249C72.767 17.2984 71.6033 17.925 70.1822 17.925C67.7094 17.925 66.0198 16.0228 66.0198 13.7849C66.0198 11.547 67.7094 9.64481 70.1822 9.64481C71.6033 9.64481 72.767 10.2826 73.4831 11.2337L72.2299 12.2072C71.7823 11.5694 71.0774 11.133 70.1822 11.133C68.7052 11.133 67.6534 12.2855 67.6534 13.7849C67.6534 15.2843 68.7052 16.4368 70.1822 16.4368ZM74.9739 17.7012V9.8686H79.5392V11.1889H76.5628V13.0464H79.0916V14.3667H76.5628V16.3808H79.5392V17.7012H74.9739ZM84.8137 16.4368C85.7088 16.4368 86.4137 16.0004 86.8613 15.3626L88.1145 16.3249C87.3984 17.2984 86.2347 17.925 84.8137 17.925C82.3408 17.925 80.6512 16.0228 80.6512 13.7849C80.6512 11.547 82.3408 9.64481 84.8137 9.64481C86.2347 9.64481 87.3984 10.2826 88.1145 11.2337L86.8613 12.2072C86.4137 11.5694 85.7088 11.133 84.8137 11.133C83.3367 11.133 82.2848 12.2855 82.2848 13.7849C82.2848 15.2843 83.3367 16.4368 84.8137 16.4368ZM93.0418 9.64481C95.5035 9.64481 97.1931 11.547 97.1931 13.7849C97.1931 16.0228 95.5035 17.925 93.0418 17.925C90.5689 17.925 88.8793 16.0228 88.8793 13.7849C88.8793 11.547 90.5689 9.64481 93.0418 9.64481ZM93.0418 16.4368C94.5076 16.4368 95.5594 15.2843 95.5594 13.7849C95.5594 12.2855 94.5076 11.133 93.0418 11.133C91.5648 11.133 90.513 12.2855 90.513 13.7849C90.513 15.2843 91.5648 16.4368 93.0418 16.4368ZM98.8278 17.7012V9.8686H100.864L104.367 15.5304V9.8686H105.955V17.7012H103.919L100.417 12.0393V17.7012H98.8278ZM108.258 17.7012V9.8686H110.294L113.797 15.5304V9.8686H115.386V17.7012H113.349L109.847 12.0393V17.7012H108.258ZM117.688 17.7012V9.8686H122.253V11.1889H119.277V13.0464H121.806V14.3667H119.277V16.3808H122.253V17.7012H117.688ZM127.528 16.4368C128.423 16.4368 129.128 16.0004 129.576 15.3626L130.829 16.3249C130.113 17.2984 128.949 17.925 127.528 17.925C125.055 17.925 123.365 16.0228 123.365 13.7849C123.365 11.547 125.055 9.64481 127.528 9.64481C128.949 9.64481 130.113 10.2826 130.829 11.2337L129.576 12.2072C129.128 11.5694 128.423 11.133 127.528 11.133C126.051 11.133 124.999 12.2855 124.999 13.7849C124.999 15.2843 126.051 16.4368 127.528 16.4368ZM131.514 11.312V9.8686H137.937V11.312H135.52V17.7012H133.931V11.312H131.514Z" fill="#F5F5FE"/>
<rect width="118.758" height="25.5758" transform="translate(163.852 0.913086)" fill="#8585F6"/>
<path fill-rule="evenodd" clip-rule="evenodd" d="M183.034 7.30664C186.563 7.30664 189.428 10.1711 189.428 13.7006C189.428 17.23 186.563 20.0945 183.034 20.0945C179.504 20.0945 176.64 17.23 176.64 13.7006C176.64 10.1711 179.504 7.30664 183.034 7.30664ZM179.212 15.8847C180.151 17.285 181.56 18.1763 183.136 18.1763C184.711 18.1763 186.121 17.2857 187.059 15.8847C185.995 14.8902 184.592 14.3379 183.136 14.34C181.679 14.3378 180.276 14.8901 179.212 15.8847ZM183.034 13.0612C184.093 13.0612 184.952 12.2024 184.952 11.143C184.952 10.0836 184.093 9.22482 183.034 9.22482C181.974 9.22482 181.115 10.0836 181.115 11.143C181.115 12.2024 181.974 13.0612 183.034 13.0612Z" fill="white"/>
<path d="M200.531 16.4368C201.426 16.4368 202.131 16.0004 202.579 15.3626L203.832 16.3249C203.116 17.2984 201.952 17.925 200.531 17.925C198.058 17.925 196.369 16.0228 196.369 13.7849C196.369 11.547 198.058 9.64481 200.531 9.64481C201.952 9.64481 203.116 10.2826 203.832 11.2337L202.579 12.2072C202.131 11.5694 201.426 11.133 200.531 11.133C199.054 11.133 198.002 12.2855 198.002 13.7849C198.002 15.2843 199.054 16.4368 200.531 16.4368ZM208.759 9.64481C211.221 9.64481 212.911 11.547 212.911 13.7849C212.911 16.0228 211.221 17.925 208.759 17.925C206.286 17.925 204.597 16.0228 204.597 13.7849C204.597 11.547 206.286 9.64481 208.759 9.64481ZM208.759 16.4368C210.225 16.4368 211.277 15.2843 211.277 13.7849C211.277 12.2855 210.225 11.133 208.759 11.133C207.282 11.133 206.23 12.2855 206.23 13.7849C206.23 15.2843 207.282 16.4368 208.759 16.4368ZM214.545 17.7012V9.8686H216.582L220.084 15.5304V9.8686H221.673V17.7012H219.637L216.134 12.0393V17.7012H214.545ZM223.975 17.7012V9.8686H226.012L229.514 15.5304V9.8686H231.103V17.7012H229.067L225.564 12.0393V17.7012H223.975ZM233.406 17.7012V9.8686H237.971V11.1889H234.994V13.0464H237.523V14.3667H234.994V16.3808H237.971V17.7012H233.406ZM240.99 17.7012H239.099L241.896 13.6506L239.289 9.8686H241.169L243.004 12.5093L244.839 9.8686H246.741L244.112 13.6506L246.92 17.7012H245.029L243.004 14.7919L240.99 17.7012ZM248.31 17.7012V9.8686H249.899V17.7012H248.31ZM255.691 9.64481C258.153 9.64481 259.843 11.547 259.843 13.7849C259.843 16.0228 258.153 17.925 255.691 17.925C253.219 17.925 251.529 16.0228 251.529 13.7849C251.529 11.547 253.219 9.64481 255.691 9.64481ZM255.691 16.4368C257.157 16.4368 258.209 15.2843 258.209 13.7849C258.209 12.2855 257.157 11.133 255.691 11.133C254.214 11.133 253.163 12.2855 253.163 13.7849C253.163 15.2843 254.214 16.4368 255.691 16.4368ZM261.477 17.7012V9.8686H263.514L267.016 15.5304V9.8686H268.605V17.7012H266.569L263.066 12.0393V17.7012H261.477Z" fill="#F5F5FE"/>
<rect x="161.854" y="196.328" width="272.542" height="15.9848" stroke="#F24822" stroke-width="0.799242"/>
<defs>
<filter id="filter0_d_61_5287" x="0.00757551" y="5.70875" width="648.985" height="241.372" filterUnits="userSpaceOnUse" color-interpolation-filters="sRGB">
<feFlood flood-opacity="0" result="BackgroundImageFix"/>
<feColorMatrix in="SourceAlpha" type="matrix" values="0 0 0 0 0 0 0 0 0 0 0 0 0 0 0 0 0 0 127 0" result="hardAlpha"/>
<feOffset/>
<feGaussianBlur stdDeviation="3.99621"/>
<feColorMatrix type="matrix" values="0 0 0 0 0 0 0 0 0 0 0 0 0 0 0.568627 0 0 0 0.5 0"/>
<feBlend mode="normal" in2="BackgroundImageFix" result="effect1_dropShadow_61_5287"/>
<feBlend mode="normal" in="SourceGraphic" in2="effect1_dropShadow_61_5287" result="shape"/>
</filter>
</defs>
</svg>
