<?xml version="1.0" encoding="UTF-8"?>
<svg width="206px" height="60px" viewBox="0 0 206 60" version="1.1" xmlns="http://www.w3.org/2000/svg" xmlns:xlink="http://www.w3.org/1999/xlink">
    <title>ac-btn-hover copy</title>
    <g id="Page-1" stroke="none" stroke-width="1" fill="none" fill-rule="evenodd">
        <g id="Artboard-Copy-33" transform="translate(-411.000000, -560.000000)">
            <g id="ac-btn-hover-copy" transform="translate(411.000000, 560.000000)">
                <rect id="Rectangle" fill="#4EA6FF" x="0" y="0" width="206" height="60" rx="3"></rect>
                <path d="M70.4875,27.2391667 C70.9730556,27.2391667 71.4243056,27.1652777 71.84125,27.0175 C72.2581944,26.8697223 72.6170833,26.658611 72.9179167,26.3841667 C73.21875,26.1097223 73.45625,25.779861 73.6304167,25.3945833 C73.8045833,25.0093056 73.8916667,24.5844444 73.8916667,24.12 C73.8916667,23.2333333 73.6172223,22.5525 73.0683333,22.0775 C72.5194444,21.6025 71.9204167,21.19875 71.27125,20.86625 C70.6220833,20.53375 70.0230556,20.20125 69.4741667,19.86875 C68.9252777,19.53625 68.6508333,19.0744444 68.6508333,18.4833333 C68.6508333,18.0294444 68.8065277,17.6468056 69.1179167,17.3354167 C69.4293056,17.0240277 69.843611,16.8683333 70.3608333,16.8683333 C70.846389,16.8683333 71.2870833,16.992361 71.6829167,17.2404167 C72.07875,17.4884723 72.4402777,17.8447223 72.7675,18.3091667 L73.8758333,17.3433333 C73.4641667,16.805 72.9680556,16.3695833 72.3875,16.0370833 C71.8069444,15.7045833 71.126111,15.5383333 70.345,15.5383333 C69.8805556,15.5383333 69.4504167,15.6175 69.0545833,15.7758333 C68.65875,15.9341667 68.3183333,16.1479167 68.0333333,16.4170833 C67.7483333,16.68625 67.5266667,17.0029167 67.3683333,17.3670833 C67.21,17.73125 67.1308333,18.113889 67.1308333,18.515 C67.1308333,19.391111 67.4052777,20.0666667 67.9541667,20.5416667 C68.5030556,21.0166667 69.1020833,21.4204167 69.75125,21.7529167 C70.4004167,22.0854167 70.9994444,22.4179167 71.5483333,22.7504167 C72.0972223,23.0829167 72.3716667,23.5447223 72.3716667,24.1358333 C72.3716667,24.6425 72.2054167,25.0647223 71.8729167,25.4025 C71.5404167,25.7402777 71.0733333,25.9091667 70.4716667,25.9091667 C69.9544444,25.9091667 69.46625,25.7825 69.0070833,25.5291667 C68.5479167,25.2758333 68.1230556,24.906389 67.7325,24.4208333 L66.6558333,25.4183333 C67.141389,26.02 67.6955556,26.473889 68.3183333,26.78 C68.941111,27.086111 69.6641667,27.2391667 70.4875,27.2391667 Z M76.8091667,20.0983333 L78.44,15.855 L76.9041667,15.855 L75.5583333,20.0983333 L76.8091667,20.0983333 Z M81.3891667,16.8841667 C81.6530556,16.8841667 81.8747223,16.7918056 82.0541667,16.6070833 C82.233611,16.422361 82.3233333,16.1980556 82.3233333,15.9341667 C82.3233333,15.6808333 82.233611,15.4618056 82.0541667,15.2770833 C81.8747223,15.092361 81.6530556,15 81.3891667,15 C81.1252777,15 80.9009723,15.092361 80.71625,15.2770833 C80.5315277,15.4618056 80.4391667,15.6808333 80.4391667,15.9341667 C80.4391667,16.1980556 80.5315277,16.422361 80.71625,16.6070833 C80.9009723,16.7918056 81.1252777,16.8841667 81.3891667,16.8841667 Z M82.0541667,26.9383333 L82.0541667,18.9583333 L80.7083333,18.9583333 L80.7083333,26.9383333 L82.0541667,26.9383333 Z M88.4075,27.255 C88.9775,27.255 89.502639,27.1520833 89.9829167,26.94625 C90.4631944,26.7404167 90.8827777,26.4422223 91.2416667,26.0516667 L91.2416667,26.9383333 L92.5875,26.9383333 L92.5875,15.0633333 L91.2416667,15.0633333 L91.2416667,19.845 C90.8827777,19.4544444 90.4631944,19.15625 89.9829167,18.9504167 C89.502639,18.7445833 88.9775,18.6416667 88.4075,18.6416667 C87.7847223,18.6416667 87.22,18.7577777 86.7133333,18.99 C86.2066667,19.2222223 85.7765277,19.533611 85.4229167,19.9241667 C85.0693056,20.3147223 84.794861,20.77125 84.5995833,21.29375 C84.4043056,21.81625 84.3066667,22.3677777 84.3066667,22.9483333 C84.3066667,23.528889 84.4043056,24.0804167 84.5995833,24.6029167 C84.794861,25.1254167 85.0693056,25.5819444 85.4229167,25.9725 C85.7765277,26.3630556 86.2066667,26.6744444 86.7133333,26.9066667 C87.22,27.138889 87.7847223,27.255 88.4075,27.255 Z M88.5658333,25.9883333 C88.143611,25.9883333 87.7583333,25.9091667 87.41,25.7508333 C87.0616667,25.5925 86.7634723,25.376111 86.5154167,25.1016667 C86.267361,24.8272223 86.0747223,24.5052777 85.9375,24.1358333 C85.8002777,23.766389 85.7316667,23.3705556 85.7316667,22.9483333 C85.7316667,22.526111 85.8002777,22.1302777 85.9375,21.7608333 C86.0747223,21.391389 86.267361,21.0694444 86.5154167,20.795 C86.7634723,20.5205556 87.0616667,20.3041667 87.41,20.1458333 C87.7583333,19.9875 88.143611,19.9083333 88.5658333,19.9083333 C89.1041667,19.9083333 89.6055556,20.035 90.07,20.2883333 C90.5344444,20.5416667 90.925,20.911111 91.2416667,21.3966667 L91.2416667,24.5 C90.9355556,24.975 90.5502777,25.3418056 90.0858333,25.6004167 C89.621389,25.8590277 89.1147223,25.9883333 88.5658333,25.9883333 Z M99.1783333,27.255 C99.9172223,27.255 100.579583,27.1072223 101.165417,26.8116667 C101.75125,26.516111 102.228889,26.1202777 102.598333,25.6241667 L101.600833,24.8483333 C101.336944,25.2072223 100.999167,25.494861 100.5875,25.71125 C100.175833,25.927639 99.7166667,26.0358333 99.21,26.0358333 C98.3233333,26.0358333 97.6029167,25.7481944 97.04875,25.1729167 C96.4945833,24.597639 96.2175,23.8719444 96.2175,22.9958333 L96.2175,22.9641667 L102.329167,22.9641667 C102.350278,22.858611 102.371389,22.7293056 102.3925,22.57625 C102.413611,22.4231944 102.424167,22.2675 102.424167,22.1091667 C102.424167,21.6130556 102.339722,21.15125 102.170833,20.72375 C102.001944,20.29625 101.761806,19.9294444 101.450417,19.6233333 C101.139028,19.3172223 100.761667,19.0770833 100.318333,18.9029167 C99.875,18.72875 99.3841667,18.6416667 98.8458333,18.6416667 C98.233611,18.6416667 97.6768056,18.7525 97.1754167,18.9741667 C96.6740277,19.1958333 96.2518056,19.4993056 95.90875,19.8845833 C95.5656944,20.269861 95.2991667,20.726389 95.1091667,21.2541667 C94.9191667,21.7819444 94.8241667,22.3466667 94.8241667,22.9483333 C94.8241667,23.528889 94.9244444,24.0804167 95.125,24.6029167 C95.3255556,25.1254167 95.6131944,25.5819444 95.9879167,25.9725 C96.362639,26.3630556 96.8218056,26.6744444 97.3654167,26.9066667 C97.9090277,27.138889 98.5133333,27.255 99.1783333,27.255 Z M101.0625,21.9033333 L96.3283333,21.9033333 C96.4866667,21.2172223 96.7875,20.6947223 97.2308333,20.3358333 C97.6741667,19.9769444 98.2177777,19.7975 98.8616667,19.7975 C99.516111,19.7975 100.04125,20.0059723 100.437083,20.4229167 C100.832917,20.839861 101.041389,21.3333333 101.0625,21.9033333 Z M106.133333,26.9383333 L106.133333,21.4125 C106.386667,20.9902777 106.705972,20.6340277 107.09125,20.34375 C107.476528,20.0534723 107.954167,19.9083333 108.524167,19.9083333 C109.136389,19.9083333 109.627222,20.10625 109.996667,20.5020833 C110.366111,20.8979167 110.550833,21.4494444 110.550833,22.1566667 L110.550833,26.9383333 L111.9125,26.9383333 L111.9125,22.1091667 C111.9125,20.9797223 111.614306,20.1194444 111.017917,19.5283333 C110.421528,18.9372223 109.68,18.6416667 108.793333,18.6416667 C108.202222,18.6416667 107.692917,18.755139 107.265417,18.9820833 C106.837917,19.2090277 106.460556,19.5019444 106.133333,19.8608333 L106.133333,18.9583333 L104.7875,18.9583333 L104.7875,26.9383333 L106.133333,26.9383333 Z M117.933333,27.0966667 C118.218333,27.0966667 118.471667,27.0781944 118.693333,27.04125 C118.915,27.0043056 119.120833,26.948889 119.310833,26.875 L119.310833,25.6716667 C119.163056,25.735 118.994167,25.7825 118.804167,25.8141667 C118.614167,25.8458333 118.387222,25.8616667 118.123333,25.8616667 C117.637778,25.8616667 117.249861,25.7508333 116.959583,25.5291667 C116.669306,25.3075 116.524167,24.8852777 116.524167,24.2625 L116.524167,20.1933333 L119.295,20.1933333 L119.295,18.9583333 L116.524167,18.9583333 L116.524167,16.9633333 L115.1625,16.9633333 L115.1625,18.9583333 L113.658333,18.9583333 L113.658333,20.1933333 L115.1625,20.1933333 L115.1625,24.2625 C115.1625,25.233611 115.402639,25.94875 115.882917,26.4079167 C116.363194,26.8670833 117.046667,27.0966667 117.933333,27.0966667 Z M122.1175,16.8841667 C122.381389,16.8841667 122.603056,16.7918056 122.7825,16.6070833 C122.961944,16.422361 123.051667,16.1980556 123.051667,15.9341667 C123.051667,15.6808333 122.961944,15.4618056 122.7825,15.2770833 C122.603056,15.092361 122.381389,15 122.1175,15 C121.853611,15 121.629306,15.092361 121.444583,15.2770833 C121.259861,15.4618056 121.1675,15.6808333 121.1675,15.9341667 C121.1675,16.1980556 121.259861,16.422361 121.444583,16.6070833 C121.629306,16.7918056 121.853611,16.8841667 122.1175,16.8841667 Z M122.7825,26.9383333 L122.7825,18.9583333 L121.436667,18.9583333 L121.436667,26.9383333 L122.7825,26.9383333 Z M127.536667,26.9383333 L127.536667,20.1933333 L130.3075,20.1933333 L130.3075,18.9583333 L127.536667,18.9583333 L127.536667,17.945 C127.536667,17.4277777 127.676528,17.021389 127.95625,16.7258333 C128.235972,16.4302777 128.592222,16.2825 129.025,16.2825 C129.299444,16.2825 129.534306,16.332639 129.729583,16.4329167 C129.924861,16.5331944 130.091111,16.6625 130.228333,16.8208333 L131.0675,15.8391667 C130.835278,15.6069444 130.545,15.4195833 130.196667,15.2770833 C129.848333,15.1345833 129.4525,15.0633333 129.009167,15.0633333 C128.154167,15.0633333 127.468056,15.335139 126.950833,15.87875 C126.433611,16.422361 126.175,17.1216667 126.175,17.9766667 L126.175,18.9583333 L124.670833,18.9583333 L124.670833,20.1933333 L126.175,20.1933333 L126.175,26.9383333 L127.536667,26.9383333 Z M132.718333,16.8841667 C132.982222,16.8841667 133.203889,16.7918056 133.383333,16.6070833 C133.562778,16.422361 133.6525,16.1980556 133.6525,15.9341667 C133.6525,15.6808333 133.562778,15.4618056 133.383333,15.2770833 C133.203889,15.092361 132.982222,15 132.718333,15 C132.454444,15 132.230139,15.092361 132.045417,15.2770833 C131.860694,15.4618056 131.768333,15.6808333 131.768333,15.9341667 C131.768333,16.1980556 131.860694,16.422361 132.045417,16.6070833 C132.230139,16.7918056 132.454444,16.8841667 132.718333,16.8841667 Z M133.383333,26.9383333 L133.383333,18.9583333 L132.0375,18.9583333 L132.0375,26.9383333 L133.383333,26.9383333 Z M139.99,27.255 C140.728889,27.255 141.39125,27.1072223 141.977083,26.8116667 C142.562917,26.516111 143.040556,26.1202777 143.41,25.6241667 L142.4125,24.8483333 C142.148611,25.2072223 141.810833,25.494861 141.399167,25.71125 C140.9875,25.927639 140.528333,26.0358333 140.021667,26.0358333 C139.135,26.0358333 138.414583,25.7481944 137.860417,25.1729167 C137.30625,24.597639 137.029167,23.8719444 137.029167,22.9958333 L137.029167,22.9641667 L143.140833,22.9641667 C143.161944,22.858611 143.183056,22.7293056 143.204167,22.57625 C143.225278,22.4231944 143.235833,22.2675 143.235833,22.1091667 C143.235833,21.6130556 143.151389,21.15125 142.9825,20.72375 C142.813611,20.29625 142.573472,19.9294444 142.262083,19.6233333 C141.950694,19.3172223 141.573333,19.0770833 141.13,18.9029167 C140.686667,18.72875 140.195833,18.6416667 139.6575,18.6416667 C139.045278,18.6416667 138.488472,18.7525 137.987083,18.9741667 C137.485694,19.1958333 137.063472,19.4993056 136.720417,19.8845833 C136.377361,20.269861 136.110833,20.726389 135.920833,21.2541667 C135.730833,21.7819444 135.635833,22.3466667 135.635833,22.9483333 C135.635833,23.528889 135.736111,24.0804167 135.936667,24.6029167 C136.137222,25.1254167 136.424861,25.5819444 136.799583,25.9725 C137.174306,26.3630556 137.633472,26.6744444 138.177083,26.9066667 C138.720694,27.138889 139.325,27.255 139.99,27.255 Z M141.874167,21.9033333 L137.14,21.9033333 C137.298333,21.2172223 137.599167,20.6947223 138.0425,20.3358333 C138.485833,19.9769444 139.029444,19.7975 139.673333,19.7975 C140.327778,19.7975 140.852917,20.0059723 141.24875,20.4229167 C141.644583,20.839861 141.853056,21.3333333 141.874167,21.9033333 Z M146.945,26.9383333 L146.945,21.5233333 C147.187778,21.1222223 147.488611,20.797639 147.8475,20.5495833 C148.206389,20.3015277 148.644444,20.1775 149.161667,20.1775 C149.32,20.1775 149.4625,20.1880556 149.589167,20.2091667 C149.715833,20.2302777 149.837222,20.2566667 149.953333,20.2883333 L149.953333,18.895 C149.858333,18.8633333 149.752778,18.8395833 149.636667,18.82375 C149.520556,18.8079167 149.399167,18.8 149.2725,18.8 C148.765833,18.8 148.325139,18.9055556 147.950417,19.1166667 C147.575694,19.3277777 147.240556,19.6075 146.945,19.9558333 L146.945,18.9583333 L145.599167,18.9583333 L145.599167,26.9383333 L146.945,26.9383333 Z M158.511667,27.255 C159.05,27.255 159.556667,27.138889 160.031667,26.9066667 C160.506667,26.6744444 160.891944,26.3472223 161.1875,25.925 L161.1875,26.9383333 L162.533333,26.9383333 L162.533333,21.5866667 C162.533333,20.7105556 162.248333,20.0006944 161.678333,19.4570833 C161.108333,18.9134723 160.316667,18.6416667 159.303333,18.6416667 C158.606667,18.6416667 157.983889,18.778889 157.435,19.0533333 C156.886111,19.3277777 156.4375,19.7025 156.089167,20.1775 L157.1025,20.9533333 C157.334722,20.605 157.638194,20.3331944 158.012917,20.1379167 C158.387639,19.942639 158.807222,19.845 159.271667,19.845 C159.831111,19.845 160.290278,19.9980556 160.649167,20.3041667 C161.008056,20.6102777 161.1875,21.0377777 161.1875,21.5866667 L161.1875,22.1408333 L158.511667,22.5841667 C157.656667,22.721389 157.004861,23.001111 156.55625,23.4233333 C156.107639,23.8455556 155.883333,24.3627777 155.883333,24.975 C155.883333,25.6716667 156.126111,26.2258333 156.611667,26.6375 C157.097222,27.0491667 157.730556,27.255 158.511667,27.255 Z M158.733333,26.1308333 C158.279444,26.1308333 157.915278,26.0147223 157.640833,25.7825 C157.366389,25.5502777 157.229167,25.2652777 157.229167,24.9275 C157.229167,24.5791667 157.358472,24.283611 157.617083,24.0408333 C157.875694,23.7980556 158.279444,23.6344444 158.828333,23.55 L161.1875,23.1383333 L161.1875,24.6583333 C160.913056,25.1122223 160.567361,25.471111 160.150417,25.735 C159.733472,25.998889 159.261111,26.1308333 158.733333,26.1308333 Z M168.95,26.9383333 L172.069167,18.9583333 L170.6125,18.9583333 L168.063333,25.5291667 L165.514167,18.9583333 L164.0575,18.9583333 L167.176667,26.9383333 L168.95,26.9383333 Z M177.345833,27.255 C178.084722,27.255 178.747083,27.1072223 179.332917,26.8116667 C179.91875,26.516111 180.396389,26.1202777 180.765833,25.6241667 L179.768333,24.8483333 C179.504444,25.2072223 179.166667,25.494861 178.755,25.71125 C178.343333,25.927639 177.884167,26.0358333 177.3775,26.0358333 C176.490833,26.0358333 175.770417,25.7481944 175.21625,25.1729167 C174.662083,24.597639 174.385,23.8719444 174.385,22.9958333 L174.385,22.9641667 L180.496667,22.9641667 C180.517778,22.858611 180.538889,22.7293056 180.56,22.57625 C180.581111,22.4231944 180.591667,22.2675 180.591667,22.1091667 C180.591667,21.6130556 180.507222,21.15125 180.338333,20.72375 C180.169444,20.29625 179.929306,19.9294444 179.617917,19.6233333 C179.306528,19.3172223 178.929167,19.0770833 178.485833,18.9029167 C178.0425,18.72875 177.551667,18.6416667 177.013333,18.6416667 C176.401111,18.6416667 175.844306,18.7525 175.342917,18.9741667 C174.841528,19.1958333 174.419306,19.4993056 174.07625,19.8845833 C173.733194,20.269861 173.466667,20.726389 173.276667,21.2541667 C173.086667,21.7819444 172.991667,22.3466667 172.991667,22.9483333 C172.991667,23.528889 173.091944,24.0804167 173.2925,24.6029167 C173.493056,25.1254167 173.780694,25.5819444 174.155417,25.9725 C174.530139,26.3630556 174.989306,26.6744444 175.532917,26.9066667 C176.076528,27.138889 176.680833,27.255 177.345833,27.255 Z M179.23,21.9033333 L174.495833,21.9033333 C174.654167,21.2172223 174.955,20.6947223 175.398333,20.3358333 C175.841667,19.9769444 176.385278,19.7975 177.029167,19.7975 C177.683611,19.7975 178.20875,20.0059723 178.604583,20.4229167 C179.000417,20.839861 179.208889,21.3333333 179.23,21.9033333 Z M186.580833,27.255 C187.309167,27.255 187.958333,27.1072223 188.528333,26.8116667 C189.098333,26.516111 189.568056,26.1202777 189.9375,25.6241667 L188.860833,24.8008333 C188.618056,25.1597223 188.301389,25.447361 187.910833,25.66375 C187.520278,25.880139 187.082222,25.9883333 186.596667,25.9883333 C186.163889,25.9883333 185.768056,25.9091667 185.409167,25.7508333 C185.050278,25.5925 184.741528,25.37875 184.482917,25.1095833 C184.224306,24.8404167 184.021111,24.5184723 183.873333,24.14375 C183.725556,23.7690277 183.651667,23.3705556 183.651667,22.9483333 C183.651667,22.526111 183.725556,22.1302777 183.873333,21.7608333 C184.021111,21.391389 184.221667,21.0694444 184.475,20.795 C184.728333,20.5205556 185.037083,20.3041667 185.40125,20.1458333 C185.765417,19.9875 186.158611,19.9083333 186.580833,19.9083333 C187.066389,19.9083333 187.507083,20.0165277 187.902917,20.2329167 C188.29875,20.4493056 188.618056,20.7369444 188.860833,21.0958333 L189.9375,20.2725 C189.568056,19.7869444 189.095694,19.39375 188.520417,19.0929167 C187.945139,18.7920833 187.298611,18.6416667 186.580833,18.6416667 C185.926389,18.6416667 185.33,18.7577777 184.791667,18.99 C184.253333,19.2222223 183.796806,19.533611 183.422083,19.9241667 C183.047361,20.3147223 182.757083,20.77125 182.55125,21.29375 C182.345417,21.81625 182.2425,22.3677777 182.2425,22.9483333 C182.2425,23.528889 182.345417,24.0804167 182.55125,24.6029167 C182.757083,25.1254167 183.047361,25.5819444 183.422083,25.9725 C183.796806,26.3630556 184.253333,26.6744444 184.791667,26.9066667 C185.33,27.138889 185.926389,27.255 186.580833,27.255 Z M68.6425,44.4383333 L69.815,41.2533333 L74.715,41.2533333 L75.8875,44.4383333 L78.53,44.4383333 L73.8925,32.1883333 L70.6375,32.1883333 L66,44.4383333 L68.6425,44.4383333 Z M73.945,39.1358333 L70.585,39.1358333 L72.265,34.5333333 L73.945,39.1358333 Z M83.75875,48.8133333 C85.1820832,48.8133333 86.3079168,48.4866666 87.13625,47.8333333 C87.9645832,47.1800001 88.37875,46.3516666 88.37875,45.3483333 C88.37875,44.5316666 88.0841668,43.8550001 87.495,43.3183333 C86.9058332,42.7816666 86.0570832,42.5133333 84.94875,42.5133333 L82.72625,42.5133333 C82.5279168,42.5133333 82.3791668,42.4695833 82.28,42.3820833 C82.1808332,42.2945833 82.13125,42.1633333 82.13125,41.9883333 C82.13125,41.8950001 82.1575,41.7987501 82.21,41.6995833 C82.2625,41.6004166 82.3354168,41.5100001 82.42875,41.4283333 C82.5570832,41.4516666 82.69125,41.4691666 82.83125,41.4808333 C82.97125,41.4925001 83.1170832,41.4983333 83.26875,41.4983333 C83.8404168,41.4983333 84.3479168,41.4166666 84.79125,41.2533333 C85.2345832,41.0900001 85.6079168,40.8654166 85.91125,40.5795833 C86.2145832,40.2937501 86.445,39.9612501 86.6025,39.5820833 C86.76,39.2029166 86.83875,38.7975001 86.83875,38.3658333 C86.83875,38.2141666 86.83,38.0683333 86.8125,37.9283333 C86.795,37.7883333 86.7629168,37.6483333 86.71625,37.5083333 L88.27375,37.5083333 L88.27375,35.6183333 L85.05375,35.6183333 C84.7970832,35.5016666 84.52,35.4141666 84.2225,35.3558333 C83.925,35.2975001 83.6070832,35.2683333 83.26875,35.2683333 C82.7204168,35.2683333 82.2275,35.3500001 81.79,35.5133333 C81.3525,35.6766666 80.9820832,35.8983333 80.67875,36.1783333 C80.3754168,36.4583333 80.1420832,36.7850001 79.97875,37.1583333 C79.8154168,37.5316666 79.73375,37.9341666 79.73375,38.3658333 C79.73375,38.8558333 79.8358332,39.3108333 80.04,39.7308333 C80.2441668,40.1508333 80.53875,40.5066666 80.92375,40.7983333 C80.5970832,41.0433333 80.355,41.3087501 80.1975,41.5945833 C80.04,41.8804166 79.96125,42.1983333 79.96125,42.5483333 C79.96125,42.7700001 80.0079168,42.9945833 80.10125,43.2220833 C80.1945832,43.4495833 80.32875,43.6566666 80.50375,43.8433333 C80.1070832,44.1233333 79.80375,44.4412501 79.59375,44.7970833 C79.38375,45.1529166 79.27875,45.5466666 79.27875,45.9783333 C79.27875,46.9000001 79.6754168,47.6029166 80.46875,48.0870833 C81.2620832,48.5712501 82.35875,48.8133333 83.75875,48.8133333 Z M83.30375,39.8183333 C82.8254168,39.8183333 82.4491668,39.6841666 82.175,39.4158333 C81.9008332,39.1475001 81.76375,38.7975001 81.76375,38.3658333 C81.76375,37.9341666 81.9008332,37.5870833 82.175,37.3245833 C82.4491668,37.0620833 82.8254168,36.9308333 83.30375,36.9308333 C83.7704168,36.9308333 84.1408332,37.0620833 84.415,37.3245833 C84.6891668,37.5870833 84.82625,37.9341666 84.82625,38.3658333 C84.82625,38.7975001 84.6891668,39.1475001 84.415,39.4158333 C84.1408332,39.6841666 83.7704168,39.8183333 83.30375,39.8183333 Z M83.74125,47.0283333 C82.97125,47.0283333 82.385,46.9058333 81.9825,46.6608333 C81.58,46.4158333 81.37875,46.0833333 81.37875,45.6633333 C81.37875,45.3833333 81.44875,45.1441666 81.58875,44.9458333 C81.72875,44.7475001 81.9270832,44.5725001 82.18375,44.4208333 L84.70375,44.4208333 C85.2404168,44.4208333 85.6195832,44.5287501 85.84125,44.7445833 C86.0629168,44.9604166 86.17375,45.2316666 86.17375,45.5583333 C86.17375,45.9900001 85.9695832,46.3429166 85.56125,46.6170833 C85.1529168,46.8912501 84.54625,47.0283333 83.74125,47.0283333 Z M93.8,44.7883333 C94.6283332,44.7883333 95.375,44.6279166 96.04,44.3070833 C96.705,43.9862501 97.2416668,43.5516666 97.65,43.0033333 L96.0575,41.7433333 C95.8241668,42.0583333 95.515,42.3120833 95.13,42.5045833 C94.745,42.6970833 94.3133332,42.7933333 93.835,42.7933333 C93.0883332,42.7933333 92.4758332,42.5891666 91.9975,42.1808333 C91.5191668,41.7725001 91.245,41.2066666 91.175,40.4833333 L97.3525,40.4833333 C97.3875,40.3316666 97.4195832,40.1450001 97.44875,39.9233333 C97.4779168,39.7016666 97.4925,39.4683333 97.4925,39.2233333 C97.4925,38.0683333 97.1191668,37.1204166 96.3725,36.3795833 C95.6258332,35.6387501 94.6458332,35.2683333 93.4325,35.2683333 C92.7091668,35.2683333 92.0675,35.3937501 91.5075,35.6445833 C90.9475,35.8954166 90.475,36.2366666 90.09,36.6683333 C89.705,37.1000001 89.4104168,37.6045833 89.20625,38.1820833 C89.0020832,38.7595833 88.9,39.3750001 88.9,40.0283333 C88.9,40.6700001 89.0079168,41.2795833 89.22375,41.8570833 C89.4395832,42.4345833 89.7545832,42.9391666 90.16875,43.3708333 C90.5829168,43.8025001 91.09625,44.1466666 91.70875,44.4033333 C92.32125,44.6600001 93.0183332,44.7883333 93.8,44.7883333 Z M95.2875,38.8033333 L91.315,38.8033333 C91.4666668,38.2316666 91.7233332,37.8087501 92.085,37.5345833 C92.4466668,37.2604166 92.8958332,37.1233333 93.4325,37.1233333 C94.0158332,37.1233333 94.4679168,37.2954166 94.78875,37.6395833 C95.1095832,37.9837501 95.2758332,38.3716666 95.2875,38.8033333 Z M101.91625,44.4383333 L101.91625,38.6808333 C102.079583,38.4008333 102.321667,38.1120833 102.6425,37.8145833 C102.963333,37.5170833 103.40375,37.3683333 103.96375,37.3683333 C104.500417,37.3683333 104.923333,37.5404166 105.2325,37.8845833 C105.541667,38.2287501 105.69625,38.6925001 105.69625,39.2758333 L105.69625,44.4383333 L107.95375,44.4383333 L107.95375,39.1883333 C107.95375,38.5350001 107.863333,37.9633333 107.6825,37.4733333 C107.501667,36.9833333 107.256667,36.5750001 106.9475,36.2483333 C106.638333,35.9216666 106.276667,35.6766666 105.8625,35.5133333 C105.448333,35.3500001 105.002083,35.2683333 104.52375,35.2683333 C103.940417,35.2683333 103.435833,35.3704166 103.01,35.5745833 C102.584167,35.7787501 102.219583,36.0266666 101.91625,36.3183333 L101.91625,35.6183333 L99.69375,35.6183333 L99.69375,44.4383333 L101.91625,44.4383333 Z M114.32,44.6133333 C114.681667,44.6133333 114.999583,44.5900001 115.27375,44.5433333 C115.547917,44.4966666 115.795833,44.4266666 116.0175,44.3333333 L116.0175,42.3908333 C115.865833,42.4491666 115.685,42.4958333 115.475,42.5308333 C115.265,42.5658333 115.008333,42.5833333 114.705,42.5833333 C114.273333,42.5833333 113.932083,42.4783333 113.68125,42.2683333 C113.430417,42.0583333 113.305,41.7083333 113.305,41.2183333 L113.305,37.6483333 L116,37.6483333 L116,35.6183333 L113.305,35.6183333 L113.305,33.4133333 L111.065,33.4133333 L111.065,35.6183333 L109.42,35.6183333 L109.42,37.6483333 L111.065,37.6483333 L111.065,41.2183333 C111.065,42.2916666 111.333333,43.1258333 111.87,43.7208333 C112.406667,44.3158333 113.223333,44.6133333 114.32,44.6133333 Z M123.80125,44.7883333 C124.909583,44.7883333 125.907083,44.5608333 126.79375,44.1058333 C127.680417,43.6508333 128.40375,43.0441666 128.96375,42.2858333 L127.00375,40.7808333 C126.65375,41.2825001 126.2075,41.6879166 125.665,41.9970833 C125.1225,42.3062501 124.50125,42.4608333 123.80125,42.4608333 C123.229583,42.4608333 122.69875,42.3529166 122.20875,42.1370833 C121.71875,41.9212501 121.301667,41.6295833 120.9575,41.2620833 C120.613333,40.8945833 120.342083,40.4570833 120.14375,39.9495833 C119.945417,39.4420833 119.84625,38.8966666 119.84625,38.3133333 C119.84625,37.7300001 119.945417,37.1845833 120.14375,36.6770833 C120.342083,36.1695833 120.613333,35.7320833 120.9575,35.3645833 C121.301667,34.9970833 121.71875,34.7054166 122.20875,34.4895833 C122.69875,34.2737501 123.229583,34.1658333 123.80125,34.1658333 C124.50125,34.1658333 125.1225,34.3204166 125.665,34.6295833 C126.2075,34.9387501 126.65375,35.3441666 127.00375,35.8458333 L128.96375,34.3233333 C128.40375,33.5883333 127.680417,32.9904166 126.79375,32.5295833 C125.907083,32.0687501 124.909583,31.8383333 123.80125,31.8383333 C122.844583,31.8383333 121.96375,32.0133333 121.15875,32.3633333 C120.35375,32.7133333 119.665417,33.1800001 119.09375,33.7633333 C118.522083,34.3466666 118.07875,35.0320833 117.76375,35.8195833 C117.44875,36.6070833 117.29125,37.4383333 117.29125,38.3133333 C117.29125,39.1883333 117.44875,40.0195833 117.76375,40.8070833 C118.07875,41.5945833 118.522083,42.2800001 119.09375,42.8633333 C119.665417,43.4466666 120.35375,43.9133333 121.15875,44.2633333 C121.96375,44.6133333 122.844583,44.7883333 123.80125,44.7883333 Z M134.875,44.7883333 C135.586667,44.7883333 136.24,44.6629166 136.835,44.4120833 C137.43,44.1612501 137.940417,43.8229166 138.36625,43.3970833 C138.792083,42.9712501 139.121667,42.4666666 139.355,41.8833333 C139.588333,41.3000001 139.705,40.6816666 139.705,40.0283333 C139.705,39.3750001 139.588333,38.7566666 139.355,38.1733333 C139.121667,37.5900001 138.792083,37.0854166 138.36625,36.6595833 C137.940417,36.2337501 137.43,35.8954166 136.835,35.6445833 C136.24,35.3937501 135.586667,35.2683333 134.875,35.2683333 C134.163333,35.2683333 133.51,35.3937501 132.915,35.6445833 C132.32,35.8954166 131.809583,36.2337501 131.38375,36.6595833 C130.957917,37.0854166 130.628333,37.5900001 130.395,38.1733333 C130.161667,38.7566666 130.045,39.3750001 130.045,40.0283333 C130.045,40.6816666 130.161667,41.3000001 130.395,41.8833333 C130.628333,42.4666666 130.957917,42.9712501 131.38375,43.3970833 C131.809583,43.8229166 132.32,44.1612501 132.915,44.4120833 C133.51,44.6629166 134.163333,44.7883333 134.875,44.7883333 Z M134.91,42.6883333 C134.175,42.6883333 133.565417,42.4375001 133.08125,41.9358333 C132.597083,41.4341666 132.355,40.7983333 132.355,40.0283333 C132.355,39.2583333 132.597083,38.6225001 133.08125,38.1208333 C133.565417,37.6191666 134.175,37.3683333 134.91,37.3683333 C135.61,37.3683333 136.199167,37.6191666 136.6775,38.1208333 C137.155833,38.6225001 137.395,39.2583333 137.395,40.0283333 C137.395,40.7866666 137.155833,41.4195833 136.6775,41.9270833 C136.199167,42.4345833 135.61,42.6883333 134.91,42.6883333 Z M143.98875,44.4383333 L143.98875,38.6808333 C144.152083,38.4008333 144.394167,38.1120833 144.715,37.8145833 C145.035833,37.5170833 145.47625,37.3683333 146.03625,37.3683333 C146.572917,37.3683333 146.995833,37.5404166 147.305,37.8845833 C147.614167,38.2287501 147.76875,38.6925001 147.76875,39.2758333 L147.76875,44.4383333 L150.02625,44.4383333 L150.02625,39.1883333 C150.02625,38.5350001 149.935833,37.9633333 149.755,37.4733333 C149.574167,36.9833333 149.329167,36.5750001 149.02,36.2483333 C148.710833,35.9216666 148.349167,35.6766666 147.935,35.5133333 C147.520833,35.3500001 147.074583,35.2683333 146.59625,35.2683333 C146.012917,35.2683333 145.508333,35.3704166 145.0825,35.5745833 C144.656667,35.7787501 144.292083,36.0266666 143.98875,36.3183333 L143.98875,35.6183333 L141.76625,35.6183333 L141.76625,44.4383333 L143.98875,44.4383333 Z M154.8,44.4383333 L154.8,38.6808333 C154.963333,38.4008333 155.205417,38.1120833 155.52625,37.8145833 C155.847083,37.5170833 156.2875,37.3683333 156.8475,37.3683333 C157.384167,37.3683333 157.807083,37.5404166 158.11625,37.8845833 C158.425417,38.2287501 158.58,38.6925001 158.58,39.2758333 L158.58,44.4383333 L160.8375,44.4383333 L160.8375,39.1883333 C160.8375,38.5350001 160.747083,37.9633333 160.56625,37.4733333 C160.385417,36.9833333 160.140417,36.5750001 159.83125,36.2483333 C159.522083,35.9216666 159.160417,35.6766666 158.74625,35.5133333 C158.332083,35.3500001 157.885833,35.2683333 157.4075,35.2683333 C156.824167,35.2683333 156.319583,35.3704166 155.89375,35.5745833 C155.467917,35.7787501 155.103333,36.0266666 154.8,36.3183333 L154.8,35.6183333 L152.5775,35.6183333 L152.5775,44.4383333 L154.8,44.4383333 Z M167.65875,44.7883333 C168.487083,44.7883333 169.23375,44.6279166 169.89875,44.3070833 C170.56375,43.9862501 171.100417,43.5516666 171.50875,43.0033333 L169.91625,41.7433333 C169.682917,42.0583333 169.37375,42.3120833 168.98875,42.5045833 C168.60375,42.6970833 168.172083,42.7933333 167.69375,42.7933333 C166.947083,42.7933333 166.334583,42.5891666 165.85625,42.1808333 C165.377917,41.7725001 165.10375,41.2066666 165.03375,40.4833333 L171.21125,40.4833333 C171.24625,40.3316666 171.278333,40.1450001 171.3075,39.9233333 C171.336667,39.7016666 171.35125,39.4683333 171.35125,39.2233333 C171.35125,38.0683333 170.977917,37.1204166 170.23125,36.3795833 C169.484583,35.6387501 168.504583,35.2683333 167.29125,35.2683333 C166.567917,35.2683333 165.92625,35.3937501 165.36625,35.6445833 C164.80625,35.8954166 164.33375,36.2366666 163.94875,36.6683333 C163.56375,37.1000001 163.269167,37.6045833 163.065,38.1820833 C162.860833,38.7595833 162.75875,39.3750001 162.75875,40.0283333 C162.75875,40.6700001 162.866667,41.2795833 163.0825,41.8570833 C163.298333,42.4345833 163.613333,42.9391666 164.0275,43.3708333 C164.441667,43.8025001 164.955,44.1466666 165.5675,44.4033333 C166.18,44.6600001 166.877083,44.7883333 167.65875,44.7883333 Z M169.14625,38.8033333 L165.17375,38.8033333 C165.325417,38.2316666 165.582083,37.8087501 165.94375,37.5345833 C166.305417,37.2604166 166.754583,37.1233333 167.29125,37.1233333 C167.874583,37.1233333 168.326667,37.2954166 168.6475,37.6395833 C168.968333,37.9837501 169.134583,38.3716666 169.14625,38.8033333 Z M177.7175,44.7883333 C178.5225,44.7883333 179.242917,44.6250001 179.87875,44.2983333 C180.514583,43.9716666 181.036667,43.5400001 181.445,43.0033333 L179.6775,41.6558333 C179.4675,41.9591666 179.19625,42.2070833 178.86375,42.3995833 C178.53125,42.5920833 178.149167,42.6883333 177.7175,42.6883333 C176.9825,42.6883333 176.372917,42.4375001 175.88875,41.9358333 C175.404583,41.4341666 175.1625,40.7983333 175.1625,40.0283333 C175.1625,39.2583333 175.401667,38.6225001 175.88,38.1208333 C176.358333,37.6191666 176.959167,37.3683333 177.6825,37.3683333 C178.1375,37.3683333 178.53125,37.4645833 178.86375,37.6570833 C179.19625,37.8495833 179.4675,38.0975001 179.6775,38.4008333 L181.445,37.0533333 C181.036667,36.5166666 180.514583,36.0850001 179.87875,35.7583333 C179.242917,35.4316666 178.5225,35.2683333 177.7175,35.2683333 C176.959167,35.2683333 176.276667,35.3966666 175.67,35.6533333 C175.063333,35.9100001 174.552917,36.2541666 174.13875,36.6858333 C173.724583,37.1175001 173.406667,37.6220833 173.185,38.1995833 C172.963333,38.7770833 172.8525,39.3866666 172.8525,40.0283333 C172.8525,40.6700001 172.963333,41.2795833 173.185,41.8570833 C173.406667,42.4345833 173.724583,42.9391666 174.13875,43.3708333 C174.552917,43.8025001 175.063333,44.1466666 175.67,44.4033333 C176.276667,44.6600001 176.959167,44.7883333 177.7175,44.7883333 Z M187.04125,44.6133333 C187.402917,44.6133333 187.720833,44.5900001 187.995,44.5433333 C188.269167,44.4966666 188.517083,44.4266666 188.73875,44.3333333 L188.73875,42.3908333 C188.587083,42.4491666 188.40625,42.4958333 188.19625,42.5308333 C187.98625,42.5658333 187.729583,42.5833333 187.42625,42.5833333 C186.994583,42.5833333 186.653333,42.4783333 186.4025,42.2683333 C186.151667,42.0583333 186.02625,41.7083333 186.02625,41.2183333 L186.02625,37.6483333 L188.72125,37.6483333 L188.72125,35.6183333 L186.02625,35.6183333 L186.02625,33.4133333 L183.78625,33.4133333 L183.78625,35.6183333 L182.14125,35.6183333 L182.14125,37.6483333 L183.78625,37.6483333 L183.78625,41.2183333 C183.78625,42.2916666 184.054583,43.1258333 184.59125,43.7208333 C185.127917,44.3158333 185.944583,44.6133333 187.04125,44.6133333 Z" id="S’identifieravecAgentConnect" fill="#FFFFFF" fill-rule="nonzero"></path>
                <g id="Marianne" transform="translate(12.000000, 6.000000)">
                    <g id="Mosaique" fill-rule="nonzero">
                        <path d="M21.4370208,0.103102625 C21.2070099,-0.0343675418 20.7929901,-0.0343675418 20.5629792,0.103102625 L0.414019715,11.69642 C0.184008762,11.8338902 0,12.1546539 0,12.4295943 L0,35.5704057 C0,35.8453461 0.184008762,36.1661098 0.414019715,36.30358 L20.5629792,47.8968974 C20.7929901,48.0343675 21.2070099,48.0343675 21.4370208,47.8968974 L41.5859803,36.30358 C41.8159912,36.1661098 42,35.8453461 42,35.5704057 L42,12.4295943 C42,12.1546539 41.8159912,11.8338902 41.5859803,11.69642 L21.4370208,0.103102625 Z" id="Path" fill="#FFFFFF"></path>
                        <path d="M21,42.5978932 L5.32,33.5656751 C5.13714286,33.4739774 5,33.1988845 5,33.0154892 L5,15.2261459 C5,14.9969018 5.13714286,14.7676577 5.32,14.6759601 L21,5.59789315 L21,42.5978932 Z" id="XMLID_127_" fill="#2E94FA"></path>
                        <path d="M5.04609453,33.1727544 L5,15.2392559 C5,15.0081541 5.1382836,14.7770523 5.32266173,14.6846116 L21,5.59789315 L5.04609453,33.1727544 Z" id="XMLID_125_" fill="#0969C9"></path>
                        <polygon id="Path" fill="#E1000F" points="5.45 14.6078422 10.3000039 24.0978932 15.8890561 14.6997353 11.1314332 11.3178932"></polygon>
                        <path d="M21.0457143,42.5978932 L36.68,33.5768535 C36.8628571,33.4852694 37,33.2105169 37,33.0273486 L37,15.2600219 C37,15.0310615 36.8628571,14.8021011 36.68,14.7105169 L21,5.59789315 L21.0457143,42.5978932 Z" id="XMLID_124_" fill="#0969C9"></path>
                        <path d="M37,33.0978932 L37,15.3796476 C37,15.0978932 37,14.8878712 36.68,14.6978932 L21,5.59789315 L37,33.0978932 Z" id="XMLID_121_" fill="#E1000F"></path>
                        <polygon id="Path" fill="#2E94FA" points="35.9925385 14.2977833 31.46695 23.5899611 26 14.3709428 30.5132743 11.0978932"></polygon>
                    </g>
                    <path d="M26.2388097,14.3523049 C26.6101002,14.5387981 26.9549667,14.77843 27.1937986,15.1514163 C27.2998332,15.3115094 27.4326305,15.6046185 27.3530199,15.8178503 C27.2466465,16.0574822 27.1937986,16.4839457 26.9549667,16.563823 C26.6632869,16.7239161 26.2652337,16.7239161 25.8939432,16.6704389 C25.681874,16.6704389 25.4962288,16.6173002 25.2838209,16.563823 C26.0267405,16.8569321 26.7428975,17.2299185 27.2466465,17.923091 C27.2998332,18.0293684 27.4854784,18.0828456 27.6975476,18.0828456 C27.7507343,18.0828456 27.7507343,18.1894615 27.7507343,18.2426002 C27.6446997,18.3492161 27.5386651,18.4026932 27.591513,18.5357092 L27.7507343,18.5357092 C27.9895662,18.4290934 27.9631422,17.923091 28.30767,18.0828456 C28.5465019,18.2426002 28.6525365,18.5891864 28.5200779,18.8291568 C28.30767,19.0420501 28.1220247,19.1754046 27.9099555,19.3351592 C27.8567689,19.4417751 27.8567689,19.5751295 27.9099555,19.6817454 C28.0691768,19.8949772 28.1220247,20.0814704 28.1484487,20.2947022 C28.30767,20.64095 28.3608566,21.0406749 28.4936539,21.4136613 C28.7057231,22.1599725 28.8913684,22.9326839 28.8381817,23.6789951 C28.8381817,24.0787201 28.6261125,24.4249679 28.7853338,24.8246928 C28.8913684,25.2244178 29.1298615,25.5175269 29.3422694,25.8905132 C29.5543386,26.1839608 29.7399839,26.3968541 29.8992051,26.6903016 C29.9639099,26.8026714 30.0418267,26.9150412 30.1214374,27.0284263 L30.201048,27.1421499 C30.4510593,27.5032901 30.6773568,27.8766149 30.5093275,28.288863 C30.3501062,28.6354493 29.8195945,28.5823106 29.448304,28.7952039 C29.1566242,29.0351743 29.3954561,29.4616378 29.5543386,29.7012697 C29.7931705,30.1544719 29.2626588,30.4475809 28.8913684,30.6073355 C28.997403,30.7674286 29.1830482,30.7139514 29.2358961,30.8205673 C29.2890828,31.0601992 29.5279147,31.2202923 29.3954561,31.4866628 C29.3344778,31.5706016 29.2436878,31.6433712 29.1515427,31.7151254 L29.0824339,31.7692795 C28.8778176,31.9314033 28.7036905,32.1013118 28.8913684,32.3927286 C29.1034375,32.7393148 28.970979,33.1387013 28.8381817,33.5120262 C28.6789604,33.9648899 28.281246,34.1781216 27.9363795,34.2583374 C27.6446997,34.3646148 27.2730705,34.3646148 26.9817294,34.3114761 C26.875356,34.2583374 26.7693215,34.2048602 26.6897108,34.2048602 C25.8407565,34.0982443 24.992141,33.858274 24.1435255,33.858274 C23.9046936,33.9117511 23.6394378,33.9648899 23.4537925,34.0451056 C23.2149606,34.2048602 23.0293154,34.3913534 22.8436702,34.5778466 C22.8172462,34.6313238 22.7640595,34.6577239 22.7376356,34.7112011 C22.7112116,34.7379397 22.6847877,34.7643398 22.6847877,34.7910784 L22.6688656,34.8069861 L22.6471844,34.8286478 C22.6431191,34.8327093 22.6380376,34.8377863 22.631601,34.8442171 C22.4723797,35.0310487 22.3663451,35.2175419 22.2338866,35.4304352 C22.2338866,35.4571738 22.2071239,35.4571738 22.2071239,35.4571738 C22.2071239,35.4839124 22.1806999,35.510651 22.154276,35.5370511 C21.9947159,35.8304987 21.8622574,36.1500079 21.7826467,36.4698555 C21.4377802,37.6155533 21.5970015,38.6018348 21.8358334,38.8418052 C21.9947159,39.0015598 23.9050617,39.5938589 25.5850155,40.1445384 C22.6496756,42.5961349 20.2771629,43.8219332 18.4674773,43.8219332 C15.9684019,43.8219332 11.7769627,42.1611743 5.89315973,38.8396564 C7.31734319,38.8396564 7.11464115,39.4104233 8.44092046,38.7460201 C9.07746678,38.4803266 10.5097807,37.8159234 10.9874445,37.337675 C11.2791243,37.0452429 11.5708041,36.7531492 11.83606,36.4343169 C12.3665717,35.8230525 12.8970835,35.2649268 13.5072058,34.7332012 C13.6928511,34.5741235 13.8784963,34.4143689 14.0641415,34.3080915 C14.1173282,34.2549528 14.1173282,34.1486753 14.1701761,34.0955366 C13.931683,34.2018141 13.7721229,34.3879688 13.5072058,34.4942462 C13.4540191,34.4942462 13.4011712,34.4411075 13.4540191,34.3879688 C13.6396644,34.2549528 13.8253096,34.1222752 13.9845309,33.9892592 L13.9581069,33.9892592 C13.9049202,33.9892592 13.9049202,33.9361205 13.9049202,33.8829818 C13.24195,33.7767044 12.7642861,34.2285526 12.3133851,34.6269238 C12.2073505,34.6804009 12.1013159,34.5741235 12.0748919,34.5741235 C11.3319722,34.8130785 10.7750366,35.4774816 10.0324556,35.7699138 L10.0324556,35.6632979 C9.74077582,35.7699138 9.44875724,35.95573 9.13065346,36.0088687 C8.67975237,36.1151462 8.28169919,36.0620075 7.88398478,36.0620075 C7.27386242,36.1151462 6.66374006,36.2481622 6.05361769,36.3811782 C6.02719374,36.3811782 6.02719374,36.3811782 6.00076978,36.4075783 C5.68232724,36.4871172 5.36422346,36.6201332 5.07220488,36.7795493 L5.04578092,36.8062879 C5.01935696,36.832688 4.99259424,36.8594266 4.96617028,36.8858267 C4.86013569,36.9921042 4.7541011,37.1251202 4.62130379,37.1782589 C4.30320001,37.337675 4.0643681,37.6033686 3.79911224,37.842662 C3.77268828,37.8690622 3.74626433,37.8690622 3.7195016,37.8690622 C3.45424574,38.1350942 3.77268828,37.337675 4.0643681,37.1515203 C4.03794415,37.1515203 3.98475747,37.1251202 4.01118142,37.0987201 C4.03794415,37.0452429 4.0643681,37.0188428 4.09079206,36.965704 C4.09079206,36.9389655 4.09079206,36.9389655 4.11721601,36.9125653 L4.11315079,36.8966576 L4.09519605,36.8749959 C4.0924859,36.8709344 4.09079206,36.8661959 4.09079206,36.8594266 C4.01118142,36.9125653 3.93190956,36.965704 3.85229892,37.0188428 C3.7195016,37.1251202 3.77268828,36.5138557 3.90514683,36.4343169 L3.87872288,36.4343169 C4.0643681,36.327701 4.27677605,36.2214236 4.46242128,36.1151462 L4.54169315,36.0356073 C4.25001333,36.1418848 4.01118142,36.2749008 3.74626433,36.4343169 C3.74626433,36.4343169 3.74626433,36.2481622 3.82587496,36.1686233 C3.87872288,36.1686233 3.93190956,36.1686233 3.93190956,36.2214236 C4.89367379,35.4788355 6.06208691,35.281173 7.2416794,35.1088953 L7.56350963,35.0621874 C8.26069553,34.9603099 8.95551006,34.8509864 9.60797851,34.6269238 C9.76719978,34.5206463 9.89965833,34.4143689 10.0588796,34.3348301 C10.2977115,34.2285526 10.5097807,33.9892592 10.8014605,33.8298431 C11.1995137,33.5374109 11.4911935,33.1654399 11.6504148,32.6871915 C11.6504148,32.6340528 11.5975669,32.5809141 11.5975669,32.5809141 C10.9342578,33.2717174 10.1916769,33.8298431 9.39590933,34.2285526 C8.33488587,34.7866784 7.19425178,34.6804009 6.08038042,34.8398171 C6.13322833,34.7332012 6.23960169,34.7332012 6.31887356,34.7332012 C6.31887356,34.5741235 6.42490815,34.5206463 6.53094274,34.4411075 L6.69050278,34.4411075 C6.74335069,34.4411075 6.74335069,34.3348301 6.79653737,34.3348301 C6.90257196,34.3348301 7.06145447,34.2816914 7.00860656,34.2816914 C6.84938528,34.068798 6.55770546,34.4411075 6.31887356,34.2816914 C6.42490815,34.1754139 6.37206024,34.0423979 6.47809483,33.9892592 L6.69050278,33.9892592 C6.69050278,33.8829818 6.79653737,33.7767044 6.79653737,33.7767044 C7.53911828,33.3248561 8.25527524,32.9796237 8.94466947,32.5809141 C8.78578696,32.5809141 8.70617633,32.7403302 8.54695505,32.6340528 C8.65332842,32.6340528 8.54695505,32.4746367 8.65332842,32.4746367 C9.2102641,32.3152205 9.66116519,32.0227884 10.2181009,31.8102335 C10.0060317,31.8102335 9.87323437,31.9696497 9.66116519,31.8102335 C9.76719978,31.7570948 9.82004769,31.6508174 9.95284501,31.6508174 L9.95284501,31.4914012 C9.95284501,31.4379241 10.0060317,31.4379241 10.0588796,31.4379241 C10.0060317,31.4379241 9.95284501,31.3851238 9.95284501,31.3851238 C10.0060317,31.2785079 10.165253,31.3319851 10.2445248,31.2257077 C10.1916769,31.2257077 10.0856423,31.2257077 10.0856423,31.1722305 C10.2445248,30.9596757 10.4833567,30.9332755 10.7486126,30.8801368 C10.6954259,30.7738594 10.5365434,30.8801368 10.5365434,30.7738594 C10.5365434,30.7281669 10.575163,30.7217361 10.6198805,30.7207207 L10.5365434,30.7207207 C10.4301701,30.667582 10.4833567,30.5613045 10.4833567,30.5078274 C10.7750366,30.162595 10.7750366,29.7107467 10.9342578,29.3120371 C10.8810711,29.3120371 10.8282232,29.3120371 10.8282232,29.2592369 C10.3241355,29.8170241 9.52836787,30.0031788 8.78578696,30.2157337 L8.44092046,30.2157337 C8.20242732,30.3220111 7.8307981,30.3220111 7.59230496,30.162595 C7.37989701,30.0563175 7.30028637,29.9233015 7.08821719,29.7638854 C6.69050278,29.5249304 6.2924496,29.3120371 5.84154851,29.1529594 C4.59487983,28.7542498 3.29536324,28.5413565 1.99550788,28.5948337 C2.55244356,28.3024016 3.16256592,28.275663 3.74626433,28.0898467 C4.59487983,27.8505533 5.39064742,27.531721 6.2924496,27.5848597 C6.13322833,27.531721 5.9475831,27.5848597 5.7887006,27.5848597 C5.09862883,27.531721 4.38281065,27.7442758 3.63989097,27.8772919 C3.1358032,27.9832308 2.68490211,28.1693855 2.1811531,28.275663 C1.88947328,28.3819404 1.73025201,28.6743725 1.38538551,28.6212338 L1.38538551,28.4618177 C1.88947328,27.8505533 2.49959565,27.2660274 3.29536324,27.2128887 C4.19716542,27.0531341 5.04578092,27.2128887 5.9475831,27.3191661 C6.61089214,27.3723049 7.19425178,27.531721 7.85722206,27.664737 C8.09605396,27.664737 8.14924064,28.0631081 8.36130983,28.1162468 C8.65332842,28.2225243 8.97143219,28.1162468 9.26311201,28.3288017 C9.26311201,28.2225243 9.2102641,28.1162468 9.26311201,28.036708 C9.47518119,27.8241531 9.7140131,28.0898467 9.92608228,27.9832308 C10.3241355,27.7442758 9.58155455,27.2924276 9.3691466,26.9204566 C9.3691466,26.8673179 9.42233328,26.8141791 9.42233328,26.8141791 C9.82004769,27.15975 10.1120663,27.5584596 10.6161541,27.8241531 C10.8546472,27.9304306 11.4647696,28.0631081 11.3583962,27.7710144 C11.1199031,27.2128887 10.6161541,26.7610404 10.1916769,26.2560534 L10.1916769,26.0434986 C10.0856423,26.0434986 10.0856423,25.9903599 10.0324556,25.9372212 L10.0324556,25.7246663 C9.82004769,25.6183889 9.87323437,25.4322341 9.79362374,25.272818 C9.63474123,25.033863 9.74077582,24.6615536 9.63474123,24.3694599 C9.52836787,24.0770277 9.47518119,23.8113342 9.42233328,23.518902 C9.26311201,22.6686826 9.07746678,21.9244022 8.97143219,21.1005829 C8.8653976,20.1440861 9.52836787,19.3998056 9.97926896,18.5495862 C10.3241355,17.9383218 10.7221886,17.353796 11.3851589,16.9550864 C11.5443802,16.343822 11.9420946,15.838835 12.339809,15.3605866 C12.7378622,14.8819997 13.4011712,14.5635059 13.8784963,14.3506125 C14.5187691,14.0547958 14.8578765,13.9502107 15.1952901,13.8486717 C15.1973227,13.8479948 15.2024042,13.8466409 15.2044368,13.8456255 C15.6946351,13.630363 22.1312397,12.2765104 25.2573969,13.8456255 C25.3237956,13.8791334 25.3105836,13.8456255 25.5226528,13.97898 C25.7614847,14.1123345 26.0531645,14.2720891 26.2388097,14.3523049 Z M1.95332475,28.9273906 C1.95332475,29.1610303 1.79627715,29.3691881 1.56103989,29.4208139 C1.95332475,29.5247274 2.34560961,29.5247274 2.73822861,29.7067414 C2.68576802,29.8106548 2.58118101,29.7586981 2.52905457,29.7586981 C2.76429183,29.9145682 3.07838703,29.8106548 3.31395843,29.9926688 C3.15691083,30.1485389 3.02626059,29.9926688 2.86921299,29.9926688 C4.41262334,30.4341354 6.0345575,30.7720196 7.31666738,31.7595282 C6.21800246,32.3052392 5.09294018,32.538879 3.91575147,32.7986626 C3.75870387,32.7986626 3.68018007,32.7986626 3.52313246,32.7467059 C3.52313246,32.7986626 3.52313246,32.902576 3.47100603,32.902576 C3.26149785,32.902576 3.13051346,32.902576 2.97380001,33.0064895 C2.79035504,33.1623596 2.50299135,33.2146473 2.34560961,33.0584462 C2.29348317,33.0064895 2.50299135,33.0584462 2.55511779,32.9548637 L2.16283293,32.9548637 C2.11037235,32.9548637 2.11037235,32.902576 2.11037235,32.8509502 C1.87480095,32.902576 1.56103989,33.0064895 1.32546849,33.0584462 C0.98531007,33.1623596 1.14235767,31.4736008 1.37792907,31.3696873 C1.32546849,31.3177306 1.22088147,31.3177306 1.22088147,31.2138172 C1.01170743,31.2138172 0.933183632,30.693919 1.06383387,30.6681061 C1.27300791,30.6161494 1.50857931,30.6161494 1.66562691,30.4602793 C1.32546849,30.4083225 1.22088147,29.1871742 1.79627715,28.8751029 C1.84873773,28.8751029 1.95332475,28.8751029 1.95332475,28.9273906 Z M4.23240081,33.5170177 C3.91501714,33.8425895 3.51828757,33.6944996 3.17490545,33.8425895 C3.0688858,33.8425895 2.88385788,33.9017501 2.93686771,33.7834289 C2.96995664,33.6168748 3.11649335,33.5546996 3.27349697,33.5023218 L3.36803679,33.4714226 C3.43083824,33.4503207 3.49195147,33.4284652 3.5449613,33.3986965 C3.65064331,33.3395359 3.7826614,33.2212147 3.88834341,33.2803753 C3.99402542,33.4578571 4.12638116,33.3986965 4.23240081,33.5170177 Z M2.43219467,26.7097878 C2.37901524,26.7097878 2.32549491,26.7097878 2.27197458,26.6563336 C2.32549491,26.6028794 2.32549491,26.5494252 2.32549491,26.495971 C1.81824491,27.0570699 0.670455425,26.8701504 1.73813486,26.3621652 C2.13868509,26.2018026 2.6455942,26.2552568 3.04614444,26.4156194 C2.88592434,26.6297767 2.6455942,26.575982 2.43219467,26.7097878 Z M26.8601621,23.3698501 C26.813904,23.3795238 26.7673007,23.388864 26.7213878,23.3968699 C26.4783602,23.3968699 26.208061,23.5539847 25.9646882,23.6063563 C25.6132647,23.7110996 25.2891129,23.894567 24.9918873,24.1040535 C25.3429656,23.9469386 25.694389,23.894567 26.1000104,23.8158428 C26.3972359,23.7634712 26.6406087,23.7110996 26.9647606,23.7634712 C27.1808619,23.8158428 27.4784326,23.8158428 27.4784326,23.920586 C27.370382,24.3135399 26.7755857,24.4182831 26.4514338,24.8112371 L26.2891853,24.8112371 C26.1269367,24.9159803 26.1811347,25.1514858 26.0458125,25.1514858 C25.8835639,25.0994477 25.7485869,25.1514858 25.5863384,25.204191 C25.8024396,25.4136774 26.0458125,25.5444397 26.343038,25.4920681 C26.3972359,25.4920681 26.5052865,25.5968113 26.5052865,25.7015545 C26.5052865,25.7015545 26.5594845,25.7015545 26.6133372,25.6491829 C26.6675351,25.6491829 26.7213878,25.6491829 26.7213878,25.7015545 L26.7213878,25.911041 C26.6243839,26.0367996 26.4976919,26.0494755 26.3654766,26.0508098 L26.2764125,26.0511434 C26.2173817,26.051477 26.1576604,26.0541456 26.1000104,26.0681558 C26.5052865,26.1728991 26.9109079,26.1728991 27.2889125,26.0681558 C27.5864832,25.9634126 27.2889125,25.466049 27.505359,25.23021 C27.3973083,25.23021 27.505359,25.0730951 27.3973083,25.0730951 C27.505359,24.9683519 27.6134096,24.8372561 27.6945339,24.7848845 C27.8025845,24.7848845 27.9379067,24.7325128 27.9921046,24.6277696 C27.9921046,24.5230264 27.7756581,24.4706548 27.829856,24.3922641 C28.1270816,24.1827777 28.3973807,23.894567 28.2889849,23.6063563 C28.2351322,23.4492415 27.829856,23.4492415 27.5864832,23.3444982 C27.4180209,23.272112 27.2108951,23.2997989 27.0006624,23.3411625 L26.8601621,23.3698501 Z" id="Fill-1-Copy" fill="#FFFFFF"></path>
                </g>
            </g>
        </g>
    </g>
</svg>