<?xml version="1.0" encoding="utf-8"?>
<!-- Generator: Adobe Illustrator 28.1.0, SVG Export Plug-In . SVG Version: 6.00 Build 0)  -->
<svg version="1.1" xmlns="http://www.w3.org/2000/svg" xmlns:xlink="http://www.w3.org/1999/xlink" x="0px" y="0px"
	 viewBox="0 0 822.047 228.747" enable-background="new 0 0 822.047 228.747" xml:space="preserve">
<g id="INFOS">
	<g>
		<path id="path8_00000139263430063106754600000010202825751872581018_" fill="none" d="M790.393,160.652h7.242v4.91h-24.246
			c-0.066-2.579-0.166-6.06-0.166-8.939c0-5.615,0.797-9.353,3.019-11.575c1.413-1.359,3.325-2.072,5.283-1.971
			c7.004,0,8.909,5.468,8.909,13.267C790.435,157.408,790.409,159.395,790.393,160.652z M785.902,160.652
			c0.025-1.237,0.043-2.795,0.043-3.87c0-3.149-0.095-6.036-1.636-7.576c-0.716-0.707-1.697-1.079-2.702-1.024
			c-0.831-0.014-1.638,0.283-2.263,0.832c-1.537,1.537-1.633,3.772-1.633,7.768c0,1.075,0.017,2.631,0.043,3.87H785.902z"/>
		<path id="path8_00000039836008782413964870000017736603381299410324_" fill="none" d="M814.805,160.652h7.242v4.91h-24.246
			c-0.066-2.579-0.166-6.06-0.166-8.939c0-5.615,0.797-9.353,3.019-11.575c1.413-1.359,3.325-2.072,5.283-1.971
			c7.004,0,8.909,5.468,8.909,13.267C814.847,157.408,814.821,159.395,814.805,160.652z M810.314,160.652
			c0.025-1.237,0.043-2.795,0.043-3.87c0-3.149-0.095-6.036-1.636-7.576c-0.716-0.707-1.697-1.079-2.702-1.024
			c-0.831-0.014-1.638,0.283-2.263,0.832c-1.537,1.537-1.633,3.772-1.633,7.768c0,1.075,0.017,2.631,0.043,3.87H810.314z"/>
	</g>
	<g>
		<path id="path8_00000005232967494200371980000010465188608561547165_" fill="none" d="M142.546,17.17v7.243l-4.91,0V0.166
			C140.215,0.1,143.697,0,146.575,0c5.615,0,9.353,0.797,11.575,3.019c1.359,1.413,2.072,3.325,1.971,5.283
			c0,7.004-5.468,8.909-13.267,8.909C145.79,17.212,143.804,17.186,142.546,17.17z M142.546,12.679
			c1.237,0.025,2.795,0.043,3.87,0.043c3.149,0,6.036-0.095,7.576-1.636c0.707-0.716,1.079-1.697,1.024-2.702
			c0.014-0.831-0.283-1.638-0.832-2.263c-1.537-1.537-3.772-1.633-7.768-1.633c-1.075,0-2.631,0.017-3.87,0.043L142.546,12.679z"/>
		<path id="path8_00000155128175784170209050000012229554073198383753_" fill="none" d="M142.546,41.582v7.243h-4.91l0-24.246
			c2.579-0.066,6.06-0.166,8.939-0.166c5.615,0,9.353,0.797,11.575,3.019c1.359,1.413,2.072,3.325,1.971,5.283
			c0,7.004-5.468,8.909-13.267,8.909C145.791,41.624,143.804,41.598,142.546,41.582z M142.546,37.092
			c1.237,0.025,2.795,0.043,3.87,0.043c3.149,0,6.036-0.095,7.576-1.636c0.707-0.716,1.079-1.697,1.024-2.702
			c0.014-0.831-0.283-1.638-0.832-2.263c-1.537-1.537-3.772-1.633-7.768-1.633c-1.075,0-2.631,0.017-3.87,0.043V37.092z"/>
	</g>
	<g>
		<path id="path8_00000127021833879985141130000013592038299240692352_" fill="none" d="M65.336,197.092v7.243l-4.91,0l0-24.246
			c2.579-0.066,6.06-0.166,8.939-0.166c5.615,0,9.353,0.797,11.575,3.019c1.359,1.413,2.072,3.325,1.971,5.283
			c0,7.004-5.468,8.909-13.267,8.909C68.58,197.134,66.593,197.108,65.336,197.092z M65.336,192.602
			c1.237,0.025,2.795,0.043,3.87,0.043c3.149,0,6.036-0.095,7.576-1.636c0.707-0.716,1.079-1.697,1.024-2.702
			c0.014-0.831-0.283-1.638-0.832-2.263c-1.537-1.537-3.772-1.633-7.768-1.633c-1.075,0-2.631,0.017-3.87,0.043V192.602z"/>
		<path id="path8_00000153702180134105363770000014428173680148100251_" fill="none" d="M65.336,221.505v7.243l-4.91,0l0-24.246
			c2.579-0.066,6.06-0.166,8.939-0.166c5.615,0,9.353,0.797,11.575,3.019c1.359,1.413,2.072,3.325,1.971,5.283
			c0,7.004-5.468,8.909-13.267,8.909C68.58,221.547,66.593,221.521,65.336,221.505z M65.336,217.014
			c1.237,0.025,2.795,0.043,3.87,0.043c3.149,0,6.036-0.095,7.576-1.636c0.707-0.716,1.079-1.697,1.024-2.702
			c0.014-0.831-0.283-1.638-0.832-2.263c-1.537-1.537-3.772-1.633-7.768-1.633c-1.075,0-2.631,0.017-3.87,0.043V217.014z"/>
	</g>
</g>
<g id="LP_identite_numerique_rvb">
	<g>
		<rect fill="none" width="822.047" height="228.747"/>
		<g>
			<g>
				<g>
					<g>
						<g>
							<path fill="#FFCB05" d="M93.49,51.349l42.95,19.524h65.787l5.444-9.449c3.267-5.666-0.678-12.467-6.636-12.467H93.953
								C92.497,48.958,92.146,50.738,93.49,51.349z"/>
							<path fill="#FFCB05" d="M136.442,79.256h107.157c1.24,0,2.439,0.971,2.439,2.419c0,1.28-0.877,2.115-1.761,2.36
								L50.386,136.539c-1.263,0.346-2.152-1.285-1.089-2.132L136.442,79.256z"/>
							<g>
								<path fill="#FFCB05" d="M82.298,136.586l70.346-1.308c6.823-0.127,14.815-4.059,18.462-10.389l8.436-14.642L82.298,136.586z
									"/>
							</g>
						</g>
						<g>
							<g>
								<g>
									<path id="path6_00000034068371187463065150000000408205262632485029_" fill="#FFCB05" d="M89.894,155.448h-5.012
										l-12.688,24.474h5.289l2.272-4.5h15.194l1.492,2.955c0.732,1.45,1.411,1.545,3.315,1.545h2.828L89.894,155.448z
										 M81.966,171.04l5.384-10.664l5.384,10.664H81.966z"/>
									<path id="path8_00000004520143955491896060000013227297966408741815_" fill="#FFCB05" d="M117.259,172.68v7.242h-4.91
										v-24.246c2.579-0.066,6.06-0.166,8.939-0.166c5.615,0,9.353,0.797,11.575,3.019c1.359,1.413,2.072,3.325,1.971,5.283
										c0,7.004-5.468,8.909-13.267,8.909C120.503,172.722,118.516,172.696,117.259,172.68z M117.259,168.189
										c1.237,0.025,2.795,0.043,3.87,0.043c3.149,0,6.036-0.095,7.575-1.636c0.707-0.716,1.079-1.697,1.024-2.702
										c0.014-0.831-0.283-1.638-0.832-2.263c-1.537-1.537-3.772-1.633-7.768-1.633c-1.075,0-2.631,0.017-3.87,0.043V168.189z"/>
									<path id="path10_00000065790594047962160590000007701534720150946964_" fill="#FFCB05" d="M166.766,167.799
										c0,6.948-5.467,12.6-14.653,12.6c-9.186,0-14.653-5.652-14.653-12.6c0-6.948,5.467-12.6,14.653-12.6
										C161.299,155.199,166.766,160.851,166.766,167.799z M152.113,159.607c-5.566,0-9.537,3.226-9.537,8.191
										s3.968,8.191,9.537,8.191c5.569,0,9.537-3.226,9.537-8.191S157.683,159.607,152.113,159.607L152.113,159.607z"/>
									<path id="path12_00000104670540483031483880000011727881976820259252_" fill="#FFCB05" d="M191.579,157.915
										c-2.663-1.662-6.988-2.717-10.258-2.717c-6.164,0-11.008,3.24-11.008,7.748c0,8.491,16.717,5.341,16.717,10.382
										c0,2.056-3.057,2.935-5.67,2.935c-3.489-0.027-6.891-1.093-9.771-3.062l-2.513,3.738c3.046,2.077,7.95,3.46,11.855,3.46
										c6.104,0,11.212-2.845,11.212-7.606c0-8.619-16.641-5.937-16.641-10.611c0-1.979,2.756-2.845,5.73-2.845
										c2.856,0.04,5.641,0.889,8.034,2.448L191.579,157.915z"/>
									<polygon id="polygon14_00000092439648608340538940000003915751334627379846_" fill="#FFCB05" points="217.34,155.658 
										193.902,155.658 193.902,160.164 203.08,160.164 203.08,179.922 207.991,179.922 207.991,160.164 217.34,160.164 									
										"/>
									<path fill="#FFCB05" d="M220.423,155.658v22.519c0,1.012,0.625,1.746,1.754,1.746h19.762v-4.489h-16.606v-5.643h14.829
										v-4.488h-14.829v-5.137h16.165v-4.507H220.423"/>
									<path fill="#FFCB05" d="M57.83,155.658h-4.909v22.519c0,1.012,0.625,1.746,1.755,1.746h14.667l2.329-4.489H57.83V155.658z"
										/>
								</g>
							</g>
						</g>
					</g>
				</g>
				<rect y="0" fill="none" width="295.081" height="228.018"/>
			</g>
			<g>
				<path fill="#0000FF" d="M307.214,92.851h32.37v10.817h-40.141c-2.365,0-4.086-1.337-4.086-4.006V47.583h11.857V92.851z"/>
				<path fill="#0000FF" d="M337.52,68.975l6.811-21.392h12.578l-9.695,21.392H337.52z"/>
				<path fill="#0000FF" d="M368.88,103.668V47.583h11.859v56.085H368.88z"/>
				<path fill="#0000FF" d="M429.853,98.38h-0.24c-2.403,1.977-8.747,6.33-17.225,6.33c-14.439,0-23.637-8.526-23.637-22.194
					c0-11.508,8.88-22.194,24.519-22.194c6.797,0,11.618,2.804,12.899,3.605c1.282,0.802,2.429,1.71,3.445,2.724V41.413h11.538
					v62.255h-11.217L429.853,98.38z M429.612,82.516c0-7.391-6.323-12.98-14.863-12.98c-10.143,0-14.462,6.577-14.462,12.98
					c0,7.197,5.072,12.979,14.462,12.979C422.689,95.495,429.612,90.454,429.612,82.516z"/>
				<path fill="#0000FF" d="M474.48,60.322c13.75,0,24.373,9.662,24.036,23.155c-0.012,0.48-0.107,3.044-0.16,3.525H460.7
					c0.962,2.832,4.307,8.894,14.901,8.894c6.7,0,12.553-2.911,14.904-4.247l4.727,8.333c-3.313,1.602-9.896,4.727-20.271,4.727
					c-18.072,0-26.601-10.408-26.601-22.194C448.36,69.536,459.642,60.322,474.48,60.322z M486.257,78.99
					c-0.321-4.7-4.733-9.855-12.578-9.855c-9.731,0-12.632,6.864-13.38,9.855H486.257z"/>
				<path fill="#0000FF" d="M517.265,66.972c2.034-2.083,7.46-6.65,15.742-6.65c15.717,0,18.231,9.815,18.231,19.31v24.037H539.7
					V81.554c-0.078-2.079,0.554-12.311-9.935-12.018c-10.544,0.295-12.5,9.907-12.5,15.464v18.668h-11.538V61.364h11.217l0.08,5.608
					H517.265z"/>
				<path fill="#0000FF" d="M577.196,94.373c2.328,0,4.618-1.575,5.366-2.163l4.248,9.134c-1.87,1.015-6.627,3.365-12.099,3.365
					c-4.599,0-13.139-0.596-13.139-16.024V71.219h-6.01v-9.855h6.01v-12.98h11.536v12.98h11.698v9.855h-11.698v15.944
					c0,2.137,0.214,3.874,0.641,5.208C574.177,93.706,575.325,94.373,577.196,94.373z"/>
				<path fill="#0000FF" d="M630.634,94.373c2.328,0,4.618-1.575,5.366-2.163l4.248,9.134c-1.87,1.015-6.627,3.365-12.099,3.365
					c-4.599,0-13.139-0.596-13.139-16.024V71.219h-6.01v-9.855h6.01v-12.98h11.536v12.98h11.698v9.855h-11.698v15.944
					c0,2.137,0.214,3.874,0.641,5.208C627.615,93.706,628.764,94.373,630.634,94.373z"/>
				<path fill="#0000FF" d="M589.613,47.662c0-3.643,2.969-6.73,7.052-6.73c3.777,0,7.13,2.757,7.13,6.73
					c0,3.745-3.118,6.73-7.13,6.73C592.748,54.393,589.613,51.478,589.613,47.662z M602.512,103.668h-11.536V61.364h11.536V103.668z
					"/>
				<path fill="#0000FF" d="M588.601,123.917c0-3.643,2.969-6.73,7.052-6.73c3.777,0,7.13,2.757,7.13,6.73
					c0,3.745-3.118,6.73-7.13,6.73C591.735,130.648,588.601,127.733,588.601,123.917z M601.5,179.923h-11.536v-42.304H601.5V179.923
					z"/>
				<g>
					<path fill="#0000FF" d="M666.726,60.322c13.75,0,24.373,9.662,24.036,23.155c-0.012,0.48-0.107,3.044-0.16,3.525h-37.656
						c0.962,2.832,4.307,8.894,14.901,8.894c6.7,0,12.553-2.911,14.904-4.247l4.727,8.333c-3.313,1.602-9.896,4.727-20.271,4.727
						c-18.072,0-26.601-10.408-26.601-22.194C640.606,69.536,651.887,60.322,666.726,60.322z M678.502,78.99
						c-0.321-4.7-4.733-9.855-12.578-9.855c-9.731,0-12.632,6.864-13.38,9.855H678.502z"/>
					<path fill="#0000FF" d="M670.695,53.351h-10.256l7.691-11.938h16.187L670.695,53.351z"/>
				</g>
				<g>
					<path fill="#0000FF" d="M524.103,136.577c13.75,0,24.373,9.662,24.036,23.155c-0.012,0.48-0.107,3.044-0.16,3.525h-37.656
						c0.962,2.832,4.307,8.894,14.901,8.894c6.7,0,12.553-2.911,14.904-4.247l4.727,8.333c-3.313,1.602-9.896,4.727-20.271,4.727
						c-18.072,0-26.601-10.408-26.601-22.194C497.983,145.791,509.264,136.577,524.103,136.577z M535.88,155.245
						c-0.321-4.7-4.733-9.855-12.578-9.855c-9.731,0-12.632,6.864-13.38,9.855H535.88z"/>
					<path fill="#0000FF" d="M528.073,129.607h-10.256l7.691-11.938h16.187L528.073,129.607z"/>
				</g>
				<g>
					<path fill="#0000FF" d="M749.157,136.577c13.75,0,24.373,9.662,24.036,23.155c-0.012,0.48-0.107,3.044-0.16,3.525h-37.656
						c0.962,2.832,4.307,8.894,14.901,8.894c6.7,0,12.553-2.911,14.905-4.247l4.727,8.333c-3.313,1.602-9.896,4.727-20.271,4.727
						c-18.072,0-26.601-10.408-26.601-22.194C723.037,145.791,734.318,136.577,749.157,136.577z M760.934,155.245
						c-0.321-4.7-4.733-9.855-12.578-9.855c-9.731,0-12.632,6.864-13.38,9.855H760.934z"/>
				</g>
				<path fill="#0000FF" d="M353.285,123.837v56.086h-10.897l-35.494-39.42v39.42h-11.537v-56.086h11.537l34.853,38.62v-38.62
					H353.285z"/>
				<path fill="#0000FF" d="M396.871,137.618h11.537v21.954c0,7.479-1.83,12.914-5.488,16.305
					c-3.659,3.393-9.415,5.088-17.266,5.088c-7.852,0-13.609-1.695-17.267-5.088c-3.659-3.391-5.488-8.826-5.488-16.305v-21.954
					h11.537v20.03c0,2.351,0.186,4.527,0.561,6.531c0.373,2.004,1.597,7.572,10.656,7.572c9.17,0,10.353-5.803,10.655-7.572
					c0.344-2.009,0.561-4.179,0.561-6.531V137.618z"/>
				<path fill="#0000FF" d="M475.309,136.577c12.886,0,15.003,8.194,15.624,11.336c0.47,2.38,0.721,5.036,0.721,7.973v24.036
					h-11.538v-22.114c0.208-12.331-6.466-12.017-8.219-12.017c-2.13,0-8.843,0.392-11.013,9.735
					c-0.428,1.843-0.637,3.752-0.637,5.729v18.668h-11.538v-22.114c0.087-11.107-4.996-12.017-8.332-12.017
					c-3.723,0-9.04,1.522-11.017,9.735c-0.442,1.834-0.601,3.752-0.601,5.729v18.668H417.22v-42.305h11.217l0.08,5.609h0.24
					c1.868-1.868,7.449-6.649,15.063-6.649c10.616,0,13.433,5.315,14.502,7.771C460.353,142.106,466.065,136.577,475.309,136.577z"
					/>
				<path fill="#0000FF" d="M566.647,144.99h0.24c5.131-8.413,12.097-8.412,13.861-8.412c1.067,0,4.153,0,7.05,1.12l-4.727,11.217
					c-8.476-2.943-11.977,0.109-13.66,2.725c-1.683,2.616-2.523,6.408-2.523,11.376v16.906h-11.538v-42.305h11.217L566.647,144.99z"
					/>
				<path fill="#0000FF" d="M650.852,174.635c-7.187,5.714-14.288,6.33-17.225,6.33c-17.138,0-23.637-11.275-23.637-22.195
					c0-11.951,9.181-22.193,24.517-22.193c1.443,0,9.723,0,16.345,6.328h0.162l0.078-5.288h11.298v58.891h-11.538V174.635z
					 M650.852,158.77c0-7.645-6.622-12.979-14.903-12.979c-7.885,0-14.422,4.416-14.422,12.979c0,8.66,6.678,12.981,14.422,12.981
					C644.512,171.751,650.852,166.231,650.852,158.77z"/>
				<path fill="#0000FF" d="M705.094,137.618h11.538v21.954c0,7.479-1.83,12.914-5.488,16.305
					c-3.658,3.393-9.414,5.088-17.265,5.088c-7.853,0-13.609-1.695-17.267-5.088c-3.66-3.391-5.489-8.826-5.489-16.305v-21.954
					h11.538v20.03c0,2.351,0.185,4.527,0.561,6.531c0.372,2.004,1.666,7.572,10.656,7.572c8.869,0,10.28-5.569,10.655-7.572
					c0.374-2.004,0.561-4.179,0.561-6.531V137.618z"/>
			</g>
		</g>
	</g>
</g>
</svg>
