<?xml version="1.0" encoding="UTF-8"?>
<svg width="158px" height="36px" viewBox="0 0 158 36" version="1.1" xmlns="http://www.w3.org/2000/svg" xmlns:xlink="http://www.w3.org/1999/xlink">
    <!-- Generator: Sketch 59.1 (86144) - https://sketch.com -->
    <title>fi-laposte@3x</title>
    <desc>Created with Sketch.</desc>
    <defs>
        <linearGradient x1="10.0639093%" y1="40.7044391%" x2="79.4497227%" y2="56.8877996%" id="linearGradient-1">
            <stop stop-color="#F0E63C" offset="0%"></stop>
            <stop stop-color="#E6AF32" offset="100%"></stop>
        </linearGradient>
    </defs>
    <g id="Symbols" stroke="none" stroke-width="1" fill="none" fill-rule="evenodd">
        <g id="boutons-mire-l" transform="translate(-500.000000, -16.000000)" fill-rule="nonzero">
            <g id="boutons-mire-L">
                <g id="fi-copy" transform="translate(472.000000, 0.000000)">
                    <g id="fi-laposte" transform="translate(28.000000, 16.000000)">
                        <g id="Group">
                            <path d="M15.8571429,35.7428571 C10.2857143,35.4857143 4.28571429,33.2571429 1.45714286,28.2 C-1.28571429,23.4 0.171428571,17.4 3.17142857,13.2 C7.97142857,6.34285714 15.9428571,1.97142857 24.0857143,0.514285714 C30.3428571,-0.6 37.3714286,0 42.5142857,4.11428571 C46.0285714,6.85714286 47.5714286,11.5714286 46.6285714,15.8571429 C45.2571429,22.4571429 40.0285714,27.6857143 34.4571429,31.0285714 C28.8,34.2857143 22.2857143,36 15.8571429,35.7428571 Z" id="path3722" fill="url(#linearGradient-1)"></path>
                            <path d="M13.4571429,11.4857143 C14.4857143,11.8285714 17.9142857,13.0285714 19.8,14.3142857 C19.8857143,14.3142857 19.9714286,14.4 19.9714286,14.4 L34.0285714,14.1428571 C34.0285714,14.1428571 34.5428571,13.2 34.8857143,12.6 C35.2285714,11.9142857 35.2285714,11.4 34.8857143,11.0571429 C34.4571429,10.6285714 33.7714286,10.6285714 32.4857143,10.6285714 L13.6285714,10.6285714 C13.4571429,10.6285714 13.1142857,10.6285714 13.0285714,10.8857143 C13.0285714,10.9714286 13.0285714,11.0571429 13.1142857,11.1428571 C13.1142857,11.4 13.2857143,11.4857143 13.4571429,11.4857143 Z" id="path20" fill="#003DA5"></path>
                            <path d="M41.7428571,15.0857143 C41.4,15.0857143 20.8285714,15.4285714 20.4857143,15.4285714 C20.3142857,15.4285714 20.2285714,15.5142857 20.2285714,15.6857143 C20.2285714,17.1428571 18.2571429,18.6 15.5142857,19.8857143 C12.6857143,21.2571429 9.08571429,22.6285714 7.28571429,23.3142857 C6.85714286,23.4857143 6.08571429,23.7428571 5.82857143,23.9142857 C5.65714286,24 5.48571429,24.1714286 5.57142857,24.3428571 C5.65714286,24.5142857 5.82857143,24.6 6.51428571,24.4285714 C6.85714286,24.3428571 7.2,24.2571429 7.54285714,24.1714286 C11.1428571,23.2285714 17.6571429,21.6 24,20.0571429 C30.6,18.4285714 37.0285714,16.9714286 41.8285714,16.1142857 C42.1714286,16.0285714 42.5142857,15.8571429 42.5142857,15.6 C42.5142857,15.1714286 42.1714286,15.0857143 41.7428571,15.0857143 Z" id="path22" fill="#003DA5"></path>
                            <path d="M24.8571429,24.2571429 C24.8571429,24.2571429 25.8,24.2571429 26.4857143,23.9142857 C27.6,23.2285714 28.9714286,22.1142857 31.0285714,19.2 L9.34285714,24.5142857 L24.8571429,24.2571429 Z" id="path24" fill="#003DA5"></path>
                        </g>
                        <g id="exeLAPOSTElogoIDENTITEnumerique_RVB" transform="translate(64.285714, 2.571429)" fill="#0000FF">
                            <polygon id="Path" points="12 15.5142857 12 27 9.77142857 27 2.57142857 18.9428571 2.57142857 27 0.257142857 27 0.257142857 15.5142857 2.57142857 15.5142857 9.68571429 23.4 9.68571429 15.5142857"></polygon>
                            <path d="M20.1428571,18.3428571 L22.4571429,18.3428571 L22.4571429,22.8857143 C22.4571429,25.9714286 21,27.2571429 17.8285714,27.2571429 C14.6571429,27.2571429 13.2,25.9714286 13.2,22.8857143 L13.2,18.3428571 L15.5142857,18.3428571 L15.5142857,22.4571429 C15.5142857,23.4 15.6,24.2571429 16.1142857,24.7714286 C16.4571429,25.1142857 17.0571429,25.2857143 17.8285714,25.2857143 C18.6,25.2857143 19.1142857,25.1142857 19.5428571,24.7714286 C20.0571429,24.2571429 20.1428571,23.4 20.1428571,22.4571429 L20.1428571,18.3428571 L20.1428571,18.3428571 Z" id="Path_1_"></path>
                            <path d="M38.9142857,22.1142857 L38.9142857,27.0857143 L36.6,27.0857143 L36.6,22.5428571 C36.6,21.1714286 36.3428571,20.0571429 34.8857143,20.0571429 C33.1714286,20.0571429 32.4857143,21.6 32.4857143,23.2285714 L32.4857143,27.0857143 L30.1714286,27.0857143 L30.1714286,22.5428571 C30.1714286,21.1714286 29.9142857,20.0571429 28.4571429,20.0571429 C26.7428571,20.0571429 26.0571429,21.6 26.0571429,23.2285714 L26.0571429,27.0857143 L23.7428571,27.0857143 L23.7428571,18.3428571 L26.0571429,18.3428571 L26.0571429,19.4571429 L26.1428571,19.4571429 C26.9142857,18.6 28.0285714,18.0857143 29.2285714,18.0857143 C30.8571429,18.0857143 31.7142857,18.6857143 32.1428571,19.7142857 C33,18.6857143 34.2857143,18.1714286 35.5714286,18.0857143 C38.2285714,18.0857143 38.9142857,19.6285714 38.9142857,22.1142857 Z" id="Path_2_"></path>
                            <path d="M49.8857143,23.5714286 L42.2571429,23.5714286 C42.6857143,24.6857143 43.8,25.3714286 45.2571429,25.3714286 C46.2857143,25.3714286 47.3142857,25.0285714 48.2571429,24.5142857 L49.2,26.2285714 C47.9142857,26.9142857 46.5428571,27.2571429 45.0857143,27.1714286 C41.9142857,27.1714286 39.6857143,25.4571429 39.6857143,22.6285714 C39.6857143,20.0571429 41.9142857,18.0857143 45,18.0857143 C47.4,18.0857143 49.8857143,19.6285714 49.8857143,22.8 C49.9714286,23.0571429 49.9714286,23.4 49.8857143,23.5714286 Z M47.4857143,21.9428571 C47.3142857,20.6571429 46.2,19.8857143 44.9142857,19.8857143 C43.4571429,19.8857143 42.5142857,20.6571429 42.1714286,21.9428571 L47.4857143,21.9428571 Z M45.8571429,16.7142857 L43.8,16.7142857 L45.3428571,14.2285714 L48.6,14.2285714 L45.8571429,16.7142857 Z" id="Shape"></path>
                            <path d="M53.0571429,19.8 L53.0571429,19.8 C53.5714286,18.9428571 54.5142857,18.0857143 55.8857143,18.0857143 C56.4,18.0857143 56.8285714,18.1714286 57.3428571,18.3428571 L56.4,20.6571429 C55.9714286,20.4857143 55.5428571,20.4 55.1142857,20.4 C53.8285714,20.4 53.0571429,21.5142857 53.0571429,23.5714286 L53.0571429,27 L50.7428571,27 L50.7428571,18.3428571 L53.0571429,18.3428571 L53.0571429,19.8 Z" id="Path_3_"></path>
                            <path d="M58.8,14.1428571 C59.5714286,14.1428571 60.1714286,14.7428571 60.1714286,15.5142857 C60.1714286,16.2857143 59.5714286,16.8857143 58.8,16.8857143 C58.0285714,16.8857143 57.4285714,16.2857143 57.4285714,15.5142857 C57.4285714,14.7428571 58.1142857,14.1428571 58.8,14.1428571 Z M60,18.3428571 L57.6857143,18.3428571 L57.6857143,27 L60,27 L60,18.3428571 Z" id="Shape_1_"></path>
                            <path d="M65.7428571,27.2571429 C62.6571429,27.2571429 60.9428571,25.2857143 60.9428571,22.7142857 C60.9428571,20.1428571 62.9142857,18.1714286 65.9142857,18.1714286 C67.1142857,18.1714286 68.4,18.6 69.2571429,19.4571429 L69.2571429,19.4571429 L69.2571429,18.3428571 L71.5714286,18.3428571 L71.5714286,30.4285714 L69.2571429,30.4285714 L69.2571429,25.9714286 C68.2285714,26.7428571 67.0285714,27.1714286 65.7428571,27.2571429 L65.7428571,27.2571429 Z M66.1714286,19.9714286 C64.2857143,19.9714286 63.2571429,21.0857143 63.2571429,22.6285714 C63.2571429,24.1714286 64.3714286,25.2857143 66.1714286,25.2857143 C67.8857143,25.2857143 69.1714286,24.1714286 69.1714286,22.6285714 C69.2571429,21.0857143 67.8857143,19.9714286 66.1714286,19.9714286 L66.1714286,19.9714286 Z" id="Shape_2_"></path>
                            <path d="M79.7142857,18.3428571 L82.0285714,18.3428571 L82.0285714,22.8857143 C82.0285714,25.9714286 80.5714286,27.2571429 77.4,27.2571429 C74.2285714,27.2571429 72.7714286,25.9714286 72.7714286,22.8857143 L72.7714286,18.3428571 L75.0857143,18.3428571 L75.0857143,22.4571429 C75.0857143,23.4 75.1714286,24.2571429 75.6857143,24.7714286 C76.0285714,25.1142857 76.6285714,25.2857143 77.4,25.2857143 C78.1714286,25.2857143 78.6857143,25.1142857 79.1142857,24.7714286 C79.6285714,24.2571429 79.7142857,23.4 79.7142857,22.4571429 L79.7142857,18.3428571 Z" id="Path_4_"></path>
                            <path d="M93,22.8857143 C93,23.0571429 93,23.4 93,23.5714286 L85.3714286,23.5714286 C85.8,24.6857143 86.9142857,25.3714286 88.3714286,25.3714286 C89.4,25.3714286 90.5142857,25.0285714 91.3714286,24.5142857 L92.3142857,26.2285714 C91.0285714,26.9142857 89.6571429,27.2571429 88.2,27.1714286 C85.0285714,27.1714286 82.8,25.4571429 82.8,22.6285714 C82.8,20.0571429 85.0285714,18.0857143 88.1142857,18.0857143 C90.5142857,18.0857143 93,19.7142857 93,22.8857143 Z M90.5142857,21.9428571 C90.3428571,20.6571429 89.2285714,19.8857143 87.9428571,19.8857143 C86.4857143,19.8857143 85.5428571,20.6571429 85.2,21.9428571 L90.5142857,21.9428571 Z" id="Shape_3_"></path>
                            <path d="M2.65714286,10.8857143 L9.25714286,10.8857143 L9.25714286,13.1142857 L1.11428571,13.1142857 C0.857142857,13.1142857 0.685714286,13.0285714 0.514285714,12.8571429 C0.342857143,12.6857143 0.257142857,12.5142857 0.257142857,12.2571429 L0.257142857,1.62857143 L2.65714286,1.62857143 L2.65714286,10.8857143 Z" id="Path_5_"></path>
                            <polygon id="Path_6_" points="9.42857143 6 10.8 1.62857143 13.3714286 1.62857143 11.4 6"></polygon>
                            <polygon id="Path_7_" points="16.7142857 13.1142857 16.7142857 1.62857143 19.1142857 1.62857143 19.1142857 13.1142857"></polygon>
                            <path d="M30.4285714,12.0857143 C29.4,12.8571429 28.2,13.3714286 26.9142857,13.3714286 C23.8285714,13.3714286 22.1142857,11.4 22.1142857,8.82857143 C22.1142857,6.25714286 24.0857143,4.28571429 27.0857143,4.28571429 C28.2857143,4.28571429 29.5714286,4.71428571 30.4285714,5.57142857 L30.4285714,0.428571429 L32.7428571,0.428571429 L32.7428571,13.2 L30.4285714,13.2 L30.4285714,12.0857143 L30.4285714,12.0857143 Z M27.3428571,6.17142857 C25.4571429,6.17142857 24.4285714,7.28571429 24.4285714,8.82857143 C24.4285714,10.3714286 25.5428571,11.4857143 27.3428571,11.4857143 C28.9714286,11.4857143 30.3428571,10.3714286 30.3428571,8.82857143 C30.4285714,7.2 29.0571429,6.17142857 27.3428571,6.17142857 Z" id="Shape_4_"></path>
                            <path d="M45.7714286,9 C45.7714286,9.17142857 45.7714286,9.51428571 45.7714286,9.68571429 L38.1428571,9.68571429 C38.5714286,10.8 39.6857143,11.4857143 41.1428571,11.4857143 C42.1714286,11.4857143 43.2857143,11.1428571 44.1428571,10.6285714 L45.0857143,12.3428571 C43.8,13.0285714 42.4285714,13.3714286 40.9714286,13.2857143 C37.8,13.2857143 35.5714286,11.5714286 35.5714286,8.74285714 C35.5714286,6.17142857 37.8,4.2 40.8857143,4.2 C43.2857143,4.28571429 45.7714286,5.82857143 45.7714286,9 Z M43.2857143,8.05714286 C43.1142857,6.77142857 42,6 40.7142857,6 C39.2571429,6 38.3142857,6.77142857 37.9714286,8.05714286 L43.2857143,8.05714286 Z" id="Shape_5_"></path>
                            <path d="M51,5.57142857 C51.8571429,4.71428571 52.9714286,4.2 54.1714286,4.2 C56.9142857,4.2 57.8571429,5.74285714 57.8571429,8.14285714 L57.8571429,13.1142857 L55.5428571,13.1142857 L55.5428571,8.57142857 C55.5428571,7.02857143 55.0285714,6.08571429 53.4857143,6.08571429 C51.6857143,6.08571429 50.9142857,7.54285714 50.9142857,9.25714286 L50.9142857,13.1142857 L48.6,13.1142857 L48.6,4.45714286 L50.9142857,4.45714286 L51,5.57142857 L51,5.57142857 Z" id="Path_8_"></path>
                            <path d="M66,10.8 L66.8571429,12.6857143 C66.0857143,13.1142857 65.2285714,13.3714286 64.3714286,13.3714286 C62.2285714,13.3714286 61.7142857,12 61.7142857,10.1142857 L61.7142857,6.51428571 L60.5142857,6.51428571 L60.5142857,4.45714286 L61.7142857,4.45714286 L61.7142857,1.8 L64.0285714,1.8 L64.0285714,4.45714286 L66.4285714,4.45714286 L66.4285714,6.51428571 L64.0285714,6.51428571 L64.0285714,9.77142857 C64.0285714,10.6285714 64.1142857,11.2285714 64.8857143,11.2285714 C65.3142857,11.2285714 65.6571429,11.0571429 66,10.8 L66,10.8 Z" id="Path_9_"></path>
                            <path d="M70.8,0.257142857 C71.5714286,0.257142857 72.1714286,0.857142857 72.1714286,1.62857143 C72.1714286,2.4 71.5714286,3 70.8,3 C70.0285714,3 69.4285714,2.4 69.4285714,1.62857143 C69.4285714,0.857142857 70.0285714,0.257142857 70.8,0.257142857 L70.8,0.257142857 Z M72,4.45714286 L69.6857143,4.45714286 L69.6857143,13.1142857 L72,13.1142857 L72,4.45714286 Z" id="Shape_6_"></path>
                            <path d="M80.4,10.8 L81.2571429,12.6857143 C80.4857143,13.1142857 79.6285714,13.3714286 78.7714286,13.3714286 C76.6285714,13.3714286 76.1142857,12 76.1142857,10.1142857 L76.1142857,6.51428571 L74.9142857,6.51428571 L74.9142857,4.45714286 L76.1142857,4.45714286 L76.1142857,1.8 L78.4285714,1.8 L78.4285714,4.45714286 L80.8285714,4.45714286 L80.8285714,6.51428571 L78.4285714,6.51428571 L78.4285714,9.77142857 C78.4285714,10.6285714 78.5142857,11.2285714 79.2857143,11.2285714 C79.7142857,11.2285714 80.1428571,11.0571429 80.4,10.8 Z" id="Path_10_"></path>
                            <path d="M93,9.68571429 L85.3714286,9.68571429 C85.8,10.8 86.9142857,11.4857143 88.3714286,11.4857143 C89.4,11.4857143 90.4285714,11.1428571 91.3714286,10.6285714 L92.3142857,12.3428571 C91.0285714,13.0285714 89.6571429,13.3714286 88.2,13.2857143 C85.0285714,13.2857143 82.8,11.5714286 82.8,8.74285714 C82.8,6.17142857 85.0285714,4.2 88.1142857,4.2 C90.5142857,4.2 93,5.74285714 93,8.91428571 C93,9.17142857 93,9.51428571 93,9.68571429 Z M90.5142857,8.05714286 C90.3428571,6.77142857 89.2285714,6 87.9428571,6 C86.4857143,6 85.5428571,6.77142857 85.2,8.05714286 L90.5142857,8.05714286 Z M88.9714286,2.82857143 L86.9142857,2.82857143 L88.4571429,0.342857143 L91.7142857,0.342857143 L88.9714286,2.82857143 Z" id="Shape_7_"></path>
                        </g>
                    </g>
                </g>
            </g>
        </g>
    </g>
</svg>