<svg width="115" height="44" viewBox="0 0 115 44" fill="none" xmlns="http://www.w3.org/2000/svg">
<path d="M37.7993 34.7583H38.5311L39.6784 38.2989H39.0058L38.4718 36.4198C38.3531 36.044 38.2542 35.6484 38.1553 35.2528H38.1355C38.0366 35.6484 37.9377 36.044 37.8191 36.4198L37.2652 38.2989H36.6323L37.7993 34.7583ZM37.3246 36.855H38.9861V37.3495H37.3246V36.855Z" fill="#0C419A"/>
<path d="M40.0542 38.7932C40.0542 38.5756 40.1926 38.3778 40.43 38.2196V38.1998C40.2915 38.1207 40.1926 37.9624 40.1926 37.7647C40.1926 37.5669 40.3311 37.3691 40.4893 37.2702V37.2504C40.3113 37.1119 40.1333 36.8548 40.1333 36.5383C40.1333 35.9251 40.6278 35.5889 41.1816 35.5889C41.3201 35.5889 41.4586 35.6086 41.5772 35.6482H42.5267V36.1031H42.0322C42.1113 36.202 42.1904 36.3603 42.1904 36.5581C42.1904 37.1515 41.7355 37.468 41.1816 37.468C41.063 37.468 40.9443 37.4482 40.8256 37.3888C40.7465 37.4482 40.6871 37.5273 40.6871 37.646C40.6871 37.8042 40.786 37.8833 41.1223 37.8833H41.597C42.23 37.8833 42.5662 38.0811 42.5662 38.5361C42.5662 39.0701 42.0124 39.4855 41.1421 39.4855C40.5289 39.4855 40.0542 39.2679 40.0542 38.7932ZM41.9926 38.6547C41.9926 38.4569 41.8344 38.3976 41.5179 38.3976H41.1619C41.0234 38.3976 40.9047 38.3778 40.8058 38.358C40.6674 38.4569 40.608 38.5954 40.608 38.7141C40.608 38.9514 40.8652 39.0899 41.2805 39.0899C41.6959 39.0899 41.9926 38.8921 41.9926 38.6547ZM41.6564 36.5383C41.6564 36.202 41.4586 36.0042 41.2014 36.0042C40.9443 36.0042 40.7465 36.202 40.7465 36.5383C40.7465 36.8746 40.9443 37.0724 41.2014 37.0724C41.4586 37.0724 41.6564 36.8746 41.6564 36.5383Z" fill="#0C419A"/>
<path d="M43.1794 34.8175C43.1794 34.5999 43.3377 34.4614 43.575 34.4614C43.7926 34.4614 43.9706 34.5999 43.9706 34.8175C43.9706 35.0153 43.8124 35.1735 43.575 35.1735C43.3574 35.1735 43.1794 35.035 43.1794 34.8175ZM43.2585 35.6482H43.8915V38.3185H43.2585V35.6482Z" fill="#0C419A"/>
<path d="M44.8606 35.6482H45.3749L45.4144 36.1229H45.4342C45.632 35.7669 45.9089 35.5889 46.1858 35.5889C46.3243 35.5889 46.4034 35.6086 46.4825 35.6482L46.3836 36.1823C46.2847 36.1625 46.2254 36.1427 46.1067 36.1427C45.8891 36.1427 45.632 36.2812 45.4738 36.6965V38.3185H44.8408V35.6482H44.8606Z" fill="#0C419A"/>
<path d="M48.1639 36.9737C48.1639 36.1034 48.7573 35.5693 49.3902 35.5693C50.1023 35.5693 50.4979 36.0836 50.4979 36.8352C50.4979 36.9539 50.4781 37.0726 50.4781 37.1319H48.7771C48.8364 37.6067 49.1331 37.8836 49.5683 37.8836C49.8056 37.8836 49.9836 37.8045 50.1814 37.6858L50.399 38.0814C50.1419 38.2594 49.8254 38.3781 49.4891 38.3781C48.7375 38.3781 48.1639 37.8638 48.1639 36.9737ZM49.9639 36.7166C49.9639 36.3012 49.7858 36.0638 49.41 36.0638C49.0935 36.0638 48.8166 36.3012 48.7771 36.7166H49.9639Z" fill="#0C419A"/>
<path d="M51.2693 35.6485H51.7836L51.8232 36.0045H51.8429C52.0803 35.7671 52.3572 35.5693 52.7133 35.5693C53.2869 35.5693 53.5242 35.9649 53.5242 36.6374V38.299H52.8913V36.7166C52.8913 36.2814 52.7726 36.1034 52.4759 36.1034C52.2385 36.1034 52.0803 36.2221 51.8627 36.4396V38.299H51.2298V35.6485H51.2693Z" fill="#0C419A"/>
<path d="M54.2362 38.002L54.5329 37.6064C54.7703 37.7844 55.0077 37.9031 55.2648 37.9031C55.5615 37.9031 55.7 37.7647 55.7 37.5866C55.7 37.3691 55.4032 37.2702 55.1263 37.1515C54.7703 37.013 54.3747 36.8152 54.3747 36.3801C54.3747 35.9251 54.7505 35.5889 55.3439 35.5889C55.7197 35.5889 56.0164 35.7471 56.234 35.9053L55.9571 36.2812C55.7791 36.1427 55.5813 36.0438 55.3637 36.0438C55.0868 36.0438 54.9681 36.1625 54.9681 36.3405C54.9681 36.5581 55.245 36.6372 55.5219 36.7361C55.878 36.8746 56.2933 37.0526 56.2933 37.5471C56.2933 38.002 55.9373 38.3778 55.2648 38.3778C54.889 38.3778 54.4934 38.2196 54.2362 38.002Z" fill="#0C419A"/>
<path d="M56.8472 36.9737C56.8472 36.1034 57.4406 35.5693 58.0736 35.5693C58.7857 35.5693 59.1812 36.0836 59.1812 36.8352C59.1812 36.9539 59.1615 37.0726 59.1615 37.1319H57.4604C57.5197 37.6067 57.8164 37.8836 58.2516 37.8836C58.489 37.8836 58.667 37.8045 58.8648 37.6858L59.0823 38.0814C58.8252 38.2594 58.5087 38.3781 58.1725 38.3781C57.4208 38.3781 56.8472 37.8638 56.8472 36.9737ZM58.6274 36.7166C58.6274 36.3012 58.4494 36.0638 58.0736 36.0638C57.7571 36.0638 57.4802 36.3012 57.4406 36.7166H58.6274Z" fill="#0C419A"/>
<path d="M59.9526 35.6485H60.4669L60.5065 36.0045H60.5263C60.7438 35.7671 61.001 35.5693 61.3372 35.5693C61.7328 35.5693 61.9504 35.7474 62.0691 36.0441C62.3262 35.7671 62.5834 35.5693 62.9196 35.5693C63.4735 35.5693 63.7504 35.9649 63.7504 36.6374V38.299H63.1174V36.7166C63.1174 36.2814 62.979 36.1034 62.702 36.1034C62.524 36.1034 62.346 36.2023 62.1482 36.4396V38.299H61.5153V36.7166C61.5153 36.2814 61.3768 36.1034 61.0999 36.1034C60.9416 36.1034 60.7438 36.2023 60.546 36.4396V38.299H59.9131V35.6485H59.9526Z" fill="#0C419A"/>
<path d="M65.2734 38.0418L65.1943 38.3187H64.6998V34.4814H65.3328V35.4704L65.313 35.9056C65.5306 35.7078 65.8075 35.5693 66.0844 35.5693C66.7569 35.5693 67.1328 36.1034 67.1328 36.9144C67.1328 37.8242 66.5789 38.3583 65.9855 38.3583C65.7679 38.3781 65.5108 38.2594 65.2734 38.0418ZM66.4998 36.9539C66.4998 36.4199 66.3218 36.1034 65.9262 36.1034C65.7284 36.1034 65.5504 36.2023 65.3526 36.4001V37.6462C65.5306 37.8045 65.7284 37.8638 65.8866 37.8638C66.2229 37.8638 66.4998 37.5473 66.4998 36.9539Z" fill="#0C419A"/>
<path d="M67.9239 37.6264V34.4814H68.5569V37.666C68.5569 37.8242 68.636 37.8836 68.6953 37.8836C68.7151 37.8836 68.7547 37.8836 68.7942 37.8638L68.8734 38.3385C68.7942 38.3781 68.6953 38.3979 68.5371 38.3979C68.0822 38.3781 67.9239 38.0814 67.9239 37.6264Z" fill="#0C419A"/>
<path d="M69.4075 36.9737C69.4075 36.1034 70.0009 35.5693 70.6338 35.5693C71.3459 35.5693 71.7415 36.0836 71.7415 36.8352C71.7415 36.9539 71.7217 37.0726 71.7217 37.1319H70.0206C70.08 37.6067 70.3767 37.8836 70.8118 37.8836C71.0492 37.8836 71.2272 37.8045 71.425 37.6858L71.6426 38.0814C71.3854 38.2594 71.069 38.3781 70.7327 38.3781C69.9811 38.3781 69.4075 37.8638 69.4075 36.9737ZM71.1877 36.7166C71.1877 36.3012 71.0096 36.0638 70.6338 36.0638C70.3173 36.0638 70.0404 36.3012 70.0009 36.7166H71.1877Z" fill="#0C419A"/>
<path d="M72.8887 37.5273C72.6513 37.5273 72.4733 37.6856 72.4733 37.9032C72.4733 38.1603 72.6711 38.279 72.8689 38.279C72.8887 38.279 72.9085 38.279 72.9085 38.279C72.9085 38.5559 72.7107 38.813 72.3546 38.9317L72.4931 39.268C73.0271 39.09 73.3436 38.6746 73.3436 38.1405C73.3436 37.7647 73.1854 37.5273 72.8887 37.5273Z" fill="#0C419A"/>
<path d="M75.5194 35.6485H76.0337L76.0733 35.9254H76.093C76.3106 35.7276 76.6073 35.5693 76.904 35.5693C77.5765 35.5693 77.9523 36.1034 77.9523 36.9341C77.9523 37.844 77.3985 38.3781 76.8051 38.3781C76.5677 38.3781 76.3304 38.2792 76.1128 38.0814L76.1326 38.5165V39.3473H75.4996V35.6485H75.5194ZM77.2996 36.9539C77.2996 36.4199 77.1216 36.1034 76.726 36.1034C76.5282 36.1034 76.3502 36.2023 76.1524 36.4001V37.6462C76.3502 37.8045 76.5282 37.8638 76.6864 37.8638C77.0227 37.8638 77.2996 37.5473 77.2996 36.9539Z" fill="#0C419A"/>
<path d="M78.7436 35.6482H79.2579L79.2974 36.1229H79.3172C79.515 35.7669 79.7919 35.5889 80.0688 35.5889C80.2073 35.5889 80.2864 35.6086 80.3655 35.6482L80.2666 36.1823C80.1677 36.1625 80.1084 36.1427 79.9897 36.1427C79.7721 36.1427 79.515 36.2812 79.3568 36.6965V38.3185H78.7238V35.6482H78.7436Z" fill="#0C419A"/>
<path d="M80.6226 36.9737C80.6226 36.0836 81.2358 35.5693 81.8885 35.5693C82.5413 35.5693 83.1544 36.0836 83.1544 36.9737C83.1544 37.8638 82.5413 38.3781 81.8885 38.3781C81.2358 38.3781 80.6226 37.8638 80.6226 36.9737ZM82.5017 36.9737C82.5017 36.4396 82.2643 36.0836 81.8687 36.0836C81.4731 36.0836 81.2358 36.4396 81.2358 36.9737C81.2358 37.5078 81.4731 37.8638 81.8687 37.8638C82.2643 37.8638 82.5017 37.5078 82.5017 36.9737Z" fill="#0C419A"/>
<path d="M83.9456 37.4088V36.1429H83.5698V35.6681L83.9852 35.6484L84.0643 34.9165H84.5786V35.6484H85.2511V36.1429H84.5786V37.4088C84.5786 37.7252 84.6972 37.8835 84.9544 37.8835C85.0533 37.8835 85.1522 37.8439 85.2313 37.8241L85.3302 38.2791C85.1917 38.3186 84.9939 38.378 84.7764 38.378C84.183 38.378 83.9456 37.9824 83.9456 37.4088Z" fill="#0C419A"/>
<path d="M85.7456 36.9736C85.7456 36.1033 86.339 35.5692 86.972 35.5692C87.684 35.5692 88.0796 36.0835 88.0796 36.8351C88.0796 36.9538 88.0598 37.0725 88.0598 37.1318H86.3588C86.4181 37.6065 86.7148 37.8835 87.15 37.8835C87.3873 37.8835 87.5653 37.8043 87.7631 37.6857L87.9807 38.0813C87.7236 38.2593 87.4071 38.378 87.0708 38.378C86.3192 38.378 85.7456 37.8637 85.7456 36.9736ZM87.5258 36.7164C87.5258 36.3011 87.3478 36.0637 86.972 36.0637C86.6555 36.0637 86.3786 36.3011 86.339 36.7164H87.5258ZM86.6357 34.8967L87.4269 33.9473L87.862 34.3626L86.9522 35.1934L86.6357 34.8967Z" fill="#0C419A"/>
<path d="M88.6335 38.7932C88.6335 38.5756 88.772 38.3778 89.0093 38.2196V38.1998C88.8709 38.1207 88.772 37.9624 88.772 37.7647C88.772 37.5669 88.9104 37.3691 89.0687 37.2702V37.2504C88.8907 37.1119 88.7126 36.8548 88.7126 36.5383C88.7126 35.9251 89.2071 35.5889 89.761 35.5889C89.8994 35.5889 90.0379 35.6086 90.1566 35.6482H91.106V36.1031H90.6115C90.6906 36.202 90.7697 36.3603 90.7697 36.5581C90.7697 37.1515 90.3148 37.468 89.761 37.468C89.6423 37.468 89.5236 37.4482 89.4049 37.3888C89.3258 37.4482 89.2665 37.5273 89.2665 37.646C89.2665 37.8042 89.3654 37.8833 89.7016 37.8833H90.1763C90.8093 37.8833 91.1456 38.0811 91.1456 38.5361C91.1456 39.0701 90.5917 39.4855 89.7214 39.4855C89.1082 39.4855 88.6335 39.2679 88.6335 38.7932ZM90.5719 38.6547C90.5719 38.4569 90.4137 38.3976 90.0972 38.3976H89.7412C89.6027 38.3976 89.484 38.3778 89.3851 38.358C89.2467 38.4569 89.1873 38.5954 89.1873 38.7141C89.1873 38.9514 89.4445 39.0899 89.8599 39.0899C90.2752 39.0899 90.5719 38.8921 90.5719 38.6547ZM90.2357 36.5383C90.2357 36.202 90.0379 36.0042 89.7807 36.0042C89.5236 36.0042 89.3258 36.202 89.3258 36.5383C89.3258 36.8746 89.5236 37.0724 89.7807 37.0724C90.0379 37.0724 90.2357 36.8746 90.2357 36.5383Z" fill="#0C419A"/>
<path d="M91.5411 36.9737C91.5411 36.1034 92.1345 35.5693 92.7674 35.5693C93.4795 35.5693 93.8751 36.0836 93.8751 36.8352C93.8751 36.9539 93.8553 37.0726 93.8553 37.1319H92.1543C92.2136 37.6067 92.5103 37.8836 92.9455 37.8836C93.1828 37.8836 93.3608 37.8045 93.5586 37.6858L93.7762 38.0814C93.5191 38.2594 93.2026 38.3781 92.8663 38.3781C92.1147 38.3781 91.5411 37.8638 91.5411 36.9737ZM93.3213 36.7166C93.3213 36.3012 93.1433 36.0638 92.7674 36.0638C92.451 36.0638 92.1741 36.3012 92.1345 36.7166H93.3213Z" fill="#0C419A"/>
<path d="M94.6465 35.6482H95.1608L95.2004 36.1229H95.2202C95.418 35.7669 95.6949 35.5889 95.9718 35.5889C96.1103 35.5889 96.1894 35.6086 96.2685 35.6482L96.1696 36.1823C96.0707 36.1625 96.0114 36.1427 95.8927 36.1427C95.6751 36.1427 95.418 36.2812 95.2597 36.6965V38.3185H94.6268V35.6482H94.6465Z" fill="#0C419A"/>
<path d="M97.9497 36.9737C97.9497 36.0836 98.5827 35.5693 99.2948 35.5693C99.631 35.5693 99.8882 35.7078 100.066 35.866L99.7695 36.2814C99.631 36.1627 99.4926 36.0836 99.3343 36.0836C98.8992 36.0836 98.6025 36.4396 98.6025 36.9737C98.6025 37.5078 98.8992 37.8638 99.3146 37.8638C99.5321 37.8638 99.7101 37.7649 99.8684 37.6264L100.126 38.0418C99.8684 38.2594 99.5519 38.3781 99.2552 38.3781C98.5036 38.3781 97.9497 37.8638 97.9497 36.9737Z" fill="#0C419A"/>
<path d="M100.798 34.4814H101.431V35.4704L101.411 35.9847C101.629 35.7671 101.906 35.5891 102.262 35.5891C102.835 35.5891 103.073 35.9847 103.073 36.6572V38.3187H102.44V36.7363C102.44 36.3012 102.321 36.1232 102.024 36.1232C101.787 36.1232 101.629 36.2419 101.411 36.4594V38.3187H100.778V34.4814H100.798Z" fill="#0C419A"/>
<path d="M103.824 37.5866C103.824 37.013 104.299 36.7163 105.387 36.5976C105.387 36.3207 105.268 36.0636 104.912 36.0636C104.655 36.0636 104.398 36.1823 104.161 36.3207L103.923 35.9054C104.22 35.7273 104.596 35.5493 105.011 35.5493C105.684 35.5493 106 35.9647 106 36.6965V38.2789H105.506L105.466 37.9822H105.446C105.209 38.18 104.932 38.3383 104.616 38.3383C104.141 38.3778 103.824 38.0614 103.824 37.5866ZM105.387 37.6064V37.013C104.655 37.1119 104.418 37.2899 104.418 37.5669C104.418 37.8042 104.576 37.9031 104.794 37.9031C105.031 37.8833 105.189 37.7844 105.387 37.6064Z" fill="#0C419A"/>
<path d="M106.752 36.9737C106.752 36.0836 107.385 35.5693 108.097 35.5693C108.433 35.5693 108.69 35.7078 108.868 35.866L108.572 36.2814C108.433 36.1627 108.295 36.0836 108.136 36.0836C107.701 36.0836 107.405 36.4396 107.405 36.9737C107.405 37.5078 107.701 37.8638 108.117 37.8638C108.334 37.8638 108.512 37.7649 108.67 37.6264L108.928 38.0418C108.67 38.2594 108.354 38.3781 108.057 38.3781C107.306 38.3781 106.752 37.8638 106.752 36.9737Z" fill="#0C419A"/>
<path d="M109.561 37.3099V35.6484H110.194V37.2308C110.194 37.666 110.312 37.844 110.609 37.844C110.846 37.844 111.004 37.7451 111.202 37.4682V35.6484H111.835V38.3187H111.321L111.281 37.9231H111.242C111.004 38.2 110.747 38.3781 110.391 38.3781C109.818 38.3781 109.561 37.9825 109.561 37.3099Z" fill="#0C419A"/>
<path d="M112.745 35.6485H113.259L113.299 36.0045H113.319C113.556 35.7671 113.833 35.5693 114.189 35.5693C114.763 35.5693 115 35.9649 115 36.6374V38.299H114.407V36.7166C114.407 36.2814 114.288 36.1034 113.991 36.1034C113.754 36.1034 113.596 36.2221 113.378 36.4396V38.299H112.745V35.6485V35.6485Z" fill="#0C419A"/>
<path d="M1.79991 22.1387L1.56255 21.9211C1.66145 21.8024 1.74057 21.664 1.76035 21.5255C1.76035 21.3673 1.70101 21.2882 1.62189 21.2882C1.52299 21.2882 1.48343 21.3673 1.42409 21.5255L1.32519 21.7431C1.24607 21.9013 1.10761 22.0596 0.870255 22.0596C0.593337 22.0398 0.395538 21.8024 0.415318 21.4464C0.415318 21.2486 0.514218 21.0706 0.652677 20.9321L0.870255 21.1299C0.791135 21.2288 0.731796 21.3277 0.731796 21.4662C0.731796 21.5849 0.771355 21.6838 0.870255 21.6838C0.969154 21.6838 1.00871 21.5849 1.06805 21.4464L1.16695 21.2486C1.26585 21.0508 1.40431 20.9321 1.62189 20.9519C1.89881 20.9717 2.11638 21.209 2.0966 21.6046C2.05704 21.7431 1.95815 21.9805 1.79991 22.1387Z" fill="#0C419A"/>
<path d="M0.276918 19.7846L0 19.3099L0.257139 19.1516L0.494496 19.6461L0.276918 19.7846ZM0.474717 20.1604L0.632956 19.1318L0.949433 19.1714L0.850534 19.8241L1.18679 19.8637L1.26591 19.3099L1.58239 19.3494L1.50327 19.9032L1.87909 19.9626L1.97798 19.2901L2.29446 19.3296L2.13622 20.378L0.474717 20.1604Z" fill="#0C419A"/>
<path d="M1.52302 18.7164C0.988966 18.5779 0.771387 18.1625 0.870286 17.7472C0.929626 17.5494 1.06808 17.3911 1.20654 17.312L1.38456 17.5692C1.28566 17.6285 1.20654 17.7076 1.18676 17.8263C1.12742 18.0439 1.28566 18.2614 1.60214 18.3406C1.9384 18.4197 2.15598 18.3208 2.21532 18.0834C2.25488 17.945 2.21532 17.8263 2.1362 17.7274L2.41311 17.5889C2.53179 17.7669 2.57135 17.9647 2.51201 18.1625C2.43289 18.5977 2.05708 18.8548 1.52302 18.7164Z" fill="#0C419A"/>
<path d="M2.03734 16.9957L1.20659 16.6792L1.34505 16.3232L2.21536 16.6595C2.51206 16.7781 2.65052 16.7188 2.72964 16.5408C2.78898 16.3628 2.72964 16.2243 2.43294 16.1056L1.56263 15.7694L1.68131 15.4331L2.51206 15.7496C3.02634 15.9474 3.16479 16.2441 3.02634 16.6397C2.8681 17.0551 2.55162 17.1737 2.03734 16.9957Z" fill="#0C419A"/>
<path d="M2.01753 14.6616L2.29445 14.1275C2.45269 13.8111 2.69005 13.6133 3.04608 13.7913C3.38234 13.9693 3.40212 14.2858 3.2241 14.6023L3.1252 14.8001L3.65926 15.077L3.48124 15.4132L2.01753 14.6616ZM2.94718 14.5034C3.04608 14.3253 3.00652 14.2067 2.86806 14.1275C2.72961 14.0484 2.63071 14.1275 2.53181 14.2858L2.45269 14.4638L2.84829 14.6814L2.94718 14.5034ZM3.10542 14.6418L3.00652 14.3056L4.07463 14.266L3.87684 14.6418H3.10542Z" fill="#0C419A"/>
<path d="M2.96701 12.8814L3.16481 12.5649L4.5494 13.455L4.3516 13.7715L2.96701 12.8814Z" fill="#0C419A"/>
<path d="M4.01533 11.8925L3.73842 12.2486L3.48128 12.0508L4.25269 11.042L4.50983 11.2398L4.23291 11.5958L5.30102 12.4068L5.08345 12.7035L4.01533 11.8925Z" fill="#0C419A"/>
<path d="M4.66803 10.5473L5.38011 9.7957L5.61746 10.0133L5.16253 10.488L5.39988 10.7056L5.7757 10.2902L6.01306 10.5078L5.63724 10.9232L5.91416 11.1803L6.38888 10.6858L6.62623 10.9034L5.91416 11.6748L4.66803 10.5473ZM4.70759 10.132L4.74715 9.57812L5.06363 9.59791L4.96473 10.132H4.70759Z" fill="#0C419A"/>
<path d="M7.4372 9.81566L7.45699 9.47941C7.61522 9.47941 7.77346 9.45963 7.87236 9.36073C7.99104 9.26183 8.01082 9.16293 7.95148 9.08381C7.89214 9.00469 7.79324 9.02447 7.635 9.08381L7.41742 9.14315C7.23941 9.20249 7.02183 9.18271 6.88337 8.98491C6.72513 8.76733 6.78447 8.45085 7.04161 8.23328C7.19985 8.1146 7.39764 8.05526 7.59544 8.07504V8.37173C7.45698 8.37173 7.35808 8.39151 7.23941 8.47063C7.14051 8.54975 7.10095 8.64865 7.16029 8.70799C7.21963 8.78711 7.33831 8.74755 7.47676 8.70799L7.69434 8.64865C7.91192 8.58931 8.08994 8.60909 8.2284 8.80689C8.38664 9.02447 8.36686 9.34095 8.05038 9.59809C7.89214 9.75633 7.65478 9.83544 7.4372 9.81566Z" fill="#0C419A"/>
<path d="M8.44604 8.23295C8.16912 7.77802 8.26802 7.34286 8.64384 7.12528C9.01965 6.88792 9.43503 7.0066 9.71195 7.46154C9.98886 7.91647 9.88996 8.35163 9.51415 8.58899C9.15811 8.80657 8.72295 8.68789 8.44604 8.23295ZM9.41525 7.65934C9.23723 7.38242 9.01965 7.28352 8.82185 7.4022C8.62405 7.52088 8.60428 7.75824 8.78229 8.03515C8.96031 8.31207 9.17789 8.43075 9.37569 8.31207C9.55371 8.19339 9.57349 7.93625 9.41525 7.65934Z" fill="#0C419A"/>
<path d="M10.2063 7.20473C9.96899 6.71024 10.1668 6.27508 10.5426 6.09706C10.7404 5.99816 10.9382 6.01794 11.0767 6.07728L10.9975 6.37398C10.8986 6.33442 10.78 6.33442 10.6811 6.37398C10.4833 6.47288 10.4041 6.73002 10.5426 7.02671C10.6811 7.34319 10.9184 7.44209 11.136 7.34319C11.2547 7.28385 11.3338 7.18495 11.3536 7.06627L11.6305 7.20473C11.5712 7.40253 11.4525 7.56077 11.2547 7.63989C10.8789 7.81791 10.4437 7.69923 10.2063 7.20473Z" fill="#0C419A"/>
<path d="M11.6701 5.66165L12.0261 5.54297L12.5998 7.0858L12.2437 7.20447L11.6701 5.66165Z" fill="#0C419A"/>
<path d="M13.1536 5.16751L13.5887 5.04883L14.5184 6.51254L14.1426 6.61143L13.7272 5.8598C13.6481 5.72134 13.5492 5.54332 13.4701 5.38508C13.4701 5.5631 13.4898 5.7609 13.4898 5.93892V6.80923L13.114 6.90813L13.1536 5.16751ZM13.2327 6.13672L14.0041 5.93892L14.0832 6.21584L13.3118 6.41364L13.2327 6.13672Z" fill="#0C419A"/>
<path d="M14.6965 4.79127L15.0723 4.73193L15.2701 6.05718L15.903 5.95828L15.9426 6.27476L14.9338 6.433L14.6965 4.79127Z" fill="#0C419A"/>
<path d="M16.2986 4.57399L17.3272 4.51465L17.347 4.83113L16.6942 4.87069L16.714 5.20694L17.2678 5.16738L17.2876 5.48386L16.7338 5.52342L16.7536 5.89924L17.4459 5.85968L17.4656 6.17616L16.4173 6.2355L16.2986 4.57399Z" fill="#0C419A"/>
<path d="M54.711 29.1209V21.209H56.7879V29.2C56.7879 29.655 56.9857 29.7934 57.1637 29.7934C57.2428 29.7934 57.3022 29.7934 57.4208 29.7737L57.678 31.3363C57.4406 31.4352 57.1044 31.5143 56.6297 31.5143C55.2055 31.5341 54.711 30.5648 54.711 29.1209Z" fill="#0C419A"/>
<path d="M41.3794 26.5889C41.5574 26.0153 43.4167 21.9209 43.4167 21.9209H45.6123V31.3559H43.6343V25.5208L41.9926 29.7537H40.7267L39.0849 25.5208V31.3559H37.1069V21.9209H39.3025C39.3025 21.9209 41.142 26.0153 41.3398 26.5889H41.3794V26.5889Z" fill="#0C419A"/>
<path d="M58.5285 29.3579C58.5285 27.8546 59.7944 27.0041 62.5834 26.7074C62.5438 26.0744 62.1482 25.6986 61.3768 25.6986C60.7834 25.6986 60.19 25.9558 59.5175 26.3514L58.7857 24.947C59.6758 24.3932 60.6845 23.9976 61.7922 23.9976C63.5922 23.9976 64.5812 25.0459 64.5812 27.2415V31.3359H62.6032V30.6436C62.6032 30.6436 61.7922 31.5139 60.645 31.5139C59.3395 31.5337 58.5285 30.5645 58.5285 29.3579ZM62.5834 29.2392V27.9931C61.0999 28.1909 60.5263 28.6656 60.5263 29.1997C60.5263 29.6546 60.8428 29.8919 61.3373 29.8919C61.7922 29.8722 62.2076 29.615 62.5834 29.2392Z" fill="#0C419A"/>
<path d="M47.0562 29.3579C47.0562 27.8546 48.3221 27.0041 51.1111 26.7074C51.0715 26.0744 50.6759 25.6986 49.9045 25.6986C49.3111 25.6986 48.7177 25.9558 48.0452 26.3514L47.3133 24.947C48.2034 24.3932 49.2122 23.9976 50.3199 23.9976C52.1199 23.9976 53.1088 25.0459 53.1088 27.2415V31.3359H51.1309V30.6436C51.1309 30.6436 50.3199 31.5139 49.1727 31.5139C47.8672 31.5337 47.0562 30.5645 47.0562 29.3579ZM51.1111 29.2392V27.9931C49.6276 28.1909 49.054 28.6656 49.054 29.1997C49.054 29.6546 49.3705 29.8919 49.865 29.8919C50.3199 29.8722 50.7353 29.615 51.1111 29.2392Z" fill="#0C419A"/>
<path d="M70.4558 21.209V24.6902C69.981 24.2353 69.5063 23.9979 68.7349 23.9979C67.2514 23.9979 65.8273 25.4221 65.8273 27.7561C65.8273 30.1099 66.9547 31.5143 68.6953 31.5143C69.6448 31.5143 70.3964 30.8022 70.4558 30.7429V31.356H72.5326V21.209H70.4558ZM69.2294 29.7934C68.4184 29.7934 67.9437 29.1605 67.9437 27.7561C67.9437 26.3913 68.5371 25.7583 69.2096 25.7583C69.5854 25.7583 70.0008 25.877 70.4558 26.2133V29.1605C70.0404 29.6154 69.6843 29.7934 69.2294 29.7934Z" fill="#0C419A"/>
<path d="M74.1348 22.0198C74.1348 21.367 74.6491 20.9121 75.3414 20.9121C76.0337 20.9121 76.5479 21.367 76.5479 22.0198C76.5479 22.6725 76.0337 23.1275 75.3414 23.1275C74.6491 23.1275 74.1348 22.6527 74.1348 22.0198ZM74.293 24.1758H76.3699V31.3559H74.293V24.1758Z" fill="#0C419A"/>
<path d="M77.6754 27.7557C77.6754 25.4217 79.1391 23.9976 80.8995 23.9976C82.8973 23.9976 84.005 25.481 84.005 27.4393C84.005 27.8151 83.9654 28.2107 83.9258 28.3887H79.7127C79.8908 29.437 80.6028 29.9117 81.5325 29.9117C82.0665 29.9117 82.5215 29.6942 83.0358 29.3975L83.7478 30.7227C83.0358 31.237 82.0863 31.5337 81.2556 31.5337C79.1787 31.5337 77.6754 30.1491 77.6754 27.7557ZM82.2248 26.9843C82.2248 26.1931 81.7698 25.6195 80.9391 25.6195C80.2864 25.6195 79.8314 26.0744 79.693 26.9843H82.2248Z" fill="#0C419A"/>
<path d="M37.1069 17.2528V9.34082H39.1838V17.3319C39.1838 17.7868 39.3816 17.9253 39.5596 17.9253C39.6388 17.9253 39.6981 17.9253 39.8168 17.9055L40.0739 19.4681C39.8366 19.567 39.5003 19.6461 39.0256 19.6461C37.5817 19.6461 37.1069 18.6967 37.1069 17.2528Z" fill="#0C419A"/>
<path d="M48.1441 17.2328L48.7177 19.4877H50.8737L47.966 10.0527H45.5727L42.665 19.4877H44.821L45.3947 17.2328H48.1441ZM45.8298 15.5713L46.7397 11.9912H46.8188L47.7287 15.5713H45.8298Z" fill="#0C419A"/>
<path d="M51.2891 18.6572L52.2188 17.332C52.8517 17.8265 53.4451 18.0836 54.0385 18.0836C54.6517 18.0836 54.9286 17.8463 54.9286 17.4704C54.9286 16.9957 54.2363 16.7781 53.5045 16.5012C52.6342 16.165 51.6452 15.5716 51.6452 14.3848C51.6452 13.0398 52.7133 12.1299 54.3352 12.1299C55.4033 12.1299 56.2143 12.565 56.8077 13.0398L55.8781 14.3254C55.3836 13.9496 54.8891 13.7123 54.3946 13.7123C53.8605 13.7123 53.5836 13.9298 53.5836 14.2859C53.5836 14.7408 54.2363 14.9188 54.9682 15.1958C55.8583 15.532 56.8671 16.0463 56.8671 17.3518C56.8671 18.6572 55.8583 19.666 53.9792 19.666C53.0693 19.6462 52.0012 19.2506 51.2891 18.6572Z" fill="#0C419A"/>
<path d="M57.5197 18.6572L58.4494 17.332C59.0823 17.8265 59.6757 18.0836 60.2691 18.0836C60.8823 18.0836 61.1592 17.8463 61.1592 17.4704C61.1592 16.9957 60.4669 16.7781 59.7351 16.5012C58.8647 16.165 57.8758 15.5716 57.8758 14.3848C57.8758 13.0398 58.9439 12.1299 60.5658 12.1299C61.6339 12.1299 62.4449 12.565 63.0383 13.0398L62.1086 14.3254C61.6141 13.9496 61.1196 13.7123 60.6252 13.7123C60.0911 13.7123 59.8142 13.9298 59.8142 14.2859C59.8142 14.7408 60.4669 14.9188 61.1988 15.1958C62.0889 15.532 63.0976 16.0463 63.0976 17.3518C63.0976 18.6572 62.0889 19.666 60.2098 19.666C59.2999 19.6462 58.2318 19.2506 57.5197 18.6572Z" fill="#0C419A"/>
<path d="M72.2557 12.3076H74.3326V13.3362C74.7282 12.545 75.6974 12.2681 76.1919 12.2681C76.5875 12.2681 76.8248 12.3274 77.0226 12.4065L76.805 14.345C76.5281 14.2658 76.2116 14.1274 75.9149 14.1274C75.104 14.1472 74.3919 14.8394 74.3326 15.7493V19.4877H72.2557V12.3076V12.3076Z" fill="#0C419A"/>
<path d="M85.073 12.3079H87.1499V13.2178C87.7433 12.6442 88.3367 12.1299 89.3059 12.1299C90.829 12.1299 91.4817 13.2376 91.4817 15.0177V19.4682H89.4048V15.2749C89.4048 14.2463 89.1279 13.9101 88.5345 13.9101C88.0202 13.9101 87.6246 14.1672 87.1697 14.6024V19.4484H85.0928V12.3079H85.073Z" fill="#0C419A"/>
<path d="M98.6816 15.8881C98.6816 13.554 100.145 12.1299 101.906 12.1299C103.903 12.1299 105.011 13.6134 105.011 15.5716C105.011 15.9474 104.972 16.343 104.932 16.521H100.719C100.897 17.5693 101.609 18.0441 102.539 18.0441C103.073 18.0441 103.528 17.8265 104.042 17.5298L104.754 18.855C104.042 19.3693 103.092 19.666 102.262 19.666C100.205 19.6462 98.6816 18.2616 98.6816 15.8881ZM103.251 15.1166C103.251 14.3254 102.796 13.7518 101.965 13.7518C101.312 13.7518 100.857 14.2068 100.719 15.1166H103.251Z" fill="#0C419A"/>
<path d="M77.4776 17.4902C77.4776 15.987 78.7435 15.1364 81.5325 14.8397C81.4929 14.2068 81.0973 13.8309 80.3259 13.8309C79.7325 13.8309 79.1391 14.0881 78.4666 14.4837L77.7347 13.0793C78.6248 12.5255 79.6336 12.1299 80.7413 12.1299C82.5412 12.1299 83.5302 13.1782 83.5302 15.3738V19.4682H81.5523V18.7759C81.5523 18.7759 80.7413 19.6462 79.594 19.6462C78.2886 19.6462 77.4776 18.6968 77.4776 17.4902ZM81.5325 17.3715V16.1254C80.049 16.3232 79.4754 16.7979 79.4754 17.332C79.4754 17.7869 79.7918 18.0243 80.2863 18.0243C80.7611 18.0045 81.1764 17.7474 81.5325 17.3715Z" fill="#0C419A"/>
<path d="M41.9135 9.30127C41.4783 9.30127 40.8849 9.63753 40.8849 10.2309C40.8849 10.765 41.3003 11.0815 41.7355 11.0815C41.7552 11.0815 41.775 11.0815 41.7948 11.0815C41.775 11.7144 41.2014 12.0704 40.9245 12.2287L41.4783 13.0001C43.2981 12.4265 43.6739 9.32105 41.9135 9.30127Z" fill="#0C419A"/>
<path d="M68.458 12.3081V17.0553C68.0427 17.6289 67.7262 17.8465 67.2119 17.8465C66.6185 17.8465 66.3416 17.53 66.3416 16.4817V12.3081H64.2647V16.8377C64.2647 18.5388 64.9966 19.6662 66.4801 19.6662C67.8251 19.6662 68.4976 18.7563 68.4976 18.7563V19.4882H70.5547V12.3081H68.458Z" fill="#0C419A"/>
<path d="M96.3081 17.9454C95.3982 17.9454 94.7257 17.1344 94.7257 15.9081C94.7257 14.6619 95.3784 13.851 96.3674 13.851C96.6839 13.851 96.9608 13.9696 97.2773 14.2466L98.2663 12.8818C97.752 12.4466 97.0993 12.1499 96.2487 12.1499C94.3103 12.1499 92.6092 13.5345 92.6092 15.9081C92.6092 18.2817 94.0927 19.6662 96.0509 19.6662C96.8223 19.6662 97.6927 19.4289 98.3652 18.8157L97.6135 17.3718C97.2179 17.708 96.7828 17.9454 96.3081 17.9454Z" fill="#0C419A"/>
<path d="M18.9885 9.40019C18.949 9.32107 18.8105 9.26173 18.7116 9.24195C18.5929 9.22217 18.5336 9.22217 18.5336 9.22217C18.3951 9.18261 15.6457 9.22217 14.993 9.65732C14.9337 9.22217 14.7754 8.68811 14.0238 8.52987C13.4897 8.41119 12.3425 8.92547 12.7183 10.0727C12.7777 10.2705 12.9161 10.409 13.1139 10.5079C13.2128 10.5672 13.3711 10.5276 13.4897 10.8441C13.5293 10.9232 13.5886 10.9232 13.648 10.9035C13.6875 10.8837 13.7073 10.9035 13.7667 10.943C13.826 10.9826 13.8656 10.9628 13.8656 10.9628C13.8656 10.9628 13.8853 10.9826 13.9249 10.9826C13.9447 10.9826 14.0238 10.9628 14.0238 10.9826C14.2414 11.1606 14.4985 10.8837 14.5974 10.7057C14.6963 11.0024 14.9535 11.7738 14.9535 11.7738C14.8743 11.6946 14.004 11.4573 13.5886 11.9122C13.2326 12.3078 12.9557 12.8617 12.659 13.7913C12.5799 14.0484 12.4216 14.1671 12.1249 14.2858C11.6502 14.4638 11.9271 14.6814 12.0458 14.7012C12.3425 14.7605 13.015 14.721 13.1535 14.6616C13.3315 14.5825 13.193 14.1671 13.3908 13.91C13.5689 13.6924 13.7073 13.4946 13.826 13.3562C13.826 13.6529 13.826 13.8111 13.6678 14.1869C13.5293 14.5429 13.0941 14.721 12.9557 14.8792C12.7183 15.1759 13.2524 15.1957 13.3908 15.1561C13.7469 15.0374 13.9842 15.0374 14.1227 14.9583C14.3205 14.8396 14.182 14.5232 14.2414 14.4045C14.4194 14.0484 15.0326 13.277 15.1117 13.1584C15.1315 13.1386 15.1315 13.1188 15.1315 13.099C15.5666 13.2375 16.0611 13.277 16.2391 13.2573C17.2479 13.1386 17.4655 12.4265 17.3666 11.8529C17.2677 11.3386 16.9512 11.0221 16.8523 10.8639C16.5952 10.4485 16.4369 10.2309 16.338 10.1123C16.6347 10.0331 18.2369 9.59798 18.2369 9.61776C18.2962 9.75622 18.4347 9.776 18.4743 9.81556C18.5732 9.8749 18.6325 9.776 18.5929 9.75622C18.5138 9.69688 18.494 9.65732 18.494 9.65732C18.6325 9.65732 18.7512 9.6771 18.8501 9.6771C19.0083 9.69688 19.0677 9.45953 18.9885 9.40019Z" fill="#0C419A"/>
<path fill-rule="evenodd" clip-rule="evenodd" d="M33.2893 19.0922C33.0322 17.7076 31.7465 16.8571 31.074 16.5604C30.6191 16.3626 30.4213 16.323 30.3421 16.3033C30.2432 16.2637 30.1641 16.2439 30.1246 16.2242C30.1641 15.9275 30.5202 15.9077 30.7377 15.4725C31.3311 14.2462 30.1048 13.3956 29.2147 13.5934C28.7795 13.6923 28.5026 13.8308 28.4235 14.167C28.3839 14.3451 28.2455 14.3451 28.0279 14.5824C27.9488 14.6615 28.107 14.7802 28.1466 14.8396C28.1466 14.8593 28.107 14.9187 28.0872 14.9978C28.0675 15.0769 28.0872 15.0571 28.0872 15.0769C28.0872 15.0769 28.0477 15.156 28.0477 15.2549C28.0477 15.2549 27.9488 15.4527 28.0477 15.6703C28.0675 15.7297 28.1861 15.8483 28.2257 16.1253C28.2257 16.1648 28.2257 16.1846 28.0675 16.1253C28.0279 16.1055 26.3862 15.6308 26.2082 15.5121C26.0104 15.3736 24.3884 13.6132 24.2104 13.277C24.1115 13.0792 24.0126 12.9605 23.9533 12.9605C23.5774 12.9803 24.2302 13.6726 23.8544 13.4352C23.7555 13.3759 23.4785 13.1781 23.4588 13.1583C23.3796 13.0989 23.3994 13.1187 23.3599 13.0396C23.3203 12.9605 23.2807 12.9011 23.2412 12.8814C23.2016 12.8616 23.1818 12.8418 23.1423 12.8418C23.0829 12.8616 23.1027 12.9011 23.0829 12.9011C23.0829 12.9011 23.0434 12.9011 23.0236 12.9011C22.9247 12.9209 23.0038 13.1583 23.0236 13.277C23.0236 13.2967 23.2807 13.9099 23.3599 14.0088C23.7752 14.2857 24.1708 14.5429 24.1906 14.5429C24.6456 15.0571 25.1598 15.7099 25.6345 16.2044C26.0104 16.6 27.7114 17.589 27.751 17.6087C27.8697 17.6681 28.0477 18.0439 27.7905 20.6351C27.6916 21.6043 26.9994 23.6812 27.3356 24.7493C27.5532 25.4416 27.7905 25.9163 28.0477 27.8151C28.107 28.2305 27.7708 28.5074 27.2961 28.8437C27.118 28.9822 26.584 29.2986 26.5444 29.3382C26.4653 29.4173 26.5444 29.536 26.6433 29.5953C26.762 29.6349 26.9598 29.7536 27.0785 29.7733C27.2763 29.8129 27.573 29.7931 27.8894 29.6151C28.2257 29.4173 28.2653 29.3975 28.4631 29.2591C28.7004 29.1206 28.9773 29.0811 29.0565 28.8437C29.1554 28.5272 28.8784 28.0723 28.918 27.8745C29.1158 26.391 29.3729 25.6591 28.9971 24.7493C28.918 24.5712 29.5312 22.5933 29.5905 22.8504C29.6894 23.3647 29.729 24.9273 29.7488 26.0745C29.7488 26.5888 30.1641 28.369 30.3026 29.0217C30.5004 30.0107 28.8389 30.8019 29.1949 31.0986C29.274 31.1579 29.4916 31.2568 29.6894 31.2964C29.9268 31.336 30.1048 31.2964 30.3026 31.2173C30.4213 31.1777 30.5993 30.9601 30.6388 30.9206C30.9949 30.4854 30.8762 30.6041 31.1729 30.2876C31.4103 30.0107 31.2322 29.536 31.2125 29.2986C31.1531 28.8041 31.2125 28.6657 31.1927 27.7558C31.1927 26.7075 31.252 26.4108 31.3114 26.0152C31.5685 24.2745 31.7267 23.3251 31.8256 22.5933V22.5537C31.8256 22.5537 31.9443 22.5933 32.0037 22.5141C32.1026 22.3559 32.0828 22.2174 32.1026 22.1185C32.1223 22.0196 32.1619 22.1383 32.1619 22.1383C32.1619 22.1383 32.241 22.3757 32.241 22.4548C32.241 22.5735 32.1619 22.7119 32.1026 22.89C32.0432 23.0878 32.2015 23.1075 32.241 23.1273C32.2806 23.1471 32.7948 22.7713 32.874 22.6328C32.9531 22.4746 32.9333 22.2768 32.9531 22.1779C32.9729 21.9207 32.8146 21.1889 32.8146 21.1889C32.9333 20.6944 33.3685 19.4483 33.2893 19.0922ZM32.1026 21.09C32.0432 21.3273 32.0234 21.1098 31.8059 22.0196L31.8256 21.8812C31.8256 21.7625 31.8256 21.624 31.8256 21.4856C31.8256 20.3581 30.9553 17.945 31.4894 18.4395C31.4894 18.4395 32.1223 18.8746 32.241 19.2109C32.3399 19.5076 32.3201 20.2197 32.1026 21.09Z" fill="#0C419A"/>
<path d="M10.9579 23.8001C10.7601 23.6221 10.0679 22.6924 9.6327 22.3166C9.336 22.0001 9.25688 21.8419 9.01952 21.5056C8.20855 20.4375 8.03053 20.3584 7.4767 20.2793C7.35802 20.2002 7.39758 20.1211 7.41736 20.1013C8.14921 19.8244 7.91185 19.1914 7.89207 19.1716C7.85251 19.0332 7.95141 18.9738 7.95141 18.8354C7.95141 18.6178 7.91185 18.4595 7.85251 18.3013C7.87229 18.2024 7.89207 18.0639 7.79317 17.9255C7.39758 17.431 6.40858 17.4112 5.89431 17.7475C5.47893 18.0244 5.71629 18.2222 5.59761 18.6376C5.51849 18.8749 5.59761 19.0925 5.75585 19.2705C5.77563 19.409 6.19101 19.6661 6.11189 19.943C6.03277 20.2397 5.55805 20.2991 5.55805 20.2991C5.49871 20.3189 5.45915 20.3386 5.41959 20.3584C4.66796 20.7936 3.9361 21.4265 3.8372 22.099C3.87676 22.6529 4.74708 23.4638 5.30091 23.899C5.38003 24.8484 5.97343 26.2924 6.01299 26.3517C6.09211 26.5297 5.83497 26.2132 5.24157 26.0154C4.94487 25.9165 4.56906 25.521 4.47016 25.9957C4.4306 26.1935 4.50972 26.5297 4.3317 26.9649C4.19324 27.2814 4.35148 27.7956 4.70752 27.7956C4.96466 27.7956 5.12289 27.0044 5.12289 27.0044C5.12289 27.0044 6.36902 27.6176 6.96242 27.4198C7.31846 27.3011 7.39758 25.9165 7.04154 24.6704C6.92286 24.2353 7.25912 25.3825 8.08987 26.3715C8.26789 26.5891 8.10965 26.7671 8.22833 27.5978C8.26789 27.9143 8.26789 27.9934 8.26789 28.1319C8.24811 28.5275 7.87229 29.0022 8.74261 29.2198C9.6327 29.4571 9.55358 29.6549 10.1074 29.2791C10.3646 29.1209 9.336 29.0022 9.1382 28.4088C9.1382 28.389 9.11842 28.3099 9.11842 28.2704C9.09864 27.7956 9.31622 26.7077 9.2371 26.3121C8.92062 24.4331 8.12943 23.5627 8.03053 23.1276C8.03053 21.8221 7.93163 21.4067 8.05031 21.7034C8.07009 21.7628 8.34701 22.2177 8.62393 22.5738C8.64371 22.6133 8.68326 22.6529 8.72282 22.6924C8.80194 22.7913 8.88106 22.8705 8.96018 22.91C9.51402 23.3847 10.3843 23.9583 10.503 24.077C10.503 24.077 10.5624 24.6506 10.7997 24.6111C11.0173 24.5715 12.0656 24.1166 12.0458 23.9979C12.0063 23.8397 10.9777 23.8397 10.9579 23.8001ZM5.26135 23.088C5.10311 22.7913 4.66796 22.2177 4.70752 22.1188C4.94488 21.7232 5.20201 21.6045 5.28113 21.6243C5.34047 21.6441 5.26135 23.088 5.26135 23.088Z" fill="#0C419A"/>
<path d="M28.285 34.4412C28.2455 34.4214 27.6323 34.184 27.0785 33.3137C26.8411 32.9181 25.0016 29.5358 24.7642 28.8831C24.2697 27.5776 20.4127 25.2238 20.2544 25.0853C20.1357 24.9864 20.1555 24.7688 20.1951 24.6106C20.5116 23.5029 20.3929 22.5337 20.4522 22.3755C20.6105 21.9997 20.8478 21.4656 20.6698 21.1096L20.2742 20.4766C20.2742 20.4766 22.3115 21.2085 22.7862 21.1096C23.2016 21.0305 25.2389 19.6063 25.3576 19.547C25.6345 19.4085 26.3268 19.6063 27.0191 18.8547C27.2763 18.5778 27.0983 18.4788 27.0389 18.5184C27.0587 18.4986 26.9202 18.38 26.8016 18.4591C26.6433 18.558 26.0697 18.7162 26.1686 18.6371C26.584 18.3206 26.2873 18.2415 26.2873 18.2415C26.1093 18.3997 25.2983 18.5975 25.1203 18.736C24.9422 18.8942 24.8038 19.0129 24.7247 19.0722C24.2302 19.3492 23.3796 19.7645 22.5291 19.9623C22.3511 20.0019 20.7291 18.9338 19.7797 18.7953C19.2654 18.7162 19.0874 18.7558 18.8105 18.8349C18.4742 18.9338 18.494 18.4393 18.7512 18.3206C18.8896 18.2613 19.1072 18.2217 19.1863 18.0635C19.2852 17.8657 19.1665 17.6877 19.1665 17.6481C19.1665 17.6283 19.1863 17.6085 19.1468 17.5294C19.127 17.4701 19.127 17.5096 19.127 17.4503C19.127 17.4107 19.1072 17.3712 19.0874 17.3316C19.0874 17.3118 19.0874 17.2327 19.1072 17.2129C19.305 17.0547 19.2259 16.9756 19.1863 16.9558C19.127 16.8965 18.8303 16.7778 18.8105 16.58C18.7709 16.2635 18.6523 16.1053 18.6127 15.947C18.5929 15.8877 18.5534 15.5119 18.3951 15.3734C18.1973 15.1954 17.7819 14.9778 16.8721 15.2152C16.5754 15.2943 16.6347 15.4328 15.9226 15.5712C15.0523 15.7295 14.5776 17.0151 14.6567 17.5492C14.7161 17.9844 15.0919 17.7668 15.0721 17.9646C15.0523 18.2613 15.0128 18.7558 15.6457 18.9338C15.7842 18.9733 16.6149 18.8349 16.9314 18.8942C16.9314 18.8942 17.1885 18.914 17.0501 19.1711C16.9908 19.2898 16.16 19.6261 15.9424 19.7052C15.4084 19.9228 14.004 22.2172 13.5886 22.4348C13.2326 22.6128 13.015 22.7513 12.8765 22.8502C12.3029 23.2062 11.7491 23.6612 11.4326 23.6414C11.0172 23.6216 10.681 23.8194 10.4041 24.4326C10.3249 24.6106 10.3645 24.7095 10.5227 24.7491C10.5821 24.8084 10.6612 24.8875 10.7799 24.8875C10.8986 25.0062 11.037 24.9271 11.1557 24.8677C11.4722 24.6897 11.5513 24.5513 11.67 24.5117C11.9865 24.4128 13.8458 23.6809 14.2611 23.3645C14.8941 23.0282 16.16 21.7227 16.4369 21.703C16.6941 21.6832 17.327 22.2568 17.1292 23.3645C17.0699 23.7403 16.5952 24.4128 16.338 24.8084C15.8237 25.5798 16.2193 26.2721 16.1204 26.4303C15.5864 27.3007 14.9336 28.4677 13.826 29.4567C13.3908 29.7336 12.5007 29.7929 12.0062 29.9314C10.8986 30.2479 9.73155 31.0391 8.90079 31.5138C8.62388 31.672 8.36674 31.3358 8.0107 31.2962C7.67444 31.2566 7.63488 31.7907 7.45687 32.2654C7.39753 32.4039 7.37775 32.483 7.12061 33.0764C7.02171 33.3137 6.74479 34.006 7.02171 34.3027C7.27885 34.6588 7.87224 33.5511 8.34696 33.017C8.58432 32.7401 8.74255 32.6412 9.27661 32.5225C9.61287 32.4434 12.3227 31.7116 14.1029 31.316C14.1425 31.316 14.2018 31.2962 14.2414 31.2764C16.5556 30.683 18.949 27.6567 18.9885 27.6765L22.9247 29.6149C23.3203 29.8325 23.3203 30.5841 23.795 31.4742C24.0719 32.0083 24.4873 32.4632 26.1686 34.1049C26.3862 34.3225 26.2082 34.6588 26.3071 34.995C26.406 35.3511 26.584 35.3511 26.9005 35.3313C27.1972 35.3115 27.4543 35.2522 27.751 35.2324C28.1268 35.2126 28.0279 35.2522 28.4631 35.3115C28.6806 35.3511 29.1554 35.4104 29.5114 35.0741C30.1246 34.4214 28.8784 34.7379 28.285 34.4412Z" fill="#0C419A"/>
<path d="M24.0325 32.7404C23.9731 32.6217 23.8347 32.5821 23.716 32.6415C22.0347 33.492 20.1556 33.9469 18.2567 33.9469C16.1403 33.9469 14.0634 33.3931 12.2437 32.3448C12.125 32.2854 11.9865 32.325 11.9074 32.4239C11.8481 32.5426 11.8876 32.681 11.9865 32.7602C13.8854 33.848 16.0414 34.4217 18.237 34.4217C20.2149 34.4217 22.1732 33.9469 23.9138 33.0568C24.0522 32.9975 24.0918 32.8591 24.0325 32.7404Z" fill="#0C419A"/>
<path d="M7.04156 17.0153C7.002 17.0153 6.98222 17.0153 6.94266 16.9955C6.82398 16.9362 6.76464 16.7977 6.82398 16.6791C7.91188 14.3055 9.67228 12.3473 11.9272 11.022C12.0459 10.9627 12.1843 11.0022 12.2634 11.1011C12.3228 11.2198 12.2832 11.3583 12.1843 11.4374C10.0085 12.7033 8.30747 14.5824 7.27892 16.8769C7.21958 16.9758 7.14046 17.0153 7.04156 17.0153Z" fill="#0C419A"/>
<path d="M27.4741 13.9498C27.4148 13.9498 27.3357 13.93 27.2961 13.8707C25.3972 11.7147 22.7863 10.3103 19.9578 9.91474C19.8193 9.89496 19.7402 9.77628 19.76 9.63782C19.7798 9.49936 19.8984 9.42024 20.0369 9.44002C22.9841 9.8554 25.6939 11.3191 27.6719 13.5542C27.751 13.6531 27.751 13.8114 27.6521 13.8905C27.5928 13.93 27.5335 13.9498 27.4741 13.9498Z" fill="#0C419A"/>
</svg>
