<?xml version="1.0" encoding="UTF-8"?>
<svg width="118px" height="45px" viewBox="0 0 118 45" version="1.1" xmlns="http://www.w3.org/2000/svg" xmlns:xlink="http://www.w3.org/1999/xlink">
    <!-- Generator: Sketch 59.1 (86144) - https://sketch.com -->
    <title>fi/logo</title>
    <desc>Created with Sketch.</desc>
    <g id="Mire-temporaire" stroke="none" stroke-width="1" fill="none" fill-rule="evenodd">
        <g id="FC---Mire-temporaire---Alicem-1-Survol" transform="translate(-656.000000, -424.000000)">
            <g id="boutons-mire-L" transform="translate(364.000000, 416.000000)">
                <g id="fi-copy-3">
                    <g transform="translate(236.000000, 0.000000)">
                        <g id="logo/ameli/couleurs" transform="translate(56.000000, 8.000000)">
                            <g id="Group-32" transform="translate(0.000000, 0.000000)">
                                <path d="M54.6218254,41.0894344 C54.6218254,42.2200086 54.2994586,42.8204055 53.3177901,42.8204055 C52.4813845,42.8204055 52.015836,42.2731926 52.015836,40.974341 L52.015836,37.0123452 C52.015836,35.7124549 52.4813845,35.1673196 53.3177901,35.1673196 C54.1616878,35.1673196 54.6218254,35.7124549 54.6218254,37.0123452 L54.6218254,41.0894344 Z M57.0028448,41.3271001 L57.0028448,29.4839092 L54.6299418,29.4839092 L54.6299418,33.4978424 C54.4823898,33.3744391 53.9962381,33.1346958 53.3177901,33.1346958 C50.631261,33.1346958 49.6624956,34.8588112 49.6624956,37.3353961 L49.6624956,40.6531599 C49.6624956,43.1287061 50.631261,44.8505362 53.3177901,44.8505362 C55.3450176,44.8505362 57.0028448,43.8948873 57.0028448,41.3271001 L57.0028448,41.3271001 Z" id="Fill-1" fill="#006CB5"></path>
                                <polygon id="Fill-3" fill="#006CB5" points="24.3133485 29.4838469 24.3133485 44.6406466 21.9656272 44.6406466 21.9656272 32.7903922 21.9246289 32.7903922 19.5650451 44.6406466 18.3053379 44.6406466 15.949084 32.7903922 15.9072533 32.7903922 15.9072533 44.6406466 13.5601563 44.6406466 13.5601563 29.4838469 17.0597824 29.4838469 18.9155249 38.3364799 18.9556907 38.3364799 20.8089358 29.4838469"></polygon>
                                <polygon id="Fill-5" fill="#006CB5" points="59.1810582 44.6421008 61.5371041 44.6421008 61.5371041 33.3436298 59.1810582 33.3436298"></polygon>
                                <path d="M61.7331256,30.6652159 C61.7331256,31.4237103 61.1204413,32.0365721 60.3593725,32.0365721 C59.6001767,32.0365721 58.9839545,31.4237103 58.9839545,30.6652159 C58.9839545,29.907968 59.6001767,29.295314 60.3593725,29.295314 C61.1204413,29.295314 61.7331256,29.907968 61.7331256,30.6652159" id="Fill-7" fill="#006CB5"></path>
                                <path d="M45.3190342,41.7942255 C44.8274716,42.2741275 44.3914751,42.8481401 43.6505933,42.8481401 C42.9892106,42.8481401 42.5145051,42.3701078 42.5145051,41.518957 C42.5145051,39.9271783 43.7450765,39.5553063 45.3190342,39.2067021 L45.3190342,41.7942255 Z M47.6806991,43.4437586 L47.6806991,36.2040948 C47.6806991,34.1413473 46.4411788,33.1341765 44.2509989,33.1341765 C42.0462511,33.1341765 40.5961206,34.3723651 40.4670907,36.6636373 L42.8256339,36.6636373 C42.8635104,35.6965621 43.0970131,35.0668725 44.1677538,35.0668725 C44.9471365,35.0668725 45.3244451,35.5710812 45.3244451,36.5146807 L45.3298561,37.3982404 C41.8271083,37.8766881 40.1925898,39.6481704 40.1925898,41.8476172 C40.1925898,43.3957684 41.0851859,44.8547951 42.8635104,44.8547951 C44.0978279,44.8547951 44.4934504,44.5427549 45.4447344,43.8010882 C45.4555563,44.0136162 45.5044628,44.2685252 45.5768861,44.640605 L47.8307485,44.640605 C47.7666497,44.262916 47.6806991,43.8010882 47.6806991,43.4437586 L47.6806991,43.4437586 Z" id="Fill-8" fill="#006CB5"></path>
                                <path d="M31.0800762,41.7942255 C30.5905947,42.2741275 30.1545982,42.8481401 29.4133002,42.8481401 C28.7502526,42.8481401 28.2761714,42.3701078 28.2761714,41.518957 C28.2761714,39.9271783 29.5096564,39.5553063 31.0800762,39.2067021 L31.0800762,41.7942255 Z M33.4475683,43.4437586 L33.4475683,36.2040948 C33.4475683,34.1413473 32.2024289,33.1341765 30.0178681,33.1341765 C27.8104148,33.1341765 26.3571626,34.3723651 26.2335436,36.6636373 L28.5897975,36.6636373 C28.6299633,35.6965621 28.8636741,35.0668725 29.9379527,35.0668725 C30.7119245,35.0668725 31.0908981,35.5710812 31.0908981,36.5146807 L31.0908981,37.3982404 C27.591272,37.8766881 25.9544642,39.6481704 25.9544642,41.8476172 C25.9544642,43.3957684 26.8428981,44.8547951 28.6299633,44.8547951 C29.8611591,44.8547951 30.2565735,44.5427549 31.2068169,43.8010882 C31.2257552,44.0136162 31.2688346,44.2685252 31.343339,44.640605 L33.5899175,44.640605 C33.5306053,44.262916 33.4475683,43.8010882 33.4475683,43.4437586 L33.4475683,43.4437586 Z" id="Fill-9" fill="#006CB5"></path>
                                <path d="M38.9765862,42.860979 C37.7689072,42.858486 37.6889919,42.1972185 37.6889919,41.3691279 L37.6889919,29.4831405 L35.3292,29.4831405 L35.3292,41.2812498 C35.3292,43.1886004 36.179133,44.7911821 38.9934434,44.7911821 L39.2215351,44.7911821 L39.2215351,42.860979 L38.9765862,42.860979 Z" id="Fill-10" fill="#006CB5"></path>
                                <path d="M65.8648945,36.9149521 C65.8648945,35.6163084 66.3279457,35.0674335 67.1691379,35.0674335 C68.0109545,35.0674335 68.470884,35.6163084 68.470884,36.9149521 L68.470884,37.5055847 L65.8648945,37.5055847 L65.8648945,36.9149521 Z M70.8269298,39.4357878 L70.8269298,37.3356454 C70.8269298,34.857814 69.8612861,33.1353606 67.1691379,33.1353606 C64.4821926,33.1353606 63.5117623,34.857814 63.5117623,37.3356454 L63.5117623,40.6538247 C63.5117623,43.1293709 64.4821926,44.8499545 67.1691379,44.8499545 C69.6075965,44.8499545 70.6298469,43.4443196 70.8019563,41.3275572 C70.8019563,41.3275572 70.8188134,41.1295717 70.8098646,41.0352533 L68.470884,41.0352533 L68.4681785,41.3252719 C68.4113637,42.4442122 67.9522667,42.9203746 67.1691379,42.9203746 C66.3279457,42.9203746 65.8648945,42.3725385 65.8648945,41.0709862 L65.8648945,39.4357878 L70.8269298,39.4357878 Z" id="Fill-11" fill="#006CB5"></path>
                                <path d="M45.8029383,21.829369 L47.9812557,21.829369 L46.9030229,15.1510451 L46.862649,15.1510451 L45.8029383,21.829369 Z M44.9879683,27.2840469 L42.4648078,27.2840469 L45.2649665,12.1268317 L48.5007055,12.1268317 L51.2996155,27.2840469 L48.7754145,27.2840469 L48.2963386,23.8183653 L45.4918095,23.8183653 L44.9879683,27.2840469 Z" id="Fill-12" fill="#006CB5"></path>
                                <path d="M77.6984631,27.2840054 L77.6984631,15.9915591 L79.9492039,15.9915591 L79.9492039,16.9561412 L79.9902021,16.9561412 C80.5606395,15.9915591 81.896516,15.7863023 82.6577929,15.7863023 L83.1447771,15.7863023 L83.1447771,18.238165 C82.7235566,18.1363676 82.3243961,18.0046543 81.6307559,18.0046543 C80.8284808,18.0046543 80.0511792,18.5134335 80.0511792,19.5168648 L80.0511792,27.2840054 L77.6984631,27.2840054 Z" id="Fill-13" fill="#006CB5"></path>
                                <path d="M75.6256797,15.9915798 L75.6256797,23.2993856 C75.6256797,25.7734776 74.6623252,27.4973852 71.9668473,27.4973852 C69.2778208,27.4973852 68.3096797,25.7734776 68.3096797,23.2993856 L68.3096797,15.9915798 L70.6621877,15.9915798 L70.6621877,23.7186246 C70.6621877,25.0189304 71.1285686,25.5626116 71.9668473,25.5626116 C72.8122018,25.5626116 73.2723393,25.0189304 73.2723393,23.7186246 L73.2723393,15.9915798 L75.6256797,15.9915798 Z" id="Fill-14" fill="#006CB5"></path>
                                <path d="M92.8464166,27.2840054 L92.8464166,19.9820166 C92.8464166,17.5833378 93.817055,15.7863023 96.512533,15.7863023 C99.2028081,15.7863023 100.167828,17.5833378 100.167828,19.9820166 L100.167828,27.2840054 L97.8115735,27.2840054 L97.8115735,19.5769045 C97.8115735,18.3659311 97.3185541,17.7985665 96.512533,17.7985665 C95.6950656,17.7985665 95.2024624,18.3659311 95.2024624,19.5769045 L95.2024624,27.2840054 L92.8464166,27.2840054 Z" id="Fill-15" fill="#006CB5"></path>
                                <path d="M88.6294878,24.4394125 C88.1370928,24.9193144 87.7046342,25.496651 86.959382,25.496651 C86.2996642,25.496651 85.8259993,25.0167491 85.8259993,24.167468 C85.8259993,22.5715343 87.0580275,22.2017397 88.6294878,21.8533434 L88.6294878,24.4394125 Z M90.9936501,26.0924774 L90.9936501,18.8463732 C90.9936501,16.7898583 89.7508,15.7858037 87.564158,15.7858037 C85.3594102,15.7858037 83.9069905,17.0202528 83.7800416,19.3077855 L86.1385848,19.3077855 C86.1785425,18.3388406 86.4101721,17.7126828 87.4865319,17.7126828 C88.2602956,17.7126828 88.6369799,18.215645 88.6369799,19.1625684 L88.6369799,20.0405189 C85.13777,20.5191744 83.5088705,22.2902411 83.5088705,24.4930119 C83.5088705,26.0419942 84.392934,27.502475 86.1785425,27.502475 C87.407449,27.502475 87.8034878,27.1858644 88.7528988,26.4502225 C88.7687153,26.6619195 88.8209517,26.9139199 88.8894208,27.2845455 L91.1384966,27.2845455 C91.0735654,26.9114269 90.9936501,26.4502225 90.9936501,26.0924774 L90.9936501,26.0924774 Z" id="Fill-16" fill="#006CB5"></path>
                                <path d="M38.9765862,25.5075787 C37.7689072,25.5040469 37.6889919,24.8438182 37.6889919,24.0151043 L37.6889919,12.1314022 L35.3292,12.1314022 L35.3292,23.9288882 C35.3292,25.836862 36.179133,27.4377817 38.9934434,27.4377817 L39.2215351,27.4377817 L39.2215351,25.5075787 L38.9765862,25.5075787 Z" id="Fill-17" fill="#006CB5"></path>
                                <path d="M54.3982705,18.6185756 C54.3982705,18.0277353 54.8375968,17.7136176 55.4746303,17.7136176 C56.2752406,17.7136176 56.6069725,18.1532162 56.7380836,19.1202913 L58.8416885,18.9391335 C58.6296215,17.4830154 57.8935263,15.7852843 55.3647467,15.7852843 C53.519618,15.7852843 52.0699037,17.0205644 52.0699037,18.8059659 C52.0699037,21.8929197 56.6922988,22.6256531 56.6922988,24.5782932 C56.6922988,25.2063207 56.2300801,25.5659356 55.5851383,25.5659356 C54.4638261,25.5659356 54.113364,24.727042 53.9599848,23.7819883 L51.7839566,24.1297614 C52.0376462,26.27457 53.4089019,27.4973852 55.5637026,27.4973852 C57.5719919,27.4973852 59.0185845,26.4684006 59.0185845,24.4517736 C59.0185845,21.0926676 54.3982705,20.3821634 54.3982705,18.6185756" id="Fill-18" fill="#006CB5"></path>
                                <path d="M62.402375,18.6185756 C62.402375,18.0277353 62.8423256,17.7136176 63.4754049,17.7136176 C64.272061,17.7136176 64.6010875,18.1532162 64.740315,19.1202913 L66.8376765,18.9391335 C66.621031,17.4830154 65.8915954,15.7852843 63.3682268,15.7852843 C61.5289252,15.7852843 60.0765055,17.0205644 60.0765055,18.8059659 C60.0765055,21.8929197 64.68683,22.6256531 64.68683,24.5782932 C64.68683,25.2063207 64.2266924,25.5659356 63.5884102,25.5659356 C62.470636,25.5659356 62.120382,24.727042 61.963673,23.7819883 L59.7853556,24.1297614 C60.0384208,26.27457 61.4150875,27.4973852 63.5680152,27.4973852 C65.5631933,27.4973852 67.0156131,26.4684006 67.0156131,24.4517736 C67.0156131,21.0926676 62.402375,20.3821634 62.402375,18.6185756" id="Fill-19" fill="#006CB5"></path>
                                <path d="M112.864669,19.557293 C112.864669,18.2584414 113.325015,17.713306 114.169953,17.713306 C115.008648,17.713306 115.468786,18.2584414 115.468786,19.557293 L115.468786,20.150003 L112.864669,20.150003 L112.864669,19.557293 Z M117.827329,22.0814526 L117.827329,19.9819335 C117.827329,17.505764 116.862517,15.7862192 114.169953,15.7862192 C111.476764,15.7862192 110.511537,17.505764 110.511537,19.9819335 L110.511537,23.2988662 C110.511537,25.7779442 111.476764,27.497489 114.169953,27.497489 C116.606331,27.497489 117.630662,26.0874914 117.80298,23.9750917 C117.80298,23.9750917 117.816507,23.775652 117.805061,23.6819568 L115.468786,23.6819568 L115.465248,23.9750917 C115.408641,25.088215 114.951417,25.5660394 114.169953,25.5660394 C113.325015,25.5660394 112.864669,25.0238126 112.864669,23.7185208 L112.864669,22.0814526 L117.827329,22.0814526 Z" id="Fill-20" fill="#006CB5"></path>
                                <path d="M40.0931534,12.1313606 L40.0931534,14.2826095 L40.772642,14.2826095 C40.5559965,14.8252519 40.0954427,15.9921823 40.0954427,15.9921823 L41.2463069,15.9921823 L42.2446243,14.2826095 L42.2446243,12.1313606 L40.0931534,12.1313606 Z" id="Fill-21" fill="#006CB5"></path>
                                <path d="M106.797492,23.5473557 L106.797492,23.9759435 C106.735474,25.0892745 106.285743,25.5656447 105.498868,25.5656447 C104.653513,25.5656447 104.196497,25.0238333 104.196497,23.7185415 L104.196497,19.5566905 C104.196497,18.2578389 104.653513,17.713119 105.498868,17.713119 C106.340268,17.713119 106.799573,18.2578389 106.799573,19.5566905 L106.799573,19.9819542 L109.158325,19.9819542 C109.158325,17.5068235 108.193097,15.78624 105.498868,15.78624 C102.805263,15.78624 101.837746,17.5068235 101.837746,19.9819542 L101.837746,23.298887 C101.837746,25.7773417 102.805263,27.4985486 105.498868,27.4985486 C108.372907,27.4985486 109.139178,25.4690411 109.139178,23.5473557 L106.797492,23.5473557 Z" id="Fill-22" fill="#006CB5"></path>
                                <polygon id="Fill-23" fill="#80BC00" points="2.77435273 27.4726214 25.7833122 27.4726214 25.7833122 26.8177941 2.77435273 26.8177941"></polygon>
                                <polygon id="Fill-24" fill="#80BC00" points="3.22554145 21.1165173 28.5847196 21.1165173 28.5847196 20.4571195 3.22554145 20.4571195"></polygon>
                                <polygon id="Fill-25" fill="#80BC00" points="2.77435273 14.7587512 28.9139541 14.7587512 28.9139541 14.1008077 2.77435273 14.1008077"></polygon>
                                <polygon id="Fill-26" fill="#80BC00" points="2.77435273 8.40056956 28.9139541 8.40056956 28.9139541 7.73930205 2.77435273 7.73930205"></polygon>
                                <polygon id="Fill-27" fill="#80BC00" points="2.65168539 1.98126517 28.7912868 1.98126517 28.7912868 1.32352941 2.65168539 1.32352941"></polygon>
                                <path d="M4.37750864,9.15227054 C4.72651393,9.92821592 4.45867266,11.0351067 3.96586138,11.5902141 C4.83764621,12.7000133 7.0244963,12.2396398 8.20075026,11.9240679 C8.5197873,11.860081 8.77222822,11.2914699 9.07149453,11.5112691 C9.1549478,11.5767103 9.677103,11.0172402 9.61695838,11.5401464 C9.61695838,11.860081 9.46940635,12.1985054 9.14350159,12.3185847 C8.89896896,12.4102024 8.19471499,12.6200296 8.19471499,12.6200296 C6.93625644,13.0166239 6.2534381,13.1919648 4.99934991,13.7958933 C4.41871499,14.102532 4.56876437,15.21337 4.64867972,15.6130805 C4.72651393,16.0169461 5.1171418,17.4691169 4.77562857,18.1918784 C4.49509242,18.7785637 3.52278907,19.3241146 3.50676437,20.054355 C3.50676437,20.3707579 4.0324575,20.7548873 3.72944515,21.0137435 C3.52757566,21.1789045 3.38460212,21.2088205 3.26431287,21.0978821 C3.26431287,21.0978821 2.322394,20.1301837 2.43914533,19.7957066 C2.43373439,19.6679405 3.50135344,18.1407719 3.04059153,17.4547822 C2.78815062,17.6889162 2.75839048,18.3339792 2.25038695,18.5743457 C2.0023164,18.6821678 1.653103,18.4017056 1.44644691,18.519292 C1.36528289,18.5689442 1.37631287,18.8917873 1.29618942,18.9699013 C1.21710653,19.0532089 0.87933933,19.0372122 0.800256437,18.8917873 C0.606919577,18.4945698 0.68246455,17.8187598 0.758009524,17.4844904 C0.867685009,16.9894227 1.90013298,17.5335194 1.56507125,16.8250927 C1.44103598,16.5701837 1.28266208,16.2311361 1.29618942,15.6860007 C1.30284903,15.2734097 1.653103,14.7889372 1.30805185,14.5807719 C0.926997178,14.3896422 0.0185844797,13.9868154 0.00401657848,13.5141846 C-0.105242681,12.3815329 1.99191076,12.3815329 2.46994603,11.3679218 C2.46994603,10.8807486 1.85434815,10.4635871 1.97921587,9.68868044 C2.04019295,9.29914963 2.34674321,8.85165663 2.85100071,8.78268371 C3.48241517,8.6983373 3.86908889,8.77541246 4.37750864,9.15227054" id="Fill-28" fill="#006CB5"></path>
                                <path d="M31.9831404,9.42766363 C32.0591016,8.89042274 31.7306995,7.63727614 31.9011439,7.12081022 L32.8572145,7.61691667 C32.6513908,7.95762628 32.2470275,8.70718744 31.9831404,9.42766363 M33.842837,6.86320051 C32.5535778,6.03427894 31.4410063,4.58460107 29.9962868,4.81873506 C29.2323044,4.75433263 29.8593485,3.94764029 29.6458247,3.63456139 C29.299733,3.01588259 29.2587347,2.7817486 27.9014226,2.91179995 C27.529733,2.95044141 27.2315072,3.089426 27.0918635,3.41226914 C26.9644984,3.77541573 27.0839552,3.68504458 26.9948829,4.02159921 C26.8816695,4.36230882 26.4810522,4.51812115 26.8648123,4.77303011 C26.8981104,4.88292974 26.8981104,5.07364402 26.8648123,5.41913189 C26.8469146,5.6700936 27.1530487,5.64474813 27.2816624,5.72306979 C25.741419,6.85032003 22.9714367,6.64506326 21.6126677,5.76129575 C21.3591862,5.59571919 20.483031,5.63685364 20.483031,5.73470378 C20.483031,5.96322852 21.0534684,6.01204972 21.2565866,6.25054645 C21.1612709,6.28087792 20.9987347,6.24514496 21.0701175,6.38412955 C21.1425407,6.52830789 22.1831051,6.71590593 22.1831051,6.71590593 C22.9783044,7.25418557 24.2192815,7.51262628 25.1820116,7.70022432 C27.1505513,7.99335924 27.7039235,7.88719911 27.9655213,9.14346195 C28.2258705,10.4159293 27.9203608,11.590131 27.6300434,13.328581 C27.3930028,14.87694 27.7174508,15.8438074 27.9655213,17.363497 C28.009225,17.6452056 28.160315,18.1130581 28.0167171,18.2281515 C27.7442974,18.47018 27.0273485,18.6770987 26.7180928,18.9463424 C26.5809464,19.3919657 27.8287912,19.1088028 28.6626995,19.151807 C29.0597788,19.1827617 29.1542621,18.7589521 29.1542621,18.5023812 C29.2287665,16.1259316 29.299733,15.3853037 29.679539,13.8944914 C29.9018035,15.1790082 29.932188,17.3400212 30.214181,18.6413658 C29.8884843,19.0242486 29.0200293,19.3672435 29.2377153,19.5779017 C29.4882832,19.817645 29.9182444,19.774433 30.1438388,19.7214568 C30.6763996,19.5889125 30.9817012,19.4262444 31.3617153,19.0763938 C31.3617153,19.0763938 32.1523362,13.8622901 32.0135249,11.2826613 C31.9356907,9.84544841 33.3479446,9.01673459 34.0594825,7.73408754 C34.237419,7.40293441 34.2318,7.11520098 33.842837,6.86320051" id="Fill-29" fill="#006CB5"></path>
                                <path d="M16.5619556,2.27816317 C17.1211549,2.3793373 18.4235252,2.74892414 18.5766963,2.7775936 C18.7325728,2.81000257 19.1117545,3.16774767 19.2316275,3.19558613 C19.2998885,3.21075187 19.3161213,3.22072386 19.3698145,3.12058847 C19.4230914,3.02003758 19.6459802,3.17855065 19.8732395,3.11103198 C20.0222483,3.06636578 20.1625164,2.66561648 20.1281778,2.62011928 C19.9824988,2.44644048 19.2247598,2.24139146 18.8580649,2.23848296 C18.4289362,2.09762862 17.4326998,1.69147782 16.6851584,1.45256559 C14.9913277,0.917402194 13.2236169,0.103854108 11.5990878,1.07155252 C10.9216804,0.790882586 10.9102342,-0.0874834267 9.7348127,0.00704271709 C9.17831887,0.0506701681 8.78123951,0.477803688 8.64097143,0.863387255 C8.5063224,1.24917857 8.4497157,1.73095028 8.70298907,2.20732049 C8.83784621,2.46721545 9.1092254,2.59207306 9.37810723,2.68701471 C9.5117157,2.73271965 9.65489735,2.76035037 9.7914194,2.81000257 C9.97955344,2.87793674 10.0176381,3.02876307 10.2378215,3.0009246 C10.4022307,2.97516363 10.5345905,2.95148016 10.7035781,2.96228315 C10.8596628,2.97017764 11.2575746,3.02876307 11.3162624,2.82246755 C11.3252113,2.82246755 11.3312466,2.8235063 11.3331196,2.8235063 C11.3474794,3.21075187 11.2765129,3.78144048 11.0742272,3.87472012 C10.8030561,3.93829155 10.6846399,3.77437698 10.02846,3.5820007 C9.3841425,3.39294841 7.85784268,3.20202638 7.82995556,4.37331956 C7.78021658,6.24098996 8.00581093,6.84533403 6.71072451,8.4315035 C6.4857545,8.70677194 6.10802963,8.72443067 6.33008607,9.00987885 C6.50448466,9.18854365 6.78835062,9.0530908 6.92154286,8.94443768 C7.25306667,9.77689099 8.36605432,8.53371639 8.61162751,8.3425866 C9.1173418,7.95056279 8.54399083,7.60445168 8.78332063,7.22593161 C9.19475979,6.43004225 9.82638236,6.10719911 9.95874215,5.51095728 C10.6115922,6.02181396 11.407624,6.41923926 12.2203048,6.35483683 C12.5561989,6.29105766 12.8608762,6.16370705 13.2400578,5.78269398 C13.6136205,5.40126541 13.7205905,4.18218978 13.7538885,3.33934897 C13.8242307,1.62686765 15.0073524,1.99645448 16.5619556,2.27816317" id="Fill-30" fill="#006CB0"></path>
                                <path d="M27.8229224,26.7021398 C27.1478042,26.5432113 26.3861111,26.0641403 26.0104674,25.4764162 C25.7415855,25.0648639 25.5555326,24.5997122 25.3380547,24.1277047 C24.6059136,22.5249153 24.1859418,20.7710917 23.7083228,20.1858606 C22.8690035,19.1547986 21.2388554,17.7096912 20.1391869,16.9977327 C19.8112011,16.783335 19.5083968,16.6335474 19.2405556,16.5130525 C19.5065238,15.22168 19.4453386,13.8445068 19.4453386,13.8445068 C19.4453386,13.5810801 19.4507496,13.5729778 19.5421111,13.4624549 C19.827642,13.2401627 20.015776,12.9694648 19.9287848,12.5423312 C19.9215009,12.4822915 19.6844603,11.9726814 19.6143263,11.8636127 C20.0132787,12.0202561 21.7526861,12.4322239 22.2586085,12.3966986 C23.1239418,12.3389442 25.1784321,10.9087948 25.4910176,10.6952281 C25.7226473,10.55749 25.8514691,10.525912 25.961769,10.4928798 C26.0849718,10.4606786 26.3842381,10.2753658 26.4516667,10.0879755 C26.4810106,10.0046678 26.3861111,9.41175 26.1819524,9.37393954 C26.0903827,9.36272106 25.8593774,9.51126214 25.7759242,9.48633217 C25.7301393,9.47033543 25.6714515,9.37954879 25.630037,9.37954879 C25.5124533,9.37954879 25.4021534,9.55946008 25.3434656,9.64692274 C25.2735397,9.7645091 25.2439877,9.96976587 25.1655291,10.070109 C25.0254691,10.2460731 23.0269612,10.8123989 22.3630811,11.1221538 C22.2498677,11.1755455 22.1295785,11.220835 22.0132434,11.1815703 C21.4887989,11.0222262 19.3772857,9.81104505 18.5412963,9.98576261 C18.275328,10.036869 17.8605591,10.1876954 17.6861605,9.9911641 C17.5891799,9.89102871 17.5348624,9.72586765 17.6160265,9.56257633 C17.7013527,9.37393954 18.1460899,9.34984057 18.2322487,9.13544281 C18.3265238,8.89777708 18.1721041,8.42597736 18.1721041,8.39917764 C18.1752257,8.30839099 18.2809471,8.26268604 18.2719982,8.18394888 C18.2609683,8.09752498 18.1542063,8.00424533 18.0293386,7.83409827 C17.9036384,7.65896522 17.86597,7.21687372 17.7506755,7.02387418 C17.7768977,6.9638345 17.858478,6.5601767 17.3848131,6.29030976 C16.9134374,6.01379482 16.1394656,5.95396289 15.7040935,6.33580696 C15.4566473,6.55768371 15.1284533,6.47229855 14.8681041,6.6077514 C14.3692575,6.86868511 14.6893351,7.39013702 13.8697866,8.12827194 C13.5149541,8.44820658 13.7236914,9.06979388 13.8131799,9.20753198 C13.4635503,9.86028175 14.0743616,10.6218924 14.6281499,10.4897635 C14.8114974,10.6684283 14.9257513,10.7463345 15.1251235,10.729299 C15.1284533,10.7536057 15.1340723,10.7727187 15.1413563,10.7922472 C15.017321,10.8371211 14.7513527,10.9715352 14.6370988,11.0336524 C14.3174374,11.1907113 14.1376279,11.396799 13.848351,11.6739372 C12.922873,12.5743247 11.5424603,13.9718574 8.25823104,15.613496 C7.88716578,15.8389045 6.8141358,15.7420931 6.8141358,15.9731109 C6.88531041,16.0865423 7.11839683,16.1999736 7.11839683,16.1999736 C7.1277619,16.3339722 6.72277425,16.3886104 6.50446384,16.4359774 C6.31674603,16.5413065 6.67948677,16.6915096 6.81975485,16.8236384 C7.55210406,16.9536898 7.92837213,16.7903985 8.54625926,16.2764255 C11.0429894,15.3060264 12.8985238,14.3624269 14.9238783,13.0492407 C15.3488448,12.7718947 15.5915044,13.0716776 15.9400935,14.3526627 C16.0703721,14.8510544 15.4108624,15.2559587 15.1575891,15.9598149 C14.8726825,16.7438625 14.908478,17.3355338 15.1172152,17.7913368 C14.8801746,18.300116 14.1690529,18.9771725 14.1690529,18.9771725 C14.1690529,18.9771725 12.4708519,20.3821842 11.6098889,21.2293877 C10.8650529,21.9687691 9.96350794,21.7965446 9.27465432,22.12749 C8.56894356,22.4657066 7.92837213,23.0012855 7.33108818,23.4909517 C6.89280247,23.8570068 6.456806,24.1779802 5.87284127,24.4164769 C5.65078483,24.5083023 5.53944444,24.537595 5.30302822,24.567511 C5.0037619,24.6109307 4.82124691,24.8839139 4.84559612,25.1413158 C4.86994533,25.3746188 5.07680952,25.8960707 5.3059418,26.3481342 C5.42623104,26.5966029 5.70094004,27.1749783 6.05868607,27.248314 C6.30384303,27.2979662 6.8141358,27.402672 6.9304709,27.181003 C7.0840582,26.8843364 6.43349735,26.8022752 6.38667196,26.4204311 C6.35691182,26.1759097 6.33006526,25.7728751 6.4116455,25.5374946 C6.55128924,25.1313438 7.13525397,24.8537901 7.48113757,24.6676464 C8.5631164,24.0828308 11.7422487,23.3330619 12.6918677,23.0467827 C14.0685344,22.4484634 15.1509295,21.9587972 16.042485,21.3725273 C16.8276949,20.8978191 17.4703474,20.1405712 17.9683616,19.5110894 C19.1402451,20.098398 20.8732011,20.8278074 22.0240653,21.2661594 C22.7025132,21.5248079 22.3308236,21.9563042 22.7100053,22.9242103 C22.9793034,23.6264045 23.4662875,24.133314 25.0666755,26.0286151 C25.3022593,26.3362925 25.0527319,26.5602467 25.1043439,26.9076043 C25.1597019,27.2840469 25.3434656,27.2979662 25.6960088,27.2869554 C26.0183757,27.2780222 26.3498995,27.2869554 26.6743474,27.2869554 C27.0857866,27.2869554 27.6052363,27.2869554 28.0166755,27.2840469 C28.1723439,27.2815539 28.4714021,27.2314862 28.4714021,27.011687 C28.4714021,26.7696585 28.0277055,26.7507533 27.8229224,26.7021398" id="Fill-31" fill="#006CB5"></path>
                            </g>
                        </g>
                    </g>
                </g>
            </g>
        </g>
    </g>
</svg>