<?xml version="1.0" encoding="UTF-8"?>
<svg width="44px" height="30px" viewBox="0 0 44 30" version="1.1" xmlns="http://www.w3.org/2000/svg" xmlns:xlink="http://www.w3.org/1999/xlink">
    <title>flag/europe</title>
    <g id="FC+-—-Mire-+-eIDAS" stroke="none" stroke-width="1" fill="none" fill-rule="evenodd">
        <g id="fc+---mire-+-eIDAS---m" transform="translate(-117.000000, -853.000000)">
            <g id="eIDAS" transform="translate(101.000000, 837.000000)">
                <g id="flag/europe" transform="translate(16.000000, 16.000000)">
                    <rect id="flag_rectangle" fill="#000099" x="0" y="0" width="44" height="30"></rect>
                    <g id="stars" transform="translate(11.500000, 4.000000)" fill="#FFCC00">
                        <polygon id="flag_star" points="21.866001 12.687334 20.9064387 11.9694236 19.9051864 12.6824832 20.2935973 11.5508735 19.304852 10.8211827 20.5034364 10.8398927 20.8932369 9.67640665 21.2469061 10.8191038 22.476758 10.8294983 21.4956558 11.5176112 21.866001 12.687334"></polygon>
                        <polygon id="flag_star" points="20.5656933 7.84913064 19.6061309 7.13122024 18.6048787 7.8442799 18.9932895 6.71267016 18.0045443 5.98297937 19.2031287 6.00168939 19.5929291 4.83820332 19.9465984 5.98090048 21.1764502 5.99129494 20.1953481 6.6794079 20.5656933 7.84913064"></polygon>
                        <polygon id="flag_star" points="17.1148125 4.35763299 16.1552501 3.63972259 15.1539979 4.35278225 15.5424087 3.22117251 14.5536634 2.49148172 15.7522478 2.51019174 16.1420483 1.34670567 16.4957176 2.48940283 17.7255694 2.49979729 16.7444673 3.18791025 17.1148125 4.35763299"></polygon>
                        <polygon id="flag_star" points="12.2635682 3.01092732 11.3040058 2.29301692 10.3027536 3.00607657 10.6911644 1.87446683 9.70241912 1.14477605 10.9010035 1.16348607 11.290804 2.14881876e-16 11.6444733 1.14269716 12.8743251 1.15309161 11.893223 1.84120458 12.2635682 3.01092732"></polygon>
                        <polygon id="flag_star" points="7.46235173 4.3077396 6.50278938 3.5898292 5.50153714 4.30288886 5.88994797 3.17127912 4.90120269 2.44158833 6.09978709 2.46029835 6.48958758 1.29681229 6.84325684 2.43950944 8.07310865 2.4499039 7.09200653 3.13801686 7.46235173 4.3077396"></polygon>
                        <polygon id="flag_star" points="3.86145678 7.79923726 2.90189443 7.08132685 1.90064218 7.79438651 2.28905301 6.66277677 1.30030774 5.93308599 2.49889214 5.95179601 2.88869263 4.78830994 3.24236188 5.93100709 4.4722137 5.94140155 3.49111157 6.62951451 3.86145678 7.79923726"></polygon>
                        <polygon id="flag_star" points="2.56114904 12.6374406 1.60158669 11.9195302 0.600334447 12.6325898 0.988745276 11.5009801 2.15461072e-16 10.7712893 1.1985844 10.7899993 1.58838489 9.62651326 1.94205414 10.7692104 3.17190596 10.7796049 2.19080383 11.4677178 2.56114904 12.6374406"></polygon>
                        <polygon id="flag_star" points="3.86145678 17.5754307 2.90189443 16.8575203 1.90064218 17.5705799 2.28905301 16.4389702 1.30030774 15.7092794 2.49889214 15.7279894 2.88869263 14.5645034 3.24236188 15.7072005 4.4722137 15.717595 3.49111157 16.4057079 3.86145678 17.5754307"></polygon>
                        <polygon id="flag_star" points="7.36236548 21.1666458 6.40280312 20.4487354 5.40155088 21.1617951 5.78996171 20.0301853 4.80121643 19.3004945 5.99980083 19.3192046 6.38960133 18.1557185 6.74327058 19.2984156 7.9731224 19.3088101 6.99202027 19.9969231 7.36236548 21.1666458"></polygon>
                        <polygon id="flag_star" points="12.2136098 22.4634581 11.2540474 21.7455477 10.2527952 22.4586073 10.641206 21.3269976 9.65246074 20.5973068 10.8510451 20.6160168 11.2408456 19.4525308 11.5945149 20.5952279 12.8243667 20.6056224 11.8432646 21.2937354 12.2136098 22.4634581"></polygon>
                        <polygon id="flag_star" points="17.0648541 21.1666458 16.1052917 20.4487354 15.1040395 21.1617951 15.4924503 20.0301853 14.503705 19.3004945 15.7022894 19.3192046 16.0920899 18.1557185 16.4457592 19.2984156 17.675611 19.3088101 16.6945089 19.9969231 17.0648541 21.1666458"></polygon>
                        <polygon id="flag_star" points="20.665749 17.5754307 19.7061867 16.8575203 18.7049344 17.5705799 19.0933453 16.4389702 18.1046 15.7092794 19.3031844 15.7279894 19.6929849 14.5645034 20.0466541 15.7072005 21.276506 15.717595 20.2954038 16.4057079 20.665749 17.5754307"></polygon>
                    </g>
                </g>
            </g>
        </g>
    </g>
</svg>