<svg version="1.1" id="Calque_1" xmlns="http://www.w3.org/2000/svg" width="678px" height="547px" x="0" y="0" viewBox="0 0 678 547" style="enable-background:new 0 0 678 547" xml:space="preserve"><style>.st0{fill:gray}</style><path d="M0 398.9h25.7V358h30.9v-21.2H25.7v-17.7h36.7v-21.2H0v101zM80.5 398.9h25.7v-38.2h6.1l25.4 38.2h30L136.8 356c10.1-5.2 15.9-14.4 15.9-26.7 0-19.8-14.6-31.5-38.3-31.5H80.5v101.1zm35.5-79.8c6.5 0 10.2 4.2 10.2 10 0 6.2-3.8 10.4-10.2 10.4h-9.8v-20.3h9.8zM172.8 398.9h27.3l8.2-23.8h35.8l8.2 23.8h27.3l-36.7-101h-33.5l-36.6 101zm43-45.5 10.4-29.7 10.4 29.7h-20.8zM294.5 398.9h25.7v-63l36.2 63H389v-101h-25.7v63l-36.2-63h-32.6v101zM462.5 377.7c-16.2 0-27.7-12.3-27.7-29.3 0-16.9 11.5-29.3 27.7-29.3 10.1 0 17.8 4.9 22.5 11.8l20.4-15.6C496 303.1 481 295 462.5 295c-32.2 0-54.1 24.5-54.1 53.4s21.9 53.4 54.1 53.4c18.5 0 33.5-8.1 42.9-20.5L485 365.8c-4.8 7-12.6 11.9-22.5 11.9zM521.9 398.9h62.4v-21.2h-36.7V358h30.9v-21.2h-30.9v-17.7h36.7v-21.2h-62.4v101zM0 547h25.7V446H0v101zM53.7 547h40.4c32.2 0 54.1-23.2 54.1-50.5S126.3 446 94.1 446H53.7v101zm40.6-77.8c15.9 0 27.4 11.5 27.4 27.3 0 15.6-11.5 27.3-27.4 27.3H79.4v-54.5h14.9zM167.6 547H230v-21.2h-36.7v-19.6h30.9V485h-30.9v-17.7H230V446h-62.4v101zM253.9 547h25.7v-63l36.2 63h32.6V446h-25.7v63l-36.2-63h-32.6v101zM366.4 469.2h29.4V547h25.7v-77.8H451V446h-84.6v23.2zM469.2 547h25.7V446h-25.7v101zM512.9 469.2h29.4V547H568v-77.8h29.4V446h-84.6v23.2zM657.9 437.4l18.9-19.5h-26l-16.3 19.5h23.4zM615.6 547H678v-21.2h-36.7v-19.6h30.9V485h-30.9v-17.7H678V446h-62.4v101z"/><path class="st0" d="M218.9 213.7c.1 0 .2-.1.2-.1.6-.5 1.3-1.1 1.9-1.8-.1 0-.2 0-.2-.1-.7.6-1.4 1.3-1.9 2zM308.7 183.6l-1.4 1.2c.8-.2 1.4-.4 1.4-1.2z"/><path style="fill:#fff" d="M2 0h673.9v243H2z"/><path d="M279.6 214.4c2.6-2.6 5.2-5.4 7.8-8.2h-.1c4.9-5.5 9.6-10.8 15.3-15.6 1.7-1.6 3.4-2.9 5-4 .2-.2.3-.6.5-.9.1-.4.2-.7.5-.9-1.1.4-2 1.1-2.9 1.8-.9.7-1.9 1.4-3.1 1.9-.5 0-.9-.5-.5-.9 1.7-1.2 3.3-2.4 4.9-3.7h-.3c-.5 0-.5-.5-.5-.9-5.9-.9-10.4 3.1-14.4 6.6l-.3.2c-.6.3-1.2 0-1.7-.2-.2-.1-.4-.2-.6-.2-3.6 1.2-6.6 3.4-9.7 5.6-2.9 2-5.7 4.1-9 5.4v-.9c-1.1.4-2.2.9-3.3 1.4-1.6.7-3.3 1.5-4.9 1.9-3.1.7-5.9.6-8.7.5-.9 0-1.8-.1-2.7-.1-5 .5-10 1.6-15 2.6l-1.6.4c-.1 0-.2.1-.2.1-.1 0-.2 0-.2.1-3 .8-5.8 1.9-8.5 3.5l-.3.2c-.1.1-.2.3-.3.4-.1.1-.2.3-.3.4-.9 1.1-1.8 2.1-3.2 2.8-2 1-3.7 2.5-5.4 4-.7.7-1.5 1.3-2.2 1.9-.2.2-.5.2-.7.2-2.4 2.4-4.9 4.7-7.4 7-.2.2-.9.2-1.4.2 0 0 .1 0 .1-.1l.2-.5 1.2-1.9c.2-.4.5-.7.7-1.1.2-.4.4-.7.7-1.1.6-.9 1.3-1.9 2-2.8.2-.2.2-.5 0-.6-.2-.2-.4-.2-.6-.2 2.3-2.2 5-4.1 7.7-5.8v-.1c-.3.1-.8-.2-.6-.5l.6-.9.2-.3c0-.1.1-.1.1-.2s0-.1.1-.2c0-.1-.1-.1-.2-.2l-.2-.2-.5.3c-.6.4-1.2.8-1.6 1.2-.3.3-.7.7-1 1.1-.7.9-1.5 1.9-2.6 1.9-.1 0-.5 0-.7-.1-.2 0-.4-.1-.5-.2v-.1h.1s.1-.1.1-.2c0 0 0-.1.1-.1 0-.1.1-.1.1-.2s.1-.1.1-.2.1-.1.1-.2.1-.1.1-.2c0 0 .1-.1.1-.2s0-.1.1-.2l.1-.2c.1-.1.2-.3.2-.5 0-.1.1-.1.1-.2s.1-.1.1-.2c.1-.2.2-.3.3-.5.1-.2.2-.4.3-.5.1-.2.2-.3.3-.5.1-.2.2-.3.2-.4.1-.1.2-.3.2-.4.2-.4 0-.7-.3-.8.9-1.1 1.9-2.1 3.2-2.8h-.2c1.1-.5 2.2-1.2 3.3-1.8.7-.4 1.3-.8 2-1.1.2-.2.5-.5.8-.6-2.6.9-5 2.1-7.3 3.6 0 0-.6.2-.8.4 0 0-.5.2-1.1-.4-.1-.1-.1-.2-.1-.3.3-.5.8-.9 1.5-1.3.4-.3.9-.6 1.3-1 .5 0 .9 0 .9.5 9.1-7.1 20.3-8.7 31.5-10.4 6.9-1 13.8-2 20.3-4.3.7-.5 1.4-.9 2-1.4.7-.5 1.4-.9 2-1.4 1.1-.5 2.2-1.3 3.3-2.2 1.1-.9 2.2-1.8 3.6-2.4 3.6-2.8 6.4-5.9 7.8-10.6 0-.5-.5-.9-.5-.9-6 6.4-12.9 11.4-20.2 15.2-7 3.7-14.5 4.2-21.9 4.8-2.8.2-5.6.4-8.3.8.5-.9 1.4-.9 2.3-.9 0-1.1.5-1.6 1.2-2.2.2-.2.4-.3.6-.5h1.3c.2 0 .4-.2.5-.5s.2-.5.5-.5c.9 0 2.3-.5 1.8-.5-.7-.9-1.8-.6-2.9-.2-1.1.4-2.3.8-3.5.2.4-.5.5-1 .7-1.5.1-.5.2-1 .7-1.3h1.8c0-.9.9-1.8.9-1.8 4.1-2.5 8.1-4.6 12-6.7 2.6-1.4 5.2-2.8 7.7-4.3-.5 0-1 .2-1.4.4-.7.3-1.4.6-2.2.1.5 0 .5-.3.5-.7 0-.3 0-.7.5-.7 3-.8 5.6-2.1 8.3-3.4 1.9-.9 3.8-1.9 5.9-2.6-.6 0-1.2.2-1.8.3-1.1.3-2.1.6-3.3-.3.3-.2.6-.4.8-.6.5-.4 1-.8 1.9-.8v-1.3c0-.5.5-.5.9-.5-.5 0-.9-.5-.9-.5.3-.5.7-.6 1.3-.7.5-.1 1-.2 1.5-.6-.5 0-1.3 0-1.3-.5 1.3-1.8 3.6-2.3 5.9-2.8-.2-.5-.7-.5-1.1-.5-.4 0-.7 0-.7-.5s.5-.5.9-.5h-.9c-.7-.4-.6-1-.5-1.5v-.3c1.9-2.2 2.5-4.7 3.1-7.3.3-1.2.6-2.5 1-3.7-.5 0-.9 0-.9-.5-4.4 4.9-11.5 6.8-18.1 8.5l-.6.2h-2.3c-2.3.9-5.5.9-7.8-.5-1.1-.6-1.9-1.3-2.7-2-.6-.5-1.1-1-1.9-1.6-3.7-2.3-7.3-4.1-11.4-5.5-11.4-3.6-23.3-5.5-35.2-5.1 3.3-1.8 6.9-2.5 10.4-3.3 1.9-.4 3.7-.8 5.6-1.3 1.2-.3 2.3-.7 3.5-1 6.5-2 12.9-3.9 19.9-3.5-.9-.3-2.1-.2-3.2-.1-.5 0-1 .1-1.4.1-5.3-.4-10.6.8-16.1 2-1.2.3-2.4.5-3.6.8-2.2.5-4.2 1.1-6.3 1.7-2.3.7-4.6 1.4-7 1.9-1.1.4-1.9 1-2.7 1.6-1.3 1-2.6 1.9-4.6 1.7v-1.4c4.6-5.5 10.1-11 17.4-11.4 7.1-1.1 13.8-.3 20.7.5 1.2.1 2.4.3 3.5.4 5.7.5 11.1 1.7 16.8 3.1l.6.1c1.3 0 2 1.1 2.7 2.2.6.9 1.1 1.7 1.9 1.9 1.1.4 2.2.5 3.4.5 1.6.1 3.3.2 4.9 1.3 0-.3-.1-.6-.1-.9-.1-.6-.2-1.2.1-1.8 1-1 2.2-.7 3.3-.5.9.2 1.8.4 2.6 0 2.5-1.5.2-3.9-2.2-6.3-1.1-1.1-2.3-2.3-2.9-3.3 0-.5.5-.9.5-.9 1 .9 2 1.9 3 2.8 2.4 2.4 4.7 4.7 8 6.3 2.3.9 7.8 2.3 6.9-.5-1.6-3.6-4.4-6.7-7.2-9.8-1.1-1.3-2.3-2.6-3.4-3.9v-1.8c-.7 0-.9-.3-1.1-.6-.1-.1-.1-.2-.2-.3v-1.8c-1.2-.6-1.4-1.6-1.7-2.5-.1-.5-.3-1.1-.6-1.6-.8-1.3-.8-2.8-.9-4.5 0-1.3-.1-2.6-.5-3.8-.9-2.8-1.3-5.1-1.8-7.8-.5-2.8-1.1-5.5-1.6-8.2-1-4.7-1.9-9.2-2.5-13.8-.7-6.7 2.7-12.4 6.1-18.1 1-1.7 2.1-3.4 3-5.2 3.2-5.5 6.9-11 12.9-14.7 1.3-5.4 4.9-9.9 8.4-14.3l.3-.3c3.5-4.3 9.3-7 13.6-8.9l.5-.2C313.2 2.2 318.9.3 319 .3H2v243h224.7c6-4.3 12-7.1 19.1-10.3 3.2-1.5 6.7-3.1 10.6-5l2.8-1.4c6.4-3.5 16.6-8.5 20.4-12.2zm-71.2-32.8c-.9.1-1.8.2-1.5-.5.3-1.6 2-2.1 3.6-2.5.7-.2 1.4-.4 1.9-.7l.3-.1.2-.1c.9-.5 2-1 2.8-.7.5.8 1.2 1 1.9 1.2.5.1 1 .3 1.4.7-1.7 1.7-3.7 1.9-5.7 2-1.3.1-2.7.2-4 .8-.4-.2-.7-.2-.9-.1zm-69.8-11.1c0 .5.5.9.5.9 11-12.4 21-23 35.2-31.7.4-.2.2 0 .1.3-.3.4-.7.9.4.6 4.7-1.1 6.8-5.1 8.9-9 .5-1 1.1-2 1.6-2.9 2.2-3.5 5.2-5.7 8.3-8 2.2-1.6 4.5-3.3 6.4-5.4 0 .5 0 .9-.5 1.4.5.5.9.5 1.4.5.8-.6 1.7-.9 2.6-1.1 1.1-.3 2.2-.6 2.9-1.6-3.6-1.4-8.3-1.9-11.9-.5-9.6 4.6-17.8 11.9-25.6 20.2-4.7 5-9.6 9.6-15.6 12.9-4.1 8.2-8.7 15.6-14.7 23.4zm38.5-29.4c-.2.5-.5.8-.7 1-.2.2-.4.4-.6.8-.5.9-.9 1.3-1.8 1.8-.5 0-.9 0-.9-.5.5-1.8 1.8-3.6 3.6-4.1.4.2.4.6.4 1zm20.2 70.1c.4-.4.9-.9 1.1-1.3.4-.9-2-.7-2.4-.5-.4.3-.6.6-.9.9l-.1.1c-.3.4-.7.7-1.1 1.1-.3.2-.5.5-.8.7-1.1 1.1-2.2 2.2-3.4 3.2-.8.7 1.7 1 2.3.6.6-.5 1.2-1 1.7-1.6.2 0 .4 0 .6-.1h.2c1.3-.4 2.3-1.3 3.2-2.2l.2-.2c.3-.3-.1-.6-.6-.7zm-7.2-5.1c-.5.4-1 .7-1.5 1.1-1.2.9-2.5 1.7-3.8 2.5-1.3.7-2.5 1.3-3.8 1.9-.7.4-1.5.7-2.2 1.1 0 0 0-.1-.1-.1-.2-.2-.5-.3-.8-.2-1.7.9-3.2 2.2-4.6 3.6-.2.2-.5.4-.6.6l-.7.7v.1c-.3.3-.6.6-1 1.1-.1.1-.1.2-.2.2-.1.1-.2.3-.4.4-.3.2-1.1.2-1-.3v-.1c-.2.2-.6.3-.8.4-.1.1-.2.1-.4.2-.1.1-.2.1-.4.2-.1-.1-.2-.1-.3-.1s-.2 0-.3.1c-.2.2-.4.3-.6.5-.4.3-.7.6-1.1 1-.9.9-1.8 1.8-2.7 2.8 0 0 0 .1-.1.1v.2l-.2.2s0 .1-.1.1c0 0 0 .1-.1.1l-.1.1c-.1.2-.2.3-.3.5-.1.1-.2.2-.4.2l-.2-.2-.1-.1s0-.1-.1-.1c-.1-.1-.1-.2-.2-.4-.1-.1-.1-.2-.2-.4V223.8l1.4-1.7.1-.1c.1-.1.2-.2.2-.3.1-.1.2-.2.2-.3.1-.2.3-.3.4-.5s.3-.3.4-.5c0-.1.1-.1.1-.2s.1-.1.1-.2c.5-.6.9-1.3 1.4-2v-.1c.1-.1.2-.2.2-.3.2-.3.5-.6.6-.9l.5-.9v-.1l.1-.1v-.2c.1-.2.2-.4.2-.6.1-.2.2-.4.2-.6v-.1l.1-.3c0-.1.1-.2.1-.2 0-.1 0-.2.1-.2v-.1c0-.1.1-.2.1-.4 0-.1 0-.2.1-.4 0-.1 0-.2-.1-.3.5-.9 1.1-1.7 1.8-2.4h-.2c-.4.2-.7.5-1 .8-.2.2-.5.5-.8.7-.5.4-1.4-.2-.8-.7.4-.3.7-.6 1-.9 0 0 0-.1.1-.1l.9-.9c.5-.5.9-1 1.4-1.4.6-.4.9-.7 1.4-1.1l.2-.2c.3-.4.6-.8 1-1.2 0 0 .1 0 .1-.1 2.7-2.6 6.5-3.5 10.4-4.5 2.4-.6 4.9-1.2 7.2-2.2 1.3-.5 2.7-.3 4.1-.1 1.1.2 2.2.3 3.2.1 1.3 0 2.8 0 4.1.9-3.1 1.7-6.1 3.5-9 5.4-.4.7-1.3 1.2-2.2 1.8.1 0 0 0 0 0zm9.9-32.2c-.4 0-.6.1-.4.3 1.3 1.3 4.1.9 6-.2 1.3-.9 2.8-.9 4.6-.9.5 0 .5-.9.5-1.3 1.3.5 2.3.5 3.6.5 11-2.3 21.5-4.6 31.6-9.6-10.2-7.9-22.8-11.4-35.1-14.8-2-.6-4.1-1.1-6.1-1.7.4 0 .9.1 1.3.3.9.3 1.8.6 2.8-.3-1.3-1-2.6-1.2-4-1.4-1.1-.2-2.3-.3-3.3-.9.1 0 .2 0 .4.1.5.1 1.1.2 1.4-.5-2.4-1.2-4.8-1.6-7.2-2-1.2-.2-2.5-.4-3.8-.7 2.3-.5 3.7-2.3 3.7-4.6 0-.5-.9-.5-1.4-.5-5.4 2.8-9.1 7.8-11.4 13.7 2.1 1.2 4.3 1.1 6.5.9 1.2-.1 2.5-.2 3.6 0-1 1-2.5 1.2-4 1.5-.5.1-1.1.2-1.6.3-1.4.3-2.8 1.3-2.3 2.3.3.4.6.6 1 .6-1 .3-2 .8-2.8 1.7 1.3 1 2.6.8 4 .6.5-.1 1-.2 1.6-.2 0 .6.4.8.8 1 .2.1.4.2.6.4-2.3.9-4.1 2.8-4.6 4.1-.6 1.4-1.6 2.3-2.6 3.1-.7.6-1.4 1.2-1.9 1.9v1.4c-1.5 1.3-3.1 2.5-4.6 3.7-3.2 2.4-6.3 4.8-8.7 8.2.5 0 .5.5.5.9-.4.7-1.1 1.1-1.6 1.5-.7.5-1.3 1-1.6 1.7 0 .5 0 .9.5.9 2.9-1 5.4-2.6 7.8-4.1 2.2-1.4 4.4-2.8 6.8-3.7 2-.5 3.7-1.4 5.3-2.2 1.4-.7 2.8-1.5 4.3-1.9 1.1-.2 2.4-.6 3.7-.9 1.3-.3 2.5-.7 3.7-.9 0 .5 0 .9.5.9h3.6c-.5.7-1.2.8-1.7.8z" style="fill-rule:evenodd;clip-rule:evenodd;fill:#000091"/><path d="M676 0H411s.5.1 2.5 1.1c2.2 1.1 5 2.6 6.6 3.5 3.4 1.7 6.7 3.9 8.9 7.3 1 1.3 2.3 4.1 1.4 5.9-1 2.3-1.4 6-3.8 6.9-2.8 1.4-6.5 1.4-9.8.9-1.8 0-3.7-.5-5.6-.9 7 2.8 13.5 6 18.2 12.4.5.9 2.3 1.3 4.2 1.3.5 0 .5.9.5 1.3-1 .9-1.8 1.4-1.4 2.8h1.4c2.3-.9 1.8-5.5 5.1-4.1 2.3 1.3 3.3 4.6 1.8 6.9-1.8 1.8-3.7 3.2-5.6 4.6-.5.9-.5 2.3 0 3.2 1.4 1.8 1.8 3.6 2.3 5.5 1.4 3.2 1.8 6.9 3.3 10.1 1.8 6.9 3.7 13.7 3.3 20.7 0 3.6-1.8 6.9-.5 10.6 1 3.6 3.3 6.4 5.1 9.6 1.8 2.8 3.7 4.6 5.1 7.3 2.8 4.6 7.9 9.2 5.6 14.7-1.4 3.2-6.5 2.8-9.8 4.6-2.8 2.3-.5 6 1 8.3 2.3 4.1-2.8 6.9-6.1 8.3 1 1.4 2.8.9 3.3 1.8.5 2.3 2.8 3.6 1.4 6-1.8 2.8-7.5 4.1-4.6 8.3 1.8 3.2.6 6.8-.5 10.1-1.4 4.1-5.1 5.9-8.4 6.9-2.8.9-6.1.9-8.8.5-1-.5-1.8-.9-2.8-.9-7.9-.9-15.9-3.2-23.7-3.2-2.3.5-4.6.9-6.5 1.8-2.1 1.5-4 3.2-5.6 4.9l-.1.1c-.3.4-.7.7-1 1.1-.2.2-.4.5-.6.7-.2.2-.2.3-.4.5-1.4 1.7-2.6 3.5-3.7 5.3-.1.2-.2.2-.2.3-.1.2-.2.4-.4.6-1.5 2.8-2.6 5.6-3.5 8.5-3.2 10.5-1.8 19.5.5 21.7.6.6 15.4 5.1 25.6 9.6 4.8 2.1 8.2 3.7 11 5.5h260.2L676 0z" style="fill:#e1000f"/><path class="st0" d="M429 88.9c1.8.5 4.4.5 4.4 1.6-.9 4-6.2 5-8.9 9.1h-1.4c-1.3 1-.9 3.5-2.2 3.5-1.3-.5-2.7 0-4 .5 1.8 2 4 3.5 6.7 3 .5 0 1.3 1 1.3 2 0 0 .5 0 .9-.5.5 0 .9 0 .9.5v2c-1.3 2-3.6 1-5.4 1.5 3.6 1 7.1 1 10.3 0 2.7-1 0-6.1 1.8-8.6-.9 0 0-1.6-.9-1.6.9-1 1.8-2.5 2.7-3 .9 0 2.2-.5 2.7-1.6 0-1-1.8-1.5-1.4-2.5 2.7-2 4.9-5 4-8-.5-1.6-4-1.6-6.2-2.5-2.2-1-4.9 0-7.6.5-2.2 0-4.4 1.6-6.7 2-3.1 1-5.8 3-8.4 5 3.1-1.5 6.2-2 9.8-3 2.7.1 4.9-.6 7.6.1z"/></svg>
