<?xml version="1.0" encoding="UTF-8"?>
<svg width="166px" height="25px" viewBox="0 0 166 25" version="1.1" xmlns="http://www.w3.org/2000/svg" xmlns:xlink="http://www.w3.org/1999/xlink">
    <!-- Generator: Sketch 59.1 (86144) - https://sketch.com -->
    <title>fi/logo</title>
    <desc>Created with Sketch.</desc>
    <g id="Mire-temporaire" stroke="none" stroke-width="1" fill="none" fill-rule="evenodd">
        <g id="FC---Mire-temporaire---Alicem-1-Survol" transform="translate(-391.000000, -436.000000)">
            <g id="boutons-mire-L" transform="translate(364.000000, 416.000000)">
                <g id="fi">
                    <g>
                        <g id="logo/impots/couleurs" transform="translate(27.000000, 20.000000)">
                            <g>
                                <path d="M1.897962,3.18181818 L0.0430051813,3.18181818 L0.0430051813,0.221590909 L1.897962,0.221590909 L1.897962,3.18181818 Z M0.0430051813,19.2045455 L0.0430051813,4.86363636 L1.897962,4.86363636 L1.897962,19.2045455 L0.0430051813,19.2045455 Z" id="Shape" fill="#0083AE" fill-rule="nonzero"></path>
                                <path d="M16.2645596,7.10227273 C16.8230653,6.3017568 17.5764737,5.65390093 18.4549568,5.21875 C19.3664183,4.7800367 20.368981,4.55916531 21.3821762,4.57386364 C23.3470351,4.57386364 24.7805412,5.15814394 25.6826943,6.32670455 C26.5848474,7.49526515 27.0321013,9.375 27.0245523,11.9659091 L27.0245523,19.2045455 L25.2297064,19.2045455 L25.2297064,11.5909091 C25.2297064,9.6969697 24.9143351,8.34753788 24.2835924,7.54261364 C23.6528497,6.73768939 22.6245481,6.33522727 21.1986874,6.33522727 C20.4413476,6.3194423 19.6921305,6.49234237 19.0197582,6.83806818 C18.3953395,7.16980779 17.8777128,7.66893894 17.5260449,8.27840909 C17.2975655,8.69566428 17.1378651,9.14642665 17.0529879,9.61363636 C16.9359777,10.4759277 16.8899537,11.3462222 16.9153713,12.2159091 L16.9153713,19.2045455 L15.166494,19.2045455 L15.166494,11.1732955 C15.166494,9.5217803 14.8291422,8.3030303 14.1544387,7.51704545 C13.4797352,6.73106061 12.4418768,6.33712121 11.0408636,6.33522727 C10.2715707,6.3190354 9.51019499,6.49178641 8.82466321,6.83806818 C8.19518173,7.16694352 7.6731291,7.66650709 7.31948187,8.27840909 C7.08240668,8.69262368 6.91945025,9.144363 6.83782383,9.61363636 C6.72346059,10.4799796 6.67744893,11.3538405 6.70020725,12.2272727 L6.70020725,19.2045455 L4.87392055,19.2045455 L4.87392055,4.86363636 L6.70307427,4.86363636 L6.70307427,6.49431818 C7.23642613,5.87989327 7.90416868,5.39409075 8.6555095,5.07386364 C9.4616325,4.74122148 10.3283037,4.5768153 11.2014162,4.59090909 C12.2418986,4.57839621 13.2702533,4.81317352 14.2003109,5.27556818 C15.0480536,5.68001475 15.7635154,6.31314456 16.2645596,7.10227273 Z" id="Path" fill="#0083AE" fill-rule="nonzero"></path>
                                <path d="M29.9373402,4.86363636 L31.766494,4.86363636 L31.766494,7.21022727 C32.3260154,6.37240802 33.1063312,5.70235701 34.0228325,5.27272727 C34.9925967,4.79096891 36.0630692,4.54184421 37.1478756,4.54541586 C39.3325389,4.54541586 41.1416235,5.26515152 42.5751295,6.70454545 C44.0073047,8.13628543 44.7844905,10.0872303 44.7253886,12.1022727 C44.7726392,14.0868185 44.0061406,16.0056058 42.6009326,17.4204545 C41.2172257,18.8501461 39.2896682,19.6360132 37.2912263,19.5852273 C36.1947097,19.6003511 35.1091876,19.3671503 34.1174439,18.9034091 C33.1789496,18.4550509 32.3709347,17.7775708 31.769361,16.9346591 L31.769361,23.8465909 L29.9402073,23.8465909 L29.9373402,4.86363636 Z M31.766494,11.9318182 C31.735898,13.4863191 32.3215826,14.9907472 33.3978238,16.1221591 C34.362572,17.2277553 35.7646124,17.8632969 37.23962,17.8636364 C38.7180055,17.8800487 40.135564,17.2812938 41.1473575,16.2130682 C42.2243148,15.1397547 42.8133835,13.6779261 42.7786874,12.1647727 C42.8195112,10.6009908 42.2292678,9.08564724 41.1387565,7.95454545 C40.122298,6.85116489 38.6783725,6.23088492 37.1708117,6.25 C35.7411284,6.25 34.4825101,6.81818182 33.3949568,7.95454545 C32.3410791,9.01369117 31.7552562,10.4444743 31.766494,11.9318182 Z" id="Shape" fill="#0083AE" fill-rule="nonzero"></path>
                                <path d="M46.1588946,12.0454545 C46.1241788,10.0281696 46.911776,8.08222427 48.3435579,6.64772727 C49.6672235,5.21208154 51.5417455,4.39789703 53.5041796,4.40625 C55.5221234,4.37445161 57.4631626,5.17259737 58.8654922,6.61079545 C60.303442,7.98530168 61.1052795,9.88684579 61.0816926,11.8664773 C61.1241769,13.8974178 60.3519013,15.8621239 58.9343005,17.3295455 C57.5896336,18.7998358 55.672751,19.6274742 53.6704663,19.6022727 C51.6600223,19.638011 49.7277342,18.8312805 48.3492919,17.3806818 C46.9206459,15.9692501 46.1303494,14.0442973 46.1588946,12.0454545 Z M48.1055959,12.0198864 C48.0613147,13.5583042 48.6333829,15.0515455 49.6967876,16.1732955 C50.7115811,17.270658 52.1544,17.8814565 53.6561313,17.8494318 C55.142206,17.8778229 56.5677085,17.2663856 57.5638687,16.1732955 C58.6235616,15.0397447 59.1909557,13.5387691 59.1435924,11.9943182 C59.1435924,10.2992424 58.6103282,8.90625 57.5437997,7.81534091 C56.484313,6.72655001 55.009769,6.13219658 53.4841105,6.17897727 C52.0328016,6.16883084 50.6482455,6.78227084 49.6881865,7.86079545 C48.6352024,8.9897099 48.0719909,10.4833744 48.1199309,12.0198864 L48.1055959,12.0198864 Z" id="Shape" fill="#0083AE" fill-rule="nonzero"></path>
                                <polygon id="Path" fill="#0083AE" fill-rule="nonzero" points="64.5536442 19.2045455 64.5536442 6.70454545 61.8041796 6.70454545 61.8041796 4.86363636 64.5536442 4.86363636 64.5536442 0.221590909 66.408601 0.221590909 66.408601 4.86363636 69.1580656 4.86363636 69.1580656 6.71590909 66.408601 6.71590909 66.408601 19.2159091"></polygon>
                                <path d="M69.725734,14.6931818 L71.6322971,14.6931818 L71.6322971,14.7443182 C71.6026842,15.554938 71.8797888,16.3472734 72.4092573,16.9659091 C72.8820782,17.5323707 73.5883546,17.8561801 74.3301554,17.8465909 C75.0019222,17.8670758 75.6545033,17.6229259 76.1449741,17.1676136 C76.6211377,16.7282432 76.8842122,16.107578 76.8674611,15.4630682 C76.8964763,14.8587285 76.6913544,14.2662421 76.2940587,13.8068182 C75.9117904,13.3901515 75.2208405,12.999053 74.221209,12.6335227 C72.6156822,12.0653409 71.5644444,11.4876894 71.0674957,10.9005682 C70.5499606,10.2176801 70.2930078,9.37534285 70.3421416,8.52272727 C70.3296453,7.44571396 70.7774822,6.413715 71.5749568,5.68181818 C72.3639224,4.90889614 73.4329573,4.48210503 74.5423143,4.49715909 C75.7789522,4.49715909 76.7613817,4.84469697 77.4896028,5.53977273 C78.2178238,6.23484848 78.6077375,7.20359848 78.6593437,8.44602273 L76.6725043,8.44602273 C76.6662334,7.85748413 76.4334476,7.29352011 76.0216926,6.86931818 C75.5864791,6.47569746 75.0103627,6.27108414 74.4218998,6.30113636 C73.8543363,6.28545315 73.3058242,6.5047133 72.9081174,6.90625 C72.5070157,7.30495882 72.2883741,7.84915303 72.3031779,8.41193182 C72.2902883,8.7862319 72.3762684,9.15737863 72.5526079,9.48863636 C72.7594857,9.82224003 73.0498349,10.097224 73.3955095,10.2869318 C73.8779127,10.5590059 74.3933513,10.7690321 74.929361,10.9119318 C75.6002418,11.1126894 76.049407,11.2604167 76.2768566,11.3551136 C77.0831574,11.6561454 77.7814707,12.1869741 78.2837651,12.8806818 C78.7354897,13.6084545 78.9580775,14.4531152 78.9231088,15.3068182 C78.9557338,16.4668007 78.4812416,17.5842363 77.6214853,18.3721591 C76.7246575,19.1916087 75.5378568,19.6275028 74.3186874,19.5852273 C73.0841115,19.6367568 71.8879862,19.1535376 71.0416926,18.2613636 C70.2083477,17.3787879 69.7696949,16.1893939 69.725734,14.6931818 Z" id="Path" fill="#0083AE" fill-rule="nonzero"></path>
                                <polygon id="Path" fill="#8F8F8F" fill-rule="nonzero" points="83.4300518 19.2045455 81.5492919 19.2045455 81.5492919 15.7357955 83.4300518 15.7357955"></polygon>
                                <path d="M90.2506736,20.3778409 C90.5105126,21.1857485 91.0509237,21.8762499 91.775924,22.3267045 C92.5860128,22.8068663 93.5189545,23.0446378 94.4623143,23.0113636 C96.111802,23.0113636 97.4344502,22.467803 98.4302591,21.3806818 C99.4260679,20.2935606 99.9230167,18.8484848 99.9211054,17.0454545 L99.9211054,16.6619318 C99.2933947,17.5438551 98.4756883,18.2764868 97.5271503,18.8068182 C96.6179137,19.293253 95.5987587,19.5425448 94.5655268,19.53125 C92.534603,19.5895838 90.5706522,18.8084801 89.1440069,17.375 C87.7106406,15.951552 86.9301338,14.0072661 86.9851468,11.9971591 C86.9347644,10.0109647 87.7040742,8.09032407 89.1153368,6.67897727 C91.354525,4.51566059 94.6974948,3.92156494 97.5558204,5.17897727 C98.4978974,5.65745216 99.3086048,6.35548808 99.9182383,7.21306818 L99.9182383,4.86363636 L101.733057,4.86363636 L101.733057,16.8323864 C101.733057,19.3361742 101.099447,21.2916667 99.832228,22.6988636 C98.5650086,24.1060606 96.8170869,24.8096591 94.5884629,24.8096591 C93.088619,24.8496794 91.6131565,24.4278449 90.3653541,23.6022727 C89.224731,22.8476925 88.4121575,21.6957036 88.0889465,20.375 L90.2506736,20.3778409 Z M88.9605181,11.9176136 C88.9151602,13.4768424 89.4944335,14.9904844 90.5717789,16.1278409 C91.5603308,17.2231062 92.9765961,17.8440667 94.4594473,17.8323864 C95.8891307,17.8323864 97.1525273,17.2642045 98.2496373,16.1278409 C99.3161292,15.0675054 99.9089297,13.6276511 99.8953022,12.1306818 C99.9271767,10.5797735 99.3458396,9.0779803 98.2754404,7.94602273 C97.3187301,6.84540289 95.9254014,6.21274578 94.4594473,6.21306818 C92.9885905,6.19680963 91.5790557,6.79613286 90.577513,7.86363636 C89.5082966,8.94323936 88.9250928,10.4053929 88.9605181,11.9176136 L88.9605181,11.9176136 Z" id="Shape" fill="#8F8F8F" fill-rule="nonzero"></path>
                                <path d="M103.828843,12.0454545 C103.794127,10.0281696 104.581724,8.08222427 106.013506,6.64772727 C107.337172,5.21208154 109.211694,4.39789703 111.174128,4.40625 C113.192072,4.37445161 115.133111,5.17259737 116.53544,6.61079545 C117.97339,7.98530168 118.775228,9.88684579 118.751641,11.8664773 C118.791054,13.899029 118.014567,15.8639545 116.592781,17.3295455 C115.248114,18.7998358 113.331231,19.6274742 111.328946,19.6022727 C109.318502,19.638011 107.386214,18.8312805 106.007772,17.3806818 C104.58333,15.9673591 103.797267,14.0426423 103.828843,12.0454545 Z M105.775544,12.0198864 C105.731263,13.5583042 106.303331,15.0515455 107.366736,16.1732955 C108.381529,17.270658 109.824348,17.8814565 111.326079,17.8494318 C112.812154,17.8778229 114.237657,17.2663856 115.233817,16.1732955 C116.29351,15.0397447 116.860904,13.5387691 116.813541,11.9943182 C116.813541,10.2992424 116.280276,8.90625 115.213748,7.81534091 C114.154056,6.72685078 112.679652,6.13255402 111.154059,6.17897727 C109.70275,6.16883084 108.318194,6.78227084 107.358135,7.86079545 C106.299938,8.98746672 105.731479,10.4813921 105.775544,12.0198864 L105.775544,12.0198864 Z" id="Shape" fill="#8F8F8F" fill-rule="nonzero"></path>
                                <path d="M120.893299,4.86363636 L122.722453,4.86363636 L122.722453,12.4772727 C122.722453,14.4337121 123.042602,15.8181818 123.682902,16.6306818 C124.323201,17.4431818 125.374439,17.8494318 126.836615,17.8494318 C127.59947,17.8654132 128.3543,17.6925823 129.032746,17.3465909 C129.666271,17.0096708 130.193966,16.5064375 130.557997,15.8920455 C130.790891,15.4807957 130.950895,15.0330196 131.031054,14.5681818 C131.151559,13.689032 131.200456,12.8016972 131.177271,11.9147727 L131.177271,4.86363636 L133.029361,4.86363636 L133.029361,19.2045455 L131.174404,19.2045455 L131.174404,17.6534091 C130.6756,18.2827789 130.034238,18.7869146 129.302245,19.125 C128.506307,19.4489356 127.650906,19.6047183 126.790743,19.5823864 C124.703558,19.5823864 123.199332,19.0236742 122.278066,17.90625 C121.356799,16.7888258 120.896166,14.9356061 120.896166,12.3465909 L120.893299,4.86363636 Z" id="Path" fill="#8F8F8F" fill-rule="nonzero"></path>
                                <polygon id="Path" fill="#8F8F8F" fill-rule="nonzero" points="141.630397 19.2045455 139.933126 19.2045455 134.287979 4.86363636 136.249016 4.86363636 140.87924 16.4289773 145.549603 4.86363636 147.556511 4.86363636"></polygon>
                                <polygon id="Path" fill="#BCBCBC" fill-rule="nonzero" points="149.130501 19.2045455 147.249741 19.2045455 147.249741 15.7357955 149.130501 15.7357955"></polygon>
                                <path d="M156.065803,19.2045455 L154.262453,19.2045455 L154.262453,6.46590909 L152.327219,6.46590909 L152.327219,4.86363636 L154.182176,4.86363636 L154.182176,4.47159091 C154.182176,2.95643939 154.570178,1.83049242 155.346183,1.09375 C156.122188,0.357007576 157.312953,-0.00757575758 158.91848,-0.000115660421 L159.090501,-0.000115660421 L159.090501,1.65625 C157.976189,1.67329545 157.188716,1.89299242 156.728083,2.31534091 C156.26745,2.73768939 156.037133,3.45738636 156.037133,4.47443182 L156.037133,4.86647727 L159.090501,4.86647727 L159.090501,6.46875 L156.065803,6.46875 L156.065803,19.2045455 Z" id="Path" fill="#BCBCBC" fill-rule="nonzero"></path>
                                <path d="M162.748808,19.2045455 L160.868048,19.2045455 L160.868048,4.86363636 L162.616926,4.86363636 L162.616926,6.51988636 C163.001771,5.94579414 163.512346,5.46511506 164.110639,5.11363636 C164.693346,4.81042339 165.341834,4.65245885 166,4.65340483 L166,6.64204545 C164.834082,6.74621212 163.998826,7.09185606 163.494231,7.67897727 C162.989637,8.26609848 162.73734,9.21969697 162.73734,10.5397727 L162.748808,19.2045455 Z" id="Path" fill="#BCBCBC" fill-rule="nonzero"></path>
                            </g>
                        </g>
                    </g>
                </g>
            </g>
        </g>
    </g>
</svg>