<?xml version="1.0" encoding="UTF-8"?>
<svg width="300px" height="70px" viewBox="0 0 300 70" version="1.1" xmlns="http://www.w3.org/2000/svg" xmlns:xlink="http://www.w3.org/1999/xlink">
    <title>Logo-LIdentite-Numerique-tiers@3x</title>
    <defs>
        <linearGradient x1="10.0639093%" y1="40.7044391%" x2="79.4497227%" y2="56.8877996%" id="linearGradient-1">
            <stop stop-color="#F0E63C" offset="0%"></stop>
            <stop stop-color="#E6AF32" offset="100%"></stop>
        </linearGradient>
    </defs>
    <g id="Logo-LIdentite-Numerique-tiers" stroke="none" stroke-width="1" fill="none" fill-rule="evenodd">
        <polyline id="Fill-1" fill="#0000FF" points="110.169048 35.38086 110.169048 62.368679 104.986214 62.368679 88.103943 43.399939 88.103943 62.368679 82.616211 62.368679 82.616211 35.38086 88.103943 35.38086 104.681316 53.964135 104.681316 35.38086 110.169048 35.38086"></polyline>
        <path d="M129.337559,42.010743 L134.825291,42.010743 L134.825291,52.574935 C134.825291,59.784579 131.471844,62.869172 124.00249,62.869172 C116.533136,62.869172 113.179688,59.784579 113.179688,52.574935 L113.179688,42.010743 L118.66742,42.010743 L118.66742,51.64999 C118.66742,53.886212 118.895772,55.929053 120.077305,57.124819 C120.915453,58.011694 122.211589,58.435231 124.00249,58.435231 C125.793818,58.435231 127.089526,58.011694 127.927674,57.124819 C129.109207,55.929053 129.337559,53.886212 129.337559,51.64999 L129.337559,42.010743" id="Fill-2" fill="#0000FF"></path>
        <path d="M173.239078,50.802594 L173.239078,62.368737 L167.751346,62.368737 L167.751346,51.727971 C167.751346,48.605307 167.141552,45.944683 163.826162,45.944683 C159.748316,45.944683 158.261886,49.607259 158.261886,53.385778 L158.261886,62.368737 L152.812213,62.368737 L152.812213,51.727971 C152.812213,48.605307 152.202846,45.944683 148.849398,45.944683 C144.809611,45.944683 143.323608,49.607259 143.323608,53.385778 L143.323608,62.368737 L137.835449,62.368737 L137.835449,42.011719 L143.170945,42.011719 L143.209432,44.711277 L143.323608,44.711277 C145.076449,42.899025 147.705498,41.510743 150.488063,41.510743 C154.260156,41.510743 156.356382,42.899025 157.385252,45.250758 C159.328815,43.130045 162.149011,41.510743 165.464401,41.510743 C171.600414,41.510743 173.239078,45.135249 173.239078,50.802594" id="Fill-3" fill="#0000FF"></path>
        <path d="M189.511128,38.155487 L184.632763,38.155487 L188.291537,32.411133 L195.989246,32.411133 L189.511128,38.155487 Z M193.245647,50.493113 C192.902691,47.485958 190.273216,45.751145 187.262298,45.751145 C183.870792,45.751145 181.546214,47.639971 180.898788,50.493113 L193.245647,50.493113 Z M199.000151,54.348179 L181.050961,54.348179 C181.965654,57.047306 184.671245,58.628539 188.177355,58.628539 C190.463445,58.628539 193.055288,57.857174 195.227203,56.584834 L197.475662,60.594807 C194.350569,62.136671 191.492742,62.869099 187.872457,62.869099 C180.365049,62.869099 175.220703,58.85956 175.220703,52.189827 C175.220703,46.137015 180.403107,41.50969 187.605618,41.50969 C193.20795,41.50969 199.038208,45.172701 199.038208,52.613366 C199.038208,53.114773 199.038208,53.886139 199.000151,54.348179 L199.000151,54.348179 Z" id="Fill-4" fill="#0000FF"></path>
        <path d="M206.39254,45.559216 L206.506289,45.559216 C207.687394,43.554448 209.78362,41.510743 213.09901,41.510743 C214.12788,41.510743 215.424016,41.665621 216.452886,42.050654 L214.203997,47.448477 C213.213614,47.063011 212.260862,46.87006 211.231992,46.87006 C208.144955,46.87006 206.506289,49.492182 206.506289,54.233716 L206.506289,62.368737 L201.018555,62.368737 L201.018555,42.011719 L206.354054,42.011719 L206.39254,45.559216" id="Fill-5" fill="#0000FF"></path>
        <path d="M217.177179,62.368235 L222.625991,62.368235 L222.625991,42.011211 L217.177179,42.011211 L217.177179,62.368235 Z M219.882309,32.180664 C221.74975,32.180664 223.274235,33.645521 223.274235,35.418838 C223.274235,37.192589 221.74975,38.657446 219.882309,38.657446 C218.015296,38.657446 216.529297,37.192589 216.529297,35.418838 C216.529297,33.645521 218.015296,32.180664 219.882309,32.180664 L219.882309,32.180664 Z" id="Fill-6" fill="#0000FF"></path>
        <path d="M237.183535,45.94417 C232.838848,45.94417 230.323547,48.643299 230.323547,52.190366 C230.323547,55.737002 232.838848,58.435699 237.183535,58.435699 C241.109149,58.435699 244.271876,55.891448 244.271876,52.190366 C244.271876,48.488853 241.109149,45.94417 237.183535,45.94417 Z M236.077816,62.870149 C228.799182,62.870149 224.835938,58.282194 224.835938,52.190878 C224.835938,46.253143 229.485523,41.510742 236.497318,41.510742 C239.24097,41.510742 242.328007,42.590566 244.271571,44.556833 L244.348116,44.556833 L244.386174,42.011718 L249.721245,42.011718 L249.721245,70.34975 L244.271571,70.34975 L244.271571,59.824058 C241.985478,61.713317 238.859954,62.870149 236.077816,62.870149 L236.077816,62.870149 Z" id="Fill-7" fill="#0000FF"></path>
        <path d="M268.851727,42.010743 L274.339461,42.010743 L274.339461,52.574935 C274.339461,59.784579 270.985585,62.869172 263.517082,62.869172 C256.047725,62.869172 252.693848,59.784579 252.693848,52.574935 L252.693848,42.010743 L258.181155,42.010743 L258.181155,51.64999 C258.181155,53.886212 258.410363,55.929053 259.591468,57.124819 C260.429616,58.011694 261.725753,58.435231 263.517082,58.435231 C265.307556,58.435231 266.603691,58.011694 267.441841,57.124819 C268.622945,55.929053 268.851727,53.886212 268.851727,51.64999 L268.851727,42.010743" id="Fill-8" fill="#0000FF"></path>
        <path d="M294.15687,50.49383 C293.813486,47.486676 291.222499,45.751861 288.173524,45.751861 C284.820081,45.751861 282.495078,47.64069 281.809593,50.49383 L294.15687,50.49383 Z M299.987372,52.652917 C299.987372,53.115823 299.949314,53.887188 299.911255,54.349228 L281.999672,54.349228 C282.914366,57.048356 285.581903,58.629589 289.088444,58.629589 C291.412596,58.629589 293.966385,57.858223 296.176361,56.585883 L298.424822,60.595856 C295.299725,62.13772 292.403836,62.870148 288.78269,62.870148 C281.314186,62.870148 276.131348,58.860609 276.131348,52.190878 C276.131348,46.138065 281.314187,41.510742 288.554339,41.510742 C294.156679,41.510742 299.987372,45.173752 299.987372,52.652917 L299.987372,52.652917 Z" id="Fill-9" fill="#0000FF"></path>
        <path d="M88.256606,24.658378 L103.652447,24.658378 L103.652447,29.862819 L84.560202,29.862819 C83.302552,29.862819 82.616211,29.053383 82.616211,27.935055 L82.616211,2.875 L88.256606,2.875 L88.256606,24.658378" id="Fill-10" fill="#0000FF"></path>
        <polyline id="Fill-11" fill="#0000FF" points="104.17334 13.169239 107.412612 2.875 113.395538 2.875 108.784439 13.169239 104.17334 13.169239"></polyline>
        <polygon id="Fill-12" fill="#0000FF" points="121.286133 29.862819 126.92653 29.862819 126.92653 2.875 121.286133 2.875"></polygon>
        <path d="M146.20973,13.438828 C141.864617,13.438828 139.349319,16.137524 139.349319,19.68459 C139.349319,23.231224 141.864617,25.930353 146.20973,25.930353 C150.096855,25.930353 153.259153,23.38567 153.259153,19.68459 C153.259153,15.983078 150.096855,13.438828 146.20973,13.438828 Z M153.259485,27.318472 C151.011881,29.2073 147.886784,30.364132 145.066157,30.364132 C137.787096,30.364132 133.824707,25.776175 133.824707,19.684859 C133.824707,13.747555 138.473436,9.005154 145.485659,9.005154 C148.229312,9.005154 151.316351,10.08498 153.259485,12.051247 L153.259485,-0.09375 L158.747646,-0.09375 L158.747646,29.862724 L153.412575,29.862724 L153.374516,27.318472 L153.259485,27.318472 L153.259485,27.318472 Z" id="Fill-13" fill="#0000FF"></path>
        <path d="M183.548914,17.987155 C183.205531,14.980432 180.614111,13.245184 177.565133,13.245184 C174.211683,13.245184 171.887103,15.134012 171.201617,17.987155 L183.548914,17.987155 Z M189.379008,20.147063 C189.379008,20.609969 189.341378,21.380902 189.303319,21.843375 L171.391756,21.843375 C172.306448,24.542504 174.973982,26.122872 178.48052,26.122872 C180.804242,26.122872 183.358454,25.35194 185.568001,24.079599 L187.816887,28.089138 C184.691794,29.631005 181.795908,30.363865 178.175194,30.363865 C170.705843,30.363865 165.523438,26.354325 165.523438,19.684591 C165.523438,13.631344 170.705843,9.004883 177.946414,9.004883 C183.548749,9.004883 189.379008,12.667462 189.379008,20.147063 L189.379008,20.147063 Z" id="Fill-14" fill="#0000FF"></path>
        <path d="M201.625913,12.204987 C203.569047,10.200219 206.351612,9.004883 209.095262,9.004883 C215.611432,9.004883 217.745715,12.551951 217.745715,18.296738 L217.745715,29.862454 L212.296046,29.862454 L212.296046,19.221683 C212.296046,15.520602 211.076455,13.438826 207.570346,13.438826 C203.416811,13.438826 201.625913,16.946957 201.625913,20.87949 L201.625913,29.862454 L196.138184,29.862454 L196.138184,9.50586 L201.473678,9.50586 L201.511737,12.204987 L201.625913,12.204987" id="Fill-15" fill="#0000FF"></path>
        <path d="M236.667115,24.349218 L238.687647,28.744224 C236.93438,29.708538 234.876216,30.363527 232.933083,30.363527 C227.979035,30.363527 226.682899,27.20236 226.682899,22.652475 L226.682899,14.247928 L223.824219,14.247928 L223.824219,9.505527 L226.682899,9.505527 L226.682899,3.259765 L232.171052,3.259765 L232.171052,9.505527 L237.734896,9.505527 L237.734896,14.247928 L232.171052,14.247928 L232.171052,21.920479 C232.171052,23.963751 232.32286,25.390106 234.114186,25.390106 C234.952761,25.390106 235.981202,24.889129 236.667115,24.349218" id="Fill-16" fill="#0000FF"></path>
        <path d="M245.247759,29.862461 L250.696571,29.862461 L250.696571,9.505867 L245.247759,9.505867 L245.247759,29.862461 Z M247.953487,-0.325195 C249.820506,-0.325195 251.344996,1.139662 251.344996,2.912979 C251.344996,4.68673 249.820506,6.151589 247.953487,6.151589 C246.086468,6.151589 244.599609,4.68673 244.599609,2.912979 C244.599609,1.139662 246.086468,-0.325195 247.953487,-0.325195 L247.953487,-0.325195 Z" id="Fill-17" fill="#0000FF"></path>
        <path d="M270.451869,24.349218 L272.472406,28.744224 C270.719136,29.708538 268.661394,30.363527 266.71783,30.363527 C261.763771,30.363527 260.468061,27.20236 260.468061,22.652475 L260.468061,14.247928 L257.609375,14.247928 L257.609375,9.505527 L260.468061,9.505527 L260.468061,3.259765 L265.955798,3.259765 L265.955798,9.505527 L271.519653,9.505527 L271.519653,14.247928 L265.955798,14.247928 L265.955798,21.920479 C265.955798,23.963751 266.108034,25.390106 267.898936,25.390106 C268.737513,25.390106 269.766383,24.889129 270.451869,24.349218" id="Fill-18" fill="#0000FF"></path>
        <path d="M290.422167,5.65006 L285.544229,5.65006 L289.203004,-0.094727 L296.900713,-0.094727 L290.422167,5.65006 Z M294.157198,17.987253 C293.813814,14.980531 291.184769,13.245285 288.173853,13.245285 C284.781922,13.245285 282.457347,15.134112 281.809921,17.987253 L294.157198,17.987253 Z M299.911722,21.842987 L281.962096,21.842987 C282.87679,24.542114 285.582382,26.122482 289.08892,26.122482 C291.375012,26.122482 293.966856,25.351551 296.138771,24.07921 L298.386805,28.088749 C295.262137,29.630613 292.404308,30.363474 288.783167,30.363474 C281.276183,30.363474 276.131836,26.353935 276.131836,19.684204 C276.131836,13.630958 281.31467,9.004499 288.516756,9.004499 C294.119091,9.004499 299.94978,12.667076 299.94978,20.108173 C299.94978,20.609581 299.94978,21.380514 299.911722,21.842987 L299.911722,21.842987 Z" id="Fill-19" fill="#0000FF"></path>
        <path d="M36.873984,42.908414 C36.873984,42.908414 38.248524,42.945004 39.251282,42.346532 C40.866694,41.376955 42.992646,39.620738 46.000923,35.397461 L13.75293,43.308266 L36.873984,42.908414 Z" id="Fill-21" fill="#003DA5"></path>
        <path d="M20.008191,24.021197 C21.552911,24.572627 26.582418,26.339294 29.386478,28.239245 L29.648295,28.427411 L50.541286,28.100735 C50.57794,28.05108 51.345066,26.699945 51.800628,25.829679 C52.300697,24.873169 52.32426,24.05517 51.769207,23.511581 C51.153938,22.920949 50.159032,22.826868 48.148279,22.826868 L20.120775,22.826868 C19.895612,22.826868 19.335322,22.79028 19.235832,23.247628 C19.222207,23.323903 19.226463,23.402293 19.248266,23.476652 C19.27007,23.551011 19.308827,23.619321 19.361503,23.676227 C19.549535,23.836548 19.770171,23.954245 20.008191,24.021197 L20.008191,24.021197 Z" id="Fill-22" fill="#003DA5"></path>
        <path d="M62.022106,29.25512 C61.558693,29.25512 30.968012,29.735987 30.494123,29.75428 C30.232305,29.75428 30.164232,29.822231 30.161615,30.094025 C30.161615,32.3102 27.213558,34.440132 23.212996,36.342696 C18.995127,38.352412 13.701189,40.349058 10.949494,41.360449 C10.292333,41.603496 9.116776,42.016416 8.737142,42.209808 C8.436052,42.364 8.213507,42.599207 8.320852,42.87623 C8.428197,43.153251 8.72405,43.291762 9.771318,43.01474 C10.237352,42.89191 10.766222,42.753396 11.342219,42.612272 C16.628302,41.237617 26.305054,38.82021 35.730461,36.470752 C45.490993,34.037664 55.1049,31.933869 62.173958,30.66375 C62.729008,30.56444 63.184574,30.266511 63.161011,29.845752 C63.137447,29.424993 62.676651,29.236826 62.022106,29.25512 Z" id="Fill-23" fill="#003DA5"></path>
        <g id="Group" transform="translate(0.000000, 7.000000)" fill-rule="nonzero">
            <path d="M23.5060108,52.9625258 C15.2456217,52.581277 6.34981807,49.2771214 2.15608206,41.7792297 C-1.91057105,34.6625868 0.249838415,25.7667831 4.69774025,19.5397206 C11.8143832,9.37308782 23.6330938,2.89185944 35.7059702,0.73144998 C44.9830225,-0.920627843 55.4038211,-0.0310474764 63.0287957,6.06893218 C68.239195,10.1355853 70.5266873,17.1251453 69.1287753,23.4792908 C67.0954488,33.2646748 59.3433913,41.0167323 51.0830022,45.9729657 C42.6955302,50.8021163 33.0372291,53.3437745 23.5060108,52.9625258 Z" id="path3722" fill="url(#linearGradient-1)"></path>
            <path d="M19.9476894,16.9980624 C21.4726843,17.506394 26.5560007,19.2855548 29.3518247,21.1917984 C29.4789076,21.1917984 29.6059905,21.3188813 29.6059905,21.3188813 L50.4475877,20.9376326 C50.4475877,20.9376326 51.2100851,19.5397206 51.7184167,18.6501402 C52.2267484,17.6334769 52.2267484,16.8709795 51.7184167,16.3626478 C51.0830022,15.7272333 50.0663389,15.7272333 48.1600953,15.7272333 L20.2018552,15.7272333 C19.9476894,15.7272333 19.4393577,15.7272333 19.3122748,16.108482 C19.3122748,16.2355649 19.3122748,16.3626478 19.4393577,16.4897308 C19.4393577,16.8709795 19.6935236,16.9980624 19.9476894,16.9980624 Z" id="path20" fill="#003DA5"></path>
            <path d="M61.8850495,22.3355446 C61.3767179,22.3355446 30.8768196,22.8438762 30.368488,22.8438762 C30.1143221,22.8438762 29.9872392,22.9709591 29.9872392,23.225125 C29.9872392,25.3855344 27.0643323,27.5459439 22.9976792,29.4521875 C18.8039432,31.4855141 13.466461,33.5188406 10.7977199,34.5355039 C10.1623054,34.7896697 9.01855917,35.1709184 8.63731044,35.4250843 C8.38314462,35.5521672 8.1289788,35.806333 8.25606171,36.0604988 C8.38314462,36.3146646 8.63731044,36.4417475 9.65397371,36.1875817 C10.1623054,36.0604988 10.670637,35.9334159 11.1789686,35.806333 C16.5164508,34.408421 26.1747519,31.9938457 35.5788872,29.7063533 C45.3642713,27.2917781 54.8954895,25.1313686 62.0121324,23.8605395 C62.5204641,23.7334566 63.0287957,23.4792908 63.0287957,23.098042 C63.0287957,22.4626275 62.5204641,22.3355446 61.8850495,22.3355446 Z" id="path22" fill="#003DA5"></path>
            <path d="M36.8497163,35.9334159 C36.8497163,35.9334159 38.2476283,35.9334159 39.2642916,35.4250843 C40.9163694,34.408421 42.949696,32.7563432 45.9996858,28.4355242 L13.8477097,36.3146646 L36.8497163,35.9334159 Z" id="path24" fill="#003DA5"></path>
        </g>
    </g>
</svg>