<?xml version="1.0" encoding="UTF-8"?>
<svg width="139px" height="64px" viewBox="0 0 139 64" version="1.1" xmlns="http://www.w3.org/2000/svg" xmlns:xlink="http://www.w3.org/1999/xlink">
    <!-- Generator: Sketch 59.1 (86144) - https://sketch.com -->
    <title>Mutualite_sociale_agricole_logo@3x</title>
    <desc>Created with Sketch.</desc>
    <g id="Symbols" stroke="none" stroke-width="1" fill="none" fill-rule="evenodd">
        <g id="logo/msa/couleurs" fill-rule="nonzero">
            <g id="Mutualite_sociale_agricole_logo">
                <g id="Group" transform="translate(75.701000, 3.492000)" fill="#1D508E">
                    <path d="M1.711,6.852 C1.723,7.616 2.377,7.927 3.09,7.927 C3.608,7.927 4.268,7.728 4.268,7.111 C4.268,6.58 3.518,6.396 2.229,6.123 C1.19,5.902 0.151,5.544 0.151,4.421 C0.151,2.79 1.596,2.371 3.003,2.371 C4.431,2.371 5.747,2.841 5.89,4.409 L4.179,4.409 C4.126,3.73 3.597,3.543 2.949,3.543 C2.547,3.543 1.951,3.619 1.951,4.137 C1.951,4.765 2.963,4.852 3.99,5.088 C5.039,5.321 6.064,5.693 6.064,6.877 C6.064,8.556 4.572,9.099 3.078,9.099 C1.56,9.099 0.076,8.545 7.10542736e-15,6.854 L1.711,6.854" id="Path"></path>
                    <path d="M11.822,5.802 C11.517,6.06 10.884,6.073 10.328,6.172 C9.771,6.283 9.266,6.467 9.266,7.11 C9.266,7.764 9.784,7.926 10.368,7.926 C11.774,7.926 11.823,6.84 11.823,6.455 L11.823,5.802 M7.67,4.507 C7.772,2.865 9.277,2.37 10.746,2.37 C12.051,2.37 13.621,2.655 13.621,4.186 L13.621,7.506 C13.621,8.087 13.683,8.666 13.85,8.925 L12.024,8.925 C11.961,8.728 11.912,8.518 11.899,8.308 C11.331,8.889 10.497,9.098 9.694,9.098 C8.456,9.098 7.467,8.494 7.467,7.185 C7.467,5.739 8.584,5.394 9.694,5.246 C10.796,5.087 11.823,5.122 11.823,4.408 C11.823,3.655 11.292,3.542 10.661,3.542 C9.975,3.542 9.534,3.816 9.468,4.507 L7.67,4.507 Z" id="Shape"></path>
                    <path d="M15.647,2.544 L17.356,2.544 L17.356,3.431 L17.393,3.431 C17.848,2.716 18.637,2.369 19.393,2.369 C21.305,2.369 21.787,3.419 21.787,4.999 L21.787,8.924 L19.989,8.924 L19.989,5.32 C19.989,4.272 19.673,3.752 18.837,3.752 C17.862,3.752 17.446,4.284 17.446,5.579 L17.446,8.925 L15.647,8.925 L15.647,2.544" id="Path"></path>
                    <path d="M26.062,2.544 L27.379,2.544 L27.379,3.716 L26.062,3.716 L26.062,6.875 C26.062,7.469 26.215,7.616 26.826,7.616 C27.017,7.616 27.192,7.605 27.38,7.568 L27.38,8.937 C27.077,8.986 26.685,9 26.331,9 C25.227,9 24.266,8.751 24.266,7.481 L24.266,3.716 L23.179,3.716 L23.179,2.544 L24.266,2.544 L24.266,0.629 L26.063,0.629 L26.063,2.544" id="Path"></path>
                    <path d="M32.126,1.753 L30.874,1.753 L32.089,0 L34.076,0 L32.126,1.753 M33.278,5.05 C33.113,4.162 32.722,3.693 31.851,3.693 C30.708,3.693 30.377,4.555 30.355,5.05 L33.278,5.05 Z M30.356,6.16 C30.404,7.272 30.962,7.776 31.963,7.776 C32.685,7.776 33.267,7.345 33.381,6.949 L34.964,6.949 C34.457,8.456 33.381,9.097 31.901,9.097 C29.839,9.097 28.556,7.715 28.556,5.739 C28.556,3.827 29.91,2.369 31.901,2.369 C34.129,2.369 35.204,4.197 35.078,6.16 L30.356,6.16 L30.356,6.16 Z" id="Shape"></path>
                </g>
                <path d="M76.41,22.894 L75.336,22.894 L75.336,21.724 L76.41,21.724 L76.41,21.228 C76.41,20.105 77.129,19.29 78.599,19.29 C78.917,19.29 79.244,19.329 79.546,19.339 L79.546,20.648 C79.331,20.625 79.118,20.612 78.89,20.612 C78.41,20.612 78.206,20.809 78.206,21.34 L78.206,21.724 L79.446,21.724 L79.446,22.894 L78.206,22.894 L78.206,28.103 L76.41,28.103 L76.41,22.894" id="Path" fill="#1D508E"></path>
                <path d="M84.941,24.98 C84.638,25.24 84.005,25.253 83.445,25.352 C82.89,25.462 82.383,25.647 82.383,26.29 C82.383,26.945 82.903,27.105 83.487,27.105 C84.891,27.105 84.942,26.017 84.942,25.636 L84.942,24.98 M80.787,23.685 C80.891,22.042 82.398,21.55 83.863,21.55 C85.168,21.55 86.74,21.832 86.74,23.364 L86.74,26.685 C86.74,27.265 86.802,27.847 86.965,28.103 L85.145,28.103 C85.081,27.907 85.032,27.695 85.018,27.487 C84.448,28.066 83.616,28.276 82.815,28.276 C81.577,28.276 80.585,27.674 80.585,26.365 C80.585,24.92 81.7,24.573 82.815,24.426 C83.915,24.266 84.942,24.303 84.942,23.588 C84.942,22.835 84.411,22.723 83.778,22.723 C83.094,22.723 82.651,22.995 82.59,23.686 L80.787,23.686 L80.787,23.685 Z" id="Shape" fill="#1D508E"></path>
                <path d="M88.814,21.724 L90.511,21.724 L90.511,22.586 L90.536,22.586 C91.005,21.934 91.688,21.55 92.536,21.55 C93.358,21.55 94.093,21.844 94.446,22.612 C94.827,22.056 95.508,21.55 96.425,21.55 C97.814,21.55 98.815,22.178 98.815,23.833 L98.815,28.103 L97.021,28.103 L97.021,24.486 C97.021,23.635 96.941,22.931 95.916,22.931 C94.906,22.931 94.715,23.746 94.715,24.548 L94.715,28.103 L92.914,28.103 L92.914,24.524 C92.914,23.782 92.967,22.931 91.83,22.931 C91.473,22.931 90.613,23.154 90.613,24.402 L90.613,28.103 L88.814,28.103 L88.814,21.724" id="Path" fill="#1D508E"></path>
                <path d="M100.915,21.724 L102.718,21.724 L102.718,28.103 L100.915,28.103 L100.915,21.724 M102.718,20.735 L100.915,20.735 L100.915,19.291 L102.718,19.291 L102.718,20.735 Z" id="Shape" fill="#1D508E"></path>
                <rect id="Rectangle" fill="#1D508E" x="104.814" y="19.29" width="1.799" height="8.813"></rect>
                <rect id="Rectangle" fill="#1D508E" x="108.713" y="19.29" width="1.798" height="8.813"></rect>
                <path d="M116.967,24.228 C116.804,23.339 116.411,22.869 115.54,22.869 C114.397,22.869 114.068,23.735 114.046,24.228 L116.967,24.228 M114.046,25.339 C114.096,26.448 114.65,26.958 115.651,26.958 C116.373,26.958 116.955,26.524 117.071,26.129 L118.652,26.129 C118.143,27.635 117.071,28.275 115.59,28.275 C113.524,28.275 112.244,26.894 112.244,24.919 C112.244,23.005 113.599,21.549 115.59,21.549 C117.817,21.549 118.894,23.375 118.766,25.339 L114.046,25.339 L114.046,25.339 Z" id="Shape" fill="#1D508E"></path>
                <path d="M76.018,37.408 L77.725,37.408 L77.725,38.595 L77.75,38.595 C78.078,37.794 78.967,37.238 79.844,37.238 C79.969,37.238 80.115,37.26 80.233,37.298 L80.233,38.928 C80.067,38.89 79.799,38.867 79.588,38.867 C78.268,38.867 77.815,39.79 77.815,40.916 L77.815,43.793 L76.018,43.793 L76.018,37.408" id="Path" fill="#1D508E"></path>
                <path d="M85.754,39.916 C85.59,39.026 85.197,38.557 84.322,38.557 C83.183,38.557 82.853,39.419 82.828,39.916 L85.754,39.916 M82.828,41.025 C82.879,42.138 83.435,42.641 84.437,42.641 C85.158,42.641 85.742,42.212 85.853,41.815 L87.437,41.815 C86.931,43.323 85.853,43.961 84.373,43.961 C82.307,43.961 81.033,42.58 81.033,40.607 C81.033,38.693 82.387,37.237 84.373,37.237 C86.603,37.237 87.678,39.063 87.551,41.025 L82.828,41.025 Z" id="Shape" fill="#1D508E"></path>
                <path d="M91.525,37.408 L92.843,37.408 L92.843,38.582 L91.525,38.582 L91.525,41.743 C91.525,42.334 91.677,42.48 92.287,42.48 C92.478,42.48 92.652,42.468 92.844,42.432 L92.844,43.803 C92.537,43.852 92.149,43.865 91.793,43.865 C90.691,43.865 89.729,43.615 89.729,42.345 L89.729,38.58 L88.639,38.58 L88.639,37.406 L89.729,37.406 L89.729,35.493 L91.526,35.493 L91.526,37.408" id="Path" fill="#1D508E"></path>
                <path d="M94.338,37.408 L96.047,37.408 L96.047,38.595 L96.068,38.595 C96.402,37.794 97.287,37.238 98.159,37.238 C98.285,37.238 98.438,37.26 98.553,37.298 L98.553,38.928 C98.385,38.89 98.124,38.867 97.907,38.867 C96.593,38.867 96.134,39.79 96.134,40.916 L96.134,43.793 L94.339,43.793 L94.339,37.408" id="Path" fill="#1D508E"></path>
                <path d="M103.97,40.67 C103.666,40.928 103.032,40.941 102.474,41.038 C101.918,41.15 101.412,41.335 101.412,41.976 C101.412,42.63 101.933,42.793 102.515,42.793 C103.919,42.793 103.971,41.705 103.971,41.321 L103.971,40.67 M99.816,39.371 C99.916,37.727 101.425,37.237 102.894,37.237 C104.197,37.237 105.767,37.52 105.767,39.051 L105.767,42.371 C105.767,42.951 105.829,43.529 105.996,43.791 L104.17,43.791 C104.107,43.593 104.059,43.383 104.046,43.175 C103.474,43.753 102.639,43.961 101.841,43.961 C100.603,43.961 99.614,43.36 99.614,42.05 C99.614,40.607 100.728,40.259 101.841,40.112 C102.944,39.951 103.969,39.987 103.969,39.274 C103.969,38.522 103.437,38.408 102.806,38.408 C102.12,38.408 101.676,38.681 101.617,39.371 L99.816,39.371 Z" id="Shape" fill="#1D508E"></path>
                <path d="M107.844,37.408 L109.642,37.408 L109.642,43.792 L107.844,43.792 L107.844,37.408 M109.642,36.423 L107.844,36.423 L107.844,34.979 L109.642,34.979 L109.642,36.423 Z" id="Shape" fill="#1D508E"></path>
                <path d="M113.969,37.408 L115.286,37.408 L115.286,38.582 L113.969,38.582 L113.969,41.743 C113.969,42.334 114.122,42.48 114.731,42.48 C114.92,42.48 115.097,42.468 115.287,42.432 L115.287,43.803 C114.982,43.852 114.592,43.865 114.236,43.865 C113.135,43.865 112.173,43.615 112.173,42.345 L112.173,38.58 L111.086,38.58 L111.086,37.406 L112.173,37.406 L112.173,35.493 L113.97,35.493 L113.97,37.408" id="Path" fill="#1D508E"></path>
                <path d="M121.185,39.916 C121.021,39.026 120.628,38.557 119.756,38.557 C118.616,38.557 118.287,39.419 118.263,39.916 L121.185,39.916 M118.263,41.025 C118.314,42.138 118.869,42.641 119.87,42.641 C120.59,42.641 121.174,42.212 121.288,41.815 L122.867,41.815 C122.364,43.323 121.288,43.961 119.806,43.961 C117.743,43.961 116.462,42.58 116.462,40.607 C116.462,38.693 117.817,37.237 119.806,37.237 C122.033,37.237 123.108,39.063 122.984,41.025 L118.263,41.025 Z" id="Shape" fill="#1D508E"></path>
                <path d="M77.412,57.404 C77.424,58.167 78.078,58.478 78.791,58.478 C79.309,58.478 79.969,58.279 79.969,57.663 C79.969,57.133 79.219,56.945 77.93,56.676 C76.891,56.451 75.852,56.097 75.852,54.974 C75.852,53.341 77.297,52.92 78.704,52.92 C80.132,52.92 81.448,53.391 81.591,54.96 L79.88,54.96 C79.827,54.281 79.298,54.096 78.65,54.096 C78.248,54.096 77.652,54.17 77.652,54.689 C77.652,55.321 78.664,55.402 79.691,55.64 C80.74,55.873 81.765,56.245 81.765,57.43 C81.765,59.11 80.273,59.65 78.779,59.65 C77.261,59.65 75.777,59.095 75.701,57.405 L77.412,57.405" id="Path" fill="#1D508E"></path>
                <path d="M87.854,55.6 C87.688,54.714 87.297,54.244 86.422,54.244 C85.283,54.244 84.955,55.108 84.928,55.6 L87.854,55.6 M84.928,56.713 C84.979,57.822 85.537,58.329 86.537,58.329 C87.262,58.329 87.842,57.899 87.953,57.502 L89.539,57.502 C89.033,59.009 87.953,59.649 86.473,59.649 C84.411,59.649 83.135,58.268 83.135,56.291 C83.135,54.377 84.487,52.92 86.473,52.92 C88.7,52.92 89.776,54.751 89.651,56.713 L84.928,56.713 Z" id="Shape" fill="#1D508E"></path>
                <path d="M91.348,53.095 L93.057,53.095 L93.057,54.282 L93.082,54.282 C93.408,53.477 94.297,52.921 95.17,52.921 C95.297,52.921 95.449,52.947 95.563,52.988 L95.563,54.615 C95.399,54.578 95.131,54.553 94.918,54.553 C93.6,54.553 93.147,55.477 93.147,56.603 L93.147,59.481 L91.348,59.481 L91.348,53.095" id="Path" fill="#1D508E"></path>
                <polyline id="Path" fill="#1D508E" points="100.524 59.48 98.524 59.48 96.283 53.095 98.172 53.095 99.551 57.451 99.575 57.451 100.953 53.095 102.739 53.095 100.524 59.48"></polyline>
                <path d="M104.169,53.095 L105.97,53.095 L105.97,59.481 L104.169,59.481 L104.169,53.095 M105.97,52.109 L104.169,52.109 L104.169,50.666 L105.97,50.666 L105.97,52.109 Z" id="Shape" fill="#1D508E"></path>
                <path d="M112.476,55.344 C112.362,54.626 111.893,54.243 111.144,54.243 C109.995,54.243 109.613,55.38 109.613,56.317 C109.613,57.232 109.981,58.329 111.106,58.329 C111.943,58.329 112.425,57.812 112.538,57.031 L114.27,57.031 C114.046,58.724 112.842,59.649 111.12,59.649 C109.146,59.649 107.816,58.295 107.816,56.379 C107.816,54.392 109.033,52.919 111.158,52.919 C112.701,52.919 114.121,53.712 114.234,55.343 L112.476,55.343" id="Path" fill="#1D508E"></path>
                <path d="M120.325,55.6 C120.157,54.714 119.766,54.244 118.893,54.244 C117.752,54.244 117.421,55.108 117.397,55.6 L120.325,55.6 M117.397,56.713 C117.447,57.822 118.005,58.329 119.004,58.329 C119.726,58.329 120.31,57.899 120.426,57.502 L122.005,57.502 C121.498,59.009 120.426,59.649 118.943,59.649 C116.88,59.649 115.601,58.268 115.601,56.291 C115.601,54.377 116.955,52.92 118.943,52.92 C121.17,52.92 122.245,54.751 122.119,56.713 L117.397,56.713 Z" id="Shape" fill="#1D508E"></path>
                <path d="M125.21,57.404 C125.222,58.167 125.882,58.478 126.589,58.478 C127.108,58.478 127.768,58.279 127.768,57.663 C127.768,57.133 127.018,56.945 125.731,56.676 C124.69,56.451 123.653,56.097 123.653,54.974 C123.653,53.341 125.096,52.92 126.501,52.92 C127.933,52.92 129.246,53.391 129.388,54.96 L127.677,54.96 C127.629,54.281 127.095,54.096 126.451,54.096 C126.046,54.096 125.452,54.17 125.452,54.689 C125.452,55.321 126.463,55.402 127.487,55.64 C128.538,55.873 129.565,56.245 129.565,57.43 C129.565,59.11 128.069,59.65 126.576,59.65 C125.058,59.65 123.578,59.095 123.502,57.405 L125.21,57.405" id="Path" fill="#1D508E"></path>
                <rect id="Rectangle" fill="#FBBF27" x="74" y="0" width="65" height="1"></rect>
                <rect id="Rectangle" fill="#FBBF27" x="74" y="16" width="65" height="1"></rect>
                <rect id="Rectangle" fill="#FBBF27" x="74" y="32" width="65" height="1"></rect>
                <rect id="Rectangle" fill="#FBBF27" x="74" y="47" width="65" height="1"></rect>
                <rect id="Rectangle" fill="#FBBF27" x="74" y="63" width="65" height="1"></rect>
                <rect id="Rectangle" fill="#1D508E" x="0" y="0" width="65" height="64"></rect>
                <path d="M53.869,48.531 L53.869,53.549 L40.304,53.54 C38.812,53.54 37.594,52.356 37.594,50.897 C37.594,49.436 38.812,48.326 40.304,48.326 L51.949,48.34 C52.64,48.34 53.247,48.253 53.873,48.085 L53.869,48.531 M59.285,53.549 L59.285,41.069 C59.285,37.062 56.067,33.801 51.949,33.801 L34.929,33.801 L34.946,20.525 C34.946,15.418 39.056,11.274 44.297,11.274 C49.54,11.274 53.871,15.493 53.871,20.525 L53.871,33.726 L59.281,33.726 L59.296,20.599 C59.296,12.566 52.621,6 44.386,6 C39.114,6 35.104,8.136 32.184,12.181 C29.487,8.442 25.025,6 19.984,6 C16.383,6 12.984,7.275 10.408,9.348 L10.42,6.014 L5,6 L5.009,33.726 L10.421,33.726 L10.409,20.348 C10.529,15.241 14.672,11.274 19.914,11.274 C25.153,11.274 29.399,15.418 29.399,20.525 L29.429,33.801 L12.482,33.801 C8.365,33.801 5.031,37.062 5.031,41.069 C5.031,45.086 8.365,48.34 12.482,48.34 L24.196,48.326 C25.695,48.326 26.82,49.553 26.82,51.014 C26.82,52.474 25.665,53.54 24.167,53.54 L5.009,53.54 L5.009,58.853 L24.464,58.853 C29.038,58.853 32.185,55.215 32.185,50.834 C32.185,46.482 28.613,43.018 24.119,43.018 L12.541,43.024 C11.416,43.024 10.418,42.135 10.418,41.039 C10.418,39.948 11.416,39.058 12.541,39.058 L51.855,39.058 C52.978,39.058 53.889,39.949 53.889,41.039 C53.889,42.136 52.978,43.024 51.855,43.024 L43.654,43.018 L40.257,43.018 C35.768,43.018 32.185,46.483 32.185,50.834 C32.185,55.215 35.792,58.853 40.257,58.855 L64.487,58.855 C59.104,58.856 59.285,53.549 59.285,53.549 Z" id="Shape" fill="#FFFFFF"></path>
            </g>
        </g>
    </g>
</svg>