<?xml version="1.0" encoding="UTF-8"?>
<svg width="512px" height="512px" viewBox="0 0 512 512" version="1.1" xmlns="http://www.w3.org/2000/svg" xmlns:xlink="http://www.w3.org/1999/xlink">
    <title>FI - placeholder</title>
    <g id="FI---placeholder" stroke="none" stroke-width="1" fill="none" fill-rule="evenodd">
        <rect fill="#F2F4FF" x="0" y="0" width="512" height="512"></rect>
        <g id="marianne" transform="translate(90.000000, 71.000000)" fill-rule="nonzero">
            <path d="M0,93.8056544 L0,276.194346 C-4.93680279e-14,276.918825 0.391793263,277.586661 1.02418907,277.940139 L164.75142,369.455471 C165.356938,369.793925 166.094592,369.794444 166.700585,369.456842 L330.973354,277.939618 C331.607126,277.58654 332,276.917941 332,276.192454 L332,93.807546 C332,93.0820592 331.607126,92.4134599 330.973354,92.0603821 L166.700585,0.543158169 C166.094592,0.205556102 165.356938,0.206074925 164.75142,0.5445291 L1.02418907,92.0598614 C0.391793263,92.4133391 1.39407991e-14,93.0811747 0,93.8056544 Z" id="Hexagone" stroke="#858CAE" stroke-width="4" opacity="0.381722384" stroke-linejoin="round"></path>
            <g id="Mosaique" transform="translate(34.000000, 33.000000)">
                <path d="M131.475982,5.75539616e-13 L209.789936,44.9948643 L262.951963,75.7508476 L262.951963,226.682987 L262.767,226.362 L131.475982,301.86428 L0.186,226.363 L-1.93409733e-11,226.682987 L-1.93409733e-11,75.7508476 L53.1620274,44.9948643 L131.475982,5.75539616e-13 Z" id="Combined-Shape" fill="#858CAE"></path>
                <polygon id="Path" fill="#0069CC" points="172.062046 69.4857399 131.475982 1.4679167e-13"></polygon>
            </g>
            <g id="Marianne" transform="translate(30.000000, 110.000000)">
                <path d="M184.979189,88.6470246 C187.277067,88.6470246 189.574945,88.0766361 191.872823,88.6470246 C193.596232,89.2174132 195.89411,89.2174132 195.89411,89.7878018 C195.31964,93.2101333 190.149414,93.7805218 187.851536,97.2028533 C187.277067,97.2028533 187.277067,97.2028533 186.702597,97.2028533 C185.553658,97.7732419 186.128128,100.054796 184.979189,100.054796 C183.83025,99.4844076 182.681311,100.054796 180.957902,100.625185 C182.681311,102.336351 184.979189,103.477128 187.277067,102.906739 C187.851536,102.906739 188.426006,103.477128 188.426006,104.617905 C188.426006,104.617905 189.000475,104.617905 189.000475,104.047516 C189.574945,104.047516 189.574945,104.047516 189.574945,104.617905 C189.574945,105.188293 189.574945,105.758682 189.574945,106.329071 C188.426006,108.040236 186.128128,107.469848 184.404719,107.469848 C187.851536,108.040236 191.298353,108.040236 194.170701,107.469848 C196.468579,106.329071 194.170701,102.336351 195.89411,100.625185 C195.31964,100.625185 195.89411,99.4844076 194.745171,99.4844076 C195.31964,98.9140191 196.468579,97.2028533 197.043049,97.2028533 C197.617518,97.2028533 199.340927,96.6324647 199.340927,96.0620762 C199.340927,95.4916876 197.617518,94.921299 198.191988,93.7805218 C200.489866,92.0693561 202.787744,89.7878018 201.638805,86.9358589 C201.064335,85.7950817 197.617518,85.7950817 195.89411,85.2246932 C193.596232,84.6543046 191.298353,85.2246932 189.000475,85.7950817 C186.702597,85.7950817 184.979189,86.9358589 182.681311,87.5062475 C179.808963,88.6470246 177.511085,90.3581904 174.638737,92.0693561 C178.660024,90.3581904 181.532371,89.7878018 184.979189,88.6470246 Z" id="Path" fill="#858CAE"></path>
                <path d="M217.149482,113.744122 C216.000543,111.462568 214.277135,109.751402 212.553726,107.469848 C210.830317,104.617905 208.532439,102.336351 207.95797,98.9140191 C206.809031,95.4916876 207.95797,92.6397447 207.95797,89.2174132 C207.95797,82.9431389 206.234561,76.6688645 204.511153,70.9649787 C203.362214,68.1130358 202.787744,64.6907043 201.638805,61.8387615 C201.064335,60.1275957 200.489866,58.41643 199.340927,56.7052643 C198.766457,56.1348757 198.766457,54.4237099 199.340927,53.8533214 C201.064335,52.7125442 202.787744,51.0013785 203.936683,49.8606013 C205.085622,47.579047 203.936683,44.7271041 202.213275,43.5863269 C199.340927,42.4455498 199.915396,46.4382698 197.617518,47.579047 C197.043049,47.579047 197.043049,47.579047 196.468579,47.579047 C195.89411,46.4382698 197.043049,45.8678813 197.617518,45.2974927 C197.617518,44.7271041 197.617518,44.1567155 197.043049,44.1567155 C195.31964,44.1567155 193.596232,43.5863269 193.021762,43.0159384 C188.426006,37.3120526 182.681311,34.4601097 176.362146,32.1785554 C178.085554,32.748944 179.808963,32.748944 181.532371,32.748944 C184.404719,33.3193325 187.851536,32.748944 190.149414,31.6081668 C192.447293,30.4673896 192.447293,27.6154468 193.021762,25.3338924 C193.596232,24.7635039 193.021762,24.1931153 193.021762,23.0523381 C193.021762,21.911561 191.872823,20.7707838 191.298353,19.6300067 C191.298353,19.6300067 190.723884,19.0596181 190.149414,17.9188409 C185.553658,12.7853437 167.745103,-2.04475933 134.42587,0.236794986 C120.064132,1.37757214 102.255576,5.37029219 81.5746733,15.6372866 C81.0002037,15.6372866 80.4257342,16.2076752 79.2767951,16.2076752 C75.829978,17.9188409 71.2342217,20.7707838 68.3618741,24.1931153 C64.9150569,28.1858353 62.0427092,32.748944 60.8937702,37.8824412 C55.7235444,41.3047726 52.2767272,46.4382698 49.4043796,51.571767 C45.9575624,58.41643 41.3618062,64.1203158 41.3618062,71.5353673 C41.3618062,72.1057559 41.3618062,72.6761444 41.3618062,72.6761444 C41.9362757,74.9576988 41.9362757,76.6688645 42.5107452,78.9504188 C43.6596843,83.5135274 44.8086233,88.0766361 45.3830929,92.6397447 C45.9575624,94.921299 46.5320319,97.2028533 47.1065015,99.4844076 C48.2554405,101.765962 47.1065015,104.617905 48.82991,106.899459 C49.4043796,108.040236 49.4043796,109.751402 51.1277882,110.321791 C51.1277882,110.892179 51.1277882,111.462568 51.1277882,112.032956 C51.7022577,112.603345 51.7022577,112.603345 52.2767272,112.603345 C52.2767272,113.173734 52.2767272,113.744122 52.2767272,114.314511 C55.7235444,118.307231 59.7448311,121.729562 62.0427092,126.292671 C63.1916483,128.574225 58.0214225,127.433448 55.7235444,126.863059 C51.7022577,125.151894 48.82991,121.729562 45.3830929,118.877619 C45.3830929,118.877619 44.8086233,119.448008 44.8086233,119.448008 C46.5320319,122.299951 52.8511968,125.722282 49.4043796,128.003837 C47.680971,129.144614 45.3830929,126.863059 44.2341538,128.574225 C43.6596843,129.144614 44.2341538,130.285391 44.2341538,130.855779 C41.9362757,129.144614 39.063928,130.285391 36.7660499,129.144614 C35.0426413,128.574225 34.4681718,125.722282 32.7447632,125.722282 C27.5745374,124.581505 22.4043117,123.440728 16.6596164,123.440728 C16.0851468,123.440728 15.5106773,123.440728 15.5106773,123.440728 C10.3404515,122.870339 5.17022577,122.299951 0.57446953,122.870339 L0.57446953,128.574225 C5.17022577,127.433448 9.76598201,126.292671 14.3617382,126.292671 C14.9362078,126.292671 15.5106773,126.292671 15.5106773,126.292671 C16.6596164,126.292671 18.383025,125.722282 19.531964,126.292671 C17.8085554,126.292671 15.5106773,126.292671 13.7872687,126.863059 C9.19151248,127.433448 4.59575624,129.144614 0,130.855779 L0,136.559665 C2.29787812,137.130054 5.17022577,137.130054 7.46810389,137.700442 C10.3404515,138.270831 13.2127992,138.84122 16.0851468,139.981997 C20.1064335,141.122774 22.9787812,142.83394 26.4255984,144.545105 C28.149007,145.685882 28.7234765,146.82666 30.4468851,147.967437 C32.7447632,149.108214 35.6171109,149.108214 37.3405194,147.967437 C37.914989,147.967437 39.063928,147.967437 39.6383976,147.967437 C45.9575624,146.256271 52.2767272,144.545105 56.2980139,139.411608 C56.2980139,139.981997 56.8724835,139.981997 56.8724835,139.981997 C55.7235444,143.404328 55.7235444,146.82666 53.4256663,150.248991 C53.4256663,150.81938 52.8511968,151.389768 54.0001358,151.960157 C54.5746053,151.960157 54.5746053,151.960157 54.5746053,151.960157 C54.0001358,151.960157 54.0001358,151.960157 54.0001358,152.530545 C54.0001358,153.100934 55.1490749,152.530545 55.7235444,153.100934 C53.4256663,153.671323 51.7022577,154.241711 50.5533186,155.952877 C50.5533186,156.523265 51.1277882,156.523265 51.7022577,156.523265 C51.1277882,157.093654 49.4043796,157.093654 49.4043796,157.664043 C49.4043796,157.664043 49.9788491,158.234431 49.9788491,158.234431 C49.4043796,158.234431 49.4043796,158.234431 49.4043796,158.80482 C49.4043796,159.375208 49.4043796,159.375208 49.4043796,159.945597 C48.2554405,159.945597 47.680971,161.086374 47.1065015,161.086374 C48.82991,162.227151 49.9788491,161.086374 51.7022577,161.086374 C47.1065015,162.79754 43.6596843,165.649483 39.063928,166.79026 C38.4894585,166.79026 39.063928,167.931037 38.4894585,167.931037 C39.6383976,168.501426 40.7873366,167.360648 41.9362757,167.360648 C39.6383976,169.071814 37.3405194,170.212591 35.0426413,171.353369 L48.82991,179.338809 C54.5746053,175.916477 59.7448311,171.923757 64.3405874,166.79026 C64.3405874,166.79026 64.9150569,167.360648 64.9150569,167.360648 C63.7661178,171.353369 61.4682397,174.205311 58.0214225,177.057254 C55.7235444,178.198031 54.0001358,180.479586 52.2767272,181.049974 L62.6171788,186.75386 C64.9150569,185.042694 66.6384655,183.901917 69.5108131,182.76114 C70.0852827,182.76114 70.6597522,183.331529 71.8086912,183.331529 C75.2555084,179.909197 79.2767951,175.916477 85.0214904,177.057254 C85.0214904,177.627643 85.0214904,177.627643 85.59596,177.627643 C85.59596,177.627643 85.59596,177.627643 85.59596,177.627643 C85.59596,177.627643 86.1704295,177.627643 86.1704295,177.057254 C86.1704295,177.627643 86.1704295,177.627643 85.59596,177.627643 C83.8725514,178.76842 82.7236123,179.909197 81.0002037,181.049974 C80.4257342,181.620363 81.0002037,181.620363 81.5746733,181.620363 C83.8725514,180.479586 85.0214904,179.338809 86.744899,178.198031 C86.1704295,178.76842 86.1704295,179.338809 86.1704295,179.909197 C81.0002037,183.901917 76.978917,187.894637 72.9576303,192.457746 L127.532236,223.829118 C129.255644,221.547563 131.553522,218.125232 133.8514,215.273289 C144.191852,200.443186 159.12806,180.479586 163.723816,175.916477 C165.447225,174.7757 167.170633,174.7757 169.468511,174.205311 C176.362146,174.205311 183.83025,175.916477 190.723884,176.486866 C191.298353,176.486866 192.447293,177.057254 193.021762,177.057254 C195.31964,177.627643 198.191988,177.057254 201.064335,176.486866 C203.936683,175.346089 207.3835,173.634923 208.532439,170.212591 C209.681378,167.360648 210.255848,163.938317 208.532439,161.086374 C205.660092,157.664043 210.830317,155.952877 212.553726,153.671323 C213.702665,151.389768 211.404787,150.248991 211.404787,148.537825 C210.830317,147.967437 209.106909,147.967437 208.532439,146.82666 C211.404787,145.685882 216.000543,142.83394 213.702665,139.411608 C212.553726,137.130054 210.255848,134.278111 212.553726,131.996557 C215.426074,130.285391 220.02183,130.285391 221.170769,127.433448 C224.617586,121.729562 219.44736,117.736842 217.149482,113.744122 Z M199.340927,93.2101333 C198.766457,93.7805218 200.489866,94.3509104 200.489866,95.4916876 C199.915396,96.0620762 198.766457,96.6324647 198.191988,96.6324647 C197.617518,97.2028533 196.468579,98.3436305 195.89411,98.9140191 C196.468579,98.9140191 195.89411,100.054796 197.043049,100.054796 C195.31964,102.336351 198.191988,106.329071 195.31964,106.899459 C192.447293,108.040236 189.000475,108.040236 185.553658,106.899459 C187.277067,106.329071 189.574945,107.469848 190.723884,105.758682 C190.723884,105.188293 190.723884,104.617905 190.723884,104.047516 C190.723884,103.477128 190.149414,103.477128 190.149414,103.477128 C189.574945,104.047516 189.574945,104.047516 189.574945,104.047516 C189.574945,103.477128 188.426006,102.336351 188.426006,102.336351 C186.128128,102.906739 183.83025,101.765962 182.106841,100.054796 C183.25578,99.4844076 184.404719,98.9140191 186.128128,99.4844076 C187.277067,99.4844076 186.702597,97.2028533 187.851536,96.6324647 C188.426006,96.6324647 188.426006,96.6324647 189.000475,96.6324647 C191.298353,93.2101333 196.468579,92.0693561 197.043049,89.2174132 C197.043049,88.6470246 194.745171,88.6470246 193.021762,88.0766361 C190.723884,87.5062475 188.426006,88.0766361 186.128128,88.0766361 C182.681311,89.2174132 179.808963,89.2174132 176.936615,90.928579 C179.234493,89.2174132 182.106841,87.5062475 184.979189,86.3654703 C187.277067,85.7950817 189.000475,84.6543046 191.298353,84.6543046 C193.596232,84.083916 196.468579,83.5135274 198.191988,84.083916 C200.489866,84.6543046 203.362214,84.6543046 203.936683,85.7950817 C203.362214,89.2174132 201.638805,91.4989675 199.340927,93.2101333 Z" id="Shape" fill="#F2F4FF"></path>
            </g>
        </g>
    </g>
</svg>