<svg width="630" height="197" viewBox="0 0 630 197" fill="none" xmlns="http://www.w3.org/2000/svg">
  <path d="M205.59 85.09V56.33H201.15C200.789 56.3289 200.432 56.2552 200.1 56.1132C199.768 55.9712 199.468 55.7638 199.218 55.5035C198.968 55.2432 198.773 54.9351 198.645 54.5978C198.516 54.2605 198.457 53.9007 198.47 53.54V50.87C198.438 50.505 198.485 50.1374 198.607 49.7919C198.729 49.4465 198.923 49.131 199.177 48.8668C199.431 48.6026 199.738 48.3957 200.078 48.26C200.419 48.1243 200.784 48.0629 201.15 48.08H203.37C210.49 48.08 216.09 43.23 217.61 35.83C217.96 33.88 219.24 32.67 220.76 32.67H223.44C223.86 32.6483 224.28 32.7153 224.673 32.8666C225.066 33.0178 225.422 33.25 225.719 33.548C226.016 33.8461 226.247 34.2033 226.397 34.5964C226.547 34.9895 226.613 35.4098 226.59 35.83V48.08H238.59C238.951 48.0811 239.308 48.1548 239.64 48.2968C239.972 48.4388 240.272 48.6461 240.522 48.9065C240.772 49.1668 240.967 49.4748 241.096 49.8121C241.224 50.1495 241.284 50.5092 241.27 50.87V53.54C241.284 53.9007 241.224 54.2605 241.096 54.5978C240.967 54.9351 240.772 55.2432 240.522 55.5035C240.272 55.7638 239.972 55.9712 239.64 56.1132C239.308 56.2552 238.951 56.3289 238.59 56.33H226.59V85.46C226.59 89.58 228.92 92.01 231.84 92.01C233.424 92.1099 235.002 91.7363 236.373 90.9367C237.745 90.1372 238.847 88.9478 239.54 87.52C241.18 85.34 243.98 86.07 243.98 88.37C243.98 97.72 237.33 107.55 224.61 107.55C213.05 107.55 205.59 99.78 205.59 85.09Z" fill="#03325C"/>
  <path d="M297 58.8798C297 64.9498 294.78 70.2898 288 70.2898C277.38 70.2898 282.17 58.8798 276.33 58.8798C272.6 58.8798 272.02 65.1898 272.02 70.5298V93.1098C272.02 98.6898 278.2 100.11 278.2 103.54V104C278.2 105.45 277.03 106.3 275.4 106.3H250.27C248.64 106.3 247.47 105.45 247.47 104V103.51C247.47 100.11 252.14 98.6598 252.14 93.0798V68.9998C252.14 63.2898 246.54 62.8098 246.54 59.2898V58.9198C246.54 57.4698 247.47 56.3698 249.22 55.3998L265.68 47.3998C268.68 45.9398 269.88 47.6398 269.88 50.0598V58.9198C272.44 51.1598 277.93 46.9198 285.98 46.9198C292.86 46.8698 297 52.0898 297 58.8798Z" fill="#03325C"/>
  <path d="M364 103.06C364 106.33 359.45 107.06 352 107.06C344.76 107.06 341.61 105.24 341 100.06C338 104.92 332.48 107.59 324.55 107.59C312.76 107.59 302.73 99.2098 302.73 83.6798V63.3698C302.73 57.6698 298.06 56.2098 298.06 53.1798V52.6898C298.106 51.9833 298.4 51.3157 298.89 50.8051C299.381 50.2945 300.036 49.9738 300.74 49.8998L318.13 47.4798C321.51 46.9898 323.61 47.7198 323.61 49.8998L323.26 85.8198C323.15 95.7698 325.6 99.5398 330.73 99.5398C335.05 99.5398 338.43 94.7998 338.43 87.3998V63.3998C338.43 57.6998 333.77 56.2398 333.77 53.2098V52.7198C333.816 52.0133 334.11 51.3456 334.6 50.8351C335.091 50.3245 335.746 50.0038 336.45 49.9298L353.84 47.5098C357.22 47.0198 358.97 47.7498 358.97 49.9298V92.9998C359 102.81 364 98.0798 364 103.06Z" fill="#03325C"/>
  <path d="M368.23 93.2301C368.23 87.7601 371.85 85.4601 376.51 85.4601C388.18 85.4601 384.22 102.08 393.9 102.08C397.4 102.08 400.2 100.26 400.2 95.4101C400.2 79.5101 369.28 88.8601 369.28 65.3201C369.28 54.5101 379.28 46.8701 393.9 46.8701C408.72 46.8701 418.41 53.5401 418.41 61.4301C418.396 62.4337 418.181 63.4243 417.778 64.3434C417.375 65.2626 416.792 66.0915 416.063 66.7814C415.334 67.4713 414.474 68.008 413.534 68.3599C412.594 68.7117 411.593 68.8716 410.59 68.8301C399.27 68.8301 403 52.4501 394.95 52.4501C391.33 52.4501 389.47 55.8501 389.47 59.3701C389.47 75.9901 419.34 67.2601 419.34 89.5801C419.34 99.6601 410.12 107.42 393.9 107.42C379.2 107.42 368.23 101.72 368.23 93.2301Z" fill="#03325C"/>
  <path d="M429.6 85.09V56.33H425.17C424.809 56.3289 424.451 56.2552 424.119 56.1133C423.786 55.9714 423.486 55.7643 423.235 55.5041C422.984 55.2439 422.788 54.936 422.658 54.5986C422.528 54.2612 422.468 53.9013 422.48 53.54V50.87C422.448 50.5042 422.495 50.1357 422.617 49.7895C422.74 49.4433 422.935 49.1273 423.19 48.8629C423.445 48.5986 423.754 48.3919 424.095 48.2568C424.437 48.1218 424.803 48.0615 425.17 48.08H427.39C434.5 48.08 440.1 43.23 441.62 35.83C441.97 33.88 443.25 32.67 444.77 32.67H447.45C447.871 32.6469 448.292 32.7128 448.686 32.8634C449.08 33.0141 449.438 33.246 449.736 33.5442C450.034 33.8424 450.266 34.2001 450.417 34.5939C450.567 34.9878 450.633 35.409 450.61 35.83V48.08H462.61C462.971 48.0825 463.327 48.1572 463.658 48.2997C463.989 48.4421 464.289 48.6495 464.539 48.9095C464.788 49.1696 464.984 49.4771 465.113 49.8138C465.242 50.1505 465.302 50.5096 465.29 50.87V53.54C465.303 53.9008 465.244 54.2605 465.115 54.5978C464.987 54.9352 464.792 55.2432 464.542 55.5035C464.292 55.7639 463.992 55.9712 463.66 56.1132C463.328 56.2552 462.971 56.3289 462.61 56.33H450.61V85.46C450.61 89.58 452.94 92.01 455.86 92.01C457.444 92.1099 459.022 91.7363 460.393 90.9368C461.764 90.1372 462.867 88.9479 463.56 87.52C465.19 85.34 467.99 86.07 467.99 88.37C467.99 97.72 461.34 107.55 448.62 107.55C437.07 107.55 429.6 99.78 429.6 85.09Z" fill="#03325C"/>
  <path d="M573.94 103.66V104.15C573.94 105.6 572.77 106.45 571.14 106.45H547.8C546.17 106.45 545 105.6 545 104.15V103.66C545 100.26 549.55 98.6601 549.2 93.1101L548 71.6301C547.42 59.3701 545 54.8801 540 54.8801C535.22 54.8801 532.77 59.7301 532.77 66.4101C533.005 68.0966 533.122 69.7974 533.12 71.5001V93.1101C533.12 98.6901 537.32 100.26 537.32 103.66V104.15C537.32 105.6 536.15 106.45 534.52 106.45H511.28C509.53 106.45 508.48 105.6 508.48 104.15V103.66C508.48 100.26 512.56 98.6601 512.56 93.1101V70.0501C512.56 59.7301 509.56 54.8801 504.63 54.8801C499.26 54.8801 496.81 59.8801 496.81 66.4101V93.1101C496.81 98.6901 501.94 100.26 501.94 103.66V104.15C501.94 105.6 500.89 106.45 499.14 106.45H473.94C472.19 106.45 471.14 105.6 471.14 104.15V103.66C471.14 100.26 476.27 98.6601 476.27 93.1101V69.2001C476.27 63.5001 470.09 62.6401 470.09 59.1301V58.7601C470.09 57.3101 471.25 56.5801 472.89 55.7601L490.39 47.3901C493.31 45.9301 494.83 47.8701 494.83 50.3001V54.6701C496.573 52.1957 498.902 50.1912 501.608 48.8354C504.314 47.4796 507.314 46.8148 510.34 46.9001C518.4 46.9001 525.4 50.3001 529.48 56.8501C532.63 50.5401 539.05 46.9001 546.75 46.9001C556.75 46.9001 566.82 52.7201 568.22 72.3801L569.74 93.1401C570.09 98.6901 573.94 100.26 573.94 103.66Z" fill="#03325C"/>
  <path d="M629.94 88.8598C629.7 95.5298 621.54 107.55 606.25 107.55C589.33 107.55 577.43 95.2898 577.43 76.8398C577.43 58.8398 590.85 46.8398 606.13 46.8398C621.41 46.8398 628.42 55.8398 628.42 63.4698C628.458 65.0268 628.05 66.5623 627.244 67.8948C626.438 69.2273 625.267 70.3013 623.87 70.9898L600.65 84.5798C603.65 89.5798 608.23 92.4698 613.95 92.4698C618.95 92.4698 623.52 90.0399 625.62 87.1299C627.25 85.4599 630.05 86.1898 629.94 88.8598ZM596.22 65.5598C596.16 69.8724 596.761 74.1688 598 78.2998L608.85 71.4998C609.803 70.7804 610.572 69.8451 611.094 68.7708C611.615 67.6965 611.874 66.5138 611.85 65.3199C611.85 61.4299 609.99 52.8199 604.03 52.8199C599.25 52.8199 596.22 58.5198 596.22 65.5598Z" fill="#03325C"/>
  <path d="M31.52 54.1298C46.4538 54.1298 58.56 42.0236 58.56 27.0898C58.56 12.156 46.4538 0.0498047 31.52 0.0498047C16.5862 0.0498047 4.47998 12.156 4.47998 27.0898C4.47998 42.0236 16.5862 54.1298 31.52 54.1298Z" fill="#00D07D"/>
  <path d="M63.1 127.23V64.0801H0C0.0105774 80.8166 6.6604 96.8653 18.4902 108.705C30.32 120.544 46.3635 127.206 63.1 127.23Z" fill="#00D07D"/>
  <path d="M106.45 54.1298C121.384 54.1298 133.49 42.0236 133.49 27.0898C133.49 12.156 121.384 0.0498047 106.45 0.0498047C91.5164 0.0498047 79.4102 12.156 79.4102 27.0898C79.4102 42.0236 91.5164 54.1298 106.45 54.1298Z" fill="#00D07D"/>
  <path d="M74.8799 127.23V64.0801H138C137.989 80.8201 131.337 96.8718 119.503 108.712C107.668 120.551 91.6199 127.212 74.8799 127.23Z" fill="#00D07D"/>
  <path d="M208.19 186.47V153.73H219C221.173 153.651 223.334 154.082 225.31 154.99C226.852 155.731 228.133 156.924 228.98 158.41C229.791 159.899 230.201 161.574 230.17 163.27C230.195 164.95 229.792 166.608 229 168.09C228.163 169.578 226.893 170.778 225.36 171.53C223.37 172.452 221.191 172.89 219 172.81H212.17V186.47H208.19ZM212.12 169.47H218.85C221.47 169.47 223.333 168.917 224.44 167.81C225.012 167.203 225.455 166.485 225.74 165.701C226.026 164.917 226.148 164.083 226.1 163.25C226.15 162.411 226.029 161.57 225.743 160.779C225.458 159.988 225.015 159.264 224.44 158.65C223.327 157.537 221.463 156.983 218.85 156.99H212.12V169.47Z" fill="#03325C"/>
  <path d="M244.25 187C242.185 187.031 240.149 186.514 238.35 185.5C236.606 184.502 235.176 183.037 234.22 181.27C233.214 179.276 232.69 177.074 232.69 174.84C232.69 172.607 233.214 170.404 234.22 168.41C235.199 166.643 236.645 165.18 238.4 164.18C240.208 163.17 242.249 162.652 244.32 162.68C246.382 162.649 248.415 163.166 250.21 164.18C251.957 165.177 253.391 166.642 254.35 168.41C255.399 170.388 255.923 172.602 255.87 174.84C255.926 177.081 255.395 179.298 254.33 181.27C253.352 183.041 251.902 184.505 250.14 185.5C248.342 186.508 246.311 187.025 244.25 187ZM244.25 183.63C245.563 183.629 246.852 183.285 247.99 182.63C249.183 181.931 250.154 180.908 250.79 179.68C251.554 178.177 251.925 176.505 251.87 174.82C251.925 173.138 251.565 171.469 250.82 169.96C250.196 168.727 249.227 167.702 248.03 167.01C246.909 166.359 245.636 166.014 244.34 166.01C243.027 166.01 241.737 166.355 240.6 167.01C239.402 167.706 238.427 168.73 237.79 169.96C237.085 171.483 236.72 173.142 236.72 174.82C236.72 176.499 237.085 178.157 237.79 179.68C238.429 180.903 239.394 181.924 240.58 182.63C241.69 183.294 242.957 183.65 244.25 183.66V183.63Z" fill="#03325C"/>
  <path d="M265.15 186.47L258.37 163.27H262.3L267.21 181.46L272.63 163.27H277.08L282.55 181.46L287.41 163.27H291.41L284.62 186.47H280.62L274.92 167.34L269.21 186.47H265.15Z" fill="#03325C"/>
  <path d="M305.28 187C303.212 187.037 301.173 186.512 299.38 185.48C297.683 184.464 296.299 183.001 295.38 181.25C294.357 179.271 293.848 177.067 293.9 174.84C293.853 172.627 294.351 170.436 295.35 168.46C296.268 166.684 297.673 165.207 299.4 164.2C301.227 163.164 303.3 162.638 305.4 162.68C307.444 162.63 309.462 163.157 311.22 164.2C312.815 165.169 314.117 166.551 314.99 168.2C315.859 169.842 316.309 171.673 316.3 173.53C316.3 173.87 316.3 174.22 316.3 174.53C316.3 174.84 316.3 175.26 316.3 175.7H297.75C297.774 177.256 298.202 178.779 298.99 180.12C299.657 181.228 300.606 182.139 301.74 182.76C302.828 183.346 304.045 183.652 305.28 183.65C306.716 183.698 308.132 183.308 309.34 182.53C310.425 181.798 311.259 180.751 311.73 179.53H315.61C314.993 181.763 313.633 183.72 311.756 185.078C309.878 186.435 307.594 187.113 305.28 187ZM305.28 166C303.466 165.976 301.699 166.58 300.28 167.71C299.539 168.324 298.933 169.085 298.503 169.946C298.072 170.807 297.826 171.749 297.78 172.71H312.37C312.374 171.787 312.185 170.873 311.815 170.027C311.445 169.182 310.902 168.423 310.22 167.8C308.86 166.597 307.095 165.954 305.28 166Z" fill="#03325C"/>
  <path d="M321.46 186.47V163.27H325L325.33 167.71C326.034 166.199 327.173 164.931 328.6 164.07C330.246 163.114 332.128 162.643 334.03 162.71V166.83H333C331.701 166.816 330.413 167.061 329.21 167.55C328.044 168.044 327.074 168.908 326.45 170.01C325.702 171.484 325.357 173.13 325.45 174.78V186.47H321.46Z" fill="#03325C"/>
  <path d="M348 187C345.935 187.037 343.899 186.512 342.11 185.48C340.396 184.471 338.994 183.007 338.06 181.25C337.099 179.255 336.601 177.069 336.601 174.855C336.601 172.641 337.099 170.455 338.06 168.46C338.978 166.685 340.383 165.207 342.11 164.2C343.937 163.163 346.01 162.638 348.11 162.68C350.158 162.629 352.178 163.155 353.94 164.2C355.532 165.169 356.831 166.552 357.7 168.2C358.569 169.842 359.019 171.673 359.01 173.53C359.01 173.87 359.01 174.22 359.01 174.53C359.01 174.84 359.01 175.26 359.01 175.7H340.44C340.474 177.255 340.9 178.775 341.68 180.12C342.348 181.231 343.301 182.142 344.44 182.76C345.524 183.346 346.738 183.652 347.97 183.65C349.409 183.699 350.829 183.308 352.04 182.53C353.123 181.796 353.956 180.749 354.43 179.53H358.31C357.693 181.76 356.337 183.714 354.464 185.071C352.59 186.429 350.311 187.109 348 187ZM348 166C346.186 165.974 344.419 166.579 343 167.71C342.257 168.323 341.651 169.084 341.22 169.945C340.79 170.807 340.544 171.748 340.5 172.71H355.09C355.094 171.787 354.905 170.873 354.535 170.028C354.165 169.182 353.621 168.423 352.94 167.8C351.58 166.598 349.815 165.955 348 166Z" fill="#03325C"/>
  <path d="M374.67 187C372.544 187.047 370.448 186.496 368.62 185.41C366.909 184.359 365.524 182.853 364.62 181.06C363.64 179.118 363.149 176.965 363.19 174.79C363.148 172.622 363.646 170.477 364.64 168.55C365.559 166.78 366.942 165.294 368.64 164.25C370.48 163.169 372.586 162.625 374.72 162.68C376.457 162.653 378.175 163.055 379.72 163.85C381.147 164.593 382.333 165.727 383.14 167.12V152.8H387.06V186.47H383.51L383.14 182.63C382.281 183.842 381.182 184.863 379.91 185.63C378.332 186.583 376.512 187.059 374.67 187ZM375.09 183.59C376.546 183.616 377.979 183.235 379.23 182.49C380.434 181.748 381.408 180.685 382.04 179.42C382.698 177.983 383.039 176.421 383.039 174.84C383.039 173.259 382.698 171.697 382.04 170.26C381.408 168.995 380.434 167.931 379.23 167.19C377.978 166.469 376.559 166.09 375.115 166.09C373.671 166.09 372.252 166.469 371 167.19C369.798 167.932 368.828 168.995 368.2 170.26C367.535 171.695 367.19 173.258 367.19 174.84C367.19 176.422 367.535 177.985 368.2 179.42C368.828 180.685 369.798 181.748 371 182.49C372.231 183.241 373.648 183.632 375.09 183.62V183.59Z" fill="#03325C"/>
  <path d="M418.31 187C416.546 187.034 414.801 186.632 413.23 185.83C411.802 185.099 410.622 183.961 409.84 182.56L409.47 186.44H405.91V152.8H409.84V167.11C410.693 165.903 411.781 164.883 413.04 164.11C414.639 163.146 416.485 162.673 418.35 162.75C420.46 162.708 422.538 163.259 424.35 164.34C426.059 165.393 427.444 166.899 428.35 168.69C429.326 170.634 429.817 172.785 429.78 174.96C429.818 177.125 429.327 179.267 428.35 181.2C427.445 182.979 426.059 184.468 424.35 185.5C422.514 186.548 420.423 187.068 418.31 187ZM417.88 183.59C419.33 183.618 420.758 183.237 422 182.49C423.195 181.737 424.166 180.677 424.81 179.42C425.482 177.986 425.83 176.423 425.83 174.84C425.83 173.257 425.482 171.693 424.81 170.26C424.166 169.003 423.195 167.942 422 167.19C420.748 166.469 419.329 166.09 417.885 166.09C416.441 166.09 415.022 166.469 413.77 167.19C412.573 167.94 411.602 169.001 410.96 170.26C410.282 171.691 409.93 173.256 409.93 174.84C409.93 176.424 410.282 177.988 410.96 179.42C411.602 180.679 412.573 181.74 413.77 182.49C415.006 183.247 416.431 183.638 417.88 183.62V183.59Z" fill="#03325C"/>
  <path d="M435.94 196.76L441.69 184.22H440.33L431.12 163.22H435.37L443 181.32L451.14 163.27H455.21L440.01 196.76H435.94Z" fill="#03325C"/>
  <path d="M470 186.47L482.07 153.73H486.23L498.23 186.47H494.07L491.07 178.05H477.14L474.14 186.47H470ZM478.33 174.87H489.9L484.1 158.69L478.33 174.87Z" fill="#03325C"/>
  <path d="M512.35 187C510.402 187.03 508.471 186.638 506.69 185.85C505.058 185.11 503.67 183.92 502.69 182.42C501.621 180.708 501.059 178.728 501.07 176.71H505.07C505.065 177.654 505.255 178.59 505.628 179.457C506.001 180.325 506.549 181.106 507.238 181.752C507.928 182.398 508.743 182.894 509.632 183.211C510.522 183.527 511.468 183.656 512.41 183.59C513.367 183.661 514.328 183.527 515.228 183.195C516.128 182.864 516.947 182.344 517.63 181.67C518.786 180.409 519.413 178.751 519.38 177.04C519.44 175.706 519.053 174.389 518.28 173.3C517.512 172.305 516.469 171.558 515.28 171.15C514.001 170.672 512.645 170.432 511.28 170.44H508.8V167.12H511.23C513.014 167.231 514.782 166.718 516.23 165.67C516.763 165.192 517.196 164.613 517.504 163.966C517.811 163.319 517.987 162.618 518.022 161.902C518.056 161.187 517.948 160.472 517.704 159.799C517.46 159.125 517.085 158.507 516.6 157.98C516.026 157.471 515.356 157.082 514.63 156.837C513.903 156.591 513.135 156.494 512.37 156.55C511.568 156.514 510.766 156.641 510.015 156.925C509.264 157.209 508.578 157.642 508 158.2C506.917 159.261 506.269 160.687 506.18 162.2H502.18C502.245 160.53 502.737 158.905 503.61 157.48C504.468 156.107 505.69 155 507.14 154.28C508.789 153.532 510.579 153.145 512.39 153.145C514.201 153.145 515.991 153.532 517.64 154.28C518.643 154.804 519.525 155.532 520.228 156.418C520.932 157.304 521.441 158.327 521.724 159.423C522.007 160.518 522.057 161.661 521.87 162.776C521.683 163.892 521.264 164.956 520.64 165.9C519.679 167.296 518.225 168.275 516.57 168.64C518.434 169.011 520.126 169.98 521.39 171.4C522.714 172.98 523.396 175.001 523.3 177.06C523.323 178.805 522.896 180.528 522.06 182.06C521.212 183.596 519.937 184.853 518.39 185.68C516.524 186.633 514.443 187.087 512.35 187Z" fill="#03325C"/>
  <path d="M529.65 186.47V153.73H541.16C543.128 153.664 545.086 154.04 546.89 154.83C548.294 155.469 549.475 156.514 550.28 157.83C551.033 159.115 551.42 160.581 551.4 162.07C551.505 163.896 550.891 165.691 549.69 167.07C548.581 168.269 547.167 169.143 545.6 169.6C546.807 169.809 547.946 170.306 548.92 171.05C549.933 171.802 550.753 172.783 551.314 173.913C551.876 175.042 552.162 176.289 552.15 177.55C552.165 179.137 551.743 180.697 550.93 182.06C550.066 183.461 548.816 184.582 547.33 185.29C545.515 186.13 543.529 186.538 541.53 186.48L529.65 186.47ZM533.58 168H540.88C542.609 168.115 544.32 167.592 545.69 166.53C546.221 166.001 546.642 165.372 546.929 164.679C547.216 163.987 547.364 163.245 547.364 162.495C547.364 161.745 547.216 161.003 546.929 160.311C546.642 159.618 546.221 158.99 545.69 158.46C544.267 157.358 542.484 156.827 540.69 156.97H533.53L533.58 168ZM533.58 183.15H541.11C542.971 183.273 544.815 182.719 546.3 181.59C546.915 181.045 547.399 180.368 547.716 179.609C548.033 178.851 548.174 178.031 548.13 177.21C548.162 176.378 548.006 175.549 547.673 174.786C547.341 174.022 546.841 173.344 546.21 172.8C544.742 171.628 542.895 171.038 541.02 171.14H533.58V183.15Z" fill="#03325C"/>
  <path d="M572.16 187C569.249 187.079 566.374 186.341 563.86 184.87C561.533 183.442 559.66 181.382 558.46 178.93C557.195 176.155 556.54 173.14 556.54 170.09C556.54 167.04 557.195 164.025 558.46 161.25C559.659 158.781 561.531 156.702 563.86 155.25C566.37 153.768 569.246 153.023 572.16 153.1C575.424 152.957 578.643 153.903 581.31 155.79C583.698 157.643 585.307 160.322 585.82 163.3H581.47C581.033 161.371 579.954 159.647 578.41 158.41C576.6 157.096 574.394 156.443 572.16 156.56C570.009 156.512 567.889 157.07 566.04 158.17C564.281 159.287 562.89 160.897 562.04 162.8C560.147 167.434 560.147 172.626 562.04 177.26C562.89 179.163 564.281 180.773 566.04 181.89C567.889 182.99 570.009 183.548 572.16 183.5C574.386 183.618 576.588 182.984 578.41 181.7C579.951 180.499 581.031 178.804 581.47 176.9H585.82C585.289 179.839 583.681 182.474 581.31 184.29C578.643 186.18 575.426 187.133 572.16 187Z" fill="#03325C"/>
  </svg>
