<svg width="156" height="44" viewBox="0 0 156 44" fill="none" xmlns="http://www.w3.org/2000/svg">
<path d="M74.3622 20.4571L68.3143 11.0565H63.9097L72.4229 23.8756V32.9804H76.2686V23.8756L84.749 11.0565H80.3445L74.3622 20.4571Z" fill="#0A0A2B"/>
<path d="M90.994 21.4104V14.442H96.2532C98.4226 14.442 100 15.8225 100 17.9261C100 20.0298 98.4226 21.4104 96.2532 21.4104H90.994ZM103.945 17.9261C103.945 13.8832 101.118 11.0565 96.7791 11.0565H87.1483V32.9804H90.994V24.7958H94.8069L99.6716 32.9804H104.109L98.7513 24.3687C101.381 23.9413 103.945 21.8377 103.945 17.9261Z" fill="#0A0A2B"/>
<path d="M107.79 32.9804H111.636V11.0564H107.79V32.9804Z" fill="#0A0A2B"/>
<path d="M119.654 17.0068C119.654 15.4158 121.054 14.3658 123.249 14.3658C125.477 14.3658 127.736 15.1295 129.391 16.7841L131.523 14.0158C129.55 12.1066 126.877 11.0565 123.568 11.0565C118.922 11.0565 115.835 13.7612 115.835 17.2615C115.835 25.0891 128.213 22.3209 128.213 26.7756C128.213 28.1757 127.004 29.6712 123.949 29.6712C120.99 29.6712 118.699 28.3029 117.236 26.7439L115.167 29.6076C117.045 31.6123 119.876 32.9805 123.79 32.9805C129.518 32.9805 132 29.9577 132 26.4256C132 18.5025 119.654 20.9526 119.654 17.0068Z" fill="#0A0A2B"/>
<path d="M55.426 29.7729C55.426 30.1835 55.2052 30.5659 54.8496 30.7712L41.4186 38.5255C41.063 38.7307 40.6212 38.7307 40.2659 38.5255L26.8349 30.7712C26.4793 30.5659 26.2585 30.1835 26.2585 29.7729V14.2641C26.2585 13.8536 26.4793 13.4711 26.8349 13.2658L40.2659 5.51154C40.4437 5.40892 40.643 5.35752 40.8423 5.35752C41.0415 5.35752 41.2409 5.40892 41.4186 5.51154L54.8496 13.2658C55.2052 13.4711 55.426 13.8536 55.426 14.2641V29.7729ZM55.9789 11.3099L42.5478 3.5555C41.4957 2.94817 40.1888 2.94817 39.1366 3.5555L25.7056 11.3099C24.6535 11.9174 24 13.0492 24 14.2641V29.7729C24 30.9878 24.6535 32.1197 25.7056 32.7271L39.1366 40.4815C39.6626 40.7852 40.2524 40.9369 40.8423 40.9369C41.432 40.9369 42.0218 40.7852 42.5478 40.4815L55.9789 32.7271C57.031 32.1197 57.6845 30.9878 57.6845 29.7729V14.2641C57.6845 13.0492 57.031 11.9174 55.9789 11.3099Z" fill="#01209F"/>
<path d="M52.6034 14.5772L52.6028 14.5768C52.2534 14.3749 51.8228 14.3748 51.4734 14.5766L40.8425 20.7145L30.2116 14.5766C29.8621 14.3748 29.4315 14.3749 29.0822 14.5768L29.0814 14.5773C28.7324 14.7789 28.5175 15.1515 28.5175 15.5546C28.5175 15.958 28.7327 16.3306 29.082 16.5323L38.5839 22.0177L29.0818 27.5054C28.7326 27.707 28.5175 28.0797 28.5175 28.483C28.5175 28.8862 28.7325 29.2588 29.0815 29.4604L29.0821 29.4608C29.4315 29.6627 29.8621 29.6628 30.2116 29.461L52.603 16.5323C52.9523 16.3306 53.1675 15.958 53.1675 15.5546C53.1675 15.1515 52.9525 14.7789 52.6034 14.5772Z" fill="#01209F"/>
<path d="M51.4745 21.6331L35.1917 31.0318C34.4386 31.4665 34.4383 32.5533 35.1911 32.9884C35.5407 33.1904 35.9717 33.1906 36.3214 32.9887L52.6031 23.588C52.9523 23.3864 53.1675 23.0138 53.1675 22.6106C53.1675 21.7417 52.227 21.1986 51.4745 21.6331Z" fill="#01209F"/>
</svg>
