<?xml version="1.0" encoding="UTF-8"?>
<svg width="226px" height="50px" viewBox="0 0 226 50" version="1.1" xmlns="http://www.w3.org/2000/svg" xmlns:xlink="http://www.w3.org/1999/xlink">
    <title>fi-mock-eleve@3x</title>
    <defs>
        <linearGradient x1="-0.0245762712%" y1="49.9959222%" x2="100.080932%" y2="49.9959222%" id="linearGradient-1">
            <stop stop-color="#000091" offset="0%"></stop>
            <stop stop-color="#844470" offset="48.88%"></stop>
            <stop stop-color="#E1000F" offset="100%"></stop>
        </linearGradient>
    </defs>
    <g id="FC+-—-Mire-" stroke="none" stroke-width="1" fill="none" fill-rule="evenodd">
        <g id="fi-mock-eleve">
            <path d="M56.275,39.22 C56.935,39.22 57.5325,39.11 58.0675,38.89 C58.6025,38.67 59.05,38.35 59.41,37.93 L59.41,37.93 L58.615,37 C58.035,37.64 57.27,37.96 56.32,37.96 C55.54,37.96 54.8875,37.7475 54.3625,37.3225 C53.8375,36.8975 53.53,36.335 53.44,35.635 L53.44,35.635 L59.89,35.635 C59.91,35.455 59.92,35.31 59.92,35.2 C59.92,34.4 59.7525,33.69 59.4175,33.07 C59.0825,32.45 58.6175,31.9675 58.0225,31.6225 C57.4275,31.2775 56.75,31.105 55.99,31.105 C55.23,31.105 54.5475,31.2775 53.9425,31.6225 C53.3375,31.9675 52.8625,32.45 52.5175,33.07 C52.1725,33.69 52,34.385 52,35.155 C52,35.935 52.1775,36.635 52.5325,37.255 C52.8875,37.875 53.39,38.3575 54.04,38.7025 C54.69,39.0475 55.435,39.22 56.275,39.22 Z M58.54,34.6 L53.44,34.6 C53.52,33.92 53.7925,33.37 54.2575,32.95 C54.7225,32.53 55.3,32.32 55.99,32.32 C56.68,32.32 57.2575,32.5325 57.7225,32.9575 C58.1875,33.3825 58.46,33.93 58.54,34.6 L58.54,34.6 Z M63.625,39.13 L63.625,28.63 L62.125,28.63 L62.125,39.13 L63.625,39.13 Z M71.2,39.13 C72.31,39.13 73.295,38.91 74.155,38.47 C75.015,38.03 75.6825,37.4125 76.1575,36.6175 C76.6325,35.8225 76.87,34.91 76.87,33.88 C76.87,32.85 76.6325,31.9375 76.1575,31.1425 C75.6825,30.3475 75.015,29.73 74.155,29.29 C73.295,28.85 72.31,28.63 71.2,28.63 L71.2,28.63 L66.775,28.63 L66.775,39.13 L71.2,39.13 Z M71.11,37.825 L68.275,37.825 L68.275,29.935 L71.11,29.935 C71.96,29.935 72.7075,30.1 73.3525,30.43 C73.9975,30.76 74.495,31.2225 74.845,31.8175 C75.195,32.4125 75.37,33.1 75.37,33.88 C75.37,34.66 75.195,35.3475 74.845,35.9425 C74.495,36.5375 73.9975,37 73.3525,37.33 C72.7075,37.66 71.96,37.825 71.11,37.825 L71.11,37.825 Z M79.12,39.13 L80.275,36.505 L85.855,36.505 L87.01,39.13 L88.585,39.13 L83.815,28.63 L82.33,28.63 L77.575,39.13 L79.12,39.13 Z M85.33,35.305 L80.8,35.305 L83.065,30.16 L85.33,35.305 Z M93.205,39.25 C94.095,39.25 94.845,39.1175 95.455,38.8525 C96.065,38.5875 96.52,38.2275 96.82,37.7725 C97.12,37.3175 97.27,36.815 97.27,36.265 C97.27,35.605 97.0975,35.08 96.7525,34.69 C96.4075,34.3 95.995,34.01 95.515,33.82 C95.035,33.63 94.4,33.44 93.61,33.25 C93,33.11 92.5175,32.9775 92.1625,32.8525 C91.8075,32.7275 91.51,32.5525 91.27,32.3275 C91.03,32.1025 90.91,31.81 90.91,31.45 C90.91,30.96 91.1225,30.56 91.5475,30.25 C91.9725,29.94 92.61,29.785 93.46,29.785 C93.94,29.785 94.43,29.8575 94.93,30.0025 C95.43,30.1475 95.9,30.36 96.34,30.64 L96.34,30.64 L96.835,29.44 C96.405,29.14 95.89,28.91 95.29,28.75 C94.69,28.59 94.08,28.51 93.46,28.51 C92.57,28.51 91.825,28.645 91.225,28.915 C90.625,29.185 90.1775,29.545 89.8825,29.995 C89.5875,30.445 89.44,30.95 89.44,31.51 C89.44,32.18 89.6125,32.7125 89.9575,33.1075 C90.3025,33.5025 90.7175,33.795 91.2025,33.985 C91.6875,34.175 92.325,34.365 93.115,34.555 C93.745,34.705 94.2325,34.84 94.5775,34.96 C94.9225,35.08 95.2125,35.2525 95.4475,35.4775 C95.6825,35.7025 95.8,35.995 95.8,36.355 C95.8,36.845 95.585,37.2375 95.155,37.5325 C94.725,37.8275 94.075,37.975 93.205,37.975 C92.545,37.975 91.9025,37.8625 91.2775,37.6375 C90.6525,37.4125 90.14,37.12 89.74,36.76 L89.74,36.76 L89.185,37.93 C89.605,38.32 90.1825,38.6375 90.9175,38.8825 C91.6525,39.1275 92.415,39.25 93.205,39.25 Z M106.75,30.025 L109.27,28.075 L107.44,28.075 L105.4,30.025 L106.75,30.025 Z M106.825,39.22 C107.485,39.22 108.0825,39.11 108.6175,38.89 C109.1525,38.67 109.6,38.35 109.96,37.93 L109.96,37.93 L109.165,37 C108.585,37.64 107.82,37.96 106.87,37.96 C106.09,37.96 105.4375,37.7475 104.9125,37.3225 C104.3875,36.8975 104.08,36.335 103.99,35.635 L103.99,35.635 L110.44,35.635 C110.46,35.455 110.47,35.31 110.47,35.2 C110.47,34.4 110.3025,33.69 109.9675,33.07 C109.6325,32.45 109.1675,31.9675 108.5725,31.6225 C107.9775,31.2775 107.3,31.105 106.54,31.105 C105.78,31.105 105.0975,31.2775 104.4925,31.6225 C103.8875,31.9675 103.4125,32.45 103.0675,33.07 C102.7225,33.69 102.55,34.385 102.55,35.155 C102.55,35.935 102.7275,36.635 103.0825,37.255 C103.4375,37.875 103.94,38.3575 104.59,38.7025 C105.24,39.0475 105.985,39.22 106.825,39.22 Z M109.09,34.6 L103.99,34.6 C104.07,33.92 104.3425,33.37 104.8075,32.95 C105.2725,32.53 105.85,32.32 106.54,32.32 C107.23,32.32 107.8075,32.5325 108.2725,32.9575 C108.7375,33.3825 109.01,33.93 109.09,34.6 L109.09,34.6 Z M113.905,39.13 L113.905,28 L112.465,28 L112.465,39.13 L113.905,39.13 Z M120.19,39.22 C120.85,39.22 121.4475,39.11 121.9825,38.89 C122.5175,38.67 122.965,38.35 123.325,37.93 L123.325,37.93 L122.53,37 C121.95,37.64 121.185,37.96 120.235,37.96 C119.455,37.96 118.8025,37.7475 118.2775,37.3225 C117.7525,36.8975 117.445,36.335 117.355,35.635 L117.355,35.635 L123.805,35.635 C123.825,35.455 123.835,35.31 123.835,35.2 C123.835,34.4 123.6675,33.69 123.3325,33.07 C122.9975,32.45 122.5325,31.9675 121.9375,31.6225 C121.3425,31.2775 120.665,31.105 119.905,31.105 C119.145,31.105 118.4625,31.2775 117.8575,31.6225 C117.2525,31.9675 116.7775,32.45 116.4325,33.07 C116.0875,33.69 115.915,34.385 115.915,35.155 C115.915,35.935 116.0925,36.635 116.4475,37.255 C116.8025,37.875 117.305,38.3575 117.955,38.7025 C118.605,39.0475 119.35,39.22 120.19,39.22 Z M122.455,34.6 L117.355,34.6 C117.435,33.92 117.7075,33.37 118.1725,32.95 C118.6375,32.53 119.215,32.32 119.905,32.32 C120.595,32.32 121.1725,32.5325 121.6375,32.9575 C122.1025,33.3825 122.375,33.93 122.455,34.6 L122.455,34.6 Z M129.385,39.13 L132.865,31.18 L131.455,31.18 L128.665,37.555 L125.935,31.18 L124.435,31.18 L127.915,39.13 L129.385,39.13 Z M137.68,30.025 L140.2,28.075 L138.37,28.075 L136.33,30.025 L137.68,30.025 Z M137.755,39.22 C138.415,39.22 139.0125,39.11 139.5475,38.89 C140.0825,38.67 140.53,38.35 140.89,37.93 L140.89,37.93 L140.095,37 C139.515,37.64 138.75,37.96 137.8,37.96 C137.02,37.96 136.3675,37.7475 135.8425,37.3225 C135.3175,36.8975 135.01,36.335 134.92,35.635 L134.92,35.635 L141.37,35.635 C141.39,35.455 141.4,35.31 141.4,35.2 C141.4,34.4 141.2325,33.69 140.8975,33.07 C140.5625,32.45 140.0975,31.9675 139.5025,31.6225 C138.9075,31.2775 138.23,31.105 137.47,31.105 C136.71,31.105 136.0275,31.2775 135.4225,31.6225 C134.8175,31.9675 134.3425,32.45 133.9975,33.07 C133.6525,33.69 133.48,34.385 133.48,35.155 C133.48,35.935 133.6575,36.635 134.0125,37.255 C134.3675,37.875 134.87,38.3575 135.52,38.7025 C136.17,39.0475 136.915,39.22 137.755,39.22 Z M140.02,34.6 L134.92,34.6 C135,33.92 135.2725,33.37 135.7375,32.95 C136.2025,32.53 136.78,32.32 137.47,32.32 C138.16,32.32 138.7375,32.5325 139.2025,32.9575 C139.6675,33.3825 139.94,33.93 140.02,34.6 L140.02,34.6 Z" id="eIDASélevé" fill="#000091" fill-rule="nonzero"></path>
            <path d="M55.39,19.795 L55.39,13.045 L57.07,13.045 C57.6500029,13.045 58.137498,13.1274992 58.5325,13.2925 C58.927502,13.4575008 59.2449988,13.6949984 59.485,14.005 C59.7250012,14.3150015 59.8974995,14.6874978 60.0025,15.1225 C60.1075005,15.5575022 60.16,16.045 60.16,16.585 C60.16,17.1750029 60.0850008,17.6749979 59.935,18.085 C59.7849993,18.495002 59.5850013,18.8274987 59.335,19.0825 C59.0849988,19.3375013 58.8000016,19.5199994 58.48,19.63 C58.1599984,19.7400005 57.8300017,19.795 57.49,19.795 L55.39,19.795 Z M53.035,11.065 L53.035,21.775 L57.655,21.775 C58.4750041,21.775 59.187497,21.6375014 59.7925,21.3625 C60.397503,21.0874986 60.902498,20.7100024 61.3075,20.23 C61.712502,19.7499976 62.014999,19.1800033 62.215,18.52 C62.415001,17.8599967 62.515,17.1400039 62.515,16.36 C62.515,15.4699955 62.3925012,14.6950033 62.1475,14.035 C61.9024988,13.3749967 61.5625022,12.8250022 61.1275,12.385 C60.6924978,11.9449978 60.177503,11.6150011 59.5825,11.395 C58.987497,11.1749989 58.3450035,11.065 57.655,11.065 L53.035,11.065 Z M69.145,17.065 C69.0449995,16.5249973 68.8675013,16.1150014 68.6125,15.835 C68.3574987,15.5549986 67.9700026,15.415 67.45,15.415 C67.1099983,15.415 66.8275011,15.4724994 66.6025,15.5875 C66.3774989,15.7025006 66.1975007,15.8449991 66.0625,16.015 C65.9274993,16.1850008 65.8325003,16.364999 65.7775,16.555 C65.7224997,16.7450009 65.6900001,16.915 65.68,17.065 L69.145,17.065 Z M65.68,18.415 C65.7100002,19.1050034 65.8849984,19.6049984 66.205,19.915 C66.5250016,20.2250015 66.984997,20.38 67.585,20.38 C68.0150022,20.38 68.3849985,20.2725011 68.695,20.0575 C69.0050016,19.8424989 69.1949997,19.6150012 69.265,19.375 L71.14,19.375 C70.8399985,20.3050046 70.3800031,20.969998 69.76,21.37 C69.1399969,21.770002 68.3900044,21.97 67.51,21.97 C66.899997,21.97 66.3500025,21.872501 65.86,21.6775 C65.3699976,21.482499 64.9550017,21.2050018 64.615,20.845 C64.2749983,20.4849982 64.0125009,20.0550025 63.8275,19.555 C63.6424991,19.0549975 63.55,18.505003 63.55,17.905 C63.55,17.3249971 63.6449991,16.7850025 63.835,16.285 C64.025001,15.7849975 64.2949983,15.3525018 64.645,14.9875 C64.9950018,14.6224982 65.4124976,14.335001 65.8975,14.125 C66.3825024,13.9149989 66.9199971,13.81 67.51,13.81 C68.1700033,13.81 68.7449976,13.9374987 69.235,14.1925 C69.7250025,14.4475013 70.1274984,14.7899978 70.4425,15.22 C70.7575016,15.6500021 70.9849993,16.1399972 71.125,16.69 C71.2650007,17.2400027 71.3150002,17.814997 71.275,18.415 L65.68,18.415 Z M70.225,10 L67.78,12.655 L66.295,12.655 L67.885,10 L70.225,10 Z M72.595,14.02 L72.595,21.775 L74.725,21.775 L74.725,17.275 C74.725,16.8949981 74.7799995,16.5875012 74.89,16.3525 C75.0000006,16.1174988 75.1324992,15.9375006 75.2875,15.8125 C75.4425008,15.6874994 75.6024992,15.6025002 75.7675,15.5575 C75.9325008,15.5124998 76.0649995,15.49 76.165,15.49 C76.5050017,15.49 76.7624991,15.5474994 76.9375,15.6625 C77.1125009,15.7775006 77.2374996,15.929999 77.3125,16.12 C77.3875004,16.31 77.43,16.5174989 77.44,16.7425 C77.4500001,16.9675011 77.455,17.1949988 77.455,17.425 L77.455,21.775 L79.585,21.775 L79.585,17.455 C79.585,17.2149988 79.6024998,16.9775012 79.6375,16.7425 C79.6725002,16.5074988 79.7424995,16.2975009 79.8475,16.1125 C79.9525005,15.9274991 80.0974991,15.7775006 80.2825,15.6625 C80.4675009,15.5474994 80.7099985,15.49 81.01,15.49 C81.3100015,15.49 81.5474991,15.5399995 81.7225,15.64 C81.8975009,15.7400005 82.0299996,15.8749991 82.12,16.045 C82.2100005,16.2150008 82.2649999,16.4149988 82.285,16.645 C82.3050001,16.8750011 82.315,17.1199987 82.315,17.38 L82.315,21.775 L84.445,21.775 L84.445,16.585 C84.445,16.0849975 84.3750007,15.6575018 84.235,15.3025 C84.095,14.9474982 83.9000013,14.6600011 83.65,14.44 C83.3999988,14.2199989 83.1000018,14.0600005 82.75,13.96 C82.3999983,13.8599995 82.0200021,13.81 81.61,13.81 C81.0699973,13.81 80.602502,13.9399987 80.2075,14.2 C79.812498,14.4600013 79.5000012,14.7599983 79.27,15.1 C79.059999,14.6199976 78.752502,14.2850009 78.3475,14.095 C77.942498,13.904999 77.4950025,13.81 77.005,13.81 C76.4949975,13.81 76.042502,13.9199989 75.6475,14.14 C75.252498,14.3600011 74.9150014,14.669998 74.635,15.07 L74.605,15.07 L74.605,14.02 L72.595,14.02 Z M88.015,17.905 C88.015,17.5949984 88.0449997,17.2900015 88.105,16.99 C88.1650003,16.6899985 88.2674993,16.4250011 88.4125,16.195 C88.5575007,15.9649988 88.7499988,15.7775007 88.99,15.6325 C89.2300012,15.4874993 89.5299982,15.415 89.89,15.415 C90.2500018,15.415 90.5524988,15.4874993 90.7975,15.6325 C91.0425012,15.7775007 91.2374993,15.9649988 91.3825,16.195 C91.5275007,16.4250011 91.6299997,16.6899985 91.69,16.99 C91.7500003,17.2900015 91.78,17.5949984 91.78,17.905 C91.78,18.2150015 91.7500003,18.5174985 91.69,18.8125 C91.6299997,19.1075015 91.5275007,19.3724988 91.3825,19.6075 C91.2374993,19.8425012 91.0425012,20.0299993 90.7975,20.17 C90.5524988,20.3100007 90.2500018,20.38 89.89,20.38 C89.5299982,20.38 89.2300012,20.3100007 88.99,20.17 C88.7499988,20.0299993 88.5575007,19.8425012 88.4125,19.6075 C88.2674993,19.3724988 88.1650003,19.1075015 88.105,18.8125 C88.0449997,18.5174985 88.015,18.2150015 88.015,17.905 Z M85.885,17.905 C85.885,18.5250031 85.9799991,19.0849975 86.17,19.585 C86.360001,20.0850025 86.6299983,20.5124982 86.98,20.8675 C87.3300018,21.2225018 87.7499976,21.494999 88.24,21.685 C88.7300025,21.8750009 89.279997,21.97 89.89,21.97 C90.5000031,21.97 91.0524975,21.8750009 91.5475,21.685 C92.0425025,21.494999 92.4649983,21.2225018 92.815,20.8675 C93.1650018,20.5124982 93.4349991,20.0850025 93.625,19.585 C93.815001,19.0849975 93.91,18.5250031 93.91,17.905 C93.91,17.2849969 93.815001,16.7225025 93.625,16.2175 C93.4349991,15.7124975 93.1650018,15.2825018 92.815,14.9275 C92.4649983,14.5724982 92.0425025,14.297501 91.5475,14.1025 C91.0524975,13.907499 90.5000031,13.81 89.89,13.81 C89.279997,13.81 88.7300025,13.907499 88.24,14.1025 C87.7499976,14.297501 87.3300018,14.5724982 86.98,14.9275 C86.6299983,15.2825018 86.360001,15.7124975 86.17,16.2175 C85.9799991,16.7225025 85.885,17.2849969 85.885,17.905 Z M95.29,14.02 L95.29,21.775 L97.42,21.775 L97.42,17.71 C97.42,16.919996 97.5499987,16.3525017 97.81,16.0075 C98.0700013,15.6624983 98.4899971,15.49 99.07,15.49 C99.5800026,15.49 99.934999,15.6474984 100.135,15.9625 C100.335001,16.2775016 100.435,16.7549968 100.435,17.395 L100.435,21.775 L102.565,21.775 L102.565,17.005 C102.565,16.5249976 102.5225,16.087502 102.4375,15.6925 C102.3525,15.297498 102.205001,14.9625014 101.995,14.6875 C101.784999,14.4124986 101.497502,14.1975008 101.1325,14.0425 C100.767498,13.8874992 100.300003,13.81 99.73,13.81 C99.2799978,13.81 98.8400022,13.912499 98.41,14.1175 C97.9799979,14.322501 97.6300014,14.6499977 97.36,15.1 L97.315,15.1 L97.315,14.02 L95.29,14.02 Z M105.835,19.255 L103.81,19.255 C103.83,19.7750026 103.947499,20.2074983 104.1625,20.5525 C104.377501,20.8975017 104.652498,21.1749989 104.9875,21.385 C105.322502,21.595001 105.704998,21.7449995 106.135,21.835 C106.565002,21.9250004 107.004998,21.97 107.455,21.97 C107.895002,21.97 108.327498,21.9275004 108.7525,21.8425 C109.177502,21.7574996 109.554998,21.610001 109.885,21.4 C110.215002,21.1899989 110.482499,20.9125017 110.6875,20.5675 C110.892501,20.2224983 110.995,19.7950025 110.995,19.285 C110.995,18.9249982 110.925001,18.6225012 110.785,18.3775 C110.644999,18.1324988 110.460001,17.9275008 110.23,17.7625 C109.999999,17.5974992 109.737501,17.4650005 109.4425,17.365 C109.147499,17.2649995 108.845002,17.1800003 108.535,17.11 L108.08875,17.00875 L108.08875,17.00875 L107.65,16.915 C107.359999,16.8549997 107.102501,16.7875004 106.8775,16.7125 C106.652499,16.6374996 106.470001,16.5400006 106.33,16.42 C106.189999,16.2999994 106.12,16.1450009 106.12,15.955 C106.12,15.7949992 106.16,15.6675005 106.24,15.5725 C106.32,15.4774995 106.417499,15.4050002 106.5325,15.355 C106.647501,15.3049997 106.774999,15.2725001 106.915,15.2575 C107.055001,15.2424999 107.184999,15.235 107.305,15.235 C107.685002,15.235 108.014999,15.3074993 108.295,15.4525 C108.575001,15.5975007 108.73,15.8749979 108.76,16.285 L110.785,16.285 C110.745,15.8049976 110.622501,15.4075016 110.4175,15.0925 C110.212499,14.7774984 109.955002,14.5250009 109.645,14.335 C109.334998,14.144999 108.982502,14.0100004 108.5875,13.93 C108.192498,13.8499996 107.785002,13.81 107.365,13.81 C106.944998,13.81 106.535002,13.8474996 106.135,13.9225 C105.734998,13.9975004 105.375002,14.1274991 105.055,14.3125 C104.734998,14.4975009 104.477501,14.7499984 104.2825,15.07 C104.087499,15.3900016 103.99,15.7999975 103.99,16.3 C103.99,16.6400017 104.059999,16.9274988 104.2,17.1625 C104.340001,17.3975012 104.524999,17.5924992 104.755,17.7475 C104.985001,17.9025008 105.247499,18.0274995 105.5425,18.1225 C105.837501,18.2175005 106.139998,18.2999996 106.45,18.37 C107.210004,18.5300008 107.802498,18.6899992 108.2275,18.85 C108.652502,19.0100008 108.865,19.2499984 108.865,19.57 C108.865,19.7600009 108.82,19.9174994 108.73,20.0425 C108.64,20.1675006 108.527501,20.2674996 108.3925,20.3425 C108.257499,20.4175004 108.107501,20.4724998 107.9425,20.5075 C107.777499,20.5425002 107.620001,20.56 107.47,20.56 C107.259999,20.56 107.057501,20.5350002 106.8625,20.485 C106.667499,20.4349997 106.495001,20.3575005 106.345,20.2525 C106.194999,20.1474995 106.0725,20.0125008 105.9775,19.8475 C105.8825,19.6824992 105.835,19.4850011 105.835,19.255 Z M114.94,14.02 L114.94,11.695 L112.81,11.695 L112.81,14.02 L111.52,14.02 L111.52,15.445 L112.81,15.445 L112.81,20.02 C112.81,20.4100019 112.874999,20.7249988 113.005,20.965 C113.135001,21.2050012 113.312499,21.3899993 113.5375,21.52 C113.762501,21.6500006 114.022499,21.7374998 114.3175,21.7825 C114.612501,21.8275002 114.924998,21.85 115.255,21.85 C115.465001,21.85 115.679999,21.845 115.9,21.835 C116.120001,21.8249999 116.319999,21.8050001 116.5,21.775 L116.5,20.125 C116.4,20.1450001 116.295001,20.1599999 116.185,20.17 C116.074999,20.18 115.960001,20.185 115.84,20.185 C115.479998,20.185 115.240001,20.1250006 115.12,20.005 C114.999999,19.8849994 114.94,19.6450018 114.94,19.285 L114.94,15.445 L116.5,15.445 L116.5,14.02 L114.94,14.02 Z M117.52,14.02 L117.52,21.775 L119.65,21.775 L119.65,18.28 C119.65,17.9299982 119.685,17.6050015 119.755,17.305 C119.825,17.0049985 119.942499,16.7425011 120.1075,16.5175 C120.272501,16.2924989 120.489999,16.1150006 120.76,15.985 C121.030001,15.8549993 121.359998,15.79 121.75,15.79 C121.880001,15.79 122.014999,15.7974999 122.155,15.8125 L122.408333,15.8458333 C122.446111,15.8519444 122.481667,15.8583333 122.515,15.865 L122.515,13.885 C122.344999,13.8349997 122.190001,13.81 122.05,13.81 C121.779999,13.81 121.52,13.8499996 121.27,13.93 C121.02,14.0100004 120.785001,14.1224993 120.565,14.2675 C120.344999,14.4125007 120.150001,14.587499 119.98,14.7925 C119.809999,14.997501 119.675001,15.2199988 119.575,15.46 L119.545,15.46 L119.545,14.02 L117.52,14.02 Z M123.265,16.405 C123.295,15.9049975 123.419999,15.4900016 123.64,15.16 C123.860001,14.8299983 124.139998,14.565001 124.48,14.365 C124.820002,14.164999 125.202498,14.0225004 125.6275,13.9375 C126.052502,13.8524996 126.479998,13.81 126.91,13.81 C127.300002,13.81 127.694998,13.8374997 128.095,13.8925 C128.495002,13.9475003 128.859998,14.0549992 129.19,14.215 C129.520002,14.3750008 129.789999,14.5974986 130,14.8825 C130.210001,15.1675014 130.315,15.5449976 130.315,16.015 L130.315,20.05 C130.315,20.4000017 130.335,20.7349984 130.375,21.055 C130.415,21.3750016 130.485,21.6149992 130.585,21.775 L128.425,21.775 C128.385,21.6549994 128.3525,21.5325006 128.3275,21.4075 C128.3025,21.2824994 128.285,21.1550006 128.275,21.025 C127.934998,21.3750017 127.535002,21.6199993 127.075,21.76 C126.614998,21.9000007 126.145002,21.97 125.665,21.97 C125.294998,21.97 124.950002,21.9250004 124.63,21.835 C124.309998,21.7449995 124.030001,21.6050009 123.79,21.415 C123.549999,21.224999 123.362501,20.9850014 123.2275,20.695 C123.092499,20.4049985 123.025,20.060002 123.025,19.66 C123.025,19.2199978 123.102499,18.8575014 123.2575,18.5725 C123.412501,18.2874986 123.612499,18.0600008 123.8575,17.89 C124.102501,17.7199991 124.382498,17.5925004 124.6975,17.5075 C125.012502,17.4224996 125.329998,17.3550002 125.65,17.305 C125.863334,17.2716665 126.074444,17.2427777 126.283333,17.2183333 L126.595,17.185 C126.905002,17.1549998 127.179999,17.1100003 127.42,17.05 C127.660001,16.9899997 127.849999,16.9025006 127.99,16.7875 C128.130001,16.6724994 128.195,16.5050011 128.185,16.285 C128.185,16.0549988 128.1475,15.8725007 128.0725,15.7375 C127.9975,15.6024993 127.897501,15.4975004 127.7725,15.4225 C127.647499,15.3474996 127.502501,15.2975001 127.3375,15.2725 C127.172499,15.2474999 126.995001,15.235 126.805,15.235 C126.384998,15.235 126.055001,15.3249991 125.815,15.505 C125.574999,15.6850009 125.435,15.9849979 125.395,16.405 L123.265,16.405 Z M128.185,17.98 C128.095,18.0600004 127.982501,18.1224998 127.8475,18.1675 C127.712499,18.2125002 127.567501,18.2499998 127.4125,18.28 L127.174375,18.32125 L127.174375,18.32125 L126.925,18.355 C126.754999,18.3750001 126.585001,18.3999998 126.415,18.43 C126.254999,18.4600001 126.097501,18.4999997 125.9425,18.55 C125.787499,18.6000002 125.652501,18.6674996 125.5375,18.7525 C125.422499,18.8375004 125.33,18.9449993 125.26,19.075 C125.19,19.2050006 125.155,19.369999 125.155,19.57 C125.155,19.7600009 125.19,19.9199993 125.26,20.05 C125.33,20.1800006 125.424999,20.2824996 125.545,20.3575 C125.665001,20.4325004 125.804999,20.4849998 125.965,20.515 C126.125001,20.5450001 126.289999,20.56 126.46,20.56 C126.880002,20.56 127.204999,20.4900007 127.435,20.35 C127.665001,20.2099993 127.834999,20.042501 127.945,19.8475 C128.055001,19.652499 128.1225,19.455001 128.1475,19.255 L128.175625,18.9849998 C128.181875,18.905 128.185,18.8350003 128.185,18.775 L128.185,17.98 Z M134.665,14.02 L134.665,11.695 L132.535,11.695 L132.535,14.02 L131.245,14.02 L131.245,15.445 L132.535,15.445 L132.535,20.02 C132.535,20.4100019 132.599999,20.7249988 132.73,20.965 C132.860001,21.2050012 133.037499,21.3899993 133.2625,21.52 C133.487501,21.6500006 133.747499,21.7374998 134.0425,21.7825 C134.337501,21.8275002 134.649998,21.85 134.98,21.85 C135.190001,21.85 135.404999,21.845 135.625,21.835 C135.845001,21.8249999 136.044999,21.8050001 136.225,21.775 L136.225,20.125 C136.125,20.1450001 136.020001,20.1599999 135.91,20.17 C135.799999,20.18 135.685001,20.185 135.565,20.185 C135.204998,20.185 134.965001,20.1250006 134.845,20.005 C134.724999,19.8849994 134.665,19.6450018 134.665,19.285 L134.665,15.445 L136.225,15.445 L136.225,14.02 L134.665,14.02 Z M139.435,12.82 L139.435,11.065 L137.305,11.065 L137.305,12.82 L139.435,12.82 Z M137.305,14.02 L137.305,21.775 L139.435,21.775 L139.435,14.02 L137.305,14.02 Z M143.005,17.905 C143.005,17.5949984 143.035,17.2900015 143.095,16.99 C143.155,16.6899985 143.257499,16.4250011 143.4025,16.195 C143.547501,15.9649988 143.739999,15.7775007 143.98,15.6325 C144.220001,15.4874993 144.519998,15.415 144.88,15.415 C145.240002,15.415 145.542499,15.4874993 145.7875,15.6325 C146.032501,15.7775007 146.227499,15.9649988 146.3725,16.195 C146.517501,16.4250011 146.62,16.6899985 146.68,16.99 C146.74,17.2900015 146.77,17.5949984 146.77,17.905 C146.77,18.2150015 146.74,18.5174985 146.68,18.8125 C146.62,19.1075015 146.517501,19.3724988 146.3725,19.6075 C146.227499,19.8425012 146.032501,20.0299993 145.7875,20.17 C145.542499,20.3100007 145.240002,20.38 144.88,20.38 C144.519998,20.38 144.220001,20.3100007 143.98,20.17 C143.739999,20.0299993 143.547501,19.8425012 143.4025,19.6075 C143.257499,19.3724988 143.155,19.1075015 143.095,18.8125 C143.035,18.5174985 143.005,18.2150015 143.005,17.905 Z M140.875,17.905 C140.875,18.5250031 140.969999,19.0849975 141.16,19.585 C141.350001,20.0850025 141.619998,20.5124982 141.97,20.8675 C142.320002,21.2225018 142.739998,21.494999 143.23,21.685 C143.720002,21.8750009 144.269997,21.97 144.88,21.97 C145.490003,21.97 146.042498,21.8750009 146.5375,21.685 C147.032502,21.494999 147.454998,21.2225018 147.805,20.8675 C148.155002,20.5124982 148.424999,20.0850025 148.615,19.585 C148.805001,19.0849975 148.9,18.5250031 148.9,17.905 C148.9,17.2849969 148.805001,16.7225025 148.615,16.2175 C148.424999,15.7124975 148.155002,15.2825018 147.805,14.9275 C147.454998,14.5724982 147.032502,14.297501 146.5375,14.1025 C146.042498,13.907499 145.490003,13.81 144.88,13.81 C144.269997,13.81 143.720002,13.907499 143.23,14.1025 C142.739998,14.297501 142.320002,14.5724982 141.97,14.9275 C141.619998,15.2825018 141.350001,15.7124975 141.16,16.2175 C140.969999,16.7225025 140.875,17.2849969 140.875,17.905 Z M150.28,14.02 L152.305,14.02 L152.305,15.1 L152.35,15.1 C152.620001,14.6499977 152.969998,14.322501 153.4,14.1175 C153.830002,13.912499 154.269998,13.81 154.72,13.81 C155.290003,13.81 155.757498,13.8874992 156.1225,14.0425 C156.487502,14.1975008 156.774999,14.4124986 156.985,14.6875 C157.195001,14.9625014 157.3425,15.297498 157.4275,15.6925 C157.5125,16.087502 157.555,16.5249976 157.555,17.005 L157.555,21.775 L155.425,21.775 L155.425,17.395 C155.425,16.7549968 155.325001,16.2775016 155.125,15.9625 C154.924999,15.6474984 154.570003,15.49 154.06,15.49 C153.479997,15.49 153.060001,15.6624983 152.8,16.0075 C152.539999,16.3525017 152.41,16.919996 152.41,17.71 L152.41,21.775 L150.28,21.775 L150.28,14.02 Z" id="Démonstration-Copy-4" fill="#000091" fill-rule="nonzero"></path>
            <g id="Group-6-Copy-3" transform="translate(-0.000000, 0.000000)">
                <path d="M22.3995537,0.833404784 C22.1671932,0.694503987 21.7489443,0.694503987 21.5165837,0.833404784 L1.16180258,12.547372 C0.929442062,12.6862728 0.74355365,13.0103747 0.74355365,13.2881763 L0.74355365,36.6698105 C0.74355365,36.9476121 0.929442062,37.271714 1.16180258,37.4106148 L21.5165837,49.124582 C21.7489443,49.2634828 22.1671932,49.2634828 22.3995537,49.124582 L42.7543349,37.4106148 C42.9866954,37.271714 43.1725838,36.9476121 43.1725838,36.6698105 L43.1725838,13.2881763 C43.1725838,13.0103747 42.9866954,12.6862728 42.7543349,12.547372 L22.3995537,0.833404784 Z" id="Path" fill="#FFFFFF" fill-rule="nonzero"></path>
                <path d="M22.3530816,0.833404784 L42.7078628,12.547372 C42.9402233,12.6862728 43.1261117,13.0103747 43.1261117,13.2881763 L43.1261117,36.6698105 C43.1261117,36.9476121 42.9402233,37.271714 42.7078628,37.4106148 L22.3530816,49.124582 C22.2136653,49.1708823 22.074249,49.2171825 21.9348327,49.2171825 C21.7954164,49.2171825 21.6095279,49.1708823 21.5165837,49.124582 L1.16180258,37.4106148 C0.929442062,37.271714 0.74355365,36.9476121 0.74355365,36.6698105 L0.74355365,13.2881763 C0.74355365,13.0103747 0.929442062,12.6862728 1.16180258,12.547372 L21.5165837,0.833404784 C21.6095279,0.787104519 21.7954164,0.740804253 21.9348327,0.740804253 C22.074249,0.740804253 22.2601374,0.787104519 22.3530816,0.833404784 Z M21.1448069,0.185201063 L0.790025753,11.8991683 C0.325304722,12.1769699 -1.42108547e-14,12.7788734 -1.42108547e-14,13.2881763 L-1.42108547e-14,36.6698105 C-1.42108547e-14,37.2254137 0.325304722,37.7810169 0.790025753,38.0588185 L21.1448069,49.7727857 C21.4236395,49.9579868 21.7489443,49.9579868 21.9348327,49.9579868 C22.1207211,49.9579868 22.4460258,49.9116865 22.7248584,49.7727857 L43.0796396,38.0588185 C43.5443606,37.7810169 43.8696653,37.1791134 43.8696653,36.6698105 L43.8696653,13.2881763 C43.8696653,12.7325731 43.5443606,12.1769699 43.0796396,11.8991683 L22.7713305,0.185201063 C22.4460258,4.08562073e-13 22.1671932,4.08562073e-13 21.9348327,4.08562073e-13 C21.7489443,4.08562073e-13 21.4236395,0.0463002658 21.1448069,0.185201063 Z" id="Shape" fill="url(#linearGradient-1)" fill-rule="nonzero"></path>
                <path d="M15.9847093,12.6435932 C15.9847093,12.6435932 15.9369766,12.5958605 15.9369766,12.5958605 C15.9847093,12.5958605 15.9847093,12.5958605 15.9847093,12.6435932 Z" id="Path" fill="#EA212E" fill-rule="nonzero"></path>
                <path d="M21.8810611,43.8846433 L6.02289542,34.7376509 C5.8374198,34.644788 5.69831308,34.3661994 5.69831308,34.1804737 L5.69831308,16.1650774 C5.69831308,15.9329202 5.8374198,15.700763 6.02289542,15.6079001 L21.92743,6.41447626" id="XMLID_127_" fill="#0053CC" fill-rule="nonzero"></path>
                <path d="M5.74468199,34.0994405 L5.69831308,16.0591949 C5.69831308,15.8267175 5.8374198,15.5942401 6.02289542,15.5012492 L21.92743,6.29514452" id="XMLID_125_" fill="#000091" fill-rule="nonzero"></path>
                <polygon id="Path" fill="#E1000F" fill-rule="nonzero" points="6.05630831 15.4240228 10.9351813 25.2688915 16.5575016 15.5164629 11.7715595 12.1423999"></polygon>
                <path d="M27.8701508,12.6435932 C27.8701508,12.6435932 27.9178835,12.5958605 27.9178835,12.5958605 C27.8701508,12.5958605 27.8701508,12.5958605 27.8701508,12.6435932 Z" id="Path" fill="#EA212E" fill-rule="nonzero"></path>
                <path d="M21.9737989,43.7653116 L37.8319646,34.6296397 C38.0174403,34.5368917 38.156547,34.2586479 38.156547,34.073152 L38.156547,16.080052 C38.156547,15.8481822 38.0174403,15.6163123 37.8319646,15.5235644 L21.92743,6.29514452" id="XMLID_124_" fill="#000091" fill-rule="nonzero"></path>
                <path d="M38.1101781,34.0994405 L38.156547,16.0729886 C38.156547,15.8412861 38.0174403,15.6095837 37.8319646,15.5169027 L21.92743,6.29514452" id="XMLID_121_" fill="#E1000F" fill-rule="nonzero"></path>
                <polygon id="Path" fill="#0053CC" fill-rule="nonzero" points="37.67922 15.3745128 32.8932779 25.1495598 27.1780267 15.327965 31.9175033 12.0230681"></polygon>
                <path d="M27.9550443,14.955591 C28.3285448,15.1431943 28.6754641,15.3842525 28.9157176,15.7594591 C29.0223833,15.9205051 29.1559711,16.2153588 29.0758866,16.4298599 C28.9688801,16.6709181 28.9157176,17.0999202 28.6754641,17.1802729 C28.3820481,17.3413189 27.9816255,17.3413189 27.608125,17.2875234 C27.3947935,17.2875234 27.2080432,17.2340684 26.994371,17.1802729 C27.7417128,17.4751267 28.4621326,17.8503332 28.9688801,18.5476318 C29.0223833,18.6545418 29.2091336,18.7083373 29.4224651,18.7083373 C29.4759684,18.7083373 29.4759684,18.8155878 29.4759684,18.8690428 C29.3693026,18.9762933 29.2626369,19.0300888 29.3157994,19.1638966 L29.4759684,19.1638966 C29.7162219,19.0566461 29.6896407,18.5476318 30.0362191,18.7083373 C30.2764727,18.8690428 30.3831384,19.2176921 30.2498914,19.4590908 C30.0362191,19.6732514 29.8494689,19.8073996 29.6361374,19.9681051 C29.5826341,20.0753557 29.5826341,20.2095039 29.6361374,20.3167544 C29.7963064,20.5312554 29.8494689,20.7188587 29.8760501,20.9333597 C30.0362191,21.2816685 30.0897224,21.6837728 30.2233102,22.0589793 C30.4366417,22.8097329 30.6233919,23.5870437 30.5698887,24.3377972 C30.5698887,24.7399015 30.3565572,25.0882103 30.5167262,25.4903146 C30.6233919,25.8924189 30.8633047,26.1872726 31.076977,26.5624792 C31.2903085,26.8576734 31.4770587,27.071834 31.6372277,27.3670282 C31.7023177,27.4800668 31.7806983,27.5931055 31.8607828,27.7071655 L31.9408673,27.8215661 C32.1923667,28.1848559 32.4200112,28.5604029 32.2509818,28.9751049 C32.0908128,29.3237541 31.5571432,29.2702991 31.1836427,29.4844596 C30.8902267,29.7258584 31.1304802,30.1548604 31.2903085,30.3959187 C31.530562,30.8518185 30.9968925,31.1466723 30.6233919,31.3073778 C30.7300577,31.4684238 30.916808,31.4146283 30.9699704,31.5218788 C31.0234737,31.7629371 31.2637272,31.9239831 31.1304802,32.1919391 C31.0691389,32.2763776 30.9778085,32.3495803 30.8851149,32.4217616 L30.8155948,32.4762381 C30.6097605,32.6393269 30.434597,32.8102468 30.6233919,33.1033982 C30.8367234,33.4520474 30.7034765,33.8538112 30.5698887,34.2293583 C30.4097197,34.6849176 30.0096379,34.8994186 29.6627186,34.9801118 C29.3693026,35.0870218 28.9954613,35.0870218 28.7023861,35.0335668 C28.5953796,34.9801118 28.4887138,34.9263163 28.4086293,34.9263163 C27.5546217,34.8190658 26.7009549,34.577667 25.8472882,34.577667 C25.6070346,34.6314625 25.3401999,34.6849176 25.1534496,34.7656108 C24.9131961,34.9263163 24.7264458,35.1139196 24.5396956,35.3015229 C24.5131143,35.3553183 24.4596111,35.3818756 24.4330298,35.4356711 C24.4064486,35.4625688 24.3798673,35.4891261 24.3798673,35.5160239 L24.3638504,35.5320263 L24.3420402,35.5538169 C24.3379508,35.5579026 24.332839,35.5630098 24.3263641,35.5694789 C24.166195,35.7574226 24.0595293,35.9450259 23.9262823,36.1591864 C23.9262823,36.1860842 23.8993603,36.1860842 23.8993603,36.1860842 C23.8993603,36.2129819 23.872779,36.2398797 23.8461978,36.2664369 C23.685688,36.5616312 23.552441,36.8830422 23.4723565,37.2047937 C23.1254372,38.3573111 23.2856062,39.3494634 23.5258598,39.5908622 C23.685688,39.7515677 25.6074049,40.3473924 27.2973584,40.9013498 C24.3445463,43.3675391 21.9579114,44.6006338 20.1374539,44.6006338 C17.6235031,44.6006338 13.4071148,42.9299894 7.48828922,39.5887006 C8.92094996,39.5887006 8.71704136,40.1628649 10.0512152,39.494507 C10.6915505,39.2272319 12.1323901,38.558874 12.6128971,38.0777788 C12.9063131,37.783606 13.1997291,37.4897737 13.4665639,37.1690436 C14.0002334,36.5541407 14.533903,35.9926928 15.147657,35.4578022 C15.3344073,35.2977776 15.5211575,35.1370721 15.7079078,35.030162 C15.7614111,34.976707 15.7614111,34.869797 15.8145735,34.816342 C15.5746608,34.923252 15.414151,35.1105148 15.147657,35.2174248 C15.0941537,35.2174248 15.0409913,35.1639698 15.0941537,35.1105148 C15.280904,34.976707 15.4676543,34.8432397 15.6278233,34.709432 L15.601242,34.709432 C15.5477388,34.709432 15.5477388,34.6559769 15.5477388,34.6025219 C14.8808222,34.4956119 14.4003152,34.9501498 13.9467302,35.3508921 C13.8400644,35.4046876 13.7333987,35.2977776 13.7068174,35.2977776 C12.9594756,35.5381549 12.3992248,36.2065128 11.6522238,36.5006857 L11.6522238,36.3934352 C11.3588078,36.5006857 11.065051,36.687608 10.7450537,36.741063 C10.2914687,36.847973 9.89104618,36.794518 9.49096442,36.794518 C8.87721038,36.847973 8.26345633,36.9817808 7.64970229,37.1155886 C7.62312105,37.1155886 7.62312105,37.1155886 7.59653981,37.1421458 C7.27620177,37.2221581 6.95620452,37.3559659 6.66244773,37.5163309 L6.63586649,37.5432287 C6.60928525,37.569786 6.58236322,37.5966837 6.55578198,37.623241 C6.44911623,37.730151 6.34245048,37.8639588 6.2088627,37.9174138 C5.88886545,38.0777788 5.64861193,38.3450539 5.38177716,38.5857717 C5.35519592,38.612329 5.32861468,38.612329 5.30169265,38.612329 C5.03485788,38.8799445 5.35519592,38.0777788 5.64861193,37.890516 C5.62203069,37.890516 5.56852742,37.8639588 5.59510866,37.8374015 C5.62203069,37.783606 5.64861193,37.7570487 5.67519317,37.7035937 C5.67519317,37.676696 5.67519317,37.676696 5.70177441,37.6501387 L5.69768499,37.6341363 L5.67962337,37.6123457 C5.67689709,37.6082599 5.67519317,37.6034933 5.67519317,37.5966837 C5.59510866,37.6501387 5.51536494,37.7035937 5.43528043,37.7570487 C5.30169265,37.8639588 5.35519592,37.2490559 5.48844291,37.1690436 L5.46186167,37.1690436 C5.64861193,37.0617931 5.86228421,36.954883 6.04903447,36.847973 L6.12877819,36.7679607 C5.83536219,36.8748708 5.59510866,37.0086785 5.32861468,37.1690436 C5.32861468,37.1690436 5.32861468,36.9817808 5.40869919,36.9017685 C5.46186167,36.9017685 5.51536494,36.9017685 5.51536494,36.954883 C6.48285396,36.2078748 7.65822192,36.0090357 8.84483579,35.8357325 L9.16858167,35.7887466 C9.8699175,35.6862628 10.5688678,35.5762884 11.22522,35.3508921 C11.385389,35.2439821 11.518636,35.1370721 11.678805,35.0570598 C11.9190586,34.9501498 12.1323901,34.709432 12.4258061,34.5490669 C12.8262286,34.2548941 13.1196446,33.880709 13.2798136,33.3996139 C13.2798136,33.3461588 13.2266512,33.2927038 13.2266512,33.2927038 C12.5593938,33.987619 11.8123928,34.5490669 11.0118885,34.9501498 C9.94454944,35.5115977 8.79712587,35.4046876 7.67662432,35.5650527 C7.7297868,35.4578022 7.83679333,35.4578022 7.91653706,35.4578022 C7.91653706,35.2977776 8.02320281,35.2439821 8.12986856,35.1639698 L8.29037836,35.1639698 C8.34354084,35.1639698 8.34354084,35.0570598 8.39704411,35.0570598 C8.50370986,35.0570598 8.66353809,35.0036048 8.61037561,35.0036048 C8.45020659,34.7894442 8.15679058,35.1639698 7.91653706,35.0036048 C8.02320281,34.8966947 7.97004032,34.762887 8.07670607,34.709432 L8.29037836,34.709432 C8.29037836,34.6025219 8.39704411,34.4956119 8.39704411,34.4956119 C9.14404514,34.041074 9.86446494,33.6937867 10.5579627,33.2927038 C10.3981345,33.2927038 10.31805,33.4530689 10.1578809,33.3461588 C10.2648875,33.3461588 10.1578809,33.1857938 10.2648875,33.1857938 C10.8251383,33.0254288 11.2787233,32.7312559 11.8389741,32.5174359 C11.6256426,32.5174359 11.4920548,32.6778009 11.2787233,32.5174359 C11.385389,32.4639809 11.4385515,32.3570708 11.5721393,32.3570708 L11.5721393,32.1967058 C11.5721393,32.1429103 11.6256426,32.1429103 11.678805,32.1429103 C11.6256426,32.1429103 11.5721393,32.0897958 11.5721393,32.0897958 C11.6256426,31.9825453 11.7858116,32.0363408 11.8655553,31.9294307 C11.8123928,31.9294307 11.7057271,31.9294307 11.7057271,31.8756352 C11.8655553,31.6618152 12.1058088,31.6352579 12.3726436,31.5818029 C12.3191403,31.4748929 12.1593121,31.5818029 12.1593121,31.4748929 C12.1593121,31.4289284 12.1981616,31.4224593 12.2431452,31.4214378 L12.1593121,31.4214378 C12.0523056,31.3679828 12.1058088,31.2610728 12.1058088,31.2072773 C12.3992248,30.85999 12.3992248,30.4054521 12.5593938,30.0043692 C12.5058906,30.0043692 12.4527281,30.0043692 12.4527281,29.9512547 C11.9456398,30.5123621 11.1451355,30.6996249 10.3981345,30.913445 L10.0512152,30.913445 C9.81130245,31.020355 9.43746115,31.020355 9.19754841,30.85999 C8.98387613,30.7530799 8.90379162,30.6192722 8.69046012,30.4589071 C8.29037836,30.2185298 7.88995581,30.0043692 7.43637079,29.8443447 C6.18228146,29.4432618 4.87502965,29.2291013 3.56743706,29.2828968 C4.12768783,28.988724 4.74144187,28.9618262 5.32861468,28.7749039 C6.18228146,28.5341861 6.98278576,28.213456 7.88995581,28.266911 C7.7297868,28.213456 7.54303654,28.266911 7.38320831,28.266911 C6.68902897,28.213456 5.96894996,28.4272761 5.22160814,28.5610839 C4.71451985,28.6676534 4.26093482,28.8549162 3.75418731,28.9618262 C3.46077131,29.0687363 3.30060229,29.3629091 2.95368301,29.3094541 L2.95368301,29.149089 C3.46077131,28.5341861 4.07452535,27.9461809 4.87502965,27.8927259 C5.7821997,27.7320204 6.63586649,27.8927259 7.54303654,27.999636 C8.21029385,28.053091 8.79712587,28.213456 9.46404239,28.3472638 C9.70429592,28.3472638 9.75779919,28.7480062 9.97113069,28.8014612 C10.2648875,28.9083712 10.5848847,28.8014612 10.8783007,29.0152812 C10.8783007,28.9083712 10.8251383,28.8014612 10.8783007,28.7214489 C11.0916322,28.5076288 11.3318858,28.7749039 11.5452173,28.6676534 C11.9456398,28.4272761 11.1986388,27.9727382 10.9849665,27.5985531 C10.9849665,27.5450981 11.0384698,27.4916431 11.0384698,27.4916431 C11.4385515,27.8392709 11.7323083,28.2403538 12.2393966,28.5076288 C12.4793093,28.6145389 13.0930634,28.7480062 12.9860568,28.4541738 C12.7461441,27.8927259 12.2393966,27.4381881 11.8123928,26.9301952 L11.8123928,26.7163751 C11.7057271,26.7163751 11.7057271,26.6629201 11.6522238,26.6094651 L11.6522238,26.395645 C11.4385515,26.288735 11.4920548,26.1014722 11.4119703,25.9411072 C11.252142,25.7007299 11.3588078,25.3262043 11.252142,25.0323719 C11.1451355,24.7381991 11.0916322,24.470924 11.0384698,24.1767512 C10.8783007,23.321471 10.6915505,22.5727603 10.5848847,21.7440374 C10.478219,20.7818471 11.1451355,20.0331364 11.5987205,19.1778562 C11.9456398,18.5629533 12.3460624,17.9749481 13.0129789,17.5738653 C13.1731479,16.9589624 13.5732297,16.4509695 13.9733114,15.9698743 C14.373734,15.4884387 15.0409913,15.1680491 15.5211575,14.9538886 C16.1652415,14.656311 16.5063674,14.5511034 16.8457894,14.44896 C16.8478341,14.4482791 16.8529459,14.4469172 16.8549906,14.4458957 C17.3481067,14.2293518 23.8230244,12.8674406 26.9677897,14.4458957 C27.0345836,14.479603 27.021293,14.4458957 27.2346245,14.580044 C27.474878,14.7141922 27.768294,14.8748977 27.9550443,14.955591 Z M3.52500284,29.6174331 C3.52500284,29.8524636 3.36702043,30.0618605 3.13038295,30.1137936 C3.52500284,30.2183255 3.91962272,30.2183255 4.31457874,30.4014229 C4.2618059,30.5059549 4.15659634,30.4536889 4.10415962,30.4536889 C4.3407971,30.6104869 4.65676192,30.5059549 4.89373553,30.6890523 C4.73575312,30.8458503 4.6043252,30.6890523 4.44634279,30.6890523 C5.99894011,31.1331467 7.63052864,31.4730421 8.92027012,32.4664287 C7.81506554,33.015388 6.68330646,33.2504185 5.49911067,33.5117485 C5.34112826,33.5117485 5.26213706,33.5117485 5.10415465,33.4594825 C5.10415465,33.5117485 5.10415465,33.6162804 5.05171793,33.6162804 C4.84096268,33.6162804 4.70919863,33.6162804 4.55155235,33.7208124 C4.36701546,33.8776104 4.07794126,33.9302092 3.91962272,33.7730784 C3.86718601,33.7208124 4.07794126,33.7730784 4.13037798,33.6688793 L3.73575809,33.6688793 C3.68298525,33.6688793 3.68298525,33.6162804 3.68298525,33.5643473 C3.44601163,33.6162804 3.13038295,33.7208124 2.89340934,33.7730784 C2.55122617,33.8776104 2.70920857,32.1787994 2.94618219,32.0742674 C2.89340934,32.0220014 2.78819978,32.0220014 2.78819978,31.9174694 C2.57778066,31.9174694 2.49878945,31.3944767 2.63021737,31.3685101 C2.84063649,31.3162441 3.0776101,31.3162441 3.23559251,31.1594462 C2.89340934,31.1071802 2.78819978,29.8787631 3.36702043,29.5648343 C3.41979328,29.5648343 3.52500284,29.5648343 3.52500284,29.6174331 Z M5.81764483,34.2343795 C5.49837197,34.5618892 5.09928091,34.4129178 4.75385486,34.5618892 C4.64720414,34.5618892 4.46107486,34.621402 4.51440022,34.5023765 C4.54768611,34.334831 4.69509507,34.2722857 4.85303323,34.2195961 L4.94813578,34.188513 C5.01131105,34.1672855 5.07278806,34.1452999 5.12611342,34.115354 C5.23242448,34.0558412 5.3652284,33.9368157 5.47153947,33.9963285 C5.57785054,34.1748668 5.71099411,34.115354 5.81764483,34.2343795 Z M4.00672318,27.3866303 C3.9532272,27.3866303 3.89938829,27.3866303 3.84554939,27.332858 C3.89938829,27.2790856 3.89938829,27.2253132 3.89938829,27.1715408 C3.38911895,27.7359796 2.23449739,27.5479475 3.30853206,27.0369386 C3.71146652,26.8756214 4.22139294,26.9293938 4.6243274,27.090711 C4.46315362,27.306143 4.22139294,27.2520281 4.00672318,27.3866303 Z M28.5800952,24.0268121 C28.5335617,24.0365434 28.486681,24.0459392 28.4404948,24.0539927 C28.1960206,24.0539927 27.9241125,24.2120427 27.6792911,24.2647261 C27.3257758,24.3700928 26.9996944,24.5546523 26.7006997,24.7653857 C27.0538677,24.6073356 27.407383,24.5546523 27.8154187,24.4754595 C28.1144135,24.4227761 28.3592349,24.3700928 28.6853163,24.4227761 C28.9027039,24.4754595 29.2020459,24.4754595 29.2020459,24.5808262 C29.0933521,24.9761191 28.4950153,25.0814858 28.168934,25.4767787 L28.0057197,25.4767787 C27.8425054,25.5821454 27.8970259,25.8190527 27.7608982,25.8190527 C27.5976839,25.7667049 27.4619035,25.8190527 27.2986892,25.8720716 C27.5160767,26.082805 27.7608982,26.2143456 28.0598929,26.1616623 C28.1144135,26.1616623 28.2231073,26.267029 28.2231073,26.3723957 C28.2231073,26.3723957 28.2776278,26.3723957 28.331801,26.3197123 C28.3863216,26.3197123 28.4404948,26.3197123 28.4404948,26.3723957 L28.4404948,26.5831291 C28.3429135,26.7096363 28.2154674,26.7223876 28.0824651,26.7237299 L27.9928709,26.7240655 C27.9334887,26.724401 27.8734119,26.7270855 27.8154187,26.7411792 C28.2231073,26.8465459 28.631143,26.8465459 29.0113976,26.7411792 C29.3107396,26.6358125 29.0113976,26.1354884 29.2291325,25.8982455 C29.1204387,25.8982455 29.2291325,25.7401955 29.1204387,25.7401955 C29.2291325,25.6348288 29.3378263,25.5029526 29.4194334,25.4502693 C29.5281272,25.4502693 29.6642549,25.3975859 29.7187754,25.2922192 C29.7187754,25.1868525 29.5010406,25.1341692 29.5555611,25.0553119 C29.8545558,24.8445785 30.1264639,24.5546523 30.0174229,24.2647261 C29.9632496,24.106676 29.5555611,24.106676 29.3107396,24.0013093 C29.1412746,23.9284922 28.9329159,23.9563439 28.7214318,23.9979537 L28.5800952,24.0268121 Z" id="Fill-1-Copy" fill="#FFFFFF"></path>
            </g>
            <path d="M216.982456,20.3965517 C216.982456,18.9427586 218.187368,17.7586207 219.666667,17.7586207 C221.145965,17.7586207 222.350877,18.9427586 222.350877,20.3965517 L222.350877,23.0344828 L216.982456,23.0344828 L216.982456,20.3965517 Z M218.175439,27.4310345 C218.175439,26.622069 218.843509,25.9655172 219.666667,25.9655172 C220.489825,25.9655172 221.157895,26.622069 221.157895,27.4310345 C221.157895,27.9 220.937193,28.327931 220.561404,28.6034483 L220.561404,29.7758621 C220.561404,30.2624138 220.161754,30.6551724 219.666667,30.6551724 C219.171579,30.6551724 218.77193,30.2624138 218.77193,29.7758621 L218.77193,28.6034483 C218.39614,28.327931 218.175439,27.9 218.175439,27.4310345 L218.175439,27.4310345 Z M224.796491,23.0344828 L224.140351,23.0344828 L224.140351,20.3965517 C224.140351,17.9696552 222.13614,16 219.666667,16 C217.197193,16 215.192982,17.9696552 215.192982,20.3965517 L215.192982,23.0344828 L214.536842,23.0344828 C214.238596,23.0344828 214,23.2689655 214,23.562069 L214,32.4724138 C214,32.7596552 214.238596,33 214.536842,33 L224.796491,33 C225.094737,33 225.333333,32.7596552 225.333333,32.4724138 L225.333333,23.562069 C225.333333,23.2689655 225.094737,23.0344828 224.796491,23.0344828 L224.796491,23.0344828 Z" id="Fill-1-Copy-13" fill="#000091"></path>
            <g id="Group-8-Copy" transform="translate(197.000000, 6.000000)" fill="#000091">
                <path d="M2.98245614,25.3965517 C2.98245614,23.9427586 4.18736842,22.7586207 5.66666667,22.7586207 C7.14596491,22.7586207 8.35087719,23.9427586 8.35087719,25.3965517 L8.35087719,28.0344828 L2.98245614,28.0344828 L2.98245614,25.3965517 Z M4.1754386,32.4310345 C4.1754386,31.622069 4.84350877,30.9655172 5.66666667,30.9655172 C6.48982456,30.9655172 7.15789474,31.622069 7.15789474,32.4310345 C7.15789474,32.9 6.93719298,33.327931 6.56140351,33.6034483 L6.56140351,34.7758621 C6.56140351,35.2624138 6.16175439,35.6551724 5.66666667,35.6551724 C5.17157895,35.6551724 4.77192982,35.2624138 4.77192982,34.7758621 L4.77192982,33.6034483 C4.39614035,33.327931 4.1754386,32.9 4.1754386,32.4310345 L4.1754386,32.4310345 Z M10.7964912,28.0344828 L10.1403509,28.0344828 L10.1403509,25.3965517 C10.1403509,22.9696552 8.13614035,21 5.66666667,21 C3.19719298,21 1.19298246,22.9696552 1.19298246,25.3965517 L1.19298246,28.0344828 L0.536842105,28.0344828 C0.238596491,28.0344828 -3.64153152e-14,28.2689655 -3.64153152e-14,28.562069 L-3.64153152e-14,37.4724138 C-3.64153152e-14,37.7596552 0.238596491,38 0.536842105,38 L10.7964912,38 C11.0947368,38 11.3333333,37.7596552 11.3333333,37.4724138 L11.3333333,28.562069 C11.3333333,28.2689655 11.0947368,28.0344828 10.7964912,28.0344828 L10.7964912,28.0344828 Z" id="Fill-1-Copy-11"></path>
                <path d="M2.98245614,4.39655172 C2.98245614,2.94275862 4.18736842,1.75862069 5.66666667,1.75862069 C7.14596491,1.75862069 8.35087719,2.94275862 8.35087719,4.39655172 L8.35087719,7.03448276 L2.98245614,7.03448276 L2.98245614,4.39655172 Z M4.1754386,11.4310345 C4.1754386,10.622069 4.84350877,9.96551724 5.66666667,9.96551724 C6.48982456,9.96551724 7.15789474,10.622069 7.15789474,11.4310345 C7.15789474,11.9 6.93719298,12.327931 6.56140351,12.6034483 L6.56140351,13.7758621 C6.56140351,14.2624138 6.16175439,14.6551724 5.66666667,14.6551724 C5.17157895,14.6551724 4.77192982,14.2624138 4.77192982,13.7758621 L4.77192982,12.6034483 C4.39614035,12.327931 4.1754386,11.9 4.1754386,11.4310345 L4.1754386,11.4310345 Z M10.7964912,7.03448276 L10.1403509,7.03448276 L10.1403509,4.39655172 C10.1403509,1.96965517 8.13614035,0 5.66666667,0 C3.19719298,0 1.19298246,1.96965517 1.19298246,4.39655172 L1.19298246,7.03448276 L0.536842105,7.03448276 C0.238596491,7.03448276 -3.64153152e-14,7.26896552 -3.64153152e-14,7.56206897 L-3.64153152e-14,16.4724138 C-3.64153152e-14,16.7596552 0.238596491,17 0.536842105,17 L10.7964912,17 C11.0947368,17 11.3333333,16.7596552 11.3333333,16.4724138 L11.3333333,7.56206897 C11.3333333,7.26896552 11.0947368,7.03448276 10.7964912,7.03448276 L10.7964912,7.03448276 Z" id="Fill-1-Copy-12"></path>
            </g>
        </g>
    </g>
</svg>