<?xml version="1.0" encoding="UTF-8" standalone="no"?>
<!-- Created with Inkscape (http://www.inkscape.org/) -->

<svg
   xmlns:dc="http://purl.org/dc/elements/1.1/"
   xmlns:cc="http://creativecommons.org/ns#"
   xmlns:rdf="http://www.w3.org/1999/02/22-rdf-syntax-ns#"
   xmlns:svg="http://www.w3.org/2000/svg"
   xmlns="http://www.w3.org/2000/svg"
   xmlns:sodipodi="http://sodipodi.sourceforge.net/DTD/sodipodi-0.dtd"
   xmlns:inkscape="http://www.inkscape.org/namespaces/inkscape"
   version="1.1"
   id="svg2"
   xml:space="preserve"
   width="1566.0809"
   height="548.66364"
   viewBox="0 0 1566.0809 548.66362"
   sodipodi:docname="vector-file-reduce-size.svg"
   inkscape:version="0.92.4 (5da689c313, 2019-01-14)"><metadata
     id="metadata8"><rdf:RDF><cc:Work
         rdf:about=""><dc:format>image/svg+xml</dc:format><dc:type
           rdf:resource="http://purl.org/dc/dcmitype/StillImage" /><dc:title></dc:title></cc:Work></rdf:RDF></metadata><defs
     id="defs6"><clipPath
       clipPathUnits="userSpaceOnUse"
       id="clipPath22"><path
         d="M 0,1400 H 2000 V 0 H 0 Z"
         id="path20"
         inkscape:connector-curvature="0" /></clipPath></defs><sodipodi:namedview
     pagecolor="#ffffff"
     bordercolor="#666666"
     borderopacity="1"
     objecttolerance="10"
     gridtolerance="10"
     guidetolerance="10"
     inkscape:pageopacity="0"
     inkscape:pageshadow="2"
     inkscape:window-width="1920"
     inkscape:window-height="995"
     id="namedview4"
     showgrid="false"
     fit-margin-top="0"
     fit-margin-left="0"
     fit-margin-right="0"
     fit-margin-bottom="0"
     inkscape:zoom="0.12642857"
     inkscape:cx="798.85913"
     inkscape:cy="274.33201"
     inkscape:window-x="0"
     inkscape:window-y="0"
     inkscape:window-maximized="1"
     inkscape:current-layer="g10" /><g
     id="g10"
     inkscape:groupmode="layer"
     inkscape:label="vector file"
     transform="matrix(1.3333333,0,0,-1.3333333,-550.29345,1207.665)"><g
       id="g12"
       transform="translate(960.4375,716.9805)"><path
         d="m 0,0 -65.775,102.237 h -47.902 l 92.586,-139.415 v -99.02 h 41.824 v 99.02 l 92.229,139.415 H 65.061 Z"
         style="fill:#0a0a2b;fill-opacity:1;fill-rule:nonzero;stroke:none"
         id="path14"
         inkscape:connector-curvature="0" /></g><g
       id="g16"><g
         id="g18"
         clip-path="url(#clipPath22)"><g
           id="g24"
           transform="translate(1141.3174,706.6133)"><path
             d="M 0,0 V 75.785 H 57.197 C 80.79,75.785 97.949,60.771 97.949,37.893 97.949,15.015 80.79,0 57.197,0 Z m 140.846,37.893 c 0,43.969 -30.743,74.711 -77.93,74.711 H -41.824 V -125.831 H 0 v 89.012 h 41.467 l 52.907,-89.012 h 48.261 l -58.27,93.658 c 28.598,4.648 56.481,27.526 56.481,70.066"
             style="fill:#0a0a2b;fill-opacity:1;fill-rule:nonzero;stroke:none"
             id="path26"
             inkscape:connector-curvature="0" /></g><path
           d="m 1323.986,580.782 h 41.824 v 238.436 h -41.824 z"
           style="fill:#0a0a2b;fill-opacity:1;fill-rule:nonzero;stroke:none"
           id="path28"
           inkscape:connector-curvature="0" /><g
           id="g30"
           transform="translate(1453.0098,754.5049)"><path
             d="m 0,0 c 0,17.303 15.226,28.723 39.104,28.723 24.224,0 48.795,-8.306 66.791,-26.301 l 23.185,30.107 c -21.456,20.764 -50.524,32.184 -86.515,32.184 -50.525,0 -84.092,-29.415 -84.092,-67.483 0,-85.129 134.617,-55.023 134.617,-103.471 0,-15.227 -13.151,-31.491 -46.373,-31.491 -32.184,0 -57.099,14.881 -73.018,31.836 l -22.494,-31.145 c 20.418,-21.802 51.216,-36.682 93.782,-36.682 62.291,0 89.284,32.875 89.284,71.288 C 134.271,-16.266 0,-42.912 0,0"
             style="fill:#0a0a2b;fill-opacity:1;fill-rule:nonzero;stroke:none"
             id="path32"
             inkscape:connector-curvature="0" /></g><g
           id="g34"
           transform="translate(754.4951,615.666)"><path
             d="m 0,0 c 0,-4.465 -2.401,-8.624 -6.268,-10.857 l -146.07,-84.332 c -3.867,-2.232 -8.672,-2.232 -12.536,0 l -146.07,84.332 c -3.867,2.233 -6.268,6.392 -6.268,10.857 v 168.667 c 0,4.464 2.401,8.624 6.268,10.857 l 146.07,84.332 c 1.934,1.116 4.101,1.675 6.268,1.675 2.167,0 4.335,-0.559 6.268,-1.675 L -6.268,179.524 C -2.401,177.291 0,173.131 0,168.667 Z m 6.014,200.796 -146.071,84.333 c -11.442,6.605 -25.656,6.605 -37.099,0 l -146.07,-84.333 c -11.442,-6.607 -18.549,-18.916 -18.549,-32.129 V 0 c 0,-13.213 7.107,-25.523 18.549,-32.129 l 146.07,-84.333 c 5.721,-3.303 12.135,-4.953 18.55,-4.953 6.414,0 12.828,1.65 18.549,4.953 L 6.014,-32.129 C 17.456,-25.523 24.563,-13.213 24.563,0 v 168.667 c 0,13.213 -7.107,25.522 -18.549,32.129"
             style="fill:#01209f;fill-opacity:1;fill-rule:nonzero;stroke:none"
             id="path36"
             inkscape:connector-curvature="0" /></g><g
           id="g38"
           transform="translate(723.7988,780.9277)"><path
             d="M 0,0 -0.007,0.004 C -3.807,2.2 -8.49,2.201 -12.29,0.007 L -127.907,-66.747 -243.524,0.007 c -3.801,2.194 -8.484,2.193 -12.283,-0.003 l -0.008,-0.005 c -3.796,-2.193 -6.133,-6.245 -6.133,-10.629 0,-4.387 2.34,-8.439 6.139,-10.633 l 103.339,-59.657 -103.341,-59.681 c -3.798,-2.193 -6.137,-6.246 -6.137,-10.632 0,-4.385 2.338,-8.437 6.134,-10.63 l 0.006,-0.004 c 3.8,-2.196 8.483,-2.197 12.284,-0.003 L -0.005,-21.263 c 3.799,2.194 6.139,6.246 6.139,10.633 C 6.134,-6.246 3.796,-2.194 0,0"
             style="fill:#01209f;fill-opacity:1;fill-rule:nonzero;stroke:none"
             id="path40"
             inkscape:connector-curvature="0" /></g><g
           id="g42"
           transform="translate(711.521,704.1914)"><path
             d="m 0,0 -177.085,-102.217 c -8.19,-4.727 -8.194,-16.547 -0.006,-21.279 3.802,-2.197 8.489,-2.199 12.292,-0.003 L 12.274,-21.261 c 3.798,2.193 6.138,6.245 6.138,10.63 C 18.412,-1.182 8.184,4.725 0,0"
             style="fill:#01209f;fill-opacity:1;fill-rule:nonzero;stroke:none"
             id="path44"
             inkscape:connector-curvature="0" /></g></g></g></g></svg>