<svg width="151" height="73" viewBox="0 0 151 73" fill="none" xmlns="http://www.w3.org/2000/svg">
<g clip-path="url(#clip0_3280_25235)">
<mask id="mask0_3280_25235" style="mask-type:luminance" maskUnits="userSpaceOnUse" x="0" y="0" width="151" height="73">
<path d="M151 0H0V72.2488H151V0Z" fill="white"/>
</mask>
<g mask="url(#mask0_3280_25235)">
<path d="M32.4631 1.20528C32.1264 1.00441 31.5202 1.00441 31.1835 1.20528L1.68391 18.1459C1.34716 18.3468 1.07776 18.8155 1.07776 19.2172V53.0316C1.07776 53.4333 1.34716 53.902 1.68391 54.1029L31.1835 71.0435C31.5202 71.2445 32.1264 71.2445 32.4631 71.0435L61.9627 54.1029C62.2994 53.902 62.5689 53.4333 62.5689 53.0316V19.2172C62.5689 18.8155 62.2994 18.3468 61.9627 18.1459L32.4631 1.20528Z" fill="white"/>
<path d="M32.3956 1.20526L61.8952 18.1459C62.2319 18.3468 62.5014 18.8155 62.5014 19.2172V53.0316C62.5014 53.4333 62.2319 53.902 61.8952 54.1029L32.3956 71.0436C32.1936 71.1105 31.9916 71.1775 31.7895 71.1775C31.5874 71.1775 31.3181 71.1105 31.1833 71.0436L1.68377 54.1029C1.34701 53.902 1.07761 53.4333 1.07761 53.0316V19.2172C1.07761 18.8155 1.34701 18.3468 1.68377 18.1459L31.1833 1.20526C31.3181 1.1383 31.5874 1.07134 31.7895 1.07134C31.9916 1.07134 32.2609 1.1383 32.3956 1.20526ZM30.6445 0.267836L1.14496 17.2085C0.471454 17.6102 0 18.4807 0 19.2172V53.0316C0 53.835 0.471454 54.6386 1.14496 55.0404L30.6445 71.981C31.0486 72.2488 31.5201 72.2488 31.7895 72.2488C32.0589 72.2488 32.5303 72.1818 32.9344 71.981L62.434 55.0404C63.1075 54.6386 63.5789 53.7681 63.5789 53.0316V19.2172C63.5789 18.4138 63.1075 17.6102 62.434 17.2085L33.0018 0.267836C32.5303 0 32.1262 0 31.7895 0C31.5201 0 31.0486 0.066959 30.6445 0.267836Z" fill="url(#paint0_linear_3280_25235)"/>
<path d="M31.7787 63.4656L8.72871 50.2373C8.45995 50.103 8.2583 49.7001 8.2583 49.4315V23.3778C8.2583 23.0421 8.45995 22.7063 8.72871 22.572L31.7787 9.1037" fill="#0063CB"/>
<path d="M8.26083 49.3144L8.2583 23.2247C8.2583 22.8885 8.45995 22.5523 8.72871 22.4178L31.7787 9.10406" fill="#000091"/>
<path fill-rule="evenodd" clip-rule="evenodd" d="M23.5449 23.2163L15.812 36.4745L8.80737 22.3703L17.0934 17.5842L23.9941 22.4388L23.5449 23.2163Z" fill="#E1000F"/>
<path d="M31.775 63.4661L54.8282 50.0811C55.097 49.947 55.2987 49.5446 55.2987 49.2764V23.2549C55.2987 22.9196 55.097 22.5842 54.8282 22.4501L31.7783 9.10406" fill="#000091"/>
<path d="M55.2969 49.3144L55.2989 23.2447C55.2989 22.9096 55.0973 22.5745 54.8285 22.4405L31.7786 9.10406" fill="#E1000F"/>
<path fill-rule="evenodd" clip-rule="evenodd" d="M39.3956 22.1629L47.677 36.3612L54.5784 22.2956L46.1844 17.439L39.3956 22.1629Z" fill="#0063CB"/>
<path fill-rule="evenodd" clip-rule="evenodd" d="M40.5142 21.6289C41.0555 21.9002 41.5582 22.2488 41.9065 22.7914C42.061 23.0243 42.2546 23.4508 42.1386 23.761C41.9835 24.1096 41.9065 24.73 41.5582 24.8462C41.133 25.0791 40.5527 25.0791 40.0114 25.0013C39.7022 25.0013 39.4316 24.924 39.1219 24.8462C40.205 25.2727 41.2491 25.8152 41.9835 26.8237C42.061 26.9783 42.3317 27.0561 42.6409 27.0561C42.7184 27.0561 42.7184 27.2112 42.7184 27.2885C42.5638 27.4436 42.4093 27.5214 42.4863 27.7149H42.7184C43.0666 27.5598 43.0281 26.8237 43.5303 27.0561C43.8786 27.2885 44.0331 27.7927 43.84 28.1418C43.5303 28.4515 43.2597 28.6455 42.9505 28.8779C42.873 29.0331 42.873 29.227 42.9505 29.3822C43.1827 29.6924 43.2597 29.9637 43.2982 30.2739C43.5303 30.7776 43.6079 31.3591 43.8015 31.9018C44.1107 32.9875 44.3814 34.1116 44.3038 35.1973C44.3038 35.7789 43.9946 36.2826 44.2267 36.8641C44.3814 37.4456 44.729 37.872 45.0387 38.4146C45.3479 38.8416 45.6185 39.1513 45.8507 39.5782C45.945 39.7417 46.0586 39.9051 46.1746 40.0701L46.2907 40.2355C46.6552 40.7609 46.9851 41.3041 46.7401 41.9038C46.508 42.408 45.7346 42.3307 45.1933 42.6404C44.768 42.9895 45.1163 43.6099 45.3479 43.9586C45.6961 44.6178 44.9226 45.0443 44.3814 45.2767C44.5359 45.5096 44.8065 45.4318 44.8836 45.5869C44.9612 45.9355 45.3093 46.1685 45.1163 46.5559C45.0273 46.6781 44.895 46.7839 44.7607 46.8883L44.6599 46.9671C44.3616 47.203 44.1078 47.4501 44.3814 47.8741C44.6905 48.3783 44.4974 48.9593 44.3038 49.5024C44.0716 50.1613 43.4918 50.4714 42.989 50.5882C42.5638 50.7428 42.022 50.7428 41.5972 50.6655C41.4422 50.5882 41.2876 50.5104 41.1716 50.5104C39.9339 50.3553 38.6967 50.0062 37.4595 50.0062C37.1112 50.084 36.7246 50.1613 36.4539 50.278C36.1057 50.5104 35.835 50.7817 35.5644 51.053C35.5259 51.1308 35.4484 51.1692 35.4099 51.247C35.3713 51.2859 35.3328 51.3243 35.3328 51.3632L35.3096 51.3863L35.2779 51.4178C35.272 51.4238 35.2646 51.4311 35.2552 51.4405C35.0231 51.7123 34.8685 51.9836 34.6754 52.2933C34.6754 52.3322 34.6364 52.3322 34.6364 52.3322C34.6364 52.3712 34.5979 52.41 34.5593 52.4485C34.3267 52.8754 34.1336 53.3402 34.0176 53.8055C33.5148 55.4722 33.7469 56.9071 34.0951 57.2562C34.3267 57.4886 37.1118 58.3503 39.561 59.1514C35.2816 62.718 31.8227 64.5013 29.1844 64.5013C25.541 64.5013 19.4303 62.0852 10.8523 57.2531C12.9286 57.2531 12.6331 58.0834 14.5667 57.1169C15.4947 56.7304 17.5829 55.7637 18.2793 55.068C18.7045 54.6426 19.1297 54.2176 19.5165 53.7538C20.2899 52.8645 21.0633 52.0525 21.9528 51.279C22.2234 51.0476 22.4942 50.8152 22.7648 50.6606C22.8423 50.5833 22.8423 50.4287 22.9193 50.3514C22.5717 50.506 22.339 50.7768 21.9528 50.9314C21.8753 50.9314 21.7983 50.8541 21.8753 50.7768C22.1459 50.5833 22.4166 50.3902 22.6487 50.1968H22.6102C22.5327 50.1968 22.5327 50.1194 22.5327 50.0421C21.5661 49.8875 20.8697 50.5448 20.2123 51.1244C20.0578 51.2022 19.9032 51.0476 19.8647 51.0476C18.7816 51.3952 17.9696 52.3618 16.887 52.7872V52.6321C16.4617 52.7872 16.0361 53.0575 15.5723 53.1348C14.9149 53.2894 14.3346 53.2121 13.7547 53.2121C12.8653 53.2894 11.9757 53.483 11.0863 53.6765C11.0478 53.6765 11.0478 53.6765 11.0092 53.7149C10.545 53.8306 10.0812 54.0241 9.65547 54.2561L9.61697 54.2949C9.57846 54.3334 9.53944 54.3722 9.50086 54.4107C9.34632 54.5653 9.19171 54.7588 8.99808 54.8361C8.53432 55.068 8.18615 55.4545 7.79947 55.8027C7.76089 55.841 7.72239 55.841 7.68337 55.841C7.2967 56.2281 7.76089 55.068 8.18615 54.7972C8.14764 54.7972 8.07012 54.7588 8.10863 54.7204C8.14764 54.6426 8.18615 54.6041 8.22466 54.5268C8.22466 54.488 8.22466 54.488 8.26317 54.4495L8.25724 54.4264L8.23109 54.3949C8.22712 54.389 8.22466 54.3821 8.22466 54.3722C8.10863 54.4495 7.99303 54.5268 7.877 54.6041C7.68337 54.7588 7.76089 53.8695 7.95402 53.7538H7.91551C8.18615 53.5987 8.49581 53.444 8.76645 53.2894L8.88205 53.1738C8.45679 53.3284 8.10863 53.5219 7.72239 53.7538C7.72239 53.7538 7.72239 53.483 7.83849 53.3672C7.91551 53.3672 7.99303 53.3672 7.99303 53.444C9.39516 52.3638 11.0986 52.0762 12.8183 51.8255L13.2876 51.7576C14.304 51.6094 15.317 51.4503 16.2682 51.1244C16.5003 50.9698 16.6934 50.8152 16.9255 50.6995C17.2738 50.5448 17.5829 50.1968 18.0082 49.9648C18.5885 49.5394 19.0137 48.9982 19.2459 48.3025C19.2459 48.2252 19.1688 48.1479 19.1688 48.1479C18.2017 49.1528 17.1191 49.9648 15.959 50.5448C14.4121 51.3568 12.7492 51.2022 11.1253 51.4341C11.2023 51.279 11.3574 51.279 11.473 51.279C11.473 51.0476 11.6276 50.9698 11.7822 50.8541H12.0148C12.0918 50.8541 12.0918 50.6995 12.1694 50.6995C12.324 50.6995 12.5556 50.6222 12.4785 50.6222C12.2464 50.3124 11.8212 50.8541 11.473 50.6222C11.6276 50.4675 11.5506 50.2741 11.7051 50.1968H12.0148C12.0148 50.0421 12.1694 49.8875 12.1694 49.8875C13.2519 49.2301 14.2961 48.7279 15.3011 48.1479C15.0695 48.1479 14.9534 48.3798 14.7213 48.2252C14.8764 48.2252 14.7213 47.9932 14.8764 47.9932C15.6883 47.7613 16.3457 47.3359 17.1576 47.0267C16.8485 47.0267 16.6549 47.2586 16.3457 47.0267C16.5003 46.9494 16.5773 46.7948 16.771 46.7948V46.5629C16.771 46.485 16.8485 46.485 16.9255 46.485C16.8485 46.485 16.771 46.4082 16.771 46.4082C16.8485 46.2531 17.0806 46.3309 17.1962 46.1763C17.1191 46.1763 16.9645 46.1763 16.9645 46.0985C17.1962 45.7893 17.5444 45.7509 17.9311 45.6735C17.8535 45.5189 17.6219 45.6735 17.6219 45.5189C17.6219 45.4525 17.6782 45.4431 17.7434 45.4416H17.6219C17.4668 45.3643 17.5444 45.2097 17.5444 45.132C17.9696 44.6297 17.9696 43.9724 18.2017 43.3923C18.1242 43.3923 18.0472 43.3923 18.0472 43.3155C17.3123 44.127 16.1521 44.3978 15.0695 44.707H14.5667C14.219 44.8616 13.6772 44.8616 13.3295 44.6297C13.0199 44.4751 12.9038 44.2816 12.5946 44.0497C12.0148 43.702 11.4345 43.3923 10.7771 43.1609C8.95957 42.5809 7.06502 42.2711 5.16997 42.3489C5.98193 41.9235 6.87142 41.8846 7.72239 41.6142C8.95957 41.2662 10.1197 40.8023 11.4345 40.8796C11.2023 40.8023 10.9317 40.8796 10.7 40.8796C9.69398 40.8023 8.65042 41.1115 7.56734 41.305C6.8324 41.4591 6.17504 41.73 5.44062 41.8846C5.01538 42.0392 4.78325 42.4646 4.28048 42.3873V42.1554C5.01538 41.2662 5.90488 40.4158 7.06502 40.3385C8.37978 40.1061 9.61697 40.3385 10.9317 40.4931C11.8987 40.5704 12.7492 40.8023 13.7157 40.9958C14.064 40.9958 14.1415 41.5754 14.4506 41.6527C14.8764 41.8073 15.3402 41.6527 15.7654 41.9619C15.7654 41.8073 15.6883 41.6527 15.7654 41.5369C16.0746 41.2277 16.4227 41.6142 16.732 41.4591C17.3123 41.1115 16.2296 40.4541 15.92 39.913C15.92 39.8357 15.9975 39.7584 15.9975 39.7584C16.5773 40.2612 17.003 40.8412 17.7379 41.2277C18.0857 41.3823 18.9751 41.5754 18.8201 41.1504C18.4724 40.3385 17.7379 39.6811 17.1191 38.9465V38.6372C16.9645 38.6372 16.9645 38.5599 16.887 38.4826V38.1734C16.5773 38.0188 16.6549 37.748 16.5388 37.5161C16.3072 37.1684 16.4617 36.6268 16.3072 36.2019C16.1521 35.7764 16.0746 35.3899 15.9975 34.9645C15.7654 33.7276 15.4947 32.6448 15.3402 31.4463C15.1855 30.0548 16.1521 28.972 16.8095 27.7351C17.3123 26.8458 17.8926 25.9954 18.8591 25.4154C19.0912 24.5262 19.671 23.7915 20.2509 23.0957C20.8312 22.3995 21.7983 21.9361 22.4942 21.6264C23.4276 21.1961 23.9219 21.0439 24.4139 20.8962C24.4168 20.8952 24.4242 20.8932 24.4272 20.8918C25.1419 20.5786 34.5258 18.609 39.0834 20.8918C39.1802 20.9405 39.1609 20.8918 39.4701 21.0858C39.8183 21.2798 40.2435 21.5122 40.5142 21.6289ZM5.10847 42.8327C5.10847 43.1727 4.87952 43.4754 4.53656 43.5505C5.10847 43.7017 5.68038 43.7017 6.25278 43.9665C6.1763 44.1177 6.02382 44.0421 5.94782 44.0421C6.29078 44.2689 6.7487 44.1177 7.09214 44.3825C6.86317 44.6092 6.6727 44.3825 6.44374 44.3825C8.69384 45.0248 11.0585 45.5163 12.9277 46.9529C11.3259 47.7468 9.68567 48.0867 7.96948 48.4647C7.74052 48.4647 7.62608 48.4647 7.39712 48.3891C7.39712 48.4647 7.39712 48.6158 7.32112 48.6158C7.01565 48.6158 6.82469 48.6158 6.59622 48.767C6.32878 48.9937 5.90983 49.0698 5.68038 48.8426C5.60439 48.767 5.90983 48.8426 5.98583 48.6919H5.41391C5.33743 48.6919 5.33743 48.6158 5.33743 48.5407C4.994 48.6158 4.53656 48.767 4.19313 48.8426C3.69721 48.9937 3.92617 46.5369 4.26961 46.3858C4.19313 46.3102 4.04065 46.3102 4.04065 46.159C3.7357 46.159 3.62122 45.4027 3.81169 45.3651C4.11664 45.2895 4.46008 45.2895 4.68904 45.0628C4.19313 44.9872 4.04065 43.2107 4.87952 42.7566C4.956 42.7566 5.10847 42.7566 5.10847 42.8327ZM8.43115 49.5097C7.96839 49.9833 7.39004 49.7679 6.88941 49.9833C6.73485 49.9833 6.4651 50.0694 6.54237 49.8973C6.59062 49.655 6.80425 49.5645 7.03315 49.4884L7.17098 49.4433C7.26252 49.4126 7.3516 49.3808 7.42891 49.3376C7.58302 49.2515 7.77549 49.0794 7.92952 49.1654C8.08363 49.4236 8.27653 49.3376 8.43115 49.5097ZM5.80661 39.6065C5.72908 39.6065 5.65106 39.6065 5.57303 39.5288C5.65106 39.451 5.65106 39.3732 5.65106 39.2955C4.91154 40.1118 3.23818 39.8398 4.79475 39.1009C5.37871 38.8676 6.11773 38.9453 6.70169 39.1786C6.4681 39.4901 6.11773 39.4119 5.80661 39.6065ZM41.42 34.7476C41.3526 34.7617 41.2846 34.7752 41.2177 34.787C40.8634 34.787 40.4694 35.0155 40.1146 35.0917C39.6022 35.2441 39.1296 35.511 38.6963 35.8157C39.2081 35.5872 39.7204 35.511 40.3118 35.3964C40.7451 35.3202 41.1 35.2441 41.5725 35.3202C41.8876 35.3964 42.3214 35.3964 42.3214 35.5488C42.1639 36.1205 41.2968 36.2729 40.8242 36.8445H40.5876C40.3511 36.9969 40.4301 37.3395 40.2328 37.3395C39.9963 37.2639 39.7995 37.3395 39.5629 37.4162C39.878 37.721 40.2328 37.9112 40.6661 37.835C40.7451 37.835 40.9026 37.9874 40.9026 38.1398C40.9026 38.1398 40.9817 38.1398 41.0602 38.0636C41.1392 38.0636 41.2177 38.0636 41.2177 38.1398V38.4445C41.0763 38.6275 40.8916 38.6459 40.6988 38.6479L40.569 38.6484C40.483 38.6489 40.3959 38.6527 40.3118 38.6731C40.9026 38.8255 41.494 38.8255 42.0451 38.6731C42.479 38.5207 42.0451 37.7971 42.3607 37.4541C42.2031 37.4541 42.3607 37.2255 42.2031 37.2255C42.3607 37.0731 42.5182 36.8824 42.6365 36.8062C42.794 36.8062 42.9913 36.73 43.0703 36.5776C43.0703 36.4253 42.7547 36.349 42.8338 36.235C43.2671 35.9303 43.6612 35.511 43.5031 35.0917C43.4246 34.8631 42.8338 34.8631 42.479 34.7107C42.2333 34.6054 41.9314 34.6457 41.6248 34.7059L41.42 34.7476Z" fill="white"/>
<path d="M76.4955 50.3293C77.5879 50.3293 78.5705 50.1051 79.444 49.6568C80.3182 49.2085 81.0306 48.6107 81.5826 47.8635L79.6514 46.3806C79.306 46.875 78.8668 47.2744 78.3321 47.579C77.7975 47.8837 77.1855 48.036 76.4955 48.036C75.9327 48.036 75.4096 47.9297 74.9263 47.717C74.4437 47.5043 74.0326 47.2169 73.6937 46.8548C73.3549 46.4927 73.0876 46.0617 72.8918 45.5616C72.6967 45.0615 72.5984 44.5241 72.5984 43.9493C72.5984 43.3746 72.6967 42.8372 72.8918 42.3371C73.0876 41.8371 73.3549 41.406 73.6937 41.0439C74.0326 40.6818 74.4437 40.3944 74.9263 40.1818C75.4096 39.9691 75.9327 39.8627 76.4955 39.8627C77.1855 39.8627 77.7975 40.015 78.3321 40.3197C78.8668 40.6243 79.306 41.0238 79.6514 41.5181L81.5826 40.0179C81.0306 39.2937 80.3182 38.7046 79.444 38.2505C78.5705 37.7964 77.5879 37.5694 76.4955 37.5694C75.5534 37.5694 74.685 37.7419 73.8917 38.0867C73.0991 38.4315 72.4207 38.8914 71.8573 39.4661C71.2941 40.0409 70.8573 40.7163 70.5469 41.4922C70.2365 42.2682 70.0813 43.0872 70.0813 43.9493C70.0813 44.8115 70.2365 45.6306 70.5469 46.4065C70.8573 47.1825 71.2941 47.8578 71.8573 48.4326C72.4207 49.0073 73.0991 49.4672 73.8917 49.812C74.685 50.1569 75.5534 50.3293 76.4955 50.3293ZM87.2035 50.3293C87.9051 50.3293 88.5488 50.2058 89.1348 49.9586C89.7214 49.7115 90.2243 49.3781 90.644 48.9585C91.0631 48.5389 91.3882 48.0417 91.6179 47.467C91.8477 46.8922 91.9626 46.283 91.9626 45.6392C91.9626 44.9954 91.8477 44.3862 91.6179 43.8114C91.3882 43.2367 91.0631 42.7394 90.644 42.3199C90.2243 41.9003 89.7214 41.5669 89.1348 41.3198C88.5488 41.0726 87.9051 40.9491 87.2035 40.9491C86.5027 40.9491 85.859 41.0726 85.2723 41.3198C84.6864 41.5669 84.1835 41.9003 83.7638 42.3199C83.344 42.7394 83.0196 43.2367 82.7891 43.8114C82.5594 44.3862 82.4445 44.9954 82.4445 45.6392C82.4445 46.283 82.5594 46.8922 82.7891 47.467C83.0196 48.0417 83.344 48.5389 83.7638 48.9585C84.1835 49.3781 84.6864 49.7115 85.2723 49.9586C85.859 50.2058 86.5027 50.3293 87.2035 50.3293ZM87.2382 48.2601C86.5143 48.2601 85.9132 48.013 85.4363 47.5187C84.9595 47.0244 84.7211 46.3979 84.7211 45.6392C84.7211 44.8805 84.9595 44.254 85.4363 43.7597C85.9132 43.2653 86.5143 43.0183 87.2382 43.0183C87.9282 43.0183 88.5084 43.2653 88.9801 43.7597C89.4512 44.254 89.6867 44.8805 89.6867 45.6392C89.6867 46.3864 89.4512 47.01 88.9801 47.51C88.5084 48.0101 87.9282 48.2601 87.2382 48.2601ZM95.9803 49.9845V44.3114C96.1414 44.0356 96.3799 43.7511 96.6963 43.458C97.012 43.1648 97.4463 43.0183 97.9982 43.0183C98.5271 43.0183 98.9432 43.1878 99.2481 43.5269C99.553 43.866 99.7048 44.323 99.7048 44.8977V49.9845H101.929V44.8115C101.929 44.1678 101.84 43.6045 101.662 43.1217C101.484 42.6389 101.242 42.2365 100.938 41.9147C100.633 41.5928 100.277 41.3514 99.8688 41.1904C99.4606 41.0295 99.0213 40.9491 98.5495 40.9491C97.9751 40.9491 97.478 41.0496 97.0583 41.2508C96.6385 41.452 96.2794 41.6962 95.9803 41.9837V41.2939H93.7905V49.9845H95.9803ZM106.43 49.9845V44.3114C106.591 44.0356 106.829 43.7511 107.146 43.458C107.461 43.1648 107.896 43.0183 108.448 43.0183C108.976 43.0183 109.393 43.1878 109.697 43.5269C110.002 43.866 110.154 44.323 110.154 44.8977V49.9845H112.379V44.8115C112.379 44.1678 112.29 43.6045 112.111 43.1217C111.934 42.6389 111.692 42.2365 111.387 41.9147C111.082 41.5928 110.726 41.3514 110.318 41.1904C109.91 41.0295 109.471 40.9491 108.999 40.9491C108.424 40.9491 107.927 41.0496 107.508 41.2508C107.088 41.452 106.729 41.6962 106.43 41.9837V41.2939H104.24V49.9845H106.43ZM118.897 50.3293C119.713 50.3293 120.449 50.1712 121.104 49.8552C121.759 49.539 122.288 49.1108 122.69 48.5705L121.121 47.3291C120.891 47.6394 120.587 47.8894 120.207 48.0791C119.827 48.2688 119.403 48.3636 118.931 48.3636C118.195 48.3636 117.592 48.1624 117.12 47.7601C116.649 47.3577 116.379 46.8003 116.31 46.0875H122.397C122.431 45.938 122.463 45.7542 122.492 45.5358C122.521 45.3173 122.535 45.0874 122.535 44.846C122.535 43.7079 122.167 42.774 121.431 42.044C120.696 41.3141 119.73 40.9491 118.534 40.9491C117.822 40.9491 117.19 41.0726 116.638 41.3198C116.086 41.5669 115.62 41.9032 115.241 42.3285C114.862 42.7538 114.571 43.251 114.371 43.8201C114.169 44.389 114.069 44.9954 114.069 45.6392C114.069 46.2714 114.175 46.8721 114.388 47.4411C114.6 48.0101 114.911 48.5073 115.318 48.9326C115.727 49.3579 116.232 49.6971 116.836 49.95C117.44 50.2029 118.127 50.3293 118.897 50.3293ZM120.362 44.4322H116.448C116.597 43.8689 116.85 43.4522 117.207 43.182C117.563 42.9119 118.006 42.7768 118.534 42.7768C119.109 42.7768 119.555 42.9464 119.871 43.2855C120.187 43.6246 120.351 44.0068 120.362 44.4322ZM128.604 50.3293C129.398 50.3293 130.108 50.1684 130.734 49.8465C131.361 49.5246 131.875 49.0993 132.277 48.5705L130.535 47.2428C130.329 47.5417 130.062 47.786 129.734 47.9756C129.406 48.1653 129.03 48.2601 128.604 48.2601C127.88 48.2601 127.28 48.013 126.802 47.5187C126.326 47.0244 126.087 46.3979 126.087 45.6392C126.087 44.8805 126.323 44.254 126.794 43.7597C127.266 43.2653 127.857 43.0183 128.57 43.0183C129.018 43.0183 129.406 43.113 129.734 43.3028C130.062 43.4924 130.329 43.7367 130.535 44.0356L132.277 42.7079C131.875 42.1791 131.361 41.7538 130.734 41.4319C130.108 41.11 129.398 40.9491 128.604 40.9491C127.857 40.9491 127.185 41.0755 126.587 41.3284C125.99 41.5813 125.487 41.9204 125.079 42.3458C124.67 42.7711 124.357 43.2682 124.139 43.8373C123.92 44.4063 123.811 45.007 123.811 45.6392C123.811 46.2714 123.92 46.8721 124.139 47.4411C124.357 48.0101 124.67 48.5073 125.079 48.9326C125.487 49.3579 125.99 49.6971 126.587 49.95C127.185 50.2029 127.857 50.3293 128.604 50.3293ZM137.588 50.1569C137.945 50.1569 138.258 50.1339 138.528 50.0879C138.798 50.0419 139.042 49.973 139.261 49.881V47.967C139.111 48.0245 138.933 48.0705 138.726 48.1049C138.52 48.1395 138.266 48.1567 137.968 48.1567C137.542 48.1567 137.206 48.0532 136.959 47.8463C136.712 47.6394 136.588 47.2945 136.588 46.8117V43.2941H139.244V41.2939H136.588V39.1213H134.381V41.2939H132.76V43.2941H134.381V46.8117C134.381 47.8693 134.646 48.6912 135.174 49.2775C135.703 49.8638 136.508 50.1569 137.588 50.1569Z" fill="#E1000F"/>
<path d="M71.5264 34.535H73.9886V29.4024H77.9074V27.3043H73.9886V24.4953H78.601V22.3972H71.5264V34.535Z" fill="#000091"/>
<path d="M79.754 34.5349H81.9562V29.0556C82.1122 28.7955 82.3723 28.5354 82.7191 28.2926C83.0659 28.0499 83.5167 27.9285 84.0543 27.9285C84.245 27.9285 84.4184 27.9458 84.5745 27.9632C84.7305 27.9979 84.8866 28.0152 85.0253 28.0499V25.7437C84.9213 25.709 84.7999 25.6917 84.6785 25.657C84.5398 25.6397 84.4011 25.6223 84.2624 25.6223C83.7595 25.6223 83.326 25.7264 82.9445 25.9344C82.5631 26.1425 82.2336 26.3853 81.9562 26.6627V25.7957H79.754V34.5349Z" fill="#000091"/>
<path d="M88.525 34.8817C89.0279 34.8817 89.5134 34.7777 89.9989 34.5696C90.4671 34.3615 90.8485 34.0668 91.126 33.72V34.5349H93.3455V28.8822C93.3455 28.414 93.2588 27.9632 93.1027 27.547C92.9293 27.1309 92.6866 26.7667 92.3744 26.4546C92.0623 26.1425 91.6635 25.8997 91.178 25.7264C90.6925 25.553 90.1376 25.4489 89.5134 25.4489C88.7158 25.4489 88.0048 25.605 87.3806 25.9171C86.7564 26.2292 86.2362 26.6627 85.8547 27.1829L87.4846 28.414C87.6754 28.0845 87.9355 27.8245 88.2823 27.6511C88.6291 27.4777 89.0105 27.3736 89.444 27.3736C89.9295 27.3736 90.3457 27.5123 90.6578 27.7898C90.9699 28.0672 91.126 28.4313 91.126 28.8822V29.1076L88.4903 29.5584C87.554 29.7145 86.8257 30.0266 86.3229 30.5121C85.82 30.9976 85.5773 31.5698 85.5773 32.2287C85.5773 33.061 85.8374 33.7026 86.3922 34.1708C86.9471 34.6563 87.658 34.8817 88.525 34.8817ZM87.7621 32.142C87.7621 31.8646 87.8488 31.6392 88.0568 31.4485C88.2649 31.2751 88.5944 31.1363 89.0626 31.0496L91.126 30.6855V31.8819C90.9006 32.2461 90.6058 32.5409 90.259 32.7663C89.8949 33.009 89.4614 33.1131 88.9759 33.1131C88.5944 33.1131 88.2996 33.0264 88.0915 32.8356C87.8661 32.6622 87.7621 32.4195 87.7621 32.142Z" fill="#000091"/>
<path d="M95.5194 34.5349H97.7216V28.8302C97.8776 28.5527 98.1204 28.2753 98.4325 27.9805C98.7446 27.6857 99.1954 27.5297 99.7503 27.5297C100.27 27.5297 100.687 27.7031 100.999 28.0499C101.311 28.3967 101.467 28.8475 101.467 29.4197V34.5349H103.704V29.333C103.704 28.6914 103.6 28.1192 103.426 27.6337C103.253 27.1482 103.01 26.7494 102.698 26.4199C102.386 26.1078 102.039 25.8651 101.623 25.6917C101.207 25.5356 100.773 25.4489 100.305 25.4489C99.7156 25.4489 99.2128 25.553 98.7966 25.761C98.3805 25.9691 98.0163 26.2119 97.7216 26.4893V25.7957H95.5194V34.5349Z" fill="#000091"/>
<path d="M110.054 32.801C109.325 32.801 108.719 32.5582 108.233 32.0553C107.748 31.5698 107.522 30.9283 107.522 30.1653C107.522 29.4024 107.748 28.7781 108.233 28.2753C108.701 27.7898 109.291 27.5297 110.019 27.5297C110.47 27.5297 110.851 27.6337 111.181 27.8245C111.51 28.0152 111.788 28.2579 111.996 28.5527L113.747 27.2176C113.331 26.6974 112.811 26.2639 112.186 25.9344C111.562 25.6223 110.851 25.4489 110.054 25.4489C109.291 25.4489 108.615 25.5876 108.025 25.8304C107.418 26.0905 106.915 26.4373 106.499 26.8534C106.083 27.2869 105.771 27.7898 105.563 28.362C105.337 28.9342 105.233 29.5411 105.233 30.1653C105.233 30.8069 105.337 31.4138 105.563 31.986C105.771 32.5582 106.083 33.061 106.499 33.4772C106.915 33.9107 107.418 34.2575 108.025 34.5002C108.615 34.7603 109.291 34.8817 110.054 34.8817C110.851 34.8817 111.562 34.7257 112.186 34.3962C112.811 34.0841 113.331 33.6506 113.747 33.1131L111.996 31.7779C111.788 32.09 111.51 32.3328 111.181 32.5235C110.851 32.7143 110.47 32.801 110.054 32.801Z" fill="#000091"/>
<path d="M122.751 33.1131L121.173 31.8646C120.931 32.1767 120.635 32.4368 120.254 32.6276C119.872 32.8183 119.44 32.905 118.971 32.905C118.226 32.905 117.618 32.7143 117.15 32.2981C116.664 31.8993 116.405 31.3444 116.336 30.6161H122.457C122.491 30.4774 122.508 30.2867 122.543 30.0613C122.577 29.8532 122.595 29.6104 122.595 29.3677C122.595 28.2233 122.214 27.2869 121.485 26.5587C120.74 25.8304 119.768 25.4489 118.573 25.4489C117.844 25.4489 117.22 25.5876 116.665 25.8304C116.11 26.0731 115.641 26.4199 115.26 26.8361C114.878 27.2696 114.584 27.7724 114.376 28.3446C114.168 28.9169 114.081 29.5237 114.081 30.1653C114.081 30.8069 114.185 31.4138 114.393 31.986C114.601 32.5582 114.913 33.061 115.329 33.4772C115.745 33.9107 116.249 34.2575 116.856 34.5002C117.463 34.7603 118.156 34.8817 118.936 34.8817C119.751 34.8817 120.497 34.7257 121.155 34.4135C121.814 34.1014 122.335 33.6679 122.751 33.1131ZM118.573 27.2869C119.145 27.2869 119.596 27.4603 119.908 27.8071C120.219 28.1539 120.392 28.5354 120.41 28.9515H116.474C116.613 28.3967 116.873 27.9805 117.237 27.7031C117.584 27.4256 118.034 27.2869 118.573 27.2869Z" fill="#000091"/>
</g>
</g>
<defs>
<linearGradient id="paint0_linear_3280_25235" x1="-0.0156253" y1="36.1214" x2="63.6304" y2="36.1214" gradientUnits="userSpaceOnUse">
<stop stop-color="#000091"/>
<stop offset="1" stop-color="#E1000F"/>
</linearGradient>
<clipPath id="clip0_3280_25235">
<rect width="151" height="72.2488" fill="white"/>
</clipPath>
</defs>
</svg>
