<svg width="324" height="324" viewBox="0 0 324 324" fill="none" xmlns="http://www.w3.org/2000/svg">
<path d="M114.609 32.8889H294.609V212.889H114.609V32.8889Z" fill="#FCC63A"/>
<path d="M129.387 265.389C130.347 278.637 130.592 291.927 130.122 305.202H61.5358C61.5358 305.202 53.9669 285.351 53.6308 283.5C53.3909 282.18 54.8068 274.077 55.0678 272.88C45.2158 274.98 28.7369 274.011 22.1729 268.212C27.7469 235.608 35.1809 206.712 47.6728 201.144C56.5378 197.19 74.7988 194.565 74.7988 194.565L98.1328 194.316C98.1328 194.316 112.713 196.416 121.329 199.962C129.945 203.508 141.603 220.572 154.779 254.862C154.779 254.862 146.163 263.985 129.609 265.335L129.387 265.389Z" fill="#18753C"/>
<path d="M279.6 198.489C279.441 198.489 279.288 198.426 279.176 198.313C279.063 198.201 279 198.048 279 197.889V182.889C279 182.73 279.063 182.577 279.176 182.465C279.288 182.352 279.441 182.289 279.6 182.289C279.759 182.289 279.912 182.352 280.024 182.465C280.137 182.577 280.2 182.73 280.2 182.889V197.889C280.2 198.048 280.137 198.201 280.024 198.313C279.912 198.426 279.759 198.489 279.6 198.489ZM279.6 138.489C279.441 138.489 279.288 138.426 279.176 138.313C279.063 138.201 279 138.048 279 137.889V77.8888C279 77.7297 279.063 77.5771 279.176 77.4646C279.288 77.352 279.441 77.2888 279.6 77.2888C279.759 77.2888 279.912 77.352 280.024 77.4646C280.137 77.5771 280.2 77.7297 280.2 77.8888V137.889C280.2 138.048 280.137 138.201 280.024 138.313C279.912 138.426 279.759 138.489 279.6 138.489ZM279.6 63.4888C279.441 63.4888 279.288 63.4256 279.176 63.3131C279.063 63.2006 279 63.0479 279 62.8888V47.8888C279 47.7297 279.063 47.5771 279.176 47.4646C279.288 47.352 279.441 47.2888 279.6 47.2888C279.759 47.2888 279.912 47.352 280.024 47.4646C280.137 47.5771 280.2 47.7297 280.2 47.8888V62.8888C280.2 63.0479 280.137 63.2006 280.024 63.3131C279.912 63.4256 279.759 63.4888 279.6 63.4888ZM249.6 93.4888C249.441 93.4888 249.288 93.4256 249.176 93.3131C249.063 93.2006 249 93.0479 249 92.8888V47.8888C249 47.7297 249.063 47.5771 249.176 47.4646C249.288 47.352 249.441 47.2888 249.6 47.2888C249.759 47.2888 249.912 47.352 250.024 47.4646C250.137 47.5771 250.2 47.7297 250.2 47.8888V92.8888C250.2 93.0479 250.137 93.2006 250.024 93.3131C249.912 93.4256 249.759 93.4888 249.6 93.4888ZM249.6 198.489C249.441 198.489 249.288 198.426 249.176 198.313C249.063 198.201 249 198.048 249 197.889V137.889C249 137.73 249.063 137.577 249.176 137.465C249.288 137.352 249.441 137.289 249.6 137.289C249.759 137.289 249.912 137.352 250.024 137.465C250.137 137.577 250.2 137.73 250.2 137.889V197.889C250.2 198.048 250.137 198.201 250.024 198.313C249.912 198.426 249.759 198.489 249.6 198.489ZM264.6 168.489C264.441 168.489 264.288 168.426 264.176 168.313C264.063 168.201 264 168.048 264 167.889V152.889C264 152.73 264.063 152.577 264.176 152.465C264.288 152.352 264.441 152.289 264.6 152.289C264.759 152.289 264.912 152.352 265.024 152.465C265.137 152.577 265.2 152.73 265.2 152.889V167.889C265.2 168.048 265.137 168.201 265.024 168.313C264.912 168.426 264.759 168.489 264.6 168.489ZM264.6 213.489C264.441 213.489 264.288 213.426 264.176 213.313C264.063 213.201 264 213.048 264 212.889V197.889C264 197.73 264.063 197.577 264.176 197.465C264.288 197.352 264.441 197.289 264.6 197.289C264.759 197.289 264.912 197.352 265.024 197.465C265.137 197.577 265.2 197.73 265.2 197.889V212.889C265.2 213.048 265.137 213.201 265.024 213.313C264.912 213.426 264.759 213.489 264.6 213.489ZM264.6 78.4888C264.441 78.4888 264.288 78.4256 264.176 78.3131C264.063 78.2006 264 78.0479 264 77.8888V32.8888C264 32.7297 264.063 32.5771 264.176 32.4646C264.288 32.352 264.441 32.2888 264.6 32.2888C264.759 32.2888 264.912 32.352 265.024 32.4646C265.137 32.5771 265.2 32.7297 265.2 32.8888V77.8888C265.2 78.0479 265.137 78.2006 265.024 78.3131C264.912 78.4256 264.759 78.4888 264.6 78.4888ZM264.6 123.489C264.441 123.489 264.288 123.426 264.176 123.313C264.063 123.201 264 123.048 264 122.889V92.8888C264 92.7297 264.063 92.5771 264.176 92.4646C264.288 92.352 264.441 92.2888 264.6 92.2888C264.759 92.2888 264.912 92.352 265.024 92.4646C265.137 92.5771 265.2 92.7297 265.2 92.8888V122.889C265.2 123.048 265.137 123.201 265.024 123.313C264.912 123.426 264.759 123.489 264.6 123.489ZM219.6 153.489C219.441 153.489 219.288 153.426 219.176 153.313C219.063 153.201 219 153.048 219 152.889V137.889C219 137.73 219.063 137.577 219.176 137.465C219.288 137.352 219.441 137.289 219.6 137.289C219.759 137.289 219.912 137.352 220.024 137.465C220.137 137.577 220.2 137.73 220.2 137.889V152.889C220.2 153.048 220.137 153.201 220.024 153.313C219.912 153.426 219.759 153.489 219.6 153.489ZM219.6 123.489C219.441 123.489 219.288 123.426 219.176 123.313C219.063 123.201 219 123.048 219 122.889V62.8888C219 62.7297 219.063 62.5771 219.176 62.4646C219.288 62.352 219.441 62.2888 219.6 62.2888C219.759 62.2888 219.912 62.352 220.024 62.4646C220.137 62.5771 220.2 62.7297 220.2 62.8888V122.889C220.2 123.048 220.137 123.201 220.024 123.313C219.912 123.426 219.759 123.489 219.6 123.489ZM219.6 213.489C219.441 213.489 219.288 213.426 219.176 213.313C219.063 213.201 219 213.048 219 212.889V182.889C219 182.73 219.063 182.577 219.176 182.465C219.288 182.352 219.441 182.289 219.6 182.289C219.759 182.289 219.912 182.352 220.024 182.465C220.137 182.577 220.2 182.73 220.2 182.889V212.889C220.2 213.048 220.137 213.201 220.024 213.313C219.912 213.426 219.759 213.489 219.6 213.489ZM234.6 213.489C234.441 213.489 234.288 213.426 234.176 213.313C234.063 213.201 234 213.048 234 212.889V152.889C234 152.73 234.063 152.577 234.176 152.465C234.288 152.352 234.441 152.289 234.6 152.289C234.759 152.289 234.912 152.352 235.024 152.465C235.137 152.577 235.2 152.73 235.2 152.889V212.889C235.2 213.048 235.137 213.201 235.024 213.313C234.912 213.426 234.759 213.489 234.6 213.489ZM234.6 63.4888C234.441 63.4888 234.288 63.4256 234.176 63.3131C234.063 63.2006 234 63.0479 234 62.8888V47.8888C234 47.7297 234.063 47.5771 234.176 47.4646C234.288 47.352 234.441 47.2888 234.6 47.2888C234.759 47.2888 234.912 47.352 235.024 47.4646C235.137 47.5771 235.2 47.7297 235.2 47.8888V62.8888C235.2 63.0479 235.137 63.2006 235.024 63.3131C234.912 63.4256 234.759 63.4888 234.6 63.4888ZM189.6 78.4888C189.441 78.4888 189.288 78.4256 189.176 78.3131C189.063 78.2006 189 78.0479 189 77.8888V47.8888C189 47.7297 189.063 47.5771 189.176 47.4646C189.288 47.352 189.441 47.2888 189.6 47.2888C189.759 47.2888 189.912 47.352 190.024 47.4646C190.137 47.5771 190.2 47.7297 190.2 47.8888V77.8888C190.2 78.0479 190.137 78.2006 190.024 78.3131C189.912 78.4256 189.759 78.4888 189.6 78.4888ZM189.6 123.489C189.441 123.489 189.288 123.426 189.176 123.313C189.063 123.201 189 123.048 189 122.889V92.8888C189 92.7297 189.063 92.5771 189.176 92.4646C189.288 92.352 189.441 92.2888 189.6 92.2888C189.759 92.2888 189.912 92.352 190.024 92.4646C190.137 92.5771 190.2 92.7297 190.2 92.8888V122.889C190.2 123.048 190.137 123.201 190.024 123.313C189.912 123.426 189.759 123.489 189.6 123.489ZM189.6 183.489C189.441 183.489 189.288 183.426 189.176 183.313C189.063 183.201 189 183.048 189 182.889V152.889C189 152.73 189.063 152.577 189.176 152.465C189.288 152.352 189.441 152.289 189.6 152.289C189.759 152.289 189.912 152.352 190.024 152.465C190.137 152.577 190.2 152.73 190.2 152.889V182.889C190.2 183.048 190.137 183.201 190.024 183.313C189.912 183.426 189.759 183.489 189.6 183.489ZM204.6 48.4888C204.441 48.4888 204.288 48.4256 204.176 48.3131C204.063 48.2006 204 48.0479 204 47.8888V32.8888C204 32.7297 204.063 32.5771 204.176 32.4646C204.288 32.352 204.441 32.2888 204.6 32.2888C204.759 32.2888 204.912 32.352 205.024 32.4646C205.137 32.5771 205.2 32.7297 205.2 32.8888V47.8888C205.2 48.0479 205.137 48.2006 205.024 48.3131C204.912 48.4256 204.759 48.4888 204.6 48.4888ZM204.6 168.489C204.441 168.489 204.288 168.426 204.176 168.313C204.063 168.201 204 168.048 204 167.889V152.889C204 152.73 204.063 152.577 204.176 152.465C204.288 152.352 204.441 152.289 204.6 152.289C204.759 152.289 204.912 152.352 205.024 152.465C205.137 152.577 205.2 152.73 205.2 152.889V167.889C205.2 168.048 205.137 168.201 205.024 168.313C204.912 168.426 204.759 168.489 204.6 168.489ZM204.6 138.489C204.441 138.489 204.288 138.426 204.176 138.313C204.063 138.201 204 138.048 204 137.889V77.8888C204 77.7297 204.063 77.5771 204.176 77.4646C204.288 77.352 204.441 77.2888 204.6 77.2888C204.759 77.2888 204.912 77.352 205.024 77.4646C205.137 77.5771 205.2 77.7297 205.2 77.8888V137.889C205.2 138.048 205.137 138.201 205.024 138.313C204.912 138.426 204.759 138.489 204.6 138.489ZM159.6 78.4888C159.441 78.4888 159.288 78.4256 159.176 78.3131C159.063 78.2006 159 78.0479 159 77.8888V32.8888C159 32.7297 159.063 32.5771 159.176 32.4646C159.288 32.352 159.441 32.2888 159.6 32.2888C159.759 32.2888 159.912 32.352 160.024 32.4646C160.137 32.5771 160.2 32.7297 160.2 32.8888V77.8888C160.2 78.0479 160.137 78.2006 160.024 78.3131C159.912 78.4256 159.759 78.4888 159.6 78.4888ZM159.6 183.489C159.441 183.489 159.288 183.426 159.176 183.313C159.063 183.201 159 183.048 159 182.889V152.889C159 152.73 159.063 152.577 159.176 152.465C159.288 152.352 159.441 152.289 159.6 152.289C159.759 152.289 159.912 152.352 160.024 152.465C160.137 152.577 160.2 152.73 160.2 152.889V182.889C160.2 183.048 160.137 183.201 160.024 183.313C159.912 183.426 159.759 183.489 159.6 183.489ZM174.6 198.489C174.441 198.489 174.288 198.426 174.176 198.313C174.063 198.201 174 198.048 174 197.889V152.889C174 152.73 174.063 152.577 174.176 152.465C174.288 152.352 174.441 152.289 174.6 152.289C174.759 152.289 174.912 152.352 175.024 152.465C175.137 152.577 175.2 152.73 175.2 152.889V197.889C175.2 198.048 175.137 198.201 175.024 198.313C174.912 198.426 174.759 198.489 174.6 198.489ZM129.6 78.4888C129.441 78.4888 129.288 78.4256 129.176 78.3131C129.063 78.2006 129 78.0479 129 77.8888V47.8888C129 47.7297 129.063 47.5771 129.176 47.4646C129.288 47.352 129.441 47.2888 129.6 47.2888C129.759 47.2888 129.912 47.352 130.024 47.4646C130.137 47.5771 130.2 47.7297 130.2 47.8888V77.8888C130.2 78.0479 130.137 78.2006 130.024 78.3131C129.912 78.4256 129.759 78.4888 129.6 78.4888ZM144.6 63.4888C144.441 63.4888 144.288 63.4256 144.176 63.3131C144.063 63.2006 144 63.0479 144 62.8888V32.8888C144 32.7297 144.063 32.5771 144.176 32.4646C144.288 32.352 144.441 32.2888 144.6 32.2888C144.759 32.2888 144.912 32.352 145.024 32.4646C145.137 32.5771 145.2 32.7297 145.2 32.8888V62.8888C145.2 63.0479 145.137 63.2006 145.024 63.3131C144.912 63.4256 144.759 63.4888 144.6 63.4888ZM144.6 138.489C144.441 138.489 144.288 138.426 144.176 138.313C144.063 138.201 144 138.048 144 137.889V107.889C144 107.73 144.063 107.577 144.176 107.465C144.288 107.352 144.441 107.289 144.6 107.289C144.759 107.289 144.912 107.352 145.024 107.465C145.137 107.577 145.2 107.73 145.2 107.889V137.889C145.2 138.048 145.137 138.201 145.024 138.313C144.912 138.426 144.759 138.489 144.6 138.489ZM144.6 198.489C144.441 198.489 144.288 198.426 144.176 198.313C144.063 198.201 144 198.048 144 197.889V167.889C144 167.73 144.063 167.577 144.176 167.465C144.288 167.352 144.441 167.289 144.6 167.289C144.759 167.289 144.912 167.352 145.024 167.465C145.137 167.577 145.2 167.73 145.2 167.889V197.889C145.2 198.048 145.137 198.201 145.024 198.313C144.912 198.426 144.759 198.489 144.6 198.489Z" fill="#000091"/>
<path d="M204.6 198.489H129.6C129.441 198.489 129.288 198.426 129.176 198.313C129.063 198.201 129 198.048 129 197.889C129 197.73 129.063 197.577 129.176 197.465C129.288 197.352 129.441 197.289 129.6 197.289H204.6C204.759 197.289 204.912 197.352 205.024 197.465C205.137 197.577 205.2 197.73 205.2 197.889C205.2 198.048 205.137 198.201 205.024 198.313C204.912 198.426 204.759 198.489 204.6 198.489ZM234.6 168.489H204.6C204.441 168.489 204.288 168.426 204.176 168.313C204.063 168.201 204 168.048 204 167.889C204 167.73 204.063 167.577 204.176 167.465C204.288 167.352 204.441 167.289 204.6 167.289H234.6C234.759 167.289 234.912 167.352 235.024 167.465C235.137 167.577 235.2 167.73 235.2 167.889C235.2 168.048 235.137 168.201 235.024 168.313C234.912 168.426 234.759 168.489 234.6 168.489ZM294.6 168.489H264.6C264.441 168.489 264.288 168.426 264.176 168.313C264.063 168.201 264 168.048 264 167.889C264 167.73 264.063 167.577 264.176 167.465C264.288 167.352 264.441 167.289 264.6 167.289H294.6C294.759 167.289 294.912 167.352 295.024 167.465C295.137 167.577 295.2 167.73 295.2 167.889C295.2 168.048 295.137 168.201 295.024 168.313C294.912 168.426 294.759 168.489 294.6 168.489ZM144.6 168.489H129.6C129.441 168.489 129.288 168.426 129.176 168.313C129.063 168.201 129 168.048 129 167.889C129 167.73 129.063 167.577 129.176 167.465C129.288 167.352 129.441 167.289 129.6 167.289H144.6C144.759 167.289 144.912 167.352 145.024 167.465C145.137 167.577 145.2 167.73 145.2 167.889C145.2 168.048 145.137 168.201 145.024 168.313C144.912 168.426 144.759 168.489 144.6 168.489ZM219.6 183.489H189.6C189.441 183.489 189.288 183.426 189.176 183.313C189.063 183.201 189 183.048 189 182.889C189 182.73 189.063 182.577 189.176 182.465C189.288 182.352 189.441 182.289 189.6 182.289H219.6C219.759 182.289 219.912 182.352 220.024 182.465C220.137 182.577 220.2 182.73 220.2 182.889C220.2 183.048 220.137 183.201 220.024 183.313C219.912 183.426 219.759 183.489 219.6 183.489ZM129.6 183.489H114.6C114.441 183.489 114.288 183.426 114.176 183.313C114.063 183.201 114 183.048 114 182.889C114 182.73 114.063 182.577 114.176 182.465C114.288 182.352 114.441 182.289 114.6 182.289H129.6C129.759 182.289 129.912 182.352 130.024 182.465C130.137 182.577 130.2 182.73 130.2 182.889C130.2 183.048 130.137 183.201 130.024 183.313C129.912 183.426 129.759 183.489 129.6 183.489ZM279.6 183.489H249.6C249.441 183.489 249.288 183.426 249.176 183.313C249.063 183.201 249 183.048 249 182.889C249 182.73 249.063 182.577 249.176 182.465C249.288 182.352 249.441 182.289 249.6 182.289H279.6C279.759 182.289 279.912 182.352 280.024 182.465C280.137 182.577 280.2 182.73 280.2 182.889C280.2 183.048 280.137 183.201 280.024 183.313C279.912 183.426 279.759 183.489 279.6 183.489ZM279.6 138.489H159.6C159.441 138.489 159.288 138.426 159.176 138.313C159.063 138.201 159 138.048 159 137.889C159 137.73 159.063 137.577 159.176 137.465C159.288 137.352 159.441 137.289 159.6 137.289H279.6C279.759 137.289 279.912 137.352 280.024 137.465C280.137 137.577 280.2 137.73 280.2 137.889C280.2 138.048 280.137 138.201 280.024 138.313C279.912 138.426 279.759 138.489 279.6 138.489ZM144.6 138.489H129.6C129.441 138.489 129.288 138.426 129.176 138.313C129.063 138.201 129 138.048 129 137.889C129 137.73 129.063 137.577 129.176 137.465C129.288 137.352 129.441 137.289 129.6 137.289H144.6C144.759 137.289 144.912 137.352 145.024 137.465C145.137 137.577 145.2 137.73 145.2 137.889C145.2 138.048 145.137 138.201 145.024 138.313C144.912 138.426 144.759 138.489 144.6 138.489ZM174.6 153.489H114.6C114.441 153.489 114.288 153.426 114.176 153.313C114.063 153.201 114 153.048 114 152.889C114 152.73 114.063 152.577 114.176 152.465C114.288 152.352 114.441 152.289 114.6 152.289H174.6C174.759 152.289 174.912 152.352 175.024 152.465C175.137 152.577 175.2 152.73 175.2 152.889C175.2 153.048 175.137 153.201 175.024 153.313C174.912 153.426 174.759 153.489 174.6 153.489ZM279.6 153.489H264.6C264.441 153.489 264.288 153.426 264.176 153.313C264.063 153.201 264 153.048 264 152.889C264 152.73 264.063 152.577 264.176 152.465C264.288 152.352 264.441 152.289 264.6 152.289H279.6C279.759 152.289 279.912 152.352 280.024 152.465C280.137 152.577 280.2 152.73 280.2 152.889C280.2 153.048 280.137 153.201 280.024 153.313C279.912 153.426 279.759 153.489 279.6 153.489ZM249.6 108.489H219.6C219.441 108.489 219.288 108.426 219.176 108.313C219.063 108.201 219 108.048 219 107.889C219 107.73 219.063 107.577 219.176 107.465C219.288 107.352 219.441 107.289 219.6 107.289H249.6C249.759 107.289 249.912 107.352 250.024 107.465C250.137 107.577 250.2 107.73 250.2 107.889C250.2 108.048 250.137 108.201 250.024 108.313C249.912 108.426 249.759 108.489 249.6 108.489ZM174.6 108.489H129.6C129.441 108.489 129.288 108.426 129.176 108.313C129.063 108.201 129 108.048 129 107.889C129 107.73 129.063 107.577 129.176 107.465C129.288 107.352 129.441 107.289 129.6 107.289H174.6C174.759 107.289 174.912 107.352 175.024 107.465C175.137 107.577 175.2 107.73 175.2 107.889C175.2 108.048 175.137 108.201 175.024 108.313C174.912 108.426 174.759 108.489 174.6 108.489ZM189.6 123.489H144.6C144.441 123.489 144.288 123.426 144.176 123.313C144.063 123.201 144 123.048 144 122.889C144 122.73 144.063 122.577 144.176 122.465C144.288 122.352 144.441 122.289 144.6 122.289H189.6C189.759 122.289 189.912 122.352 190.024 122.465C190.137 122.577 190.2 122.73 190.2 122.889C190.2 123.048 190.137 123.201 190.024 123.313C189.912 123.426 189.759 123.489 189.6 123.489ZM129.6 123.489H114.6C114.441 123.489 114.288 123.426 114.176 123.313C114.063 123.201 114 123.048 114 122.889C114 122.73 114.063 122.577 114.176 122.465C114.288 122.352 114.441 122.289 114.6 122.289H129.6C129.759 122.289 129.912 122.352 130.024 122.465C130.137 122.577 130.2 122.73 130.2 122.889C130.2 123.048 130.137 123.201 130.024 123.313C129.912 123.426 129.759 123.489 129.6 123.489ZM264.6 123.489H234.6C234.441 123.489 234.288 123.426 234.176 123.313C234.063 123.201 234 123.048 234 122.889C234 122.73 234.063 122.577 234.176 122.465C234.288 122.352 234.441 122.289 234.6 122.289H264.6C264.759 122.289 264.912 122.352 265.024 122.465C265.137 122.577 265.2 122.73 265.2 122.889C265.2 123.048 265.137 123.201 265.024 123.313C264.912 123.426 264.759 123.489 264.6 123.489ZM279.6 78.4888H264.6C264.441 78.4888 264.288 78.4256 264.176 78.3131C264.063 78.2006 264 78.0479 264 77.8888C264 77.7297 264.063 77.5771 264.176 77.4646C264.288 77.352 264.441 77.2888 264.6 77.2888H279.6C279.759 77.2888 279.912 77.352 280.024 77.4646C280.137 77.5771 280.2 77.7297 280.2 77.8888C280.2 78.0479 280.137 78.2006 280.024 78.3131C279.912 78.4256 279.759 78.4888 279.6 78.4888ZM249.6 78.4888H219.6C219.441 78.4888 219.288 78.4256 219.176 78.3131C219.063 78.2006 219 78.0479 219 77.8888C219 77.7297 219.063 77.5771 219.176 77.4646C219.288 77.352 219.441 77.2888 219.6 77.2888H249.6C249.759 77.2888 249.912 77.352 250.024 77.4646C250.137 77.5771 250.2 77.7297 250.2 77.8888C250.2 78.0479 250.137 78.2006 250.024 78.3131C249.912 78.4256 249.759 78.4888 249.6 78.4888ZM189.6 78.4888H174.6C174.441 78.4888 174.288 78.4256 174.176 78.3131C174.063 78.2006 174 78.0479 174 77.8888C174 77.7297 174.063 77.5771 174.176 77.4646C174.288 77.352 174.441 77.2888 174.6 77.2888H189.6C189.759 77.2888 189.912 77.352 190.024 77.4646C190.137 77.5771 190.2 77.7297 190.2 77.8888C190.2 78.0479 190.137 78.2006 190.024 78.3131C189.912 78.4256 189.759 78.4888 189.6 78.4888ZM159.6 78.4888H129.6C129.441 78.4888 129.288 78.4256 129.176 78.3131C129.063 78.2006 129 78.0479 129 77.8888C129 77.7297 129.063 77.5771 129.176 77.4646C129.288 77.352 129.441 77.2888 129.6 77.2888H159.6C159.759 77.2888 159.912 77.352 160.024 77.4646C160.137 77.5771 160.2 77.7297 160.2 77.8888C160.2 78.0479 160.137 78.2006 160.024 78.3131C159.912 78.4256 159.759 78.4888 159.6 78.4888ZM189.6 93.4888H114.6C114.441 93.4888 114.288 93.4256 114.176 93.3131C114.063 93.2006 114 93.0479 114 92.8888C114 92.7297 114.063 92.5771 114.176 92.4646C114.288 92.352 114.441 92.2888 114.6 92.2888H189.6C189.759 92.2888 189.912 92.352 190.024 92.4646C190.137 92.5771 190.2 92.7297 190.2 92.8888C190.2 93.0479 190.137 93.2006 190.024 93.3131C189.912 93.4256 189.759 93.4888 189.6 93.4888ZM264.6 93.4888H234.6C234.441 93.4888 234.288 93.4256 234.176 93.3131C234.063 93.2006 234 93.0479 234 92.8888C234 92.7297 234.063 92.5771 234.176 92.4646C234.288 92.352 234.441 92.2888 234.6 92.2888H264.6C264.759 92.2888 264.912 92.352 265.024 92.4646C265.137 92.5771 265.2 92.7297 265.2 92.8888C265.2 93.0479 265.137 93.2006 265.024 93.3131C264.912 93.4256 264.759 93.4888 264.6 93.4888ZM189.6 48.4888H174.6C174.441 48.4888 174.288 48.4256 174.176 48.3131C174.063 48.2006 174 48.0479 174 47.8888C174 47.7297 174.063 47.5771 174.176 47.4646C174.288 47.352 174.441 47.2888 174.6 47.2888H189.6C189.759 47.2888 189.912 47.352 190.024 47.4646C190.137 47.5771 190.2 47.7297 190.2 47.8888C190.2 48.0479 190.137 48.2006 190.024 48.3131C189.912 48.4256 189.759 48.4888 189.6 48.4888ZM249.6 48.4888H204.6C204.441 48.4888 204.288 48.4256 204.176 48.3131C204.063 48.2006 204 48.0479 204 47.8888C204 47.7297 204.063 47.5771 204.176 47.4646C204.288 47.352 204.441 47.2888 204.6 47.2888H249.6C249.759 47.2888 249.912 47.352 250.024 47.4646C250.137 47.5771 250.2 47.7297 250.2 47.8888C250.2 48.0479 250.137 48.2006 250.024 48.3131C249.912 48.4256 249.759 48.4888 249.6 48.4888ZM174.6 63.4888H159.6C159.441 63.4888 159.288 63.4256 159.176 63.3131C159.063 63.2006 159 63.0479 159 62.8888C159 62.7297 159.063 62.5771 159.176 62.4646C159.288 62.352 159.441 62.2888 159.6 62.2888H174.6C174.759 62.2888 174.912 62.352 175.024 62.4646C175.137 62.5771 175.2 62.7297 175.2 62.8888C175.2 63.0479 175.137 63.2006 175.024 63.3131C174.912 63.4256 174.759 63.4888 174.6 63.4888ZM219.6 63.4888H189.6C189.441 63.4888 189.288 63.4256 189.176 63.3131C189.063 63.2006 189 63.0479 189 62.8888C189 62.7297 189.063 62.5771 189.176 62.4646C189.288 62.352 189.441 62.2888 189.6 62.2888H219.6C219.759 62.2888 219.912 62.352 220.024 62.4646C220.137 62.5771 220.2 62.7297 220.2 62.8888C220.2 63.0479 220.137 63.2006 220.024 63.3131C219.912 63.4256 219.759 63.4888 219.6 63.4888ZM294.6 63.4888H279.6C279.441 63.4888 279.288 63.4256 279.176 63.3131C279.063 63.2006 279 63.0479 279 62.8888C279 62.7297 279.063 62.5771 279.176 62.4646C279.288 62.352 279.441 62.2888 279.6 62.2888H294.6C294.759 62.2888 294.912 62.352 295.024 62.4646C295.137 62.5771 295.2 62.7297 295.2 62.8888C295.2 63.0479 295.137 63.2006 295.024 63.3131C294.912 63.4256 294.759 63.4888 294.6 63.4888Z" fill="#000091"/>
<path d="M177.342 217.434C181.524 212.883 188.871 208.323 187.185 205.134C186.285 203.451 185.529 203.868 185.529 203.868C185.529 203.868 187.602 200.838 185.799 199.14C184.734 198.138 182.922 198.669 182.898 198.687C183.09 198.405 185.082 195.687 182.562 194.061C180.108 192.483 178.224 195.291 178.062 195.531V195.516C178.317 195.03 183.489 185.316 181.344 183.936C179.919 183.036 174.744 189.3 171.243 193.857C171.222 193.887 167.922 198.357 167.943 198.318C167.943 198.108 168.333 189.036 165.966 188.628C163.599 188.22 158.448 200.514 161.595 209.469C158.154 225.3 149.79 259.086 149.802 260.871C149.802 259.071 158.154 225.291 161.607 209.487C158.46 200.532 163.599 188.235 165.978 188.646C168.357 189.057 167.961 198.126 167.955 198.336C167.937 198.375 167.937 198.36 171.255 193.875C174.747 189.318 179.931 183.039 181.356 183.954C183.501 185.337 178.329 195.054 178.074 195.534V195.549C178.227 195.309 180.111 192.501 182.574 194.079C185.094 195.705 183.102 198.423 182.91 198.705C182.934 198.687 184.746 198.156 185.811 199.158C187.611 200.856 185.541 203.886 185.541 203.886C185.541 203.886 186.303 203.469 187.197 205.152C188.883 208.332 181.536 212.892 177.354 217.452" fill="white"/>
<path d="M129.84 273.441C131.079 278.172 136.599 289.068 143.58 291.63C152.709 294.981 160.923 290.505 164.466 284.325C169.161 276.126 176.367 223.902 176.367 223.902C180.549 219.351 187.896 214.791 186.21 211.602C185.31 209.919 184.554 210.336 184.554 210.336C184.554 210.336 186.624 207.306 184.824 205.611C183.759 204.606 181.947 205.137 181.923 205.158C182.118 204.876 184.11 202.158 181.59 200.532C179.136 198.954 177.252 201.762 177.09 202.002C177.345 201.519 182.517 191.802 180.372 190.425C178.29 189.084 168.444 202.812 166.968 204.804C166.968 204.594 167.358 195.522 164.991 195.114C162.624 194.706 157.5 207 160.632 215.955C158.232 226.932 152.886 247.101 150.057 258.771C146.199 262.938 134.304 265.755 129.489 265.923L129.84 273.441Z" fill="white"/>
<path d="M149.778 293.361C147.591 293.354 145.423 292.961 143.373 292.2C139.23 290.679 135.873 286.524 133.806 283.305C133.762 283.239 133.732 283.165 133.717 283.087C133.702 283.009 133.703 282.929 133.719 282.851C133.736 282.774 133.767 282.7 133.812 282.635C133.857 282.569 133.914 282.513 133.981 282.47C134.048 282.427 134.122 282.398 134.2 282.384C134.278 282.37 134.358 282.371 134.436 282.389C134.513 282.406 134.586 282.438 134.651 282.483C134.716 282.529 134.771 282.587 134.814 282.654C136.794 285.72 139.956 289.668 143.787 291.072C152.532 294.282 160.548 289.959 163.944 284.034C168.531 276.03 175.701 224.334 175.773 223.827C175.788 223.705 175.842 223.592 175.926 223.503C179.85 219.231 187.065 214.503 185.679 211.899C185.244 211.077 184.896 210.906 184.779 210.906C184.658 210.958 184.524 210.969 184.397 210.938C184.269 210.906 184.156 210.834 184.074 210.732C183.991 210.63 183.945 210.504 183.941 210.372C183.937 210.241 183.976 210.113 184.053 210.006C184.071 209.982 185.811 207.378 184.407 206.055C183.642 205.338 182.253 205.692 182.133 205.725C182.013 205.769 181.883 205.774 181.761 205.74C181.638 205.705 181.53 205.633 181.451 205.532C181.373 205.432 181.328 205.31 181.324 205.183C181.32 205.055 181.356 204.93 181.428 204.825L181.446 204.798C182.07 203.898 182.346 202.998 182.217 202.317C182.155 202.05 182.038 201.798 181.873 201.579C181.709 201.36 181.499 201.178 181.26 201.045C181.037 200.884 180.784 200.771 180.515 200.711C180.247 200.652 179.969 200.648 179.7 200.7C178.5 200.961 177.66 202.272 177.624 202.329L177.6 202.362C177.512 202.482 177.383 202.566 177.237 202.597C177.091 202.627 176.939 202.602 176.811 202.527C176.742 202.486 176.681 202.433 176.633 202.368C176.585 202.304 176.551 202.231 176.531 202.154C176.512 202.076 176.508 201.995 176.521 201.916C176.533 201.837 176.561 201.761 176.604 201.693C179.817 195.615 180.891 191.454 180.078 190.929C180.048 190.929 178.989 190.713 174.297 196.329C171.537 199.629 169.113 202.974 167.487 205.167C167.41 205.275 167.299 205.355 167.172 205.394C167.045 205.432 166.909 205.428 166.785 205.381C166.661 205.334 166.556 205.247 166.486 205.134C166.417 205.021 166.387 204.888 166.401 204.756C166.575 199.848 165.924 195.894 164.919 195.72C164.835 195.72 164.529 195.801 164.019 196.389C161.619 199.224 158.733 208.737 161.205 215.772C161.242 215.877 161.249 215.99 161.226 216.099C157.845 231.567 148.953 265.929 148.944 267.648C148.944 267.807 148.88 267.96 148.768 268.072C148.655 268.185 148.503 268.248 148.344 268.248C148.185 268.248 148.032 268.185 147.919 268.072C147.807 267.96 147.744 267.807 147.744 267.648C147.744 265.752 156.504 232.026 160.017 216C157.392 208.269 160.662 198.495 163.104 195.6C163.8 194.775 164.475 194.4 165.111 194.523C167.19 194.883 167.619 199.344 167.622 202.923C169.002 201.045 171.3 198 173.562 195.3C176.397 191.943 179.223 188.967 180.708 189.918C182.508 191.088 180.795 195.798 178.95 199.668C179.436 199.48 179.961 199.415 180.478 199.478C180.995 199.54 181.49 199.729 181.917 200.028C183.534 201.072 183.816 202.692 183.048 204.408C185.448 204.408 187.167 206.508 185.499 209.895C186.04 210.245 186.47 210.742 186.738 211.329C188.688 215.004 181.281 219.513 176.934 224.172C176.4 228.132 169.59 276.6 165 284.622C163.441 287.276 161.218 289.479 158.548 291.011C155.879 292.544 152.856 293.354 149.778 293.361Z" fill="#000091"/>
<path d="M168.774 216.843C168.661 216.842 168.552 216.811 168.457 216.751C168.362 216.691 168.285 216.606 168.236 216.505C168.187 216.404 168.167 216.292 168.179 216.18C168.191 216.068 168.234 215.962 168.303 215.874C171.564 211.692 168.582 207.204 168.453 207.015C168.365 206.884 168.333 206.723 168.363 206.568C168.393 206.413 168.483 206.276 168.613 206.187C168.743 206.098 168.903 206.063 169.059 206.091C169.214 206.12 169.352 206.208 169.443 206.337C169.479 206.391 173.058 211.737 169.248 216.612C169.191 216.684 169.12 216.742 169.037 216.782C168.955 216.822 168.865 216.843 168.774 216.843ZM180.852 218.742C180.555 218.756 180.259 218.707 179.983 218.598C179.707 218.489 179.458 218.323 179.25 218.111C179.043 217.899 178.883 217.645 178.781 217.366C178.679 217.088 178.638 216.791 178.659 216.495C178.742 215.682 179.036 214.904 179.511 214.239C178.173 214.635 176.874 214.599 176.079 213.663C175.155 212.574 175.701 211.035 176.511 209.7C175.218 210.27 173.811 210.507 172.944 209.145C171.705 207.213 174.216 204.546 175.344 203.49C175.401 203.433 175.469 203.389 175.543 203.359C175.618 203.329 175.698 203.315 175.778 203.316C175.859 203.318 175.938 203.336 176.011 203.369C176.085 203.402 176.151 203.449 176.206 203.508C176.26 203.567 176.303 203.636 176.33 203.712C176.357 203.787 176.369 203.868 176.365 203.948C176.361 204.028 176.34 204.107 176.305 204.179C176.27 204.252 176.22 204.316 176.16 204.369C174.645 205.779 173.37 207.603 173.946 208.494C174.522 209.385 175.527 208.953 177.498 207.819C177.768 207.663 178.032 207.519 178.278 207.378C178.399 207.315 178.538 207.296 178.672 207.323C178.806 207.35 178.926 207.422 179.014 207.527C179.101 207.632 179.15 207.763 179.153 207.9C179.155 208.036 179.111 208.17 179.028 208.278C176.628 211.221 176.583 212.403 176.985 212.877C177.81 213.846 180.123 212.853 181.485 211.95C181.61 211.866 181.763 211.832 181.913 211.856C182.062 211.88 182.197 211.959 182.291 212.078C182.384 212.198 182.429 212.348 182.416 212.498C182.404 212.649 182.335 212.79 182.223 212.892C181.182 213.84 179.142 216.234 180.123 217.263C180.221 217.354 180.336 217.425 180.461 217.472C180.587 217.518 180.721 217.539 180.855 217.533C181.737 217.533 182.916 216.843 184.011 215.688C184.064 215.627 184.129 215.577 184.202 215.542C184.274 215.507 184.354 215.487 184.434 215.483C184.515 215.479 184.596 215.492 184.672 215.52C184.748 215.548 184.817 215.591 184.876 215.647C184.934 215.703 184.981 215.77 185.013 215.844C185.045 215.918 185.062 215.998 185.063 216.079C185.063 216.16 185.047 216.24 185.016 216.314C184.985 216.389 184.939 216.457 184.881 216.513C183.858 217.602 182.334 218.742 180.852 218.742Z" fill="#000091"/>
<path d="M80.2436 162.549L74.8076 194.556C74.8076 194.556 86.5226 209.124 95.5976 206.709C100.848 205.314 98.1416 194.31 98.1416 194.31L99.8786 178.23L80.2436 162.549Z" fill="white"/>
<path d="M81.4196 202.002C78.8466 199.868 76.4765 197.501 74.3396 194.931C74.2846 194.862 74.2456 194.781 74.2254 194.695C74.2051 194.609 74.2042 194.519 74.2226 194.433L75.6596 187.614C75.6758 187.537 75.707 187.463 75.7514 187.398C75.7959 187.333 75.8528 187.277 75.9188 187.234C75.9848 187.191 76.0587 187.161 76.1362 187.147C76.2137 187.132 76.2934 187.133 76.3706 187.149C76.4478 187.165 76.5211 187.196 76.5863 187.241C76.6514 187.285 76.7072 187.342 76.7504 187.408C76.7935 187.474 76.8233 187.548 76.8379 187.626C76.8526 187.703 76.8518 187.783 76.8356 187.86L75.4556 194.4C76.9556 196.182 87.4556 208.26 95.4446 206.133C97.3196 205.635 98.2586 203.574 98.2376 200.013C98.2021 198.143 97.9749 196.281 97.5596 194.457C97.5206 194.298 97.4246 195.372 99.2816 178.167C99.2987 178.008 99.3783 177.862 99.503 177.762C99.6276 177.661 99.787 177.614 99.9461 177.631C100.105 177.648 100.251 177.728 100.351 177.853C100.452 177.977 100.499 178.137 100.482 178.296L98.7566 194.274C99.0566 195.507 101.283 205.824 95.7566 207.291C90.7976 208.608 85.3796 205.257 81.4196 202.002Z" fill="#000091"/>
<path d="M92.3007 180.972C99.3507 183.672 107.16 184.35 113.586 182.574C127.776 178.659 123.402 159.615 121.686 147.504C118.857 127.674 104.019 124.089 90.1857 128.658C76.3527 133.227 69.1107 148.941 74.0067 163.758C75.3597 167.853 77.9067 171.42 81.2067 174.354" fill="white"/>
<path d="M92.0999 181.533C91.9511 181.476 91.8309 181.363 91.7656 181.218C91.7004 181.073 91.6954 180.908 91.7519 180.759C91.8084 180.61 91.9217 180.49 92.0669 180.425C92.212 180.359 92.3772 180.354 92.5259 180.411C99.6389 183.111 107.262 183.711 113.436 181.998C125.67 178.62 123.528 163.464 121.602 150.96C121.422 149.793 121.248 148.662 121.095 147.588C119.928 139.413 116.673 133.617 111.42 130.359C105.936 126.96 98.4659 126.558 90.3809 129.228C76.8809 133.686 69.8039 149.088 74.5859 163.566C75.8489 167.391 78.2129 170.868 81.6149 173.904C81.7343 174.01 81.8067 174.159 81.8163 174.318C81.8258 174.477 81.7718 174.634 81.6659 174.753C81.5601 174.872 81.4112 174.945 81.252 174.954C81.0928 174.964 80.9363 174.91 80.8169 174.804C77.2559 171.627 74.7749 167.976 73.4459 163.947C68.4569 148.845 75.8849 132.747 90.0059 128.094C98.4329 125.31 106.263 125.754 112.05 129.345C117.621 132.798 121.065 138.882 122.283 147.426C124.083 160.002 128.391 179.121 113.757 183.159C106.818 185.064 98.8229 184.101 92.0999 181.533Z" fill="#000091"/>
<path d="M113.787 166.449C113.628 166.443 113.479 166.374 113.371 166.257C113.263 166.141 113.205 165.987 113.211 165.828C113.214 165.749 113.232 165.672 113.265 165.6C113.297 165.528 113.344 165.463 113.401 165.41C113.459 165.356 113.527 165.314 113.601 165.286C113.675 165.259 113.753 165.246 113.832 165.249C114.267 165.267 115.581 165.15 115.857 164.454C116.022 164.031 114.777 162.588 113.292 161.487C113.172 161.389 113.094 161.249 113.075 161.096C113.056 160.943 113.096 160.788 113.188 160.664C113.28 160.54 113.417 160.456 113.569 160.43C113.721 160.404 113.878 160.437 114.006 160.524C117.375 163.017 117.129 164.499 116.973 164.895C116.511 166.062 115.011 166.482 113.787 166.449ZM106.614 161.337C106.478 161.337 106.346 161.29 106.239 161.205C106.133 161.12 106.059 161.002 106.029 160.869L105.573 158.883C105.548 158.732 105.581 158.577 105.665 158.45C105.75 158.323 105.88 158.233 106.029 158.198C106.178 158.164 106.335 158.188 106.467 158.265C106.599 158.342 106.697 158.466 106.74 158.613L107.199 160.602C107.219 160.69 107.219 160.781 107.2 160.869C107.18 160.957 107.14 161.04 107.084 161.111C107.028 161.181 106.956 161.238 106.875 161.277C106.793 161.317 106.704 161.337 106.614 161.337ZM118.392 158.616C118.257 158.615 118.126 158.569 118.02 158.485C117.914 158.4 117.84 158.283 117.81 158.151L117.351 156.165C117.333 156.088 117.331 156.008 117.344 155.931C117.357 155.853 117.385 155.779 117.427 155.712C117.469 155.645 117.523 155.587 117.587 155.541C117.652 155.495 117.724 155.463 117.801 155.445C117.878 155.427 117.957 155.425 118.035 155.438C118.113 155.451 118.187 155.479 118.254 155.521C118.321 155.563 118.379 155.617 118.425 155.681C118.471 155.745 118.503 155.818 118.521 155.895L118.977 157.881C118.997 157.969 118.997 158.06 118.978 158.148C118.958 158.236 118.918 158.319 118.862 158.39C118.806 158.46 118.734 158.517 118.653 158.556C118.571 158.596 118.482 158.616 118.392 158.616ZM103.431 157.47C103.334 157.47 103.239 157.446 103.153 157.401C103.067 157.356 102.994 157.291 102.939 157.211C102.884 157.132 102.849 157.04 102.837 156.944C102.825 156.848 102.836 156.751 102.87 156.66C103.097 156.065 103.523 155.568 104.075 155.251C104.628 154.935 105.272 154.82 105.9 154.926C106.059 154.951 106.202 155.039 106.296 155.169C106.391 155.3 106.429 155.463 106.404 155.622C106.379 155.781 106.291 155.923 106.16 156.018C106.03 156.113 105.867 156.151 105.708 156.126C105.576 156.105 104.412 155.97 103.992 157.095C103.947 157.206 103.869 157.302 103.769 157.369C103.669 157.436 103.551 157.471 103.431 157.47ZM117.678 150.366C117.592 150.365 117.507 150.346 117.429 150.31C117.35 150.274 117.281 150.221 117.225 150.156C117.132 150.054 116.325 149.199 115.287 149.784C115.148 149.863 114.983 149.884 114.828 149.842C114.673 149.8 114.542 149.698 114.462 149.559C114.382 149.42 114.361 149.254 114.404 149.1C114.446 148.945 114.548 148.813 114.687 148.734C115.245 148.426 115.893 148.322 116.52 148.439C117.146 148.557 117.712 148.888 118.122 149.376C118.196 149.462 118.244 149.568 118.26 149.68C118.276 149.793 118.26 149.908 118.214 150.012C118.167 150.115 118.092 150.204 117.997 150.266C117.902 150.329 117.792 150.364 117.678 150.366ZM112.596 176.775C112.217 176.787 111.84 176.714 111.493 176.562C111.146 176.41 110.837 176.182 110.589 175.896C109.35 174.444 109.734 171.75 109.782 171.45C109.797 171.356 109.833 171.267 109.889 171.19C109.945 171.113 110.018 171.051 110.103 171.008C110.187 170.965 110.281 170.942 110.376 170.943C110.471 170.943 110.565 170.965 110.649 171.009C112.149 171.774 114.084 171.954 116.928 171.609C117.03 171.596 117.134 171.609 117.229 171.648C117.324 171.687 117.408 171.749 117.472 171.83C117.537 171.91 117.579 172.006 117.596 172.108C117.612 172.209 117.602 172.313 117.567 172.41C117.501 172.575 115.935 176.775 112.596 176.775ZM110.898 172.425C110.868 173.289 110.958 174.483 111.498 175.125C111.634 175.279 111.802 175.4 111.991 175.479C112.181 175.558 112.385 175.593 112.59 175.581C114.279 175.581 115.431 173.97 116.007 172.908C113.901 173.079 112.263 172.929 110.898 172.425Z" fill="#000091"/>
<path d="M76.8685 183.684C61.7665 181.377 44.4685 147.267 63.3055 140.565C63.7615 125.265 88.2985 117.951 103.185 114.465C100.098 102.723 119.124 100.989 125.577 112.503C130.29 120.903 127.536 135.303 120.315 139.989C120.225 140.048 120.122 140.082 120.015 140.088C106.05 140.502 90.7465 144.168 89.6815 153.216C88.9555 159.396 83.7085 157.578 84.5455 165.684C84.5654 165.826 84.5423 165.97 84.4792 166.098C84.4161 166.227 84.3159 166.333 84.1915 166.404C83.6215 166.704 82.9915 166.23 80.8915 164.52C80.1385 163.905 79.3615 163.272 78.8215 162.909C76.8715 164.004 77.5735 170.391 78.0925 175.101C78.6115 179.811 78.8545 182.469 77.9035 183.381C77.7666 183.509 77.6017 183.603 77.422 183.655C77.2423 183.708 77.0527 183.718 76.8685 183.684ZM107.739 106.716C104.499 108.129 103.323 111.042 104.508 114.708C104.533 114.787 104.542 114.87 104.533 114.953C104.525 115.035 104.499 115.115 104.458 115.187C104.418 115.259 104.362 115.322 104.296 115.372C104.229 115.422 104.153 115.457 104.073 115.476C77.8135 121.569 64.4995 130.155 64.4995 141C64.4994 141.126 64.4593 141.25 64.385 141.352C64.3106 141.454 64.2058 141.531 64.0855 141.57C46.0495 147.432 62.9995 180.351 77.0515 182.496C77.6515 182.064 77.1895 177.945 76.8895 175.221C76.2085 169.041 75.5035 162.651 78.6895 161.652C78.7693 161.627 78.8536 161.618 78.9367 161.628C79.0199 161.637 79.1002 161.664 79.1725 161.706C80.1505 162.276 82.0615 163.971 83.2735 164.868C83.0425 160.5 84.6565 158.883 86.0935 157.446C87.1855 156.354 88.2175 155.319 88.4935 153.063C88.8595 149.949 92.2045 139.74 119.814 138.882C126.09 134.637 129.153 121.296 124.545 113.082C120.924 106.644 112.8 104.499 107.739 106.716Z" fill="#000091"/>
<path d="M89.0756 153.135C88.3946 158.91 83.0756 157.383 83.9366 165.735C84.0296 166.62 80.3366 163.074 78.8636 162.225C74.0036 163.755 80.1806 183.582 76.9586 183.09C62.3786 180.864 45.1106 147.105 63.8996 141C63.8996 126.807 85.3556 119.205 103.938 114.9C100.221 103.413 118.803 101.643 125.055 112.8C129.774 121.221 126.744 135.102 119.988 139.5C97.1786 140.151 89.7476 147.414 89.0756 153.135Z" fill="#000091"/>
<path d="M81.9447 174.438C80.9997 175.8 79.7217 177 78.0237 177.552C73.8237 178.944 68.8557 175.608 67.0437 170.124C65.6517 165.924 68.4837 160.854 72.9417 160.722C75.0098 160.72 77.0456 161.236 78.8637 162.222" fill="white"/>
<path d="M66.4738 170.313C64.9558 165.723 68.0638 160.266 72.9238 160.113C74.8738 160.053 77.1238 160.629 79.1428 161.685C79.2798 161.761 79.3815 161.888 79.4263 162.038C79.4711 162.188 79.4554 162.35 79.3825 162.488C79.3096 162.627 79.1853 162.732 79.0363 162.78C78.8872 162.828 78.7252 162.817 78.5848 162.747C76.8579 161.809 74.9247 161.317 72.9598 161.313C68.8708 161.433 66.3598 166.134 67.6138 169.926C69.8338 176.655 77.0878 180.267 81.4558 174.084C81.5477 173.954 81.6875 173.866 81.8445 173.839C82.0014 173.812 82.1627 173.848 82.2928 173.94C82.4229 174.032 82.5111 174.172 82.5381 174.329C82.5652 174.486 82.5287 174.647 82.4368 174.777C77.5348 181.725 69.0358 178.065 66.4738 170.313Z" fill="#000091"/>
<path d="M77.5649 173.331C77.4831 173.332 77.4022 173.314 77.3279 173.28C73.5419 171.642 74.6729 168.228 77.6609 168.126C77.1569 166.716 76.2239 165.969 74.8799 165.903C73.0289 165.816 71.1989 167.049 70.9799 167.703C70.931 167.854 70.8239 167.98 70.6821 168.053C70.5403 168.126 70.3755 168.139 70.2239 168.09C70.0724 168.041 69.9464 167.934 69.8739 167.792C69.8013 167.65 69.788 167.485 69.8369 167.334C70.5989 164.967 77.6609 162.285 79.0439 168.657C79.0646 168.753 79.0613 168.853 79.0344 168.947C79.0075 169.042 78.9578 169.128 78.8896 169.199C78.8215 169.27 78.737 169.323 78.6436 169.353C78.5502 169.384 78.4507 169.391 78.3539 169.374C77.1539 169.164 76.3229 169.656 76.1519 170.226C75.9509 170.895 76.5959 171.66 77.7959 172.179C77.9229 172.233 78.0273 172.329 78.0916 172.451C78.1559 172.573 78.1762 172.714 78.1491 172.849C78.122 172.984 78.0491 173.106 77.9427 173.194C77.8363 173.281 77.7029 173.33 77.5649 173.331ZM21.7769 268.653C21.7005 268.585 21.6425 268.5 21.6083 268.404C21.5742 268.308 21.5651 268.204 21.5819 268.104C26.3999 239.886 33.7049 206.7 47.4389 200.589C52.7609 198.216 61.3829 196.32 67.6769 195.15C67.7557 195.132 67.8371 195.131 67.9165 195.145C67.9958 195.16 68.0714 195.19 68.1388 195.234C68.2061 195.279 68.2638 195.336 68.3084 195.404C68.353 195.471 68.3836 195.546 68.3983 195.626C68.4131 195.705 68.4116 195.787 68.3942 195.865C68.3767 195.944 68.3435 196.018 68.2966 196.084C68.2497 196.15 68.1901 196.205 68.1212 196.247C68.0524 196.289 67.9758 196.317 67.8959 196.329C61.6649 197.487 53.1419 199.359 47.9249 201.684C42.3509 204.171 37.2929 211.926 32.8979 224.73C29.2739 235.287 26.0699 249.03 22.8209 267.969C29.9549 273.9 48.5009 274.431 57.4289 271.638C58.5329 260.856 61.3499 243.594 63.2219 232.125C63.2474 231.968 63.3342 231.827 63.4634 231.734C63.5925 231.641 63.7533 231.603 63.9104 231.628C64.0676 231.654 64.2082 231.741 64.3013 231.87C64.3944 231.999 64.4324 232.16 64.4069 232.317C62.5139 243.912 59.6549 261.435 58.5839 272.148C58.5725 272.263 58.5278 272.373 58.4554 272.463C58.383 272.554 58.2859 272.621 58.1759 272.658C48.9359 275.739 29.2739 275.28 21.7769 268.653ZM130.122 305.802C130.041 305.802 129.962 305.786 129.887 305.754C129.813 305.723 129.746 305.677 129.69 305.619C129.634 305.561 129.59 305.492 129.561 305.417C129.533 305.342 129.519 305.261 129.522 305.181C130.548 275.781 127.932 253.407 125.403 231.762C125.394 231.683 125.4 231.603 125.422 231.527C125.444 231.451 125.481 231.38 125.53 231.317C125.579 231.255 125.64 231.203 125.71 231.165C125.779 231.126 125.855 231.102 125.934 231.093C126.013 231.084 126.093 231.09 126.169 231.112C126.245 231.134 126.316 231.171 126.378 231.22C126.441 231.269 126.492 231.33 126.531 231.4C126.569 231.469 126.594 231.545 126.603 231.624C129.135 253.314 131.757 275.742 130.728 305.223C130.722 305.379 130.656 305.528 130.543 305.636C130.43 305.744 130.279 305.804 130.122 305.802Z" fill="#000091"/>
<path d="M129.018 265.38C129.011 265.301 129.02 265.222 129.045 265.146C129.069 265.071 129.108 265.001 129.159 264.941C129.21 264.881 129.273 264.831 129.344 264.795C129.414 264.76 129.491 264.738 129.57 264.732C137.16 264.114 144.27 261.732 150.087 257.832C150.219 257.744 150.381 257.711 150.538 257.743C150.694 257.774 150.831 257.866 150.919 257.998C151.008 258.131 151.04 258.293 151.009 258.449C150.977 258.605 150.885 258.743 150.753 258.831C144.753 262.833 137.46 265.284 129.666 265.92C129.509 265.933 129.352 265.884 129.231 265.783C129.11 265.682 129.033 265.537 129.018 265.38ZM147.324 237.471C147.208 237.471 147.096 237.437 146.999 237.374C146.902 237.312 146.825 237.222 146.778 237.117C134.85 210.684 126.234 202.617 121.11 200.517C116.169 198.48 109.218 196.917 104.256 195.972C104.178 195.957 104.105 195.927 104.039 195.884C103.973 195.841 103.916 195.785 103.872 195.72C103.828 195.654 103.797 195.581 103.781 195.504C103.765 195.427 103.764 195.347 103.779 195.27C103.794 195.192 103.824 195.119 103.867 195.053C103.91 194.987 103.966 194.93 104.031 194.886C104.096 194.842 104.17 194.811 104.247 194.795C104.324 194.779 104.403 194.778 104.481 194.793C109.497 195.753 116.532 197.334 121.581 199.407C129.219 202.551 138.315 215.421 147.888 236.631C147.928 236.723 147.945 236.824 147.936 236.925C147.927 237.025 147.892 237.122 147.836 237.205C147.78 237.289 147.704 237.357 147.614 237.404C147.524 237.45 147.425 237.473 147.324 237.471ZM33.1889 307.5C33.0869 307.5 32.9866 307.474 32.8973 307.425C32.8081 307.376 32.7329 307.304 32.6789 307.218C32.3789 306.717 25.0049 294.894 23.8979 289.191C23.4209 286.725 23.5439 282.591 24.2639 276.891C24.2737 276.812 24.299 276.736 24.3383 276.667C24.3775 276.598 24.43 276.537 24.4926 276.489C24.5553 276.44 24.627 276.404 24.7036 276.383C24.7801 276.362 24.8601 276.356 24.9389 276.366C25.0177 276.376 25.0938 276.401 25.1628 276.44C25.2318 276.479 25.2924 276.532 25.3412 276.595C25.3899 276.657 25.4259 276.729 25.4469 276.806C25.468 276.882 25.4737 276.962 25.4639 277.041C24.7679 282.528 24.6389 286.641 25.0859 288.954C26.1509 294.438 33.6299 306.453 33.7049 306.573C33.7644 306.664 33.7978 306.77 33.8016 306.879C33.8053 306.988 33.7792 307.096 33.7262 307.192C33.6731 307.287 33.595 307.366 33.5003 307.421C33.4057 307.475 33.298 307.502 33.1889 307.5ZM61.5359 305.802C61.4142 305.802 61.2953 305.765 61.1951 305.696C61.0949 305.627 61.0181 305.529 60.9749 305.415C60.6749 304.602 53.3819 285.492 53.0399 283.599C53.0209 283.519 53.0182 283.437 53.0322 283.357C53.0461 283.276 53.0763 283.199 53.121 283.131C53.1656 283.063 53.2237 283.004 53.2918 282.959C53.3598 282.914 53.4363 282.883 53.5167 282.869C53.597 282.854 53.6795 282.856 53.759 282.875C53.8386 282.893 53.9135 282.928 53.9792 282.976C54.045 283.024 54.1001 283.086 54.1413 283.156C54.1825 283.227 54.2089 283.305 54.2189 283.386C54.4889 284.865 59.9969 299.481 62.0939 304.986C62.1289 305.077 62.1413 305.175 62.1301 305.271C62.1189 305.368 62.0843 305.46 62.0294 305.541C61.9745 305.621 61.9009 305.687 61.8149 305.732C61.7289 305.778 61.6332 305.802 61.5359 305.802Z" fill="#000091"/>
<path d="M226.584 227.862C225.947 227.862 225.337 227.609 224.887 227.159C224.436 226.709 224.184 226.098 224.184 225.462V178.2H196.176C195.539 178.2 194.929 177.947 194.479 177.497C194.028 177.047 193.776 176.436 193.776 175.8V146.436H151.917C151.28 146.436 150.67 146.183 150.22 145.733C149.769 145.283 149.517 144.672 149.517 144.036V131.535C149.517 130.898 149.769 130.288 150.22 129.838C150.67 129.388 151.28 129.135 151.917 129.135H193.776V70.7188C193.776 70.0823 194.028 69.4718 194.479 69.0217C194.929 68.5716 195.539 68.3188 196.176 68.3188H212.733C213.369 68.3188 213.98 68.5716 214.43 69.0217C214.88 69.4718 215.133 70.0823 215.133 70.7188V127.8H268.8V88.3228H255.981C255.344 88.3228 254.734 88.0699 254.284 87.6198C253.833 87.1698 253.581 86.5593 253.581 85.9228V43.0468H212.058C211.421 43.0468 210.811 42.7939 210.361 42.3438C209.91 41.8937 209.658 41.2833 209.658 40.6468V26.1178C209.658 25.4813 209.91 24.8708 210.361 24.4207C210.811 23.9706 211.421 23.7178 212.058 23.7178C212.694 23.7178 213.305 23.9706 213.755 24.4207C214.205 24.8708 214.458 25.4813 214.458 26.1178V38.2468H255.981C256.617 38.2468 257.228 38.4996 257.678 38.9497C258.128 39.3998 258.381 40.0103 258.381 40.6468V83.5228H271.2C271.836 83.5228 272.447 83.7756 272.897 84.2257C273.347 84.6758 273.6 85.2863 273.6 85.9228V130.2C273.6 130.836 273.347 131.447 272.897 131.897C272.447 132.347 271.836 132.6 271.2 132.6H212.733C212.096 132.6 211.486 132.347 211.036 131.897C210.585 131.447 210.333 130.836 210.333 130.2V73.1188H198.576V131.535C198.576 132.171 198.323 132.782 197.873 133.232C197.423 133.682 196.812 133.935 196.176 133.935H154.317V141.636H196.176C196.812 141.636 197.423 141.889 197.873 142.339C198.323 142.789 198.576 143.399 198.576 144.036V173.4H226.584C227.22 173.4 227.831 173.653 228.281 174.103C228.731 174.553 228.984 175.163 228.984 175.8V225.462C228.984 226.098 228.731 226.709 228.281 227.159C227.831 227.609 227.22 227.862 226.584 227.862Z" fill="#CE0500"/>
<path d="M220.278 29.2739H203.949L212.208 17.1089L220.278 29.2739Z" fill="#CE0500"/>
<path d="M77.7629 46.281C76.6374 43.2123 74.7553 40.4775 72.2912 38.3301C69.827 36.1826 66.8605 34.6922 63.6668 33.9968C60.473 33.3015 57.1554 33.4238 54.0216 34.3525C50.8877 35.2811 48.039 36.986 45.7397 39.309C43.4404 41.6321 41.7648 44.4981 40.8684 47.6413C39.972 50.7846 39.8837 54.1032 40.6117 57.2897C41.3398 60.4761 42.8606 63.4272 45.0332 65.8692C47.2058 68.3111 49.9598 70.1651 53.0399 71.259C54.3862 71.7285 55.6107 72.4928 56.6239 73.496C57.637 74.4993 58.4133 75.7163 58.8959 77.058L75.5999 70.926C75.1067 69.5969 74.9128 68.1755 75.0321 66.7629C75.1514 65.3504 75.5808 63.9815 76.2899 62.754C77.736 60.2871 78.6181 57.5307 78.8728 54.6826C79.1275 51.8345 78.7484 48.9653 77.7629 46.281Z" fill="#FCC63A"/>
<path d="M64.3917 75.3418C64.2684 75.3418 64.1481 75.3037 64.0472 75.2329C63.9463 75.162 63.8697 75.0618 63.8277 74.9458L59.9997 64.4788L52.6887 56.5828C52.5861 56.4651 52.5334 56.3119 52.5419 56.1559C52.5504 55.9998 52.6195 55.8533 52.7344 55.7474C52.8492 55.6415 53.0009 55.5846 53.1571 55.5888C53.3133 55.593 53.4617 55.6579 53.5707 55.7698L60.9627 63.7528C61.0827 63.8818 60.8217 63.2308 64.9677 74.5348C65.0015 74.6266 65.0123 74.7251 64.9993 74.822C64.9862 74.9188 64.9498 75.011 64.893 75.0906C64.8362 75.1701 64.7609 75.2346 64.6735 75.2783C64.5862 75.3221 64.4894 75.3439 64.3917 75.3418ZM69.9207 73.3138C69.7974 73.3138 69.6771 73.2757 69.5762 73.2049C69.4753 73.134 69.3987 73.0338 69.3567 72.9178L65.4747 62.3398C65.4147 62.1748 65.4057 62.8708 65.9127 51.2398C65.9195 51.0807 65.9892 50.9308 66.1065 50.823C66.2238 50.7153 66.3791 50.6586 66.5382 50.6653C66.6974 50.6721 66.8473 50.7418 66.955 50.8591C67.0628 50.9764 67.1195 51.1317 67.1127 51.2908L66.6417 62.0398L70.4817 72.5098C70.5144 72.6002 70.5249 72.6971 70.5123 72.7923C70.4998 72.8876 70.4645 72.9784 70.4095 73.0572C70.3546 73.136 70.2815 73.2004 70.1964 73.2451C70.1114 73.2897 70.0168 73.3133 69.9207 73.3138Z" fill="white"/>
<path d="M58.6946 80.256C58.5722 80.2555 58.4528 80.2176 58.3525 80.1474C58.2522 80.0771 58.1758 79.9779 58.1336 79.863L56.6996 75.918C56.6723 75.8439 56.6599 75.7652 56.6631 75.6863C56.6663 75.6075 56.685 75.53 56.7181 75.4584C56.7513 75.3868 56.7983 75.3224 56.8563 75.269C56.9144 75.2155 56.9825 75.1741 57.0566 75.147L75.8036 68.268C75.8777 68.2407 75.9564 68.2283 76.0352 68.2314C76.1141 68.2346 76.1916 68.2533 76.2632 68.2865C76.3348 68.3197 76.3992 68.3666 76.4526 68.4247C76.5061 68.4828 76.5475 68.5508 76.5746 68.625L77.9996 72.573C78.0538 72.7222 78.0467 72.8868 77.9797 73.0307C77.9128 73.1747 77.7916 73.2862 77.6426 73.341C57.5726 80.7 58.8626 80.256 58.6946 80.256ZM58.0196 76.056L59.0516 78.876L76.6736 72.411L75.6386 69.591L58.0196 76.056Z" fill="#CE0500"/>
<path d="M57.251 75.7087L75.9968 68.8302L77.4447 72.7759L58.6988 79.6545L57.251 75.7087Z" fill="#CE0500"/>
<path d="M69.1859 91.3889C68.9849 91.3889 69.3869 91.5419 63.6839 88.8989C63.5441 88.8301 63.4365 88.7096 63.3839 88.5629L59.9369 79.1999C59.8827 79.0507 59.8899 78.8861 59.9568 78.7421C60.0237 78.5982 60.1449 78.4866 60.2939 78.4319L75.4319 72.8759C75.506 72.8486 75.5847 72.8362 75.6636 72.8394C75.7424 72.8425 75.8199 72.8612 75.8915 72.8944C75.9631 72.9276 76.0275 72.9745 76.0809 73.0326C76.1344 73.0907 76.1758 73.1588 76.2029 73.2329L79.6379 82.5929C79.6922 82.7434 79.6858 82.9091 79.6199 83.0549C79.5839 83.1269 77.3009 88.0619 77.1869 88.3049C77.1174 88.4453 76.9958 88.553 76.8479 88.6049C68.7809 91.5749 69.3419 91.3889 69.1859 91.3889ZM64.4129 87.9149L69.2129 90.1379L76.2029 87.5729L78.4259 82.7729L75.2819 74.2079L61.2689 79.3499L64.4129 87.9149Z" fill="#CE0500"/>
<path d="M60.648 81.5218C60.5015 81.5221 60.36 81.4688 60.2501 81.3719C60.1402 81.275 60.0695 81.1413 60.0515 80.9959C60.0334 80.8505 60.0691 80.7035 60.1519 80.5827C60.2347 80.4618 60.3589 80.3754 60.501 80.3398L77.235 76.0858C77.3866 76.0527 77.5452 76.0797 77.6773 76.161C77.8095 76.2423 77.905 76.3717 77.9439 76.5219C77.9827 76.6722 77.9618 76.8316 77.8856 76.9668C77.8093 77.1019 77.6837 77.2023 77.535 77.2468C59.601 81.8068 60.765 81.5218 60.648 81.5218ZM61.659 84.2758C61.5153 84.2737 61.3772 84.2201 61.2697 84.1248C61.1622 84.0294 61.0925 83.8987 61.0732 83.7563C61.054 83.6139 61.0864 83.4693 61.1648 83.3488C61.2431 83.2284 61.3621 83.14 61.5 83.0998L78.237 78.8428C78.3914 78.803 78.5552 78.8262 78.6925 78.9072C78.8298 78.9882 78.9292 79.1205 78.969 79.2748C79.0088 79.4292 78.9856 79.593 78.9046 79.7303C78.8236 79.8676 78.6914 79.967 78.537 80.0068C60.6 84.5608 61.776 84.2758 61.659 84.2758ZM62.667 87.0268C62.5225 87.0244 62.3837 86.9699 62.2762 86.8733C62.1686 86.7767 62.0996 86.6446 62.0817 86.5011C62.0638 86.3577 62.0983 86.2126 62.1788 86.0926C62.2594 85.9726 62.3805 85.8857 62.52 85.8478L79.254 81.5998C79.4084 81.56 79.5722 81.5832 79.7095 81.6642C79.8468 81.7452 79.9462 81.8775 79.986 82.0318C80.0258 82.1862 80.0026 82.35 79.9216 82.4873C79.8406 82.6246 79.7084 82.724 79.554 82.7638C61.62 87.3148 62.784 87.0268 62.667 87.0268ZM78.153 84.7888L76.653 88.0528L69.198 90.7888L65.934 89.2888L78.153 84.7888Z" fill="#CE0500"/>
<path d="M55.1579 56.4329L51.6869 53.9219C51.6194 53.8773 51.5617 53.8195 51.5172 53.752C51.4726 53.6845 51.4422 53.6087 51.4277 53.5292C51.4132 53.4496 51.4149 53.368 51.4328 53.2891C51.4506 53.2102 51.4842 53.1358 51.5316 53.0703C51.5789 53.0047 51.639 52.9494 51.7083 52.9077C51.7775 52.8659 51.8545 52.8386 51.9346 52.8274C52.0147 52.8161 52.0962 52.8212 52.1742 52.8423C52.2523 52.8633 52.3253 52.8999 52.3889 52.9499L55.1399 54.9389L55.9529 51.6389C55.9762 51.5435 56.0225 51.4553 56.0879 51.382C56.1532 51.3086 56.2356 51.2525 56.3277 51.2184C56.4198 51.1844 56.5189 51.1734 56.6162 51.1866C56.7135 51.1998 56.8061 51.2366 56.8859 51.2939L59.6369 53.2829L60.4499 49.9829C60.4735 49.8878 60.5202 49.7999 60.5857 49.7269C60.6512 49.6539 60.7336 49.5981 60.8256 49.5644C60.9177 49.5306 61.0166 49.52 61.1138 49.5333C61.2109 49.5467 61.3033 49.5836 61.3829 49.6409L64.1369 51.6299L64.9499 48.3299C64.9897 48.1756 65.0891 48.0433 65.2264 47.9623C65.3637 47.8813 65.5275 47.8581 65.6819 47.8979C65.8362 47.9377 65.9685 48.0372 66.0495 48.1745C66.1305 48.3117 66.1537 48.4756 66.1139 48.6299L65.0999 52.7999C65.0762 52.8951 65.0296 52.983 64.9641 53.056C64.8986 53.1289 64.8162 53.1847 64.7241 53.2185C64.632 53.2522 64.5331 53.2629 64.436 53.2495C64.3388 53.2362 64.2464 53.1992 64.1669 53.1419L61.4129 51.1529L60.6029 54.4529C60.5794 54.5486 60.5328 54.637 60.467 54.7103C60.4013 54.7837 60.3186 54.8397 60.2261 54.8735C60.1336 54.9073 60.0342 54.9178 59.9366 54.9041C59.8391 54.8904 59.7465 54.8529 59.6669 54.7949L56.9039 52.7999L56.0999 56.0999C56.0757 56.1958 56.0282 56.2842 55.9616 56.3573C55.895 56.4304 55.8113 56.4858 55.7181 56.5188C55.6249 56.5518 55.5249 56.5612 55.4272 56.5462C55.3295 56.5312 55.2369 56.4923 55.1579 56.4329Z" fill="white"/>
<path d="M80.8709 38.4748C80.762 38.4742 80.6552 38.444 80.5621 38.3874C80.469 38.3307 80.3931 38.2498 80.3425 38.1533C80.2919 38.0567 80.2686 37.9482 80.275 37.8395C80.2814 37.7307 80.3173 37.6257 80.3789 37.5358L84.9299 30.9178C84.9746 30.8528 85.0317 30.7972 85.0979 30.7543C85.1641 30.7113 85.2381 30.6818 85.3157 30.6675C85.3933 30.6531 85.4729 30.6542 85.5501 30.6707C85.6272 30.6871 85.7004 30.7186 85.7654 30.7633C85.8304 30.808 85.886 30.8651 85.9289 30.9313C85.9719 30.9974 86.0014 31.0714 86.0157 31.149C86.0301 31.2266 86.029 31.3063 86.0125 31.3834C85.9961 31.4606 85.9646 31.5338 85.9199 31.5988L81.3659 38.2168C81.3105 38.2967 81.2365 38.3619 81.1502 38.4068C81.064 38.4518 80.9682 38.4751 80.8709 38.4748ZM84.5819 42.8248C84.4453 42.8254 84.3125 42.7794 84.2056 42.6943C84.0986 42.6092 84.024 42.4902 83.9939 42.3569C83.9638 42.2236 83.9801 42.084 84.0401 41.9613C84.1001 41.8385 84.2003 41.7399 84.3239 41.6818L91.5749 38.2288C91.6461 38.1836 91.7261 38.1539 91.8095 38.1416C91.893 38.1294 91.9781 38.1349 92.0593 38.1578C92.1404 38.1807 92.2159 38.2204 92.2807 38.2744C92.3455 38.3284 92.3982 38.3955 92.4353 38.4712C92.4724 38.5469 92.4931 38.6297 92.4962 38.714C92.4992 38.7982 92.4843 38.8822 92.4527 38.9604C92.4211 39.0386 92.3733 39.1092 92.3125 39.1677C92.2517 39.2262 92.1793 39.2712 92.0999 39.2998C84.1499 43.0948 84.7739 42.8248 84.5819 42.8248ZM93.6269 49.0798C93.5879 49.0798 94.1459 49.1218 84.6839 48.3748C84.6051 48.3685 84.5284 48.3467 84.458 48.3107C84.3876 48.2748 84.325 48.2253 84.2737 48.1651C84.1702 48.0436 84.1192 47.8859 84.1319 47.7268C84.1382 47.648 84.16 47.5712 84.196 47.5008C84.2319 47.4304 84.2814 47.3678 84.3416 47.3166C84.4631 47.2131 84.6208 47.162 84.7799 47.1748L93.6749 47.8798C93.8341 47.8861 93.9841 47.9555 94.0922 48.0725C94.2002 48.1895 94.2573 48.3446 94.2509 48.5038C94.2446 48.6629 94.1752 48.813 94.0582 48.921C93.9412 49.029 93.786 49.0861 93.6269 49.0798ZM32.2979 71.5828C32.1885 71.5826 32.0811 71.5525 31.9876 71.4957C31.894 71.4389 31.8177 71.3576 31.7671 71.2605C31.7164 71.1635 31.6932 71.0545 31.7001 70.9452C31.7069 70.836 31.7435 70.7307 31.8059 70.6408L36.3569 64.0258C36.401 63.9597 36.4577 63.903 36.5239 63.8591C36.59 63.8151 36.6642 63.7847 36.7421 63.7696C36.8201 63.7546 36.9003 63.7551 36.9781 63.7712C37.0558 63.7874 37.1296 63.8188 37.1951 63.8637C37.2606 63.9085 37.3166 63.966 37.3597 64.0326C37.4029 64.0993 37.4324 64.1739 37.4465 64.252C37.4606 64.3302 37.4591 64.4103 37.442 64.4879C37.4249 64.5654 37.3926 64.6388 37.3469 64.7038L32.7929 71.3218C32.7378 71.4022 32.664 71.468 32.5777 71.5135C32.4915 71.559 32.3954 71.5828 32.2979 71.5828ZM25.8899 64.0708C25.7533 64.0714 25.6205 64.0254 25.5136 63.9403C25.4067 63.8552 25.332 63.7362 25.3019 63.6029C25.2718 63.4696 25.2881 63.33 25.3481 63.2073C25.4081 63.0845 25.5083 62.9859 25.6319 62.9278L32.8829 59.4748C32.9543 59.4386 33.0322 59.4171 33.112 59.4115C33.1919 59.4059 33.272 59.4163 33.3477 59.4421C33.4235 59.4679 33.4933 59.5086 33.5531 59.5618C33.6128 59.615 33.6614 59.6797 33.6958 59.7519C33.7302 59.8242 33.7498 59.9025 33.7535 59.9825C33.7572 60.0624 33.7448 60.1423 33.7171 60.2174C33.6895 60.2925 33.6471 60.3613 33.5924 60.4197C33.5378 60.4782 33.472 60.5251 33.3989 60.5578C25.4579 64.3408 26.0999 64.0708 25.8899 64.0708ZM32.9999 55.0648C32.9609 55.0648 33.5159 55.1068 24.0539 54.3598C23.8948 54.347 23.7472 54.2716 23.6437 54.1501C23.5402 54.0286 23.4892 53.8709 23.5019 53.7118C23.5146 53.5526 23.5901 53.4051 23.7116 53.3016C23.8331 53.1981 23.9908 53.147 24.1499 53.1598L33.0449 53.8648C33.2041 53.8707 33.3543 53.9397 33.4626 54.0564C33.5709 54.1732 33.6284 54.3281 33.6224 54.4873C33.6165 54.6464 33.5475 54.7966 33.4308 54.9049C33.314 55.0133 33.159 55.0707 32.9999 55.0648Z" fill="#CE0500"/>
<path d="M197.286 258.804C195.911 258.804 194.567 258.396 193.424 257.632C192.281 256.869 191.39 255.783 190.864 254.513C190.338 253.243 190.2 251.845 190.469 250.497C190.737 249.148 191.399 247.91 192.371 246.938C193.343 245.966 194.582 245.304 195.93 245.035C197.278 244.767 198.676 244.905 199.946 245.431C201.216 245.957 202.302 246.848 203.066 247.991C203.829 249.134 204.237 250.478 204.237 251.853C204.235 253.696 203.503 255.463 202.199 256.766C200.896 258.069 199.129 258.802 197.286 258.804ZM197.286 246.102C196.149 246.102 195.037 246.439 194.091 247.071C193.145 247.703 192.408 248.601 191.973 249.652C191.537 250.703 191.424 251.859 191.645 252.975C191.867 254.09 192.415 255.115 193.219 255.919C194.024 256.724 195.048 257.271 196.164 257.493C197.28 257.715 198.436 257.601 199.487 257.166C200.538 256.731 201.436 255.994 202.068 255.048C202.7 254.102 203.037 252.99 203.037 251.853C203.035 250.328 202.429 248.866 201.351 247.788C200.273 246.71 198.811 246.103 197.286 246.102ZM272.622 303.033C272.5 303.034 272.382 302.998 272.281 302.93C272.18 302.861 272.103 302.764 272.059 302.651C272.014 302.538 272.006 302.414 272.033 302.296C272.061 302.178 272.124 302.071 272.214 301.989L283.662 291.465C283.719 291.409 283.787 291.365 283.862 291.336C283.937 291.307 284.017 291.293 284.097 291.295C284.177 291.297 284.256 291.315 284.329 291.348C284.402 291.381 284.468 291.429 284.522 291.488C284.576 291.547 284.618 291.616 284.645 291.692C284.672 291.767 284.684 291.847 284.68 291.927C284.675 292.007 284.655 292.086 284.62 292.158C284.585 292.23 284.535 292.294 284.475 292.347L273.027 302.874C272.917 302.976 272.772 303.032 272.622 303.033Z" fill="#FCC63A"/>
<path d="M283.608 303.492C283.525 303.492 283.443 303.475 283.367 303.442C283.291 303.409 283.223 303.361 283.167 303.3L272.64 291.852C272.586 291.793 272.545 291.724 272.518 291.649C272.492 291.574 272.48 291.494 272.484 291.415C272.488 291.335 272.508 291.257 272.542 291.185C272.576 291.113 272.624 291.049 272.683 290.995C272.742 290.942 272.811 290.901 272.886 290.874C272.961 290.847 273.041 290.836 273.121 290.84C273.2 290.844 273.278 290.863 273.35 290.898C273.422 290.932 273.486 290.98 273.54 291.039L284.064 302.487C284.143 302.574 284.195 302.682 284.214 302.798C284.232 302.914 284.216 303.033 284.168 303.14C284.119 303.247 284.04 303.337 283.941 303.4C283.841 303.462 283.725 303.494 283.608 303.492ZM31.6168 158.823H16.4998C16.3945 158.823 16.2911 158.795 16.2 158.742C16.1089 158.689 16.0332 158.614 15.9806 158.523C15.928 158.431 15.9004 158.328 15.9004 158.223C15.9004 158.117 15.9281 158.014 15.9808 157.923L23.5438 144.822C23.5963 144.73 23.6721 144.654 23.7635 144.601C23.8549 144.548 23.9587 144.52 24.0643 144.52C24.1699 144.52 24.2737 144.548 24.365 144.601C24.4564 144.654 24.5322 144.73 24.5848 144.822L32.1478 157.923C32.2009 158.015 32.2287 158.119 32.2282 158.226C32.2277 158.332 32.199 158.436 32.145 158.528C32.091 158.619 32.0136 158.695 31.9208 158.747C31.828 158.799 31.7231 158.825 31.6168 158.823ZM17.5318 157.623H30.5788L24.0538 146.322L17.5318 157.623Z" fill="#FCC63A"/>
</svg>
