<svg width="327" height="327" viewBox="0 0 327 327" fill="none" xmlns="http://www.w3.org/2000/svg">
<path d="M42.5979 157.078C41.2104 157.078 39.854 156.667 38.7004 155.896C37.5467 155.125 36.6475 154.029 36.1165 152.747C35.5856 151.465 35.4466 150.055 35.7173 148.694C35.988 147.333 36.6562 146.083 37.6373 145.102C38.6184 144.121 39.8684 143.453 41.2293 143.182C42.5901 142.911 44.0007 143.05 45.2825 143.581C46.5644 144.112 47.6601 145.011 48.4309 146.165C49.2018 147.319 49.6132 148.675 49.6132 150.063C49.6116 151.923 48.872 153.706 47.5567 155.021C46.2414 156.337 44.458 157.076 42.5979 157.078ZM42.5979 144.261C41.4498 144.261 40.3275 144.602 39.3729 145.24C38.4183 145.878 37.6744 146.784 37.2352 147.845C36.7959 148.906 36.6812 150.073 36.9054 151.199C37.1296 152.325 37.6827 153.359 38.4947 154.171C39.3068 154.983 40.3413 155.535 41.4674 155.759C42.5935 155.982 43.7606 155.867 44.8212 155.427C45.8817 154.987 46.788 154.243 47.4254 153.288C48.0628 152.333 48.4027 151.211 48.4021 150.063C48.4005 148.524 47.7884 147.049 46.7002 145.961C45.6119 144.874 44.1365 144.262 42.5979 144.261ZM179.744 36.8479C179.622 36.8488 179.501 36.8125 179.4 36.7438C179.298 36.675 179.22 36.577 179.176 36.4628C179.131 36.3486 179.122 36.2236 179.15 36.1042C179.178 35.9848 179.242 35.8767 179.332 35.7943L190.886 25.1728C190.944 25.1163 191.013 25.0721 191.088 25.0426C191.164 25.0131 191.244 24.999 191.325 25.0012C191.406 25.0034 191.486 25.0217 191.559 25.0552C191.633 25.0887 191.699 25.1366 191.754 25.1961C191.809 25.2556 191.851 25.3255 191.879 25.4017C191.906 25.4779 191.918 25.5587 191.914 25.6395C191.909 25.7204 191.889 25.7995 191.853 25.8722C191.818 25.9449 191.768 26.0098 191.707 26.063L180.153 36.6875C180.041 36.7902 179.896 36.8475 179.744 36.8479Z" fill="#FCC63A"/>
<path d="M190.831 37.3114C190.748 37.3115 190.665 37.2944 190.589 37.261C190.512 37.2277 190.443 37.1788 190.386 37.1176L179.762 25.5636C179.653 25.4451 179.596 25.2883 179.603 25.1276C179.609 24.9669 179.68 24.8155 179.798 24.7067C179.917 24.5979 180.073 24.5406 180.234 24.5474C180.395 24.5542 180.546 24.6246 180.655 24.743L191.277 36.297C191.356 36.3836 191.408 36.4913 191.427 36.6071C191.446 36.7229 191.431 36.8417 191.384 36.9491C191.337 37.0566 191.26 37.148 191.162 37.2123C191.063 37.2766 190.949 37.311 190.831 37.3114ZM217.888 302.454H202.622C202.515 302.454 202.411 302.426 202.319 302.372C202.227 302.319 202.151 302.243 202.098 302.151C202.045 302.059 202.017 301.954 202.017 301.848C202.017 301.742 202.045 301.638 202.098 301.546L209.731 288.323C209.784 288.231 209.86 288.155 209.952 288.102C210.044 288.049 210.149 288.022 210.255 288.022C210.361 288.022 210.465 288.049 210.557 288.102C210.649 288.155 210.725 288.231 210.778 288.323L218.414 301.546C218.468 301.638 218.496 301.742 218.496 301.849C218.496 301.955 218.467 302.06 218.414 302.152C218.36 302.244 218.284 302.321 218.191 302.374C218.099 302.427 217.994 302.454 217.888 302.454ZM203.657 301.243H216.828L210.243 289.837L203.657 301.243Z" fill="#FCC63A"/>
<path d="M158.423 271.092C158.12 271.092 160.736 272.8 120.827 245.535C106.27 235.597 94.3591 222.255 86.1303 206.668C77.9014 191.081 73.603 173.72 73.6084 156.094V76.9056C73.6087 76.8032 73.635 76.7026 73.6848 76.6131C73.7345 76.5236 73.8062 76.4482 73.893 76.3939C73.9869 76.3334 83.5425 70.3535 98.6572 64.4615C112.609 59.0115 134.303 52.5381 158.423 52.5381C182.542 52.5381 204.233 59.0206 218.185 64.4615C233.302 70.3535 242.858 76.3334 242.952 76.3939C243.039 76.4482 243.111 76.5236 243.16 76.6131C243.21 76.7026 243.236 76.8032 243.237 76.9056V156.094C243.24 173.721 238.94 191.083 230.708 206.67C222.476 222.257 210.563 235.599 196.003 245.535C156.073 272.824 158.713 271.092 158.423 271.092ZM74.8195 77.2478V156.094C74.814 173.522 79.0641 190.689 87.2006 206.101C95.3371 221.513 107.114 234.706 121.508 244.533L158.423 269.751L195.337 244.533C209.731 234.706 221.508 221.513 229.644 206.101C237.781 190.689 242.031 173.522 242.025 156.094V77.2478C240.342 76.2244 231.295 70.8713 217.719 65.5818C203.869 60.1832 182.339 53.7522 158.423 53.7522C134.506 53.7522 112.976 60.1832 99.1265 65.5818C85.55 70.8713 76.503 76.2244 74.8195 77.2478Z" fill="#000091"/>
<path d="M127.999 235.034C115.151 226.263 104.639 214.487 97.3765 200.73C90.1138 186.973 86.32 171.651 86.3247 156.094V84.0058C97.9393 77.9503 126.116 65.2578 158.422 65.2578C190.729 65.2578 218.89 77.9382 230.52 84.0058V156.094C230.524 171.651 226.73 186.973 219.468 200.73C212.205 214.487 201.693 226.263 188.845 235.034L158.422 255.817L127.999 235.034Z" fill="#FCC63A"/>
<path d="M20.6313 198.002H163.312V223.578H20.6313V198.002Z" fill="#CE0500"/>
<path d="M39.0338 218.224C38.8732 218.224 38.7191 218.161 38.6056 218.047C38.492 217.934 38.4282 217.779 38.4282 217.619V203.612C38.4282 203.452 38.492 203.298 38.6056 203.184C38.7191 203.071 38.8732 203.007 39.0338 203.007C39.1944 203.007 39.3484 203.071 39.462 203.184C39.5755 203.298 39.6393 203.452 39.6393 203.612V217.619C39.6393 217.779 39.5755 217.934 39.462 218.047C39.3484 218.161 39.1944 218.224 39.0338 218.224Z" fill="white"/>
<path d="M32.9692 214.721C32.8361 214.721 32.7068 214.677 32.6013 214.596C32.4957 214.515 32.4199 214.401 32.3854 214.273C32.3509 214.144 32.3598 214.008 32.4106 213.885C32.4614 213.762 32.5513 213.659 32.6665 213.592L44.8109 206.589C44.8798 206.545 44.9569 206.515 45.0375 206.502C45.118 206.489 45.2005 206.492 45.2798 206.512C45.3591 206.531 45.4337 206.566 45.499 206.615C45.5644 206.664 45.6191 206.726 45.66 206.797C45.7009 206.867 45.727 206.946 45.7369 207.027C45.7467 207.108 45.7401 207.19 45.7173 207.268C45.6946 207.347 45.6562 207.42 45.6045 207.483C45.5528 207.546 45.4888 207.598 45.4164 207.636C32.4424 215.121 33.2084 214.721 32.9692 214.721Z" fill="white"/>
<path d="M45.1137 214.721C44.8715 214.721 45.6194 215.108 32.6786 207.636C32.5468 207.552 32.4525 207.42 32.4153 207.269C32.3782 207.117 32.4011 206.957 32.4792 206.821C32.5574 206.686 32.6848 206.586 32.8348 206.543C32.9848 206.499 33.1458 206.516 33.2842 206.588L45.4165 213.591C45.5316 213.658 45.6216 213.761 45.6724 213.884C45.7232 214.007 45.732 214.143 45.6975 214.272C45.6631 214.4 45.5872 214.514 45.4817 214.595C45.3762 214.676 45.2468 214.72 45.1137 214.721ZM60.3919 218.342C60.2313 218.342 60.0773 218.278 59.9637 218.164C59.8501 218.051 59.7863 217.897 59.7863 217.736V203.727C59.7863 203.566 59.8501 203.412 59.9637 203.298C60.0773 203.185 60.2313 203.121 60.3919 203.121C60.5525 203.121 60.7065 203.185 60.8201 203.298C60.9336 203.412 60.9974 203.566 60.9974 203.727V217.736C60.9974 217.897 60.9336 218.051 60.8201 218.164C60.7065 218.278 60.5525 218.342 60.3919 218.342Z" fill="white"/>
<path d="M54.3271 214.839C54.194 214.839 54.0647 214.795 53.9592 214.714C53.8536 214.633 53.7778 214.519 53.7433 214.391C53.7088 214.262 53.7177 214.126 53.7685 214.003C53.8193 213.88 53.9092 213.777 54.0244 213.71L66.1567 206.707C66.2256 206.663 66.3027 206.634 66.3833 206.62C66.4638 206.607 66.5463 206.61 66.6256 206.63C66.7049 206.649 66.7795 206.684 66.8448 206.733C66.9102 206.782 66.9649 206.844 67.0058 206.915C67.0467 206.986 67.0728 207.064 67.0827 207.145C67.0925 207.226 67.0859 207.308 67.0631 207.387C67.0404 207.465 67.002 207.538 66.9503 207.601C66.8986 207.664 66.8346 207.717 66.7622 207.754C53.7973 215.236 54.5633 214.839 54.3271 214.839Z" fill="white"/>
<path d="M66.4565 214.839C66.2173 214.839 66.9621 215.226 54.0214 207.754C53.8896 207.67 53.7953 207.538 53.7581 207.387C53.721 207.235 53.7438 207.075 53.822 206.94C53.9002 206.804 54.0276 206.705 54.1776 206.661C54.3276 206.618 54.4886 206.634 54.627 206.706L66.7593 213.709C66.8744 213.776 66.9643 213.879 67.0151 214.002C67.0659 214.125 67.0748 214.261 67.0403 214.39C67.0059 214.518 66.93 214.632 66.8245 214.713C66.7189 214.794 66.5896 214.838 66.4565 214.839ZM81.7498 218.457C81.5892 218.457 81.4352 218.393 81.3216 218.279C81.208 218.166 81.1442 218.012 81.1442 217.851V203.845C81.1442 203.684 81.208 203.53 81.3216 203.417C81.4352 203.303 81.5892 203.239 81.7498 203.239C81.9104 203.239 82.0644 203.303 82.178 203.417C82.2916 203.53 82.3554 203.684 82.3554 203.845V217.851C82.3554 218.012 82.2916 218.166 82.178 218.279C82.0644 218.393 81.9104 218.457 81.7498 218.457Z" fill="white"/>
<path d="M75.6943 214.972C75.5602 214.973 75.4296 214.929 75.3229 214.848C75.2163 214.767 75.1397 214.652 75.105 214.523C75.0704 214.393 75.0797 214.256 75.1316 214.132C75.1834 214.009 75.2748 213.906 75.3915 213.84L87.5026 206.821C87.6419 206.741 87.8074 206.719 87.9627 206.761C88.118 206.803 88.2504 206.904 88.3307 207.044C88.411 207.183 88.4327 207.349 88.3909 207.504C88.3492 207.659 88.2475 207.792 88.1081 207.872C75.1523 215.354 75.9213 214.972 75.6943 214.972Z" fill="white"/>
<path d="M87.8054 214.972C87.5662 214.972 88.3141 215.357 75.3734 207.887C75.2341 207.807 75.1323 207.674 75.0906 207.519C75.0489 207.364 75.0705 207.198 75.1508 207.059C75.2311 206.92 75.3635 206.818 75.5188 206.776C75.6741 206.734 75.8396 206.756 75.9789 206.836L88.1082 213.825C88.2334 213.886 88.3334 213.99 88.3913 214.117C88.4491 214.244 88.4612 214.387 88.4256 214.522C88.39 214.657 88.3088 214.776 88.1958 214.858C88.0828 214.94 87.9449 214.98 87.8054 214.972ZM103.102 218.575C102.941 218.575 102.787 218.511 102.674 218.398C102.56 218.284 102.496 218.13 102.496 217.97V203.96C102.496 203.799 102.56 203.645 102.674 203.532C102.787 203.418 102.941 203.354 103.102 203.354C103.262 203.354 103.416 203.418 103.53 203.532C103.644 203.645 103.707 203.799 103.707 203.96V217.97C103.707 218.13 103.644 218.284 103.53 218.398C103.416 218.511 103.262 218.575 103.102 218.575Z" fill="white"/>
<path d="M97.0371 215.072C96.904 215.072 96.7747 215.028 96.6691 214.946C96.5636 214.865 96.4877 214.752 96.4533 214.623C96.4188 214.495 96.4277 214.358 96.4785 214.235C96.5293 214.112 96.6192 214.009 96.7343 213.942L108.864 206.939C108.933 206.895 109.01 206.866 109.09 206.853C109.171 206.839 109.253 206.843 109.333 206.862C109.412 206.882 109.486 206.917 109.552 206.966C109.617 207.015 109.672 207.077 109.713 207.147C109.754 207.218 109.78 207.296 109.79 207.377C109.799 207.458 109.793 207.541 109.77 207.619C109.747 207.697 109.709 207.77 109.657 207.834C109.605 207.897 109.542 207.949 109.469 207.987C96.5103 215.472 97.2763 215.072 97.0371 215.072Z" fill="white"/>
<path d="M109.167 215.072C108.927 215.072 109.675 215.459 96.7345 207.987C96.6622 207.949 96.5982 207.897 96.5465 207.834C96.4948 207.77 96.4564 207.697 96.4336 207.619C96.4109 207.541 96.4042 207.458 96.4141 207.377C96.4239 207.296 96.4501 207.218 96.491 207.147C96.5318 207.077 96.5866 207.015 96.6519 206.966C96.7173 206.917 96.7918 206.882 96.8712 206.862C96.9505 206.843 97.0329 206.839 97.1135 206.853C97.1941 206.866 97.2712 206.895 97.3401 206.939L109.469 213.942C109.585 214.009 109.674 214.112 109.725 214.235C109.776 214.358 109.785 214.495 109.75 214.623C109.716 214.752 109.64 214.865 109.535 214.946C109.429 215.028 109.3 215.072 109.167 215.072ZM129.262 217.394H115.964C115.803 217.394 115.649 217.33 115.536 217.217C115.422 217.103 115.358 216.949 115.358 216.789C115.358 216.628 115.422 216.474 115.536 216.36C115.649 216.247 115.803 216.183 115.964 216.183H129.271C129.432 216.183 129.586 216.247 129.699 216.36C129.813 216.474 129.877 216.628 129.877 216.789C129.877 216.949 129.813 217.103 129.699 217.217C129.586 217.33 129.432 217.394 129.271 217.394H129.262ZM150.974 217.394H137.667C137.506 217.394 137.352 217.33 137.239 217.217C137.125 217.103 137.062 216.949 137.062 216.789C137.062 216.628 137.125 216.474 137.239 216.36C137.352 216.247 137.506 216.183 137.667 216.183H150.974C151.135 216.183 151.289 216.247 151.402 216.36C151.516 216.474 151.58 216.628 151.58 216.789C151.58 216.949 151.516 217.103 151.402 217.217C151.289 217.33 151.135 217.394 150.974 217.394Z" fill="white"/>
<path d="M181.14 141.858H173.428V122.998C173.428 119.018 171.847 115.201 169.033 112.387C166.219 109.573 162.402 107.992 158.422 107.992C154.443 107.992 150.626 109.573 147.812 112.387C144.998 115.201 143.417 119.018 143.417 122.998V141.858H135.705V122.998C135.705 116.973 138.099 111.194 142.359 106.934C146.619 102.674 152.397 100.28 158.422 100.28C164.448 100.28 170.226 102.674 174.486 106.934C178.746 111.194 181.14 116.973 181.14 122.998V141.858Z" fill="#000091"/>
<path d="M185.124 128.396H131.72C129.269 128.396 127.282 130.384 127.282 132.835V171.739C127.282 174.191 129.269 176.178 131.72 176.178H185.124C187.576 176.178 189.563 174.191 189.563 171.739V132.835C189.563 130.384 187.576 128.396 185.124 128.396Z" fill="#000091"/>
<path d="M158.423 154.06C161.322 154.06 163.673 151.709 163.673 148.81C163.673 145.91 161.322 143.56 158.423 143.56C155.523 143.56 153.172 145.91 153.172 148.81C153.172 151.709 155.523 154.06 158.423 154.06Z" fill="white"/>
<path d="M155.982 150.808H160.863V161.014H155.982V150.808Z" fill="white"/>
<path d="M39.3609 36.7422H90.6242C91.6328 36.7422 92.6001 37.1428 93.3133 37.856C94.0264 38.5692 94.4271 39.5365 94.4271 40.5451V86.3644L101.267 94.4971H39.3609C38.8616 94.4971 38.3673 94.3987 37.9061 94.2075C37.4448 94.0164 37.0258 93.7362 36.6729 93.383C36.32 93.0299 36.0402 92.6106 35.8494 92.1492C35.6586 91.6879 35.5606 91.1934 35.561 90.6942V40.5451C35.561 39.537 35.9613 38.5702 36.6738 37.8571C37.3863 37.144 38.3528 36.743 39.3609 36.7422Z" fill="#000091"/>
<path d="M284.899 277.272C296.756 277.272 306.369 267.66 306.369 255.802C306.369 243.944 296.756 234.332 284.899 234.332C273.041 234.332 263.429 243.944 263.429 255.802C263.429 267.66 273.041 277.272 284.899 277.272Z" fill="#FCC63A"/>
<path d="M294.157 262.214C297.699 262.214 300.57 259.343 300.57 255.802C300.57 252.26 297.699 249.389 294.157 249.389C290.616 249.389 287.745 252.26 287.745 255.802C287.745 259.343 290.616 262.214 294.157 262.214Z" fill="#000091"/>
<path d="M277.744 247.346V264.259H256.489C256.429 263.323 256.015 262.445 255.331 261.803C254.646 261.161 253.744 260.804 252.806 260.804C251.868 260.804 250.965 261.161 250.281 261.803C249.597 262.445 249.182 263.323 249.122 264.259H239.155L235.24 261.658L231.419 264.259L227.434 261.658L224.407 264.259H213.555L207.048 256.02L213.555 247.346H277.744Z" fill="#FCC63A"/>
<path d="M263.865 255.323H217.458C217.297 255.323 217.143 255.26 217.03 255.146C216.916 255.032 216.853 254.878 216.853 254.718C216.853 254.557 216.916 254.403 217.03 254.29C217.143 254.176 217.297 254.112 217.458 254.112H263.865C264.025 254.112 264.179 254.176 264.293 254.29C264.407 254.403 264.47 254.557 264.47 254.718C264.47 254.878 264.407 255.032 264.293 255.146C264.179 255.26 264.025 255.323 263.865 255.323Z" fill="white"/>
<path d="M287.227 224.734C287.066 224.734 286.912 224.67 286.799 224.556C286.685 224.443 286.621 224.289 286.621 224.128V220.495C286.621 220.334 286.685 220.18 286.799 220.067C286.912 219.953 287.066 219.889 287.227 219.889C287.388 219.889 287.542 219.953 287.655 220.067C287.769 220.18 287.833 220.334 287.833 220.495V224.128C287.833 224.289 287.769 224.443 287.655 224.556C287.542 224.67 287.388 224.734 287.227 224.734ZM287.227 217.467C287.066 217.467 286.912 217.403 286.799 217.29C286.685 217.176 286.621 217.022 286.621 216.862V213.228C286.621 213.068 286.685 212.914 286.799 212.8C286.912 212.687 287.066 212.623 287.227 212.623C287.388 212.623 287.542 212.687 287.655 212.8C287.769 212.914 287.833 213.068 287.833 213.228V216.862C287.833 217.022 287.769 217.176 287.655 217.29C287.542 217.403 287.388 217.467 287.227 217.467ZM287.227 210.2C287.066 210.2 286.912 210.137 286.799 210.023C286.685 209.91 286.621 209.756 286.621 209.595V205.962C286.621 205.801 286.685 205.647 286.799 205.533C286.912 205.42 287.066 205.356 287.227 205.356C287.388 205.356 287.542 205.42 287.655 205.533C287.769 205.647 287.833 205.801 287.833 205.962V209.595C287.833 209.756 287.769 209.91 287.655 210.023C287.542 210.137 287.388 210.2 287.227 210.2ZM287.227 202.934C287.066 202.934 286.912 202.87 286.799 202.756C286.685 202.643 286.621 202.489 286.621 202.328V198.695C286.621 198.534 286.685 198.38 286.799 198.267C286.912 198.153 287.066 198.089 287.227 198.089C287.388 198.089 287.542 198.153 287.655 198.267C287.769 198.38 287.833 198.534 287.833 198.695V202.328C287.833 202.489 287.769 202.643 287.655 202.756C287.542 202.87 287.388 202.934 287.227 202.934ZM287.227 195.667C287.066 195.667 286.912 195.603 286.799 195.49C286.685 195.376 286.621 195.222 286.621 195.062V191.428C286.621 191.268 286.685 191.114 286.799 191C286.912 190.887 287.066 190.823 287.227 190.823C287.388 190.823 287.542 190.887 287.655 191C287.769 191.114 287.833 191.268 287.833 191.428V195.062C287.833 195.222 287.769 195.376 287.655 195.49C287.542 195.603 287.388 195.667 287.227 195.667ZM287.227 188.4C287.066 188.4 286.912 188.337 286.799 188.223C286.685 188.11 286.621 187.956 286.621 187.795V184.162C286.621 184.001 286.685 183.847 286.799 183.733C286.912 183.62 287.066 183.556 287.227 183.556C287.388 183.556 287.542 183.62 287.655 183.733C287.769 183.847 287.833 184.001 287.833 184.162V187.795C287.833 187.956 287.769 188.11 287.655 188.223C287.542 188.337 287.388 188.4 287.227 188.4ZM287.227 181.134C287.066 181.134 286.912 181.07 286.799 180.956C286.685 180.843 286.621 180.689 286.621 180.528V176.895C286.621 176.734 286.685 176.58 286.799 176.467C286.912 176.353 287.066 176.289 287.227 176.289C287.388 176.289 287.542 176.353 287.655 176.467C287.769 176.58 287.833 176.734 287.833 176.895V180.528C287.833 180.689 287.769 180.843 287.655 180.956C287.542 181.07 287.388 181.134 287.227 181.134ZM287.227 173.867C287.066 173.867 286.912 173.803 286.799 173.69C286.685 173.576 286.621 173.422 286.621 173.262V169.628C286.621 169.468 286.685 169.314 286.799 169.2C286.912 169.087 287.066 169.023 287.227 169.023C287.388 169.023 287.542 169.087 287.655 169.2C287.769 169.314 287.833 169.468 287.833 169.628V173.262C287.833 173.422 287.769 173.576 287.655 173.69C287.542 173.803 287.388 173.867 287.227 173.867ZM287.227 166.6C287.066 166.6 286.912 166.537 286.799 166.423C286.685 166.31 286.621 166.156 286.621 165.995V162.362C286.621 162.201 286.685 162.047 286.799 161.933C286.912 161.82 287.066 161.756 287.227 161.756C287.388 161.756 287.542 161.82 287.655 161.933C287.769 162.047 287.833 162.201 287.833 162.362V165.995C287.833 166.156 287.769 166.31 287.655 166.423C287.542 166.537 287.388 166.6 287.227 166.6ZM287.227 159.334C287.066 159.334 286.912 159.27 286.799 159.156C286.685 159.043 286.621 158.889 286.621 158.728V155.095C286.621 154.934 286.685 154.78 286.799 154.667C286.912 154.553 287.066 154.489 287.227 154.489C287.388 154.489 287.542 154.553 287.655 154.667C287.769 154.78 287.833 154.934 287.833 155.095V158.728C287.833 158.889 287.769 159.043 287.655 159.156C287.542 159.27 287.388 159.334 287.227 159.334ZM287.227 152.067C287.066 152.067 286.912 152.003 286.799 151.89C286.685 151.776 286.621 151.622 286.621 151.462V147.828C286.621 147.668 286.685 147.514 286.799 147.4C286.912 147.286 287.066 147.223 287.227 147.223C287.388 147.223 287.542 147.286 287.655 147.4C287.769 147.514 287.833 147.668 287.833 147.828V151.462C287.833 151.622 287.769 151.776 287.655 151.89C287.542 152.003 287.388 152.067 287.227 152.067ZM285.253 146.775H281.62C281.459 146.775 281.305 146.711 281.191 146.597C281.078 146.484 281.014 146.33 281.014 146.169C281.014 146.008 281.078 145.854 281.191 145.741C281.305 145.627 281.459 145.563 281.62 145.563H285.253C285.413 145.563 285.568 145.627 285.681 145.741C285.795 145.854 285.858 146.008 285.858 146.169C285.858 146.33 285.795 146.484 285.681 146.597C285.568 146.711 285.413 146.775 285.253 146.775ZM277.986 146.775H274.353C274.192 146.775 274.038 146.711 273.925 146.597C273.811 146.484 273.747 146.33 273.747 146.169C273.747 146.008 273.811 145.854 273.925 145.741C274.038 145.627 274.192 145.563 274.353 145.563H277.986C278.147 145.563 278.301 145.627 278.414 145.741C278.528 145.854 278.592 146.008 278.592 146.169C278.592 146.33 278.528 146.484 278.414 146.597C278.301 146.711 278.147 146.775 277.986 146.775ZM270.72 146.775H267.086C266.926 146.775 266.772 146.711 266.658 146.597C266.544 146.484 266.481 146.33 266.481 146.169C266.481 146.008 266.544 145.854 266.658 145.741C266.772 145.627 266.926 145.563 267.086 145.563H270.72C270.88 145.563 271.034 145.627 271.148 145.741C271.261 145.854 271.325 146.008 271.325 146.169C271.325 146.33 271.261 146.484 271.148 146.597C271.034 146.711 270.88 146.775 270.72 146.775ZM263.453 146.775H259.82C259.659 146.775 259.505 146.711 259.391 146.597C259.278 146.484 259.214 146.33 259.214 146.169C259.214 146.008 259.278 145.854 259.391 145.741C259.505 145.627 259.659 145.563 259.82 145.563H263.453C263.613 145.563 263.768 145.627 263.881 145.741C263.995 145.854 264.058 146.008 264.058 146.169C264.058 146.33 263.995 146.484 263.881 146.597C263.768 146.711 263.613 146.775 263.453 146.775ZM256.186 146.775H252.553C252.392 146.775 252.238 146.711 252.125 146.597C252.011 146.484 251.947 146.33 251.947 146.169C251.947 146.008 252.011 145.854 252.125 145.741C252.238 145.627 252.392 145.563 252.553 145.563H256.186C256.347 145.563 256.501 145.627 256.614 145.741C256.728 145.854 256.792 146.008 256.792 146.169C256.792 146.33 256.728 146.484 256.614 146.597C256.501 146.711 256.347 146.775 256.186 146.775ZM248.92 146.775H245.286C245.126 146.775 244.972 146.711 244.858 146.597C244.744 146.484 244.681 146.33 244.681 146.169C244.681 146.008 244.744 145.854 244.858 145.741C244.972 145.627 245.126 145.563 245.286 145.563H248.92C249.08 145.563 249.234 145.627 249.348 145.741C249.461 145.854 249.525 146.008 249.525 146.169C249.525 146.33 249.461 146.484 249.348 146.597C249.234 146.711 249.08 146.775 248.92 146.775Z" fill="#000091"/>
<path d="M228.537 51.0662C228.447 51.0677 228.358 51.0492 228.277 51.0122C228.195 50.9752 228.123 50.9206 228.065 50.8522C228.007 50.7839 227.965 50.7035 227.942 50.617C227.918 50.5304 227.915 50.4398 227.931 50.3516L232.3 26.3716C232.329 26.2134 232.419 26.0731 232.551 25.9814C232.683 25.8897 232.846 25.8541 233.004 25.8827C233.162 25.9112 233.303 26.0013 233.394 26.1334C233.486 26.2654 233.522 26.4284 233.493 26.5866L229.13 50.5636C229.106 50.7037 229.033 50.8309 228.925 50.9227C228.816 51.0146 228.679 51.0654 228.537 51.0662ZM244.217 58.4873C244.102 58.4868 243.99 58.4535 243.893 58.3912C243.796 58.3289 243.719 58.2403 243.67 58.1357C243.622 58.0311 243.604 57.9149 243.62 57.8008C243.635 57.6866 243.683 57.5792 243.757 57.4911L259.532 38.9066C259.636 38.7842 259.784 38.708 259.944 38.695C260.105 38.6819 260.263 38.733 260.386 38.837C260.508 38.941 260.584 39.0894 260.597 39.2495C260.61 39.4096 260.559 39.5684 260.455 39.6908L244.678 58.2753C244.621 58.3418 244.55 58.3952 244.471 58.4318C244.391 58.4683 244.305 58.4873 244.217 58.4873ZM251.539 73.6686C251.413 73.6689 251.291 73.6304 251.188 73.5582C251.086 73.4861 251.008 73.3839 250.966 73.2659C250.913 73.1149 250.921 72.9489 250.99 72.8042C251.059 72.6595 251.182 72.5479 251.333 72.4938L276.839 63.3741C276.99 63.3203 277.157 63.3288 277.302 63.3978C277.447 63.4668 277.559 63.5906 277.612 63.742C277.666 63.8934 277.658 64.0599 277.589 64.205C277.52 64.3501 277.396 64.4618 277.244 64.5156C249.882 74.2983 251.699 73.6686 251.539 73.6686ZM51.5024 300.186C46.0084 300.187 40.6098 298.751 35.8427 296.019C35.7737 295.98 35.7132 295.927 35.6647 295.864C35.6162 295.8 35.5806 295.728 35.5599 295.652C35.5393 295.575 35.534 295.494 35.5443 295.415C35.5546 295.336 35.5804 295.26 35.6202 295.191C35.6599 295.122 35.7129 295.062 35.776 295.013C35.8392 294.965 35.9112 294.929 35.9881 294.909C36.065 294.888 36.1452 294.883 36.2242 294.893C36.3031 294.903 36.3793 294.929 36.4483 294.969C43.1404 298.806 51.0433 299.948 58.5478 298.162C66.0523 296.376 72.5941 291.798 76.841 285.358C81.0879 278.918 82.7205 271.102 81.4065 263.501C80.0924 255.899 75.9305 249.085 69.7682 244.444C63.6059 239.804 55.9066 237.687 48.2382 238.524C40.5697 239.362 33.5088 243.091 28.4932 248.951C23.4775 254.812 20.8844 262.364 21.2418 270.07C21.5992 277.776 24.8803 285.056 30.4169 290.427C30.502 290.544 30.5426 290.687 30.5312 290.831C30.5198 290.975 30.4573 291.111 30.355 291.213C30.2526 291.315 30.1171 291.377 29.973 291.388C29.8289 291.398 29.6856 291.357 29.5692 291.272C24.3331 286.184 21.0288 279.434 20.2221 272.177C19.4154 264.921 21.1565 257.61 25.1472 251.496C29.138 245.382 35.1301 240.846 42.0975 238.664C49.0649 236.482 56.5741 236.791 63.3392 239.536C70.1043 242.282 75.7044 247.294 79.1805 253.715C82.6567 260.135 83.7926 267.564 82.3938 274.73C80.995 281.896 77.1485 288.352 71.5129 292.994C65.8774 297.636 58.8034 300.174 51.5024 300.174V300.186Z" fill="#CE0500"/>
<path d="M73.932 281.613C71.6636 285.557 68.3954 288.834 64.457 291.112C60.5186 293.39 56.0491 294.59 51.4992 294.59C46.9493 294.59 42.4798 293.39 38.5414 291.112C34.603 288.834 31.3348 285.557 29.0664 281.613C31.3356 277.671 34.6039 274.396 38.542 272.119C42.48 269.842 46.9487 268.643 51.4977 268.643C56.0467 268.643 60.5154 269.842 64.4534 272.119C68.3915 274.396 71.6598 277.671 73.929 281.613H73.932Z" fill="#CE0500"/>
<path d="M51.5025 269.772C57.7548 269.772 62.8234 264.703 62.8234 258.451C62.8234 252.198 57.7548 247.13 51.5025 247.13C45.2502 247.13 40.1816 252.198 40.1816 258.451C40.1816 264.703 45.2502 269.772 51.5025 269.772Z" fill="#CE0500"/>
<path d="M106.344 269H102.711C102.551 269 102.397 268.936 102.283 268.823C102.169 268.709 102.106 268.555 102.106 268.395C102.106 268.234 102.169 268.08 102.283 267.966C102.397 267.853 102.551 267.789 102.711 267.789H106.344C106.505 267.789 106.659 267.853 106.773 267.966C106.886 268.08 106.95 268.234 106.95 268.395C106.95 268.555 106.886 268.709 106.773 268.823C106.659 268.936 106.505 269 106.344 269ZM99.0778 269H95.4445C95.2839 269 95.1299 268.936 95.0163 268.823C94.9027 268.709 94.8389 268.555 94.8389 268.395C94.8389 268.234 94.9027 268.08 95.0163 267.966C95.1299 267.853 95.2839 267.789 95.4445 267.789H99.0778C99.2384 267.789 99.3925 267.853 99.506 267.966C99.6196 268.08 99.6834 268.234 99.6834 268.395C99.6834 268.555 99.6196 268.709 99.506 268.823C99.3925 268.936 99.2384 269 99.0778 269ZM91.8112 269H88.1778C88.0172 269 87.8632 268.936 87.7496 268.823C87.6361 268.709 87.5723 268.555 87.5723 268.395C87.5723 268.234 87.6361 268.08 87.7496 267.966C87.8632 267.853 88.0172 267.789 88.1778 267.789H91.8112C91.9718 267.789 92.1258 267.853 92.2393 267.966C92.3529 268.08 92.4167 268.234 92.4167 268.395C92.4167 268.555 92.3529 268.709 92.2393 268.823C92.1258 268.936 91.9718 269 91.8112 269ZM109.372 268.395C109.212 268.395 109.058 268.331 108.944 268.217C108.831 268.104 108.767 267.95 108.767 267.789V264.156C108.767 263.995 108.831 263.841 108.944 263.727C109.058 263.614 109.212 263.55 109.372 263.55C109.533 263.55 109.687 263.614 109.8 263.727C109.914 263.841 109.978 263.995 109.978 264.156V267.789C109.978 267.95 109.914 268.104 109.8 268.217C109.687 268.331 109.533 268.395 109.372 268.395ZM109.372 261.128C109.212 261.128 109.058 261.064 108.944 260.951C108.831 260.837 108.767 260.683 108.767 260.522V256.889C108.767 256.728 108.831 256.574 108.944 256.461C109.058 256.347 109.212 256.283 109.372 256.283C109.533 256.283 109.687 256.347 109.8 256.461C109.914 256.574 109.978 256.728 109.978 256.889V260.522C109.978 260.683 109.914 260.837 109.8 260.951C109.687 261.064 109.533 261.128 109.372 261.128ZM109.372 253.861C109.212 253.861 109.058 253.797 108.944 253.684C108.831 253.57 108.767 253.416 108.767 253.256V249.622C108.767 249.462 108.831 249.308 108.944 249.194C109.058 249.081 109.212 249.017 109.372 249.017C109.533 249.017 109.687 249.081 109.8 249.194C109.914 249.308 109.978 249.462 109.978 249.622V253.256C109.978 253.416 109.914 253.57 109.8 253.684C109.687 253.797 109.533 253.861 109.372 253.861ZM109.372 246.595C109.212 246.595 109.058 246.531 108.944 246.417C108.831 246.304 108.767 246.15 108.767 245.989V242.356C108.767 242.195 108.831 242.041 108.944 241.927C109.058 241.814 109.212 241.75 109.372 241.75C109.533 241.75 109.687 241.814 109.8 241.927C109.914 242.041 109.978 242.195 109.978 242.356V245.989C109.978 246.15 109.914 246.304 109.8 246.417C109.687 246.531 109.533 246.595 109.372 246.595ZM109.372 239.328C109.212 239.328 109.058 239.264 108.944 239.151C108.831 239.037 108.767 238.883 108.767 238.722V235.089C108.767 234.928 108.831 234.774 108.944 234.661C109.058 234.547 109.212 234.483 109.372 234.483C109.533 234.483 109.687 234.547 109.8 234.661C109.914 234.774 109.978 234.928 109.978 235.089V238.722C109.978 238.883 109.914 239.037 109.8 239.151C109.687 239.264 109.533 239.328 109.372 239.328ZM109.372 232.061C109.212 232.061 109.058 231.997 108.944 231.884C108.831 231.77 108.767 231.616 108.767 231.456V227.822C108.767 227.662 108.831 227.508 108.944 227.394C109.058 227.281 109.212 227.217 109.372 227.217C109.533 227.217 109.687 227.281 109.8 227.394C109.914 227.508 109.978 227.662 109.978 227.822V231.456C109.978 231.616 109.914 231.77 109.8 231.884C109.687 231.997 109.533 232.061 109.372 232.061Z" fill="#000091"/>
</svg>
