<svg width="384" height="384" viewBox="0 0 384 384" fill="none" xmlns="http://www.w3.org/2000/svg">
<path d="M134.475 360.789C134.475 360.789 114.823 375.723 143.008 376.167C171.193 376.612 152.832 362.496 152.832 362.496M201.116 355.236C201.116 356.089 189.155 368.907 205.817 369.76C222.478 370.613 241.703 370.187 240.423 366.343C239.143 362.5 217.778 352.672 217.778 352.672" fill="#CE0500"/>
<path d="M218.635 347.552L218.475 347.758C215.986 351.026 211.833 352.736 206.486 352.736C203.286 352.736 200.58 352.164 197.693 351.374C194.446 342.4 186.525 281.92 185.316 272.356C176.409 254.542 170.958 240.967 170.382 239.477L169.945 239.253L169.981 238.777C168.342 254.012 158.763 343.31 156.281 358.244L155.926 358.393C149.106 361.266 137.604 361.237 131.506 356.54C136.039 261.419 128.402 232.715 128.171 199.307L129.131 199.662C143.68 204.932 185.796 204.071 200.573 198.684C204.068 214.283 210.471 243.339 213.102 259.129C214.702 268.729 214.973 274.532 215.876 293.767C216.633 312.082 218.631 347.516 218.635 347.552Z" fill="#000091"/>
<path d="M160.686 203.175C152.192 203.175 131.915 202.709 125.099 197.554C125.568 186.695 125.661 159.765 125.661 148.935C135.534 140.996 142.155 133.291 155.449 122.624C157.55 122.909 159.531 122.884 161.138 124.1C163.79 126.101 166.397 128.366 167.744 127.214C168.779 126.329 168.587 125.099 167.947 123.897L167.111 122.311L168.665 123.253C169.643 123.847 171.406 124.736 172.221 123.929C173.269 122.862 172.633 121.223 171.865 119.94L172.576 119.264C173.689 119.975 175.552 120.964 176.42 119.975C177.337 118.926 176.893 117.607 176.146 116.441L175.221 115.019C176.583 115.645 177.767 116.309 178.82 116.221C179.073 116.204 179.32 116.129 179.541 116.003C179.762 115.877 179.951 115.703 180.095 115.493C180.239 115.283 180.333 115.044 180.371 114.792C180.409 114.541 180.389 114.284 180.313 114.041C179.645 111.25 173.735 107.232 168.53 104.679C161.774 101.358 147.079 108.185 140.256 111.513C130.101 116.466 119.093 123.012 109.429 128.903C106.201 127.321 101.54 123.083 98.937 120.626C102.67 113.39 109.248 103.239 117.241 93.4578C124.302 84.8285 138.631 81.913 149.678 82.2792C153.394 86.9298 160.466 93.561 166.35 92.3272C170.261 91.5094 169.33 84.1138 169.106 82.6383L169.01 82.0267C179.492 82.6952 193.024 85.4294 201.7 91.3458C211.406 97.9627 215.374 102.83 216.633 104.619C216.725 104.75 216.704 104.697 216.722 104.85C217.525 112.203 218.361 120.174 220.142 127.047C218.667 130.514 214.948 133.945 211.556 135.822L211.396 135.797L211.339 135.94C210.45 136.381 208.761 137.152 207.876 136.651C206.048 135.584 200.587 131.076 198.955 129.714C198.781 129.568 198.809 129.604 198.802 129.554C198.717 130.18 203.691 161.351 201.682 198.123C193.561 202.29 170.347 203.175 160.686 203.175Z" fill="#FCC63A"/>
<path d="M125.099 198.258H125.067C124.973 198.254 124.881 198.231 124.797 198.192C124.712 198.152 124.636 198.096 124.573 198.027C124.51 197.958 124.461 197.877 124.429 197.789C124.397 197.701 124.383 197.608 124.387 197.515C124.942 185.148 124.949 155.385 124.949 155.086C124.949 154.898 125.024 154.717 125.158 154.583C125.291 154.45 125.472 154.375 125.66 154.375C125.849 154.375 126.03 154.45 126.163 154.583C126.297 154.717 126.371 154.898 126.371 155.086C126.371 155.385 126.371 185.18 125.81 197.579C125.801 197.762 125.723 197.934 125.59 198.061C125.458 198.187 125.282 198.258 125.099 198.258ZM201.675 198.823H201.635C201.448 198.812 201.273 198.727 201.147 198.588C201.022 198.448 200.957 198.264 200.967 198.076C203.605 150.72 194.595 107.733 194.489 107.3C194.452 107.111 194.492 106.915 194.599 106.756C194.706 106.597 194.873 106.487 195.061 106.45C195.25 106.413 195.445 106.453 195.605 106.56C195.764 106.667 195.874 106.834 195.911 107.022C196 107.452 205.049 150.62 202.4 198.169C202.385 198.35 202.302 198.519 202.167 198.64C202.032 198.762 201.856 198.827 201.675 198.823ZM212.235 100.622C212.109 100.623 211.985 100.591 211.875 100.529C211.766 100.466 211.675 100.376 211.612 100.267C211.612 100.267 209.927 97.5289 201.301 91.9289C194.901 87.7796 186.467 85.5289 180.515 84.3627C176.703 83.608 172.847 83.0915 168.971 82.816C168.782 82.8061 168.605 82.7217 168.479 82.5813C168.352 82.441 168.287 82.2562 168.297 82.0676C168.307 81.879 168.391 81.702 168.531 81.5757C168.672 81.4493 168.857 81.3839 169.045 81.3938C169.874 81.4365 189.483 82.5636 202.076 90.7307C211.129 96.6009 212.8 99.4454 212.867 99.5662C212.96 99.7304 212.983 99.9244 212.932 100.106C212.882 100.287 212.761 100.441 212.597 100.533C212.486 100.595 212.361 100.625 212.235 100.622Z" fill="#000091"/>
<path d="M92.4196 30.0978C90.369 27.2914 87.305 25.3951 83.8786 24.8117C80.4521 24.2283 76.9333 25.0037 74.0694 26.9733C71.2056 28.9429 69.2224 31.9514 68.5412 35.3597C67.8601 38.768 68.5346 42.3077 70.4214 45.2267L74.6063 42.5387C73.9858 41.5744 73.5699 40.493 73.3844 39.3614C73.1988 38.2299 73.2475 37.0723 73.5275 35.9603C73.8075 34.8484 74.3128 33.8058 75.0121 32.897C75.7114 31.9883 76.5898 31.2328 77.593 30.6773C79.3795 29.7091 81.4544 29.4148 83.4396 29.8482C85.4249 30.2815 87.1884 31.4136 88.409 33.0382C89.3967 34.3764 89.9637 35.9782 90.0378 37.6398C90.1118 39.3013 89.6897 40.9473 88.825 42.368C87.7667 44.1712 87.232 46.2337 87.281 48.3239C87.33 50.4141 87.9607 52.4493 89.1023 54.2009L90.6845 56.6685L94.8659 53.984L93.2836 51.5165C92.6421 50.5493 92.2827 49.4226 92.2456 48.2627C92.2086 47.1028 92.4954 45.9554 93.0739 44.9493C94.4511 42.6884 95.1244 40.0688 95.0079 37.424C94.8914 34.7791 93.9904 32.2288 92.4196 30.0978ZM95.6445 59.8009C95.0376 60.1908 94.5598 60.752 94.2718 61.4134C93.9837 62.0749 93.8982 62.8069 94.0261 63.5169C94.154 64.2269 94.4896 64.883 94.9904 65.4024C95.4912 65.9217 96.1347 66.2808 96.8396 66.4345C97.5445 66.5881 98.2791 66.5292 98.9506 66.2653C99.622 66.0015 100.2 65.5444 100.612 64.952C101.024 64.3596 101.25 63.6584 101.264 62.9371C101.277 62.2158 101.076 61.5067 100.686 60.8996C100.427 60.4963 100.092 60.148 99.6982 59.8745C99.3047 59.601 98.8612 59.4078 98.393 59.3057C97.9248 59.2037 97.4411 59.1949 96.9695 59.2799C96.4979 59.3649 96.0477 59.5419 95.6445 59.8009Z" fill="#CE0500"/>
<path d="M80.3234 263.484C80.1832 263.484 80.0462 263.442 79.9298 263.364C79.8135 263.285 79.7228 263.175 79.6692 263.045C79.6156 262.916 79.6015 262.773 79.6287 262.635C79.6559 262.498 79.7232 262.371 79.822 262.272L94.5278 247.566C94.6629 247.443 94.84 247.377 95.0225 247.381C95.205 247.386 95.3789 247.46 95.5082 247.589C95.6375 247.717 95.7123 247.891 95.7171 248.074C95.7219 248.256 95.6564 248.433 95.534 248.569L80.8247 263.278C80.6914 263.41 80.5111 263.485 80.3234 263.484Z" fill="#FCC63A"/>
<path d="M95.0292 263.484C94.8414 263.485 94.6612 263.41 94.5278 263.278L79.8221 248.569C79.7056 248.433 79.6447 248.258 79.6516 248.079C79.6585 247.9 79.7327 247.73 79.8593 247.604C79.986 247.477 80.1558 247.403 80.3347 247.396C80.5137 247.389 80.6887 247.45 80.8247 247.566L95.5341 262.272C95.6331 262.372 95.7004 262.498 95.7275 262.636C95.7546 262.774 95.7402 262.917 95.6862 263.047C95.6322 263.176 95.5409 263.287 95.424 263.365C95.3071 263.443 95.1697 263.485 95.0292 263.484ZM45.6638 118.578C43.8432 118.578 42.0634 118.038 40.5496 117.026C39.0358 116.015 37.8559 114.577 37.1592 112.895C36.4625 111.213 36.2802 109.362 36.6354 107.577C36.9906 105.791 37.8673 104.151 39.1547 102.863C40.4421 101.576 42.0823 100.699 43.868 100.344C45.6536 99.9888 47.5045 100.171 49.1866 100.868C50.8686 101.565 52.3063 102.744 53.3178 104.258C54.3293 105.772 54.8692 107.552 54.8692 109.372C54.8654 111.813 53.8944 114.152 52.1688 115.877C50.4433 117.603 48.1041 118.574 45.6638 118.578ZM45.6638 101.589C44.1245 101.589 42.6197 102.046 41.3398 102.901C40.0598 103.756 39.0623 104.972 38.4732 106.394C37.8841 107.816 37.73 109.381 38.0303 110.891C38.3306 112.401 39.0719 113.787 40.1603 114.876C41.2488 115.964 42.6356 116.706 44.1454 117.006C45.6552 117.306 47.2201 117.152 48.6423 116.563C50.0645 115.974 51.28 114.976 52.1353 113.697C52.9905 112.417 53.4469 110.912 53.4469 109.372C53.4441 107.309 52.6232 105.331 51.1642 103.872C49.7052 102.413 47.7272 101.592 45.6638 101.589ZM270.119 314.428H249.888C249.763 314.428 249.641 314.395 249.533 314.333C249.425 314.27 249.335 314.181 249.273 314.073C249.21 313.965 249.177 313.842 249.177 313.717C249.178 313.592 249.21 313.47 249.273 313.362L259.388 295.84C259.451 295.732 259.54 295.642 259.648 295.58C259.756 295.518 259.879 295.485 260.003 295.484C260.128 295.485 260.251 295.518 260.359 295.58C260.467 295.642 260.556 295.732 260.619 295.84L270.738 313.362C270.8 313.47 270.833 313.593 270.833 313.717C270.833 313.842 270.8 313.965 270.738 314.073C270.675 314.181 270.585 314.271 270.476 314.334C270.367 314.396 270.244 314.429 270.119 314.428ZM251.118 313.006H268.896L260.007 297.618L251.118 313.006Z" fill="#FCC63A"/>
<path d="M145.177 361.063C139.605 361.063 134.155 359.68 131.026 357.063C130.941 356.992 130.875 356.903 130.831 356.801C130.787 356.7 130.767 356.59 130.773 356.48C134.037 295.63 131.179 257.636 129.092 229.874C128.171 217.604 127.442 207.915 127.442 199.108C127.442 198.919 127.517 198.738 127.65 198.605C127.784 198.471 127.964 198.396 128.153 198.396C128.342 198.396 128.522 198.471 128.656 198.605C128.789 198.738 128.864 198.919 128.864 199.108C128.864 207.861 129.575 217.529 130.51 229.767C132.597 257.5 135.453 295.467 132.213 356.189C137.223 360.053 148.338 360.786 155.627 357.724C158.318 342.055 171.652 216.313 171.787 215.033C171.807 214.844 171.901 214.672 172.049 214.552C172.197 214.433 172.386 214.378 172.574 214.398C172.763 214.419 172.936 214.513 173.055 214.661C173.174 214.808 173.229 214.997 173.209 215.186C173.074 216.473 159.506 344.391 156.967 358.354C156.947 358.468 156.899 358.575 156.827 358.666C156.756 358.757 156.664 358.829 156.558 358.877C153.223 360.352 149.166 361.063 145.177 361.063Z" fill="#000091"/>
<path d="M203.078 47.6907L205.016 47.2066L207.989 59.1113L206.05 59.5954L203.078 47.6907Z" fill="#000091"/>
<path d="M209.346 57.8149L211.95 46.9988L213.893 47.4667L211.288 58.2828L209.346 57.8149Z" fill="#000091"/>
<path d="M207.229 47.0203L209.226 46.9662L209.547 58.8196L207.55 58.8737L207.229 47.0203Z" fill="#000091"/>
<path d="M173.362 100.981L177.736 89.5165L179.603 90.2287L175.229 101.693L173.362 100.981Z" fill="#000091"/>
<path d="M177.084 101.413L185.409 94.0321L186.734 95.5273L178.41 102.908L177.084 101.413Z" fill="#000091"/>
<path d="M175.003 101.245L181.522 91.3397L183.191 92.4383L176.673 102.343L175.003 101.245Z" fill="#000091"/>
<path d="M208.601 137.522C208.221 137.533 207.846 137.442 207.513 137.259C207.358 137.16 207.247 137.006 207.204 136.828C207.16 136.65 207.187 136.462 207.279 136.303C207.37 136.144 207.52 136.027 207.696 135.976C207.872 135.925 208.061 135.943 208.224 136.029C208.419 136.142 208.935 136.149 209.82 135.837C212.754 134.77 217.998 130.677 219.499 126.635C219.527 126.542 219.574 126.457 219.637 126.383C219.7 126.31 219.778 126.25 219.865 126.207C219.952 126.164 220.046 126.14 220.143 126.135C220.24 126.131 220.336 126.146 220.427 126.18C220.518 126.213 220.6 126.266 220.67 126.333C220.74 126.4 220.795 126.48 220.833 126.57C220.871 126.659 220.89 126.755 220.889 126.852C220.888 126.948 220.867 127.044 220.828 127.133C219.147 131.62 213.561 136.004 210.3 137.173C209.758 137.385 209.183 137.503 208.601 137.522Z" fill="#000091"/>
<path d="M242.365 242.937C241.461 242.773 220.107 238.642 210.656 211.534C205.284 196.121 203.588 141.6 203.022 123.687C201.924 88.3236 201.803 55.3494 201.803 55.0223L216.025 54.9761C216.142 91.1325 217.803 188.896 224.075 206.852C230.685 225.813 244.377 228.836 244.957 228.957L244.871 228.939L242.365 242.937Z" fill="#18753C"/>
<path d="M149.81 54.8729L149.657 82.2507C149.657 82.2507 158.667 93.8987 166.325 92.2951C170.755 91.3636 168.995 82.0907 168.995 82.0907L167.762 69.4223L149.81 54.8729Z" fill="white"/>
<path d="M164.832 93.1556C157.287 93.1556 149.447 83.1431 149.092 82.6844C148.996 82.5589 148.945 82.405 148.946 82.2471L148.981 75.6409C148.981 75.4523 149.056 75.2714 149.19 75.1381C149.323 75.0047 149.504 74.9298 149.692 74.9298C149.881 74.9298 150.062 75.0047 150.195 75.1381C150.329 75.2714 150.404 75.4523 150.404 75.6409L150.368 81.9911C151.559 83.4631 159.563 92.9778 166.18 91.5911C169.248 90.9476 168.747 84.6044 168.295 82.2151V82.1511L167.065 69.4827C167.047 69.2941 167.104 69.1059 167.224 68.9595C167.345 68.8132 167.518 68.7206 167.707 68.7022C167.895 68.6838 168.083 68.7411 168.23 68.8615C168.376 68.9818 168.469 69.1554 168.487 69.344L169.717 81.984C169.852 82.7164 171.449 91.9396 166.489 92.9813C165.944 93.0972 165.389 93.1556 164.832 93.1556Z" fill="#000091"/>
<path d="M159.026 70.7343C164.772 73.2836 171.239 74.2045 176.661 73.0134C188.644 70.3823 185.852 54.3432 184.953 44.1921C183.481 27.5627 171.292 23.9254 159.584 27.1254C147.876 30.3254 141.156 43.0543 144.562 55.5947C145.508 59.065 147.477 62.1441 150.084 64.7325" fill="white"/>
<path d="M171.684 74.2401C167.218 74.1946 162.811 73.2262 158.738 71.3957C158.652 71.3578 158.575 71.3036 158.511 71.2359C158.446 71.1683 158.396 71.0886 158.362 71.0014C158.328 70.9143 158.312 70.8213 158.314 70.7279C158.317 70.6345 158.337 70.5424 158.375 70.457C158.413 70.3715 158.467 70.2944 158.535 70.2299C158.603 70.1654 158.682 70.1149 158.769 70.0813C158.857 70.0476 158.949 70.0314 159.043 70.0336C159.136 70.0359 159.228 70.0565 159.314 70.0943C165.07 72.6508 171.339 73.465 176.512 72.3308C186.823 70.0694 185.54 57.3299 184.516 47.0863C184.42 46.105 184.324 45.1592 184.245 44.2419C183.644 37.4543 181.223 32.537 177.049 29.6321C172.69 26.5957 166.553 25.9414 159.769 27.7868C148.455 30.8659 141.941 43.2534 145.248 55.3992C146.123 58.5992 147.915 61.5681 150.581 64.217C150.715 64.35 150.791 64.5307 150.792 64.7194C150.792 64.9081 150.718 65.0893 150.585 65.2232C150.452 65.3571 150.271 65.4327 150.083 65.4334C149.894 65.4341 149.713 65.3597 149.579 65.2268C146.734 62.4001 144.811 59.2179 143.872 55.7725C140.363 42.8694 147.324 29.6997 159.392 26.4143C166.588 24.4552 173.145 25.1841 177.856 28.4659C182.393 31.6232 185.017 36.889 185.657 44.1103C185.735 45.0063 185.831 45.9485 185.927 46.9228C186.951 57.1521 188.352 71.1574 176.811 73.689C175.127 74.0577 173.408 74.2425 171.684 74.2401Z" fill="#000091"/>
<path d="M177.867 59.8294H177.511C177.418 59.8207 177.327 59.7938 177.244 59.7501C177.161 59.7063 177.087 59.6467 177.028 59.5746C176.968 59.5024 176.922 59.4192 176.895 59.3296C176.867 59.24 176.857 59.1459 176.866 59.0525C176.874 58.9591 176.901 58.8683 176.945 58.7853C176.989 58.7024 177.048 58.6288 177.121 58.5689C177.193 58.509 177.276 58.4638 177.366 58.4361C177.455 58.4083 177.549 58.3985 177.643 58.4071C178.034 58.4391 178.962 58.3716 179.15 57.9556C179.179 57.6214 178.236 56.4765 177.205 55.6231C177.066 55.5012 176.979 55.3296 176.964 55.1448C176.949 54.9601 177.007 54.7768 177.125 54.634C177.244 54.4913 177.413 54.4003 177.597 54.3805C177.781 54.3607 177.966 54.4136 178.112 54.528C179.022 55.2782 181.07 57.1769 180.444 58.5458C179.936 59.6871 178.532 59.8294 177.867 59.8294ZM171.833 55.2427C171.664 55.2453 171.5 55.1877 171.369 55.0802C171.239 54.9727 171.151 54.8223 171.122 54.656L170.827 52.9814C170.795 52.796 170.838 52.6056 170.946 52.4519C171.055 52.2982 171.22 52.1937 171.405 52.1613C171.59 52.1288 171.781 52.1711 171.935 52.2788C172.089 52.3865 172.194 52.5509 172.228 52.736L172.523 54.4107C172.555 54.5964 172.512 54.7873 172.403 54.9413C172.294 55.0953 172.129 55.1999 171.943 55.232C171.907 55.2384 171.87 55.242 171.833 55.2427ZM181.753 53.504C181.584 53.5066 181.42 53.449 181.289 53.3415C181.159 53.234 181.071 53.0837 181.042 52.9174L180.75 51.2427C180.734 51.1505 180.735 51.056 180.756 50.9645C180.776 50.8731 180.814 50.7865 180.867 50.7097C180.921 50.6329 180.989 50.5675 181.068 50.5172C181.147 50.4669 181.235 50.4327 181.327 50.4165C181.42 50.4004 181.514 50.4026 181.606 50.4231C181.697 50.4436 181.783 50.4819 181.86 50.5358C181.936 50.5898 182.002 50.6584 182.052 50.7376C182.102 50.8168 182.135 50.905 182.151 50.9974L182.443 52.6685C182.459 52.7605 182.457 52.8548 182.437 52.946C182.417 53.0373 182.379 53.1237 182.326 53.2003C182.272 53.2769 182.204 53.3422 182.125 53.3925C182.047 53.4428 181.959 53.477 181.867 53.4934L181.753 53.504ZM170.059 52.448C169.961 52.4488 169.864 52.4294 169.774 52.3911C169.603 52.3135 169.469 52.1712 169.403 51.9952C169.336 51.8193 169.342 51.6241 169.419 51.4525C169.652 50.9208 170.065 50.4875 170.584 50.2278C171.104 49.9681 171.698 49.8982 172.263 50.0302C172.444 50.073 172.602 50.185 172.701 50.3423C172.8 50.4997 172.834 50.6898 172.795 50.8718C172.756 51.0538 172.647 51.2132 172.492 51.3158C172.337 51.4184 172.147 51.4559 171.964 51.4205C171.72 51.3599 171.462 51.3878 171.236 51.499C171.011 51.6103 170.832 51.7978 170.731 52.0285C170.673 52.1572 170.578 52.2658 170.459 52.3405C170.339 52.4152 170.2 52.4526 170.059 52.448ZM179.346 46.4214C179.159 46.4234 178.979 46.3519 178.844 46.2222C178.778 46.1562 178.726 46.0778 178.69 45.9914C178.654 45.9051 178.636 45.8126 178.636 45.7191C178.636 45.6257 178.654 45.5331 178.69 45.4468C178.726 45.3605 178.778 45.2821 178.844 45.216C179.263 44.813 179.809 44.5689 180.388 44.5261C180.967 44.4832 181.543 44.6443 182.016 44.9814C182.163 45.0915 182.262 45.2544 182.292 45.4359C182.322 45.6174 182.28 45.8034 182.176 45.9548C182.071 46.1062 181.912 46.2112 181.732 46.2478C181.552 46.2844 181.364 46.2498 181.209 46.1511C181.005 46.0041 180.756 45.9325 180.505 45.9487C180.254 45.9649 180.016 46.0679 179.833 46.24C179.699 46.3598 179.525 46.4245 179.346 46.4214ZM174.578 65.984C174.442 65.984 174.309 65.9451 174.194 65.8718C174.08 65.7985 173.989 65.6939 173.932 65.5704C173.875 65.4469 173.855 65.3098 173.873 65.1751C173.892 65.0405 173.949 64.914 174.037 64.8107C174.119 64.7182 176.018 62.5316 178.233 62.9582C178.418 62.9941 178.582 63.102 178.687 63.2584C178.793 63.4148 178.832 63.6067 178.796 63.792C178.761 63.9773 178.653 64.1408 178.496 64.2465C178.34 64.3522 178.148 64.3914 177.963 64.3556C176.807 64.1316 175.516 65.2765 175.118 65.7387C175.051 65.8161 174.968 65.8781 174.875 65.9204C174.782 65.9628 174.68 65.9845 174.578 65.984Z" fill="#000091"/>
<path d="M154.236 49.9307C150.471 51.7085 153.362 56.2241 152.743 57.6854C152.452 58.3681 149.852 55.3103 148.676 54.5387C144.562 55.6054 149.689 63.9218 149.689 71.4809C147.122 71.6694 125.941 51.7618 134.4 42.7521C127.36 37.4969 132.028 26.4925 139.186 28.2525C134.823 19.2427 145.614 12.7681 151.712 19.2427C150.119 9.76717 163.609 7.63028 166.144 14.6703C165.156 8.05339 177.394 3.48094 180.501 14.3147C183.104 23.3921 183.175 29.7281 183.95 38.1974C181.344 35.9929 177.863 40.4765 174.027 41.4827C163.36 44.2774 160.256 39.0472 156.64 43.4525C155.236 45.1556 158.14 48.0996 154.236 49.9307Z" fill="#000091"/>
<path d="M149.689 72.1778C147.108 72.1778 137.269 62.624 133.536 54.816C131.175 49.8703 131.129 45.7494 133.39 42.8338C129.742 39.6836 129.586 35.1218 131.125 31.8614C132.548 28.864 135.165 27.1929 138.048 27.3494C136.381 22.7272 138.51 19.1432 141.017 17.4187C142.469 16.4111 144.199 15.8809 145.966 15.9019C147.733 15.923 149.449 16.4941 150.877 17.536C150.948 13.2694 154.077 10.8765 157.028 10.1049C158.925 9.59295 160.935 9.68618 162.777 10.3716C163.865 10.7835 164.836 11.4562 165.604 12.3307C166.336 9.7636 168.804 7.85071 171.413 7.28538C174.809 6.54938 179.41 7.89338 181.191 14.1085C183.325 21.5538 183.769 27.1183 184.285 33.5645C184.398 35.0258 184.519 36.5405 184.665 38.1227C184.692 38.2712 184.67 38.4243 184.604 38.5599C184.538 38.6955 184.431 38.8066 184.297 38.8771C184.164 38.9475 184.011 38.9737 183.862 38.9519C183.713 38.9301 183.574 38.8613 183.467 38.7556C182.297 37.7636 180.829 38.592 178.528 40.0285C177.152 40.8889 175.73 41.7778 174.18 42.1832C168.846 43.584 165.316 43.0223 162.745 42.6134C160.093 42.1867 158.759 41.9734 157.166 43.9183C156.839 44.3165 156.885 44.8747 156.989 45.7565C157.159 47.2249 157.394 49.2374 154.525 50.5849C152.622 51.4774 152.807 53.1414 153.273 55.3885C153.486 56.416 153.668 57.3014 153.383 57.9734C153.329 58.1029 153.244 58.2172 153.136 58.3064C153.027 58.3956 152.899 58.457 152.761 58.4854C152.078 58.6276 151.396 58.0054 149.917 56.5867C149.43 56.1245 148.932 55.6445 148.551 55.3423C148.337 55.4346 148.158 55.5928 148.039 55.7938C147.399 56.8783 148.085 59.4987 148.814 62.272C149.554 65.1165 150.397 68.3165 150.397 71.4916C150.397 71.6713 150.33 71.8446 150.208 71.9765C150.085 72.1084 149.918 72.1892 149.739 72.2027L149.689 72.1778ZM137.653 28.7752C135.093 28.7752 133.255 30.656 132.395 32.4836C131.022 35.3885 131.239 39.5129 134.813 42.1832C134.893 42.2426 134.96 42.3183 135.009 42.4053C135.058 42.4923 135.088 42.5886 135.097 42.688C135.106 42.788 135.094 42.8888 135.062 42.9838C135.029 43.0788 134.977 43.1658 134.909 43.2392C132.821 45.4649 132.562 48.6436 134.141 52.6898C137.202 60.5476 146.098 68.8178 148.949 70.4676C148.797 67.7832 148.082 65.0561 147.442 62.6134C146.567 59.2818 145.877 56.6507 146.816 55.0543C147 54.7488 147.243 54.4838 147.533 54.2754C147.822 54.067 148.15 53.9195 148.498 53.8418C148.594 53.8172 148.695 53.813 148.793 53.8295C148.891 53.8461 148.984 53.883 149.067 53.9378C149.719 54.4239 150.332 54.9601 150.901 55.5414C151.257 55.8721 151.701 56.3023 152.075 56.6258C152.032 56.32 151.957 55.9716 151.893 55.6587C151.485 53.6925 150.869 50.7201 153.934 49.2801C155.876 48.3698 155.751 47.2818 155.588 45.9023C155.477 44.9565 155.353 43.8827 156.082 42.9974C158.19 40.4232 160.306 40.7609 162.983 41.1912C165.43 41.5787 168.779 42.1156 173.835 40.7894C175.172 40.4338 176.505 39.6089 177.789 38.8054C179.566 37.6854 181.422 36.5369 183.122 36.9707C183.026 35.84 182.941 34.7485 182.855 33.6818C182.347 27.3138 181.91 21.8169 179.815 14.5067C178.297 9.24449 174.628 8.05338 171.698 8.68982C168.964 9.28004 166.4 11.6409 166.834 14.5778C166.865 14.754 166.828 14.9353 166.732 15.0857C166.635 15.2362 166.485 15.3446 166.312 15.3895C166.139 15.4343 165.955 15.4123 165.798 15.3277C165.64 15.2432 165.52 15.1024 165.461 14.9334C164.281 11.6516 160.413 10.7236 157.373 11.52C154.478 12.2774 151.652 14.6809 152.395 19.1503C152.42 19.3009 152.395 19.4555 152.326 19.5912C152.256 19.7269 152.144 19.8366 152.007 19.904C151.871 19.9714 151.716 19.9933 151.567 19.9664C151.417 19.9395 151.28 19.8653 151.175 19.7547C150.018 18.4551 148.426 17.6232 146.699 17.4157C144.971 17.2081 143.228 17.6391 141.796 18.6276C138.19 21.1165 138.468 25.2125 139.805 27.968C139.854 28.086 139.871 28.2152 139.853 28.3418C139.835 28.4684 139.783 28.5879 139.703 28.6877C139.623 28.7874 139.518 28.8637 139.398 28.9085C139.278 28.9533 139.148 28.965 139.022 28.9423C138.574 28.8316 138.115 28.7755 137.653 28.7752Z" fill="#000091"/>
<path d="M150.699 64.8392C146.578 70.0623 140.16 66.7307 138.489 60.5725C137.518 57.0169 140.099 52.9245 143.822 53.0134C145.543 53.1047 147.213 53.6241 148.683 54.5245" fill="white"/>
<path d="M145.913 68.1387C145.484 68.1384 145.056 68.0943 144.636 68.0071C141.507 67.3707 138.826 64.5298 137.802 60.7751C137.536 59.7256 137.513 58.6291 137.735 57.5693C137.957 56.5094 138.418 55.5142 139.082 54.6596C139.635 53.9237 140.353 53.3281 141.178 52.9211C142.003 52.514 142.913 52.3069 143.833 52.3165C145.676 52.4123 147.466 52.9658 149.042 53.9271C149.122 53.975 149.192 54.0382 149.248 54.1132C149.304 54.1881 149.344 54.2733 149.367 54.364C149.39 54.4546 149.395 54.5489 149.382 54.6414C149.368 54.7339 149.337 54.8228 149.289 54.9031C149.241 54.9835 149.178 55.0536 149.103 55.1094C149.028 55.1653 148.942 55.2059 148.852 55.2288C148.669 55.2752 148.475 55.2469 148.313 55.1503C146.949 54.3082 145.397 53.8194 143.797 53.728C143.098 53.7191 142.407 53.8774 141.782 54.1897C141.157 54.5021 140.615 54.9594 140.202 55.5236C139.671 56.2025 139.301 56.9942 139.123 57.838C138.945 58.6818 138.963 59.5552 139.175 60.3911C140.042 63.5911 142.354 66.08 144.921 66.6027C146.848 66.9974 148.7 66.2116 150.14 64.3876C150.198 64.3143 150.27 64.2531 150.351 64.2075C150.433 64.162 150.523 64.1329 150.615 64.122C150.708 64.1111 150.802 64.1186 150.892 64.144C150.982 64.1695 151.066 64.2124 151.139 64.2703C151.213 64.3282 151.274 64.3999 151.319 64.4815C151.365 64.563 151.394 64.6527 151.405 64.7455C151.416 64.8383 151.408 64.9323 151.383 65.0222C151.357 65.1121 151.315 65.1961 151.257 65.2694C149.778 67.1538 147.911 68.1387 145.913 68.1387Z" fill="#000091"/>
<path d="M147.129 63.936C147.019 63.9359 146.911 63.9104 146.812 63.8614C144.917 62.9156 144.597 61.5929 144.932 60.6614C145.241 59.8045 146.091 59.264 147.122 59.1894C146.991 58.7645 146.736 58.3886 146.389 58.1104C146.042 57.8321 145.62 57.6643 145.177 57.6285C143.733 57.4791 142.236 58.3965 142.076 58.816C142.043 58.9033 141.993 58.9832 141.929 59.0511C141.864 59.119 141.787 59.1736 141.702 59.2117C141.617 59.2498 141.525 59.2708 141.431 59.2734C141.338 59.2759 141.245 59.2601 141.157 59.2267C141.07 59.1933 140.99 59.1431 140.922 59.0788C140.854 59.0145 140.8 58.9375 140.762 58.8522C140.723 58.7668 140.703 58.6748 140.7 58.5814C140.697 58.4879 140.713 58.3949 140.747 58.3076C141.223 57.0631 143.488 56.0249 145.323 56.2134C146.389 56.3236 148.284 56.9458 148.757 59.8578C148.776 59.9732 148.766 60.0914 148.729 60.2021C148.691 60.3127 148.626 60.4124 148.541 60.4922C148.456 60.572 148.352 60.6295 148.239 60.6596C148.126 60.6898 148.007 60.6916 147.893 60.6649C147.026 60.4622 146.407 60.7609 146.268 61.1414C146.13 61.5218 146.453 62.0871 147.445 62.5814C147.589 62.6528 147.704 62.7706 147.772 62.9156C147.84 63.0606 147.857 63.2244 147.82 63.3804C147.784 63.5363 147.696 63.6754 147.57 63.7749C147.445 63.8745 147.289 63.9287 147.129 63.9289V63.936Z" fill="#000091"/>
<path d="M23.1325 369.152C20.4196 369.152 18.784 369.07 18.5103 369.056L19.2996 354.844L18.9156 361.956L19.2925 354.844C19.5343 354.844 43.7191 356.018 68.8711 347.9C101.287 337.451 120.178 317.035 124.96 287.225C128.555 264.892 127.125 246.379 125.739 228.469C124.558 213.205 123.442 198.784 125.269 182.667C129.013 149.66 158.994 111.289 168.846 98.6738C169.959 97.2515 171.012 95.904 171.335 95.4418L183.036 103.524C182.478 104.331 181.568 105.497 180.057 107.435C170.812 119.264 142.695 155.26 139.406 184.274C137.732 199.047 138.795 212.811 139.922 227.381C141.372 246.119 142.869 265.493 139.004 289.493C133.333 324.622 110.464 349.561 72.8356 361.575C51.7796 368.299 31.8685 369.152 23.1325 369.152Z" fill="#18753C"/>
<path d="M180.018 115.531C178.724 117.255 175.652 115.271 173.892 113.895C173.227 113.28 172.693 112.871 172.605 112.807C172.683 112.878 173.177 113.337 173.892 113.895C175.538 115.403 177.984 118.162 176.381 119.964C174.777 121.767 169.739 117.12 169.245 116.647C169.721 117.124 174.293 121.799 172.189 123.915C170.766 125.358 166.439 121.7 165.433 120.804C166.372 121.675 169.998 125.287 167.744 127.221C166.407 128.366 163.929 126.215 161.138 124.107C159.758 123.068 158.293 122.944 155.449 122.638C140.725 134.404 133.831 142.98 122.329 151.509C111.588 159.477 100.046 159.872 94.9797 151.847C88.4766 141.536 99.8579 126.649 99.8579 126.649L102.016 123.538C103.438 124.562 106.745 127.541 109.28 128.953C129.355 116.704 158.372 99.6765 168.512 104.651C174.887 107.78 181.991 112.9 180.018 115.531Z" fill="white"/>
<path d="M173.892 113.895C173.18 113.337 172.683 112.878 172.604 112.807C172.693 112.871 173.227 113.28 173.892 113.895Z" fill="white"/>
<path d="M109.472 129.614C109.374 129.613 109.277 129.593 109.188 129.554C105.557 127.972 98.713 121.376 98.4215 121.109C98.3128 121.004 98.2404 120.867 98.2148 120.718C98.1893 120.569 98.2118 120.416 98.2792 120.281C98.3397 120.16 104.441 107.918 116.665 92.9778C123.861 84.1849 137.003 82.0978 144.196 81.6355C144.289 81.6297 144.383 81.6423 144.471 81.6727C144.56 81.703 144.641 81.7505 144.712 81.8124C144.782 81.8743 144.839 81.9494 144.88 82.0335C144.921 82.1175 144.945 82.2088 144.951 82.3022C144.957 82.3956 144.944 82.4892 144.914 82.5777C144.884 82.6662 144.836 82.7479 144.774 82.8181C144.712 82.8882 144.637 82.9455 144.553 82.9866C144.469 83.0278 144.378 83.0519 144.285 83.0578C137.323 83.5058 124.619 85.504 117.764 93.8809C106.98 107.065 101.017 118.094 99.7904 120.452C101.287 121.874 106.823 126.976 109.746 128.252C109.897 128.317 110.021 128.432 110.098 128.577C110.174 128.723 110.197 128.891 110.163 129.052C110.13 129.213 110.042 129.357 109.914 129.46C109.786 129.563 109.626 129.619 109.461 129.618L109.472 129.614Z" fill="#000091"/>
<path d="M106.18 158.389C105.162 158.393 104.147 158.301 103.147 158.116C101.352 157.809 99.6415 157.126 98.1291 156.111C96.6167 155.096 95.3362 153.773 94.3718 152.228C91.5878 147.815 91.5664 141.899 94.3149 135.118C95.6109 131.966 97.2822 128.982 99.2927 126.229C99.3494 126.155 99.4202 126.093 99.501 126.046C99.5818 125.999 99.6711 125.969 99.7637 125.956C99.8563 125.944 99.9505 125.95 100.041 125.974C100.131 125.998 100.216 126.039 100.29 126.096C100.364 126.153 100.427 126.224 100.473 126.304C100.52 126.385 100.551 126.475 100.563 126.567C100.576 126.66 100.57 126.754 100.546 126.844C100.522 126.934 100.48 127.019 100.423 127.093C100.313 127.236 89.4011 141.721 95.5771 151.477C96.4377 152.854 97.5794 154.034 98.9274 154.939C100.275 155.844 101.799 156.454 103.399 156.729C108.832 157.742 115.57 155.637 121.888 150.951C127.758 146.596 132.526 142.133 137.575 137.408C142.368 132.924 147.798 127.84 154.998 122.091C155.145 121.974 155.333 121.92 155.52 121.941L155.776 121.966C158.553 122.261 160.082 122.425 161.575 123.552L162.454 124.22C164.366 125.685 166.532 127.342 167.289 126.709C167.441 126.589 167.563 126.435 167.647 126.26C167.73 126.085 167.772 125.893 167.769 125.7C167.769 124.299 166.055 122.386 165.088 121.469C164.957 121.351 164.843 121.248 164.733 121.156C164.596 121.029 164.513 120.854 164.504 120.668C164.495 120.482 164.559 120.299 164.683 120.16C164.807 120.021 164.981 119.936 165.168 119.924C165.354 119.912 165.537 119.974 165.678 120.096L166.034 120.409C168.278 122.396 171.072 124.068 171.691 123.438C171.811 123.32 171.905 123.178 171.967 123.021C172.028 122.864 172.055 122.696 172.046 122.528C172.046 120.75 169.646 118.041 168.729 117.145C168.593 117.014 168.515 116.834 168.512 116.646C168.508 116.457 168.58 116.275 168.711 116.139C168.842 116.003 169.022 115.925 169.211 115.921C169.399 115.918 169.582 115.99 169.718 116.121C171.197 117.543 174.066 119.755 175.449 119.694C175.527 119.698 175.605 119.684 175.677 119.654C175.749 119.624 175.813 119.578 175.865 119.52C175.995 119.377 176.092 119.208 176.149 119.023C176.206 118.839 176.222 118.645 176.196 118.453C176.064 117.202 174.706 115.652 173.529 114.542C172.786 113.963 172.253 113.476 172.107 113.337C171.972 113.213 171.89 113.042 171.878 112.859C171.866 112.676 171.926 112.496 172.043 112.356C172.161 112.216 172.329 112.126 172.511 112.106C172.693 112.086 172.875 112.138 173.021 112.249C173.523 112.631 174.006 113.038 174.468 113.469C175.79 114.485 177.572 115.602 178.734 115.509C178.874 115.504 179.01 115.466 179.133 115.4C179.257 115.335 179.363 115.242 179.446 115.129C179.543 114.998 179.607 114.846 179.633 114.685C179.659 114.524 179.646 114.359 179.595 114.205C179.076 112.039 174.283 108.299 168.192 105.316C157.682 100.16 125.006 120.174 105.486 132.132L102.286 134.087C102.207 134.138 102.118 134.172 102.025 134.188C101.932 134.204 101.837 134.201 101.745 134.179C101.653 134.158 101.566 134.119 101.49 134.064C101.413 134.008 101.349 133.939 101.299 133.858C101.25 133.778 101.217 133.688 101.203 133.595C101.188 133.502 101.193 133.407 101.215 133.315C101.238 133.224 101.279 133.138 101.335 133.062C101.391 132.986 101.462 132.923 101.543 132.875L104.743 130.919C125.792 118.027 157.604 98.5387 168.818 104.039C172.946 106.062 180.15 110.411 180.978 113.874C181.077 114.233 181.093 114.609 181.024 114.975C180.956 115.341 180.805 115.687 180.583 115.986C180.38 116.259 180.121 116.484 179.823 116.648C179.524 116.811 179.194 116.908 178.855 116.932C178.244 116.954 177.635 116.849 177.067 116.622C177.355 117.138 177.543 117.704 177.622 118.29C177.668 118.677 177.632 119.071 177.515 119.443C177.399 119.816 177.205 120.159 176.946 120.452C176.767 120.653 176.548 120.815 176.303 120.927C176.058 121.04 175.793 121.101 175.524 121.106C174.731 121.141 173.789 120.782 172.861 120.267C173.23 120.96 173.441 121.726 173.479 122.51C173.492 122.866 173.431 123.22 173.301 123.551C173.17 123.882 172.973 124.182 172.722 124.434C171.819 125.344 170.35 124.985 168.893 124.213C169.091 124.683 169.198 125.186 169.209 125.696C169.21 126.094 169.123 126.487 168.954 126.848C168.785 127.208 168.538 127.526 168.231 127.78C166.603 129.181 164.288 127.406 161.607 125.358C161.319 125.138 161.031 124.914 160.736 124.693C159.563 123.808 158.247 123.666 155.677 123.392C148.622 129.013 143.289 134.016 138.557 138.436C133.479 143.189 128.683 147.68 122.749 152.082C117.227 156.178 111.35 158.389 106.18 158.389Z" fill="#000091"/>
<path d="M263.129 231.292L277.351 234.169C277.91 234.282 278.401 234.613 278.716 235.088C279.031 235.563 279.144 236.144 279.031 236.702C278.918 237.261 278.588 237.752 278.113 238.067C277.637 238.382 277.057 238.495 276.498 238.382L262.276 235.506L263.129 231.292ZM260.416 244.711L274.638 247.588C274.915 247.643 275.178 247.753 275.412 247.91C275.646 248.068 275.846 248.27 276.002 248.505C276.158 248.739 276.267 249.003 276.321 249.28C276.375 249.556 276.374 249.841 276.318 250.117C276.263 250.394 276.153 250.657 275.996 250.891C275.838 251.125 275.636 251.325 275.401 251.481C275.167 251.637 274.903 251.745 274.626 251.8C274.35 251.854 274.065 251.853 273.789 251.797L259.566 248.921L260.416 244.711Z" fill="#FCC63A"/>
<path d="M249.024 225.023L266.603 228.574L261.72 252.751L244.141 249.2C242.391 248.846 240.853 247.812 239.866 246.325C238.878 244.838 238.522 243.019 238.876 241.269L241.093 230.291C241.268 229.424 241.612 228.601 242.105 227.867C242.598 227.133 243.231 226.503 243.967 226.014C244.704 225.525 245.529 225.185 246.397 225.015C247.265 224.845 248.157 224.848 249.024 225.023Z" fill="#CE0500"/>
<path d="M217.045 64.5227C211.602 62.2258 200.48 62.5991 200.292 65.8845C200.167 68.0178 203.772 68.4978 206.009 68.5867C207.008 68.5405 207.73 68.5867 207.73 68.5867C207.73 68.5867 207.019 68.6258 206.009 68.5867C203.772 68.6791 200.156 69.2089 200.199 71.6089C200.242 74.0089 206.855 73.7245 207.748 73.6818C206.88 73.76 200.636 74.4142 200.857 77.3334C201.017 79.3031 206.372 79.3422 207.908 79.3174C206.457 79.3991 201.66 79.8827 202.123 82.7307C202.404 84.4658 204.811 84.6116 206.603 84.6116C208.331 84.6116 211.424 87.4098 214.485 87.1645C216.889 102.756 217.287 116.267 220.142 127.132L217.564 130.994C217.564 130.994 217.362 141.305 217.92 141.746C224.299 146.482 230.393 147.723 236.292 144.668C255.449 134.756 228.679 69.4436 217.045 64.5227Z" fill="white"/>
<path d="M207.73 68.5832C207.73 68.5832 207.019 68.6223 206.009 68.5832C207.008 68.5405 207.73 68.5832 207.73 68.5832Z" fill="white"/>
<path d="M261.489 225.042L267.086 226.173L261.233 255.148L255.636 254.018L261.489 225.042Z" fill="#CE0500"/>
<path d="M229.707 147.054C225.831 147.054 221.796 145.479 217.508 142.315C217.362 142.201 217.267 142.034 217.242 141.851C217.217 141.668 217.264 141.482 217.374 141.334C217.483 141.185 217.647 141.084 217.829 141.054C218.011 141.023 218.198 141.065 218.35 141.17C224.775 145.909 230.542 146.859 235.979 144.036C240.501 141.693 242.613 135.89 242.258 126.791C241.86 116.53 238.101 102.283 232.203 88.6792C226.816 76.2347 220.612 66.8018 216.768 65.177C212.352 63.3138 203.762 63.321 201.447 65.177C200.974 65.5574 200.964 65.8667 201.006 66.0943C201.01 66.1226 201.01 66.1513 201.006 66.1796C201.028 66.2635 201.059 66.3446 201.099 66.4214C201.101 66.432 201.101 66.4428 201.099 66.4534C201.55 67.2605 203.556 67.7405 205.675 67.8756C205.78 67.8702 205.886 67.8702 205.991 67.8756C206.379 67.8507 207.289 67.8507 207.744 67.8756C207.933 67.8756 208.114 67.9505 208.247 68.0839C208.38 68.2173 208.455 68.3981 208.455 68.5867C208.455 68.7753 208.38 68.9562 208.247 69.0896C208.114 69.2229 207.933 69.2978 207.744 69.2978C207.659 69.2978 206.948 69.337 205.966 69.2978H205.867C205.038 69.2978 201.924 69.6321 201.138 70.8445C201.098 70.9086 201.063 70.9751 201.031 71.0436C200.916 71.2756 200.894 71.5429 200.971 71.7903C201.178 72.0901 201.484 72.3078 201.835 72.4054C202.562 72.6642 203.32 72.8268 204.089 72.889C205.288 73.0051 206.494 73.036 207.698 72.9814H207.765C207.954 72.9814 208.135 73.0563 208.268 73.1897C208.402 73.323 208.477 73.5039 208.477 73.6925C208.477 73.8811 208.402 74.062 208.268 74.1953C208.135 74.3287 207.954 74.4036 207.765 74.4036C206.491 74.4621 205.213 74.43 203.943 74.3076C203.046 74.2282 202.163 74.0346 201.316 73.7316C200.965 73.6285 200.638 73.4552 200.356 73.2224C200.073 72.9896 199.841 72.702 199.673 72.377C199.553 72.0813 199.494 71.7643 199.5 71.4453C199.507 71.1263 199.577 70.8118 199.709 70.521C199.772 70.3561 199.856 70.1997 199.957 70.0552C200.441 69.3951 201.115 68.8988 201.888 68.633C201.017 68.313 200.288 67.8507 199.911 67.1858C199.619 66.6805 199.524 66.0845 199.646 65.5135C199.769 64.9425 200.099 64.4373 200.573 64.0961C203.517 61.7245 212.807 61.9627 217.337 63.8863C226.357 67.7014 242.816 104.064 243.698 126.752C244.075 136.452 241.703 142.699 236.651 145.319C234.511 146.452 232.128 147.047 229.707 147.054Z" fill="#000091"/>
<path d="M207.289 80.0285C206.72 80.0285 206.08 80.0285 205.572 79.9716C202.052 79.7476 200.274 78.9049 200.146 77.3938C199.89 74.2329 204.814 73.2622 207.776 72.9671C207.965 72.9487 208.153 73.006 208.299 73.1264C208.446 73.2467 208.538 73.4203 208.557 73.6089C208.575 73.7975 208.518 73.9857 208.397 74.132C208.277 74.2784 208.103 74.371 207.915 74.3893C204.903 74.6916 201.429 75.6302 201.565 77.2836C201.597 77.6605 202.5 78.3502 205.675 78.56C206.496 78.6311 207.712 78.6133 208.199 78.6027H208.253C208.441 78.6027 208.622 78.6776 208.755 78.811C208.889 78.9443 208.964 79.1252 208.964 79.3138C208.964 79.5024 208.889 79.6833 208.755 79.8166C208.622 79.95 208.441 80.0249 208.253 80.0249C208 80.0249 207.645 80.0285 207.289 80.0285Z" fill="#000091"/>
<path d="M221.173 131.303C221.024 131.304 220.879 131.257 220.757 131.17C220.636 131.084 220.545 130.961 220.498 130.82C218.009 123.381 217.067 114.795 215.982 104.864C215.395 99.4809 214.787 93.92 213.874 87.9005C212.096 87.8329 210.407 86.976 209.006 86.272C208.05 85.792 207.143 85.3369 206.603 85.3369C205.18 85.3369 201.379 85.3369 201.379 82.368C201.379 81.2587 202.059 80.2809 203.246 79.6872C204.526 78.976 206.802 78.6205 208.316 78.6205C208.505 78.6205 208.686 78.6954 208.819 78.8288C208.952 78.9621 209.027 79.143 209.027 79.3316C209.027 79.5202 208.952 79.7011 208.819 79.8344C208.686 79.9678 208.505 80.0427 208.316 80.0427C207.004 80.0427 204.946 80.3983 203.904 80.9636C203.477 81.1769 202.802 81.6285 202.802 82.3858C202.802 83.4845 203.9 83.9325 206.603 83.9325C207.481 83.9325 208.483 84.4374 209.646 85.0205C211.136 85.7672 212.821 86.6169 214.428 86.4889C214.606 86.4751 214.783 86.5289 214.924 86.6396C215.064 86.7503 215.158 86.9097 215.186 87.0863C216.156 93.376 216.786 99.1467 217.397 104.725C218.464 114.588 219.403 123.108 221.845 130.396C221.875 130.485 221.888 130.579 221.881 130.672C221.875 130.766 221.85 130.857 221.809 130.941C221.767 131.025 221.709 131.1 221.639 131.161C221.568 131.223 221.486 131.27 221.397 131.3C221.323 131.313 221.248 131.314 221.173 131.303Z" fill="#000091"/>
<path d="M205.053 44.4445C204.957 44.4441 204.862 44.4244 204.774 44.3865C204.686 44.3487 204.607 44.2934 204.541 44.2241L198.72 38.1298C198.64 38.0456 198.581 37.9429 198.55 37.8307C198.518 37.7186 198.515 37.6005 198.54 37.4867C198.565 37.3729 198.617 37.267 198.693 37.1783C198.768 37.0896 198.864 37.0207 198.973 36.9778L204.053 34.9512L200.235 29.1129C200.131 28.955 200.095 28.7625 200.134 28.5778C200.173 28.3931 200.283 28.2313 200.441 28.1281C200.599 28.0248 200.791 27.9885 200.976 28.0272C201.161 28.0659 201.323 28.1763 201.426 28.3343L205.721 34.9014C205.779 34.9898 205.816 35.0899 205.83 35.1944C205.844 35.2989 205.835 35.4053 205.803 35.5058C205.771 35.6061 205.717 35.698 205.645 35.7748C205.573 35.8517 205.485 35.9116 205.387 35.9503L200.477 37.9094L205.568 43.2427C205.633 43.3104 205.683 43.3901 205.717 43.4773C205.75 43.5645 205.767 43.6575 205.764 43.751C205.762 43.8445 205.741 43.9365 205.703 44.022C205.665 44.1074 205.611 44.1846 205.543 44.2489C205.411 44.3747 205.235 44.4447 205.053 44.4445ZM212.032 44.4089H212.011C211.917 44.4062 211.825 44.385 211.74 44.3467C211.655 44.3084 211.578 44.2537 211.514 44.1857C211.45 44.1176 211.4 44.0377 211.367 43.9503C211.334 43.8629 211.318 43.7699 211.321 43.6765L211.559 35.2498C211.563 35.1336 211.595 35.0199 211.652 34.9189C211.71 34.8178 211.792 34.7325 211.89 34.6703C211.988 34.6077 212.1 34.5701 212.216 34.5608C212.332 34.5515 212.448 34.5708 212.555 34.6169L217.568 36.8036L219.022 29.9805C219.039 29.8862 219.074 29.7962 219.126 29.7159C219.178 29.6355 219.245 29.5665 219.324 29.5129C219.404 29.4592 219.493 29.4221 219.587 29.4038C219.68 29.3854 219.777 29.3862 219.871 29.4061C219.964 29.4259 220.053 29.4645 220.131 29.5194C220.21 29.5743 220.276 29.6444 220.327 29.7256C220.377 29.8068 220.411 29.8973 220.426 29.9918C220.44 30.0863 220.436 30.1829 220.413 30.2756L218.77 37.9521C218.748 38.0552 218.703 38.1521 218.639 38.2357C218.574 38.3194 218.492 38.3877 218.398 38.4357C218.304 38.4836 218.201 38.5101 218.095 38.5132C217.99 38.5163 217.885 38.4958 217.789 38.4534L212.942 36.3414L212.743 43.7334C212.734 43.9158 212.655 44.0876 212.523 44.2134C212.39 44.3392 212.215 44.4092 212.032 44.4089Z" fill="#CE0500"/>
<path d="M206.471 353.458C203.43 353.421 200.41 352.954 197.5 352.071C197.399 352.042 197.306 351.991 197.228 351.921C197.149 351.852 197.087 351.766 197.045 351.669C194.727 346.258 188.266 301.316 184.622 272.565C175.349 254.009 169.753 239.854 169.689 239.723C169.654 239.636 169.638 239.543 169.639 239.449C169.641 239.355 169.661 239.263 169.698 239.177C169.735 239.091 169.789 239.014 169.857 238.949C169.924 238.884 170.003 238.833 170.09 238.798C170.178 238.764 170.271 238.747 170.364 238.749C170.458 238.75 170.55 238.77 170.636 238.808C170.722 238.845 170.799 238.899 170.864 238.966C170.929 239.033 170.981 239.113 171.015 239.2C171.068 239.342 176.665 253.486 185.948 272.039C185.983 272.111 186.006 272.188 186.016 272.267C189.728 301.536 195.971 344.487 198.233 350.802C207.029 353.291 214.339 351.993 217.909 347.328C216.487 322.009 215.701 305.703 215.143 293.785C214.24 274.585 213.97 268.764 212.38 259.228C209.18 240.028 200.089 199.851 199.996 199.46C199.961 199.278 199.998 199.09 200.099 198.936C200.2 198.781 200.358 198.672 200.538 198.631C200.718 198.59 200.907 198.621 201.065 198.718C201.223 198.814 201.337 198.968 201.383 199.147C201.475 199.548 210.57 239.74 213.781 258.994C215.385 268.615 215.658 274.436 216.562 293.717C217.123 305.671 217.895 322.048 219.342 347.506C219.352 347.669 219.306 347.831 219.21 347.964C216.579 351.577 212.071 353.458 206.471 353.458ZM144.266 376.889H143.008C133.575 376.747 128.43 375.015 127.317 371.595C125.696 366.656 133.699 360.494 134.041 360.235C134.115 360.178 134.2 360.136 134.29 360.112C134.38 360.088 134.474 360.082 134.567 360.095C134.66 360.107 134.749 360.138 134.83 360.185C134.911 360.231 134.981 360.294 135.038 360.368C135.095 360.442 135.136 360.527 135.16 360.617C135.184 360.708 135.19 360.802 135.178 360.894C135.166 360.987 135.135 361.076 135.088 361.157C135.041 361.238 134.979 361.309 134.905 361.365C132.8 362.965 127.584 367.847 128.672 371.15C129.29 373.031 132.281 375.307 143.029 375.467C154.162 375.637 157.251 373.536 157.87 371.74C158.876 368.846 154.272 364.501 152.409 363.072C152.335 363.015 152.273 362.944 152.226 362.863C152.179 362.782 152.149 362.693 152.137 362.6C152.125 362.508 152.132 362.414 152.156 362.323C152.18 362.233 152.222 362.149 152.279 362.075C152.336 362.001 152.407 361.939 152.488 361.892C152.569 361.845 152.658 361.815 152.751 361.803C152.843 361.791 152.937 361.797 153.028 361.822C153.118 361.846 153.202 361.888 153.276 361.945C153.582 362.18 160.764 367.755 159.214 372.206C158.115 375.349 153.223 376.889 144.266 376.889Z" fill="#000091"/>
<path d="M219.701 370.844C214.013 370.844 208.637 370.617 205.781 370.489C200.939 370.24 197.906 368.942 196.761 366.631C194.983 363.076 198.251 358.311 199.815 356.028C200.064 355.673 200.345 355.257 200.423 355.104C200.443 354.915 200.537 354.742 200.684 354.623C200.832 354.504 201.02 354.448 201.209 354.468C201.398 354.487 201.571 354.581 201.69 354.729C201.809 354.876 201.865 355.065 201.845 355.253C201.845 355.609 201.632 355.915 201.003 356.832C199.581 358.891 196.654 363.179 198.052 365.998C198.948 367.815 201.579 368.843 205.874 369.067C224.128 370.005 238.037 369.131 239.701 366.933C239.743 366.886 239.772 366.827 239.784 366.765C239.796 366.702 239.791 366.638 239.769 366.578C238.905 363.989 225.653 357.077 217.504 353.33C217.332 353.251 217.199 353.107 217.133 352.93C217.068 352.753 217.075 352.557 217.154 352.386C217.233 352.214 217.376 352.081 217.553 352.015C217.73 351.949 217.926 351.957 218.098 352.036C220.313 353.056 239.787 362.108 241.117 366.13C241.216 366.409 241.242 366.709 241.192 367.001C241.142 367.293 241.018 367.567 240.832 367.797C238.933 370.254 228.878 370.844 219.701 370.844Z" fill="#000091"/>
<path d="M170.382 241.778H170.279C170.093 241.75 169.926 241.651 169.813 241.5C169.7 241.349 169.652 241.16 169.678 240.974C170.926 232.228 171.357 230.308 172.402 225.664C172.551 225.006 172.711 224.292 172.886 223.499C172.926 223.314 173.038 223.154 173.197 223.052C173.356 222.95 173.549 222.916 173.734 222.956C173.918 222.997 174.079 223.109 174.18 223.268C174.282 223.427 174.316 223.62 174.276 223.804C174.098 224.601 173.938 225.316 173.789 225.973C172.754 230.596 172.327 232.484 171.086 241.173C171.061 241.342 170.976 241.495 170.847 241.606C170.717 241.717 170.553 241.778 170.382 241.778Z" fill="white"/>
<path d="M217.561 131.705C217.426 131.705 217.294 131.667 217.18 131.595C217.101 131.544 217.033 131.479 216.979 131.402C216.925 131.326 216.887 131.239 216.867 131.147C216.847 131.056 216.845 130.961 216.862 130.869C216.878 130.777 216.913 130.689 216.964 130.61L219.516 126.635C219.623 126.487 219.782 126.386 219.961 126.352C220.14 126.318 220.325 126.354 220.478 126.452C220.631 126.551 220.741 126.704 220.784 126.881C220.827 127.058 220.801 127.245 220.711 127.403L218.162 131.378C218.097 131.478 218.008 131.561 217.903 131.618C217.798 131.676 217.68 131.705 217.561 131.705Z" fill="#000091"/>
</svg>
