<svg width="324" height="324" viewBox="0 0 324 324" fill="none" xmlns="http://www.w3.org/2000/svg">
<path d="M114.609 32.889H294.609V212.889H114.609V32.889Z" fill="#FCC63A"/>
<path d="M129.387 265.389C130.347 278.637 130.592 291.927 130.122 305.202H61.5361C61.5361 305.202 53.9671 285.351 53.6311 283.5C53.3911 282.18 54.8071 274.077 55.0681 272.88C45.2161 274.98 28.7371 274.011 22.1731 268.212C27.7471 235.608 35.1811 206.712 47.6731 201.144C56.5381 197.19 74.7991 194.565 74.7991 194.565L98.1331 194.316C98.1331 194.316 112.713 196.416 121.329 199.962C129.945 203.508 141.603 220.572 154.779 254.862C154.779 254.862 146.163 263.985 129.609 265.335L129.387 265.389Z" fill="#18753C"/>
<path d="M279.6 198.489C279.441 198.489 279.288 198.426 279.176 198.313C279.063 198.201 279 198.048 279 197.889V182.889C279 182.73 279.063 182.577 279.176 182.465C279.288 182.352 279.441 182.289 279.6 182.289C279.759 182.289 279.912 182.352 280.024 182.465C280.137 182.577 280.2 182.73 280.2 182.889V197.889C280.2 198.048 280.137 198.201 280.024 198.313C279.912 198.426 279.759 198.489 279.6 198.489ZM279.6 138.489C279.441 138.489 279.288 138.426 279.176 138.313C279.063 138.201 279 138.048 279 137.889V77.8891C279 77.7299 279.063 77.5773 279.176 77.4648C279.288 77.3523 279.441 77.2891 279.6 77.2891C279.759 77.2891 279.912 77.3523 280.024 77.4648C280.137 77.5773 280.2 77.7299 280.2 77.8891V137.889C280.2 138.048 280.137 138.201 280.024 138.313C279.912 138.426 279.759 138.489 279.6 138.489ZM279.6 63.4891C279.441 63.4891 279.288 63.4258 279.176 63.3133C279.063 63.2008 279 63.0482 279 62.8891V47.8891C279 47.7299 279.063 47.5773 279.176 47.4648C279.288 47.3523 279.441 47.2891 279.6 47.2891C279.759 47.2891 279.912 47.3523 280.024 47.4648C280.137 47.5773 280.2 47.7299 280.2 47.8891V62.8891C280.2 63.0482 280.137 63.2008 280.024 63.3133C279.912 63.4258 279.759 63.4891 279.6 63.4891ZM249.6 93.4891C249.441 93.4891 249.288 93.4258 249.176 93.3133C249.063 93.2008 249 93.0482 249 92.8891V47.8891C249 47.7299 249.063 47.5773 249.176 47.4648C249.288 47.3523 249.441 47.2891 249.6 47.2891C249.759 47.2891 249.912 47.3523 250.024 47.4648C250.137 47.5773 250.2 47.7299 250.2 47.8891V92.8891C250.2 93.0482 250.137 93.2008 250.024 93.3133C249.912 93.4258 249.759 93.4891 249.6 93.4891ZM249.6 198.489C249.441 198.489 249.288 198.426 249.176 198.313C249.063 198.201 249 198.048 249 197.889V137.889C249 137.73 249.063 137.577 249.176 137.465C249.288 137.352 249.441 137.289 249.6 137.289C249.759 137.289 249.912 137.352 250.024 137.465C250.137 137.577 250.2 137.73 250.2 137.889V197.889C250.2 198.048 250.137 198.201 250.024 198.313C249.912 198.426 249.759 198.489 249.6 198.489ZM264.6 168.489C264.441 168.489 264.288 168.426 264.176 168.313C264.063 168.201 264 168.048 264 167.889V152.889C264 152.73 264.063 152.577 264.176 152.465C264.288 152.352 264.441 152.289 264.6 152.289C264.759 152.289 264.912 152.352 265.024 152.465C265.137 152.577 265.2 152.73 265.2 152.889V167.889C265.2 168.048 265.137 168.201 265.024 168.313C264.912 168.426 264.759 168.489 264.6 168.489ZM264.6 213.489C264.441 213.489 264.288 213.426 264.176 213.313C264.063 213.201 264 213.048 264 212.889V197.889C264 197.73 264.063 197.577 264.176 197.465C264.288 197.352 264.441 197.289 264.6 197.289C264.759 197.289 264.912 197.352 265.024 197.465C265.137 197.577 265.2 197.73 265.2 197.889V212.889C265.2 213.048 265.137 213.201 265.024 213.313C264.912 213.426 264.759 213.489 264.6 213.489ZM264.6 78.4891C264.441 78.4891 264.288 78.4258 264.176 78.3133C264.063 78.2008 264 78.0482 264 77.8891V32.8891C264 32.7299 264.063 32.5773 264.176 32.4648C264.288 32.3523 264.441 32.2891 264.6 32.2891C264.759 32.2891 264.912 32.3523 265.024 32.4648C265.137 32.5773 265.2 32.7299 265.2 32.8891V77.8891C265.2 78.0482 265.137 78.2008 265.024 78.3133C264.912 78.4258 264.759 78.4891 264.6 78.4891ZM264.6 123.489C264.441 123.489 264.288 123.426 264.176 123.313C264.063 123.201 264 123.048 264 122.889V92.8891C264 92.7299 264.063 92.5773 264.176 92.4648C264.288 92.3523 264.441 92.2891 264.6 92.2891C264.759 92.2891 264.912 92.3523 265.024 92.4648C265.137 92.5773 265.2 92.7299 265.2 92.8891V122.889C265.2 123.048 265.137 123.201 265.024 123.313C264.912 123.426 264.759 123.489 264.6 123.489ZM219.6 153.489C219.441 153.489 219.288 153.426 219.176 153.313C219.063 153.201 219 153.048 219 152.889V137.889C219 137.73 219.063 137.577 219.176 137.465C219.288 137.352 219.441 137.289 219.6 137.289C219.759 137.289 219.912 137.352 220.024 137.465C220.137 137.577 220.2 137.73 220.2 137.889V152.889C220.2 153.048 220.137 153.201 220.024 153.313C219.912 153.426 219.759 153.489 219.6 153.489ZM219.6 123.489C219.441 123.489 219.288 123.426 219.176 123.313C219.063 123.201 219 123.048 219 122.889V62.8891C219 62.7299 219.063 62.5773 219.176 62.4648C219.288 62.3523 219.441 62.2891 219.6 62.2891C219.759 62.2891 219.912 62.3523 220.024 62.4648C220.137 62.5773 220.2 62.7299 220.2 62.8891V122.889C220.2 123.048 220.137 123.201 220.024 123.313C219.912 123.426 219.759 123.489 219.6 123.489ZM219.6 213.489C219.441 213.489 219.288 213.426 219.176 213.313C219.063 213.201 219 213.048 219 212.889V182.889C219 182.73 219.063 182.577 219.176 182.465C219.288 182.352 219.441 182.289 219.6 182.289C219.759 182.289 219.912 182.352 220.024 182.465C220.137 182.577 220.2 182.73 220.2 182.889V212.889C220.2 213.048 220.137 213.201 220.024 213.313C219.912 213.426 219.759 213.489 219.6 213.489ZM234.6 213.489C234.441 213.489 234.288 213.426 234.176 213.313C234.063 213.201 234 213.048 234 212.889V152.889C234 152.73 234.063 152.577 234.176 152.465C234.288 152.352 234.441 152.289 234.6 152.289C234.759 152.289 234.912 152.352 235.024 152.465C235.137 152.577 235.2 152.73 235.2 152.889V212.889C235.2 213.048 235.137 213.201 235.024 213.313C234.912 213.426 234.759 213.489 234.6 213.489ZM234.6 63.4891C234.441 63.4891 234.288 63.4258 234.176 63.3133C234.063 63.2008 234 63.0482 234 62.8891V47.8891C234 47.7299 234.063 47.5773 234.176 47.4648C234.288 47.3523 234.441 47.2891 234.6 47.2891C234.759 47.2891 234.912 47.3523 235.024 47.4648C235.137 47.5773 235.2 47.7299 235.2 47.8891V62.8891C235.2 63.0482 235.137 63.2008 235.024 63.3133C234.912 63.4258 234.759 63.4891 234.6 63.4891ZM189.6 78.4891C189.441 78.4891 189.288 78.4258 189.176 78.3133C189.063 78.2008 189 78.0482 189 77.8891V47.8891C189 47.7299 189.063 47.5773 189.176 47.4648C189.288 47.3523 189.441 47.2891 189.6 47.2891C189.759 47.2891 189.912 47.3523 190.024 47.4648C190.137 47.5773 190.2 47.7299 190.2 47.8891V77.8891C190.2 78.0482 190.137 78.2008 190.024 78.3133C189.912 78.4258 189.759 78.4891 189.6 78.4891ZM189.6 123.489C189.441 123.489 189.288 123.426 189.176 123.313C189.063 123.201 189 123.048 189 122.889V92.8891C189 92.7299 189.063 92.5773 189.176 92.4648C189.288 92.3523 189.441 92.2891 189.6 92.2891C189.759 92.2891 189.912 92.3523 190.024 92.4648C190.137 92.5773 190.2 92.7299 190.2 92.8891V122.889C190.2 123.048 190.137 123.201 190.024 123.313C189.912 123.426 189.759 123.489 189.6 123.489ZM189.6 183.489C189.441 183.489 189.288 183.426 189.176 183.313C189.063 183.201 189 183.048 189 182.889V152.889C189 152.73 189.063 152.577 189.176 152.465C189.288 152.352 189.441 152.289 189.6 152.289C189.759 152.289 189.912 152.352 190.024 152.465C190.137 152.577 190.2 152.73 190.2 152.889V182.889C190.2 183.048 190.137 183.201 190.024 183.313C189.912 183.426 189.759 183.489 189.6 183.489ZM204.6 48.4891C204.441 48.4891 204.288 48.4258 204.176 48.3133C204.063 48.2008 204 48.0482 204 47.8891V32.8891C204 32.7299 204.063 32.5773 204.176 32.4648C204.288 32.3523 204.441 32.2891 204.6 32.2891C204.759 32.2891 204.912 32.3523 205.024 32.4648C205.137 32.5773 205.2 32.7299 205.2 32.8891V47.8891C205.2 48.0482 205.137 48.2008 205.024 48.3133C204.912 48.4258 204.759 48.4891 204.6 48.4891ZM204.6 168.489C204.441 168.489 204.288 168.426 204.176 168.313C204.063 168.201 204 168.048 204 167.889V152.889C204 152.73 204.063 152.577 204.176 152.465C204.288 152.352 204.441 152.289 204.6 152.289C204.759 152.289 204.912 152.352 205.024 152.465C205.137 152.577 205.2 152.73 205.2 152.889V167.889C205.2 168.048 205.137 168.201 205.024 168.313C204.912 168.426 204.759 168.489 204.6 168.489ZM204.6 138.489C204.441 138.489 204.288 138.426 204.176 138.313C204.063 138.201 204 138.048 204 137.889V77.8891C204 77.7299 204.063 77.5773 204.176 77.4648C204.288 77.3523 204.441 77.2891 204.6 77.2891C204.759 77.2891 204.912 77.3523 205.024 77.4648C205.137 77.5773 205.2 77.7299 205.2 77.8891V137.889C205.2 138.048 205.137 138.201 205.024 138.313C204.912 138.426 204.759 138.489 204.6 138.489ZM159.6 78.4891C159.441 78.4891 159.288 78.4258 159.176 78.3133C159.063 78.2008 159 78.0482 159 77.8891V32.8891C159 32.7299 159.063 32.5773 159.176 32.4648C159.288 32.3523 159.441 32.2891 159.6 32.2891C159.759 32.2891 159.912 32.3523 160.024 32.4648C160.137 32.5773 160.2 32.7299 160.2 32.8891V77.8891C160.2 78.0482 160.137 78.2008 160.024 78.3133C159.912 78.4258 159.759 78.4891 159.6 78.4891ZM159.6 183.489C159.441 183.489 159.288 183.426 159.176 183.313C159.063 183.201 159 183.048 159 182.889V152.889C159 152.73 159.063 152.577 159.176 152.465C159.288 152.352 159.441 152.289 159.6 152.289C159.759 152.289 159.912 152.352 160.024 152.465C160.137 152.577 160.2 152.73 160.2 152.889V182.889C160.2 183.048 160.137 183.201 160.024 183.313C159.912 183.426 159.759 183.489 159.6 183.489ZM174.6 198.489C174.441 198.489 174.288 198.426 174.176 198.313C174.063 198.201 174 198.048 174 197.889V152.889C174 152.73 174.063 152.577 174.176 152.465C174.288 152.352 174.441 152.289 174.6 152.289C174.759 152.289 174.912 152.352 175.024 152.465C175.137 152.577 175.2 152.73 175.2 152.889V197.889C175.2 198.048 175.137 198.201 175.024 198.313C174.912 198.426 174.759 198.489 174.6 198.489ZM129.6 78.4891C129.441 78.4891 129.288 78.4258 129.176 78.3133C129.063 78.2008 129 78.0482 129 77.8891V47.8891C129 47.7299 129.063 47.5773 129.176 47.4648C129.288 47.3523 129.441 47.2891 129.6 47.2891C129.759 47.2891 129.912 47.3523 130.024 47.4648C130.137 47.5773 130.2 47.7299 130.2 47.8891V77.8891C130.2 78.0482 130.137 78.2008 130.024 78.3133C129.912 78.4258 129.759 78.4891 129.6 78.4891ZM144.6 63.4891C144.441 63.4891 144.288 63.4258 144.176 63.3133C144.063 63.2008 144 63.0482 144 62.8891V32.8891C144 32.7299 144.063 32.5773 144.176 32.4648C144.288 32.3523 144.441 32.2891 144.6 32.2891C144.759 32.2891 144.912 32.3523 145.024 32.4648C145.137 32.5773 145.2 32.7299 145.2 32.8891V62.8891C145.2 63.0482 145.137 63.2008 145.024 63.3133C144.912 63.4258 144.759 63.4891 144.6 63.4891ZM144.6 138.489C144.441 138.489 144.288 138.426 144.176 138.313C144.063 138.201 144 138.048 144 137.889V107.889C144 107.73 144.063 107.577 144.176 107.465C144.288 107.352 144.441 107.289 144.6 107.289C144.759 107.289 144.912 107.352 145.024 107.465C145.137 107.577 145.2 107.73 145.2 107.889V137.889C145.2 138.048 145.137 138.201 145.024 138.313C144.912 138.426 144.759 138.489 144.6 138.489ZM144.6 198.489C144.441 198.489 144.288 198.426 144.176 198.313C144.063 198.201 144 198.048 144 197.889V167.889C144 167.73 144.063 167.577 144.176 167.465C144.288 167.352 144.441 167.289 144.6 167.289C144.759 167.289 144.912 167.352 145.024 167.465C145.137 167.577 145.2 167.73 145.2 167.889V197.889C145.2 198.048 145.137 198.201 145.024 198.313C144.912 198.426 144.759 198.489 144.6 198.489Z" fill="#000091"/>
<path d="M204.6 198.489H129.6C129.441 198.489 129.288 198.426 129.176 198.313C129.063 198.201 129 198.048 129 197.889C129 197.73 129.063 197.577 129.176 197.465C129.288 197.352 129.441 197.289 129.6 197.289H204.6C204.759 197.289 204.912 197.352 205.024 197.465C205.137 197.577 205.2 197.73 205.2 197.889C205.2 198.048 205.137 198.201 205.024 198.313C204.912 198.426 204.759 198.489 204.6 198.489ZM234.6 168.489H204.6C204.441 168.489 204.288 168.426 204.176 168.313C204.063 168.201 204 168.048 204 167.889C204 167.73 204.063 167.577 204.176 167.465C204.288 167.352 204.441 167.289 204.6 167.289H234.6C234.759 167.289 234.912 167.352 235.024 167.465C235.137 167.577 235.2 167.73 235.2 167.889C235.2 168.048 235.137 168.201 235.024 168.313C234.912 168.426 234.759 168.489 234.6 168.489ZM294.6 168.489H264.6C264.441 168.489 264.288 168.426 264.176 168.313C264.063 168.201 264 168.048 264 167.889C264 167.73 264.063 167.577 264.176 167.465C264.288 167.352 264.441 167.289 264.6 167.289H294.6C294.759 167.289 294.912 167.352 295.024 167.465C295.137 167.577 295.2 167.73 295.2 167.889C295.2 168.048 295.137 168.201 295.024 168.313C294.912 168.426 294.759 168.489 294.6 168.489ZM144.6 168.489H129.6C129.441 168.489 129.288 168.426 129.176 168.313C129.063 168.201 129 168.048 129 167.889C129 167.73 129.063 167.577 129.176 167.465C129.288 167.352 129.441 167.289 129.6 167.289H144.6C144.759 167.289 144.912 167.352 145.024 167.465C145.137 167.577 145.2 167.73 145.2 167.889C145.2 168.048 145.137 168.201 145.024 168.313C144.912 168.426 144.759 168.489 144.6 168.489ZM219.6 183.489H189.6C189.441 183.489 189.288 183.426 189.176 183.313C189.063 183.201 189 183.048 189 182.889C189 182.73 189.063 182.577 189.176 182.465C189.288 182.352 189.441 182.289 189.6 182.289H219.6C219.759 182.289 219.912 182.352 220.024 182.465C220.137 182.577 220.2 182.73 220.2 182.889C220.2 183.048 220.137 183.201 220.024 183.313C219.912 183.426 219.759 183.489 219.6 183.489ZM129.6 183.489H114.6C114.441 183.489 114.288 183.426 114.176 183.313C114.063 183.201 114 183.048 114 182.889C114 182.73 114.063 182.577 114.176 182.465C114.288 182.352 114.441 182.289 114.6 182.289H129.6C129.759 182.289 129.912 182.352 130.024 182.465C130.137 182.577 130.2 182.73 130.2 182.889C130.2 183.048 130.137 183.201 130.024 183.313C129.912 183.426 129.759 183.489 129.6 183.489ZM279.6 183.489H249.6C249.441 183.489 249.288 183.426 249.176 183.313C249.063 183.201 249 183.048 249 182.889C249 182.73 249.063 182.577 249.176 182.465C249.288 182.352 249.441 182.289 249.6 182.289H279.6C279.759 182.289 279.912 182.352 280.024 182.465C280.137 182.577 280.2 182.73 280.2 182.889C280.2 183.048 280.137 183.201 280.024 183.313C279.912 183.426 279.759 183.489 279.6 183.489ZM279.6 138.489H159.6C159.441 138.489 159.288 138.426 159.176 138.313C159.063 138.201 159 138.048 159 137.889C159 137.73 159.063 137.577 159.176 137.465C159.288 137.352 159.441 137.289 159.6 137.289H279.6C279.759 137.289 279.912 137.352 280.024 137.465C280.137 137.577 280.2 137.73 280.2 137.889C280.2 138.048 280.137 138.201 280.024 138.313C279.912 138.426 279.759 138.489 279.6 138.489ZM144.6 138.489H129.6C129.441 138.489 129.288 138.426 129.176 138.313C129.063 138.201 129 138.048 129 137.889C129 137.73 129.063 137.577 129.176 137.465C129.288 137.352 129.441 137.289 129.6 137.289H144.6C144.759 137.289 144.912 137.352 145.024 137.465C145.137 137.577 145.2 137.73 145.2 137.889C145.2 138.048 145.137 138.201 145.024 138.313C144.912 138.426 144.759 138.489 144.6 138.489ZM174.6 153.489H114.6C114.441 153.489 114.288 153.426 114.176 153.313C114.063 153.201 114 153.048 114 152.889C114 152.73 114.063 152.577 114.176 152.465C114.288 152.352 114.441 152.289 114.6 152.289H174.6C174.759 152.289 174.912 152.352 175.024 152.465C175.137 152.577 175.2 152.73 175.2 152.889C175.2 153.048 175.137 153.201 175.024 153.313C174.912 153.426 174.759 153.489 174.6 153.489ZM279.6 153.489H264.6C264.441 153.489 264.288 153.426 264.176 153.313C264.063 153.201 264 153.048 264 152.889C264 152.73 264.063 152.577 264.176 152.465C264.288 152.352 264.441 152.289 264.6 152.289H279.6C279.759 152.289 279.912 152.352 280.024 152.465C280.137 152.577 280.2 152.73 280.2 152.889C280.2 153.048 280.137 153.201 280.024 153.313C279.912 153.426 279.759 153.489 279.6 153.489ZM249.6 108.489H219.6C219.441 108.489 219.288 108.426 219.176 108.313C219.063 108.201 219 108.048 219 107.889C219 107.73 219.063 107.577 219.176 107.465C219.288 107.352 219.441 107.289 219.6 107.289H249.6C249.759 107.289 249.912 107.352 250.024 107.465C250.137 107.577 250.2 107.73 250.2 107.889C250.2 108.048 250.137 108.201 250.024 108.313C249.912 108.426 249.759 108.489 249.6 108.489ZM174.6 108.489H129.6C129.441 108.489 129.288 108.426 129.176 108.313C129.063 108.201 129 108.048 129 107.889C129 107.73 129.063 107.577 129.176 107.465C129.288 107.352 129.441 107.289 129.6 107.289H174.6C174.759 107.289 174.912 107.352 175.024 107.465C175.137 107.577 175.2 107.73 175.2 107.889C175.2 108.048 175.137 108.201 175.024 108.313C174.912 108.426 174.759 108.489 174.6 108.489ZM189.6 123.489H144.6C144.441 123.489 144.288 123.426 144.176 123.313C144.063 123.201 144 123.048 144 122.889C144 122.73 144.063 122.577 144.176 122.465C144.288 122.352 144.441 122.289 144.6 122.289H189.6C189.759 122.289 189.912 122.352 190.024 122.465C190.137 122.577 190.2 122.73 190.2 122.889C190.2 123.048 190.137 123.201 190.024 123.313C189.912 123.426 189.759 123.489 189.6 123.489ZM129.6 123.489H114.6C114.441 123.489 114.288 123.426 114.176 123.313C114.063 123.201 114 123.048 114 122.889C114 122.73 114.063 122.577 114.176 122.465C114.288 122.352 114.441 122.289 114.6 122.289H129.6C129.759 122.289 129.912 122.352 130.024 122.465C130.137 122.577 130.2 122.73 130.2 122.889C130.2 123.048 130.137 123.201 130.024 123.313C129.912 123.426 129.759 123.489 129.6 123.489ZM264.6 123.489H234.6C234.441 123.489 234.288 123.426 234.176 123.313C234.063 123.201 234 123.048 234 122.889C234 122.73 234.063 122.577 234.176 122.465C234.288 122.352 234.441 122.289 234.6 122.289H264.6C264.759 122.289 264.912 122.352 265.024 122.465C265.137 122.577 265.2 122.73 265.2 122.889C265.2 123.048 265.137 123.201 265.024 123.313C264.912 123.426 264.759 123.489 264.6 123.489ZM279.6 78.4891H264.6C264.441 78.4891 264.288 78.4258 264.176 78.3133C264.063 78.2008 264 78.0482 264 77.8891C264 77.7299 264.063 77.5773 264.176 77.4648C264.288 77.3523 264.441 77.2891 264.6 77.2891H279.6C279.759 77.2891 279.912 77.3523 280.024 77.4648C280.137 77.5773 280.2 77.7299 280.2 77.8891C280.2 78.0482 280.137 78.2008 280.024 78.3133C279.912 78.4258 279.759 78.4891 279.6 78.4891ZM249.6 78.4891H219.6C219.441 78.4891 219.288 78.4258 219.176 78.3133C219.063 78.2008 219 78.0482 219 77.8891C219 77.7299 219.063 77.5773 219.176 77.4648C219.288 77.3523 219.441 77.2891 219.6 77.2891H249.6C249.759 77.2891 249.912 77.3523 250.024 77.4648C250.137 77.5773 250.2 77.7299 250.2 77.8891C250.2 78.0482 250.137 78.2008 250.024 78.3133C249.912 78.4258 249.759 78.4891 249.6 78.4891ZM189.6 78.4891H174.6C174.441 78.4891 174.288 78.4258 174.176 78.3133C174.063 78.2008 174 78.0482 174 77.8891C174 77.7299 174.063 77.5773 174.176 77.4648C174.288 77.3523 174.441 77.2891 174.6 77.2891H189.6C189.759 77.2891 189.912 77.3523 190.024 77.4648C190.137 77.5773 190.2 77.7299 190.2 77.8891C190.2 78.0482 190.137 78.2008 190.024 78.3133C189.912 78.4258 189.759 78.4891 189.6 78.4891ZM159.6 78.4891H129.6C129.441 78.4891 129.288 78.4258 129.176 78.3133C129.063 78.2008 129 78.0482 129 77.8891C129 77.7299 129.063 77.5773 129.176 77.4648C129.288 77.3523 129.441 77.2891 129.6 77.2891H159.6C159.759 77.2891 159.912 77.3523 160.024 77.4648C160.137 77.5773 160.2 77.7299 160.2 77.8891C160.2 78.0482 160.137 78.2008 160.024 78.3133C159.912 78.4258 159.759 78.4891 159.6 78.4891ZM189.6 93.4891H114.6C114.441 93.4891 114.288 93.4258 114.176 93.3133C114.063 93.2008 114 93.0482 114 92.8891C114 92.7299 114.063 92.5773 114.176 92.4648C114.288 92.3523 114.441 92.2891 114.6 92.2891H189.6C189.759 92.2891 189.912 92.3523 190.024 92.4648C190.137 92.5773 190.2 92.7299 190.2 92.8891C190.2 93.0482 190.137 93.2008 190.024 93.3133C189.912 93.4258 189.759 93.4891 189.6 93.4891ZM264.6 93.4891H234.6C234.441 93.4891 234.288 93.4258 234.176 93.3133C234.063 93.2008 234 93.0482 234 92.8891C234 92.7299 234.063 92.5773 234.176 92.4648C234.288 92.3523 234.441 92.2891 234.6 92.2891H264.6C264.759 92.2891 264.912 92.3523 265.024 92.4648C265.137 92.5773 265.2 92.7299 265.2 92.8891C265.2 93.0482 265.137 93.2008 265.024 93.3133C264.912 93.4258 264.759 93.4891 264.6 93.4891ZM189.6 48.4891H174.6C174.441 48.4891 174.288 48.4258 174.176 48.3133C174.063 48.2008 174 48.0482 174 47.8891C174 47.7299 174.063 47.5773 174.176 47.4648C174.288 47.3523 174.441 47.2891 174.6 47.2891H189.6C189.759 47.2891 189.912 47.3523 190.024 47.4648C190.137 47.5773 190.2 47.7299 190.2 47.8891C190.2 48.0482 190.137 48.2008 190.024 48.3133C189.912 48.4258 189.759 48.4891 189.6 48.4891ZM249.6 48.4891H204.6C204.441 48.4891 204.288 48.4258 204.176 48.3133C204.063 48.2008 204 48.0482 204 47.8891C204 47.7299 204.063 47.5773 204.176 47.4648C204.288 47.3523 204.441 47.2891 204.6 47.2891H249.6C249.759 47.2891 249.912 47.3523 250.024 47.4648C250.137 47.5773 250.2 47.7299 250.2 47.8891C250.2 48.0482 250.137 48.2008 250.024 48.3133C249.912 48.4258 249.759 48.4891 249.6 48.4891ZM174.6 63.4891H159.6C159.441 63.4891 159.288 63.4258 159.176 63.3133C159.063 63.2008 159 63.0482 159 62.8891C159 62.7299 159.063 62.5773 159.176 62.4648C159.288 62.3523 159.441 62.2891 159.6 62.2891H174.6C174.759 62.2891 174.912 62.3523 175.024 62.4648C175.137 62.5773 175.2 62.7299 175.2 62.8891C175.2 63.0482 175.137 63.2008 175.024 63.3133C174.912 63.4258 174.759 63.4891 174.6 63.4891ZM219.6 63.4891H189.6C189.441 63.4891 189.288 63.4258 189.176 63.3133C189.063 63.2008 189 63.0482 189 62.8891C189 62.7299 189.063 62.5773 189.176 62.4648C189.288 62.3523 189.441 62.2891 189.6 62.2891H219.6C219.759 62.2891 219.912 62.3523 220.024 62.4648C220.137 62.5773 220.2 62.7299 220.2 62.8891C220.2 63.0482 220.137 63.2008 220.024 63.3133C219.912 63.4258 219.759 63.4891 219.6 63.4891ZM294.6 63.4891H279.6C279.441 63.4891 279.288 63.4258 279.176 63.3133C279.063 63.2008 279 63.0482 279 62.8891C279 62.7299 279.063 62.5773 279.176 62.4648C279.288 62.3523 279.441 62.2891 279.6 62.2891H294.6C294.759 62.2891 294.912 62.3523 295.024 62.4648C295.137 62.5773 295.2 62.7299 295.2 62.8891C295.2 63.0482 295.137 63.2008 295.024 63.3133C294.912 63.4258 294.759 63.4891 294.6 63.4891Z" fill="#000091"/>
<path d="M177.342 217.434C181.524 212.883 188.871 208.323 187.185 205.134C186.285 203.451 185.529 203.868 185.529 203.868C185.529 203.868 187.602 200.838 185.799 199.14C184.734 198.138 182.922 198.669 182.898 198.687C183.09 198.405 185.082 195.687 182.562 194.061C180.108 192.483 178.224 195.291 178.062 195.531V195.516C178.317 195.03 183.489 185.316 181.344 183.936C179.919 183.036 174.744 189.3 171.243 193.857C171.222 193.887 167.922 198.357 167.943 198.318C167.943 198.108 168.333 189.036 165.966 188.628C163.599 188.22 158.448 200.514 161.595 209.469C158.154 225.3 149.79 259.086 149.802 260.871C149.802 259.071 158.154 225.291 161.607 209.487C158.46 200.532 163.599 188.235 165.978 188.646C168.357 189.057 167.961 198.126 167.955 198.336C167.937 198.375 167.937 198.36 171.255 193.875C174.747 189.318 179.931 183.039 181.356 183.954C183.501 185.337 178.329 195.054 178.074 195.534V195.549C178.227 195.309 180.111 192.501 182.574 194.079C185.094 195.705 183.102 198.423 182.91 198.705C182.934 198.687 184.746 198.156 185.811 199.158C187.611 200.856 185.541 203.886 185.541 203.886C185.541 203.886 186.303 203.469 187.197 205.152C188.883 208.332 181.536 212.892 177.354 217.452" fill="white"/>
<path d="M129.84 273.441C131.079 278.172 136.599 289.068 143.58 291.63C152.709 294.981 160.923 290.505 164.466 284.325C169.161 276.126 176.367 223.902 176.367 223.902C180.549 219.351 187.896 214.791 186.21 211.602C185.31 209.919 184.554 210.336 184.554 210.336C184.554 210.336 186.624 207.306 184.824 205.611C183.759 204.606 181.947 205.137 181.923 205.158C182.118 204.876 184.11 202.158 181.59 200.532C179.136 198.954 177.252 201.762 177.09 202.002C177.345 201.519 182.517 191.802 180.372 190.425C178.29 189.084 168.444 202.812 166.968 204.804C166.968 204.594 167.358 195.522 164.991 195.114C162.624 194.706 157.5 207 160.632 215.955C158.232 226.932 152.886 247.101 150.057 258.771C146.199 262.938 134.304 265.755 129.489 265.923L129.84 273.441Z" fill="white"/>
<path d="M149.778 293.361C147.591 293.354 145.423 292.961 143.373 292.2C139.23 290.679 135.873 286.524 133.806 283.305C133.762 283.239 133.732 283.165 133.717 283.087C133.703 283.009 133.703 282.929 133.72 282.851C133.736 282.774 133.767 282.7 133.812 282.635C133.857 282.569 133.915 282.514 133.981 282.471C134.048 282.428 134.122 282.398 134.2 282.384C134.278 282.37 134.358 282.372 134.436 282.389C134.513 282.406 134.587 282.438 134.651 282.483C134.716 282.529 134.772 282.587 134.814 282.654C136.794 285.72 139.956 289.668 143.787 291.072C152.532 294.282 160.548 289.959 163.944 284.034C168.531 276.03 175.701 224.334 175.773 223.827C175.789 223.706 175.842 223.592 175.926 223.503C179.85 219.231 187.065 214.503 185.679 211.899C185.244 211.077 184.896 210.906 184.779 210.906C184.659 210.958 184.524 210.969 184.397 210.938C184.27 210.906 184.156 210.834 184.074 210.732C183.991 210.63 183.945 210.504 183.941 210.373C183.937 210.241 183.977 210.113 184.053 210.006C184.071 209.982 185.811 207.378 184.407 206.055C183.642 205.338 182.253 205.692 182.133 205.725C182.014 205.769 181.883 205.775 181.761 205.74C181.638 205.705 181.53 205.633 181.452 205.533C181.373 205.432 181.329 205.31 181.324 205.183C181.32 205.055 181.356 204.93 181.428 204.825L181.446 204.798C182.07 203.898 182.346 202.998 182.217 202.317C182.155 202.05 182.039 201.798 181.874 201.579C181.709 201.36 181.5 201.178 181.26 201.045C181.037 200.884 180.784 200.771 180.516 200.711C180.247 200.652 179.97 200.648 179.7 200.7C178.5 200.961 177.66 202.272 177.624 202.329L177.6 202.362C177.512 202.483 177.383 202.566 177.237 202.597C177.091 202.627 176.939 202.602 176.811 202.527C176.742 202.487 176.681 202.433 176.633 202.369C176.586 202.304 176.551 202.231 176.532 202.154C176.512 202.076 176.509 201.995 176.521 201.916C176.534 201.837 176.562 201.761 176.604 201.693C179.817 195.615 180.891 191.454 180.078 190.929C180.048 190.929 178.989 190.713 174.297 196.329C171.537 199.629 169.113 202.974 167.487 205.167C167.41 205.275 167.3 205.355 167.173 205.394C167.046 205.433 166.909 205.428 166.785 205.381C166.661 205.334 166.556 205.247 166.486 205.134C166.417 205.021 166.387 204.888 166.401 204.756C166.575 199.848 165.924 195.894 164.919 195.72C164.835 195.72 164.529 195.801 164.019 196.389C161.619 199.224 158.733 208.737 161.205 215.772C161.242 215.877 161.249 215.99 161.226 216.099C157.845 231.567 148.953 265.929 148.944 267.648C148.944 267.807 148.881 267.96 148.768 268.072C148.656 268.185 148.503 268.248 148.344 268.248C148.185 268.248 148.032 268.185 147.92 268.072C147.807 267.96 147.744 267.807 147.744 267.648C147.744 265.752 156.504 232.026 160.017 216C157.392 208.269 160.662 198.495 163.104 195.6C163.8 194.775 164.475 194.4 165.111 194.523C167.19 194.883 167.619 199.344 167.622 202.923C169.002 201.045 171.3 198 173.562 195.3C176.397 191.943 179.223 188.967 180.708 189.918C182.508 191.088 180.795 195.798 178.95 199.668C179.436 199.48 179.961 199.415 180.478 199.478C180.996 199.54 181.49 199.729 181.917 200.028C183.534 201.072 183.816 202.692 183.048 204.408C185.448 204.408 187.167 206.508 185.499 209.895C186.04 210.245 186.47 210.742 186.738 211.329C188.688 215.004 181.281 219.513 176.934 224.172C176.4 228.132 169.59 276.6 165 284.622C163.442 287.276 161.218 289.479 158.548 291.011C155.879 292.544 152.856 293.354 149.778 293.361Z" fill="#000091"/>
<path d="M168.774 216.843C168.662 216.843 168.552 216.811 168.457 216.751C168.362 216.691 168.286 216.606 168.237 216.505C168.188 216.404 168.168 216.292 168.18 216.18C168.191 216.069 168.234 215.962 168.303 215.874C171.564 211.692 168.582 207.204 168.453 207.015C168.366 206.884 168.333 206.723 168.363 206.568C168.393 206.413 168.483 206.276 168.613 206.187C168.744 206.098 168.904 206.064 169.059 206.092C169.214 206.12 169.352 206.208 169.443 206.337C169.479 206.391 173.058 211.737 169.248 216.612C169.192 216.684 169.12 216.742 169.038 216.782C168.956 216.822 168.866 216.843 168.774 216.843ZM180.852 218.742C180.556 218.756 180.26 218.707 179.984 218.598C179.708 218.489 179.458 218.323 179.251 218.111C179.044 217.899 178.884 217.645 178.782 217.366C178.68 217.088 178.638 216.791 178.659 216.495C178.743 215.682 179.036 214.904 179.511 214.239C178.173 214.635 176.874 214.599 176.079 213.663C175.155 212.574 175.701 211.035 176.511 209.7C175.218 210.27 173.811 210.507 172.944 209.145C171.705 207.213 174.216 204.546 175.344 203.49C175.401 203.433 175.469 203.389 175.544 203.359C175.619 203.329 175.699 203.315 175.779 203.316C175.859 203.318 175.939 203.336 176.012 203.369C176.085 203.402 176.151 203.449 176.206 203.508C176.261 203.567 176.303 203.636 176.33 203.712C176.358 203.788 176.37 203.868 176.366 203.948C176.361 204.029 176.341 204.107 176.306 204.179C176.27 204.252 176.221 204.316 176.16 204.369C174.645 205.779 173.37 207.603 173.946 208.494C174.522 209.385 175.527 208.953 177.498 207.819C177.768 207.663 178.032 207.519 178.278 207.378C178.399 207.315 178.539 207.296 178.672 207.323C178.806 207.35 178.927 207.422 179.014 207.527C179.102 207.632 179.151 207.764 179.153 207.9C179.156 208.037 179.112 208.17 179.028 208.278C176.628 211.221 176.583 212.403 176.985 212.877C177.81 213.846 180.123 212.853 181.485 211.95C181.611 211.866 181.764 211.832 181.913 211.856C182.063 211.88 182.198 211.959 182.291 212.079C182.385 212.198 182.43 212.348 182.417 212.499C182.404 212.649 182.335 212.79 182.223 212.892C181.182 213.84 179.142 216.234 180.123 217.263C180.221 217.355 180.336 217.426 180.462 217.472C180.588 217.518 180.721 217.539 180.855 217.533C181.737 217.533 182.916 216.843 184.011 215.688C184.064 215.627 184.129 215.577 184.202 215.542C184.275 215.507 184.354 215.487 184.435 215.483C184.516 215.479 184.596 215.492 184.672 215.52C184.748 215.548 184.817 215.591 184.876 215.647C184.935 215.703 184.982 215.77 185.014 215.844C185.046 215.918 185.063 215.998 185.063 216.079C185.064 216.16 185.048 216.24 185.017 216.315C184.985 216.389 184.939 216.457 184.881 216.513C183.858 217.602 182.334 218.742 180.852 218.742Z" fill="#000091"/>
<path d="M80.2441 162.549L74.8081 194.556C74.8081 194.556 86.5231 209.124 95.5981 206.709C100.848 205.314 98.1421 194.31 98.1421 194.31L99.8791 178.23L80.2441 162.549Z" fill="white"/>
<path d="M81.4201 202.002C78.8471 199.868 76.477 197.501 74.3401 194.931C74.2851 194.862 74.2461 194.781 74.2259 194.695C74.2056 194.609 74.2047 194.52 74.2231 194.433L75.6601 187.614C75.6762 187.537 75.7075 187.464 75.7519 187.398C75.7964 187.333 75.8533 187.277 75.9193 187.234C75.9853 187.191 76.0592 187.161 76.1367 187.147C76.2142 187.132 76.2939 187.133 76.3711 187.149C76.4483 187.165 76.5216 187.196 76.5868 187.241C76.6519 187.285 76.7077 187.342 76.7509 187.408C76.794 187.474 76.8238 187.548 76.8384 187.626C76.853 187.703 76.8522 187.783 76.8361 187.86L75.4561 194.4C76.9561 196.182 87.4561 208.26 95.4451 206.133C97.3201 205.635 98.2591 203.574 98.2381 200.013C98.2026 198.143 97.9754 196.281 97.5601 194.457C97.5211 194.298 97.4251 195.372 99.2821 178.167C99.2992 178.008 99.3788 177.862 99.5034 177.762C99.6281 177.661 99.7875 177.614 99.9466 177.632C100.106 177.649 100.252 177.728 100.352 177.853C100.452 177.977 100.499 178.137 100.482 178.296L98.7571 194.274C99.0571 195.507 101.283 205.824 95.7571 207.291C90.7981 208.608 85.3801 205.257 81.4201 202.002Z" fill="#000091"/>
<path d="M92.3009 180.972C99.3509 183.672 107.16 184.35 113.586 182.574C127.776 178.659 123.402 159.615 121.686 147.504C118.857 127.674 104.019 124.089 90.1859 128.658C76.3529 133.227 69.1109 148.941 74.0069 163.758C75.3599 167.853 77.9069 171.42 81.2069 174.354" fill="white"/>
<path d="M92.0999 181.533C91.9511 181.476 91.8309 181.363 91.7656 181.218C91.7004 181.073 91.6954 180.908 91.7519 180.759C91.8084 180.61 91.9217 180.49 92.0669 180.425C92.212 180.359 92.3772 180.354 92.5259 180.411C99.6389 183.111 107.262 183.711 113.436 181.998C125.67 178.62 123.528 163.464 121.602 150.96C121.422 149.793 121.248 148.662 121.095 147.588C119.928 139.413 116.673 133.617 111.42 130.359C105.936 126.96 98.4659 126.558 90.3809 129.228C76.8809 133.686 69.8039 149.088 74.5859 163.566C75.8489 167.391 78.2129 170.868 81.6149 173.904C81.7343 174.01 81.8067 174.159 81.8163 174.318C81.8258 174.477 81.7718 174.634 81.6659 174.753C81.5601 174.872 81.4112 174.945 81.252 174.954C81.0928 174.964 80.9363 174.91 80.8169 174.804C77.2559 171.627 74.7749 167.976 73.4459 163.947C68.4569 148.845 75.8849 132.747 90.0059 128.094C98.4329 125.31 106.263 125.754 112.05 129.345C117.621 132.798 121.065 138.882 122.283 147.426C124.083 160.002 128.391 179.121 113.757 183.159C106.818 185.064 98.8229 184.101 92.0999 181.533Z" fill="#000091"/>
<path d="M113.787 166.449C113.628 166.443 113.479 166.374 113.371 166.257C113.263 166.141 113.205 165.987 113.211 165.828C113.214 165.749 113.232 165.672 113.265 165.6C113.297 165.528 113.344 165.464 113.401 165.41C113.459 165.356 113.527 165.314 113.601 165.287C113.675 165.259 113.753 165.246 113.832 165.249C114.267 165.267 115.581 165.15 115.857 164.454C116.022 164.031 114.777 162.588 113.292 161.487C113.172 161.39 113.094 161.25 113.075 161.096C113.056 160.943 113.096 160.788 113.188 160.664C113.28 160.54 113.417 160.456 113.569 160.43C113.721 160.404 113.878 160.438 114.006 160.524C117.375 163.017 117.129 164.499 116.973 164.895C116.511 166.062 115.011 166.482 113.787 166.449ZM106.614 161.337C106.478 161.337 106.346 161.291 106.239 161.206C106.133 161.12 106.059 161.002 106.029 160.869L105.573 158.883C105.548 158.732 105.581 158.577 105.665 158.45C105.75 158.323 105.88 158.233 106.029 158.199C106.178 158.164 106.335 158.188 106.467 158.265C106.599 158.342 106.697 158.466 106.74 158.613L107.199 160.602C107.219 160.69 107.219 160.781 107.2 160.869C107.18 160.958 107.14 161.04 107.084 161.111C107.028 161.181 106.956 161.238 106.875 161.278C106.793 161.317 106.704 161.337 106.614 161.337ZM118.392 158.616C118.257 158.615 118.126 158.569 118.02 158.485C117.914 158.4 117.84 158.283 117.81 158.151L117.351 156.165C117.333 156.088 117.331 156.009 117.344 155.931C117.357 155.853 117.385 155.779 117.427 155.712C117.469 155.645 117.523 155.587 117.587 155.541C117.652 155.495 117.724 155.463 117.801 155.445C117.878 155.427 117.957 155.425 118.035 155.438C118.113 155.451 118.187 155.479 118.254 155.521C118.321 155.563 118.379 155.617 118.425 155.681C118.471 155.746 118.503 155.818 118.521 155.895L118.977 157.881C118.997 157.969 118.997 158.06 118.978 158.148C118.958 158.237 118.918 158.319 118.862 158.39C118.806 158.46 118.734 158.517 118.653 158.557C118.571 158.596 118.482 158.616 118.392 158.616ZM103.431 157.47C103.334 157.47 103.239 157.446 103.153 157.401C103.067 157.356 102.994 157.291 102.939 157.212C102.884 157.132 102.849 157.04 102.837 156.944C102.825 156.848 102.836 156.751 102.87 156.66C103.097 156.065 103.523 155.568 104.075 155.252C104.628 154.935 105.272 154.82 105.9 154.926C106.059 154.951 106.202 155.039 106.296 155.17C106.391 155.3 106.429 155.463 106.404 155.622C106.379 155.781 106.291 155.924 106.16 156.018C106.03 156.113 105.867 156.151 105.708 156.126C105.576 156.105 104.412 155.97 103.992 157.095C103.947 157.207 103.869 157.302 103.769 157.369C103.669 157.436 103.551 157.471 103.431 157.47ZM117.678 150.366C117.592 150.366 117.507 150.347 117.429 150.31C117.35 150.274 117.281 150.221 117.225 150.156C117.132 150.054 116.325 149.199 115.287 149.784C115.148 149.864 114.983 149.885 114.828 149.842C114.673 149.8 114.542 149.698 114.462 149.559C114.382 149.42 114.361 149.255 114.404 149.1C114.446 148.945 114.548 148.814 114.687 148.734C115.245 148.427 115.893 148.322 116.52 148.44C117.146 148.557 117.712 148.888 118.122 149.376C118.196 149.462 118.244 149.568 118.26 149.681C118.276 149.793 118.26 149.908 118.214 150.012C118.167 150.115 118.092 150.204 117.997 150.267C117.902 150.329 117.792 150.364 117.678 150.366ZM112.596 176.775C112.217 176.787 111.84 176.714 111.493 176.562C111.146 176.41 110.837 176.183 110.589 175.896C109.35 174.444 109.734 171.75 109.782 171.45C109.797 171.356 109.833 171.267 109.889 171.19C109.945 171.113 110.018 171.051 110.103 171.008C110.187 170.965 110.281 170.942 110.376 170.943C110.471 170.943 110.565 170.966 110.649 171.009C112.149 171.774 114.084 171.954 116.928 171.609C117.03 171.596 117.134 171.61 117.229 171.648C117.324 171.687 117.408 171.75 117.472 171.83C117.537 171.91 117.579 172.006 117.596 172.108C117.612 172.209 117.602 172.313 117.567 172.41C117.501 172.575 115.935 176.775 112.596 176.775ZM110.898 172.425C110.868 173.289 110.958 174.483 111.498 175.125C111.634 175.279 111.802 175.4 111.991 175.479C112.181 175.558 112.385 175.593 112.59 175.581C114.279 175.581 115.431 173.97 116.007 172.908C113.901 173.079 112.263 172.929 110.898 172.425Z" fill="#000091"/>
<path d="M76.869 183.684C61.767 181.377 44.469 147.267 63.306 140.565C63.762 125.265 88.299 117.951 103.185 114.465C100.098 102.723 119.124 100.989 125.577 112.503C130.29 120.903 127.536 135.303 120.315 139.989C120.226 140.048 120.122 140.082 120.015 140.088C106.05 140.502 90.747 144.168 89.682 153.216C88.956 159.396 83.709 157.578 84.546 165.684C84.5659 165.826 84.5428 165.97 84.4797 166.098C84.4166 166.227 84.3164 166.333 84.192 166.404C83.622 166.704 82.992 166.23 80.892 164.52C80.139 163.905 79.362 163.272 78.822 162.909C76.872 164.004 77.574 170.391 78.093 175.101C78.612 179.811 78.855 182.469 77.904 183.381C77.7671 183.509 77.6022 183.603 77.4225 183.655C77.2428 183.708 77.0532 183.718 76.869 183.684ZM107.739 106.716C104.499 108.129 103.323 111.042 104.508 114.708C104.533 114.787 104.542 114.87 104.534 114.953C104.525 115.035 104.5 115.115 104.459 115.187C104.418 115.26 104.363 115.322 104.296 115.372C104.23 115.422 104.154 115.457 104.073 115.476C77.814 121.569 64.5 130.155 64.5 141C64.4999 141.127 64.4598 141.25 64.3855 141.352C64.3111 141.455 64.2063 141.531 64.086 141.57C46.05 147.432 63 180.351 77.052 182.496C77.652 182.064 77.19 177.945 76.89 175.221C76.209 169.041 75.504 162.651 78.69 161.652C78.7698 161.627 78.8541 161.619 78.9372 161.628C79.0204 161.637 79.1007 161.664 79.173 161.706C80.151 162.276 82.062 163.971 83.274 164.868C83.043 160.5 84.657 158.883 86.094 157.446C87.186 156.354 88.218 155.319 88.494 153.063C88.86 149.949 92.205 139.74 119.814 138.882C126.09 134.637 129.153 121.296 124.545 113.082C120.924 106.644 112.8 104.499 107.739 106.716Z" fill="#000091"/>
<path d="M89.0761 153.135C88.3951 158.91 83.0761 157.383 83.9371 165.735C84.0301 166.62 80.3371 163.074 78.8641 162.225C74.0041 163.755 80.1811 183.582 76.9591 183.09C62.3791 180.864 45.1111 147.105 63.9001 141C63.9001 126.807 85.3561 119.205 103.938 114.9C100.221 103.413 118.803 101.643 125.055 112.8C129.774 121.221 126.744 135.102 119.988 139.5C97.1791 140.151 89.7481 147.414 89.0761 153.135Z" fill="#000091"/>
<path d="M81.9449 174.438C80.9999 175.8 79.7219 177 78.0239 177.552C73.8239 178.944 68.8559 175.608 67.0439 170.124C65.6519 165.924 68.4839 160.854 72.9419 160.722C75.0101 160.721 77.0458 161.236 78.8639 162.222" fill="white"/>
<path d="M66.474 170.313C64.956 165.723 68.064 160.266 72.924 160.113C74.874 160.053 77.124 160.629 79.143 161.685C79.28 161.761 79.3818 161.888 79.4266 162.038C79.4713 162.188 79.4556 162.35 79.3827 162.489C79.3099 162.627 79.1856 162.732 79.0365 162.78C78.8875 162.829 78.7254 162.817 78.585 162.747C76.8581 161.81 74.925 161.317 72.96 161.313C68.871 161.433 66.36 166.134 67.614 169.926C69.834 176.655 77.088 180.267 81.456 174.084C81.5479 173.954 81.6877 173.866 81.8447 173.839C82.0017 173.812 82.163 173.848 82.293 173.94C82.4231 174.032 82.5114 174.172 82.5384 174.329C82.5654 174.486 82.5289 174.647 82.437 174.777C77.535 181.725 69.036 178.065 66.474 170.313Z" fill="#000091"/>
<path d="M77.5649 173.331C77.4831 173.332 77.4022 173.314 77.3279 173.28C73.5419 171.642 74.6729 168.228 77.6609 168.126C77.1569 166.716 76.2239 165.969 74.8799 165.903C73.0289 165.816 71.1989 167.049 70.9799 167.703C70.931 167.855 70.8239 167.98 70.6821 168.053C70.5403 168.126 70.3755 168.139 70.2239 168.09C70.0724 168.041 69.9464 167.934 69.8739 167.792C69.8013 167.65 69.788 167.486 69.8369 167.334C70.5989 164.967 77.6609 162.285 79.0439 168.657C79.0646 168.753 79.0613 168.853 79.0344 168.947C79.0075 169.042 78.9578 169.128 78.8896 169.199C78.8215 169.27 78.737 169.323 78.6436 169.353C78.5502 169.384 78.4507 169.391 78.3539 169.374C77.1539 169.164 76.3229 169.656 76.1519 170.226C75.9509 170.895 76.5959 171.66 77.7959 172.179C77.9229 172.233 78.0273 172.329 78.0916 172.451C78.1559 172.573 78.1762 172.714 78.1491 172.849C78.122 172.984 78.0491 173.106 77.9427 173.194C77.8363 173.282 77.7029 173.33 77.5649 173.331ZM21.7769 268.653C21.7005 268.586 21.6425 268.5 21.6083 268.404C21.5742 268.308 21.5651 268.205 21.5819 268.104C26.3999 239.886 33.7049 206.7 47.4389 200.589C52.7609 198.216 61.3829 196.32 67.6769 195.15C67.7557 195.132 67.8371 195.131 67.9165 195.145C67.9958 195.16 68.0714 195.19 68.1388 195.235C68.2061 195.279 68.2638 195.337 68.3084 195.404C68.353 195.471 68.3836 195.547 68.3983 195.626C68.4131 195.705 68.4116 195.787 68.3942 195.865C68.3767 195.944 68.3435 196.019 68.2966 196.084C68.2497 196.15 68.1901 196.205 68.1212 196.247C68.0524 196.289 67.9758 196.317 67.8959 196.329C61.6649 197.487 53.1419 199.359 47.9249 201.684C42.3509 204.171 37.2929 211.926 32.8979 224.73C29.2739 235.287 26.0699 249.03 22.8209 267.969C29.9549 273.9 48.5009 274.431 57.4289 271.638C58.5329 260.856 61.3499 243.594 63.2219 232.125C63.2474 231.968 63.3342 231.827 63.4634 231.734C63.5925 231.641 63.7533 231.603 63.9104 231.629C64.0676 231.654 64.2082 231.741 64.3013 231.87C64.3944 231.999 64.4324 232.16 64.4069 232.317C62.5139 243.912 59.6549 261.435 58.5839 272.148C58.5725 272.263 58.5278 272.373 58.4554 272.463C58.383 272.554 58.2859 272.621 58.1759 272.658C48.9359 275.739 29.2739 275.28 21.7769 268.653ZM130.122 305.802C130.041 305.802 129.962 305.786 129.887 305.754C129.813 305.723 129.746 305.677 129.69 305.619C129.634 305.561 129.59 305.492 129.561 305.417C129.533 305.342 129.519 305.262 129.522 305.181C130.548 275.781 127.932 253.407 125.403 231.762C125.394 231.683 125.4 231.603 125.422 231.527C125.444 231.451 125.481 231.38 125.53 231.318C125.579 231.255 125.64 231.204 125.71 231.165C125.779 231.127 125.855 231.102 125.934 231.093C126.013 231.084 126.093 231.09 126.169 231.112C126.245 231.134 126.316 231.171 126.378 231.22C126.441 231.269 126.492 231.33 126.531 231.4C126.569 231.469 126.594 231.545 126.603 231.624C129.135 253.314 131.757 275.742 130.728 305.223C130.722 305.38 130.656 305.528 130.543 305.636C130.43 305.744 130.279 305.804 130.122 305.802Z" fill="#000091"/>
<path d="M129.018 265.38C129.012 265.301 129.021 265.222 129.045 265.146C129.069 265.071 129.108 265.001 129.159 264.941C129.211 264.881 129.273 264.831 129.344 264.796C129.414 264.76 129.491 264.738 129.57 264.732C137.16 264.114 144.27 261.732 150.087 257.832C150.22 257.744 150.382 257.712 150.538 257.743C150.694 257.774 150.831 257.866 150.92 257.998C151.008 258.131 151.04 258.293 151.009 258.449C150.978 258.605 150.886 258.743 150.753 258.831C144.753 262.833 137.46 265.284 129.666 265.92C129.509 265.933 129.353 265.884 129.231 265.783C129.11 265.682 129.033 265.537 129.018 265.38ZM147.324 237.471C147.209 237.471 147.096 237.437 146.999 237.374C146.902 237.312 146.825 237.222 146.778 237.117C134.85 210.684 126.234 202.617 121.11 200.517C116.169 198.48 109.218 196.917 104.256 195.972C104.179 195.957 104.105 195.927 104.039 195.884C103.973 195.841 103.917 195.785 103.872 195.72C103.828 195.655 103.797 195.581 103.781 195.504C103.765 195.427 103.764 195.347 103.779 195.27C103.794 195.193 103.824 195.119 103.867 195.053C103.91 194.987 103.966 194.93 104.031 194.886C104.097 194.842 104.17 194.811 104.247 194.795C104.324 194.779 104.404 194.778 104.481 194.793C109.497 195.753 116.532 197.334 121.581 199.407C129.219 202.551 138.315 215.421 147.888 236.631C147.928 236.723 147.945 236.825 147.936 236.925C147.927 237.025 147.893 237.122 147.836 237.206C147.78 237.289 147.704 237.358 147.614 237.404C147.525 237.45 147.425 237.473 147.324 237.471ZM33.1891 307.5C33.0872 307.5 32.9868 307.474 32.8976 307.425C32.8084 307.376 32.7332 307.304 32.6791 307.218C32.3791 306.717 25.0051 294.894 23.8981 289.191C23.4211 286.725 23.5441 282.591 24.2641 276.891C24.274 276.812 24.2992 276.736 24.3385 276.667C24.3778 276.598 24.4302 276.537 24.4929 276.489C24.5556 276.44 24.6272 276.404 24.7038 276.383C24.7804 276.362 24.8603 276.356 24.9391 276.366C25.0179 276.376 25.094 276.401 25.163 276.44C25.2321 276.48 25.2927 276.532 25.3414 276.595C25.3902 276.657 25.4261 276.729 25.4472 276.806C25.4682 276.882 25.474 276.962 25.4641 277.041C24.7681 282.528 24.6391 286.641 25.0861 288.954C26.1511 294.438 33.6301 306.453 33.7051 306.573C33.7646 306.664 33.7981 306.77 33.8018 306.88C33.8056 306.989 33.7795 307.097 33.7264 307.192C33.6733 307.287 33.5953 307.366 33.5006 307.421C33.4059 307.475 33.2982 307.502 33.1891 307.5ZM61.5361 305.802C61.4144 305.802 61.2955 305.765 61.1953 305.696C61.0951 305.627 61.0183 305.529 60.9751 305.415C60.6751 304.602 53.3821 285.492 53.0401 283.599C53.0211 283.52 53.0185 283.437 53.0324 283.357C53.0464 283.276 53.0766 283.2 53.1212 283.131C53.1658 283.063 53.224 283.004 53.292 282.959C53.36 282.914 53.4366 282.883 53.5169 282.869C53.5973 282.854 53.6797 282.856 53.7593 282.875C53.8388 282.893 53.9137 282.928 53.9795 282.976C54.0452 283.024 54.1004 283.086 54.1416 283.156C54.1828 283.227 54.2092 283.305 54.2191 283.386C54.4891 284.865 59.9971 299.481 62.0941 304.986C62.1291 305.077 62.1416 305.175 62.1303 305.271C62.1191 305.368 62.0845 305.46 62.0296 305.541C61.9747 305.621 61.9011 305.687 61.8151 305.732C61.7292 305.778 61.6334 305.802 61.5361 305.802Z" fill="#000091"/>
<path d="M226.584 227.862C225.948 227.862 225.337 227.609 224.887 227.159C224.437 226.709 224.184 226.099 224.184 225.462V178.2H196.176C195.54 178.2 194.929 177.947 194.479 177.497C194.029 177.047 193.776 176.437 193.776 175.8V146.436H151.917C151.281 146.436 150.67 146.183 150.22 145.733C149.77 145.283 149.517 144.673 149.517 144.036V131.535C149.517 130.899 149.77 130.288 150.22 129.838C150.67 129.388 151.281 129.135 151.917 129.135H193.776V70.719C193.776 70.0825 194.029 69.4721 194.479 69.022C194.929 68.5719 195.54 68.319 196.176 68.319H212.733C213.37 68.319 213.98 68.5719 214.43 69.022C214.88 69.4721 215.133 70.0825 215.133 70.719V127.8H268.8V88.323H255.981C255.345 88.323 254.734 88.0702 254.284 87.6201C253.834 87.17 253.581 86.5595 253.581 85.923V43.047H212.058C211.422 43.047 210.811 42.7942 210.361 42.3441C209.911 41.894 209.658 41.2835 209.658 40.647V26.118C209.658 25.4815 209.911 24.871 210.361 24.421C210.811 23.9709 211.422 23.718 212.058 23.718C212.695 23.718 213.305 23.9709 213.755 24.421C214.205 24.871 214.458 25.4815 214.458 26.118V38.247H255.981C256.618 38.247 257.228 38.4999 257.678 38.95C258.128 39.4001 258.381 40.0105 258.381 40.647V83.523H271.2C271.837 83.523 272.447 83.7759 272.897 84.226C273.347 84.6761 273.6 85.2865 273.6 85.923V130.2C273.6 130.837 273.347 131.447 272.897 131.897C272.447 132.347 271.837 132.6 271.2 132.6H212.733C212.097 132.6 211.486 132.347 211.036 131.897C210.586 131.447 210.333 130.837 210.333 130.2V73.119H198.576V131.535C198.576 132.172 198.323 132.782 197.873 133.232C197.423 133.682 196.813 133.935 196.176 133.935H154.317V141.636H196.176C196.813 141.636 197.423 141.889 197.873 142.339C198.323 142.789 198.576 143.4 198.576 144.036V173.4H226.584C227.221 173.4 227.831 173.653 228.281 174.103C228.731 174.553 228.984 175.163 228.984 175.8V225.462C228.984 226.099 228.731 226.709 228.281 227.159C227.831 227.609 227.221 227.862 226.584 227.862Z" fill="#CE0500"/>
<path d="M220.278 29.274H203.949L212.208 17.109L220.278 29.274Z" fill="#CE0500"/>
<path d="M77.7631 46.281C76.6377 43.2123 74.7556 40.4775 72.2914 38.3301C69.8273 36.1826 66.8608 34.6922 63.667 33.9968C60.4733 33.3015 57.1557 33.4238 54.0218 34.3525C50.888 35.2811 48.0393 36.986 45.74 39.309C43.4406 41.6321 41.7651 44.4981 40.8686 47.6413C39.9722 50.7846 39.8839 54.1032 40.612 57.2897C41.3401 60.4761 42.8609 63.4272 45.0335 65.8692C47.2061 68.3111 49.9601 70.1651 53.0401 71.259C54.3865 71.7285 55.611 72.4928 56.6241 73.496C57.6373 74.4993 58.4135 75.7163 58.8961 77.058L75.6001 70.926C75.107 69.5969 74.9131 68.1755 75.0324 66.7629C75.1516 65.3504 75.5811 63.9815 76.2901 62.754C77.7363 60.2871 78.6184 57.5307 78.873 54.6826C79.1277 51.8345 78.7487 48.9653 77.7631 46.281Z" fill="#FCC63A"/>
<path d="M64.392 75.342C64.2687 75.3419 64.1484 75.3039 64.0475 75.233C63.9465 75.1622 63.8699 75.0619 63.828 74.946L60 64.479L52.689 56.583C52.5863 56.4652 52.5336 56.312 52.5422 56.156C52.5507 56 52.6197 55.8534 52.7346 55.7475C52.8495 55.6416 53.0012 55.5847 53.1574 55.5889C53.3135 55.5931 53.4619 55.6581 53.571 55.77L60.963 63.753C61.083 63.882 60.822 63.231 64.968 74.535C65.0017 74.6267 65.0125 74.7252 64.9995 74.8221C64.9865 74.9189 64.95 75.0111 64.8932 75.0907C64.8365 75.1702 64.7611 75.2347 64.6738 75.2785C64.5864 75.3223 64.4897 75.3441 64.392 75.342ZM69.921 73.314C69.7977 73.3139 69.6774 73.2759 69.5765 73.205C69.4755 73.1342 69.3989 73.0339 69.357 72.918L65.475 62.34C65.415 62.175 65.406 62.871 65.913 51.24C65.9198 51.0808 65.9894 50.9309 66.1068 50.8232C66.2241 50.7154 66.3794 50.6587 66.5385 50.6655C66.6976 50.6722 66.8475 50.7419 66.9553 50.8592C67.063 50.9765 67.1198 51.1318 67.113 51.291L66.642 62.04L70.482 72.51C70.5147 72.6003 70.5251 72.6972 70.5126 72.7924C70.5 72.8877 70.4648 72.9785 70.4098 73.0573C70.3548 73.1361 70.2817 73.2005 70.1967 73.2452C70.1116 73.2899 70.0171 73.3134 69.921 73.314Z" fill="white"/>
<path d="M58.6951 80.256C58.5727 80.2555 58.4533 80.2176 58.353 80.1474C58.2527 80.0771 58.1763 79.9779 58.1341 79.863L56.7001 75.918C56.6728 75.8439 56.6604 75.7652 56.6636 75.6863C56.6668 75.6075 56.6855 75.53 56.7186 75.4584C56.7518 75.3868 56.7987 75.3224 56.8568 75.269C56.9149 75.2155 56.983 75.1741 57.0571 75.147L75.8041 68.268C75.8782 68.2407 75.9569 68.2283 76.0357 68.2314C76.1146 68.2346 76.1921 68.2533 76.2637 68.2865C76.3353 68.3197 76.3997 68.3666 76.4531 68.4247C76.5066 68.4828 76.548 68.5508 76.5751 68.625L78.0001 72.573C78.0543 72.7222 78.0471 72.8868 77.9802 73.0307C77.9133 73.1747 77.7921 73.2862 77.6431 73.341C57.5731 80.7 58.8631 80.256 58.6951 80.256ZM58.0201 76.056L59.0521 78.876L76.6741 72.411L75.6391 69.591L58.0201 76.056Z" fill="#CE0500"/>
<path d="M57.2512 75.709L75.9971 68.8304L77.4449 72.7762L58.6991 79.6547L57.2512 75.709Z" fill="#CE0500"/>
<path d="M69.1859 91.389C68.9849 91.389 69.3869 91.542 63.6839 88.899C63.5441 88.8302 63.4365 88.7097 63.3839 88.563L59.9369 79.2C59.8827 79.0508 59.8899 78.8862 59.9568 78.7423C60.0237 78.5983 60.1449 78.4868 60.2939 78.432L75.4319 72.876C75.506 72.8487 75.5847 72.8363 75.6636 72.8395C75.7424 72.8427 75.8199 72.8614 75.8915 72.8945C75.9631 72.9277 76.0275 72.9747 76.0809 73.0327C76.1344 73.0908 76.1758 73.1589 76.2029 73.233L79.6379 82.593C79.6922 82.7435 79.6858 82.9092 79.6199 83.055C79.5839 83.127 77.3009 88.062 77.1869 88.305C77.1174 88.4454 76.9958 88.5531 76.8479 88.605C68.7809 91.575 69.3419 91.389 69.1859 91.389ZM64.4129 87.915L69.2129 90.138L76.2029 87.573L78.4259 82.773L75.2819 74.208L61.2689 79.35L64.4129 87.915Z" fill="#CE0500"/>
<path d="M60.648 81.5221C60.5015 81.5223 60.36 81.469 60.2501 81.3721C60.1402 81.2752 60.0695 81.1415 60.0515 80.9961C60.0334 80.8507 60.0691 80.7038 60.1519 80.5829C60.2347 80.4621 60.3589 80.3757 60.501 80.3401L77.235 76.0861C77.3866 76.053 77.5452 76.0799 77.6773 76.1612C77.8095 76.2426 77.905 76.3719 77.9439 76.5222C77.9827 76.6724 77.9618 76.8319 77.8856 76.967C77.8093 77.1022 77.6837 77.2026 77.535 77.2471C59.601 81.8071 60.765 81.5221 60.648 81.5221ZM61.659 84.2761C61.5153 84.274 61.3772 84.2204 61.2697 84.125C61.1622 84.0297 61.0925 83.8989 61.0732 83.7565C61.054 83.6141 61.0864 83.4695 61.1648 83.3491C61.2431 83.2286 61.3621 83.1402 61.5 83.1001L78.237 78.8431C78.3914 78.8033 78.5552 78.8264 78.6925 78.9075C78.8298 78.9885 78.9292 79.1207 78.969 79.2751C79.0088 79.4294 78.9856 79.5933 78.9046 79.7305C78.8236 79.8678 78.6914 79.9673 78.537 80.0071C60.6 84.5611 61.776 84.2761 61.659 84.2761ZM62.667 87.0271C62.5225 87.0246 62.3837 86.9701 62.2762 86.8736C62.1686 86.777 62.0996 86.6448 62.0817 86.5014C62.0638 86.358 62.0983 86.2129 62.1788 86.0928C62.2594 85.9728 62.3805 85.8859 62.52 85.8481L79.254 81.6001C79.4084 81.5603 79.5722 81.5834 79.7095 81.6645C79.8468 81.7455 79.9462 81.8777 79.986 82.0321C80.0258 82.1864 80.0026 82.3503 79.9216 82.4875C79.8406 82.6248 79.7084 82.7243 79.554 82.7641C61.62 87.3151 62.784 87.0271 62.667 87.0271ZM78.153 84.7891L76.653 88.0531L69.198 90.7891L65.934 89.2891L78.153 84.7891Z" fill="#CE0500"/>
<path d="M55.1581 56.433L51.6871 53.922C51.6197 53.8774 51.562 53.8196 51.5174 53.7521C51.4729 53.6847 51.4425 53.6089 51.4279 53.5293C51.4134 53.4498 51.4152 53.3681 51.433 53.2892C51.4509 53.2104 51.4845 53.1359 51.5318 53.0704C51.5791 53.0048 51.6393 52.9495 51.7085 52.9078C51.7778 52.866 51.8547 52.8387 51.9348 52.8275C52.0149 52.8163 52.0964 52.8213 52.1745 52.8424C52.2526 52.8634 52.3256 52.9001 52.3891 52.95L55.1401 54.939L55.9531 51.639C55.9764 51.5436 56.0228 51.4554 56.0881 51.3821C56.1535 51.3088 56.2358 51.2526 56.3279 51.2186C56.42 51.1845 56.5191 51.1736 56.6164 51.1867C56.7138 51.1999 56.8064 51.2367 56.8861 51.294L59.6371 53.283L60.4501 49.983C60.4738 49.8879 60.5204 49.8 60.5859 49.727C60.6514 49.6541 60.7338 49.5983 60.8259 49.5645C60.9179 49.5308 61.0169 49.5201 61.114 49.5334C61.2112 49.5468 61.3036 49.5837 61.3831 49.641L64.1371 51.63L64.9501 48.33C64.9899 48.1757 65.0894 48.0435 65.2266 47.9624C65.3639 47.8814 65.5278 47.8583 65.6821 47.898C65.8365 47.9378 65.9687 48.0373 66.0497 48.1746C66.1307 48.3119 66.1539 48.4757 66.1141 48.63L65.1001 52.8C65.0765 52.8952 65.0298 52.9831 64.9643 53.0561C64.8988 53.129 64.8164 53.1848 64.7244 53.2186C64.6323 53.2523 64.5334 53.263 64.4362 53.2497C64.3391 53.2363 64.2467 53.1994 64.1671 53.142L61.4131 51.153L60.6031 54.453C60.5797 54.5487 60.533 54.6371 60.4673 54.7104C60.4016 54.7838 60.3188 54.8398 60.2263 54.8736C60.1338 54.9074 60.0344 54.9179 59.9369 54.9042C59.8394 54.8905 59.7467 54.853 59.6671 54.795L56.9041 52.8L56.1001 56.1C56.0759 56.1959 56.0284 56.2843 55.9618 56.3574C55.8952 56.4305 55.8116 56.486 55.7183 56.5189C55.6251 56.5519 55.5252 56.5613 55.4275 56.5463C55.3297 56.5313 55.2372 56.4924 55.1581 56.433Z" fill="white"/>
<path d="M80.8709 38.475C80.762 38.4745 80.6552 38.4442 80.5621 38.3876C80.469 38.331 80.3931 38.25 80.3425 38.1535C80.2919 38.057 80.2686 37.9485 80.275 37.8397C80.2814 37.7309 80.3173 37.6259 80.3789 37.536L84.9299 30.918C84.9746 30.853 85.0317 30.7975 85.0979 30.7545C85.1641 30.7116 85.2381 30.6821 85.3157 30.6677C85.3933 30.6534 85.4729 30.6545 85.5501 30.6709C85.6272 30.6873 85.7004 30.7188 85.7654 30.7635C85.8304 30.8082 85.886 30.8653 85.9289 30.9315C85.9719 30.9977 86.0014 31.0717 86.0157 31.1493C86.0301 31.2269 86.029 31.3065 86.0125 31.3837C85.9961 31.4608 85.9646 31.534 85.9199 31.599L81.3659 38.217C81.3105 38.2969 81.2365 38.3621 81.1502 38.4071C81.064 38.452 80.9682 38.4753 80.8709 38.475ZM84.5819 42.825C84.4453 42.8256 84.3125 42.7796 84.2056 42.6945C84.0986 42.6095 84.024 42.4904 83.9939 42.3571C83.9638 42.2238 83.9801 42.0843 84.0401 41.9615C84.1001 41.8387 84.2003 41.7401 84.3239 41.682L91.5749 38.229C91.6461 38.1838 91.7261 38.1541 91.8095 38.1419C91.893 38.1297 91.9781 38.1352 92.0593 38.158C92.1404 38.1809 92.2159 38.2206 92.2807 38.2746C92.3455 38.3287 92.3982 38.3957 92.4353 38.4714C92.4724 38.5472 92.4931 38.6299 92.4962 38.7142C92.4992 38.7985 92.4843 38.8825 92.4527 38.9607C92.4211 39.0388 92.3733 39.1095 92.3125 39.1679C92.2517 39.2264 92.1793 39.2714 92.0999 39.3C84.1499 43.095 84.7739 42.825 84.5819 42.825ZM93.6269 49.08C93.5879 49.08 94.1459 49.122 84.6839 48.375C84.6051 48.3687 84.5284 48.347 84.458 48.311C84.3876 48.275 84.325 48.2255 84.2737 48.1653C84.1702 48.0438 84.1192 47.8861 84.1319 47.727C84.1382 47.6482 84.16 47.5714 84.196 47.5011C84.2319 47.4307 84.2814 47.3681 84.3416 47.3168C84.4631 47.2133 84.6208 47.1623 84.7799 47.175L93.6749 47.88C93.8341 47.8864 93.9841 47.9557 94.0922 48.0727C94.2002 48.1897 94.2573 48.3449 94.2509 48.504C94.2446 48.6631 94.1752 48.8132 94.0582 48.9213C93.9412 49.0293 93.786 49.0864 93.6269 49.08ZM32.2979 71.583C32.1885 71.5828 32.0811 71.5527 31.9876 71.4959C31.894 71.4391 31.8177 71.3578 31.7671 71.2608C31.7164 71.1638 31.6932 71.0547 31.7001 70.9455C31.7069 70.8362 31.7435 70.731 31.8059 70.641L36.3569 64.026C36.401 63.96 36.4577 63.9033 36.5239 63.8593C36.59 63.8154 36.6642 63.785 36.7421 63.7699C36.8201 63.7548 36.9003 63.7553 36.9781 63.7715C37.0558 63.7876 37.1296 63.819 37.1951 63.8639C37.2606 63.9088 37.3166 63.9662 37.3597 64.0329C37.4029 64.0995 37.4324 64.1741 37.4465 64.2523C37.4606 64.3304 37.4591 64.4106 37.442 64.4881C37.4249 64.5657 37.3926 64.6391 37.3469 64.704L32.7929 71.322C32.7378 71.4025 32.664 71.4683 32.5777 71.5138C32.4915 71.5592 32.3954 71.583 32.2979 71.583ZM25.8899 64.071C25.7533 64.0717 25.6205 64.0256 25.5136 63.9405C25.4067 63.8555 25.332 63.7364 25.3019 63.6031C25.2718 63.4698 25.2881 63.3303 25.3481 63.2075C25.4081 63.0847 25.5083 62.9861 25.6319 62.928L32.8829 59.475C32.9543 59.4388 33.0322 59.4173 33.112 59.4117C33.1919 59.4061 33.272 59.4165 33.3477 59.4423C33.4235 59.4682 33.4933 59.5089 33.5531 59.5621C33.6128 59.6153 33.6614 59.6799 33.6958 59.7522C33.7302 59.8244 33.7498 59.9028 33.7535 59.9827C33.7572 60.0627 33.7448 60.1425 33.7171 60.2176C33.6895 60.2927 33.6471 60.3615 33.5924 60.42C33.5378 60.4784 33.472 60.5254 33.3989 60.558C25.4579 64.341 26.0999 64.071 25.8899 64.071ZM32.9999 55.065C32.9609 55.065 33.5159 55.107 24.0539 54.36C23.8948 54.3473 23.7472 54.2719 23.6437 54.1503C23.5402 54.0288 23.4892 53.8711 23.5019 53.712C23.5146 53.5529 23.5901 53.4053 23.7116 53.3018C23.8331 53.1983 23.9908 53.1473 24.1499 53.16L33.0449 53.865C33.2041 53.871 33.3543 53.9399 33.4626 54.0567C33.5709 54.1734 33.6284 54.3284 33.6224 54.4875C33.6165 54.6466 33.5475 54.7969 33.4308 54.9052C33.314 55.0135 33.159 55.071 32.9999 55.065Z" fill="#CE0500"/>
<path d="M197.286 258.804C195.911 258.804 194.567 258.396 193.424 257.633C192.281 256.869 191.39 255.783 190.864 254.513C190.338 253.243 190.2 251.845 190.469 250.497C190.737 249.149 191.399 247.91 192.371 246.938C193.343 245.966 194.582 245.304 195.93 245.036C197.278 244.767 198.676 244.905 199.946 245.431C201.216 245.957 202.302 246.848 203.066 247.991C203.829 249.134 204.237 250.478 204.237 251.853C204.235 253.696 203.503 255.463 202.199 256.766C200.896 258.07 199.129 258.802 197.286 258.804ZM197.286 246.102C196.149 246.102 195.037 246.439 194.091 247.071C193.145 247.703 192.408 248.601 191.973 249.652C191.537 250.703 191.424 251.859 191.645 252.975C191.867 254.091 192.415 255.115 193.219 255.92C194.024 256.724 195.048 257.272 196.164 257.493C197.28 257.715 198.436 257.601 199.487 257.166C200.538 256.731 201.436 255.994 202.068 255.048C202.7 254.102 203.037 252.99 203.037 251.853C203.035 250.328 202.429 248.866 201.351 247.788C200.273 246.71 198.811 246.104 197.286 246.102ZM272.622 303.033C272.5 303.034 272.382 302.998 272.281 302.93C272.18 302.862 272.103 302.765 272.059 302.651C272.014 302.538 272.006 302.414 272.033 302.296C272.061 302.178 272.124 302.071 272.214 301.989L283.662 291.465C283.719 291.409 283.787 291.365 283.862 291.336C283.937 291.307 284.017 291.293 284.097 291.295C284.177 291.297 284.256 291.315 284.329 291.348C284.402 291.382 284.468 291.429 284.522 291.488C284.576 291.547 284.618 291.616 284.645 291.692C284.672 291.767 284.684 291.847 284.68 291.927C284.675 292.007 284.655 292.086 284.62 292.158C284.585 292.23 284.535 292.294 284.475 292.347L273.027 302.874C272.917 302.976 272.772 303.033 272.622 303.033Z" fill="#FCC63A"/>
<path d="M283.608 303.492C283.525 303.492 283.443 303.475 283.367 303.442C283.292 303.409 283.223 303.361 283.167 303.3L272.64 291.852C272.587 291.793 272.545 291.724 272.519 291.649C272.492 291.574 272.48 291.494 272.484 291.415C272.488 291.335 272.508 291.257 272.542 291.185C272.576 291.113 272.624 291.049 272.684 290.996C272.743 290.942 272.812 290.901 272.887 290.874C272.962 290.848 273.041 290.836 273.121 290.84C273.2 290.844 273.278 290.864 273.35 290.898C273.422 290.932 273.487 290.98 273.54 291.039L284.064 302.487C284.143 302.574 284.196 302.682 284.214 302.798C284.232 302.914 284.216 303.033 284.168 303.14C284.119 303.247 284.04 303.338 283.941 303.4C283.841 303.463 283.726 303.495 283.608 303.492ZM31.617 158.823H16.5C16.3948 158.823 16.2914 158.795 16.2002 158.742C16.1091 158.69 16.0335 158.614 15.9809 158.523C15.9283 158.432 15.9006 158.328 15.9006 158.223C15.9007 158.118 15.9284 158.014 15.981 157.923L23.544 144.822C23.5966 144.73 23.6724 144.654 23.7638 144.601C23.8551 144.548 23.9589 144.521 24.0645 144.521C24.1701 144.521 24.2739 144.548 24.3653 144.601C24.4567 144.654 24.5325 144.73 24.585 144.822L32.148 157.923C32.2012 158.015 32.229 158.12 32.2285 158.226C32.228 158.332 32.1992 158.436 32.1452 158.528C32.0912 158.62 32.0138 158.695 31.921 158.747C31.8282 158.799 31.7233 158.825 31.617 158.823ZM17.532 157.623H30.579L24.054 146.322L17.532 157.623Z" fill="#FCC63A"/>
</svg>
