<svg width="26" height="36" viewBox="0 0 26 36" fill="none" xmlns="http://www.w3.org/2000/svg">
<path d="M10.4997 27.4437C10.3098 27.2474 10.1973 26.9896 10.182 26.7165C10.1733 26.3967 10.3028 26.0889 10.5377 25.8713L11.2965 25.1604L10.5323 24.4392C10.3088 24.2347 10.1815 23.9454 10.182 23.6424C10.1864 23.3428 10.3109 23.0578 10.5269 22.8505L11.2965 22.1293L10.5269 21.413C10.305 21.2074 10.1799 20.9186 10.182 20.6162C10.1815 20.3133 10.3088 20.0239 10.5323 19.8194L11.2965 19.1031L10.5323 18.3874C10.3088 18.1829 10.1815 17.8935 10.182 17.5906V13.8214C9.41188 13.4651 8.71026 12.9767 8.10926 12.3784C6.06423 10.3334 5.45235 7.25824 6.55917 4.5861C7.66545 1.91396 10.2729 0.171875 13.1653 0.171875C16.0572 0.171875 18.6646 1.91396 19.7708 4.5861C20.8777 7.25824 20.2658 10.3334 18.2208 12.3784C17.6198 12.9767 16.9181 13.4651 16.148 13.8214V25.9143C16.1496 26.1705 16.0599 26.4185 15.8951 26.6143L14.0263 28.8649C13.8462 29.0879 13.5846 29.2293 13.2996 29.2587C13.0146 29.288 12.7302 29.2027 12.5083 29.021L10.6128 27.503L10.4997 27.4437ZM12.3576 24.8162C12.4506 24.9064 12.5028 25.031 12.5028 25.1604C12.5039 25.2959 12.4468 25.4253 12.3467 25.5162L11.1997 26.5931C11.1746 26.6143 11.161 26.6458 11.1621 26.679C11.1605 26.7062 11.1725 26.7328 11.1942 26.7492V26.7758L13.0679 28.278C13.1136 28.3205 13.1843 28.3205 13.2295 28.278L15.1195 26.0062C15.1255 25.9888 15.1255 25.9698 15.1195 25.9524V13.5092C15.1189 13.3096 15.2408 13.1301 15.4262 13.0567C16.1969 12.7494 16.8958 12.2854 17.4778 11.6948C19.4015 9.76776 19.835 6.80844 18.5444 4.41097C17.2543 2.01349 14.5451 0.745137 11.8773 1.28903C9.2101 1.83346 7.21456 4.06179 6.96654 6.77309C6.71853 9.48439 8.27678 12.0374 10.8015 13.0567C10.9859 13.1312 11.1072 13.3101 11.1083 13.5092V17.5906C11.1072 17.6216 11.1208 17.652 11.1458 17.6711L12.2929 18.748C12.3951 18.8393 12.4522 18.9715 12.449 19.1086C12.4501 19.244 12.393 19.3734 12.2929 19.4643L11.1458 20.5412C11.123 20.5618 11.1094 20.5907 11.1083 20.6217C11.1099 20.6516 11.1213 20.6799 11.1404 20.7027L12.2929 21.7791C12.3919 21.8721 12.4484 22.0015 12.4484 22.1375C12.4484 22.2729 12.3919 22.4029 12.2929 22.4954L11.1404 23.5723C11.1192 23.5957 11.1077 23.6267 11.1083 23.6582C11.1061 23.6903 11.1202 23.7208 11.1458 23.7393L12.2929 24.8162H12.3576ZM11.4852 5.9714C11.0343 5.52704 10.7819 4.91896 10.7852 4.28587C10.7939 2.97346 11.8616 1.91505 13.174 1.91668C14.4864 1.91886 15.5508 2.98053 15.5557 4.29294C15.5606 5.60536 14.5043 6.67519 13.1919 6.68716C12.5588 6.69096 11.9513 6.4386 11.507 5.98717L11.4852 5.9714ZM14.1775 3.27913C13.6249 2.75319 12.7536 2.76352 12.2146 3.30306C11.675 3.84206 11.6647 4.71337 12.1906 5.26597C12.7427 5.79191 13.614 5.78103 14.1535 5.24204C14.6925 4.7025 14.7034 3.83118 14.1775 3.27913Z" fill="#E1000F"/>
<path d="M13.1917 29.4626C12.9024 29.4648 12.6212 29.368 12.3949 29.188L10.4995 27.67C10.463 27.64 10.4288 27.6074 10.3972 27.5726C10.1693 27.3485 10.035 27.0467 10.0203 26.7274C10.0094 26.3505 10.1628 25.9872 10.4402 25.7315L11.0379 25.1604L10.4244 24.5578C10.1623 24.3169 10.0138 23.9769 10.0149 23.6207C10.0208 23.2688 10.1661 22.9337 10.419 22.6895L11.0379 22.1293L10.419 21.5479C10.1584 21.3081 10.01 20.9703 10.01 20.6162C10.01 20.2621 10.1584 19.9244 10.419 19.6851L11.0379 19.1031L10.419 18.5217C10.1568 18.2829 10.0083 17.9446 10.0094 17.5906V13.9508C6.92555 12.4649 5.27756 9.04438 6.03901 5.70651C6.80046 2.36919 9.76848 0.00108778 13.1917 0C16.6134 0.00598281 19.5765 2.37572 20.3347 5.71195C21.0934 9.04819 19.4454 12.466 16.3632 13.9508V25.9143C16.3686 26.2161 16.2631 26.5093 16.0667 26.7383L14.1773 29.0052C13.9325 29.2956 13.5719 29.4632 13.1917 29.4626ZM13.1917 0.387795C9.91859 0.383444 7.08491 2.66126 6.38601 5.85935C5.68765 9.05689 7.3128 12.3094 10.2895 13.6707C10.3553 13.7034 10.3967 13.7697 10.3972 13.8431V17.6118C10.3994 17.863 10.5044 18.1029 10.6882 18.2742L11.4529 18.9851C11.4904 19.0215 11.5122 19.0721 11.5116 19.1249C11.5116 19.176 11.4904 19.2249 11.4529 19.2598L10.6882 19.981C10.5016 20.1485 10.3961 20.3872 10.3972 20.638C10.3994 20.8865 10.5022 21.1237 10.6828 21.295L11.4529 22.0162C11.4904 22.051 11.5116 22.0994 11.5116 22.1511C11.5122 22.2038 11.4904 22.2544 11.4529 22.2909L10.6828 23.0072C10.5011 23.1796 10.3978 23.4189 10.3972 23.6691C10.3983 23.9193 10.5038 24.1575 10.6882 24.3261L11.4529 25.0424C11.4904 25.0789 11.5122 25.1294 11.5116 25.1822C11.5116 25.2333 11.4904 25.2823 11.4529 25.3165L10.6936 26.0328C10.5098 26.1966 10.4016 26.4288 10.3956 26.6746C10.3896 26.9205 10.4859 27.1582 10.661 27.3306C10.686 27.3561 10.7127 27.3795 10.742 27.4007L12.6533 28.8921C13.0367 29.1983 13.5953 29.1412 13.908 28.7626L15.7975 26.4957C15.9373 26.3369 16.0124 26.1313 16.008 25.9197V13.8323C16.008 13.7588 16.0499 13.6925 16.1152 13.6598C18.1836 12.7075 19.6559 10.8039 20.0584 8.56249C20.4608 6.32111 19.7424 4.0248 18.1346 2.41216C16.8249 1.10084 15.0448 0.368215 13.1917 0.376917V0.387795ZM13.1917 28.4988C13.1254 28.4988 13.0607 28.476 13.0084 28.4341L11.1298 26.9319L11.0918 26.8998C11.0363 26.8481 11.0031 26.7763 11.0004 26.7007C10.9966 26.611 11.0319 26.5245 11.0972 26.4636L12.2443 25.3867C12.3068 25.3329 12.3422 25.254 12.3411 25.1713C12.3405 25.0914 12.3095 25.0147 12.2552 24.9559L12.3841 24.8216L12.2497 24.9505L11.0972 23.8736C11.0336 23.8187 10.9977 23.7376 11.0004 23.6533C10.9988 23.5701 11.0319 23.4896 11.0918 23.4325L12.2443 22.3556C12.3068 22.3012 12.3422 22.2229 12.3411 22.1402C12.3449 22.0581 12.3112 21.9787 12.2497 21.9248L11.0918 20.8479C11.0336 20.7892 11.0009 20.7098 11.0004 20.6271C10.9998 20.5444 11.0352 20.4661 11.0972 20.4117L12.2443 19.3348C12.3068 19.281 12.3422 19.2021 12.3411 19.1194C12.3443 19.0389 12.3128 18.9606 12.2552 18.9041L11.0972 17.8271C11.0357 17.7706 11.0004 17.6906 11.0004 17.6063V13.5092C11.0015 13.3874 10.9259 13.2775 10.8117 13.2345C7.99484 12.0896 6.38112 9.11128 6.96091 6.12585C7.54015 3.14043 10.1508 0.982269 13.1917 0.974654C16.2484 0.963233 18.8814 3.12683 19.4633 6.12749C20.0448 9.12814 18.4109 12.119 15.5718 13.2508C15.4576 13.2938 15.382 13.4031 15.3831 13.5255V25.9252C15.3847 25.9915 15.3591 26.0551 15.3129 26.103L13.4234 28.3803C13.3652 28.4483 13.2809 28.4874 13.1917 28.488V28.4988ZM11.4148 26.679L13.1917 28.0844L15.0225 25.8876V13.5037C15.023 13.228 15.1916 12.9805 15.4478 12.8794C16.1913 12.5759 16.8663 12.1272 17.4346 11.5599C19.1528 9.84934 19.6695 7.27183 18.7438 5.031C17.8181 2.79017 15.6322 1.32927 13.208 1.32982C10.7823 1.3271 8.59476 2.78745 7.66797 5.02828C6.74063 7.26966 7.25733 9.84879 8.97603 11.5599C9.54657 12.1266 10.2237 12.5753 10.9683 12.8794C11.2245 12.9805 11.3931 13.228 11.3936 13.5037V17.5579L12.5189 18.6348C12.6603 18.7577 12.7392 18.9378 12.7343 19.1249C12.736 19.3131 12.6576 19.4931 12.5189 19.6204L11.442 20.6434L12.5189 21.6665C12.6593 21.7921 12.7381 21.9732 12.7343 22.1614C12.7316 22.3491 12.6538 22.5275 12.5189 22.6569L11.442 23.6691L12.5189 24.6921C12.6478 24.8178 12.7202 24.9913 12.718 25.1713C12.7164 25.3573 12.6386 25.5346 12.5026 25.6614L11.4148 26.679ZM13.1917 6.87588C11.8173 6.81279 10.7355 5.68041 10.7355 4.3049C10.7355 2.92886 11.8173 1.79647 13.1917 1.73393C14.1381 1.69042 15.0323 2.17067 15.5185 2.98379C16.0047 3.79745 16.0047 4.81181 15.5185 5.62547C15.0323 6.43859 14.1381 6.91885 13.1917 6.87588ZM13.1917 2.11084C12.2943 2.1016 11.4817 2.63951 11.1391 3.46894C10.797 4.29838 10.9933 5.25291 11.6357 5.87947C12.0017 6.24279 12.4841 6.46579 12.9981 6.50984V6.1971C12.9981 6.09322 13.0824 6.00892 13.1863 6.00892C13.2907 6.00892 13.375 6.09322 13.375 6.1971V6.48809C14.5596 6.40705 15.4641 5.3965 15.4146 4.21027C15.3646 3.02349 14.379 2.0929 13.1917 2.11084ZM13.1917 5.87947C12.7708 5.87784 12.3666 5.71195 12.0664 5.41662C11.7678 5.11857 11.6008 4.71337 11.6036 4.29131C11.6221 3.65659 12.0115 3.09148 12.5978 2.84782C13.1841 2.60415 13.8591 2.72653 14.3225 3.16056C14.7565 3.62395 14.8789 4.29892 14.6352 4.88524C14.3916 5.47155 13.8265 5.86098 13.1917 5.87947ZM13.1917 3.07462C12.5195 3.07462 11.975 3.61906 11.975 4.29131C11.9707 4.61601 12.0969 4.92929 12.3259 5.16045C12.5548 5.39106 12.8665 5.5205 13.1917 5.51887C13.864 5.51887 14.4084 4.97389 14.4084 4.30219C14.41 3.98075 14.2822 3.67181 14.0533 3.4461C13.8259 3.21603 13.5153 3.08767 13.1917 3.09039V3.07462Z" fill="#E1000F"/>
<path d="M12.9497 35.8918C5.8013 35.8831 0.00939042 30.0906 0.000144256 22.9428C-0.013453 20.0743 0.934551 17.2836 2.69241 15.0172C2.85775 14.8018 3.12589 14.6909 3.39512 14.7262C3.66434 14.7621 3.89387 14.9383 3.99775 15.1896C4.10163 15.4404 4.06411 15.7275 3.89876 15.9429C2.33942 17.9423 1.49748 20.4077 1.50781 22.9428C1.50564 28.1848 5.06432 32.7584 10.1459 34.0447C15.228 35.3305 20.5337 33.001 23.0258 28.3888C25.5174 23.7771 24.5585 18.0619 20.6974 14.5163C20.4815 14.339 20.3809 14.0572 20.4363 13.7837C20.4924 13.5095 20.6947 13.2893 20.9623 13.2104C21.2304 13.1315 21.5198 13.2071 21.715 13.4073C25.6762 17.0073 27.0076 22.6763 25.0632 27.6632C23.1194 32.6502 18.3021 35.9228 12.9497 35.8918Z" fill="#E1000F"/>
<path d="M1.33496 14.1506L4.88331 17.3221L4.69512 13.9619L1.33496 14.1506Z" fill="#E1000F"/>
</svg>
