<svg width="350" height="327" viewBox="0 0 350 327" fill="none" xmlns="http://www.w3.org/2000/svg">
<path d="M317.07 55.7367C314.66 55.7367 312.305 55.0221 310.301 53.6833C308.297 52.3446 306.736 50.4417 305.814 48.2154C304.891 45.9891 304.65 43.5394 305.12 41.176C305.59 38.8126 306.751 36.6416 308.455 34.9377C310.159 33.2338 312.329 32.0734 314.693 31.6033C317.056 31.1331 319.506 31.3744 321.732 32.2966C323.959 33.2187 325.862 34.7804 327.2 36.784C328.539 38.7876 329.254 41.1432 329.254 43.5529C329.251 46.7833 327.966 49.8806 325.682 52.1648C323.398 54.4491 320.3 55.7337 317.07 55.7367ZM317.07 32.8729C314.958 32.8729 312.893 33.4992 311.136 34.6728C309.38 35.8463 308.011 37.5143 307.203 39.4658C306.394 41.4174 306.183 43.5648 306.595 45.6365C307.007 47.7082 308.024 49.6112 309.518 51.1048C311.012 52.5985 312.915 53.6157 314.986 54.0278C317.058 54.4398 319.205 54.2283 321.157 53.42C323.108 52.6116 324.776 51.2428 325.95 49.4864C327.124 47.7301 327.75 45.6652 327.75 43.5529C327.748 40.721 326.622 38.0056 324.62 36.0032C322.617 34.0007 319.902 32.8748 317.07 32.8729ZM13.4157 219.137C13.2674 219.136 13.1227 219.092 12.9996 219.009C12.8766 218.926 12.7807 218.809 12.724 218.672C12.6674 218.535 12.6525 218.384 12.6813 218.239C12.71 218.094 12.7811 217.96 12.8856 217.855L32.6781 198.058C32.748 197.989 32.8309 197.933 32.9222 197.895C33.0135 197.858 33.1113 197.838 33.2101 197.838C33.3089 197.838 33.4067 197.858 33.4979 197.895C33.5892 197.933 33.6722 197.989 33.742 198.058C33.8119 198.128 33.8673 198.211 33.9051 198.303C33.9429 198.394 33.9623 198.492 33.9623 198.59C33.9623 198.689 33.9429 198.787 33.9051 198.878C33.8673 198.97 33.8119 199.052 33.742 199.122L13.9495 218.915C13.8796 218.985 13.7964 219.041 13.7048 219.079C13.6131 219.117 13.5149 219.137 13.4157 219.137Z" fill="#FCC63A"/>
<path d="M33.1931 219.137C33.0939 219.137 32.9957 219.117 32.9041 219.079C32.8124 219.041 32.7293 218.985 32.6593 218.915L12.8668 199.122C12.797 199.052 12.7416 198.97 12.7037 198.878C12.6659 198.787 12.6465 198.689 12.6465 198.59C12.6465 198.492 12.6659 198.394 12.7037 198.302C12.7416 198.211 12.797 198.128 12.8668 198.058C12.9367 197.989 13.0196 197.933 13.1109 197.895C13.2021 197.858 13.3 197.838 13.3988 197.838C13.4975 197.838 13.5954 197.858 13.6866 197.895C13.7779 197.933 13.8608 197.989 13.9307 198.058L33.7157 217.855C33.8202 217.96 33.8913 218.093 33.92 218.239C33.9488 218.384 33.9339 218.535 33.8773 218.672C33.8206 218.809 33.7247 218.926 33.6017 219.009C33.4786 219.092 33.3339 219.136 33.1856 219.137H33.1931ZM218.224 326.354H190.996C190.864 326.354 190.734 326.319 190.62 326.253C190.506 326.187 190.411 326.092 190.345 325.978C190.279 325.864 190.244 325.734 190.244 325.602C190.245 325.47 190.279 325.341 190.345 325.227L203.957 301.649C204.023 301.534 204.118 301.438 204.233 301.372C204.347 301.306 204.477 301.271 204.61 301.271C204.742 301.271 204.872 301.306 204.987 301.372C205.101 301.438 205.196 301.534 205.262 301.649L218.874 325.227C218.94 325.341 218.975 325.47 218.975 325.602C218.975 325.734 218.94 325.864 218.874 325.978C218.809 326.092 218.714 326.187 218.6 326.253C218.485 326.319 218.356 326.354 218.224 326.354ZM192.285 324.851H216.912L204.597 303.528L192.285 324.851ZM252.88 257.342L88.9054 309.708C88.9054 309.708 81.6951 297.243 79.3268 278.424C79.3268 278.424 124.415 189.867 139.475 185.063C154.535 180.258 242.565 226.294 242.565 226.294C251.542 243 252.88 257.342 252.88 257.342Z" fill="#FCC63A"/>
<path d="M88.9052 310.46C88.7734 310.46 88.6439 310.425 88.5297 310.359C88.4156 310.293 88.3208 310.198 88.2549 310.084C88.1835 309.956 80.9394 297.265 78.5786 278.507C76.5221 262.769 78.6029 246.768 84.6159 232.08C92.0029 213.975 100.442 203.554 107.22 195.179C115.867 184.514 121.062 178.078 116.848 164.244C112.269 150.545 104.292 148.32 91.0781 144.632C80.6988 141.737 67.7707 138.136 51.2713 127.662C31.46 115.11 21.0281 97.9342 15.7689 85.7355C10.0698 72.5179 9.03978 62.1047 9.0285 62.0032C9.01171 61.8322 9.05403 61.6605 9.14843 61.5169C9.24282 61.3732 9.38359 61.2663 9.54728 61.2138L173.534 8.84732C173.697 8.79532 173.874 8.8009 174.034 8.86313C174.194 8.92537 174.328 9.04051 174.413 9.18941C174.466 9.27964 179.676 18.362 182.684 32.4367C185.466 45.4212 186.924 65.4618 178.06 87.1865C170.665 105.284 162.23 115.712 155.448 124.08C146.802 134.741 141.606 141.181 145.824 155.015C150.399 168.714 158.376 170.939 171.59 174.623C181.969 177.518 194.898 181.123 211.397 191.592C212.288 192.156 213.171 192.72 214.028 193.322C214.11 193.377 214.18 193.448 214.234 193.531C214.289 193.613 214.326 193.706 214.344 193.803C214.363 193.9 214.362 194 214.342 194.096C214.322 194.193 214.283 194.285 214.228 194.367C214.172 194.448 214.101 194.518 214.018 194.573C213.936 194.627 213.843 194.664 213.746 194.683C213.649 194.701 213.55 194.701 213.453 194.68C213.356 194.66 213.264 194.622 213.183 194.566C212.341 193.991 211.472 193.438 210.596 192.863C194.27 182.514 181.473 178.954 171.192 176.074C157.967 172.383 149.23 169.947 144.396 155.47C139.941 140.854 145.648 133.805 154.283 123.14C161 114.843 169.361 104.517 176.665 86.6189C185.383 65.2512 183.947 45.5302 181.21 32.7487C178.654 20.8168 174.526 12.5727 173.406 10.4713L10.5961 62.4619C10.9044 64.834 12.3254 73.9765 17.1711 85.1941C22.3476 97.1786 32.6066 114.058 52.0758 126.403C68.4022 136.756 81.1988 140.312 91.4841 143.196C104.705 146.884 113.442 149.323 118.28 163.796C122.735 178.412 117.028 185.465 108.389 196.126C101.672 204.427 93.3111 214.753 86.0106 232.651C80.0935 247.099 78.0463 262.841 80.071 278.322C82.1235 294.622 87.909 306.239 89.2699 308.799L252.072 256.812C251.696 253.94 249.681 241.117 241.903 226.648C241.851 226.56 241.817 226.463 241.803 226.362C241.789 226.262 241.796 226.159 241.823 226.061C241.85 225.963 241.896 225.871 241.96 225.791C242.023 225.712 242.102 225.646 242.192 225.598C242.282 225.55 242.38 225.52 242.482 225.511C242.583 225.502 242.685 225.514 242.782 225.546C242.879 225.577 242.968 225.629 243.044 225.696C243.121 225.763 243.183 225.845 243.227 225.937C252.174 242.583 253.625 257.139 253.64 257.27C253.656 257.441 253.613 257.612 253.519 257.755C253.424 257.897 253.284 258.004 253.121 258.056L89.1346 310.426C89.0602 310.449 88.9829 310.46 88.9052 310.46Z" fill="#0063CB"/>
<path d="M94.24 277.3C94.0558 277.301 93.8775 277.235 93.739 277.114C93.6004 276.993 93.5111 276.825 93.4881 276.642C91.7614 263.466 93.4989 250.067 98.5293 237.768C105.078 221.723 112.42 212.652 118.897 204.648C119.023 204.493 119.205 204.395 119.403 204.374C119.602 204.353 119.8 204.412 119.955 204.538C120.11 204.663 120.209 204.845 120.23 205.044C120.251 205.242 120.192 205.441 120.066 205.596C113.653 213.517 106.386 222.494 99.9202 238.339C94.9923 250.4 93.2937 263.537 94.9918 276.454C95.0045 276.552 94.9977 276.652 94.9718 276.747C94.946 276.842 94.9016 276.932 94.8412 277.01C94.7808 277.088 94.7056 277.154 94.6198 277.203C94.5341 277.252 94.4395 277.284 94.3414 277.296L94.24 277.3ZM95.3189 130.189C95.2501 130.188 95.1818 130.178 95.1159 130.159C85.1989 127.396 73.9587 124.257 59.3202 114.975C46.3132 106.727 36.4451 95.2089 29.998 80.7358C29.958 80.6454 29.9362 80.5481 29.9338 80.4493C29.9314 80.3506 29.9485 80.2523 29.9842 80.1602C30.0198 80.068 30.0732 79.9837 30.1413 79.9122C30.2095 79.8407 30.2911 79.7833 30.3814 79.7433C30.4718 79.7033 30.5691 79.6815 30.6679 79.6792C30.7666 79.6768 30.8649 79.6939 30.9571 79.7295C31.0492 79.7651 31.1334 79.8185 31.205 79.8867C31.2765 79.9549 31.3339 80.0364 31.3739 80.1268C37.7045 94.3217 47.3808 105.618 60.1322 113.704C74.5865 122.87 85.6952 125.975 95.5256 128.711C95.7016 128.759 95.8542 128.869 95.955 129.021C96.0558 129.173 96.0979 129.357 96.0736 129.537C96.0492 129.718 95.96 129.884 95.8225 130.004C95.6851 130.124 95.5087 130.189 95.3264 130.189H95.3189Z" fill="#0063CB"/>
<path d="M0 57.1438L178.948 -0.000104365L182.197 10.1738L3.24887 67.3177L0 57.1438Z" fill="#000091"/>
<path d="M80.4644 309.109L259.412 251.965L262.661 262.139L83.7132 319.283L80.4644 309.109Z" fill="#000091"/>
<path d="M173.184 133.177C172.991 133.177 172.805 133.101 172.665 132.967C172.522 132.829 172.44 132.64 172.435 132.441C172.431 132.243 172.506 132.051 172.643 131.907L187.093 116.757C187.231 116.612 187.42 116.528 187.62 116.523C187.819 116.518 188.013 116.593 188.157 116.731C188.302 116.868 188.386 117.058 188.391 117.257C188.396 117.457 188.321 117.65 188.184 117.794L173.733 132.944C173.662 133.019 173.577 133.077 173.483 133.118C173.388 133.158 173.287 133.178 173.184 133.177ZM180.925 145.902C180.744 145.902 180.569 145.837 180.432 145.719C180.295 145.6 180.206 145.436 180.18 145.257C180.155 145.078 180.195 144.895 180.293 144.743C180.391 144.591 180.54 144.479 180.714 144.429L200.8 138.531C200.991 138.474 201.197 138.496 201.372 138.592C201.548 138.687 201.678 138.849 201.734 139.04C201.79 139.231 201.768 139.437 201.673 139.613C201.577 139.788 201.416 139.918 201.225 139.974L181.135 145.884C181.066 145.9 180.995 145.907 180.925 145.902ZM201.623 165.736C201.562 165.736 201.502 165.729 201.443 165.714L178.823 160.229C178.727 160.204 178.637 160.161 178.558 160.101C178.478 160.042 178.412 159.967 178.361 159.882C178.311 159.797 178.278 159.702 178.264 159.604C178.25 159.506 178.255 159.406 178.28 159.31C178.305 159.214 178.348 159.124 178.408 159.044C178.467 158.965 178.542 158.898 178.627 158.848C178.712 158.797 178.807 158.764 178.905 158.75C179.003 158.736 179.103 158.742 179.199 158.767L201.803 164.255C201.981 164.3 202.136 164.407 202.24 164.558C202.344 164.709 202.389 164.892 202.367 165.074C202.346 165.255 202.259 165.423 202.122 165.545C201.986 165.667 201.81 165.735 201.627 165.736H201.623ZM81.4583 162.462C81.4108 162.467 81.3629 162.467 81.3155 162.462L60.7824 158.477C60.6854 158.458 60.593 158.421 60.5106 158.366C60.4281 158.312 60.3572 158.242 60.3019 158.16C60.2466 158.078 60.2079 157.986 60.1881 157.889C60.1683 157.792 60.1678 157.693 60.1865 157.596C60.2053 157.499 60.243 157.406 60.2974 157.324C60.3519 157.241 60.422 157.17 60.5039 157.115C60.5858 157.06 60.6777 157.021 60.7745 157.001C60.8713 156.982 60.9711 156.981 61.0681 157L81.6237 160.973C81.8231 160.992 82.0068 161.09 82.1344 161.244C82.262 161.398 82.3231 161.597 82.3041 161.797C82.2852 161.996 82.1878 162.18 82.0334 162.307C81.879 162.435 81.6803 162.496 81.4809 162.477L81.4583 162.462ZM62.741 184.164C62.563 184.165 62.3906 184.102 62.2544 183.987C62.1183 183.873 62.0273 183.714 61.9975 183.538C61.9677 183.363 62.0012 183.182 62.0919 183.029C62.1826 182.876 62.3247 182.76 62.4928 182.702L82.2816 175.864C82.3759 175.827 82.4765 175.81 82.5775 175.814C82.6785 175.817 82.7778 175.841 82.8694 175.884C82.961 175.926 83.0431 175.987 83.1107 176.062C83.1784 176.137 83.2302 176.225 83.263 176.321C83.2959 176.416 83.3092 176.518 83.302 176.618C83.2949 176.719 83.2675 176.817 83.2215 176.907C83.1755 176.997 83.1119 177.077 83.0343 177.142C82.9568 177.207 82.867 177.255 82.7703 177.285L62.9853 184.123C62.9065 184.149 62.824 184.163 62.741 184.164ZM77.1577 205.483C77.0136 205.483 76.8726 205.441 76.7514 205.363C76.6302 205.285 76.534 205.174 76.4742 205.043C76.4143 204.912 76.3935 204.767 76.414 204.624C76.4346 204.481 76.4957 204.348 76.5901 204.239L91.8301 186.668C91.8913 186.583 91.9696 186.512 92.0599 186.459C92.1501 186.406 92.2504 186.373 92.3543 186.361C92.4582 186.349 92.5634 186.359 92.6632 186.39C92.7631 186.422 92.8553 186.473 92.9341 186.542C93.0128 186.611 93.0764 186.695 93.1207 186.79C93.1649 186.885 93.189 186.988 93.1912 187.092C93.1934 187.197 93.1738 187.3 93.1337 187.397C93.0935 187.494 93.0336 187.581 92.9579 187.653L77.7178 205.224C77.6481 205.304 77.5622 205.369 77.4656 205.413C77.3691 205.458 77.2641 205.482 77.1577 205.483Z" fill="#CE0500"/>
<path d="M279.639 314.396C317.737 314.396 348.622 283.512 348.622 245.414C348.622 207.316 317.737 176.431 279.639 176.431C241.541 176.431 210.657 207.316 210.657 245.414C210.657 283.512 241.541 314.396 279.639 314.396Z" fill="white"/>
<path d="M272.962 177.503C272.763 177.503 272.572 177.424 272.431 177.283C272.29 177.142 272.21 176.95 272.21 176.751V161.597C272.21 161.398 272.29 161.207 272.431 161.066C272.572 160.925 272.763 160.845 272.962 160.845H284.834C285.033 160.845 285.225 160.925 285.366 161.066C285.507 161.207 285.586 161.398 285.586 161.597V176.634C285.586 176.834 285.507 177.025 285.366 177.166C285.225 177.307 285.033 177.386 284.834 177.386C284.635 177.386 284.443 177.307 284.302 177.166C284.161 177.025 284.082 176.834 284.082 176.634V162.349H273.714V176.751C273.714 176.95 273.635 177.142 273.494 177.283C273.353 177.424 273.162 177.503 272.962 177.503Z" fill="#000091"/>
<path d="M279.639 315.148C270.255 315.181 260.962 313.304 252.327 309.63C243.692 305.957 235.895 300.564 229.411 293.781C229.271 293.64 229.193 293.449 229.193 293.251C229.193 293.052 229.271 292.861 229.411 292.72C229.481 292.651 229.564 292.595 229.655 292.557C229.747 292.519 229.845 292.5 229.943 292.5C230.042 292.5 230.14 292.519 230.231 292.557C230.322 292.595 230.405 292.651 230.475 292.72C236.82 299.357 244.449 304.633 252.898 308.227C261.347 311.821 270.439 313.658 279.62 313.626C317.243 313.626 347.851 283.018 347.851 245.395C347.851 207.772 317.243 177.165 279.62 177.165C241.997 177.165 211.389 207.772 211.389 245.395C211.373 258.416 215.096 271.168 222.115 282.134C222.222 282.302 222.259 282.506 222.216 282.701C222.174 282.896 222.055 283.066 221.887 283.174C221.719 283.282 221.515 283.318 221.32 283.275C221.125 283.233 220.955 283.114 220.848 282.946C213.675 271.737 209.87 258.703 209.886 245.395C209.886 206.942 241.167 175.661 279.62 175.661C318.074 175.661 349.354 206.942 349.354 245.395C349.354 283.849 318.089 315.148 279.639 315.148Z" fill="#000091"/>
<path d="M279.639 305.494C312.821 305.494 339.72 278.595 339.72 245.414C339.72 212.232 312.821 185.333 279.639 185.333C246.458 185.333 219.559 212.232 219.559 245.414C219.559 278.595 246.458 305.494 279.639 305.494Z" fill="#18753C"/>
<path d="M284.834 168.503C284.661 168.504 284.493 168.446 284.359 168.338C284.224 168.229 284.13 168.078 284.094 167.909C284.058 167.74 284.081 167.563 284.16 167.409C284.239 167.255 284.368 167.133 284.526 167.063C287.421 165.774 289.786 163.53 291.225 160.706C292.664 157.882 293.089 154.649 292.43 151.549C291.771 148.449 290.068 145.669 287.604 143.674C285.141 141.68 282.068 140.592 278.899 140.592C275.729 140.592 272.656 141.68 270.193 143.674C267.729 145.669 266.026 148.449 265.367 151.549C264.708 154.649 265.133 157.882 266.572 160.706C268.011 163.53 270.376 165.774 273.271 167.063C273.361 167.104 273.443 167.162 273.511 167.234C273.579 167.306 273.632 167.39 273.667 167.483C273.702 167.575 273.719 167.674 273.716 167.773C273.713 167.872 273.691 167.969 273.651 168.06C273.61 168.15 273.552 168.231 273.48 168.299C273.408 168.367 273.324 168.421 273.231 168.456C273.139 168.491 273.04 168.508 272.941 168.505C272.842 168.502 272.745 168.48 272.654 168.439C269.443 167.01 266.821 164.521 265.225 161.389C263.63 158.257 263.158 154.672 263.889 151.234C264.619 147.796 266.509 144.714 269.24 142.502C271.972 140.29 275.38 139.083 278.895 139.083C282.41 139.083 285.818 140.29 288.549 142.502C291.281 144.714 293.17 147.796 293.901 151.234C294.632 154.672 294.16 158.257 292.564 161.389C290.969 164.521 288.346 167.01 285.135 168.439C285.041 168.482 284.938 168.504 284.834 168.503Z" fill="#000091"/>
<path d="M279.639 198.694C279.44 198.694 279.248 198.614 279.107 198.473C278.966 198.332 278.887 198.141 278.887 197.942V193.491C278.887 193.291 278.966 193.1 279.107 192.959C279.248 192.818 279.44 192.739 279.639 192.739C279.838 192.739 280.03 192.818 280.171 192.959C280.312 193.1 280.391 193.291 280.391 193.491V197.942C280.391 198.141 280.312 198.332 280.171 198.473C280.03 198.614 279.838 198.694 279.639 198.694ZM279.639 298.088C279.44 298.088 279.248 298.009 279.107 297.868C278.966 297.727 278.887 297.536 278.887 297.337V292.871C278.887 292.671 278.966 292.48 279.107 292.339C279.248 292.198 279.44 292.119 279.639 292.119C279.838 292.119 280.03 292.198 280.171 292.339C280.312 292.48 280.391 292.671 280.391 292.871V297.322C280.393 297.422 280.375 297.521 280.338 297.614C280.301 297.707 280.246 297.792 280.176 297.863C280.106 297.934 280.023 297.991 279.93 298.03C279.838 298.069 279.739 298.089 279.639 298.088ZM331.558 246.166H327.111C326.912 246.166 326.72 246.086 326.579 245.945C326.438 245.804 326.359 245.613 326.359 245.414C326.359 245.214 326.438 245.023 326.579 244.882C326.72 244.741 326.912 244.662 327.111 244.662H331.558C331.758 244.662 331.949 244.741 332.09 244.882C332.231 245.023 332.31 245.214 332.31 245.414C332.31 245.613 332.231 245.804 332.09 245.945C331.949 246.086 331.758 246.166 331.558 246.166ZM232.167 246.166H227.716C227.517 246.166 227.326 246.086 227.185 245.945C227.044 245.804 226.964 245.613 226.964 245.414C226.964 245.214 227.044 245.023 227.185 244.882C227.326 244.741 227.517 244.662 227.716 244.662H232.167C232.367 244.662 232.558 244.741 232.699 244.882C232.84 245.023 232.919 245.214 232.919 245.414C232.919 245.613 232.84 245.804 232.699 245.945C232.558 246.086 232.367 246.166 232.167 246.166ZM255.888 205.054C255.756 205.055 255.625 205.02 255.51 204.954C255.396 204.888 255.3 204.793 255.234 204.678L253.012 200.821C252.958 200.736 252.921 200.64 252.905 200.54C252.888 200.44 252.892 200.338 252.917 200.239C252.941 200.141 252.984 200.048 253.045 199.967C253.106 199.886 253.183 199.818 253.27 199.767C253.358 199.716 253.455 199.684 253.556 199.672C253.657 199.659 253.759 199.668 253.856 199.696C253.954 199.724 254.044 199.772 254.123 199.836C254.201 199.9 254.266 199.98 254.313 200.07L256.538 203.927C256.638 204.099 256.665 204.304 256.614 204.496C256.562 204.689 256.436 204.853 256.264 204.953C256.15 205.019 256.02 205.054 255.888 205.054ZM305.601 291.13C305.468 291.131 305.338 291.096 305.223 291.03C305.108 290.964 305.013 290.869 304.946 290.754L302.721 286.901C302.621 286.728 302.594 286.522 302.646 286.33C302.698 286.137 302.824 285.972 302.997 285.873C303.17 285.773 303.376 285.746 303.569 285.798C303.761 285.85 303.926 285.976 304.025 286.149L306.262 290.002C306.362 290.175 306.389 290.38 306.337 290.572C306.286 290.765 306.16 290.929 305.988 291.029C305.871 291.098 305.737 291.133 305.601 291.13ZM320.75 222.43C320.585 222.429 320.425 222.375 320.293 222.274C320.162 222.173 320.068 222.032 320.025 221.872C319.983 221.713 319.994 221.544 320.057 221.391C320.12 221.238 320.231 221.11 320.374 221.027L324.228 218.813C324.399 218.723 324.599 218.703 324.786 218.757C324.972 218.811 325.13 218.935 325.227 219.103C325.324 219.271 325.353 219.47 325.306 219.658C325.26 219.847 325.143 220.01 324.98 220.114L321.126 222.339C321.011 222.402 320.881 222.433 320.75 222.43ZM234.671 272.127C234.539 272.127 234.409 272.092 234.295 272.026C234.181 271.96 234.086 271.865 234.02 271.751C233.971 271.666 233.938 271.571 233.925 271.473C233.912 271.375 233.918 271.275 233.944 271.179C233.969 271.083 234.013 270.994 234.074 270.915C234.134 270.836 234.209 270.771 234.295 270.721L238.148 268.499C238.234 268.445 238.329 268.408 238.429 268.392C238.53 268.376 238.632 268.379 238.73 268.404C238.829 268.428 238.921 268.472 239.003 268.532C239.084 268.593 239.152 268.67 239.202 268.758C239.253 268.845 239.286 268.943 239.298 269.043C239.31 269.144 239.302 269.246 239.274 269.343C239.245 269.441 239.198 269.531 239.133 269.61C239.069 269.688 238.99 269.753 238.9 269.8L235.047 272.026C234.933 272.092 234.803 272.127 234.671 272.127ZM303.371 205.054C303.239 205.054 303.11 205.019 302.995 204.953C302.91 204.904 302.835 204.838 302.774 204.76C302.714 204.682 302.67 204.593 302.644 204.497C302.618 204.402 302.611 204.303 302.624 204.205C302.636 204.107 302.668 204.012 302.717 203.927L304.943 200.07C305.042 199.897 305.207 199.77 305.4 199.718C305.592 199.667 305.798 199.694 305.971 199.793C306.144 199.893 306.27 200.057 306.322 200.25C306.374 200.443 306.347 200.648 306.247 200.821L304.022 204.678C303.956 204.793 303.861 204.887 303.747 204.953C303.633 205.019 303.503 205.054 303.371 205.054ZM253.678 291.13C253.545 291.132 253.415 291.096 253.302 291.029C253.129 290.929 253.004 290.765 252.952 290.572C252.901 290.38 252.928 290.175 253.027 290.002L255.249 286.149C255.349 285.976 255.513 285.85 255.706 285.798C255.899 285.746 256.104 285.773 256.277 285.873C256.45 285.972 256.576 286.137 256.628 286.33C256.68 286.522 256.653 286.728 256.553 286.901L254.328 290.754C254.262 290.868 254.167 290.963 254.053 291.029C253.939 291.095 253.809 291.13 253.678 291.13ZM238.524 222.43C238.392 222.429 238.262 222.394 238.148 222.328L234.295 220.103C234.131 219.999 234.014 219.835 233.968 219.647C233.922 219.459 233.95 219.26 234.047 219.092C234.144 218.924 234.303 218.8 234.489 218.746C234.675 218.692 234.875 218.712 235.047 218.802L238.9 221.027C239.043 221.11 239.155 221.238 239.218 221.391C239.281 221.544 239.292 221.713 239.249 221.872C239.206 222.032 239.112 222.173 238.981 222.274C238.85 222.375 238.689 222.429 238.524 222.43ZM324.604 272.127C324.472 272.127 324.342 272.092 324.228 272.026L320.374 269.8C320.285 269.753 320.205 269.688 320.141 269.61C320.077 269.531 320.029 269.441 320.001 269.343C319.973 269.246 319.964 269.144 319.977 269.043C319.989 268.943 320.021 268.845 320.072 268.758C320.123 268.67 320.191 268.593 320.272 268.532C320.353 268.472 320.446 268.428 320.544 268.404C320.643 268.379 320.745 268.376 320.845 268.392C320.945 268.408 321.041 268.445 321.126 268.499L324.98 270.721C325.124 270.803 325.238 270.931 325.302 271.085C325.367 271.238 325.378 271.409 325.335 271.569C325.292 271.73 325.197 271.872 325.065 271.973C324.932 272.074 324.77 272.128 324.604 272.127Z" fill="white"/>
<path d="M277.166 203.63H282.109V255.553H277.166V203.63Z" fill="white"/>
<path d="M279.639 251.102C282.78 251.102 285.327 248.555 285.327 245.414C285.327 242.273 282.78 239.726 279.639 239.726C276.498 239.726 273.951 242.273 273.951 245.414C273.951 248.555 276.498 251.102 279.639 251.102Z" fill="white"/>
<path d="M246.261 102.479H164.775C163.411 102.479 162.072 102.12 160.891 101.438C159.71 100.756 158.729 99.7753 158.047 98.5943C157.365 97.4134 157.006 96.0737 157.006 94.71C157.006 93.3464 157.364 92.0066 158.046 90.8255L198.789 20.2529C199.471 19.0718 200.452 18.091 201.633 17.4091C202.814 16.7272 204.154 16.3682 205.518 16.3682C206.882 16.3682 208.222 16.7272 209.403 17.4091C210.584 18.091 211.565 19.0718 212.247 20.2529L252.993 90.8217C253.676 92.0032 254.035 93.3437 254.036 94.7083C254.036 96.0728 253.676 97.4134 252.994 98.595C252.311 99.7766 251.33 100.758 250.148 101.44C248.966 102.121 247.625 102.48 246.261 102.479Z" fill="#CE0500"/>
<path d="M246.26 98.4532H164.775C164.119 98.4493 163.475 98.2738 162.908 97.944C162.34 97.6142 161.869 97.1417 161.541 96.5734C161.213 96.0051 161.039 95.3608 161.038 94.7046C161.036 94.0485 161.206 93.4032 161.53 92.8331L202.273 22.268C202.605 21.7019 203.079 21.2323 203.648 20.906C204.217 20.5796 204.862 20.408 205.518 20.408C206.174 20.408 206.818 20.5796 207.387 20.906C207.957 21.2323 208.43 21.7019 208.762 22.268L249.497 92.8331C249.822 93.4027 249.992 94.0472 249.99 94.7028C249.989 95.3583 249.816 96.0021 249.488 96.5702C249.161 97.1382 248.691 97.6109 248.125 97.9412C247.559 98.2715 246.916 98.448 246.26 98.4532ZM203.882 23.1966L163.143 93.7654C162.975 94.0517 162.886 94.3773 162.885 94.7093C162.884 95.0412 162.97 95.3675 163.136 95.6551C163.302 95.9427 163.541 96.1812 163.828 96.3465C164.116 96.5118 164.443 96.5979 164.775 96.5961H246.26C246.593 96.5986 246.92 96.513 247.208 96.348C247.496 96.1829 247.736 95.9444 247.902 95.6567C248.068 95.369 248.155 95.0424 248.154 94.7102C248.153 94.378 248.064 94.0519 247.896 93.7654L207.149 23.1966C206.985 22.9082 206.747 22.6684 206.46 22.5016C206.174 22.3349 205.848 22.247 205.516 22.247C205.184 22.247 204.858 22.3349 204.571 22.5016C204.284 22.6684 204.047 22.9082 203.882 23.1966Z" fill="white"/>
<path d="M205.514 77.999C204.805 77.9978 204.123 77.724 203.61 77.2342C203.097 76.7443 202.792 76.076 202.758 75.3675L201.191 45.6693C201.171 45.2953 201.228 44.9212 201.358 44.5698C201.488 44.2184 201.687 43.8971 201.945 43.6253C202.203 43.3535 202.513 43.1369 202.857 42.9888C203.201 42.8406 203.572 42.7639 203.946 42.7634H207.081C207.456 42.7634 207.827 42.8397 208.172 42.9877C208.516 43.1356 208.827 43.3521 209.085 43.6239C209.343 43.8957 209.543 44.2173 209.673 44.5689C209.803 44.9206 209.86 45.295 209.841 45.6693L208.273 75.3675C208.239 76.0766 207.934 76.7455 207.42 77.2355C206.906 77.7254 206.224 77.9988 205.514 77.999Z" fill="white"/>
<path d="M205.518 88.9835C207.363 88.9835 208.86 87.4873 208.86 85.6415C208.86 83.7958 207.363 82.2996 205.518 82.2996C203.672 82.2996 202.176 83.7958 202.176 85.6415C202.176 87.4873 203.672 88.9835 205.518 88.9835Z" fill="white"/>
<path d="M312.175 187.428L317.851 181.753L348.619 212.522L342.944 218.197L312.175 187.428Z" fill="#CE0500"/>
<path d="M342.944 181.751L348.619 187.426L317.85 218.195L312.175 212.519L342.944 181.751Z" fill="#CE0500"/>
</svg>
