<svg width="384" height="409" viewBox="0 0 384 409" fill="none" xmlns="http://www.w3.org/2000/svg">
<path d="M201.145 110.104V125.351H16.9672V110.104C16.9672 108.096 17.7164 106.169 19.05 104.749C20.3836 103.328 22.1923 102.53 24.0783 102.53H194.034C195.92 102.53 197.729 103.328 199.062 104.749C200.396 106.169 201.145 108.096 201.145 110.104Z" fill="#E1000F"/>
<path d="M201.145 256.447V257.204C201.145 259.012 200.471 260.746 199.27 262.024C198.07 263.303 196.442 264.021 194.745 264.021H194.034C195.92 264.021 197.729 263.223 199.062 261.802C200.396 260.382 201.145 258.456 201.145 256.447Z" fill="#7BBF95"/>
<path d="M201.145 125.351V256.447C201.145 258.456 200.396 260.382 199.062 261.803C197.729 263.223 195.92 264.021 194.034 264.021H24.0783C22.1923 264.021 20.3836 263.223 19.05 261.803C17.7164 260.382 16.9672 258.456 16.9672 256.447V125.351H201.145Z" fill="#FFB904"/>
<path d="M73.4899 224.78L55.2214 211.112L59.3139 204.905L73.4899 215.509L89.7103 203.372L105.931 215.509L122.155 203.372L138.379 215.509L152.555 204.902L156.647 211.112L138.379 224.78L122.155 212.642L105.931 224.78L89.7103 212.642L73.4899 224.78Z" fill="white"/>
<path d="M53.6632 171.087L74.3874 149.014L79.4233 154.378L58.6991 176.451L53.6632 171.087Z" fill="white"/>
<path d="M53.6598 154.386L58.6956 149.022L79.4198 171.095L74.384 176.459L53.6598 154.386Z" fill="white"/>
<path d="M132.446 171.085L153.171 149.012L158.206 154.375L137.482 176.449L132.446 171.085Z" fill="white"/>
<path d="M132.447 154.387L137.482 149.023L158.207 171.096L153.171 176.46L132.447 154.387Z" fill="white"/>
<path d="M33.1343 118.182C34.8093 118.182 36.1672 116.736 36.1672 114.952C36.1672 113.168 34.8093 111.722 33.1343 111.722C31.4593 111.722 30.1014 113.168 30.1014 114.952C30.1014 116.736 31.4593 118.182 33.1343 118.182Z" fill="white"/>
<path d="M44.48 118.182C46.1551 118.182 47.5129 116.736 47.5129 114.952C47.5129 113.168 46.1551 111.722 44.48 111.722C42.805 111.722 41.4471 113.168 41.4471 114.952C41.4471 116.736 42.805 118.182 44.48 118.182Z" fill="white"/>
<path d="M55.8259 118.182C57.5009 118.182 58.8587 116.736 58.8587 114.952C58.8587 113.168 57.5009 111.722 55.8259 111.722C54.1508 111.722 52.793 113.168 52.793 114.952C52.793 116.736 54.1508 118.182 55.8259 118.182Z" fill="white"/>
<path d="M185.707 116.599H102.044C101.437 116.599 100.854 116.342 100.424 115.884C99.9944 115.427 99.7529 114.806 99.7529 114.159C99.7529 113.511 99.9944 112.89 100.424 112.433C100.854 111.975 101.437 111.718 102.044 111.718H185.707C186.314 111.718 186.896 111.975 187.326 112.432C187.755 112.889 187.996 113.51 187.996 114.157C187.996 114.803 187.755 115.424 187.326 115.881C186.896 116.339 186.314 116.595 185.707 116.595V116.599ZM223.645 338.02C219.467 339.622 214.571 340.356 210.34 337.944C195.012 329.196 174.382 269.277 174.382 269.277C166.592 268.918 161.468 257.897 161.468 257.897C161.468 257.897 158.343 258.708 157.202 257.541C154.46 254.739 158.204 253.167 158.204 253.167C158.204 253.167 153.554 253.508 153.369 250.641C153.248 248.748 155.552 246.669 158.549 246.123C156.594 245.612 153.404 244.321 153.927 242.624C154.34 241.265 157.675 238.004 163.424 241.515C159.918 238.175 155.911 233.562 158.802 232.142C163.506 229.851 179.694 243.938 189.547 256.909C195.463 264.699 206.027 282.381 213.991 296.018C219.246 298.85 227.054 301.054 236.747 300.308L233.643 332.498L223.645 338.02ZM357.664 320.955C337.842 320.883 328.43 319.959 319.897 314.555C308.196 300.653 297.053 289.303 288.679 273.519C288.679 273.519 288.679 251.637 285.806 251.509C282.933 251.38 280.334 262.306 280.334 262.306C280.334 262.306 272.075 240.447 269.156 241.613C266.237 242.78 270.055 256.792 270.055 256.792C270.055 256.792 264.722 243.393 261.341 244.745C257.959 246.097 263.268 259.768 263.268 259.768C263.268 259.768 258.123 249.63 255.374 250.729C252.626 251.827 259.321 265.074 259.321 265.074C259.321 265.074 254.738 258.753 252.665 259.715C250.592 260.677 263.687 283.574 263.687 283.574C263.687 283.574 301.184 358.78 323.776 359.655C339.229 360.253 349.696 341.754 354.766 330.01L357.664 320.955Z" fill="white"/>
<path d="M362.194 319.8L362.084 320.353C352.046 321.168 341.39 321.111 331.556 319.028C324.203 317.483 320.43 315.415 320.036 314.15L319.979 313.968L319.89 314.54C307.62 300.059 296.96 289.065 288.679 273.523C288.679 270.686 288.498 251.634 285.806 251.509C283.154 251.55 281.028 259.674 280.313 262.215C279.157 259.299 271.886 240.53 269.166 241.606C267.332 242.337 268.292 248.354 268.661 250.414L267.342 250.929C266.343 249.074 263.886 244.635 261.856 244.635C259.122 244.635 260.508 250.82 261.259 253.607L260.011 254.273C259.058 252.94 256.85 250.138 255.389 250.721C253.472 251.479 256.32 258.416 257.166 260.393L256.057 261.283C255.25 260.526 253.66 259.257 252.683 259.708C250.702 260.628 262.589 281.593 263.705 283.566C263.78 283.702 273.234 302.615 285.291 321.311C301.476 346.408 314.446 359.314 323.794 359.678C334.258 360 342.51 351.672 348.327 342.451L349.685 340.292C349.138 365.018 348.441 379.806 348.43 386.354C345.113 392.515 239.57 393.526 229.536 381.896C230.535 365.688 230.677 359.769 232.139 345.321C233.856 328.355 235.918 312.571 237.198 300.256C237.198 300.377 237.173 300.502 237.159 300.634C236.131 300.747 235.099 300.804 234.066 300.805C227.701 300.805 219.133 299.669 213.664 295.575C216.59 284.085 231.111 236.395 240.178 229.495C250.208 221.871 267.022 218.27 279.413 216.998C278.99 220.076 278.702 223.121 279.129 226.234C279.63 229.942 281.017 232.074 283.25 232.57C291.527 234.422 301.454 224.716 306.752 217.755V217.24C321.685 217.668 350.13 221.141 358.663 234.187C368.388 249.017 369.778 282.631 362.194 319.8Z" fill="#18753C"/>
<path d="M348.416 387.089C348.227 387.089 348.047 387.009 347.913 386.867C347.78 386.725 347.705 386.532 347.705 386.331C347.705 383.302 347.89 377.572 348.121 370.32C348.281 365.419 348.459 359.864 348.629 353.717C348.635 353.516 348.715 353.326 348.853 353.188C348.99 353.051 349.173 352.977 349.362 352.983C349.55 352.989 349.729 353.074 349.858 353.22C349.988 353.367 350.057 353.562 350.052 353.763C349.881 359.913 349.696 365.468 349.543 370.373C349.312 377.61 349.127 383.324 349.127 386.331C349.127 386.532 349.052 386.725 348.919 386.867C348.786 387.009 348.605 387.089 348.416 387.089ZM229.522 382.635H229.433C229.34 382.623 229.25 382.591 229.169 382.542C229.087 382.493 229.015 382.427 228.958 382.348C228.901 382.269 228.858 382.179 228.834 382.083C228.809 381.986 228.802 381.886 228.814 381.787C228.921 380.901 229.035 378.787 229.205 375.591C229.511 369.911 230.023 360.375 231.022 348.567C232.149 335.259 234.105 318.324 236.587 296.881C238.03 284.384 239.666 270.247 241.383 254.637C241.405 254.436 241.502 254.253 241.651 254.127C241.8 254.002 241.989 253.945 242.178 253.969C242.366 253.992 242.539 254.095 242.656 254.253C242.774 254.412 242.828 254.614 242.805 254.815C241.085 270.429 239.449 284.581 238.005 297.067C235.517 318.494 233.568 335.418 232.445 348.703C231.449 360.488 230.937 369.998 230.635 375.678C230.46 378.905 230.347 381.037 230.233 381.98C230.21 382.163 230.124 382.33 229.994 382.45C229.863 382.571 229.695 382.637 229.522 382.635ZM350.876 321.596C334.219 321.596 322.94 318.236 320.039 315.389C319.82 315.207 319.64 314.978 319.509 314.717C319.379 314.456 319.301 314.169 319.282 313.874C319.278 313.833 319.278 313.793 319.282 313.753C322.236 294.196 324.128 277.571 325.447 265.279C325.458 265.179 325.486 265.083 325.532 264.995C325.577 264.908 325.639 264.83 325.712 264.768C325.785 264.705 325.87 264.659 325.96 264.631C326.05 264.604 326.145 264.595 326.238 264.606C326.332 264.618 326.422 264.648 326.504 264.697C326.587 264.745 326.659 264.81 326.718 264.888C326.776 264.967 326.82 265.056 326.846 265.153C326.872 265.249 326.88 265.349 326.869 265.449C325.554 277.745 323.669 294.355 320.711 313.904C320.892 314.506 323.741 316.612 331.698 318.282C337.636 319.528 347.605 320.766 361.5 319.638C369.042 282.646 367.716 249.305 358.098 234.596C347.758 218.785 310.382 218.471 310.005 218.467C309.817 218.467 309.636 218.387 309.503 218.245C309.369 218.103 309.294 217.91 309.294 217.71C309.294 217.509 309.369 217.316 309.503 217.174C309.636 217.032 309.817 216.952 310.005 216.952C316.865 217.099 323.703 217.806 330.46 219.069C345.038 221.856 354.72 226.791 359.26 233.733C369.141 248.843 370.521 282.907 362.773 320.512C362.74 320.67 362.661 320.813 362.546 320.919C362.432 321.026 362.288 321.09 362.137 321.103C358.162 321.448 354.396 321.596 350.876 321.596Z" fill="#000091"/>
<path d="M324.512 360.431H323.758C314.158 360.053 301.003 347.041 284.693 321.736C272.789 303.262 263.467 284.668 263.111 283.952C262.909 283.6 259.993 278.48 257.202 273.121C251.246 261.681 251.655 260.306 251.829 259.719C251.873 259.564 251.947 259.42 252.047 259.298C252.147 259.176 252.271 259.078 252.409 259.011C253.579 258.469 255.122 259.412 256.53 260.704C255.051 257.239 253.543 252.933 254.201 251.069C254.277 250.829 254.401 250.61 254.566 250.427C254.731 250.245 254.932 250.103 255.154 250.013C256.818 249.346 258.862 251.391 260.594 253.8C259.748 250.664 259.125 247.169 259.883 245.336C259.994 245.036 260.163 244.763 260.377 244.535C260.592 244.307 260.849 244.128 261.131 244.01C262.93 243.295 265.042 245.203 267.616 249.854C267.744 250.085 267.869 250.312 267.972 250.539C267.925 250.278 267.879 250.009 267.837 249.744C266.965 244.344 267.314 241.526 268.928 240.882C270.126 240.405 271.961 241.261 276.491 251.172C278.002 254.485 279.385 257.879 280.21 259.965C281.234 256.333 283.257 250.615 285.849 250.736C287.982 250.835 288.647 256.447 289.049 262.476C289.365 267.339 289.405 272.247 289.405 273.284C296.05 285.759 304.533 295.56 313.511 305.932C319.047 312.329 324.775 318.944 330.514 326.651C330.631 326.809 330.685 327.01 330.663 327.21C330.642 327.41 330.546 327.592 330.398 327.717C330.25 327.842 330.062 327.9 329.874 327.876C329.686 327.853 329.515 327.752 329.397 327.594C323.709 319.929 317.984 313.336 312.466 306.959C303.389 296.472 294.816 286.569 288.075 273.86C288.013 273.744 287.981 273.614 287.982 273.481C287.982 273.432 287.982 268.266 287.655 263.021C287.033 252.936 285.813 252.247 285.76 252.221C284.669 252.171 282.56 256.072 281.038 262.446C281.002 262.601 280.92 262.74 280.804 262.843C280.689 262.946 280.545 263.007 280.395 263.018C280.245 263.028 280.095 262.988 279.968 262.902C279.841 262.816 279.743 262.69 279.687 262.54C279.669 262.487 277.696 257.28 275.374 252.16C270.919 242.314 269.472 242.265 269.419 242.272C268.327 242.711 268.597 248.547 270.763 256.53C270.809 256.715 270.789 256.911 270.706 257.08C270.622 257.249 270.482 257.378 270.313 257.442C270.144 257.505 269.959 257.499 269.795 257.423C269.63 257.348 269.498 257.209 269.426 257.034C266.987 250.914 263.307 244.726 261.604 245.4C261.5 245.446 261.407 245.515 261.331 245.602C261.255 245.69 261.197 245.794 261.163 245.908C260.125 248.453 262.816 256.511 263.94 259.424C264.015 259.604 264.022 259.809 263.958 259.994C263.894 260.18 263.764 260.331 263.596 260.416C263.429 260.501 263.237 260.513 263.061 260.45C262.885 260.386 262.74 260.251 262.656 260.075C260.313 255.459 256.935 250.865 255.641 251.365C255.613 251.365 255.566 251.395 255.517 251.535C254.866 253.387 257.899 260.556 259.961 264.642C260.046 264.81 260.069 265.005 260.025 265.19C259.981 265.374 259.873 265.534 259.723 265.638C259.573 265.741 259.392 265.781 259.216 265.748C259.04 265.716 258.882 265.615 258.773 265.464C256.85 262.813 254.24 260.261 253.159 260.291C253.195 262.438 258.752 273.386 264.32 283.119L264.341 283.157C264.697 283.914 301.899 357.989 323.812 358.837C338.962 359.428 349.312 340.792 354.133 329.635C354.217 329.462 354.361 329.33 354.534 329.267C354.707 329.204 354.896 329.214 355.062 329.295C355.228 329.377 355.359 329.523 355.426 329.704C355.493 329.885 355.493 330.087 355.424 330.268C350.532 341.652 340.071 360.431 324.512 360.431Z" fill="#000091"/>
<path d="M231.705 301.501H231.669C221.643 300.967 213.646 296.396 213.309 296.2C213.163 296.119 213.048 295.987 212.983 295.826C212.918 295.665 212.907 295.485 212.953 295.317C213.629 292.924 229.568 236.637 239.748 228.893C253.536 218.399 272.459 216.649 272.658 216.634C272.751 216.626 272.845 216.637 272.934 216.668C273.024 216.698 273.106 216.747 273.178 216.812C273.249 216.876 273.308 216.955 273.351 217.044C273.394 217.133 273.42 217.229 273.428 217.329C273.435 217.428 273.425 217.528 273.396 217.623C273.367 217.718 273.321 217.807 273.261 217.883C273.2 217.959 273.126 218.022 273.043 218.067C272.96 218.113 272.869 218.141 272.775 218.149C272.587 218.149 254.037 219.883 240.576 230.127C231.332 237.163 216.27 288.94 214.489 295.151C216.405 296.154 223.442 299.551 231.726 299.994C231.915 299.999 232.094 300.084 232.224 300.229C232.354 300.375 232.424 300.57 232.42 300.771C232.415 300.971 232.335 301.162 232.199 301.301C232.062 301.439 231.879 301.514 231.691 301.509L231.705 301.501ZM216.466 340.262C214.217 340.293 211.996 339.725 210.005 338.611C195.161 330.139 175.972 276.007 173.867 270.016C170.635 269.694 167.392 267.611 164.455 263.957C163.168 262.352 162.036 260.612 161.077 258.765C160.011 258.965 157.792 259.219 156.697 258.098C155.73 257.11 155.335 256.099 155.52 255.099C155.615 254.624 155.823 254.183 156.125 253.819C155.982 253.792 155.84 253.766 155.694 253.732C153.177 253.152 152.708 251.584 152.651 250.702C152.537 248.934 153.998 247.135 156.164 246.108C155.051 245.624 153.881 244.919 153.394 243.988C153.263 243.75 153.181 243.486 153.153 243.213C153.125 242.939 153.151 242.663 153.23 242.401C153.49 241.541 154.493 240.318 156.075 239.663C157.657 239.008 160.224 238.709 163.751 240.863C163.915 240.964 164.034 241.129 164.083 241.324C164.132 241.518 164.107 241.725 164.013 241.899C163.918 242.073 163.763 242.201 163.58 242.253C163.398 242.305 163.204 242.278 163.04 242.177C160 240.322 157.849 240.553 156.583 241.075C155.317 241.598 154.685 242.507 154.578 242.863C154.559 242.926 154.554 242.993 154.562 243.058C154.571 243.124 154.593 243.186 154.628 243.242C155.015 243.976 156.69 244.859 158.699 245.389C158.857 245.431 158.996 245.53 159.094 245.668C159.192 245.807 159.243 245.977 159.237 246.151C159.231 246.324 159.169 246.49 159.062 246.621C158.955 246.752 158.809 246.84 158.649 246.87C155.837 247.381 153.977 249.24 154.062 250.589C154.194 252.634 158.101 252.414 158.141 252.414C158.308 252.404 158.474 252.458 158.608 252.567C158.742 252.675 158.836 252.83 158.873 253.005C158.909 253.18 158.887 253.363 158.809 253.522C158.73 253.68 158.602 253.804 158.446 253.872C158.091 254.023 157.045 254.629 156.907 255.387C156.821 255.849 157.081 256.39 157.675 256.996C158.269 257.602 160.139 257.458 161.284 257.163C161.44 257.123 161.605 257.141 161.751 257.214C161.897 257.287 162.016 257.41 162.087 257.564C162.137 257.67 167.122 268.194 174.4 268.528C174.54 268.534 174.676 268.585 174.789 268.673C174.902 268.761 174.988 268.883 175.037 269.024C175.239 269.618 195.748 328.772 210.66 337.281C214.077 339.232 218.357 339.243 223.389 337.315C223.477 337.278 223.572 337.26 223.667 337.263C223.762 337.265 223.855 337.288 223.942 337.33C224.029 337.371 224.106 337.431 224.171 337.506C224.236 337.58 224.286 337.667 224.318 337.762C224.35 337.858 224.364 337.959 224.359 338.06C224.354 338.161 224.33 338.26 224.289 338.351C224.247 338.442 224.189 338.524 224.117 338.59C224.046 338.657 223.962 338.708 223.872 338.739C221.504 339.695 218.998 340.21 216.466 340.262Z" fill="#000091"/>
<path d="M224.299 314.506C224.182 314.506 224.067 314.475 223.964 314.416C223.861 314.357 223.773 314.272 223.708 314.169C223.239 313.411 221.909 311.12 219.897 307.64C212.38 294.631 196.74 267.584 188.988 257.382C178.652 243.772 163.008 230.922 159.093 232.827C158.624 233.054 158.542 233.327 158.521 233.535C158.393 234.777 160.86 238.871 168.004 244.567C168.118 244.658 168.204 244.785 168.25 244.929C168.296 245.073 168.3 245.229 168.262 245.376C168.224 245.523 168.144 245.654 168.035 245.752C167.925 245.85 167.79 245.911 167.648 245.926C164.747 246.199 160.725 247.275 160.725 248.596C160.725 249.494 162.699 251.44 167.086 252.955C167.232 253.005 167.36 253.104 167.449 253.237C167.538 253.37 167.584 253.53 167.58 253.694C167.652 254.717 167.931 255.712 168.398 256.61C169.159 258.215 170.809 260.62 174.325 262.968C174.407 263.019 174.479 263.087 174.536 263.169C174.593 263.25 174.634 263.342 174.657 263.441C174.679 263.539 174.683 263.641 174.668 263.741C174.653 263.841 174.619 263.937 174.569 264.023C174.518 264.109 174.452 264.183 174.374 264.242C174.297 264.3 174.209 264.341 174.116 264.362C174.023 264.383 173.927 264.385 173.833 264.366C173.74 264.347 173.651 264.308 173.572 264.252C167.442 260.162 166.375 255.78 166.194 254.235C164.345 253.55 159.303 251.421 159.303 248.596C159.303 247.055 160.725 245.923 163.623 245.131C164.395 244.919 165.163 244.752 165.81 244.654C164.828 243.817 163.442 242.586 162.08 241.246C158.556 237.743 156.932 235.186 157.102 233.388C157.147 232.961 157.301 232.555 157.547 232.215C157.793 231.875 158.123 231.614 158.5 231.46C164.036 228.764 181.18 244.715 190.091 256.454C197.913 266.736 213.557 293.844 221.106 306.871C223.036 310.215 224.434 312.627 224.889 313.355C224.993 313.522 225.03 313.726 224.993 313.923C224.956 314.12 224.847 314.292 224.69 314.404C224.571 314.477 224.436 314.513 224.299 314.506Z" fill="#000091"/>
<path d="M216.466 340.262C214.217 340.293 211.996 339.725 210.005 338.611C195.161 330.139 175.972 276.007 173.867 270.016C170.635 269.694 167.392 267.611 164.455 263.957C163.168 262.352 162.036 260.612 161.077 258.765C160.011 258.965 157.792 259.219 156.697 258.098C155.73 257.11 155.335 256.099 155.52 255.099C155.615 254.624 155.823 254.183 156.125 253.819C155.982 253.792 155.84 253.766 155.694 253.732C153.177 253.152 152.708 251.585 152.651 250.702C152.537 248.934 153.998 247.135 156.164 246.108C155.051 245.624 153.881 244.919 153.394 243.988C153.263 243.75 153.181 243.486 153.153 243.213C153.125 242.94 153.151 242.663 153.23 242.401C153.49 241.541 154.493 240.318 156.075 239.663C157.657 239.008 160.224 238.709 163.751 240.863C163.915 240.964 164.034 241.129 164.083 241.324C164.132 241.518 164.107 241.725 164.013 241.899C163.918 242.073 163.763 242.201 163.58 242.253C163.398 242.305 163.204 242.278 163.04 242.178C160 240.322 157.849 240.553 156.583 241.076C155.317 241.598 154.685 242.507 154.578 242.863C154.559 242.926 154.554 242.993 154.562 243.058C154.571 243.124 154.593 243.187 154.628 243.242C155.015 243.976 156.69 244.859 158.699 245.389C158.857 245.431 158.996 245.53 159.094 245.668C159.192 245.807 159.243 245.977 159.237 246.151C159.231 246.324 159.169 246.49 159.062 246.621C158.955 246.752 158.809 246.84 158.649 246.87C155.837 247.381 153.977 249.24 154.062 250.589C154.194 252.634 158.101 252.414 158.141 252.414C158.308 252.404 158.474 252.458 158.608 252.567C158.742 252.675 158.836 252.83 158.873 253.005C158.909 253.18 158.887 253.363 158.809 253.522C158.73 253.68 158.602 253.804 158.446 253.872C158.091 254.023 157.045 254.629 156.907 255.387C156.821 255.849 157.081 256.39 157.675 256.996C158.269 257.602 160.139 257.458 161.284 257.163C161.44 257.123 161.605 257.141 161.751 257.214C161.897 257.287 162.016 257.41 162.087 257.564C162.137 257.67 167.122 268.194 174.4 268.528C174.54 268.534 174.676 268.585 174.789 268.673C174.902 268.761 174.988 268.883 175.037 269.024C175.239 269.618 195.748 328.772 210.66 337.281C214.077 339.232 218.357 339.243 223.389 337.315C223.477 337.278 223.572 337.261 223.667 337.263C223.762 337.265 223.855 337.288 223.942 337.33C224.029 337.372 224.106 337.431 224.171 337.506C224.236 337.58 224.286 337.667 224.318 337.763C224.35 337.858 224.364 337.959 224.359 338.06C224.354 338.161 224.33 338.26 224.289 338.351C224.247 338.442 224.189 338.524 224.117 338.59C224.046 338.657 223.962 338.708 223.872 338.739C221.504 339.695 218.998 340.21 216.466 340.262Z" fill="#000091"/>
<path d="M224.299 314.506C224.182 314.506 224.067 314.475 223.964 314.416C223.861 314.357 223.773 314.272 223.708 314.169C223.239 313.411 221.909 311.12 219.897 307.64C212.38 294.631 196.74 267.584 188.988 257.382C178.652 243.772 163.008 230.922 159.093 232.827C158.624 233.054 158.542 233.327 158.521 233.535C158.393 234.777 160.86 238.871 168.004 244.567C168.118 244.658 168.204 244.785 168.25 244.929C168.296 245.073 168.3 245.229 168.262 245.376C168.224 245.523 168.144 245.654 168.035 245.752C167.925 245.85 167.79 245.911 167.648 245.926C164.747 246.199 160.725 247.275 160.725 248.596C160.725 249.494 162.699 251.44 167.086 252.955C167.232 253.005 167.36 253.104 167.449 253.237C167.538 253.37 167.584 253.53 167.58 253.694C167.652 254.717 167.931 255.712 168.398 256.61C169.159 258.215 170.809 260.62 174.325 262.968C174.407 263.019 174.479 263.087 174.536 263.169C174.593 263.25 174.634 263.342 174.657 263.441C174.679 263.539 174.683 263.641 174.668 263.741C174.653 263.841 174.619 263.937 174.569 264.023C174.518 264.109 174.452 264.183 174.374 264.242C174.297 264.3 174.209 264.341 174.116 264.362C174.023 264.383 173.927 264.385 173.833 264.366C173.74 264.347 173.651 264.308 173.572 264.252C167.442 260.162 166.375 255.78 166.194 254.235C164.345 253.55 159.303 251.421 159.303 248.596C159.303 247.055 160.725 245.923 163.623 245.131C164.395 244.919 165.163 244.752 165.81 244.654C164.828 243.817 163.442 242.586 162.08 241.246C158.556 237.743 156.932 235.186 157.102 233.388C157.147 232.961 157.301 232.555 157.547 232.215C157.793 231.875 158.123 231.614 158.5 231.46C164.036 228.764 181.18 244.715 190.091 256.454C197.913 266.736 213.557 293.844 221.106 306.871C223.036 310.215 224.434 312.627 224.889 313.355C224.993 313.522 225.03 313.726 224.993 313.923C224.956 314.12 224.847 314.292 224.69 314.404C224.571 314.477 224.436 314.513 224.299 314.506Z" fill="#000091"/>
<path d="M306.638 176.34L306.845 217.823C306.845 217.823 294.045 235.471 283.133 233.039C276.832 231.631 279.339 217.581 279.339 217.581L281.092 198.388L306.638 176.34Z" fill="white"/>
<path d="M285.284 234.039C284.517 234.04 283.752 233.958 283.001 233.793C276.196 232.278 278.478 218.463 278.649 217.486L280.398 198.328C280.416 198.127 280.508 197.942 280.654 197.813C280.8 197.684 280.988 197.623 281.177 197.642C281.366 197.661 281.539 197.759 281.66 197.915C281.781 198.07 281.838 198.271 281.821 198.471L280.068 217.664V217.732C279.693 220.059 279.541 222.421 279.616 224.78C279.815 229.275 281.06 231.805 283.31 232.309C293.028 234.479 304.708 219.501 306.162 217.573L306.101 205.743C306.101 205.542 306.176 205.349 306.31 205.207C306.443 205.065 306.624 204.985 306.812 204.985C307.001 204.985 307.182 205.065 307.315 205.207C307.449 205.349 307.524 205.542 307.524 205.743L307.588 217.838C307.587 218.008 307.535 218.173 307.438 218.308C306.923 218.974 295.858 234.039 285.284 234.039Z" fill="#000091"/>
<path d="M293.533 200.373C285.355 204.235 276.16 205.629 268.445 203.826C251.403 199.842 255.374 175.545 256.654 160.162C258.749 134.974 276.082 129.46 292.74 134.289C309.397 139.117 318.958 158.439 314.101 177.438C312.757 182.695 309.956 187.36 306.247 191.28" fill="white"/>
<path d="M275.527 205.368C273.095 205.379 270.669 205.109 268.292 204.565C252.142 200.778 254.116 179.737 255.559 164.362C255.698 162.885 255.833 161.453 255.947 160.094C256.846 149.244 260.537 141.344 266.912 136.614C273.54 131.691 282.777 130.615 292.924 133.558C301.173 135.947 307.989 141.859 312.124 150.194C316.26 158.529 317.191 168.262 314.795 177.639C313.472 182.804 310.77 187.576 306.756 191.818C306.691 191.893 306.612 191.955 306.524 191.997C306.437 192.04 306.342 192.063 306.246 192.065C306.149 192.068 306.054 192.049 305.964 192.011C305.875 191.972 305.794 191.915 305.726 191.843C305.658 191.77 305.604 191.683 305.569 191.588C305.533 191.493 305.516 191.391 305.519 191.288C305.521 191.185 305.543 191.084 305.584 190.991C305.624 190.898 305.681 190.815 305.753 190.746C309.582 186.701 312.178 182.157 313.415 177.234C315.716 168.228 314.809 158.874 310.859 150.895C306.908 142.916 300.416 137.292 292.551 135.012C282.816 132.187 273.998 133.198 267.726 137.848C261.714 142.31 258.226 149.838 257.362 160.222C257.248 161.586 257.113 163.021 256.974 164.505C256.263 172.22 255.431 180.964 256.693 188.345C258.116 196.722 262.027 201.543 268.597 203.08C276.014 204.815 284.996 203.572 293.244 199.672C293.33 199.632 293.422 199.61 293.515 199.607C293.609 199.605 293.702 199.622 293.789 199.658C293.876 199.694 293.956 199.748 294.023 199.816C294.091 199.885 294.145 199.967 294.183 200.058C294.221 200.149 294.242 200.247 294.244 200.347C294.246 200.446 294.23 200.545 294.196 200.638C294.163 200.731 294.112 200.816 294.048 200.888C293.983 200.96 293.906 201.018 293.82 201.058C288.067 203.823 281.839 205.29 275.527 205.368Z" fill="#000091"/>
<path d="M266.77 183.528C265.913 183.528 263.997 183.346 263.317 181.767C263.111 181.278 262.724 179.426 266.553 176.056C266.699 175.934 266.884 175.878 267.068 175.899C267.252 175.92 267.421 176.017 267.54 176.169C267.658 176.321 267.716 176.516 267.701 176.713C267.686 176.91 267.599 177.092 267.46 177.222C265.771 178.711 264.388 180.612 264.615 181.138C264.971 181.994 266.546 182.051 267.065 182.001C267.254 181.983 267.441 182.046 267.587 182.175C267.732 182.304 267.823 182.49 267.84 182.691C267.857 182.892 267.798 183.091 267.677 183.246C267.556 183.401 267.382 183.498 267.193 183.516C267.161 183.516 267.022 183.528 266.77 183.528ZM275.317 176.586C275.276 176.59 275.234 176.59 275.193 176.586C275.101 176.569 275.012 176.533 274.933 176.479C274.854 176.426 274.786 176.357 274.732 176.275C274.678 176.193 274.64 176.101 274.619 176.004C274.599 175.906 274.597 175.806 274.613 175.707L275.033 173.174C275.066 172.977 275.171 172.802 275.326 172.687C275.48 172.572 275.67 172.527 275.856 172.562C276.041 172.596 276.206 172.708 276.314 172.871C276.422 173.035 276.465 173.238 276.434 173.435L276.014 175.969C275.984 176.142 275.897 176.298 275.77 176.411C275.643 176.524 275.483 176.586 275.317 176.586ZM261.205 173.95C261.164 173.954 261.122 173.954 261.081 173.95C260.989 173.933 260.9 173.897 260.821 173.844C260.742 173.79 260.674 173.721 260.62 173.639C260.566 173.558 260.528 173.465 260.507 173.368C260.487 173.271 260.485 173.17 260.501 173.072L260.921 170.538C260.954 170.341 261.059 170.166 261.214 170.051C261.368 169.936 261.558 169.891 261.744 169.926C261.929 169.96 262.094 170.072 262.202 170.235C262.31 170.399 262.353 170.602 262.322 170.799L261.902 173.337C261.871 173.509 261.784 173.665 261.657 173.777C261.53 173.889 261.37 173.95 261.205 173.95ZM278.837 166.543C278.699 166.542 278.563 166.499 278.448 166.417C278.332 166.336 278.241 166.22 278.187 166.085C277.597 164.645 276.157 164.948 276.096 164.979C276.005 165 275.91 165.002 275.819 164.984C275.727 164.966 275.639 164.929 275.56 164.876C275.482 164.822 275.414 164.752 275.361 164.67C275.307 164.589 275.27 164.497 275.25 164.399C275.23 164.302 275.228 164.202 275.245 164.104C275.262 164.006 275.296 163.912 275.347 163.829C275.397 163.745 275.463 163.673 275.539 163.616C275.616 163.559 275.703 163.519 275.794 163.498C276.531 163.322 277.304 163.425 277.978 163.789C278.652 164.153 279.186 164.756 279.488 165.494C279.564 165.676 279.569 165.883 279.503 166.07C279.436 166.256 279.303 166.407 279.133 166.49C279.039 166.529 278.938 166.547 278.837 166.543ZM261.529 163.498C261.397 163.498 261.267 163.458 261.154 163.384C261.042 163.309 260.951 163.203 260.893 163.077C260.834 162.95 260.809 162.809 260.822 162.669C260.834 162.528 260.884 162.395 260.964 162.282C261.418 161.641 262.067 161.186 262.8 160.997C263.533 160.808 264.305 160.895 264.985 161.245C265.072 161.287 265.15 161.347 265.214 161.421C265.279 161.496 265.328 161.583 265.36 161.679C265.393 161.774 265.406 161.875 265.401 161.977C265.396 162.078 265.372 162.177 265.33 162.268C265.288 162.359 265.229 162.44 265.157 162.506C265.085 162.573 265.002 162.623 264.911 162.655C264.821 162.686 264.725 162.698 264.63 162.689C264.536 162.68 264.443 162.652 264.359 162.604C263.037 161.915 262.133 163.15 262.094 163.203C262.028 163.295 261.942 163.369 261.844 163.421C261.746 163.472 261.638 163.498 261.529 163.498ZM269.22 195.373C269.116 195.373 269.012 195.363 268.91 195.343C268.552 195.26 268.221 195.081 267.946 194.823C267.671 194.565 267.462 194.237 267.339 193.87C267.068 193.085 266.997 192.239 267.132 191.415C267.268 190.592 267.605 189.821 268.11 189.182C268.343 188.881 268.644 188.647 268.985 188.503C269.326 188.36 269.695 188.31 270.059 188.36C271.378 188.606 272.16 190.333 271.836 192.291C271.715 193.12 271.375 193.895 270.855 194.525C270.653 194.78 270.403 194.987 270.121 195.133C269.84 195.279 269.533 195.361 269.22 195.373ZM269.749 189.848C269.634 189.862 269.522 189.901 269.42 189.962C269.319 190.024 269.23 190.106 269.159 190.204C268.838 190.63 268.622 191.136 268.533 191.674C268.445 192.212 268.485 192.766 268.651 193.283C268.779 193.609 268.964 193.817 269.156 193.851C269.283 193.853 269.41 193.823 269.524 193.761C269.638 193.7 269.736 193.61 269.81 193.499C270.142 193.08 270.358 192.571 270.436 192.03C270.62 190.893 270.254 189.935 269.813 189.852L269.749 189.848Z" fill="#000091"/>
<path d="M271.124 192.15C271.373 190.634 270.835 189.267 269.922 189.097C269.009 188.926 268.067 190.017 267.817 191.533C267.568 193.05 268.106 194.417 269.019 194.587C269.932 194.758 270.874 193.667 271.124 192.15Z" fill="#000091"/>
<path d="M299.317 165.494C304.676 168.175 301.586 178.4 302.468 180.612C302.884 181.645 306.574 177.018 308.253 175.844C314.101 177.446 301.981 201.236 305.831 201.539C311.52 201.989 341.387 152.152 318.759 145.714C325.138 127.752 294.837 110.161 274.763 108.495C258.279 107.128 264.957 121.913 264.957 121.913C264.957 121.913 250.336 120.318 240.996 132.997C223.833 156.287 292.075 151.86 294.645 153.754C297.216 155.647 293.767 162.71 299.317 165.494Z" fill="#000091"/>
<path d="M305.888 202.292H305.778C305.564 202.277 305.357 202.209 305.172 202.094C304.987 201.979 304.829 201.82 304.711 201.629C303.822 200.224 304.757 196.892 306.489 191.117C308.05 185.902 309.995 179.411 308.85 177.203C308.744 176.987 308.581 176.809 308.38 176.692C307.812 177.158 307.044 177.938 306.297 178.695C304.164 180.861 303.285 181.664 302.503 181.494C302.355 181.461 302.216 181.39 302.1 181.287C301.983 181.184 301.892 181.052 301.835 180.903C301.5 180.066 301.596 178.691 301.724 176.786C301.98 172.999 302.332 167.826 299.036 166.183C295.335 164.331 295.207 160.676 295.125 158.003C295.068 156.363 295.019 154.95 294.272 154.397C293.692 154.11 289.618 153.981 285.301 153.845C269.28 153.337 242.468 152.489 238.144 142.654C236.871 139.757 237.653 136.352 240.469 132.531C248.405 121.757 260.199 121.041 263.908 121.106C263.196 119.019 262.034 114.509 264.142 111.233C265.92 108.476 269.515 107.302 274.852 107.745C289.429 108.953 310.027 118.682 317.518 131.225C320.341 135.966 321.074 140.662 319.712 145.199C326.308 147.452 328.956 153.735 327.435 163.433C324.821 179.665 310.546 202.288 305.888 202.292ZM308.267 175.078C308.326 175.08 308.384 175.089 308.441 175.105C308.79 175.195 309.118 175.363 309.402 175.598C309.686 175.833 309.919 176.13 310.087 176.468C311.509 179.244 309.653 185.512 307.836 191.571C306.823 194.96 305.287 200.084 305.892 200.785C308.633 200.986 323.221 180.74 326.009 163.183C327.467 153.894 324.978 148.259 318.578 146.437C318.482 146.411 318.392 146.364 318.315 146.299C318.237 146.233 318.173 146.152 318.126 146.058C318.081 145.964 318.055 145.861 318.049 145.755C318.044 145.65 318.059 145.544 318.094 145.445C319.623 141.139 319.015 136.632 316.281 132.05C310.421 122.204 292.32 110.714 274.709 109.252C269.92 108.855 266.748 109.805 265.284 112.081C262.98 115.664 265.572 121.522 265.6 121.583C265.655 121.704 265.679 121.839 265.669 121.973C265.658 122.107 265.615 122.236 265.542 122.346C265.47 122.457 265.371 122.544 265.256 122.601C265.142 122.657 265.015 122.679 264.889 122.666C264.747 122.647 250.539 121.276 241.557 133.463C239.104 136.799 238.379 139.673 239.403 142.006C243.356 150.997 271.694 151.894 285.312 152.326C292.011 152.538 294.361 152.636 295.054 153.148C296.384 154.132 296.448 155.984 296.519 157.942C296.612 160.593 296.708 163.35 299.623 164.808C303.804 166.898 303.396 172.92 303.125 176.9C303.035 177.851 303.003 178.807 303.029 179.763C303.819 179.086 304.575 178.366 305.294 177.604C306.094 176.739 306.953 175.939 307.865 175.211C307.984 175.126 308.123 175.08 308.267 175.078Z" fill="#000091"/>
<path d="M305.376 191.443C306.592 193.086 308.171 194.51 310.212 195.105C315.285 196.574 320.942 192.037 322.741 185.001C324.121 179.601 320.452 173.413 315.165 173.545C312.723 173.689 310.353 174.476 308.267 175.836" fill="white"/>
<path d="M312.178 196.142C311.45 196.142 310.725 196.039 310.023 195.835C308.075 195.271 306.325 193.942 304.814 191.912C304.697 191.754 304.644 191.554 304.666 191.354C304.688 191.155 304.784 190.973 304.932 190.848C305.08 190.723 305.268 190.667 305.455 190.69C305.643 190.713 305.814 190.815 305.931 190.973C307.246 192.753 308.75 193.897 310.396 194.381C312.633 195.029 315.076 194.412 317.273 192.647C319.632 190.664 321.313 187.909 322.055 184.808C322.368 183.493 322.394 182.12 322.132 180.794C321.869 179.467 321.325 178.222 320.54 177.154C319.924 176.26 319.117 175.535 318.185 175.04C317.253 174.544 316.224 174.293 315.182 174.306C312.861 174.439 310.606 175.185 308.622 176.476C308.461 176.569 308.273 176.591 308.096 176.539C307.92 176.487 307.769 176.365 307.675 176.198C307.581 176.03 307.551 175.831 307.592 175.641C307.633 175.451 307.741 175.285 307.893 175.177C310.09 173.748 312.587 172.923 315.157 172.776C316.419 172.764 317.665 173.068 318.796 173.663C319.927 174.258 320.911 175.129 321.668 176.204C322.588 177.458 323.227 178.919 323.535 180.477C323.843 182.035 323.813 183.647 323.445 185.19C322.62 188.613 320.759 191.651 318.151 193.836C316.452 195.282 314.353 196.093 312.178 196.142Z" fill="#000091"/>
<path d="M310.453 189.753C310.293 189.754 310.137 189.697 310.011 189.591C309.885 189.485 309.796 189.337 309.759 189.171C309.722 189.004 309.739 188.83 309.807 188.675C309.875 188.52 309.99 188.394 310.133 188.318C311.52 187.579 312.235 186.572 311.957 185.743C311.716 185.035 310.702 184.47 309.298 184.819C309.184 184.847 309.065 184.845 308.952 184.813C308.839 184.781 308.736 184.72 308.65 184.635C308.565 184.55 308.5 184.444 308.463 184.326C308.425 184.208 308.415 184.082 308.434 183.959C309.074 179.755 311.602 178.862 313.056 178.703C315.716 178.411 318.685 180.092 319.25 181.675C319.291 181.77 319.313 181.872 319.315 181.976C319.317 182.079 319.299 182.182 319.262 182.278C319.225 182.374 319.17 182.461 319.1 182.534C319.031 182.606 318.948 182.662 318.857 182.699C318.766 182.736 318.668 182.753 318.571 182.748C318.474 182.743 318.379 182.717 318.291 182.672C318.204 182.626 318.126 182.562 318.063 182.483C318 182.404 317.952 182.312 317.924 182.213C317.632 181.407 315.385 179.971 313.202 180.21C311.616 180.38 310.56 181.384 310.052 183.198C311.726 183.164 312.917 184.103 313.298 185.231C313.728 186.504 313.298 188.337 310.773 189.674C310.674 189.726 310.564 189.754 310.453 189.753Z" fill="#000091"/>
<path d="M306.556 106.136C303.932 106.136 301.202 105.098 299.484 104.129C299.318 104.035 299.192 103.874 299.137 103.682C299.081 103.49 299.099 103.282 299.188 103.104C299.276 102.926 299.427 102.793 299.607 102.734C299.787 102.675 299.982 102.694 300.149 102.788C300.231 102.837 308.448 107.385 311.364 101.993C311.742 101.294 311.946 100.504 311.954 99.6977C311.516 99.6977 311.068 99.6788 310.603 99.6371C304.914 99.1334 298.379 95.3691 296.864 91.7449C296.334 90.4649 296.43 89.2569 297.148 88.2533C298.873 85.8485 302.62 86.1591 306.695 89.0486C308.962 90.6244 310.853 92.7419 312.217 95.2328C312.689 96.1243 313.036 97.0852 313.244 98.0844C314.994 97.861 316.757 97.1377 317.867 95.3691C318.645 94.1194 318.72 92.5175 318.272 90.7717C310.556 90.1733 301.742 84.3829 299.783 79.8991C298.99 78.0775 299.428 76.8392 299.964 76.112C301.742 73.6808 305.742 74.3927 310.45 77.9753C314.005 80.6754 317.852 85.0608 319.339 89.2985C321.945 89.325 325.166 88.6206 326.93 85.413C327.669 84.0898 328.066 82.5822 328.082 81.0428C327.467 81.1456 326.845 81.1963 326.222 81.1943C318.428 81.1943 308.128 73.8891 305.01 68.2161C303.324 65.1562 304.235 63.4671 304.928 62.7362C308.295 59.1688 315.63 61.9031 321.134 66.4437C324.96 69.6021 328.601 74.2602 329.358 79.1303C332.796 77.767 334.464 73.9231 334.311 67.6897C334.309 67.5902 334.325 67.4912 334.358 67.3984C334.392 67.3055 334.442 67.2207 334.507 67.1486C334.571 67.0765 334.648 67.0186 334.734 66.9782C334.819 66.9379 334.911 66.9158 335.004 66.9133C335.098 66.9108 335.191 66.928 335.278 66.9637C335.365 66.9995 335.445 67.0532 335.512 67.1218C335.58 67.1904 335.634 67.2725 335.672 67.3634C335.71 67.4543 335.731 67.5523 335.733 67.6518C335.947 76.487 332.533 79.6264 329.504 80.6792C329.565 82.6156 329.105 84.5302 328.178 86.1969C326.542 89.1773 323.655 90.7641 319.794 90.8323C320.206 92.7637 320.046 94.6193 319.054 96.2174C317.856 98.145 315.929 99.2925 313.404 99.6068C313.406 100.71 313.134 101.795 312.615 102.75C311.228 105.28 308.935 106.136 306.556 106.136ZM300.512 88.151C300.09 88.1208 299.668 88.1978 299.28 88.3756C298.892 88.5534 298.549 88.8269 298.279 89.1735C297.884 89.7264 297.849 90.3665 298.165 91.1277C299.342 93.9528 305.084 97.6262 310.72 98.1261C311.076 98.1564 311.431 98.1791 311.787 98.1791C311.15 95.3085 308.715 92.3054 305.899 90.3097C304.142 89.0599 302.116 88.151 300.512 88.151ZM303.001 76.2181C302.155 76.2181 301.493 76.4908 301.084 77.055C300.932 77.2671 300.469 77.9033 301.084 79.278C302.78 83.19 310.745 88.401 317.746 89.2114C316.324 85.7425 313.205 81.9479 309.632 79.2288C307.04 77.2557 304.665 76.2181 303.004 76.2181H303.001ZM309.184 62.6264C307.808 62.6264 306.674 63.0051 305.927 63.7928C305.038 64.732 305.604 66.2923 306.233 67.4359C309.433 73.2453 320.811 80.861 327.972 79.5128C327.335 75.0138 323.879 70.6133 320.26 67.6291C316.384 64.4253 312.203 62.6264 309.188 62.6264H309.184Z" fill="#E1000F"/>
<circle cx="59" cy="292" r="58" fill="#E1000F"/>
<rect x="30.8286" y="286.2" width="53.0286" height="10.7714" fill="white"/>
<circle cx="59" cy="291.171" r="47.0571" stroke="white" stroke-width="2"/>
</svg>
