<?xml version="1.0" encoding="UTF-8"?>
<svg width="160px" height="69px" viewBox="0 0 160 69" version="1.1" xmlns="http://www.w3.org/2000/svg" xmlns:xlink="http://www.w3.org/1999/xlink">
    <title>fc+@3x</title>
    <defs>
        <radialGradient cx="9.258752%" cy="32.018145%" fx="9.258752%" fy="32.018145%" r="114.33998%" gradientTransform="translate(0.092588,0.320181),scale(1.000000,0.902181),rotate(15.671270),scale(1.000000,0.914618),translate(-0.092588,-0.320181)" id="radialGradient-1">
            <stop stop-color="#034EA2" offset="0%"></stop>
            <stop stop-color="#ED1C24" offset="100%"></stop>
        </radialGradient>
    </defs>
    <g id="FranceConnect+" stroke="none" stroke-width="1" fill="none" fill-rule="evenodd">
        <g id="fc+" transform="translate(0.500000, 0.793032)" fill-rule="nonzero">
            <path d="M31.1848114,1.19117164 L59.2327812,16.8945492 C59.7065607,17.1598069 60,17.6603963 60,18.2033776 L60,49.4105591 C60,49.9535403 59.7065607,50.4541298 59.2327812,50.7193874 L31.1848114,66.422765 C30.7288826,66.6780285 30.1729722,66.6776365 29.7174038,66.4217302 L1.7653736,50.7202468 C1.29262874,50.454692 1,49.9546774 1,49.4124532 L1,18.2014834 C1,17.6592592 1.29262874,17.1592446 1.7653736,16.8936898 L29.7174038,1.19220642 C30.1729722,0.93630016 30.7288826,0.935908149 31.1848114,1.19117164 Z" id="Hexagone" fill="#FFFFFF"></path>
            <path d="M29.2276529,0.320344028 L1.27562267,16.0218274 C0.487714568,16.4644187 0,17.2977764 0,18.2014834 L0,49.4124532 C0,50.3161602 0.487714568,51.1495179 1.27562267,51.5921092 L29.2276529,67.2935926 C29.9869335,67.720103 30.9134508,67.7207564 31.6733323,67.2953172 L59.7213021,51.5919397 C60.5109346,51.1498436 61,50.3155278 61,49.4105591 L61,18.2033776 C61,17.2984088 60.5109346,16.464093 59.7213021,16.021997 L31.6733323,0.318619407 C30.9134508,-0.106819753 29.9869335,-0.1061664 29.2276529,0.320344028 Z M31.1848114,1.19117164 L59.2327812,16.8945492 C59.7065607,17.1598069 60,17.6603963 60,18.2033776 L60,49.4105591 C60,49.9535403 59.7065607,50.4541298 59.2327812,50.7193874 L31.1848114,66.422765 C30.7288826,66.6780285 30.1729722,66.6776365 29.7174038,66.4217302 L1.7653736,50.7202468 C1.29262874,50.454692 1,49.9546774 1,49.4124532 L1,18.2014834 C1,17.6592592 1.29262874,17.1592446 1.7653736,16.8936898 L29.7174038,1.19220642 C30.1729722,0.93630016 30.7288826,0.935908149 31.1848114,1.19117164 Z" id="Hexagone" fill="url(#radialGradient-1)"></path>
            <polygon id="Path" fill="#000091" points="46.1996923 33.5522964 37.6187692 18.7961382 30.2784615 6.20696832 30.2784615 23.4396845 30.2784615 61.0008145 54.0569231 47.2765555 54.0569231 47.2765555"></polygon>
            <polygon id="Path" fill="#000091" points="37.6187692 18.8198914 46.1996923 33.6038914 54.0569231 19.9571222 54.0569231 19.9571222 44.4421538 14.3743529"></polygon>
            <polygon id="Path" fill="#ED1C24" points="44.4421538 14.3743529 30.2784615 6.20696832 37.6187692 18.8198914"></polygon>
            <polygon id="Path" fill="#0069CC" points="37.6187692 18.8198914 30.2784615 6.20696832"></polygon>
            <polygon id="Path" fill="#ED1C24" points="54.0569231 47.3540452 54.0569231 19.9571222 46.1996923 33.6038914"></polygon>
            <polygon id="Path" fill="#000091" points="14.4606154 33.5522964 23.0415385 18.7961382 30.2784615 6.20696832 30.2784615 23.4396845 30.2784615 61.0008145 6.5 47.2765555 6.5 47.2765555"></polygon>
            <polygon id="Path" fill="#ED1C24" points="23.0415385 18.8198914 14.4606154 33.6038914 6.5 19.9571222 6.5 19.9571222 16.1147692 14.3743529"></polygon>
            <polygon id="Path" fill="#000091" points="16.1147692 14.3743529 30.2784615 6.20696832 23.0415385 18.8198914"></polygon>
            <polygon id="Path" fill="#000091" points="6.5 47.3540452 6.5 19.9571222 14.4606154 33.6038914"></polygon>
            <path d="M39.1658462,36.3915837 C39.5793846,36.3915837 39.9929231,36.2881991 40.4064615,36.3915837 C40.7166154,36.4949683 41.1301538,36.4949683 41.1301538,36.5983529 C41.0267692,37.2186606 40.0963077,37.3220452 39.6827692,37.9423529 C39.5793846,37.9423529 39.5793846,37.9423529 39.476,37.9423529 C39.2692308,38.0457375 39.3726154,38.459276 39.1658462,38.459276 C38.9590769,38.3558914 38.7523077,38.459276 38.4421538,38.5626606 C38.7523077,38.8728145 39.1658462,39.0795837 39.5793846,38.9761991 C39.6827692,38.9761991 39.7861538,39.0795837 39.7861538,39.2863529 C39.7861538,39.2863529 39.8895385,39.2863529 39.8895385,39.1829683 C39.9929231,39.1829683 39.9929231,39.1829683 39.9929231,39.2863529 C39.9929231,39.3897375 39.9929231,39.4931222 39.9929231,39.5965068 C39.7861538,39.9066606 39.3726154,39.803276 39.0624615,39.803276 C39.6827692,39.9066606 40.3030769,39.9066606 40.82,39.803276 C41.2335385,39.5965068 40.82,38.8728145 41.1301538,38.5626606 C41.0267692,38.5626606 41.1301538,38.3558914 40.9233846,38.3558914 C41.0267692,38.2525068 41.2335385,37.9423529 41.3369231,37.9423529 C41.4403077,37.9423529 41.7504615,37.8389683 41.7504615,37.7355837 C41.7504615,37.6321991 41.4403077,37.5288145 41.5436923,37.3220452 C41.9572308,37.0118914 42.3707692,36.5983529 42.164,36.0814299 C42.0606154,35.8746606 41.4403077,35.8746606 41.1301538,35.771276 C40.7166154,35.6678914 40.3030769,35.771276 39.8895385,35.8746606 C39.476,35.8746606 39.1658462,36.0814299 38.7523077,36.1848145 C38.2353846,36.3915837 37.8218462,36.7017375 37.3049231,37.0118914 C38.0286154,36.7017375 38.5455385,36.5983529 39.1658462,36.3915837 Z" id="Path" fill="#034EA2"></path>
            <path d="M44.9553846,40.9405068 C44.7486154,40.5269683 44.4384615,40.2168145 44.1283077,39.803276 C43.8181538,39.2863529 43.4046154,38.8728145 43.3012308,38.2525068 C43.0944615,37.6321991 43.3012308,37.115276 43.3012308,36.4949683 C43.3012308,35.3577375 42.9910769,34.2205068 42.6809231,33.1866606 C42.4741538,32.6697375 42.3707692,32.0494299 42.164,31.5325068 C42.0606154,31.2223529 41.9572308,30.9121991 41.7504615,30.6020452 C41.6470769,30.4986606 41.6470769,30.1885068 41.7504615,30.0851222 C42.0606154,29.8783529 42.3707692,29.5681991 42.5775385,29.3614299 C42.7843077,28.9478914 42.5775385,28.4309683 42.2673846,28.2241991 C41.7504615,28.0174299 41.8538462,28.7411222 41.4403077,28.9478914 C41.3369231,28.9478914 41.3369231,28.9478914 41.2335385,28.9478914 C41.1301538,28.7411222 41.3369231,28.6377375 41.4403077,28.5343529 C41.4403077,28.4309683 41.4403077,28.3275837 41.3369231,28.3275837 C41.0267692,28.3275837 40.7166154,28.2241991 40.6132308,28.1208145 C39.7861538,27.0869683 38.7523077,26.5700452 37.6150769,26.1565068 C37.9252308,26.2598914 38.2353846,26.2598914 38.5455385,26.2598914 C39.0624615,26.363276 39.6827692,26.2598914 40.0963077,26.0531222 C40.5098462,25.8463529 40.5098462,25.3294299 40.6132308,24.9158914 C40.7166154,24.8125068 40.6132308,24.7091222 40.6132308,24.5023529 C40.6132308,24.2955837 40.4064615,24.0888145 40.3030769,23.8820452 C40.3030769,23.8820452 40.1996923,23.7786606 40.0963077,23.5718914 C39.2692308,22.6414299 36.0643077,19.9534299 30.068,20.3669683 C27.4833846,20.5737375 24.2784615,21.2974299 20.5566154,23.1583529 C20.4532308,23.1583529 20.3498462,23.2617375 20.1430769,23.2617375 C19.5227692,23.5718914 18.6956923,24.0888145 18.1787692,24.7091222 C17.5584615,25.4328145 17.0415385,26.2598914 16.8347692,27.1903529 C15.9043077,27.8106606 15.284,28.7411222 14.7670769,29.6715837 C14.1467692,30.9121991 13.3196923,31.9460452 13.3196923,33.2900452 C13.3196923,33.3934299 13.3196923,33.4968145 13.3196923,33.4968145 C13.4230769,33.9103529 13.4230769,34.2205068 13.5264615,34.6340452 C13.7332308,35.4611222 13.94,36.2881991 14.0433846,37.115276 C14.1467692,37.5288145 14.2501538,37.9423529 14.3535385,38.3558914 C14.5603077,38.7694299 14.3535385,39.2863529 14.6636923,39.6998914 C14.7670769,39.9066606 14.7670769,40.2168145 15.0772308,40.3201991 C15.0772308,40.4235837 15.0772308,40.5269683 15.0772308,40.6303529 C15.1806154,40.7337375 15.1806154,40.7337375 15.284,40.7337375 C15.284,40.8371222 15.284,40.9405068 15.284,41.0438914 C15.9043077,41.7675837 16.628,42.3878914 17.0415385,43.2149683 C17.2483077,43.6285068 16.3178462,43.4217375 15.9043077,43.3183529 C15.1806154,43.0081991 14.6636923,42.3878914 14.0433846,41.8709683 C14.0433846,41.8709683 13.94,41.9743529 13.94,41.9743529 C14.2501538,42.491276 15.3873846,43.1115837 14.7670769,43.5251222 C14.4569231,43.7318914 14.0433846,43.3183529 13.8366154,43.6285068 C13.7332308,43.7318914 13.8366154,43.9386606 13.8366154,44.0420452 C13.4230769,43.7318914 12.9061538,43.9386606 12.4926154,43.7318914 C12.1824615,43.6285068 12.0790769,43.1115837 11.7689231,43.1115837 C10.8384615,42.9048145 9.908,42.6980452 8.87415385,42.6980452 C8.77076923,42.6980452 8.66738462,42.6980452 8.66738462,42.6980452 C7.73692308,42.5946606 6.80646154,42.491276 5.97938462,42.5946606 L5.97938462,43.6285068 C6.80646154,43.4217375 7.63353846,43.2149683 8.46061538,43.2149683 C8.564,43.2149683 8.66738462,43.2149683 8.66738462,43.2149683 C8.87415385,43.2149683 9.18430769,43.1115837 9.39107692,43.2149683 C9.08092308,43.2149683 8.66738462,43.2149683 8.35723077,43.3183529 C7.53015385,43.4217375 6.70307692,43.7318914 5.876,44.0420452 L5.876,45.0758914 C6.28953846,45.179276 6.80646154,45.179276 7.22,45.2826606 C7.73692308,45.3860452 8.25384615,45.4894299 8.77076923,45.6961991 C9.49446154,45.9029683 10.0113846,46.2131222 10.6316923,46.523276 C10.9418462,46.7300452 11.0452308,46.9368145 11.3553846,47.1435837 C11.7689231,47.3503529 12.2858462,47.3503529 12.596,47.1435837 C12.6993846,47.1435837 12.9061538,47.1435837 13.0095385,47.1435837 C14.1467692,46.8334299 15.284,46.523276 16.0076923,45.5928145 C16.0076923,45.6961991 16.1110769,45.6961991 16.1110769,45.6961991 C15.9043077,46.3165068 15.9043077,46.9368145 15.4907692,47.5571222 C15.4907692,47.6605068 15.3873846,47.7638914 15.5941538,47.867276 C15.6975385,47.867276 15.6975385,47.867276 15.6975385,47.867276 C15.5941538,47.867276 15.5941538,47.867276 15.5941538,47.9706606 C15.5941538,48.0740452 15.8009231,47.9706606 15.9043077,48.0740452 C15.4907692,48.1774299 15.1806154,48.2808145 14.9738462,48.5909683 C14.9738462,48.6943529 15.0772308,48.6943529 15.1806154,48.6943529 C15.0772308,48.7977375 14.7670769,48.7977375 14.7670769,48.9011222 C14.7670769,48.9011222 14.8704615,49.0045068 14.8704615,49.0045068 C14.7670769,49.0045068 14.7670769,49.0045068 14.7670769,49.1078914 C14.7670769,49.211276 14.7670769,49.211276 14.7670769,49.3146606 C14.5603077,49.3146606 14.4569231,49.5214299 14.3535385,49.5214299 C14.6636923,49.7281991 14.8704615,49.5214299 15.1806154,49.5214299 C14.3535385,49.8315837 13.7332308,50.3485068 12.9061538,50.555276 C12.8027692,50.555276 12.9061538,50.7620452 12.8027692,50.7620452 C13.0095385,50.8654299 13.2163077,50.6586606 13.4230769,50.6586606 C13.0095385,50.9688145 12.596,51.1755837 12.1824615,51.3823529 L14.6636923,52.8297375 C15.6975385,52.2094299 16.628,51.4857375 17.4550769,50.555276 C17.4550769,50.555276 17.5584615,50.6586606 17.5584615,50.6586606 C17.3516923,51.3823529 16.9381538,51.899276 16.3178462,52.4161991 C15.9043077,52.6229683 15.5941538,53.0365068 15.284,53.1398914 L17.1449231,54.1737375 C17.5584615,53.8635837 17.8686154,53.6568145 18.3855385,53.4500452 C18.4889231,53.4500452 18.5923077,53.5534299 18.7990769,53.5534299 C19.4193846,52.9331222 20.1430769,52.2094299 21.1769231,52.4161991 C21.1769231,52.5195837 21.1769231,52.5195837 21.2803077,52.5195837 C21.2803077,52.5195837 21.2803077,52.5195837 21.2803077,52.5195837 C21.2803077,52.5195837 21.3836923,52.5195837 21.3836923,52.4161991 C21.3836923,52.5195837 21.3836923,52.5195837 21.2803077,52.5195837 C20.9701538,52.7263529 20.7633846,52.9331222 20.4532308,53.1398914 C20.3498462,53.243276 20.4532308,53.243276 20.5566154,53.243276 C20.9701538,53.0365068 21.1769231,52.8297375 21.4870769,52.6229683 C21.3836923,52.7263529 21.3836923,52.8297375 21.3836923,52.9331222 C20.4532308,53.6568145 19.7295385,54.3805068 19.0058462,55.2075837 L28.8273846,60.8937375 C29.1375385,60.4801991 29.5510769,59.8598914 29.9646154,59.3429683 C31.8255385,56.6549683 34.5135385,53.0365068 35.3406154,52.2094299 C35.6507692,52.0026606 35.9609231,52.0026606 36.3744615,51.899276 C37.6150769,51.899276 38.9590769,52.2094299 40.1996923,52.3128145 C40.3030769,52.3128145 40.5098462,52.4161991 40.6132308,52.4161991 C41.0267692,52.5195837 41.5436923,52.4161991 42.0606154,52.3128145 C42.5775385,52.1060452 43.1978462,51.7958914 43.4046154,51.1755837 C43.6113846,50.6586606 43.7147692,50.0383529 43.4046154,49.5214299 C42.8876923,48.9011222 43.8181538,48.5909683 44.1283077,48.1774299 C44.3350769,47.7638914 43.9215385,47.5571222 43.9215385,47.2469683 C43.8181538,47.1435837 43.508,47.1435837 43.4046154,46.9368145 C43.9215385,46.7300452 44.7486154,46.2131222 44.3350769,45.5928145 C44.1283077,45.179276 43.7147692,44.6623529 44.1283077,44.2488145 C44.6452308,43.9386606 45.4723077,43.9386606 45.6790769,43.4217375 C46.2993846,42.3878914 45.3689231,41.6641991 44.9553846,40.9405068 Z M41.7504615,37.2186606 C41.6470769,37.3220452 41.9572308,37.4254299 41.9572308,37.6321991 C41.8538462,37.7355837 41.6470769,37.8389683 41.5436923,37.8389683 C41.4403077,37.9423529 41.2335385,38.1491222 41.1301538,38.2525068 C41.2335385,38.2525068 41.1301538,38.459276 41.3369231,38.459276 C41.0267692,38.8728145 41.5436923,39.5965068 41.0267692,39.6998914 C40.5098462,39.9066606 39.8895385,39.9066606 39.2692308,39.6998914 C39.5793846,39.5965068 39.9929231,39.803276 40.1996923,39.4931222 C40.1996923,39.3897375 40.1996923,39.2863529 40.1996923,39.1829683 C40.1996923,39.0795837 40.0963077,39.0795837 40.0963077,39.0795837 C39.9929231,39.1829683 39.9929231,39.1829683 39.9929231,39.1829683 C39.9929231,39.0795837 39.7861538,38.8728145 39.7861538,38.8728145 C39.3726154,38.9761991 38.9590769,38.7694299 38.6489231,38.459276 C38.8556923,38.3558914 39.0624615,38.2525068 39.3726154,38.3558914 C39.5793846,38.3558914 39.476,37.9423529 39.6827692,37.8389683 C39.7861538,37.8389683 39.7861538,37.8389683 39.8895385,37.8389683 C40.3030769,37.2186606 41.2335385,37.0118914 41.3369231,36.4949683 C41.3369231,36.3915837 40.9233846,36.3915837 40.6132308,36.2881991 C40.1996923,36.1848145 39.7861538,36.2881991 39.3726154,36.2881991 C38.7523077,36.4949683 38.2353846,36.4949683 37.7184615,36.8051222 C38.132,36.4949683 38.6489231,36.1848145 39.1658462,35.9780452 C39.5793846,35.8746606 39.8895385,35.6678914 40.3030769,35.6678914 C40.7166154,35.5645068 41.2335385,35.4611222 41.5436923,35.5645068 C41.9572308,35.6678914 42.4741538,35.6678914 42.5775385,35.8746606 C42.4741538,36.4949683 42.164,36.9085068 41.7504615,37.2186606 Z" id="Shape" fill="#FFFFFF"></path>
            <path d="M73.155,32.2069683 L73.155,26.5829683 L77.449,26.5829683 L77.449,24.2839683 L73.155,24.2839683 L73.155,21.2059683 L78.209,21.2059683 L78.209,18.9069683 L70.457,18.9069683 L70.457,32.2069683 L73.155,32.2069683 Z M82.674,32.2069683 L82.674,26.2029683 C82.8513332,25.9116351 83.1331668,25.6329683 83.5195,25.3669683 C83.9058332,25.1009683 84.3903332,24.9679683 84.973,24.9679683 C85.1883332,24.9679683 85.3815,24.9806351 85.5525,25.0059683 C85.7235,25.0313016 85.885,25.0629683 86.037,25.1009683 L86.037,22.5739683 C85.923,22.5359683 85.7963332,22.5043016 85.657,22.4789683 C85.5176668,22.4536351 85.3656668,22.4409683 85.201,22.4409683 C84.6563332,22.4409683 84.1781668,22.5518016 83.7665,22.7734683 C83.3548332,22.9951351 82.9906668,23.2643016 82.674,23.5809683 L82.674,22.6309683 L80.261,22.6309683 L80.261,32.2069683 L82.674,32.2069683 Z M90.711,32.5869683 C91.2683332,32.5869683 91.8066668,32.4698016 92.326,32.2354683 C92.8453332,32.0011351 93.257,31.6939683 93.561,31.3139683 L93.561,32.2069683 L95.993,32.2069683 L95.993,26.0129683 C95.993,25.4936351 95.9043332,25.0028016 95.727,24.5404683 C95.5496668,24.0781351 95.2868332,23.6791351 94.9385,23.3434683 C94.5901668,23.0078016 94.15,22.7418016 93.618,22.5454683 C93.086,22.3491351 92.478,22.2509683 91.794,22.2509683 C90.9326668,22.2509683 90.1568332,22.4219683 89.4665,22.7639683 C88.7761668,23.1059683 88.2156668,23.5683016 87.785,24.1509683 L89.571,25.4999683 C89.7863332,25.1326351 90.0808332,24.8508016 90.4545,24.6544683 C90.8281668,24.4581351 91.2493332,24.3599683 91.718,24.3599683 C92.2626668,24.3599683 92.706,24.5088016 93.048,24.8064683 C93.39,25.1041351 93.561,25.5063016 93.561,26.0129683 L93.561,26.2599683 L90.673,26.7539683 C89.647,26.9186351 88.8585,27.2669683 88.3075,27.7989683 C87.7565,28.3309683 87.481,28.9579683 87.481,29.6799683 C87.481,30.5793016 87.7818332,31.2886351 88.3835,31.8079683 C88.9851668,32.3273016 89.761,32.5869683 90.711,32.5869683 Z M91.205,30.6489683 C90.7996668,30.6489683 90.4766668,30.5476351 90.236,30.3449683 C89.9953332,30.1423016 89.875,29.8889683 89.875,29.5849683 C89.875,29.2809683 89.9858332,29.0276351 90.2075,28.8249683 C90.4291668,28.6223016 90.7933332,28.4766351 91.3,28.3879683 L93.561,27.9889683 L93.561,29.2999683 C93.3203332,29.6926351 93.0036668,30.0156351 92.611,30.2689683 C92.2183332,30.5223016 91.7496668,30.6489683 91.205,30.6489683 Z M101.161,32.2069683 L101.161,25.9559683 C101.338333,25.6519683 101.601167,25.3384683 101.9495,25.0154683 C102.297833,24.6924683 102.776,24.5309683 103.384,24.5309683 C103.966667,24.5309683 104.425833,24.7178016 104.7615,25.0914683 C105.097167,25.4651351 105.265,25.9686351 105.265,26.6019683 L105.265,32.2069683 L107.716,32.2069683 L107.716,26.5069683 C107.716,25.7976351 107.617833,25.1769683 107.4215,24.6449683 C107.225167,24.1129683 106.959167,23.6696351 106.6235,23.3149683 C106.287833,22.9603016 105.895167,22.6943016 105.4455,22.5169683 C104.995833,22.3396351 104.511333,22.2509683 103.992,22.2509683 C103.358667,22.2509683 102.810833,22.3618016 102.3485,22.5834683 C101.886167,22.8051351 101.490333,23.0743016 101.161,23.3909683 L101.161,22.6309683 L98.748,22.6309683 L98.748,32.2069683 L101.161,32.2069683 Z M115.05,32.5869683 C115.924,32.5869683 116.706167,32.4096351 117.3965,32.0549683 C118.086833,31.7003016 118.653667,31.2316351 119.097,30.6489683 L117.178,29.1859683 C116.95,29.5153016 116.6555,29.7844683 116.2945,29.9934683 C115.9335,30.2024683 115.518667,30.3069683 115.05,30.3069683 C114.252,30.3069683 113.590167,30.0346351 113.0645,29.4899683 C112.538833,28.9453016 112.276,28.2549683 112.276,27.4189683 C112.276,26.5829683 112.535667,25.8926351 113.055,25.3479683 C113.574333,24.8033016 114.226667,24.5309683 115.012,24.5309683 C115.506,24.5309683 115.9335,24.6354683 116.2945,24.8444683 C116.6555,25.0534683 116.95,25.3226351 117.178,25.6519683 L119.097,24.1889683 C118.653667,23.6063016 118.086833,23.1376351 117.3965,22.7829683 C116.706167,22.4283016 115.924,22.2509683 115.05,22.2509683 C114.226667,22.2509683 113.485667,22.3903016 112.827,22.6689683 C112.168333,22.9476351 111.614167,23.3213016 111.1645,23.7899683 C110.714833,24.2586351 110.369667,24.8064683 110.129,25.4334683 C109.888333,26.0604683 109.768,26.7223016 109.768,27.4189683 C109.768,28.1156351 109.888333,28.7774683 110.129,29.4044683 C110.369667,30.0314683 110.714833,30.5793016 111.1645,31.0479683 C111.614167,31.5166351 112.168333,31.8903016 112.827,32.1689683 C113.485667,32.4476351 114.226667,32.5869683 115.05,32.5869683 Z M125.538,32.5869683 C126.437333,32.5869683 127.248,32.4128016 127.97,32.0644683 C128.692,31.7161351 129.274667,31.2443016 129.718,30.6489683 L127.989,29.2809683 C127.735667,29.6229683 127.4,29.8984683 126.982,30.1074683 C126.564,30.3164683 126.095333,30.4209683 125.576,30.4209683 C124.765333,30.4209683 124.100333,30.1993016 123.581,29.7559683 C123.061667,29.3126351 122.764,28.6983016 122.688,27.9129683 L129.395,27.9129683 C129.433,27.7483016 129.467833,27.5456351 129.4995,27.3049683 C129.531167,27.0643016 129.547,26.8109683 129.547,26.5449683 C129.547,25.2909683 129.141667,24.2618016 128.331,23.4574683 C127.520333,22.6531351 126.456333,22.2509683 125.139,22.2509683 C124.353667,22.2509683 123.657,22.3871351 123.049,22.6594683 C122.441,22.9318016 121.928,23.3023016 121.51,23.7709683 C121.092,24.2396351 120.772167,24.7874683 120.5505,25.4144683 C120.328833,26.0414683 120.218,26.7096351 120.218,27.4189683 C120.218,28.1156351 120.335167,28.7774683 120.5695,29.4044683 C120.803833,30.0314683 121.145833,30.5793016 121.5955,31.0479683 C122.045167,31.5166351 122.6025,31.8903016 123.2675,32.1689683 C123.9325,32.4476351 124.689333,32.5869683 125.538,32.5869683 Z M127.153,26.0889683 L122.84,26.0889683 C123.004667,25.4683016 123.283333,25.0091351 123.676,24.7114683 C124.068667,24.4138016 124.556333,24.2649683 125.139,24.2649683 C125.772333,24.2649683 126.263167,24.4518016 126.6115,24.8254683 C126.959833,25.1991351 127.140333,25.6203016 127.153,26.0889683 Z" id="France" fill="#000091"></path>
            <path d="M76.385,49.5869683 C77.5883332,49.5869683 78.6713332,49.3399683 79.634,48.8459683 C80.5966668,48.3519683 81.382,47.6933016 81.99,46.8699683 L79.862,45.2359683 C79.482,45.7806351 78.9975,46.2208016 78.4085,46.5564683 C77.8195,46.8921351 77.145,47.0599683 76.385,47.0599683 C75.7643332,47.0599683 75.188,46.9428016 74.656,46.7084683 C74.124,46.4741351 73.6711668,46.1574683 73.2975,45.7584683 C72.9238332,45.3594683 72.6293332,44.8844683 72.414,44.3334683 C72.1986668,43.7824683 72.091,43.1903016 72.091,42.5569683 C72.091,41.9236351 72.1986668,41.3314683 72.414,40.7804683 C72.6293332,40.2294683 72.9238332,39.7544683 73.2975,39.3554683 C73.6711668,38.9564683 74.124,38.6398016 74.656,38.4054683 C75.188,38.1711351 75.7643332,38.0539683 76.385,38.0539683 C77.145,38.0539683 77.8195,38.2218016 78.4085,38.5574683 C78.9975,38.8931351 79.482,39.3333016 79.862,39.8779683 L81.99,38.2249683 C81.382,37.4269683 80.5966668,36.7778016 79.634,36.2774683 C78.6713332,35.7771351 77.5883332,35.5269683 76.385,35.5269683 C75.3463332,35.5269683 74.39,35.7169683 73.516,36.0969683 C72.642,36.4769683 71.8946668,36.9836351 71.274,37.6169683 C70.6533332,38.2503016 70.172,38.9944683 69.83,39.8494683 C69.488,40.7044683 69.317,41.6069683 69.317,42.5569683 C69.317,43.5069683 69.488,44.4094683 69.83,45.2644683 C70.172,46.1194683 70.6533332,46.8636351 71.274,47.4969683 C71.8946668,48.1303016 72.642,48.6369683 73.516,49.0169683 C74.39,49.3969683 75.3463332,49.5869683 76.385,49.5869683 Z M88.564,49.5869683 C89.3366668,49.5869683 90.046,49.4508016 90.692,49.1784683 C91.338,48.9061351 91.8921668,48.5388016 92.3545,48.0764683 C92.8168332,47.6141351 93.1746668,47.0663016 93.428,46.4329683 C93.6813332,45.7996351 93.808,45.1283016 93.808,44.4189683 C93.808,43.7096351 93.6813332,43.0383016 93.428,42.4049683 C93.1746668,41.7716351 92.8168332,41.2238016 92.3545,40.7614683 C91.8921668,40.2991351 91.338,39.9318016 90.692,39.6594683 C90.046,39.3871351 89.3366668,39.2509683 88.564,39.2509683 C87.7913332,39.2509683 87.082,39.3871351 86.436,39.6594683 C85.79,39.9318016 85.2358332,40.2991351 84.7735,40.7614683 C84.3111668,41.2238016 83.9533332,41.7716351 83.7,42.4049683 C83.4466668,43.0383016 83.32,43.7096351 83.32,44.4189683 C83.32,45.1283016 83.4466668,45.7996351 83.7,46.4329683 C83.9533332,47.0663016 84.3111668,47.6141351 84.7735,48.0764683 C85.2358332,48.5388016 85.79,48.9061351 86.436,49.1784683 C87.082,49.4508016 87.7913332,49.5869683 88.564,49.5869683 Z M88.602,47.3069683 C87.804,47.3069683 87.1421668,47.0346351 86.6165,46.4899683 C86.0908332,45.9453016 85.828,45.2549683 85.828,44.4189683 C85.828,43.5829683 86.0908332,42.8926351 86.6165,42.3479683 C87.1421668,41.8033016 87.804,41.5309683 88.602,41.5309683 C89.362,41.5309683 90.0016668,41.8033016 90.521,42.3479683 C91.0403332,42.8926351 91.3,43.5829683 91.3,44.4189683 C91.3,45.2423016 91.0403332,45.9294683 90.521,46.4804683 C90.0016668,47.0314683 89.362,47.3069683 88.602,47.3069683 Z M98.425,49.2069683 L98.425,42.9559683 C98.6023332,42.6519683 98.8651668,42.3384683 99.2135,42.0154683 C99.5618332,41.6924683 100.04,41.5309683 100.648,41.5309683 C101.230667,41.5309683 101.689833,41.7178016 102.0255,42.0914683 C102.361167,42.4651351 102.529,42.9686351 102.529,43.6019683 L102.529,49.2069683 L104.98,49.2069683 L104.98,43.5069683 C104.98,42.7976351 104.881833,42.1769683 104.6855,41.6449683 C104.489167,41.1129683 104.223167,40.6696351 103.8875,40.3149683 C103.551833,39.9603016 103.159167,39.6943016 102.7095,39.5169683 C102.259833,39.3396351 101.775333,39.2509683 101.256,39.2509683 C100.622667,39.2509683 100.074833,39.3618016 99.6125,39.5834683 C99.1501668,39.8051351 98.7543332,40.0743016 98.425,40.3909683 L98.425,39.6309683 L96.012,39.6309683 L96.012,49.2069683 L98.425,49.2069683 Z M110.129,49.2069683 L110.129,42.9559683 C110.306333,42.6519683 110.569167,42.3384683 110.9175,42.0154683 C111.265833,41.6924683 111.744,41.5309683 112.352,41.5309683 C112.934667,41.5309683 113.393833,41.7178016 113.7295,42.0914683 C114.065167,42.4651351 114.233,42.9686351 114.233,43.6019683 L114.233,49.2069683 L116.684,49.2069683 L116.684,43.5069683 C116.684,42.7976351 116.585833,42.1769683 116.3895,41.6449683 C116.193167,41.1129683 115.927167,40.6696351 115.5915,40.3149683 C115.255833,39.9603016 114.863167,39.6943016 114.4135,39.5169683 C113.963833,39.3396351 113.479333,39.2509683 112.96,39.2509683 C112.326667,39.2509683 111.778833,39.3618016 111.3165,39.5834683 C110.854167,39.8051351 110.458333,40.0743016 110.129,40.3909683 L110.129,39.6309683 L107.716,39.6309683 L107.716,49.2069683 L110.129,49.2069683 Z M124.056,49.5869683 C124.955333,49.5869683 125.766,49.4128016 126.488,49.0644683 C127.21,48.7161351 127.792667,48.2443016 128.236,47.6489683 L126.507,46.2809683 C126.253667,46.6229683 125.918,46.8984683 125.5,47.1074683 C125.082,47.3164683 124.613333,47.4209683 124.094,47.4209683 C123.283333,47.4209683 122.618333,47.1993016 122.099,46.7559683 C121.579667,46.3126351 121.282,45.6983016 121.206,44.9129683 L127.913,44.9129683 C127.951,44.7483016 127.985833,44.5456351 128.0175,44.3049683 C128.049167,44.0643016 128.065,43.8109683 128.065,43.5449683 C128.065,42.2909683 127.659667,41.2618016 126.849,40.4574683 C126.038333,39.6531351 124.974333,39.2509683 123.657,39.2509683 C122.871667,39.2509683 122.175,39.3871351 121.567,39.6594683 C120.959,39.9318016 120.446,40.3023016 120.028,40.7709683 C119.61,41.2396351 119.290167,41.7874683 119.0685,42.4144683 C118.846833,43.0414683 118.736,43.7096351 118.736,44.4189683 C118.736,45.1156351 118.853167,45.7774683 119.0875,46.4044683 C119.321833,47.0314683 119.663833,47.5793016 120.1135,48.0479683 C120.563167,48.5166351 121.1205,48.8903016 121.7855,49.1689683 C122.4505,49.4476351 123.207333,49.5869683 124.056,49.5869683 Z M125.671,43.0889683 L121.358,43.0889683 C121.522667,42.4683016 121.801333,42.0091351 122.194,41.7114683 C122.586667,41.4138016 123.074333,41.2649683 123.657,41.2649683 C124.290333,41.2649683 124.781167,41.4518016 125.1295,41.8254683 C125.477833,42.1991351 125.658333,42.6203016 125.671,43.0889683 Z M135.019,49.5869683 C135.893,49.5869683 136.675167,49.4096351 137.3655,49.0549683 C138.055833,48.7003016 138.622667,48.2316351 139.066,47.6489683 L137.147,46.1859683 C136.919,46.5153016 136.6245,46.7844683 136.2635,46.9934683 C135.9025,47.2024683 135.487667,47.3069683 135.019,47.3069683 C134.221,47.3069683 133.559167,47.0346351 133.0335,46.4899683 C132.507833,45.9453016 132.245,45.2549683 132.245,44.4189683 C132.245,43.5829683 132.504667,42.8926351 133.024,42.3479683 C133.543333,41.8033016 134.195667,41.5309683 134.981,41.5309683 C135.475,41.5309683 135.9025,41.6354683 136.2635,41.8444683 C136.6245,42.0534683 136.919,42.3226351 137.147,42.6519683 L139.066,41.1889683 C138.622667,40.6063016 138.055833,40.1376351 137.3655,39.7829683 C136.675167,39.4283016 135.893,39.2509683 135.019,39.2509683 C134.195667,39.2509683 133.454667,39.3903016 132.796,39.6689683 C132.137333,39.9476351 131.583167,40.3213016 131.1335,40.7899683 C130.683833,41.2586351 130.338667,41.8064683 130.098,42.4334683 C129.857333,43.0604683 129.737,43.7223016 129.737,44.4189683 C129.737,45.1156351 129.857333,45.7774683 130.098,46.4044683 C130.338667,47.0314683 130.683833,47.5793016 131.1335,48.0479683 C131.583167,48.5166351 132.137333,48.8903016 132.796,49.1689683 C133.454667,49.4476351 134.195667,49.5869683 135.019,49.5869683 Z M145.013,49.3969683 C145.405667,49.3969683 145.750833,49.3716351 146.0485,49.3209683 C146.346167,49.2703016 146.615333,49.1943016 146.856,49.0929683 L146.856,46.9839683 C146.691333,47.0473016 146.495,47.0979683 146.267,47.1359683 C146.039,47.1739683 145.760333,47.1929683 145.431,47.1929683 C144.962333,47.1929683 144.591833,47.0789683 144.3195,46.8509683 C144.047167,46.6229683 143.911,46.2429683 143.911,45.7109683 L143.911,41.8349683 L146.837,41.8349683 L146.837,39.6309683 L143.911,39.6309683 L143.911,37.2369683 L141.479,37.2369683 L141.479,39.6309683 L139.693,39.6309683 L139.693,41.8349683 L141.479,41.8349683 L141.479,45.7109683 C141.479,46.8763016 141.770333,47.7819683 142.353,48.4279683 C142.935667,49.0739683 143.822333,49.3969683 145.013,49.3969683 Z" id="Connect" fill="#ED1C24"></path>
            <polygon id="+" fill="#0A0097" points="154.285 49.2069683 154.285 45.4449683 158.028 45.4449683 158.028 43.3929683 154.285 43.3929683 154.285 39.6309683 152.233 39.6309683 152.233 43.3929683 148.471 43.3929683 148.471 45.4449683 152.233 45.4449683 152.233 49.2069683"></polygon>
        </g>
    </g>
</svg>