<?xml version="1.0" encoding="UTF-8"?>
<svg width="12px" height="10px" viewBox="0 0 12 10" version="1.1" xmlns="http://www.w3.org/2000/svg" xmlns:xlink="http://www.w3.org/1999/xlink">
    <title>↩</title>
    <g id="FC+-—-Mire-+-bandeau" stroke="none" stroke-width="1" fill="none" fill-rule="evenodd">
        <g id="fc+---mire-+-bandeau---xs-" transform="translate(-24.000000, -128.000000)" fill="#3E4553" fill-rule="nonzero">
            <g id="btn-retour/s" transform="translate(16.000000, 118.000000)">
                <path d="M11.3047563,19.3928362 L11.3047563,16.6940693 L16.645919,16.6940693 C17.5713447,16.6940693 18.3617146,16.3675866 19.0170288,15.7146213 C19.6723429,15.0616559 20,14.2724604 20,13.3470346 C20,12.4216089 19.6735173,11.6324134 19.020552,10.979448 C18.3675866,10.3264827 17.5783911,10 16.6529654,10 L16.6529654,10 L15.4762184,10 L15.4762184,11.2190252 L16.6529654,11.2190252 C17.244862,11.2190252 17.7475044,11.4257193 18.1608925,11.8391075 C18.5742807,12.2524956 18.7809748,12.755138 18.7809748,13.3470346 C18.7809748,13.9342337 18.5731063,14.4357017 18.1573693,14.8514386 C17.7416324,15.2671756 17.2378156,15.475044 16.645919,15.475044 L16.645919,15.475044 L11.3047563,15.475044 L11.3047563,12.7833235 L8,16.0880799 L11.3047563,19.3928362 Z" id="↩" transform="translate(14.000000, 14.696418) scale(1, -1) translate(-14.000000, -14.696418) "></path>
            </g>
        </g>
    </g>
</svg>