<?xml version="1.0" encoding="UTF-8"?>
<svg width="12px" height="10px" viewBox="0 0 12 10" version="1.1" xmlns="http://www.w3.org/2000/svg" xmlns:xlink="http://www.w3.org/1999/xlink">
    <title>picto/retour@3x</title>
    <g id="FC+-—-Mire-+-bandeau" stroke="none" stroke-width="1" fill="none" fill-rule="evenodd">
        <g id="fc+---mire-+-bandeau---xs-copy" transform="translate(-24.000000, -123.000000)" fill="#000091" fill-rule="nonzero">
            <path d="M27.3047563,132.392836 L27.3047563,129.694069 L32.645919,129.694069 C33.5713447,129.694069 34.3617146,129.367587 35.0170288,128.714621 C35.6723429,128.061656 36,127.27246 36,126.347035 C36,125.421609 35.6735173,124.632413 35.020552,123.979448 C34.3675866,123.326483 33.5783911,123 32.6529654,123 L32.6529654,123 L31.4762184,123 L31.4762184,124.219025 L32.6529654,124.219025 C33.244862,124.219025 33.7475044,124.425719 34.1608925,124.839107 C34.5742807,125.252496 34.7809748,125.755138 34.7809748,126.347035 C34.7809748,126.934234 34.5731063,127.435702 34.1573693,127.851439 C33.7416324,128.267176 33.2378156,128.475044 32.645919,128.475044 L32.645919,128.475044 L27.3047563,128.475044 L27.3047563,125.783324 L24,129.08808 L27.3047563,132.392836 Z" id="picto/retour" transform="translate(30.000000, 127.696418) scale(1, -1) translate(-30.000000, -127.696418) "></path>
        </g>
    </g>
</svg>