<?xml version="1.0" encoding="UTF-8" standalone="no"?>
<svg
   xmlns:dc="http://purl.org/dc/elements/1.1/"
   xmlns:cc="http://creativecommons.org/ns#"
   xmlns:rdf="http://www.w3.org/1999/02/22-rdf-syntax-ns#"
   xmlns:svg="http://www.w3.org/2000/svg"
   xmlns="http://www.w3.org/2000/svg"
   xmlns:sodipodi="http://sodipodi.sourceforge.net/DTD/sodipodi-0.dtd"
   xmlns:inkscape="http://www.inkscape.org/namespaces/inkscape"
   width="144"
   height="68"
   viewBox="0 0 144 68"
   version="1.1"
   id="svg3859"
   sodipodi:docname="logo.svg"
   inkscape:version="0.92.5 (2060ec1f9f, 2020-04-08)">
  <metadata
     id="metadata3863">
    <rdf:RDF>
      <cc:Work
         rdf:about="">
        <dc:format>image/svg+xml</dc:format>
        <dc:type
           rdf:resource="http://purl.org/dc/dcmitype/StillImage" />
        <dc:title></dc:title>
      </cc:Work>
    </rdf:RDF>
  </metadata>
  <sodipodi:namedview
     pagecolor="#ffffff"
     bordercolor="#666666"
     borderopacity="1"
     objecttolerance="10"
     gridtolerance="10"
     guidetolerance="10"
     inkscape:pageopacity="0"
     inkscape:pageshadow="2"
     inkscape:window-width="3840"
     inkscape:window-height="2272"
     id="namedview3861"
     showgrid="false"
     inkscape:zoom="12.798611"
     inkscape:cx="74.952137"
     inkscape:cy="36.153905"
     inkscape:window-x="0"
     inkscape:window-y="54"
     inkscape:window-maximized="1"
     inkscape:current-layer="g3853" />
  <defs
     id="defs3815">
    <linearGradient
       id="mxyfznui7a"
       x1="0.026768014"
       x2="63.763803"
       y1="31.869707"
       y2="31.869707"
       gradientTransform="scale(0.93708854,1.067135)"
       gradientUnits="userSpaceOnUse">
      <stop
         offset="0%"
         stop-color="#000091"
         id="stop3808" />
      <stop
         offset="48.88%"
         stop-color="#844470"
         id="stop3810" />
      <stop
         offset="100%"
         stop-color="#E1000F"
         id="stop3812" />
    </linearGradient>
  </defs>
  <g
     style="fill:none;fill-rule:evenodd"
     id="g3853">
    <g
       id="g3843">
      <g
         id="g3839"
         style="fill-rule:nonzero">
        <g
           id="g3821">
          <path
             d="m 30.504,1.173 c -0.316,-0.188 -0.885,-0.188 -1.201,0 L 1.62,17.104 c -0.316,0.19 -0.568,0.63 -0.568,1.008 v 31.799 c 0,0.378 0.252,0.819 0.568,1.007 L 29.303,66.85 c 0.316,0.19 0.885,0.19 1.2,0 L 58.186,50.92 c 0.316,-0.19 0.569,-0.63 0.569,-1.008 v -31.8 c 0,-0.378 -0.253,-0.819 -0.569,-1.008 L 30.504,1.174 Z"
             id="path3817"
             inkscape:connector-curvature="0"
             style="fill:#ffffff" />
          <path
             d="m 30.44,1.173 27.683,15.931 c 0.316,0.19 0.569,0.63 0.569,1.008 v 31.799 c 0,0.378 -0.253,0.819 -0.569,1.007 L 30.44,66.85 c -0.19,0.063 -0.379,0.126 -0.568,0.126 -0.19,0 -0.443,-0.063 -0.57,-0.126 L 1.62,50.92 C 1.304,50.73 1.052,50.29 1.052,49.912 v -31.8 c 0,-0.378 0.252,-0.819 0.568,-1.008 L 29.303,1.174 c 0.126,-0.064 0.379,-0.126 0.569,-0.126 0.19,0 0.442,0.062 0.568,0.125 z M 28.797,0.292 1.115,16.222 C 0.483,16.602 0.04,17.42 0.04,18.113 v 31.799 c 0,0.756 0.443,1.511 1.075,1.889 l 27.682,15.931 c 0.38,0.252 0.822,0.252 1.075,0.252 0.252,0 0.695,-0.063 1.074,-0.252 L 58.63,51.8 c 0.632,-0.378 1.074,-1.196 1.074,-1.889 V 18.112 c 0,-0.756 -0.442,-1.511 -1.074,-1.89 L 31.009,0.293 C 30.567,0.04 30.188,0.04 29.872,0.04 c -0.253,0 -0.696,0.063 -1.075,0.252 z"
             id="path3819"
             style="fill:url(#mxyfznui7a)"
             inkscape:connector-curvature="0" />
        </g>
        <path
           d="M 21.78,17.235 21.715,17.17 c 0.064,0 0.064,0 0.064,0.065 z"
           id="path3823"
           inkscape:connector-curvature="0"
           style="fill:#ea212e" />
        <path
           d="M 29.799,59.723 8.23,47.283 C 7.978,47.157 7.789,46.778 7.789,46.525 v -24.5 c 0,-0.316 0.19,-0.632 0.441,-0.758 L 29.86,8.764"
           id="path3825"
           inkscape:connector-curvature="0"
           style="fill:#0053cc" />
        <path
           d="M 7.853,46.415 7.79,21.881 c 0,-0.317 0.19,-0.633 0.441,-0.76 l 21.63,-12.52"
           id="path3827"
           inkscape:connector-curvature="0"
           style="fill:#000091" />
        <path
           d="M 8.277,21.017 14.912,34.406 22.558,21.142 16.05,16.554 Z"
           id="path3829"
           inkscape:connector-curvature="0"
           style="fill:#e1000f" />
        <path
           d="m 37.944,17.235 0.065,-0.065 c -0.065,0 -0.065,0 -0.065,0.065 z"
           id="path3831"
           inkscape:connector-curvature="0"
           style="fill:#ea212e" />
        <path
           d="M 29.925,59.56 51.492,47.136 c 0.252,-0.126 0.441,-0.504 0.441,-0.756 V 21.909 c 0,-0.315 -0.189,-0.63 -0.441,-0.757 L 29.862,8.602"
           id="path3833"
           inkscape:connector-curvature="0"
           style="fill:#000091" />
        <path
           d="m 51.87,46.415 0.063,-24.516 c 0,-0.315 -0.189,-0.63 -0.441,-0.756 L 29.862,8.601"
           id="path3835"
           inkscape:connector-curvature="0"
           style="fill:#e1000f" />
        <path
           d="M 51.284,20.949 44.775,34.243 37.002,20.886 43.448,16.391 Z"
           id="path3837"
           inkscape:connector-curvature="0"
           style="fill:#0053cc" />
      </g>
      <path
         d="m 38.06,20.38 c 0.507,0.255 0.979,0.583 1.306,1.093 0.145,0.219 0.326,0.62 0.217,0.912 -0.145,0.327 -0.217,0.91 -0.544,1.02 -0.4,0.22 -0.944,0.22 -1.452,0.146 -0.29,0 -0.544,-0.073 -0.834,-0.146 1.016,0.401 1.996,0.911 2.685,1.86 0.073,0.145 0.327,0.218 0.617,0.218 0.073,0 0.073,0.146 0.073,0.219 -0.145,0.146 -0.29,0.219 -0.218,0.4 h 0.218 c 0.326,-0.145 0.29,-0.837 0.762,-0.619 0.326,0.219 0.471,0.693 0.29,1.021 -0.29,0.292 -0.544,0.474 -0.835,0.693 -0.072,0.146 -0.072,0.328 0,0.474 0.218,0.292 0.29,0.547 0.327,0.838 0.218,0.474 0.29,1.021 0.472,1.531 0.29,1.021 0.544,2.078 0.471,3.1 0,0.546 -0.29,1.02 -0.072,1.567 0.145,0.547 0.471,0.948 0.762,1.458 0.29,0.401 0.544,0.693 0.762,1.094 0.088,0.154 0.195,0.308 0.304,0.463 l 0.109,0.155 c 0.342,0.494 0.651,1.005 0.422,1.57 -0.218,0.473 -0.944,0.4 -1.452,0.692 -0.399,0.328 -0.072,0.912 0.145,1.24 0.327,0.62 -0.399,1.02 -0.907,1.24 0.145,0.218 0.4,0.145 0.471,0.29 0.073,0.329 0.4,0.548 0.219,0.912 -0.084,0.115 -0.208,0.214 -0.334,0.313 l -0.095,0.074 c -0.28,0.222 -0.518,0.454 -0.26,0.853 0.29,0.474 0.108,1.02 -0.074,1.531 -0.218,0.62 -0.762,0.911 -1.233,1.021 -0.4,0.145 -0.908,0.145 -1.306,0.073 -0.146,-0.073 -0.291,-0.146 -0.4,-0.146 -1.161,-0.146 -2.322,-0.474 -3.483,-0.474 -0.327,0.073 -0.69,0.146 -0.944,0.255 -0.327,0.219 -0.58,0.474 -0.835,0.73 -0.036,0.072 -0.109,0.108 -0.145,0.182 -0.036,0.036 -0.072,0.072 -0.072,0.109 l -0.022,0.022 -0.03,0.03 -0.02,0.02 c -0.219,0.256 -0.364,0.511 -0.545,0.803 0,0.036 -0.037,0.036 -0.037,0.036 0,0.037 -0.036,0.073 -0.072,0.11 -0.218,0.4 -0.4,0.838 -0.508,1.276 -0.472,1.567 -0.254,2.916 0.072,3.245 0.218,0.218 2.831,1.028 5.13,1.782 -4.016,3.354 -7.262,5.03 -9.738,5.03 -3.419,0 -9.153,-2.271 -17.203,-6.815 1.949,0 1.671,0.78 3.486,-0.128 0.87,-0.364 2.83,-1.273 3.484,-1.927 0.399,-0.4 0.798,-0.8 1.16,-1.236 0.727,-0.836 1.452,-1.6 2.287,-2.327 0.254,-0.218 0.508,-0.437 0.762,-0.582 0.073,-0.073 0.073,-0.218 0.145,-0.29 -0.326,0.145 -0.544,0.4 -0.907,0.545 -0.073,0 -0.145,-0.073 -0.073,-0.146 0.254,-0.182 0.508,-0.363 0.726,-0.545 h -0.036 c -0.073,0 -0.073,-0.073 -0.073,-0.146 -0.907,-0.145 -1.56,0.473 -2.177,1.018 -0.145,0.073 -0.29,-0.072 -0.326,-0.072 -1.017,0.327 -1.779,1.236 -2.795,1.636 v -0.146 c -0.399,0.146 -0.798,0.4 -1.233,0.473 -0.617,0.145 -1.162,0.073 -1.706,0.073 -0.835,0.072 -1.67,0.254 -2.504,0.436 -0.036,0 -0.036,0 -0.072,0.036 -0.436,0.11 -0.871,0.291 -1.27,0.51 l -0.037,0.036 -0.109,0.109 c -0.145,0.145 -0.29,0.327 -0.472,0.4 -0.435,0.218 -0.762,0.581 -1.125,0.909 -0.036,0.036 -0.072,0.036 -0.108,0.036 -0.363,0.364 0.072,-0.727 0.471,-0.982 -0.036,0 -0.109,-0.036 -0.072,-0.072 0.036,-0.073 0.072,-0.11 0.109,-0.182 0,-0.037 0,-0.037 0.036,-0.073 L 7.789,51.222 7.765,51.192 C 7.761,51.187 7.759,51.181 7.759,51.172 7.649,51.244 7.541,51.317 7.432,51.39 7.251,51.535 7.323,50.699 7.505,50.59 H 7.468 C 7.722,50.444 8.013,50.299 8.267,50.153 L 8.375,50.044 C 7.976,50.19 7.65,50.372 7.287,50.59 c 0,0 0,-0.255 0.11,-0.364 0.071,0 0.144,0 0.144,0.073 1.316,-1.016 2.914,-1.287 4.528,-1.522 l 0.44,-0.064 c 0.954,-0.14 1.905,-0.29 2.798,-0.596 0.217,-0.145 0.399,-0.29 0.616,-0.4 0.327,-0.145 0.617,-0.472 1.016,-0.69 0.545,-0.4 0.944,-0.91 1.162,-1.563 0,-0.073 -0.072,-0.146 -0.072,-0.146 -0.908,0.945 -1.924,1.709 -3.013,2.254 -1.451,0.764 -3.012,0.618 -4.536,0.837 0.073,-0.146 0.218,-0.146 0.327,-0.146 0,-0.218 0.145,-0.291 0.29,-0.4 h 0.218 c 0.072,0 0.072,-0.145 0.145,-0.145 0.145,0 0.363,-0.073 0.29,-0.073 -0.217,-0.291 -0.616,0.218 -0.943,0 0.145,-0.145 0.073,-0.327 0.218,-0.4 h 0.29 c 0,-0.146 0.145,-0.29 0.145,-0.29 1.016,-0.62 1.996,-1.091 2.94,-1.637 -0.218,0 -0.327,0.218 -0.545,0.073 0.146,0 0,-0.218 0.146,-0.218 0.761,-0.218 1.378,-0.618 2.14,-0.91 -0.29,0 -0.472,0.219 -0.762,0 0.145,-0.072 0.218,-0.217 0.4,-0.217 v -0.218 c 0,-0.074 0.072,-0.074 0.144,-0.074 -0.072,0 -0.145,-0.072 -0.145,-0.072 0.073,-0.146 0.291,-0.073 0.4,-0.218 -0.073,0 -0.218,0 -0.218,-0.073 0.217,-0.29 0.544,-0.327 0.907,-0.4 -0.073,-0.145 -0.29,0 -0.29,-0.145 0,-0.063 0.053,-0.071 0.114,-0.073 h -0.114 c -0.146,-0.073 -0.073,-0.218 -0.073,-0.291 0.4,-0.472 0.4,-1.09 0.617,-1.636 -0.073,0 -0.145,0 -0.145,-0.072 -0.69,0.763 -1.778,1.018 -2.794,1.308 H 13.71 c -0.326,0.146 -0.835,0.146 -1.161,-0.072 -0.29,-0.146 -0.4,-0.328 -0.69,-0.546 -0.544,-0.327 -1.088,-0.618 -1.705,-0.836 -1.706,-0.545 -3.484,-0.836 -5.262,-0.763 0.762,-0.4 1.597,-0.437 2.395,-0.691 1.161,-0.327 2.25,-0.764 3.484,-0.691 -0.218,-0.073 -0.472,0 -0.69,0 -0.944,-0.073 -1.923,0.218 -2.94,0.4 -0.689,0.145 -1.306,0.4 -1.995,0.545 -0.4,0.146 -0.617,0.546 -1.089,0.473 v -0.218 c 0.69,-0.836 1.525,-1.636 2.613,-1.709 1.234,-0.218 2.395,0 3.629,0.146 0.907,0.072 1.705,0.29 2.612,0.472 0.327,0 0.4,0.545 0.69,0.618 0.4,0.145 0.835,0 1.234,0.29 0,-0.145 -0.073,-0.29 0,-0.399 0.29,-0.29 0.617,0.073 0.907,-0.073 0.544,-0.327 -0.472,-0.945 -0.762,-1.454 0,-0.073 0.073,-0.145 0.073,-0.145 0.544,0.472 0.943,1.018 1.633,1.381 0.326,0.146 1.16,0.327 1.015,-0.072 -0.326,-0.764 -1.015,-1.382 -1.596,-2.073 v -0.29 c -0.145,0 -0.145,-0.073 -0.218,-0.146 v -0.29 c -0.29,-0.146 -0.218,-0.401 -0.326,-0.62 -0.218,-0.326 -0.073,-0.835 -0.218,-1.235 -0.145,-0.4 -0.218,-0.764 -0.29,-1.164 -0.218,-1.163 -0.472,-2.181 -0.617,-3.308 -0.145,-1.309 0.762,-2.327 1.379,-3.49 0.471,-0.836 1.016,-1.636 1.923,-2.182 0.218,-0.836 0.762,-1.527 1.306,-2.18 0.545,-0.656 1.452,-1.091 2.105,-1.383 0.876,-0.404 1.34,-0.547 1.802,-0.686 0.002,-10e-4 0.01,-0.003 0.012,-0.005 0.67,-0.294 9.477,-2.146 13.753,0 0.091,0.046 0.073,0 0.363,0.183 0.327,0.182 0.726,0.4 0.98,0.51 z M 4.833,40.32 c 0,0.32 -0.215,0.604 -0.536,0.675 0.536,0.142 1.073,0.142 1.61,0.391 -0.072,0.142 -0.215,0.071 -0.286,0.071 0.322,0.213 0.751,0.071 1.074,0.32 -0.215,0.213 -0.394,0 -0.609,0 2.112,0.604 4.33,1.066 6.085,2.417 -1.503,0.747 -3.042,1.067 -4.653,1.422 -0.215,0 -0.322,0 -0.537,-0.071 0,0.071 0,0.213 -0.071,0.213 -0.287,0 -0.466,0 -0.68,0.142 -0.252,0.214 -0.645,0.285 -0.86,0.071 -0.071,-0.07 0.215,0 0.287,-0.141 H 5.12 C 5.048,45.83 5.048,45.758 5.048,45.688 4.726,45.758 4.297,45.9 3.974,45.971 3.509,46.114 3.724,43.803 4.046,43.661 3.974,43.59 3.831,43.59 3.831,43.448 c -0.286,0 -0.393,-0.711 -0.215,-0.747 0.287,-0.07 0.609,-0.07 0.824,-0.284 -0.466,-0.071 -0.609,-1.742 0.178,-2.169 0.072,0 0.215,0 0.215,0.072 z m 3.118,6.279 c -0.434,0.445 -0.977,0.243 -1.446,0.445 -0.146,0 -0.399,0.081 -0.326,-0.08 0.045,-0.229 0.246,-0.314 0.46,-0.385 l 0.13,-0.043 c 0.086,-0.028 0.17,-0.058 0.242,-0.1 0.144,-0.08 0.325,-0.242 0.47,-0.161 0.144,0.243 0.325,0.162 0.47,0.324 z M 5.49,37.286 c -0.072,0 -0.146,0 -0.219,-0.073 0.073,-0.073 0.073,-0.147 0.073,-0.22 -0.694,0.768 -2.264,0.512 -0.803,-0.183 0.548,-0.22 1.241,-0.146 1.79,0.073 -0.22,0.293 -0.549,0.22 -0.84,0.403 z m 33.42,-4.57 c -0.063,0.014 -0.127,0.027 -0.19,0.037 -0.332,0 -0.702,0.215 -1.035,0.287 -0.48,0.143 -0.924,0.394 -1.33,0.681 0.48,-0.215 0.96,-0.287 1.515,-0.394 0.407,-0.072 0.74,-0.144 1.183,-0.072 0.296,0.072 0.703,0.072 0.703,0.215 -0.148,0.538 -0.962,0.68 -1.405,1.218 h -0.222 c -0.222,0.144 -0.148,0.466 -0.333,0.466 -0.222,-0.071 -0.407,0 -0.629,0.072 0.296,0.287 0.63,0.466 1.036,0.394 0.074,0 0.222,0.143 0.222,0.286 0,0 0.074,0 0.148,-0.071 0.074,0 0.147,0 0.147,0.071 v 0.287 c -0.132,0.172 -0.306,0.19 -0.487,0.191 h -0.121 c -0.081,10e-4 -0.163,0.005 -0.242,0.024 0.555,0.143 1.11,0.143 1.627,0 0.407,-0.143 0,-0.824 0.296,-1.146 -0.148,0 0,-0.215 -0.148,-0.215 0.148,-0.144 0.296,-0.323 0.407,-0.395 0.148,0 0.333,-0.071 0.407,-0.215 0,-0.143 -0.296,-0.214 -0.222,-0.322 0.406,-0.286 0.776,-0.68 0.628,-1.075 -0.074,-0.215 -0.628,-0.215 -0.961,-0.358 -0.23,-0.1 -0.514,-0.061 -0.802,-0.005 l -0.192,0.04 z"
         id="path3841"
         inkscape:connector-curvature="0"
         style="fill:#ffffff" />
    </g>
    <path
       style="fill:#19199c;fill-rule:nonzero"
       inkscape:connector-curvature="0"
       id="path3845"
       d="m 69.897,32.782 v -4.803 h 3.668 v -1.964 h -3.668 v -2.63 h 4.317 v -1.963 h -6.621 v 11.36 z m 8.131,0 v -5.128 c 0.152,-0.249 0.392,-0.487 0.722,-0.714 0.33,-0.227 0.744,-0.34 1.242,-0.34 0.184,0 0.349,0.01 0.495,0.032 0.146,0.021 0.284,0.048 0.414,0.08 v -2.157 c -0.098,-0.032 -0.206,-0.06 -0.325,-0.08 -0.119,-0.023 -0.249,-0.033 -0.39,-0.033 -0.465,0 -0.873,0.094 -1.225,0.284 -0.351,0.189 -0.662,0.419 -0.933,0.69 v -0.814 h -2.061 v 8.18 z m 6.865,0.325 c 0.476,0 0.936,-0.1 1.38,-0.3 0.443,-0.2 0.795,-0.463 1.054,-0.787 v 0.762 h 2.078 v -5.29 c 0,-0.444 -0.076,-0.863 -0.228,-1.258 -0.151,-0.395 -0.376,-0.736 -0.673,-1.023 -0.298,-0.286 -0.674,-0.513 -1.128,-0.681 -0.454,-0.168 -0.974,-0.252 -1.558,-0.252 -0.736,0 -1.398,0.146 -1.988,0.439 -0.59,0.292 -1.068,0.687 -1.436,1.184 l 1.525,1.153 c 0.184,-0.314 0.436,-0.555 0.755,-0.723 0.32,-0.167 0.679,-0.251 1.08,-0.251 0.464,0 0.843,0.127 1.135,0.381 0.292,0.254 0.438,0.598 0.438,1.03 v 0.212 l -2.466,0.422 c -0.877,0.14 -1.55,0.438 -2.021,0.892 -0.47,0.455 -0.706,0.99 -0.706,1.607 0,0.768 0.257,1.374 0.77,1.818 0.515,0.443 1.178,0.665 1.989,0.665 z m 0.422,-1.655 c -0.346,0 -0.622,-0.087 -0.828,-0.26 -0.205,-0.173 -0.308,-0.39 -0.308,-0.65 0,-0.259 0.095,-0.475 0.284,-0.648 0.19,-0.174 0.5,-0.298 0.933,-0.374 l 1.931,-0.34 v 1.12 c -0.205,0.335 -0.476,0.61 -0.811,0.827 -0.336,0.216 -0.736,0.325 -1.201,0.325 z m 8.504,1.33 v -5.339 c 0.151,-0.26 0.376,-0.527 0.674,-0.803 0.297,-0.276 0.705,-0.414 1.225,-0.414 0.497,0 0.89,0.16 1.176,0.479 0.287,0.319 0.43,0.749 0.43,1.29 v 4.787 h 2.095 v -4.868 c 0,-0.606 -0.084,-1.136 -0.252,-1.59 C 99,25.869 98.773,25.49 98.486,25.187 c -0.287,-0.303 -0.622,-0.53 -1.006,-0.681 -0.384,-0.152 -0.798,-0.228 -1.242,-0.228 -0.54,0 -1.009,0.095 -1.404,0.284 -0.395,0.19 -0.733,0.42 -1.014,0.69 v -0.65 h -2.061 v 8.18 z m 11.863,0.325 c 0.747,0 1.415,-0.152 2.005,-0.454 0.59,-0.303 1.074,-0.704 1.452,-1.201 l -1.639,-1.25 c -0.195,0.281 -0.446,0.511 -0.755,0.69 -0.308,0.178 -0.662,0.267 -1.063,0.267 -0.681,0 -1.246,-0.232 -1.695,-0.697 -0.45,-0.466 -0.674,-1.055 -0.674,-1.77 0,-0.713 0.222,-1.303 0.665,-1.768 0.444,-0.466 1.001,-0.698 1.672,-0.698 0.422,0 0.787,0.09 1.095,0.268 0.309,0.178 0.56,0.408 0.755,0.69 l 1.64,-1.25 c -0.38,-0.498 -0.864,-0.898 -1.453,-1.201 -0.59,-0.303 -1.258,-0.455 -2.005,-0.455 -0.703,0 -1.336,0.12 -1.898,0.357 -0.563,0.238 -1.036,0.558 -1.42,0.958 -0.384,0.4 -0.68,0.868 -0.885,1.404 -0.205,0.535 -0.308,1.1 -0.308,1.696 0,0.595 0.103,1.16 0.308,1.696 0.206,0.535 0.5,1.003 0.885,1.403 0.384,0.4 0.857,0.72 1.42,0.958 0.562,0.238 1.195,0.357 1.898,0.357 z m 8.959,0 c 0.768,0 1.46,-0.149 2.077,-0.446 0.617,-0.298 1.115,-0.7 1.493,-1.21 l -1.476,-1.168 c -0.217,0.292 -0.504,0.528 -0.86,0.706 -0.358,0.179 -0.758,0.268 -1.202,0.268 -0.692,0 -1.26,-0.19 -1.704,-0.568 -0.443,-0.379 -0.697,-0.904 -0.762,-1.574 h 5.728 c 0.033,-0.141 0.063,-0.314 0.09,-0.52 0.027,-0.205 0.04,-0.422 0.04,-0.649 0,-1.071 -0.346,-1.95 -1.038,-2.637 -0.693,-0.687 -1.602,-1.03 -2.727,-1.03 -0.67,0 -1.266,0.116 -1.785,0.348 -0.52,0.233 -0.958,0.55 -1.315,0.95 -0.357,0.4 -0.63,0.868 -0.82,1.403 -0.189,0.536 -0.283,1.107 -0.283,1.713 0,0.595 0.1,1.16 0.3,1.696 0.2,0.535 0.492,1.003 0.876,1.403 0.385,0.4 0.86,0.72 1.429,0.958 0.568,0.238 1.214,0.357 1.939,0.357 z m 1.38,-5.55 h -3.685 c 0.141,-0.53 0.38,-0.923 0.715,-1.177 0.335,-0.254 0.751,-0.381 1.25,-0.381 0.54,0 0.96,0.16 1.257,0.478 0.297,0.32 0.452,0.68 0.462,1.08 z" />
    <path
       style="fill:#ed1c24;fill-rule:nonzero"
       inkscape:connector-curvature="0"
       id="path3847"
       d="m 72.656,47.389 c 1.028,0 1.953,-0.211 2.775,-0.633 0.823,-0.422 1.493,-0.985 2.013,-1.688 l -1.818,-1.396 c -0.324,0.465 -0.738,0.841 -1.241,1.128 -0.503,0.287 -1.08,0.43 -1.729,0.43 -0.53,0 -1.022,-0.1 -1.477,-0.3 -0.454,-0.2 -0.84,-0.47 -1.16,-0.812 -0.32,-0.34 -0.57,-0.746 -0.755,-1.217 -0.184,-0.47 -0.276,-0.976 -0.276,-1.517 0,-0.541 0.092,-1.047 0.276,-1.518 0.184,-0.47 0.436,-0.876 0.755,-1.217 0.32,-0.34 0.706,-0.611 1.16,-0.811 0.455,-0.2 0.947,-0.3 1.477,-0.3 0.65,0 1.226,0.143 1.729,0.43 0.503,0.286 0.917,0.662 1.241,1.128 l 1.818,-1.412 c -0.52,-0.682 -1.19,-1.237 -2.013,-1.664 -0.822,-0.427 -1.747,-0.641 -2.775,-0.641 -0.887,0 -1.704,0.162 -2.45,0.487 -0.747,0.324 -1.385,0.757 -1.915,1.298 -0.53,0.541 -0.942,1.178 -1.234,1.908 -0.292,0.73 -0.438,1.5 -0.438,2.312 0,0.811 0.146,1.582 0.438,2.312 0.292,0.73 0.703,1.366 1.234,1.907 0.53,0.541 1.168,0.974 1.915,1.299 0.746,0.324 1.563,0.487 2.45,0.487 z m 10.403,0 c 0.66,0 1.266,-0.117 1.818,-0.35 0.552,-0.232 1.025,-0.546 1.42,-0.94 0.395,-0.396 0.7,-0.863 0.917,-1.404 0.216,-0.541 0.324,-1.115 0.324,-1.72 0,-0.607 -0.108,-1.18 -0.324,-1.721 -0.217,-0.541 -0.522,-1.009 -0.917,-1.404 -0.395,-0.395 -0.868,-0.709 -1.42,-0.941 -0.552,-0.233 -1.158,-0.35 -1.818,-0.35 -0.66,0 -1.266,0.117 -1.818,0.35 -0.551,0.232 -1.025,0.546 -1.42,0.941 -0.395,0.395 -0.7,0.863 -0.917,1.404 -0.216,0.541 -0.324,1.114 -0.324,1.72 0,0.606 0.108,1.18 0.324,1.72 0.217,0.542 0.522,1.01 0.917,1.404 0.395,0.395 0.869,0.709 1.42,0.942 0.552,0.232 1.158,0.349 1.818,0.349 z m 0.033,-1.948 c -0.682,0 -1.247,-0.233 -1.696,-0.698 -0.45,-0.465 -0.674,-1.055 -0.674,-1.769 0,-0.714 0.225,-1.303 0.674,-1.769 0.449,-0.465 1.014,-0.698 1.696,-0.698 0.649,0 1.195,0.233 1.639,0.698 0.443,0.466 0.665,1.055 0.665,1.77 0,0.703 -0.222,1.29 -0.665,1.76 -0.444,0.47 -0.99,0.706 -1.64,0.706 z m 8.39,1.623 v -5.34 c 0.151,-0.259 0.376,-0.527 0.674,-0.803 0.297,-0.276 0.705,-0.414 1.225,-0.414 0.498,0 0.89,0.16 1.176,0.48 0.287,0.318 0.43,0.748 0.43,1.29 v 4.787 h 2.094 v -4.869 c 0,-0.606 -0.084,-1.136 -0.251,-1.59 -0.168,-0.455 -0.395,-0.833 -0.682,-1.136 -0.287,-0.303 -0.622,-0.53 -1.006,-0.682 -0.384,-0.151 -0.798,-0.227 -1.242,-0.227 -0.54,0 -1.009,0.095 -1.404,0.284 -0.395,0.19 -0.733,0.42 -1.014,0.69 v -0.65 h -2.061 v 8.18 z m 9.997,0 v -5.34 c 0.152,-0.259 0.376,-0.527 0.674,-0.803 0.297,-0.276 0.706,-0.414 1.225,-0.414 0.498,0 0.89,0.16 1.177,0.48 0.286,0.318 0.43,0.748 0.43,1.29 v 4.787 h 2.093 v -4.869 c 0,-0.606 -0.084,-1.136 -0.251,-1.59 -0.168,-0.455 -0.395,-0.833 -0.682,-1.136 -0.287,-0.303 -0.622,-0.53 -1.006,-0.682 -0.384,-0.151 -0.798,-0.227 -1.242,-0.227 -0.54,0 -1.009,0.095 -1.404,0.284 -0.394,0.19 -0.733,0.42 -1.014,0.69 v -0.65 h -2.06 v 8.18 h 2.061 z m 11.896,0.325 c 0.768,0 1.46,-0.15 2.077,-0.447 0.617,-0.297 1.115,-0.7 1.493,-1.209 l -1.476,-1.168 c -0.217,0.292 -0.503,0.527 -0.86,0.706 -0.358,0.178 -0.758,0.267 -1.201,0.267 -0.693,0 -1.26,-0.189 -1.705,-0.568 -0.443,-0.378 -0.697,-0.903 -0.762,-1.574 h 5.729 c 0.032,-0.14 0.062,-0.314 0.089,-0.52 0.027,-0.205 0.04,-0.421 0.04,-0.648 0,-1.071 -0.346,-1.95 -1.038,-2.638 -0.693,-0.687 -1.602,-1.03 -2.727,-1.03 -0.67,0 -1.266,0.116 -1.785,0.349 -0.52,0.232 -0.957,0.549 -1.314,0.95 -0.358,0.4 -0.63,0.868 -0.82,1.403 -0.19,0.536 -0.284,1.106 -0.284,1.712 0,0.595 0.1,1.16 0.3,1.696 0.2,0.536 0.492,1.004 0.877,1.404 0.384,0.4 0.86,0.72 1.428,0.958 0.568,0.238 1.214,0.357 1.94,0.357 z m 1.38,-5.55 h -3.684 c 0.14,-0.53 0.378,-0.923 0.714,-1.177 0.335,-0.255 0.752,-0.382 1.25,-0.382 0.54,0 0.96,0.16 1.257,0.479 0.298,0.32 0.452,0.679 0.463,1.08 z m 7.984,5.55 c 0.747,0 1.415,-0.152 2.005,-0.455 0.59,-0.303 1.073,-0.703 1.452,-1.2 l -1.64,-1.25 c -0.194,0.28 -0.445,0.51 -0.754,0.69 -0.308,0.178 -0.662,0.267 -1.063,0.267 -0.681,0 -1.247,-0.233 -1.696,-0.698 -0.449,-0.465 -0.673,-1.055 -0.673,-1.769 0,-0.714 0.222,-1.303 0.665,-1.769 0.444,-0.465 1.001,-0.698 1.672,-0.698 0.422,0 0.787,0.09 1.095,0.268 0.309,0.179 0.56,0.409 0.755,0.69 l 1.64,-1.25 c -0.38,-0.497 -0.864,-0.898 -1.453,-1.2 -0.59,-0.304 -1.258,-0.455 -2.005,-0.455 -0.703,0 -1.336,0.119 -1.899,0.357 -0.562,0.238 -1.035,0.557 -1.42,0.958 -0.384,0.4 -0.678,0.868 -0.884,1.403 -0.206,0.536 -0.308,1.101 -0.308,1.696 0,0.595 0.102,1.16 0.308,1.696 0.206,0.536 0.5,1.004 0.884,1.404 0.385,0.4 0.858,0.72 1.42,0.958 0.563,0.238 1.196,0.357 1.9,0.357 z m 8.537,-0.163 c 0.335,0 0.63,-0.021 0.884,-0.065 0.255,-0.043 0.484,-0.108 0.69,-0.194 v -1.802 c -0.14,0.054 -0.308,0.098 -0.503,0.13 -0.195,0.032 -0.433,0.049 -0.714,0.049 -0.4,0 -0.717,-0.098 -0.95,-0.292 -0.232,-0.195 -0.348,-0.52 -0.348,-0.974 v -3.31 h 2.499 v -1.883 h -2.5 V 36.84 h -2.077 v 2.045 h -1.525 v 1.882 h 1.525 v 3.31 c 0,0.996 0.249,1.77 0.747,2.322 0.497,0.551 1.255,0.827 2.272,0.827 z" />
  </g>
</svg>
