<svg xmlns="http://www.w3.org/2000/svg" xmlns:xlink="http://www.w3.org/1999/xlink" width="96" height="30" viewBox="0 0 96 30">
    <defs>
        <path id="fxfsgdmffa" d="M0 29.546L95.052 29.546 95.052 0 0 0z"/>
    </defs>
    <g fill="none" fill-rule="evenodd">
        <g>
            <g>
                <g>
                    <g transform="translate(-427 -887) translate(16 780) translate(38 106) translate(373 1)">
                        <path fill="#5B5377" d="M37.581 29.261h-1.249v-5.78h1.239v.359c.542-.322 1.039-.485 1.49-.485.665 0 1.15.189 1.457.567.695-.378 1.387-.567 2.076-.567.687 0 1.173.214 1.456.641.282.428.424 1.15.424 2.168v3.097h-1.239v-3.063c0-.624-.062-1.067-.189-1.33-.126-.26-.388-.392-.785-.392-.344 0-.716.077-1.113.231l-.195.081c.061.155.092.647.092 1.48v2.993h-1.239v-2.97c0-.686-.061-1.16-.183-1.422-.123-.262-.39-.393-.803-.393-.382 0-.738.077-1.066.231l-.173.07v4.484zM46.113 24.106c.394-.5 1.05-.751 1.968-.751.916 0 1.572.25 1.966.75.393.502.591 1.254.591 2.256 0 1-.192 1.757-.574 2.265-.382.508-1.043.763-1.983.763-.942 0-1.603-.255-1.985-.763-.382-.508-.573-1.264-.573-2.265 0-1.002.196-1.754.59-2.255m.935 3.758c.176.307.52.462 1.033.462.51 0 .856-.155 1.031-.462.176-.309.264-.813.264-1.515s-.093-1.199-.281-1.492c-.187-.292-.526-.439-1.014-.439-.49 0-.829.147-1.016.439-.188.293-.28.79-.28 1.492s.087 1.206.263 1.515"/>
                        <mask id="2centw2ilb" fill="#fff">
                            <use xlink:href="#fxfsgdmffa"/>
                        </mask>
                        <path fill="#5B5377" d="M51.801 22.5h1.251v-1.33h-1.251v1.33zm0 6.761h1.251v-5.78h-1.251v5.78zM28.516 28.294l.321-.035.024.937c-.872.176-1.644.265-2.316.265-.85 0-1.46-.235-1.831-.704-.37-.47-.555-1.223-.555-2.255 0-2.05.83-3.075 2.489-3.075 1.605 0 2.407.882 2.407 2.648l-.08.9H25.42c.008.479.111.829.31 1.053.199.224.569.335 1.112.335.543 0 1.101-.023 1.674-.069zm-.687-2.289c0-.57-.09-.97-.27-1.196-.18-.228-.483-.342-.911-.342-.429 0-.74.12-.935.358-.195.24-.296.633-.304 1.18h2.42zM33.499 24.714h-1.583v2.543c0 .47.034.783.103.936.068.155.244.231.529.231l.938-.034.058 1.006c-.512.1-.902.15-1.169.15-.65 0-1.096-.15-1.336-.451-.242-.3-.362-.867-.362-1.698v-2.683h-.733v-1.075h.733v-1.677h1.239v1.677h1.583v1.075zM19.346 27.832c0 .9-.724 1.63-1.617 1.63h-2.277V19.74l-2.192 9.72H6.087l-2.192-9.72v9.72H1.617c-.893 0-1.617-.73-1.617-1.63V14.596c0-.9.724-1.63 1.617-1.63h6.377l1.675 6.81h.008l1.676-6.81h6.376c.893 0 1.617.73 1.617 1.63v13.237zM3.94 2.881C5.392 1.051 7.483 0 9.676 0c2.192 0 4.283 1.05 5.736 2.881 1.275 1.606 1.979 3.692 1.979 5.874 0 .878-.116 1.74-.336 2.564h-4.06c.365-.745.575-1.625.575-2.564 0-2.708-1.743-4.903-3.894-4.903-2.15 0-3.894 2.195-3.894 4.903 0 .939.21 1.819.574 2.564h-4.06c-.22-.824-.336-1.686-.336-2.564 0-2.182.704-4.268 1.98-5.874M25.388 19.15h-1.25v-5.779h1.239v.358c.542-.322 1.04-.485 1.49-.485.666 0 1.15.19 1.457.567.696-.378 1.387-.567 2.076-.567.688 0 1.174.214 1.456.642.282.427.425 1.15.425 2.167v3.098h-1.24v-3.064c0-.624-.062-1.066-.188-1.33-.126-.26-.389-.392-.786-.392-.344 0-.716.077-1.112.232l-.195.08c.06.155.092.647.092 1.48v2.994h-1.24V16.18c0-.686-.06-1.16-.183-1.422-.122-.262-.39-.393-.803-.393-.381 0-.737.077-1.066.232l-.172.07v4.484zM33.919 13.995c.394-.5 1.05-.75 1.967-.75.918 0 1.573.25 1.967.75.393.501.591 1.253.591 2.255s-.192 1.758-.574 2.265c-.382.509-1.043.763-1.984.763-.941 0-1.602-.254-1.984-.763-.382-.507-.573-1.263-.573-2.265 0-1.002.196-1.754.59-2.255m.935 3.758c.176.307.52.462 1.033.462.511 0 .856-.155 1.031-.462.176-.309.264-.813.264-1.515s-.094-1.198-.281-1.492c-.187-.292-.526-.438-1.014-.438-.49 0-.829.146-1.016.438-.188.294-.28.79-.28 1.492s.087 1.206.263 1.515M42.165 13.244c.787 0 1.355.222 1.703.665.347.443.522 1.227.522 2.352 0 1.125-.206 1.909-.62 2.352-.412.443-1.139.665-2.178.665-.36 0-.929-.034-1.709-.104l-.39-.034v-8.173h1.24v2.624c.526-.23 1.004-.347 1.432-.347m-.573 4.913c.61 0 1.019-.144 1.22-.433.203-.29.305-.78.305-1.474s-.086-1.181-.258-1.463c-.171-.28-.453-.422-.843-.422-.367 0-.734.057-1.1.174l-.184.058v3.514c.42.03.708.046.86.046M45.56 12.39h1.25v-1.33h-1.25v1.33zm0 6.761h1.25v-5.78h-1.25v5.78zM47.981 19.151L49.232 19.151 49.232 10.967 47.981 10.967zM54.669 18.111l.32-.035.024.937c-.872.176-1.643.265-2.316.265-.849 0-1.46-.235-1.83-.704-.37-.47-.556-1.223-.556-2.255 0-2.05.83-3.075 2.49-3.075 1.605 0 2.406.882 2.406 2.648l-.079.9h-3.555c.008.479.11.829.31 1.053.198.224.569.335 1.112.335.542 0 1.101-.023 1.674-.069zm-.688-2.289c0-.57-.09-.97-.27-1.196-.18-.228-.482-.342-.91-.342-.429 0-.74.12-.936.358-.194.24-.295.633-.303 1.18h2.419zM59.892 13.183c.404 0 .882.054 1.432.162l.287.058-.045.993c-.605-.061-1.052-.092-1.343-.092-.581 0-.97.13-1.169.393-.2.262-.3.754-.3 1.48 0 .723.098 1.225.289 1.502.19.278.588.416 1.192.416l1.341-.092.035 1.006c-.773.138-1.353.208-1.743.208-.872 0-1.485-.238-1.84-.712-.356-.474-.534-1.25-.534-2.329 0-1.079.187-1.847.562-2.305.374-.46.987-.688 1.836-.688M62.929 13.934c.394-.501 1.05-.75 1.967-.75.918 0 1.573.249 1.967.75.393.5.59 1.252.59 2.254 0 1.001-.19 1.757-.573 2.266-.383.509-1.043.763-1.984.763-.941 0-1.602-.254-1.984-.763-.383-.509-.573-1.265-.573-2.266 0-1.002.197-1.753.59-2.254m.935 3.757c.176.308.52.462 1.032.462s.856-.154 1.032-.462c.176-.307.263-.813.263-1.515 0-.701-.093-1.198-.28-1.49-.188-.294-.525-.44-1.015-.44-.49 0-.828.146-1.015.44-.187.292-.282.789-.282 1.49 0 .702.09 1.208.265 1.515M69.841 19.09h-1.25v-5.78h1.238v.358c.56-.323 1.088-.485 1.584-.485.764 0 1.286.217 1.565.652.28.437.419 1.155.419 2.156v3.099h-1.238v-3.064c0-.624-.067-1.067-.201-1.33-.134-.261-.407-.393-.82-.393-.39 0-.764.078-1.125.232l-.172.069v4.486zM75.825 19.09h-1.25v-5.78h1.24v.358c.557-.323 1.085-.485 1.582-.485.764 0 1.287.217 1.565.652.278.437.419 1.155.419 2.156v3.099h-1.239v-3.064c0-.624-.067-1.067-.2-1.33-.133-.261-.407-.393-.82-.393-.39 0-.764.078-1.124.232l-.173.069v4.486zM84.775 18.05l.32-.035.023.936c-.871.177-1.642.265-2.316.265-.849 0-1.458-.235-1.829-.704-.37-.47-.556-1.223-.556-2.255 0-2.05.83-3.074 2.489-3.074 1.606 0 2.408.882 2.408 2.647l-.08.902H81.68c.007.477.11.829.31 1.052.198.222.57.334 1.112.334.541 0 1.1-.023 1.674-.069zm-.688-2.29c0-.57-.09-.97-.27-1.197-.18-.226-.482-.34-.912-.34-.427 0-.739.12-.934.358-.195.24-.297.632-.304 1.179h2.42zM88.697 13.183c.405 0 .882.054 1.433.162l.287.058-.046.993c-.605-.061-1.051-.092-1.342-.092-.581 0-.97.13-1.17.393-.198.262-.299.754-.299 1.48 0 .723.096 1.225.288 1.502.192.278.59.416 1.192.416l1.343-.092.034 1.006c-.772.138-1.354.208-1.742.208-.873 0-1.487-.238-1.841-.712-.357-.474-.535-1.25-.535-2.329 0-1.079.188-1.847.562-2.305.375-.46.987-.688 1.836-.688M95.006 14.385h-1.582v2.543c0 .47.035.783.103.936.069.154.244.231.528.231l.94-.034.057 1.006c-.512.1-.902.15-1.168.15-.65 0-1.097-.15-1.337-.452-.242-.3-.36-.866-.36-1.698v-2.682h-.736V13.31h.735v-1.677h1.238v1.677h1.582v1.075z" mask="url(#2centw2ilb)"/>
                    </g>
                </g>
            </g>
        </g>
    </g>
</svg>
