<svg xmlns="http://www.w3.org/2000/svg" width="130" height="20" viewBox="0 0 130 20">
    <g fill="none" fill-rule="evenodd">
        <g fill-rule="nonzero">
            <g>
                <g>
                    <g>
                        <path fill="#0083AE" d="M1.468 2.485H.033V.173h1.435v2.312zM.033 14.997V3.798h1.435v11.2H.033zM12.58 5.546c.432-.625 1.015-1.13 1.694-1.47.705-.343 1.48-.516 2.264-.504 1.52 0 2.629.456 3.327 1.369.697.912 1.043 2.38 1.038 4.403v5.653h-1.389V9.052c0-1.48-.244-2.533-.731-3.162-.488-.628-1.284-.943-2.387-.943-.585-.012-1.165.123-1.685.393-.483.259-.883.649-1.155 1.125-.177.326-.3.678-.366 1.042-.09.674-.126 1.353-.107 2.033v5.457h-1.352V8.725c0-1.29-.261-2.241-.783-2.855-.522-.614-1.325-.921-2.408-.923-.595-.012-1.184.123-1.714.393-.487.257-.891.647-1.165 1.125-.183.323-.309.676-.372 1.042-.089.677-.124 1.36-.107 2.042v5.448H3.77V3.798h1.415v1.274c.412-.48.929-.86 1.51-1.11.623-.26 1.294-.388 1.969-.377.805-.01 1.6.174 2.32.535.655.316 1.209.81 1.596 1.426zM23.155 3.798h1.415v1.833c.433-.655 1.037-1.178 1.745-1.513.75-.377 1.579-.571 2.418-.568 1.69 0 3.089.562 4.197 1.686 1.108 1.118 1.71 2.641 1.664 4.215.036 1.55-.557 3.048-1.644 4.153-1.07 1.116-2.56 1.73-4.107 1.69-.848.012-1.687-.17-2.454-.532-.726-.35-1.351-.88-1.816-1.537v5.397h-1.415l-.003-14.824zm1.415 5.52c-.023 1.214.43 2.389 1.262 3.272.746.863 1.83 1.36 2.972 1.36 1.143.013 2.24-.455 3.022-1.289.833-.838 1.289-1.98 1.262-3.161.031-1.221-.425-2.405-1.269-3.288-.786-.862-1.903-1.346-3.069-1.331-1.105 0-2.079.443-2.92 1.33-.815.828-1.268 1.945-1.26 3.107zM35.702 9.407c-.027-1.576.583-3.095 1.69-4.216 1.024-1.12 2.474-1.757 3.992-1.75 1.56-.025 3.062.598 4.146 1.721 1.113 1.074 1.733 2.559 1.715 4.105.032 1.586-.565 3.12-1.661 4.266-1.04 1.148-2.523 1.794-4.072 1.775-1.555.028-3.05-.602-4.115-1.735-1.106-1.102-1.717-2.606-1.695-4.166zm1.506-.02c-.034 1.2.408 2.367 1.23 3.243.786.857 1.902 1.334 3.063 1.309 1.15.022 2.252-.455 3.023-1.309.82-.885 1.258-2.057 1.222-3.263 0-1.324-.413-2.412-1.238-3.264-.82-.85-1.96-1.314-3.14-1.278-1.122-.008-2.193.471-2.936 1.314-.814.881-1.25 2.048-1.213 3.248h-.011zM49.93 14.997L49.93 5.236 47.803 5.236 47.803 3.798 49.93 3.798 49.93.173 51.365.173 51.365 3.798 53.491 3.798 53.491 5.245 51.365 5.245 51.365 15.006zM53.93 11.474h1.475v.04c-.023.633.192 1.252.601 1.735.366.442.912.695 1.486.688.52.016 1.024-.175 1.404-.53.368-.344.571-.828.558-1.332.023-.472-.136-.934-.443-1.293-.296-.325-.83-.63-1.603-.916-1.242-.444-2.055-.895-2.44-1.354-.4-.533-.599-1.19-.56-1.856-.01-.841.336-1.647.953-2.219.61-.604 1.437-.937 2.295-.925.956 0 1.716.271 2.28.814.563.543.864 1.3.904 2.27h-1.536c-.005-.46-.185-.9-.504-1.232-.336-.307-.782-.467-1.237-.443-.44-.013-.863.159-1.171.472-.31.312-.48.737-.468 1.176-.01.292.057.582.193.84.16.261.385.476.652.624.373.213.772.377 1.186.488.52.157.867.272 1.043.346.623.236 1.163.65 1.552 1.192.35.568.521 1.228.494 1.894.026.906-.341 1.779-1.006 2.394-.694.64-1.612.98-2.555.947-.955.04-1.88-.337-2.535-1.033-.644-.69-.984-1.618-1.018-2.787z" transform="translate(-54 -892) translate(16 780) translate(38 106) translate(.884 6.238)"/>
                        <path fill="#8F8F8F" d="M64.53 14.997L63.076 14.997 63.076 12.288 64.53 12.288zM69.806 15.913c.2.631.619 1.17 1.18 1.522.626.375 1.348.561 2.077.535 1.276 0 2.3-.424 3.07-1.273.77-.85 1.154-1.978 1.153-3.386v-.3c-.486.69-1.118 1.261-1.852 1.676-.703.38-1.492.574-2.29.565-1.572.046-3.09-.564-4.194-1.684-1.109-1.111-1.713-2.63-1.67-4.2-.039-1.55.556-3.05 1.648-4.152 1.732-1.69 4.317-2.154 6.528-1.172.729.374 1.356.92 1.827 1.589V3.798h1.404v9.347c0 1.955-.49 3.482-1.47 4.581-.98 1.099-2.332 1.648-4.056 1.648-1.16.032-2.301-.298-3.267-.943-.882-.589-1.51-1.488-1.76-2.52l1.672.002zm-.998-6.606c-.035 1.217.413 2.4 1.246 3.288.765.855 1.86 1.34 3.007 1.33 1.106 0 2.083-.443 2.932-1.33.825-.828 1.283-1.953 1.273-3.122.024-1.211-.425-2.384-1.253-3.268-.74-.86-1.818-1.353-2.952-1.353-1.138-.013-2.228.455-3.002 1.289-.827.843-1.279 1.985-1.251 3.166zM80.308 9.407c-.027-1.576.582-3.095 1.69-4.216 1.024-1.12 2.473-1.757 3.991-1.75 1.561-.025 3.062.598 4.147 1.721 1.112 1.074 1.733 2.559 1.714 4.105.03 1.587-.57 3.121-1.67 4.266-1.04 1.148-2.522 1.794-4.07 1.775-1.556.028-3.05-.602-4.117-1.735-1.101-1.104-1.71-2.607-1.685-4.166zm1.506-.02c-.035 1.2.408 2.367 1.23 3.243.785.857 1.901 1.334 3.063 1.309 1.15.022 2.252-.455 3.022-1.309.82-.885 1.259-2.057 1.222-3.263 0-1.324-.412-2.412-1.237-3.264-.82-.85-1.96-1.314-3.14-1.278-1.123-.008-2.194.471-2.936 1.314-.819.88-1.258 2.046-1.224 3.248zM93.507 3.798h1.415v5.946c0 1.528.247 2.609.742 3.243.496.635 1.309.952 2.44.952.59.012 1.174-.123 1.698-.393.49-.263.899-.656 1.18-1.136.18-.32.304-.67.366-1.033.093-.687.131-1.38.113-2.073V3.798h1.433v11.2h-1.435v-1.212c-.386.491-.882.885-1.448 1.15-.616.252-1.277.374-1.943.356-1.614 0-2.778-.436-3.49-1.309-.713-.872-1.069-2.32-1.069-4.341l-.002-5.844zM109.546 14.997L108.233 14.997 103.867 3.798 105.384 3.798 108.965 12.83 112.578 3.798 114.13 3.798z" transform="translate(-54 -892) translate(16 780) translate(38 106) translate(.884 6.238)"/>
                        <path fill="#BCBCBC" d="M115.347 14.997L113.893 14.997 113.893 12.288 115.347 12.288zM120.712 14.997h-1.395V5.05h-1.497V3.8h1.435v-.307c0-1.183.3-2.063.9-2.638.6-.575 1.521-.86 2.763-.854h.133v1.293c-.862.014-1.471.185-1.827.515-.357.33-.535.892-.535 1.686V3.8h2.362v1.252h-2.34v9.945zM125.88 14.997h-1.454V3.798h1.353v1.294c.297-.449.692-.824 1.155-1.099.45-.236.952-.36 1.461-.36v1.554c-.902.081-1.548.351-1.938.81-.39.458-.585 1.203-.585 2.234l.009 6.766z" transform="translate(-54 -892) translate(16 780) translate(38 106) translate(.884 6.238)"/>
                    </g>
                </g>
            </g>
        </g>
    </g>
</svg>
