<svg xmlns="http://www.w3.org/2000/svg" width="82" height="32" viewBox="0 0 82 32">
    <g fill="none" fill-rule="evenodd">
        <g>
            <g>
                <g>
                    <g>
                        <g>
                            <path fill="#006CB5" d="M37.356 28.163c0 .775-.22 1.186-.892 1.186-.572 0-.89-.375-.89-1.265v-2.716c0-.89.318-1.264.89-1.264.578 0 .892.374.892 1.264v2.795zm1.629.163v-8.118h-1.623v2.752c-.101-.085-.434-.25-.898-.25-1.837 0-2.5 1.182-2.5 2.88v2.274c0 1.697.663 2.877 2.5 2.877 1.387 0 2.52-.655 2.52-2.415zM16.628 20.208L16.628 30.597 15.022 30.597 15.022 22.475 14.994 22.475 13.381 30.597 12.519 30.597 10.908 22.475 10.879 22.475 10.879 30.597 9.274 30.597 9.274 20.208 11.667 20.208 12.936 26.276 12.964 26.276 14.231 20.208zM40.474 30.598L42.086 30.598 42.086 22.854 40.474 22.854zM42.22 21.018c0 .52-.42.94-.94.94s-.94-.42-.94-.94c0-.519.42-.939.94-.939s.94.42.94.94M30.994 28.646c-.336.329-.634.722-1.141.722-.452 0-.777-.327-.777-.91 0-1.092.842-1.347 1.918-1.585v1.773zm1.615 1.13v-4.961c0-1.414-.848-2.105-2.345-2.105-1.508 0-2.5.849-2.588 2.42h1.613c.026-.663.185-1.095.918-1.095.533 0 .79.346.79.992l.004.606c-2.395.328-3.513 1.542-3.513 3.05 0 1.06.61 2.06 1.827 2.06.844 0 1.114-.213 1.765-.721.007.145.04.32.09.575h1.542c-.044-.259-.103-.575-.103-.82zM21.256 28.646c-.335.329-.633.722-1.14.722-.454 0-.778-.327-.778-.91 0-1.092.844-1.347 1.918-1.585v1.773zm1.619 1.13v-4.961c0-1.414-.852-2.105-2.346-2.105-1.51 0-2.503.849-2.588 2.42h1.612c.027-.663.187-1.095.922-1.095.53 0 .788.346.788.992v.606c-2.393.328-3.513 1.542-3.513 3.05 0 1.06.608 2.06 1.83 2.06.842 0 1.113-.213 1.763-.721.012.145.042.32.093.575h1.536c-.04-.259-.097-.575-.097-.82zM26.656 29.377c-.826-.002-.88-.455-.88-1.022v-8.147h-1.614v8.086c0 1.308.581 2.406 2.506 2.406h.156v-1.323h-.168zM45.045 25.302c0-.89.317-1.267.892-1.267.576 0 .89.377.89 1.267v.405h-1.782v-.405zm3.394 1.728v-1.44c0-1.698-.66-2.879-2.502-2.879-1.837 0-2.5 1.18-2.5 2.88v2.273c0 1.697.663 2.876 2.5 2.876 1.668 0 2.367-.963 2.485-2.414 0 0 .011-.136.005-.2h-1.6l-.001.199c-.039.767-.353 1.093-.889 1.093-.575 0-.892-.376-.892-1.268v-1.12h3.394zM31.325 14.962h1.49l-.738-4.577h-.027l-.725 4.577zm-.557 3.739h-1.726l1.915-10.39h2.213l1.914 10.39h-1.726l-.328-2.376h-1.918l-.344 2.376zM53.138 18.7v-7.74h1.54v.662h.028c.39-.661 1.304-.802 1.824-.802h.333v1.68c-.288-.07-.56-.16-1.035-.16-.549 0-1.08.35-1.08 1.037v5.324h-1.61zM51.72 10.96v5.01c0 1.695-.658 2.877-2.501 2.877-1.84 0-2.502-1.182-2.502-2.877v-5.01h1.61v5.297c0 .891.318 1.264.892 1.264.578 0 .892-.373.892-1.264V10.96h1.61zM63.498 18.7v-5.004c0-1.644.664-2.876 2.508-2.876 1.84 0 2.5 1.232 2.5 2.876V18.7h-1.612v-5.283c0-.83-.337-1.219-.888-1.219-.56 0-.896.39-.896 1.22V18.7h-1.612zM60.614 16.75c-.336.33-.632.726-1.142.726-.451 0-.775-.33-.775-.911 0-1.094.843-1.348 1.917-1.587v1.773zm1.617 1.134v-4.967c0-1.41-.85-2.097-2.345-2.097-1.508 0-2.501.846-2.588 2.414h1.613c.027-.664.185-1.094.922-1.094.529 0 .786.345.786.994v.602c-2.393.328-3.507 1.542-3.507 3.052 0 1.061.605 2.062 1.826 2.062.84 0 1.111-.217 1.76-.72.011.144.047.317.094.571h1.538c-.044-.256-.099-.572-.099-.817zM26.656 17.483c-.826-.002-.88-.455-.88-1.023V8.315h-1.614V16.4c0 1.308.581 2.405 2.506 2.405h.156v-1.323h-.168zM37.203 12.761c0-.405.3-.62.736-.62.548 0 .775.301.865.964l1.438-.124c-.145-.998-.648-2.162-2.378-2.162-1.262 0-2.253.847-2.253 2.07 0 2.117 3.161 2.619 3.161 3.957 0 .43-.316.677-.757.677-.767 0-1.007-.575-1.111-1.223l-1.489.239c.174 1.47 1.112 2.308 2.585 2.308 1.374 0 2.363-.705 2.363-2.088 0-2.302-3.16-2.789-3.16-3.998M42.677 12.761c0-.405.301-.62.734-.62.545 0 .77.301.865.964l1.435-.124c-.148-.998-.647-2.162-2.373-2.162-1.258 0-2.251.847-2.251 2.07 0 2.117 3.153 2.619 3.153 3.957 0 .43-.315.677-.751.677-.765 0-1.004-.575-1.112-1.223l-1.49.239c.174 1.47 1.115 2.308 2.588 2.308 1.364 0 2.357-.705 2.357-2.088 0-2.302-3.155-2.789-3.155-3.998M77.189 13.405c0-.89.315-1.264.893-1.264.573 0 .888.373.888 1.264v.406h-1.781v-.406zm3.394 1.73v-1.44c0-1.696-.66-2.875-2.501-2.875-1.842 0-2.502 1.179-2.502 2.876v2.273c0 1.7.66 2.878 2.502 2.878 1.666 0 2.366-.966 2.484-2.414 0 0 .01-.137.002-.201H78.97l-.003.2c-.038.764-.351 1.091-.885 1.091-.578 0-.893-.372-.893-1.266v-1.122h3.394zM27.42 8.315v1.474h.465l-.463 1.172h.787l.682-1.172V8.315H27.42zM73.04 16.14v.293c-.043.763-.35 1.09-.889 1.09-.578 0-.89-.372-.89-1.266v-2.853c0-.89.312-1.263.89-1.263.576 0 .89.373.89 1.263v.292h1.613c0-1.697-.66-2.876-2.503-2.876-1.842 0-2.504 1.18-2.504 2.876v2.273c0 1.699.662 2.879 2.504 2.879 1.966 0 2.49-1.391 2.49-2.708h-1.602z" transform="translate(-216 -886) translate(16 780) translate(38 106) translate(162.404 .421)"/>
                            <path fill="#80BC00" d="M1.897 18.83L17.633 18.83 17.633 18.381 1.897 18.381zM2.206 14.473L19.549 14.473 19.549 14.021 2.206 14.021zM1.897 10.116L19.774 10.116 19.774 9.665 1.897 9.665zM1.897 5.758L19.774 5.758 19.774 5.305 1.897 5.305zM1.814 1.358L19.691 1.358 19.691.907 1.814.907z" transform="translate(-216 -886) translate(16 780) translate(38 106) translate(162.404 .421)"/>
                            <path fill="#006CB5" d="M2.994 6.273c.238.532.055 1.29-.282 1.671.596.76 2.092.445 2.897.229.218-.044.39-.434.595-.283.057.045.414-.339.373.02 0 .219-.1.45-.324.533-.167.063-.649.207-.649.207-.86.272-1.327.392-2.185.806-.397.21-.294.971-.24 1.245.053.277.32 1.272.087 1.768-.192.402-.857.776-.868 1.276 0 .217.36.48.153.658-.138.113-.236.134-.319.058 0 0-.644-.664-.564-.893-.004-.087.727-1.134.411-1.604-.172.16-.193.602-.54.767-.17.074-.408-.118-.55-.038-.055.034-.048.256-.103.31-.054.056-.285.045-.339-.054-.132-.273-.08-.736-.029-.965.075-.34.782.034.552-.452-.084-.175-.193-.407-.184-.78.005-.284.245-.616.009-.758-.261-.131-.882-.407-.892-.731-.075-.777 1.36-.777 1.686-1.471 0-.334-.42-.62-.335-1.151.041-.267.251-.574.596-.621.432-.058.696-.005 1.044.253M21.873 6.462c.052-.368-.172-1.227-.056-1.581l.654.34c-.14.233-.417.747-.598 1.24m1.272-1.757c-.881-.568-1.642-1.562-2.63-1.401-.523-.044-.094-.597-.24-.812-.237-.424-.265-.584-1.193-.495-.254.026-.458.122-.554.343-.087.249-.005.187-.066.417-.077.234-.351.34-.089.515.023.076.023.207 0 .443-.012.172.197.155.285.209-1.053.772-2.948.632-3.877.026-.173-.114-.773-.085-.773-.018 0 .156.39.19.53.353-.066.021-.177-.004-.128.092.05.099.761.227.761.227.544.37 1.393.546 2.051.675 1.346.2 1.725.128 1.904.989.178.872-.031 1.677-.23 2.868-.162 1.062.06 1.724.23 2.766.03.193.133.514.035.593-.187.166-.677.307-.888.492-.094.305.76.111 1.33.14.271.022.336-.268.336-.444.05-1.63.1-2.137.359-3.159.152.88.173 2.362.366 3.254-.223.262-.817.497-.668.642.171.164.465.135.62.098.364-.09.573-.202.832-.442 0 0 .541-3.574.446-5.342-.053-.985.913-1.553 1.4-2.432.121-.227.117-.424-.149-.597" transform="translate(-216 -886) translate(16 780) translate(38 106) translate(162.404 .421)"/>
                            <path fill="#006CB0" d="M11.327 1.561c.382.07 1.273.323 1.378.343.106.022.366.267.448.286.046.01.057.018.094-.051.037-.069.189.04.344-.007.102-.03.198-.305.175-.336-.1-.12-.618-.26-.869-.262-.293-.096-.975-.375-1.486-.538C10.253.629 9.044.07 7.933.734 7.469.542 7.462-.06 6.658.004c-.38.03-.652.323-.748.588-.092.264-.131.594.042.92.092.179.278.265.462.33.091.031.189.05.282.084.13.047.155.15.306.13.112-.017.203-.033.318-.026.107.006.38.046.42-.095h.01c.01.266-.038.657-.176.72-.186.044-.267-.068-.715-.2-.441-.13-1.485-.26-1.504.543-.034 1.28.12 1.694-.765 2.781-.154.189-.413.2-.26.396.118.123.313.03.404-.044.226.57.988-.282 1.156-.413.345-.269-.047-.506.117-.765.281-.546.713-.767.804-1.176.446.35.99.623 1.547.579.23-.044.438-.131.697-.393.255-.26.329-1.097.351-1.674.048-1.174.858-.92 1.92-.728" transform="translate(-216 -886) translate(16 780) translate(38 106) translate(162.404 .421)"/>
                            <path fill="#006CB5" d="M19.028 18.302c-.461-.11-.982-.437-1.24-.84-.183-.282-.31-.601-.46-.925-.5-1.098-.787-2.3-1.114-2.701-.574-.707-1.689-1.698-2.44-2.186-.225-.147-.432-.25-.615-.332.182-.885.14-1.829.14-1.829 0-.18.003-.186.066-.262.195-.152.324-.338.264-.63-.005-.042-.167-.39-.215-.466.273.108 1.463.39 1.809.366.592-.04 1.997-1.02 2.21-1.166.159-.095.247-.116.322-.14.085-.021.29-.148.335-.277.02-.057-.044-.463-.184-.489-.063-.008-.22.094-.278.077-.031-.011-.071-.073-.1-.073-.08 0-.155.123-.195.183-.048.08-.068.221-.122.29-.096.12-1.463.509-1.917.721-.077.037-.16.068-.239.04-.359-.108-1.803-.938-2.374-.819-.182.035-.466.139-.585.004-.067-.069-.104-.182-.048-.294.058-.129.362-.146.421-.293.065-.162-.041-.486-.041-.504.002-.062.074-.094.068-.148-.007-.059-.08-.123-.166-.24-.086-.12-.111-.423-.19-.555.018-.04.074-.318-.25-.503-.323-.19-.852-.23-1.15.032-.17.152-.394.093-.572.186-.34.179-.122.536-.682 1.042-.243.22-.1.645-.04.74-.238.447.18.97.558.879.126.122.204.176.34.164.002.017.006.03.011.043-.085.03-.266.123-.345.166-.218.107-.341.248-.539.438-.633.618-1.577 1.575-3.823 2.7-.254.155-.988.089-.988.247.049.078.208.156.208.156.007.091-.27.129-.42.161-.128.073.12.175.216.266.5.09.758-.023 1.18-.375 1.708-.665 2.977-1.312 4.363-2.212.29-.19.456.015.695.893.089.342-.362.62-.536 1.102-.194.537-.17.943-.027 1.255-.162.349-.649.813-.649.813s-1.161.963-1.75 1.544c-.51.507-1.126.388-1.597.615-.483.232-.92.6-1.33.935-.299.25-.597.47-.997.634-.151.063-.228.083-.39.104-.204.03-.329.217-.312.393.017.16.158.517.315.827.082.17.27.567.515.617.167.034.516.106.596-.046.105-.203-.34-.26-.372-.521-.02-.168-.039-.444.017-.605.095-.279.495-.47.731-.597.74-.4 2.915-.914 3.564-1.11.942-.41 1.682-.746 2.292-1.148.537-.326.976-.845 1.317-1.276.801.403 1.986.903 2.773 1.203.464.177.21.473.47 1.136.184.482.517.83 1.611 2.128.161.211-.01.365.026.603.038.258.164.267.405.26.22-.006.447 0 .669 0 .281 0 .636 0 .918-.002.106-.002.31-.036.31-.187 0-.166-.303-.179-.443-.212" transform="translate(-216 -886) translate(16 780) translate(38 106) translate(162.404 .421)"/>
                        </g>
                    </g>
                </g>
            </g>
        </g>
    </g>
</svg>
