<svg xmlns="http://www.w3.org/2000/svg" width="64" height="30" viewBox="0 0 64 30">
    <g fill="none" fill-rule="evenodd">
        <g fill-rule="nonzero">
            <g>
                <g>
                    <g>
                        <g fill="#1D508E">
                            <path d="M.775 3.082c.005.344.301.483.624.483.235 0 .534-.09.534-.367 0-.238-.34-.321-.924-.444-.47-.1-.94-.26-.94-.766 0-.733.654-.922 1.29-.922.647 0 1.243.212 1.308.917h-.775c-.024-.305-.263-.39-.557-.39-.182 0-.452.035-.452.268 0 .282.459.321.924.427.475.105.939.273.939.805 0 .755-.676 1-1.352 1-.688 0-1.36-.25-1.394-1.01h.775M5.353 2.61c-.138.116-.425.121-.676.166-.253.05-.481.133-.481.422 0 .294.234.367.499.367.636 0 .659-.489.659-.662V2.61m-1.88-.583c.045-.738.727-.961 1.392-.961.59 0 1.302.128 1.302.817v1.493c0 .261.028.522.103.638h-.826c-.029-.088-.051-.183-.057-.277-.257.261-.635.355-.998.355-.561 0-1.009-.272-1.009-.86 0-.65.506-.806 1.009-.872.499-.072.964-.056.964-.377 0-.34-.24-.39-.527-.39-.31 0-.51.123-.54.434h-.814zM7.085 1.144h.774v.4h.017c.206-.322.563-.478.905-.478.866 0 1.084.472 1.084 1.182v1.766h-.814V2.393c0-.472-.143-.705-.521-.705-.442 0-.63.239-.63.821v1.505h-.815v-2.87M11.801 1.144h.597v.527H11.8v1.421c0 .267.07.333.346.333.087 0 .166-.004.251-.021v.616c-.137.022-.315.028-.475.028-.5 0-.935-.112-.935-.683V1.67h-.492v-.527h.492V.283h.814v.861M14.547.788h-.567L14.53 0h.9l-.883.788m.522 1.483c-.075-.399-.252-.61-.647-.61-.517 0-.667.388-.677.61h1.324zm-1.323.5c.021.5.274.726.727.726.327 0 .59-.193.642-.372h.717c-.23.678-.717.967-1.387.967-.934 0-1.515-.622-1.515-1.51 0-.86.614-1.516 1.515-1.516 1.009 0 1.496.822 1.439 1.705h-2.138z" transform="translate(-330 -887) translate(16 780) translate(38 106) translate(276.814 1.781) translate(34.278 1.57)"/>
                        </g>
                        <path fill="#1D508E" d="M34.6 10.297h-.487v-.526h.486v-.223c0-.505.326-.872.992-.872.143 0 .292.018.428.022v.589c-.097-.01-.193-.016-.297-.016-.217 0-.31.088-.31.327v.173h.562v.526h-.561v2.343h-.814v-2.343M38.462 11.235c-.137.117-.424.123-.677.168-.251.05-.481.132-.481.422 0 .294.235.366.5.366.636 0 .659-.49.659-.66v-.296m-1.882-.582c.047-.739.73-.96 1.393-.96.591 0 1.303.127 1.303.816v1.493c0 .261.028.523.102.638h-.824c-.03-.088-.052-.183-.058-.277-.258.26-.635.355-.997.355-.561 0-1.01-.27-1.01-.86 0-.65.505-.806 1.01-.872.498-.072.963-.055.963-.377 0-.338-.24-.389-.527-.389-.31 0-.51.123-.538.433h-.817zM40.216 9.771h.768v.388h.012c.212-.294.521-.466.905-.466.373 0 .705.132.865.477.173-.25.481-.477.896-.477.63 0 1.083.282 1.083 1.027v1.92h-.813v-1.627c0-.383-.036-.7-.5-.7-.458 0-.544.367-.544.728v1.6h-.816v-1.61c0-.334.024-.717-.49-.717-.162 0-.551.1-.551.661v1.665h-.815V9.771M45.695 9.771h1v2.87h-1V9.77m1-.445h-1v-.65h1v.65zM47.461 8.676H48.461V12.64H47.461zM49.226 8.676H50.226V12.64H49.226zM52.964 10.897c-.074-.4-.252-.611-.646-.611-.518 0-.667.39-.677.611h1.323m-1.323.5c.023.499.274.728.727.728.327 0 .59-.195.643-.373h.716c-.23.678-.716.965-1.387.965-.935 0-1.515-.62-1.515-1.509 0-.86.614-1.516 1.515-1.516 1.009 0 1.497.822 1.439 1.705H51.64zM34.422 16.825h.773v.534h.011c.149-.36.551-.61.948-.61.057 0 .123.01.176.027v.733c-.075-.017-.196-.028-.292-.028-.597 0-.802.416-.802.922v1.294h-.814v-2.872M38.83 17.953c-.074-.4-.252-.611-.648-.611-.516 0-.665.388-.677.611h1.325m-1.325.5c.024.5.275.726.729.726.326 0 .59-.193.641-.372h.717c-.229.679-.717.966-1.387.966-.935 0-1.512-.622-1.512-1.509 0-.86.613-1.516 1.512-1.516 1.01 0 1.497.822 1.44 1.704h-2.14zM41.444 16.825h.596v.528h-.596v1.422c0 .266.068.332.345.332.086 0 .165-.006.252-.022v.617c-.14.022-.315.027-.476.027-.5 0-.935-.112-.935-.683v-1.694h-.493v-.528h.493v-.86h.814v.861M42.717 16.825h.774v.534h.01c.15-.36.552-.61.946-.61.058 0 .127.01.179.027v.733c-.076-.017-.194-.028-.293-.028-.595 0-.802.416-.802.922v1.294h-.813v-2.872M47.079 18.292c-.138.116-.425.122-.678.166-.251.05-.48.134-.48.422 0 .294.235.367.499.367.636 0 .66-.49.66-.662v-.293m-1.882-.584c.045-.74.728-.96 1.394-.96.59 0 1.3.128 1.3.816v1.493c0 .261.029.521.104.64h-.827c-.028-.09-.05-.184-.056-.278-.259.26-.637.354-.998.354-.56 0-1.009-.27-1.009-.86 0-.649.505-.805 1.009-.872.5-.072.963-.056.963-.376 0-.339-.24-.39-.526-.39-.31 0-.512.123-.539.433h-.815zM48.833 16.825h1v2.872h-1v-2.872m1-.443h-1v-.65h1v.65zM51.606 16.825h.597v.528h-.597v1.422c0 .266.07.332.345.332.086 0 .166-.006.252-.022v.617c-.138.022-.314.027-.476.027-.498 0-.934-.112-.934-.683v-1.694h-.492v-.528h.492v-.86h.814v.861M54.874 17.953c-.074-.4-.252-.611-.647-.611-.516 0-.665.388-.676.611h1.323m-1.323.5c.023.5.274.726.727.726.326 0 .59-.193.643-.372h.715c-.228.679-.715.966-1.387.966-.934 0-1.514-.622-1.514-1.509 0-.86.614-1.516 1.514-1.516 1.009 0 1.496.822 1.44 1.704H53.55zM35.053 25.819c.005.343.302.483.624.483.235 0 .534-.09.534-.367 0-.238-.34-.322-.923-.443-.47-.102-.941-.26-.941-.766 0-.734.654-.924 1.291-.924.647 0 1.243.212 1.307.918h-.774c-.024-.306-.264-.389-.557-.389-.182 0-.452.033-.452.267 0 .284.458.32.923.428.475.104.94.272.94.805 0 .755-.676.998-1.353.998-.687 0-1.36-.25-1.394-1.01h.775M39.781 25.008c-.075-.399-.252-.61-.648-.61-.516 0-.664.388-.677.61h1.325m-1.325.5c.023.499.276.727.729.727.328 0 .59-.193.641-.372h.718c-.229.678-.718.966-1.388.966-.934 0-1.512-.621-1.512-1.51 0-.861.613-1.517 1.512-1.517 1.008 0 1.496.824 1.439 1.706h-2.139zM41.363 23.88h.774v.535h.012c.147-.362.55-.612.945-.612.058 0 .126.011.178.03v.732c-.074-.017-.196-.028-.292-.028-.597 0-.802.415-.802.922v1.294h-.815v-2.872M45.518 26.753L44.613 26.753 43.598 23.881 44.453 23.881 45.078 25.84 45.089 25.84 45.713 23.881 46.521 23.881 45.518 26.753M47.169 23.88h1v2.873h-1v-2.872m1-.444h-1v-.649h1v.65zM50.93 24.892c-.051-.322-.264-.495-.603-.495-.52 0-.693.512-.693.933 0 .412.167.905.676.905.379 0 .597-.233.648-.584h.785c-.102.762-.647 1.178-1.427 1.178-.893 0-1.496-.61-1.496-1.471 0-.894.551-1.556 1.514-1.556.698 0 1.341.356 1.392 1.09h-.796M54.485 25.008c-.077-.399-.254-.61-.649-.61-.517 0-.666.388-.677.61h1.326m-1.326.5c.022.499.275.727.727.727.327 0 .592-.193.644-.372h.715c-.23.678-.715.966-1.386.966-.934 0-1.514-.621-1.514-1.51 0-.861.614-1.517 1.514-1.517 1.008 0 1.495.824 1.438 1.706h-2.138zM56.696 25.819c.006.343.305.483.625.483.235 0 .534-.09.534-.367 0-.238-.34-.322-.923-.443-.471-.102-.94-.26-.94-.766 0-.734.653-.924 1.29-.924.647 0 1.242.212 1.306.918h-.774c-.022-.306-.264-.389-.556-.389-.183 0-.452.033-.452.267 0 .284.458.32.922.428.475.104.94.272.94.805 0 .755-.677.998-1.353.998-.687 0-1.358-.25-1.392-1.01h.773" transform="translate(-330 -887) translate(16 780) translate(38 106) translate(276.814 1.781)"/>
                        <path fill="#FBBF27" d="M33.508 0H62.941V1H33.508zM33.508 7.196H62.941V8.196H33.508zM33.508 14.393H62.941V15.393H33.508zM33.508 21.14H62.941V22.14H33.508zM33.508 28.336H62.941V29.336H33.508z" transform="translate(-330 -887) translate(16 780) translate(38 106) translate(276.814 1.781)"/>
                        <path fill="#1D508E" d="M0 0H29.433V28.786H0z" transform="translate(-330 -887) translate(16 780) translate(38 106) translate(276.814 1.781)"/>
                        <path fill="#FFF" d="M24.392 21.828v2.257l-6.142-.004c-.675 0-1.227-.532-1.227-1.189s.552-1.156 1.227-1.156l5.273.006c.313 0 .588-.039.871-.114l-.002.2m2.453 2.257v-5.613c0-1.802-1.457-3.27-3.322-3.27h-7.707l.008-5.97c0-2.297 1.861-4.161 4.234-4.161 2.374 0 4.335 1.897 4.335 4.16v5.938h2.45l.007-5.904c0-3.613-3.023-6.566-6.752-6.566-2.387 0-4.203.96-5.525 2.78-1.221-1.682-3.241-2.78-5.524-2.78-1.63 0-3.17.573-4.336 1.506l.005-1.5-2.454-.006.004 12.47h2.45l-.005-6.017c.055-2.297 1.93-4.081 4.304-4.081 2.373 0 4.295 1.864 4.295 4.16l.014 5.972H5.652c-1.864 0-3.374 1.467-3.374 3.269 0 1.807 1.51 3.27 3.374 3.27l5.304-.006c.679 0 1.188.552 1.188 1.209s-.523 1.136-1.2 1.136H2.267v2.39h8.81c2.07 0 3.496-1.637 3.496-3.607 0-1.957-1.618-3.516-3.653-3.516l-5.242.003c-.51 0-.962-.4-.962-.893 0-.49.452-.89.962-.89H23.48c.508 0 .92.4.92.89 0 .494-.412.893-.92.893l-3.714-.003h-1.538c-2.033 0-3.655 1.559-3.655 3.516 0 1.97 1.633 3.607 3.655 3.608H29.2c-2.437 0-2.355-2.387-2.355-2.387z" transform="translate(-330 -887) translate(16 780) translate(38 106) translate(276.814 1.781)"/>
                    </g>
                </g>
            </g>
        </g>
    </g>
</svg>
