<?xml version="1.0" encoding="UTF-8"?>
<svg width="127px" height="115px" viewBox="0 0 127 115" version="1.1" xmlns="http://www.w3.org/2000/svg" xmlns:xlink="http://www.w3.org/1999/xlink">
    <title>logo/marianne@3x</title>
    <g id="Symbols" stroke="none" stroke-width="1" fill="none" fill-rule="evenodd">
        <g id="header/l" transform="translate(-32.000000, -32.000000)" fill-rule="nonzero">
            <g id="logo/marianne" transform="translate(32.000000, 32.000000)">
                <path d="M50.6576029,108.630054 C51.1062612,108.630054 51.4937388,108.976744 51.2898032,109.772093 L49.2300537,110.322719 C49.5563506,109.343828 50.1681574,108.630054 50.6576029,108.630054 M51.7996422,111.974597 L51.391771,111.974597 C50.881932,112.586404 50.3109123,113.07585 49.7602862,113.07585 C49.1892665,113.07585 48.9037567,112.729159 48.9037567,111.974597 C48.9037567,111.668694 48.9445438,111.342397 49.0057245,111.056887 L52.3502683,109.955635 C53.0028623,108.405725 52.2075134,107.732737 51.2898032,107.732737 C49.6991055,107.732737 47.9044723,110.506261 47.9044723,112.688372 C47.9044723,113.728444 48.3939177,114.299463 49.168873,114.299463 C50.0865832,114.299463 51.0246869,113.42254 51.7996422,111.974597 M51.2694097,106.998569 L53.1660107,105.265116 L53.1660107,105.020394 L51.90161,105.020394 L50.7799642,107.018962 L51.2694097,107.018962 L51.2694097,106.998569 Z M44.1520572,108.670841 L45.2533095,108.670841 L43.4994633,113.483721 C43.3363148,113.891592 43.560644,114.299463 43.9889088,114.299463 C45.2329159,114.299463 46.7216458,113.238998 47.2926655,111.729875 L46.9867621,111.729875 C46.5381038,112.362075 45.5592129,113.055456 44.8250447,113.198211 L46.436136,108.670841 L48.0880143,108.670841 L48.2919499,107.97746 L46.6808587,107.97746 L47.2926655,106.244007 L46.6604651,106.244007 L45.5184258,107.97746 L44.1520572,108.161002 L44.1520572,108.670841 L44.1520572,108.670841 Z M43.0100179,108.426118 C43.1527728,107.97746 42.8468694,107.732737 42.6225403,107.732737 C41.6640429,107.732737 40.50161,108.60966 40.0529517,109.81288 L40.3588551,109.81288 C40.6647585,109.364222 41.1949911,108.874776 41.7048301,108.793202 L39.8490161,113.606082 C39.6858676,114.054741 40.0121646,114.299463 40.2568873,114.299463 C41.1745975,114.299463 42.2554562,113.42254 42.7041145,112.21932 L42.3982111,112.21932 C42.0923077,112.667979 41.5620751,113.157424 41.0522361,113.238998 L43.0100179,108.426118 Z M43.1935599,106.509123 C43.6014311,106.509123 43.9481216,106.162433 43.9481216,105.754562 C43.9481216,105.346691 43.6014311,105 43.1935599,105 C42.7652952,105 42.4389982,105.346691 42.4389982,105.754562 C42.4389982,106.182826 42.7652952,106.509123 43.1935599,106.509123 M34.2407871,109.078712 C34.526297,109.078712 34.6894454,109.52737 34.2407871,110.526655 L32.9355993,113.42254 C32.6908766,113.973166 32.9559928,114.319857 33.4862254,114.319857 C33.8125224,114.319857 33.9552773,114.238283 34.0980322,113.891592 L35.3828265,110.506261 C35.9742397,109.772093 37.0754919,108.997138 37.5649374,108.997138 C37.9116279,108.997138 37.8708408,109.282648 37.6465116,109.731306 L35.6683363,113.504114 C35.4847943,113.871199 35.729517,114.319857 36.1577818,114.319857 C37.1162791,114.319857 38.278712,113.442934 38.7273703,112.239714 L38.3806798,112.239714 C38.0747764,112.688372 37.5445438,113.177818 37.0347048,113.259392 L38.7273703,109.833274 C38.9516995,109.405009 39.0536673,108.997138 39.0536673,108.670841 C39.0536673,108.120215 38.7477639,107.753131 38.1563506,107.753131 C37.3202147,107.753131 36.6064401,108.691234 35.5867621,109.853667 L35.5867621,108.956351 C35.5867621,108.32415 35.3828265,107.753131 34.8118068,107.753131 C34.1388193,107.753131 33.5270125,108.813596 33.0375671,109.833274 L33.3434705,109.833274 C33.690161,109.343828 33.9960644,109.078712 34.2407871,109.078712 M32.9152057,109.201073 C33.1395349,108.405725 33.0171735,107.732737 32.4257603,107.732737 C31.6711986,107.732737 31.4264758,108.242576 30.6923077,109.833274 L30.6923077,108.935957 C30.6923077,108.303757 30.4883721,107.732737 29.9173524,107.732737 C29.2443649,107.732737 28.6325581,108.793202 28.1431127,109.81288 L28.4490161,109.81288 C28.7753131,109.343828 29.0812165,109.058318 29.3259392,109.058318 C29.611449,109.058318 29.7745975,109.506977 29.3259392,110.506261 L28.0207513,113.402147 C27.7760286,113.952773 28.0411449,114.299463 28.5713775,114.299463 C28.8976744,114.299463 29.0404293,114.217889 29.1831843,113.871199 L30.4271914,110.485868 C30.7942755,110.037209 31.1205725,109.649732 31.5284436,109.221467 L32.9152057,109.221467 L32.9152057,109.201073 Z M25.7978533,108.630054 C26.2465116,108.630054 26.6339893,108.976744 26.4300537,109.772093 L24.3703041,110.322719 C24.7169946,109.343828 25.3084079,108.630054 25.7978533,108.630054 M26.9398927,111.974597 L26.5320215,111.974597 C26.0221825,112.586404 25.4511628,113.07585 24.9005367,113.07585 C24.329517,113.07585 24.0440072,112.729159 24.0440072,111.974597 C24.0440072,111.668694 24.0847943,111.342397 24.145975,111.056887 L27.4905188,109.955635 C28.1431127,108.405725 27.3681574,107.732737 26.4300537,107.732737 C24.839356,107.732737 23.0447227,110.506261 23.0447227,112.688372 C23.0447227,113.728444 23.5341682,114.299463 24.3091234,114.299463 C25.2268336,114.299463 26.1649374,113.42254 26.9398927,111.974597 M19.2923077,108.670841 L20.3935599,108.670841 L18.6397138,113.483721 C18.4765653,113.891592 18.7008945,114.299463 19.1291592,114.299463 C20.3731664,114.299463 21.8822898,113.238998 22.4329159,111.729875 L22.1270125,111.729875 C21.6783542,112.362075 20.6994633,113.055456 19.9652952,113.198211 L21.5763864,108.670841 L23.2282648,108.670841 L23.4322004,107.97746 L21.8211091,107.97746 L22.4329159,106.244007 L21.8007156,106.244007 L20.6586762,107.97746 L19.2923077,108.161002 L19.2923077,108.670841 L19.2923077,108.670841 Z M13.439356,112.423256 C13.439356,110.934526 15.0912343,108.915564 16.0293381,108.915564 C16.2332737,108.915564 16.4372093,108.935957 16.6003578,108.997138 L15.6418605,111.566726 C15.0912343,112.239714 14.2347048,113.055456 13.8268336,113.055456 C13.5821109,113.055456 13.439356,112.871914 13.439356,112.423256 M18.5173524,107.447227 L18.0075134,107.40644 L17.4364937,107.97746 L17.3345259,107.97746 C14.9076923,107.97746 12.2973166,110.995707 12.2973166,113.381753 C12.2973166,113.932379 12.60322,114.299463 13.1946333,114.299463 C13.9084079,114.299463 14.6017889,113.279785 15.3971377,112.198927 L15.3563506,112.586404 C15.2543828,113.687657 15.6010733,114.299463 16.172093,114.299463 C16.8450805,114.299463 17.4568873,113.238998 17.9259392,112.21932 L17.6200358,112.21932 C17.2937388,112.688372 16.9878354,112.973882 16.7431127,112.973882 C16.49839,112.973882 16.3148479,112.50483 16.7431127,111.525939 L18.5173524,107.447227 Z M13.3169946,109.201073 C13.5413238,108.405725 13.4189624,107.732737 12.8275492,107.732737 C12.0729875,107.732737 11.8282648,108.242576 11.0940966,109.833274 L11.0940966,108.935957 C11.0940966,108.303757 10.890161,107.732737 10.2987478,107.732737 C9.62576029,107.732737 9.01395349,108.793202 8.54490161,109.81288 L8.85080501,109.81288 C9.17710197,109.343828 9.48300537,109.058318 9.72772809,109.058318 C10.0132379,109.058318 10.1763864,109.506977 9.72772809,110.506261 L8.40214669,113.42254 C8.15742397,113.973166 8.42254025,114.319857 8.95277281,114.319857 C9.27906977,114.319857 9.42182469,114.238283 9.56457961,113.891592 L10.8493739,110.485868 C11.216458,110.037209 11.5427549,109.649732 11.9506261,109.221467 L13.3169946,109.221467 L13.3169946,109.201073 Z M4.77209302,114.075134 L4.89445438,113.70805 C3.28336315,113.402147 3.07942755,113.402147 3.73202147,111.648301 L4.34382826,109.996422 L5.62862254,109.996422 C6.42397138,109.996422 6.44436494,110.343113 6.32200358,111.220036 L6.79105546,111.220036 L7.85152057,108.303757 L7.38246869,108.303757 C6.9745975,108.997138 6.6686941,109.52737 5.79177102,109.52737 L4.50697674,109.52737 L5.38389982,107.141324 C5.68980322,106.284794 5.83255814,106.121646 6.93381038,106.121646 L7.21932021,106.121646 C8.34096601,106.121646 8.48372093,106.427549 8.48372093,107.610376 L8.93237925,107.610376 L9.29946333,105.6322 L3.07942755,105.6322 L2.95706619,105.999284 C4.24186047,106.264401 4.36422182,106.386762 3.77280859,108.059034 L2.44722719,111.668694 C1.83542039,113.320572 1.59069767,113.463327 0.1019678,113.728444 L0,114.095528 L4.77209302,114.095528 L4.77209302,114.075134 Z" id="Shape" fill="#000000"></path>
                <path d="M35.6275492,94.2411449 C36.0762075,94.2411449 36.4636852,94.5878354 36.2597496,95.3831843 L34.2,95.9338104 C34.526297,94.9549195 35.1381038,94.2411449 35.6275492,94.2411449 M36.7695886,97.5856887 L36.3617174,97.5856887 C35.8518784,98.1974955 35.2808587,98.686941 34.7302326,98.686941 C34.1592129,98.686941 33.873703,98.3402504 33.873703,97.5856887 C33.873703,97.2797853 33.9144902,96.9534884 33.9756708,96.6679785 L37.3202147,95.5667263 C37.9728086,94.0168157 37.1774597,93.3438283 36.2597496,93.3438283 C34.6690519,93.3438283 32.8744186,96.1173524 32.8744186,98.2994633 C32.8744186,99.3395349 33.363864,99.9105546 34.1388193,99.9105546 C35.0565295,99.9309481 35.9946333,99.0336315 36.7695886,97.5856887 M36.239356,92.6096601 L38.1359571,90.8762075 L38.1359571,90.6314848 L36.8715564,90.6314848 L35.7499106,92.6300537 L36.239356,92.6300537 L36.239356,92.6096601 Z M29.1220036,94.281932 L30.2232558,94.281932 L28.4694097,99.0948122 C28.3062612,99.5026834 28.5305903,99.9105546 28.9588551,99.9105546 C30.2028623,99.9105546 31.6915921,98.8500894 32.2626118,97.340966 L31.9567084,97.340966 C31.5080501,97.9731664 30.5291592,98.6665474 29.7949911,98.8093023 L31.4060823,94.281932 L33.0579606,94.281932 L33.2618962,93.588551 L31.650805,93.588551 L32.2626118,91.8550984 L31.6304114,91.8550984 L30.4883721,93.588551 L29.1220036,93.7924866 L29.1220036,94.281932 Z M27.9799642,94.0576029 C28.1227191,93.6089445 27.8168157,93.3642218 27.572093,93.3642218 C26.6135957,93.3642218 25.4511628,94.2411449 25.0025045,95.4443649 L25.3084079,95.4443649 C25.6143113,94.9957066 26.1445438,94.5062612 26.6543828,94.4246869 L24.7985689,99.2375671 C24.6354204,99.6862254 24.9617174,99.9309481 25.2064401,99.9309481 C26.1241503,99.9309481 27.2050089,99.054025 27.6536673,97.850805 L27.3477639,97.850805 C27.0418605,98.2994633 26.5116279,98.7889088 26.0017889,98.870483 L27.9799642,94.0576029 Z M28.1635063,92.1406082 C28.5713775,92.1406082 28.918068,91.7939177 28.918068,91.3860465 C28.918068,90.9781753 28.5713775,90.6314848 28.1635063,90.6314848 C27.7352415,90.6314848 27.4089445,90.9781753 27.4089445,91.3860465 C27.4089445,91.7939177 27.7352415,92.1406082 28.1635063,92.1406082 M22.2493739,98.870483 L25.3084079,90.7538462 L25.2064401,90.6110912 L23.0855098,90.855814 L23.0855098,91.1005367 L23.493381,91.4064401 C23.8604651,91.6919499 23.7381038,91.9570662 23.4118068,92.8747764 L21.086941,99.0744186 C20.8830054,99.4415027 21.1481216,99.890161 21.5763864,99.890161 C22.5348837,99.890161 23.5749553,99.0132379 24.0236136,97.8100179 L23.7177102,97.8100179 C23.3914132,98.2790698 22.7388193,98.7685152 22.2493739,98.870483 M16.0089445,98.034347 C16.0089445,96.5456172 17.6608229,94.5266547 18.5989267,94.5266547 C18.8028623,94.5266547 18.9864043,94.5470483 19.1699463,94.608229 L18.1910555,97.1778175 C17.6404293,97.850805 16.7838998,98.6665474 16.3760286,98.6665474 C16.1516995,98.686941 16.0089445,98.4830054 16.0089445,98.034347 M21.086941,93.078712 L20.577102,93.0379249 L20.0060823,93.6089445 L19.9041145,93.6089445 C17.4772809,93.6089445 14.8669052,96.6271914 14.8669052,99.0132379 C14.8669052,99.563864 15.1728086,99.9309481 15.7642218,99.9309481 C16.4779964,99.9309481 17.1713775,98.9112701 17.9667263,97.8304114 L17.9259392,98.2178891 C17.8239714,99.3191413 18.1706619,99.9309481 18.7416816,99.9309481 C19.4146691,99.9309481 20.0264758,98.870483 20.4955277,97.850805 L20.1896243,97.850805 C19.8633274,98.3198569 19.557424,98.6053667 19.3127013,98.6053667 C19.0679785,98.6053667 18.8844365,98.1363148 19.3127013,97.1778175 L21.086941,93.078712 Z M9.27906977,101.093381 C9.27906977,100.461181 9.89087657,100.053309 10.7677996,99.706619 C11.0533095,99.8493739 11.5019678,100.012522 12.0729875,100.196064 C12.9906977,100.501968 13.3373882,100.624329 13.3373882,100.889445 C13.3373882,101.480859 12.5012522,101.929517 10.9717352,101.929517 C9.82969589,101.949911 9.27906977,101.705188 9.27906977,101.093381 M11.7874776,97.1982111 C11.3796064,97.1982111 11.2368515,96.8515206 11.2368515,96.4640429 C11.2368515,95.2608229 11.8078712,93.8128801 12.7255814,93.8128801 C13.1334526,93.8128801 13.2762075,94.1595707 13.2762075,94.5470483 C13.2762075,95.7298748 12.6847943,97.1982111 11.7874776,97.1982111 M14.3978533,100.501968 C14.3978533,99.7270125 13.7044723,99.4415027 12.5828265,99.1152057 C11.6243292,98.8296959 11.1756708,98.7481216 11.1756708,98.4218247 C11.1756708,98.177102 11.3796064,97.8711986 11.7874776,97.6468694 C13.3781753,97.5652952 14.3774597,96.137746 14.3774597,94.8733453 C14.3774597,94.6490161 14.3366726,94.4450805 14.2754919,94.2615385 L15.3563506,94.2615385 L15.5602862,93.5681574 L13.7248658,93.5681574 C13.4801431,93.4050089 13.1742397,93.3234347 12.8275492,93.3234347 C11.1552773,93.3234347 10.0744186,94.791771 10.0744186,96.0969589 C10.0744186,96.9330948 10.563864,97.5041145 11.3388193,97.6060823 C10.563864,97.9731664 10.1152057,98.360644 10.1152057,98.8500894 C10.1152057,99.1355993 10.2171735,99.3395349 10.4618962,99.5230769 C8.66726297,100.053309 7.93309481,100.726297 7.93309481,101.501252 C7.93309481,102.337388 9.03434705,102.684079 10.3395349,102.684079 C12.5420394,102.704472 14.3978533,101.501252 14.3978533,100.501968 M6.07728086,95.6075134 C6.8726297,95.6075134 6.89302326,95.9542039 6.7706619,96.831127 L7.23971377,96.831127 L8.30017889,93.9148479 L7.83112701,93.9148479 C7.42325581,94.608229 7.11735242,95.1384615 6.24042934,95.1384615 L4.46618962,95.1384615 L5.3431127,92.752415 C5.6490161,91.8958855 5.81216458,91.732737 6.89302326,91.732737 L7.66797853,91.732737 C8.78962433,91.732737 8.93237925,92.0386404 8.93237925,93.2214669 L9.38103757,93.2214669 L9.74812165,91.2432916 L3.07942755,91.2432916 L2.95706619,91.6103757 C4.24186047,91.8754919 4.36422182,91.9978533 3.77280859,93.6701252 L2.44722719,97.2797853 C1.83542039,98.9316637 1.59069767,99.0744186 0.1019678,99.3395349 L0,99.706619 L7.42325581,99.706619 L8.74883721,97.6060823 L8.23899821,97.6060823 C7.38246869,98.4626118 6.50554562,99.2171735 4.85366726,99.2171735 C2.87549195,99.2171735 3.05903399,99.1152057 3.71162791,97.2797853 L4.3234347,95.627907 L6.07728086,95.627907 L6.07728086,95.6075134 Z M7.03577818,90.6314848 L8.93237925,89.2447227 L8.93237925,89 L7.66797853,89 L6.54633274,90.6314848 L7.03577818,90.6314848 Z" id="Shape" fill="#000000"></path>
                <path d="M35.3828265,80.6504472 C35.8314848,80.6504472 36.2189624,80.9971377 36.0150268,81.7924866 L33.9552773,82.3431127 C34.2815742,81.3438283 34.893381,80.6504472 35.3828265,80.6504472 M36.5248658,83.9949911 L36.1169946,83.9949911 C35.6071556,84.6067979 35.036136,85.0962433 34.4855098,85.0962433 C33.9144902,85.0962433 33.6289803,84.7495528 33.6289803,83.9949911 C33.6289803,83.6890877 33.6697674,83.3627907 33.7309481,83.0772809 L37.0754919,81.9760286 C37.7280859,80.4261181 36.932737,79.7531306 36.0150268,79.7531306 C34.4243292,79.7531306 32.6296959,82.5266547 32.6296959,84.7087657 C32.6296959,85.7488372 33.1191413,86.3198569 33.8940966,86.3198569 C34.8118068,86.3198569 35.7499106,85.4429338 36.5248658,83.9949911 M35.9946333,79.0189624 L37.8912343,77.2855098 L37.8912343,77.0407871 L36.6268336,77.0407871 L35.5051878,79.039356 L35.9946333,79.039356 L35.9946333,79.0189624 Z M28.8772809,80.6708408 L29.9989267,80.6708408 L28.2450805,85.4837209 C28.081932,85.8915921 28.3062612,86.2994633 28.7345259,86.2994633 C29.9785331,86.2994633 31.4876565,85.2389982 32.0382826,83.7298748 L31.7323792,83.7298748 C31.2837209,84.3620751 30.3048301,85.0554562 29.5706619,85.1982111 L31.1817531,80.6708408 L32.8336315,80.6708408 L33.0375671,79.9774597 L31.4264758,79.9774597 L32.0382826,78.2440072 L31.4060823,78.2440072 L30.2640429,79.9774597 L28.8976744,80.1610018 L28.8976744,80.6708408 L28.8772809,80.6708408 Z M28.3062612,81.2214669 C28.5305903,80.4261181 28.408229,79.7531306 27.8168157,79.7531306 C27.062254,79.7531306 26.8175313,80.2629696 26.0833631,81.8536673 L26.0833631,80.9563506 C26.0833631,80.3241503 25.8794275,79.7531306 25.3084079,79.7531306 C24.6354204,79.7531306 24.0236136,80.8135957 23.5341682,81.8332737 L23.8400716,81.8332737 C24.1663685,81.3642218 24.4722719,81.078712 24.7169946,81.078712 C25.0025045,81.078712 25.165653,81.5273703 24.7169946,82.5266547 L23.4118068,85.4225403 C23.1670841,85.9731664 23.4322004,86.3198569 23.9624329,86.3198569 C24.2887299,86.3198569 24.4314848,86.2382826 24.5742397,85.8915921 L25.859034,82.5062612 C26.2261181,82.0576029 26.552415,81.6701252 26.9602862,81.2418605 L28.3062612,81.2418605 L28.3062612,81.2214669 Z M21.1889088,80.6504472 C21.6375671,80.6504472 22.0250447,80.9971377 21.8211091,81.7924866 L19.7613596,82.3431127 C20.0876565,81.3438283 20.6994633,80.6504472 21.1889088,80.6504472 M22.3309481,83.9949911 L21.9230769,83.9949911 C21.4132379,84.6067979 20.8422182,85.0962433 20.2915921,85.0962433 C19.7205725,85.0962433 19.4350626,84.7495528 19.4350626,83.9949911 C19.4350626,83.6890877 19.4758497,83.3627907 19.5370304,83.0772809 L22.8815742,81.9760286 C23.5341682,80.4261181 22.7592129,79.7531306 21.8211091,79.7531306 C20.2304114,79.7531306 18.4357782,82.5266547 18.4357782,84.7087657 C18.4357782,85.7488372 18.9252236,86.3198569 19.7001789,86.3198569 C20.6178891,86.3198569 21.5559928,85.4429338 22.3309481,83.9949911 M14.5406082,85.340966 C14.2143113,85.340966 13.7452594,85.0350626 13.7452594,84.7699463 C13.7452594,84.6883721 13.8880143,84.3008945 14.0715564,83.8318426 L14.6017889,82.4042934 C15.1728086,81.7109123 16.0701252,80.9563506 16.5799642,80.9563506 C16.8858676,80.9563506 17.1101968,81.1602862 17.1101968,81.588551 C17.0898032,82.9345259 15.8661896,85.340966 14.5406082,85.340966 M18.2522361,81.078712 C18.2522361,80.0998211 18.0075134,79.732737 17.3141324,79.732737 C16.4576029,79.732737 15.662254,80.6504472 14.8465116,81.7516995 L16.5595707,77.1427549 L16.4576029,77 L14.3366726,77.2447227 L14.3366726,77.4894454 L14.7445438,77.7953488 C15.1116279,78.0808587 14.9892665,78.3663685 14.6629696,79.2636852 L12.8071556,84.137746 C12.6440072,84.5456172 12.4604651,85.0350626 12.4604651,85.157424 C12.4604651,85.7284436 13.2354204,86.2790698 13.949195,86.2790698 C15.5602862,86.3198569 18.2522361,83.3627907 18.2522361,81.078712 M11.9914132,80.4465116 C12.1137746,79.9978533 11.8282648,79.7531306 11.583542,79.7531306 C10.6250447,79.7531306 9.46261181,80.6300537 9.01395349,81.8332737 L9.31985689,81.8332737 C9.62576029,81.3846154 10.1559928,80.8951699 10.6658318,80.8135957 L8.81001789,85.6264758 C8.64686941,86.0751342 8.97316637,86.3198569 9.21788909,86.3198569 C10.1355993,86.3198569 11.216458,85.4429338 11.6651163,84.2397138 L11.3592129,84.2397138 C11.0533095,84.6883721 10.5230769,85.1778175 10.0132379,85.2593918 L11.9914132,80.4465116 Z M12.1953488,78.529517 C12.60322,78.529517 12.9499106,78.1828265 12.9499106,77.7749553 C12.9499106,77.3670841 12.60322,77.0203936 12.1953488,77.0203936 C11.7670841,77.0203936 11.4407871,77.3670841 11.4407871,77.7749553 C11.4407871,78.1828265 11.7670841,78.529517 12.1953488,78.529517 M7.48443649,77.6118068 L3.07942755,77.6118068 L2.95706619,77.9788909 C4.24186047,78.2440072 4.36422182,78.3663685 3.77280859,80.0386404 L2.44722719,83.6483005 C1.83542039,85.3001789 1.59069767,85.4429338 0.1019678,85.7080501 L0,86.0751342 L6.68908766,86.0751342 L8.13703041,83.4851521 L7.62719141,83.4851521 C6.79105546,84.4028623 5.83255814,85.5652952 4.34382826,85.5652952 C3.22218247,85.5652952 3.05903399,85.3613596 3.69123435,83.627907 L5.01681574,80.0182469 C5.62862254,78.3663685 5.87334526,78.2236136 7.36207513,77.9584973 L7.48443649,77.6118068 Z" id="Shape" fill="#000000"></path>
                <path d="M0,44.6172809 L2.95380322,44.6172809 L2.95380322,38.7304758 L4.47230769,38.7304758 L8.34137388,44.6172809 L11.8776172,44.6172809 L7.30130233,38.1688372 C8.03628612,37.8221466 8.60832548,37.3263792 9.01742039,36.6815349 C9.42651531,36.0366905 9.63106261,35.2774383 9.63106261,34.4037782 C9.63106261,33.0586189 9.16649742,31.9977459 8.23736673,31.2211592 C7.30823603,30.4445726 6.04628275,30.0562791 4.45150626,30.0562791 L0,30.0562791 L0,44.6172809 Z M4.61791771,32.5732522 C5.24196064,32.5732522 5.72732726,32.73273 6.07401789,33.0516852 C6.42070841,33.3706403 6.59405367,33.8074704 6.59405367,34.3621753 C6.59405367,34.9584831 6.42070841,35.4161146 6.07401789,35.7350698 C5.72732726,36.0540249 5.24196064,36.2135027 4.61791771,36.2135027 L2.95380322,36.2135027 L2.95380322,32.5732522 L4.61791771,32.5732522 Z M19.4701395,28.8081932 L22.1743256,26 L19.1373166,26 L16.7867549,28.8081932 L19.4701395,28.8081932 Z M13.9161574,44.6172809 L22.4031413,44.6172809 L22.4031413,42.1003077 L16.8699606,42.1003077 L16.8699606,38.4600572 L21.5710841,38.4600572 L21.5710841,35.9430841 L16.8699606,35.9430841 L16.8699606,32.5732522 L22.4031413,32.5732522 L22.4031413,30.0562791 L13.9161574,30.0562791 L13.9161574,44.6172809 Z M26.0433918,44.6172809 L28.997195,44.6172809 L28.997195,38.7304758 L30.8485224,38.7304758 C32.4432989,38.7304758 33.7017854,38.3421824 34.6239821,37.5655957 C35.5461788,36.7890091 36.0072773,35.7350698 36.0072773,34.4037782 C36.0072773,33.0586189 35.5461788,31.9977459 34.6239821,31.2211592 C33.7017854,30.4445726 32.4432989,30.0562791 30.8485224,30.0562791 L26.0433918,30.0562791 L26.0433918,44.6172809 Z M30.9733309,32.5732522 C31.5973739,32.5732522 32.0862075,32.73273 32.4398318,33.0516852 C32.7934562,33.3706403 32.9702683,33.8074704 32.9702683,34.3621753 C32.9702683,34.9584831 32.7934562,35.4161146 32.4398318,35.7350698 C32.0862075,36.0540249 31.5973739,36.2135027 30.9733309,36.2135027 L28.997195,36.2135027 L28.997195,32.5732522 L30.9733309,32.5732522 Z M47.0736386,39.1673059 C47.0736386,40.1380395 46.8101537,40.8972917 46.2831843,41.4450626 C45.7562148,41.9928335 45.0420321,42.2667191 44.1406369,42.2667191 C43.2253739,42.2667191 42.5042575,41.9928335 41.977288,41.4450626 C41.4503185,40.8972917 41.1868336,40.1380395 41.1868336,39.1673059 L41.1868336,30.0562791 L38.2330304,30.0562791 L38.2330304,38.9176887 C38.2330304,40.8175527 38.7599999,42.311789 39.8139392,43.4003971 C40.8678785,44.4890053 42.3031772,45.0333095 44.1198354,45.0333095 C45.9364936,45.0333095 47.3752594,44.4890053 48.4361324,43.4003971 C49.4970054,42.311789 50.0274419,40.8175527 50.0274419,38.9176887 L50.0274419,30.0562791 L47.0736386,30.0562791 L47.0736386,39.1673059 Z M53.8965081,44.6172809 L58.3480143,44.6172809 C60.0121288,44.6172809 61.3295527,44.2359214 62.3002862,43.4732021 C63.2710198,42.7104829 63.7563864,41.6634776 63.7563864,40.332186 C63.7563864,39.5833345 63.5483721,38.907288 63.1323435,38.3040465 C62.7163148,37.700805 62.1269411,37.2258391 61.3642218,36.8791485 C61.8634562,36.5324579 62.2448156,36.1129625 62.5083005,35.6206619 C62.7717854,35.1283613 62.9035277,34.5909911 62.9035277,34.008551 C62.9035277,32.7882003 62.4701647,31.8244007 61.6034383,31.1171521 C60.7367119,30.4099034 59.5475636,30.0562791 58.0359928,30.0562791 L53.8965081,30.0562791 L53.8965081,44.6172809 Z M58.0983971,32.5732522 C58.6531021,32.5732522 59.0864651,32.7153952 59.3984866,32.9996816 C59.7105081,33.2839679 59.8665188,33.6687944 59.8665188,34.154161 C59.8665188,34.6672631 59.7105081,35.0624903 59.3984866,35.3398426 C59.0864651,35.6171949 58.6531021,35.7558712 58.0983971,35.7558712 L56.8503113,35.7558712 L56.8503113,32.5732522 L58.0983971,32.5732522 Z M58.5144258,38.2936458 C59.1939393,38.2936458 59.7313095,38.4565902 60.1265367,38.7824794 C60.5217639,39.1083686 60.7193775,39.5694668 60.7193775,40.1657746 C60.7193775,40.7620824 60.5217639,41.2335813 60.1265367,41.5802719 C59.7313095,41.9269625 59.1939393,42.1003077 58.5144258,42.1003077 L56.8503113,42.1003077 L56.8503113,38.2936458 L58.5144258,38.2936458 Z M66.9806082,44.6172809 L75.4675921,44.6172809 L75.4675921,41.9338962 L69.9344114,41.9338962 L69.9344114,30.0562791 L66.9806082,30.0562791 L66.9806082,44.6172809 Z M78.2757853,44.6172809 L81.2295886,44.6172809 L81.2295886,30.0562791 L78.2757853,30.0562791 L78.2757853,44.6172809 Z M97.7251234,44.2428551 L96.8514633,43.4107979 C97.7389912,42.7035492 98.4393058,41.8160214 98.9524079,40.7482147 C99.4655099,39.680408 99.7220608,38.543263 99.7220608,37.33678 C99.7220608,36.2967084 99.5348479,35.3086404 99.1604222,34.372576 C98.7859964,33.4365116 98.2590269,32.6217888 97.5795134,31.9284079 C96.8999999,31.2350269 96.0852774,30.680322 95.1353453,30.2642934 C94.1854131,29.8482648 93.1418749,29.6402504 92.0047299,29.6402504 C90.8675849,29.6402504 89.8205796,29.8482648 88.8637138,30.2642934 C87.9068479,30.680322 87.0886584,31.2350269 86.4091449,31.9284079 C85.7296314,32.6217888 85.2026619,33.4365116 84.8282361,34.372576 C84.4538104,35.3086404 84.2665975,36.2967084 84.2665975,37.33678 C84.2665975,38.3768515 84.4538104,39.3649195 84.8282361,40.3009839 C85.2026619,41.2370483 85.7296314,42.0517711 86.4091449,42.7451521 C87.0886584,43.438533 87.9068479,43.9932379 88.8637138,44.4092665 C89.8205796,44.8252952 90.8675849,45.0333095 92.0047299,45.0333095 C92.3514205,45.0333095 92.6946441,45.0125081 93.0344007,44.9709052 C93.3741573,44.9293023 93.6965795,44.866898 94.0016673,44.7836923 L95.728186,46.3229982 C96.4354347,46.9470411 97.1704185,47.422007 97.9331377,47.7478962 C98.695857,48.0737854 99.4793774,48.2367299 100.283699,48.2367299 C100.602655,48.2367299 100.880007,48.2159284 101.115757,48.1743256 C101.351506,48.1327227 101.587256,48.0633847 101.823005,47.9663113 L101.823005,45.4701395 C101.670462,45.5256101 101.497116,45.567213 101.30297,45.5949481 C101.108823,45.6226833 100.935478,45.636551 100.782934,45.636551 C100.311435,45.636551 99.822601,45.5325438 99.3164329,45.3245295 C98.8102649,45.1165152 98.2798284,44.7559572 97.7251234,44.2428551 Z M92.0047299,42.2667191 C91.3252164,42.2667191 90.6942397,42.1384435 90.1117996,41.8818927 C89.5293596,41.6253418 89.0335922,41.2786512 88.6244973,40.8418211 C88.2154024,40.4049911 87.8929802,39.8849553 87.6572308,39.2817138 C87.4214813,38.6784723 87.3036064,38.0301609 87.3036064,37.33678 C87.3036064,36.643399 87.4214813,35.9950877 87.6572308,35.3918462 C87.8929802,34.7886047 88.2154024,34.2685689 88.6244973,33.8317388 C89.0335922,33.3949088 89.5293596,33.0482181 90.1117996,32.7916673 C90.6942397,32.5351164 91.3252164,32.4068408 92.0047299,32.4068408 C92.6842434,32.4068408 93.311753,32.5351164 93.8872594,32.7916673 C94.4627658,33.0482181 94.9550661,33.3949088 95.364161,33.8317388 C95.7732559,34.2685689 96.0956781,34.7886047 96.3314275,35.3918462 C96.567177,35.9950877 96.6850519,36.643399 96.6850519,37.33678 C96.6850519,38.0301609 96.567177,38.6784723 96.3314275,39.2817138 C96.0956781,39.8849553 95.7732559,40.4049911 95.364161,40.8418211 C94.9550661,41.2786512 94.4627658,41.6253418 93.8872594,41.8818927 C93.311753,42.1384435 92.6842434,42.2667191 92.0047299,42.2667191 Z M111.183649,39.1673059 C111.183649,40.1380395 110.920164,40.8972917 110.393195,41.4450626 C109.866226,41.9928335 109.152043,42.2667191 108.250648,42.2667191 C107.335385,42.2667191 106.614268,41.9928335 106.087299,41.4450626 C105.560329,40.8972917 105.296844,40.1380395 105.296844,39.1673059 L105.296844,30.0562791 L102.343041,30.0562791 L102.343041,38.9176887 C102.343041,40.8175527 102.870011,42.311789 103.92395,43.4003971 C104.977889,44.4890053 106.413188,45.0333095 108.229846,45.0333095 C110.046504,45.0333095 111.48527,44.4890053 112.546143,43.4003971 C113.607016,42.311789 114.137453,40.8175527 114.137453,38.9176887 L114.137453,30.0562791 L111.183649,30.0562791 L111.183649,39.1673059 Z M118.006519,44.6172809 L126.493503,44.6172809 L126.493503,42.1003077 L120.960322,42.1003077 L120.960322,38.4600572 L125.661445,38.4600572 L125.661445,35.9430841 L120.960322,35.9430841 L120.960322,32.5732522 L126.493503,32.5732522 L126.493503,30.0562791 L118.006519,30.0562791 L118.006519,44.6172809 Z M0,65.6226476 L2.95380322,65.6226476 L2.95380322,59.465424 L7.65492665,59.465424 L7.65492665,56.9484508 L2.95380322,56.9484508 L2.95380322,53.578619 L8.4869839,53.578619 L8.4869839,51.0616458 L0,51.0616458 L0,65.6226476 Z M11.2951771,65.6226476 L14.2489803,65.6226476 L14.2489803,59.7358426 L15.7674848,59.7358426 L19.636551,65.6226476 L23.1727943,65.6226476 L18.5964794,59.1742039 C19.3314632,58.8275133 19.9035026,58.331746 20.3125975,57.6869016 C20.7216924,57.0420572 20.9262397,56.282805 20.9262397,55.4091449 C20.9262397,54.0639856 20.4616745,53.0031126 19.5325438,52.2265259 C18.6034131,51.4499393 17.3414599,51.0616458 15.7466834,51.0616458 L11.2951771,51.0616458 L11.2951771,65.6226476 Z M15.9130948,53.578619 C16.5371377,53.578619 17.0225044,53.7380967 17.369195,54.0570519 C17.7158855,54.376007 17.8892308,54.8128371 17.8892308,55.367542 C17.8892308,55.9638498 17.7158855,56.4214813 17.369195,56.7404365 C17.0225044,57.0593917 16.5371377,57.2188694 15.9130948,57.2188694 L14.2489803,57.2188694 L14.2489803,53.578619 L15.9130948,53.578619 Z M23.3808086,65.6226476 L26.5218247,65.6226476 L27.9155206,61.8367871 L33.7399213,61.8367871 L35.1336172,65.6226476 L38.2746333,65.6226476 L32.762254,51.0616458 L28.8931878,51.0616458 L23.3808086,65.6226476 Z M28.8307835,59.319814 L30.8277209,53.8490376 L32.8246583,59.319814 L28.8307835,59.319814 Z M40.7292021,65.6226476 L43.6830054,65.6226476 L43.6830054,55.1595277 L50.1938533,65.6226476 L53.9797138,65.6226476 L53.9797138,51.0616458 L51.0259106,51.0616458 L51.0259106,61.4831628 L44.5150626,51.0616458 L40.7292021,51.0616458 L40.7292021,65.6226476 Z M64.7548551,63.2720859 C64.0753416,63.2720859 63.4443649,63.1438103 62.8619249,62.8872594 C62.2794848,62.6307085 61.7837175,62.2840179 61.3746225,61.8471878 C60.9655276,61.4103578 60.6431054,60.890322 60.407356,60.2870805 C60.1716065,59.683839 60.0537317,59.0355276 60.0537317,58.3421467 C60.0537317,57.6487658 60.1716065,57.0004544 60.407356,56.3972129 C60.6431054,55.7939714 60.9655276,55.2739356 61.3746225,54.8371055 C61.7837175,54.4002755 62.2794848,54.0535849 62.8619249,53.797034 C63.4443649,53.5404831 64.0753416,53.4122075 64.7548551,53.4122075 C65.5869123,53.4122075 66.3253631,53.5959534 66.9702075,53.9634454 C67.6150519,54.3309375 68.1454884,54.8128371 68.561517,55.4091449 L70.8912773,53.5994204 C70.2256315,52.7257603 69.3658391,52.0150446 68.3118998,51.4672737 C67.2579605,50.9195028 66.072279,50.6456172 64.7548551,50.6456172 C63.6177101,50.6456172 62.5707048,50.8536315 61.613839,51.2696601 C60.6569732,51.6856887 59.8387836,52.2403937 59.1592701,52.9337746 C58.4797566,53.6271555 57.9527871,54.4418784 57.5783614,55.3779428 C57.2039356,56.3140072 57.0167227,57.3020751 57.0167227,58.3421467 C57.0167227,59.2574097 57.1657997,60.1380035 57.4639535,60.9839284 C57.7621072,61.8298534 58.1850699,62.5891057 58.7328408,63.2616852 C59.2806117,63.9342647 59.9427908,64.5028373 60.7193775,64.9674025 C61.4959641,65.4319677 62.3557568,65.7474562 63.2987549,65.9138676 L61.468229,68.971678 L64.0892093,68.971678 L65.8989338,65.9554705 C66.9528731,65.8167942 67.9097389,65.4909053 68.7695313,64.9778032 C69.6293237,64.4647011 70.3365723,63.8267908 70.8912773,63.0640716 L68.561517,61.2751485 C68.1454884,61.8714563 67.6150519,62.3533559 66.9702075,62.7208479 C66.3253631,63.08834 65.5869123,63.2720859 64.7548551,63.2720859 Z M71.8273417,65.6226476 L74.9683578,65.6226476 L76.3620537,61.8367871 L82.1864544,61.8367871 L83.5801503,65.6226476 L86.7211664,65.6226476 L81.2087871,51.0616458 L77.3397209,51.0616458 L71.8273417,65.6226476 Z M77.2773166,59.319814 L79.274254,53.8490376 L81.2711914,59.319814 L77.2773166,59.319814 Z M89.1757352,65.6226476 L92.1295385,65.6226476 L92.1295385,51.0616458 L89.1757352,51.0616458 L89.1757352,65.6226476 Z M95.1041431,63.6049088 C95.7420538,64.367628 96.497839,64.9639355 97.3714991,65.3938318 C98.2451592,65.8237282 99.2921645,66.0386762 100.512515,66.0386762 C101.178161,66.0386762 101.802204,65.9381361 102.384644,65.7370555 C102.967084,65.5359748 103.473252,65.2482218 103.903148,64.8737961 C104.333045,64.4993703 104.676268,64.0417388 104.932819,63.5009016 C105.18937,62.9600644 105.32458,62.3498892 105.338447,61.6703757 C105.338447,60.4500249 104.991757,59.5208946 104.298376,58.8829839 C103.604995,58.2450732 102.842275,57.7285045 102.010218,57.3332773 L101.201274,56.9472951 C100.677386,56.6961371 100.184315,56.4573058 99.7220608,56.2308014 C99.0286799,55.8910448 98.6819893,55.3952772 98.6819893,54.7434991 C98.6819893,54.3136028 98.834533,53.9530447 99.1396208,53.6618247 C99.4447085,53.3706047 99.8538031,53.2249946 100.366905,53.2249946 C100.92161,53.2249946 101.438179,53.3879391 101.916612,53.7138283 C102.395045,54.0397175 102.849209,54.4800142 103.279106,55.0347191 L105.442454,53.100186 C104.832279,52.3652023 104.100762,51.7723615 103.247903,51.3216637 C102.395045,50.8709659 101.427778,50.6456172 100.346104,50.6456172 C99.6527228,50.6456172 99.0217459,50.756558 98.4531735,50.9784401 C97.8846012,51.2003221 97.3957675,51.5019429 96.9866726,51.8833023 C96.5775777,52.2646618 96.2586225,52.7153596 96.0298068,53.2353953 C95.8009911,53.7554311 95.6865832,54.2997353 95.6865832,54.8683077 C95.6865832,56.0747907 96.0332738,56.9900537 96.7266547,57.6140966 C97.4200357,58.2381395 98.1827549,58.7477746 99.0148122,59.1430018 L99.4250626,59.3383041 C100.099183,59.6599559 100.725152,59.9623471 101.30297,60.2454776 C101.996351,60.5852342 102.343041,61.0810019 102.343041,61.73278 C102.343041,62.2597494 102.17663,62.6723114 101.843807,62.9704651 C101.510984,63.2686189 101.053352,63.4176959 100.470912,63.4176959 C99.8746045,63.4176959 99.2956315,63.2582181 98.7339928,62.939263 C98.1723542,62.6203078 97.6765869,62.1834777 97.2466905,61.6287728 L95.1041431,63.6049088 Z M108.645875,65.6226476 L108.645875,51.0616458 L117.132859,51.0616458 L117.132859,53.578619 L111.599678,53.578619 L111.599678,56.9484508 L116.300801,56.9484508 L116.300801,59.465424 L111.599678,59.465424 L111.599678,63.1056744 L117.132859,63.1056744 L117.132859,65.6226476 L108.645875,65.6226476 Z" id="RÉPUBLIQUEFRANÇAISE" fill="#000000"></path>
                <g id="marianne">
                    <path d="M18.2318426,17.9055456 C18.2522361,17.9055456 18.2522361,17.9055456 18.2318426,17.9055456 C18.3134168,17.8647585 18.3542039,17.8443649 18.3949911,17.8035778 C18.3949911,17.8035778 18.3745975,17.8035778 18.3745975,17.8035778 C18.3338104,17.8239714 18.2930233,17.8647585 18.2318426,17.9055456" id="Path" fill="#1F356C"></path>
                    <path d="M25.7162791,15.4175313 L25.6754919,15.4583184 C25.6958855,15.4583184 25.7162791,15.4379249 25.7162791,15.4175313" id="Path" fill="#1F356C"></path>
                    <path d="M24.00322,17.3345259 C24.4110912,16.8654741 24.8189624,16.4372093 25.2880143,16.0293381 C25.4307692,15.9069767 25.5735242,15.7846154 25.7162791,15.7030411 C25.7570662,15.662254 25.7570662,15.5806798 25.7978533,15.5398927 C25.6143113,15.6214669 25.4919499,15.7642218 25.2880143,15.8457961 C25.2472272,15.8457961 25.2064401,15.8050089 25.2472272,15.7642218 C25.3899821,15.662254 25.532737,15.5602862 25.6550984,15.4583184 C25.6550984,15.4583184 25.6347048,15.4583184 25.6347048,15.4583184 C25.5939177,15.4583184 25.5939177,15.4175313 25.5939177,15.3767442 C25.0840787,15.2951699 24.7169946,15.6418605 24.3703041,15.9477639 C24.2887299,15.988551 24.2071556,15.9069767 24.1867621,15.9069767 C23.6157424,16.0905188 23.1874776,16.6003578 22.616458,16.8246869 L22.616458,16.7431127 C22.3921288,16.8246869 22.1677996,16.9674419 21.9230769,17.008229 C21.5763864,17.0898032 21.270483,17.0490161 20.9645796,17.0490161 C20.4955277,17.0898032 20.0264758,17.191771 19.557424,17.2937388 C19.5370304,17.2937388 19.5370304,17.2937388 19.5166369,17.3141324 C19.2719141,17.3753131 19.0271914,17.4772809 18.8028623,17.5996422 L18.7824687,17.6200358 C18.7620751,17.6404293 18.7416816,17.6608229 18.721288,17.6812165 C18.6397138,17.7627907 18.5581395,17.8647585 18.4561717,17.9055456 C18.211449,18.027907 18.027907,18.2318426 17.8239714,18.4153846 C17.8035778,18.4357782 17.7831843,18.4357782 17.7627907,18.4357782 C17.5588551,18.6397138 17.3549195,18.8436494 17.1509839,19.0271914 C17.1305903,19.047585 17.0694097,19.047585 17.0286225,19.047585 C17.0286225,19.0271914 17.0490161,19.0271914 17.0490161,19.0067979 C17.0898032,18.9456172 17.1101968,18.9048301 17.1509839,18.8436494 C17.191771,18.7824687 17.2325581,18.721288 17.2733453,18.6601073 C17.3345259,18.5785331 17.3753131,18.4969589 17.4364937,18.4357782 C17.4568873,18.4153846 17.4568873,18.3949911 17.4364937,18.3949911 C17.4161002,18.3745975 17.3957066,18.3745975 17.3753131,18.3745975 C17.5588551,18.1910555 17.8035778,18.027907 18.027907,17.8851521 C18.0075134,17.8851521 17.9667263,17.8647585 17.9871199,17.8443649 C18.0075134,17.8035778 18.027907,17.7831843 18.0483005,17.7423971 C18.0483005,17.7220036 18.0483005,17.7220036 18.0686941,17.70161 C18.0686941,17.6812165 18.0483005,17.6812165 18.0483005,17.6608229 C17.9871199,17.70161 17.9259392,17.7423971 17.8647585,17.7831843 C17.7627907,17.8647585 17.70161,18.027907 17.5588551,18.027907 C17.5588551,18.027907 17.518068,18.027907 17.4976744,18.027907 C17.4772809,18.027907 17.4568873,18.027907 17.4568873,18.0075134 C17.4568873,18.0075134 17.4568873,18.0075134 17.4568873,17.9871199 C17.4568873,17.9667263 17.4772809,17.9667263 17.4772809,17.9463327 C17.4772809,17.9259392 17.4976744,17.9259392 17.4976744,17.9055456 C17.4976744,17.9055456 17.4976744,17.8851521 17.518068,17.8851521 C17.518068,17.8647585 17.5384615,17.8443649 17.5384615,17.8443649 C17.5384615,17.8239714 17.5588551,17.8239714 17.5588551,17.8035778 C17.5792487,17.7831843 17.5996422,17.7423971 17.5996422,17.7220036 C17.5996422,17.70161 17.6200358,17.70161 17.6200358,17.6812165 C17.6404293,17.6608229 17.6404293,17.6404293 17.6608229,17.6200358 C17.6812165,17.5792487 17.6608229,17.5588551 17.6404293,17.5588551 C17.70161,17.4568873 17.8035778,17.3957066 17.9055456,17.3345259 L17.8851521,17.3345259 C18.027907,17.2529517 18.1910555,17.1713775 18.3338104,17.0898032 C18.3542039,17.0694097 18.3745975,17.0490161 18.3949911,17.0286225 C18.1706619,17.1101968 17.9871199,17.2121646 17.7831843,17.3345259 C17.7831843,17.3345259 17.7423971,17.3549195 17.7220036,17.3753131 C17.7220036,17.3753131 17.6812165,17.3957066 17.6200358,17.3345259 C17.6200358,17.3345259 17.6200358,17.3141324 17.6200358,17.3141324 C17.6608229,17.2325581 17.7831843,17.191771 17.8443649,17.1305903 C17.8851521,17.1305903 17.9259392,17.1305903 17.9259392,17.1713775 C19.1699463,16.2128801 20.8626118,16.4372093 22.290161,15.9477639 C22.4125224,15.8661896 22.5144902,15.7846154 22.6368515,15.7234347 C22.8203936,15.6418605 22.983542,15.4583184 23.2078712,15.3359571 C23.5137746,15.1116279 23.7381038,14.8261181 23.8604651,14.459034 C23.8604651,14.4182469 23.819678,14.3774597 23.819678,14.3774597 C23.309839,14.9076923 22.7388193,15.3359571 22.1270125,15.6418605 C21.3112701,16.0701252 20.434347,15.988551 19.5778175,16.1109123 C19.6186047,16.0293381 19.7001789,16.0293381 19.7613596,16.0293381 C19.7613596,15.9069767 19.8429338,15.8661896 19.9245081,15.8050089 L20.0468694,15.8050089 C20.0876565,15.8050089 20.0876565,15.7234347 20.1284436,15.7234347 C20.2100179,15.7234347 20.3323792,15.6826476 20.2915921,15.6826476 C20.1692308,15.5194991 19.9449016,15.8050089 19.7613596,15.6826476 C19.8429338,15.6010733 19.8021467,15.4991055 19.8837209,15.4583184 L20.0468694,15.4583184 C20.0468694,15.3767442 20.1284436,15.2951699 20.1284436,15.2951699 C20.6994633,14.9484794 21.2500894,14.6833631 21.780322,14.3774597 C21.6579606,14.3774597 21.59678,14.4998211 21.4744186,14.4182469 C21.5559928,14.4182469 21.4744186,14.2958855 21.5559928,14.2958855 C21.9842576,14.1735242 22.3309481,13.949195 22.7592129,13.7860465 C22.5960644,13.7860465 22.4940966,13.9084079 22.3309481,13.7860465 C22.4125224,13.7452594 22.4533095,13.6636852 22.5552773,13.6636852 L22.5552773,13.5413238 C22.5552773,13.5005367 22.5960644,13.5005367 22.6368515,13.5005367 C22.5960644,13.5005367 22.5552773,13.4597496 22.5552773,13.4597496 C22.5960644,13.3781753 22.7184258,13.4189624 22.7796064,13.3373882 C22.7388193,13.3373882 22.6572451,13.3373882 22.6572451,13.2966011 C22.7796064,13.1334526 22.9631485,13.113059 23.1670841,13.0722719 C23.126297,12.9906977 23.0039356,13.0722719 23.0039356,12.9906977 C23.0039356,12.9499106 23.0447227,12.9499106 23.0855098,12.9499106 L23.0039356,12.9499106 C22.9223614,12.9091234 22.9631485,12.8275492 22.9631485,12.7867621 C23.1874776,12.5216458 23.1874776,12.1749553 23.309839,11.8690519 C23.2690519,11.8690519 23.2282648,11.8690519 23.2282648,11.8282648 C22.8407871,12.2565295 22.2289803,12.3992844 21.6579606,12.5624329 L21.3928444,12.5624329 C21.2093023,12.6440072 20.9237925,12.6440072 20.7402504,12.5216458 C20.577102,12.4400716 20.5159213,12.3381038 20.3527728,12.2157424 C20.0468694,12.0322004 19.740966,11.8690519 19.3942755,11.7466905 C18.4357782,11.4407871 17.4364937,11.2776386 16.4372093,11.3184258 C16.8654741,11.0940966 17.3345259,11.073703 17.7831843,10.9309481 C18.4357782,10.7474061 19.047585,10.5026834 19.740966,10.5434705 C19.6186047,10.5026834 19.4758497,10.5434705 19.3534884,10.5434705 C18.8232558,10.5026834 18.2726297,10.6658318 17.70161,10.7677996 C17.3141324,10.8493739 16.9674419,10.9921288 16.5799642,11.073703 C16.3556351,11.1552773 16.2332737,11.3796064 15.9681574,11.3388193 L15.9681574,11.216458 C16.3556351,10.7474061 16.8246869,10.2987478 17.4364937,10.2579606 C18.1298748,10.1355993 18.7824687,10.2579606 19.4758497,10.3395349 C19.9856887,10.380322 20.434347,10.5026834 20.944186,10.6046512 C21.1277281,10.6046512 21.1685152,10.9105546 21.3316637,10.9513417 C21.5559928,11.0329159 21.8007156,10.9513417 22.0250447,11.1144902 C22.0250447,11.0329159 21.9842576,10.9513417 22.0250447,10.890161 C22.1881932,10.7270125 22.3717352,10.9309481 22.5348837,10.8493739 C22.8407871,10.6658318 22.2697674,10.3191413 22.106619,10.0336315 C22.106619,9.99284436 22.1474061,9.95205725 22.1474061,9.95205725 C22.4533095,10.2171735 22.6776386,10.5230769 23.0651163,10.7270125 C23.2486583,10.8085868 23.7177102,10.9105546 23.636136,10.6862254 C23.4525939,10.2579606 23.0651163,9.91127013 22.7388193,9.52379249 L22.7388193,9.36064401 C22.6572451,9.36064401 22.6572451,9.31985689 22.616458,9.27906977 L22.616458,9.11592129 C22.4533095,9.03434705 22.4940966,8.89159213 22.4329159,8.76923077 C22.3105546,8.58568873 22.3921288,8.30017889 22.3105546,8.07584973 C22.2289803,7.85152057 22.1881932,7.64758497 22.1474061,7.42325581 C22.0250447,6.7706619 21.8822898,6.19964222 21.8007156,5.56744186 C21.7191413,4.8332737 22.2289803,4.26225403 22.5756708,3.60966011 C22.8407871,3.14060823 23.1466905,2.69194991 23.6565295,2.38604651 C23.7788909,1.91699463 24.0847943,1.52951699 24.3906977,1.16243292 C24.6966011,0.795348837 25.2064401,0.550626118 25.5735242,0.387477639 C26.1037567,0.142754919 26.5932021,0 26.5932021,0 L0,0 L0,20 L18.9048301,20 C20,20 20.3731664,19.6186047 21.3928444,19.1087657 C21.8822898,18.9048301 22.983542,18.3949911 23.3506261,18.027907 C23.5749553,17.8035778 23.7992844,17.5792487 24.00322,17.3345259 Z M17.2529517,15.2135957 C17.2937388,15.0300537 17.5588551,15.0300537 17.7220036,14.9484794 C17.8035778,14.9076923 17.9055456,14.8261181 17.9871199,14.8669052 C18.0686941,14.9892665 18.1706619,14.9484794 18.2522361,15.0300537 C18.0075134,15.2543828 17.70161,15.152415 17.4364937,15.2543828 C17.3549195,15.2543828 17.2121646,15.2951699 17.2529517,15.2135957 Z M11.4815742,14.3366726 C11.9914132,13.6840787 12.3584973,13.0722719 12.7255814,12.3788909 C13.2354204,12.1137746 13.6432916,11.726297 14.0307692,11.2980322 C14.6833631,10.6046512 15.3767442,9.99284436 16.1924866,9.60536673 C16.49839,9.48300537 16.8858676,9.52379249 17.191771,9.64615385 C17.0694097,9.80930233 16.8858676,9.76851521 16.7227191,9.87048301 C16.681932,9.87048301 16.6411449,9.87048301 16.6003578,9.82969589 C16.6411449,9.78890877 16.6411449,9.74812165 16.6411449,9.70733453 C16.2536673,10.1355993 15.7234347,10.3191413 15.4175313,10.8289803 C15.1932021,11.216458 15.0300537,11.7059034 14.5406082,11.8282648 C14.3774597,11.8690519 14.5813953,11.7059034 14.4998211,11.7466905 C13.2966011,12.4808587 12.4604651,13.3781753 11.5223614,14.4182469 C11.5223614,14.4182469 11.4815742,14.3774597 11.4815742,14.3366726 Z M14.6017889,12.0322004 C14.5610018,12.1137746 14.5202147,12.1545617 14.4386404,12.1953488 C14.3978533,12.1953488 14.3570662,12.1953488 14.3570662,12.1545617 C14.3978533,11.9914132 14.5202147,11.8486583 14.6629696,11.8078712 C14.7241503,11.7874776 14.7241503,11.8282648 14.7241503,11.8690519 C14.6833631,11.9506261 14.642576,11.9506261 14.6017889,12.0322004 Z M16.4168157,17.7627907 C16.4576029,17.7627907 16.49839,17.8035778 16.4576029,17.8239714 C16.3760286,17.9055456 16.2740608,17.9871199 16.172093,18.027907 C16.172093,18.027907 16.1313059,18.027907 16.1109123,18.027907 C16.0701252,18.0686941 16.0089445,18.1094812 15.9681574,18.1706619 C15.9273703,18.211449 15.7030411,18.1910555 15.7642218,18.1298748 C15.8661896,18.0483005 15.9477639,17.9463327 16.0497317,17.8647585 C16.1109123,17.8239714 16.172093,17.7627907 16.2128801,17.70161 C16.2332737,17.6608229 16.2536673,17.6404293 16.2944544,17.6200358 C16.3556351,17.5792487 16.5595707,17.5588551 16.5187835,17.6404293 C16.49839,17.6812165 16.4576029,17.7220036 16.4168157,17.7627907 Z M15.3767442,17.6404293 C15.2135957,17.7423971 15.0300537,17.8035778 14.8669052,17.8851521 C14.8465116,17.8647585 14.8261181,17.8647585 14.8057245,17.8647585 C14.6629696,17.9463327 14.5406082,18.0483005 14.4182469,18.1706619 C14.3978533,18.1910555 14.3774597,18.211449 14.3570662,18.2318426 L14.2958855,18.2930233 C14.2754919,18.3134168 14.2347048,18.3542039 14.2143113,18.3745975 C14.1939177,18.3949911 14.1939177,18.4153846 14.1531306,18.4357782 C14.132737,18.4561717 14.0715564,18.4561717 14.0715564,18.4153846 C14.0511628,18.4357782 14.0307692,18.4357782 14.0103757,18.4561717 C13.9899821,18.4765653 13.9695886,18.4765653 13.949195,18.4969589 C13.949195,18.4969589 13.9288014,18.4969589 13.9288014,18.4969589 C13.9288014,18.4969589 13.9084079,18.4969589 13.9084079,18.4969589 C13.8676208,18.537746 13.8064401,18.5785331 13.765653,18.6193202 C13.6840787,18.7008945 13.6025045,18.7620751 13.5413238,18.8640429 C13.5413238,18.8640429 13.5413238,18.8640429 13.5413238,18.8844365 C13.5413238,18.8844365 13.5413238,18.8844365 13.5209302,18.9048301 C13.5209302,18.9048301 13.5209302,18.9252236 13.5005367,18.9252236 C13.5005367,18.9456172 13.4801431,18.9456172 13.4801431,18.9660107 C13.4801431,18.9660107 13.4597496,18.9864043 13.439356,18.9864043 C13.439356,18.9864043 13.4189624,18.9660107 13.4189624,18.9660107 C13.4189624,18.9660107 13.4189624,18.9456172 13.3985689,18.9456172 C13.3781753,18.9252236 13.3781753,18.9048301 13.3577818,18.8844365 C13.3577818,18.8844365 13.3577818,18.8640429 13.3577818,18.8640429 C13.3985689,18.8232558 13.439356,18.7824687 13.4801431,18.721288 C13.5005367,18.7008945 13.5005367,18.6805009 13.5209302,18.6805009 C13.5413238,18.6601073 13.5617174,18.6193202 13.5821109,18.5989267 C13.5821109,18.5785331 13.6025045,18.5785331 13.6025045,18.5581395 C13.6432916,18.4969589 13.6840787,18.4561717 13.7248658,18.3949911 C13.7248658,18.3949911 13.7452594,18.3745975 13.7452594,18.3745975 C13.765653,18.3542039 13.7860465,18.3134168 13.8064401,18.2930233 C13.8268336,18.2726297 13.8268336,18.2522361 13.8472272,18.211449 C13.8472272,18.211449 13.8472272,18.211449 13.8472272,18.1910555 C13.8676208,18.1502683 13.8676208,18.1298748 13.8880143,18.1094812 L13.8880143,18.0890877 C13.8880143,18.0686941 13.8880143,18.0686941 13.9084079,18.0483005 C13.9084079,18.027907 13.9084079,18.0075134 13.9288014,17.9871199 C13.9288014,17.9871199 13.9288014,17.9667263 13.9288014,17.9667263 C13.9695886,17.8851521 14.0307692,17.8239714 14.0919499,17.7627907 C14.0919499,17.7627907 14.0715564,17.7627907 14.0715564,17.7627907 C14.0103757,17.8035778 13.9695886,17.8443649 13.9288014,17.8851521 C13.8880143,17.9259392 13.8064401,17.8647585 13.8676208,17.8239714 C13.9084079,17.8035778 13.9288014,17.7627907 13.949195,17.7423971 C14.0103757,17.6812165 14.0715564,17.5996422 14.1531306,17.5384615 C14.1939177,17.4976744 14.2347048,17.4772809 14.2754919,17.4568873 C14.2754919,17.4568873 14.2958855,17.4364937 14.2958855,17.4364937 C14.3162791,17.3957066 14.3570662,17.3753131 14.3774597,17.3345259 C14.7445438,16.9878354 15.3767442,16.9878354 15.8457961,16.7635063 C16.0293381,16.681932 16.2740608,16.8042934 16.4576029,16.7635063 C16.5799642,16.7635063 16.681932,16.7635063 16.8042934,16.8450805 C16.4576029,16.9062612 16.1516995,17.1305903 15.8254025,17.3345259 C15.662254,17.4364937 15.5194991,17.5384615 15.3767442,17.6404293 Z M16.7838998,14.5610018 L16.4779964,14.5610018 C16.4372093,14.5610018 16.4372093,14.5202147 16.4372093,14.4794275 C16.2536673,14.5202147 16.0089445,14.6017889 15.8254025,14.642576 C15.5602862,14.7241503 15.3155635,14.9076923 15.0096601,14.9892665 C14.5813953,15.152415 14.2347048,15.4991055 13.7860465,15.6418605 C13.7452594,15.6418605 13.7452594,15.6010733 13.7452594,15.5602862 C13.7860465,15.4379249 13.9288014,15.3971377 14.0103757,15.2951699 C14.0103757,15.2543828 14.0103757,15.2135957 13.9695886,15.2135957 C14.2754919,14.7853309 14.7037567,14.5610018 15.0912343,14.2143113 L15.0912343,14.0919499 C15.2135957,13.9288014 15.3971377,13.8676208 15.478712,13.6636852 C15.5194991,13.5413238 15.6826476,13.3985689 15.8661896,13.3169946 C15.8254025,13.2762075 15.7438283,13.2762075 15.7438283,13.1946333 C15.5806798,13.1946333 15.4379249,13.2762075 15.2747764,13.1538462 C15.3563506,13.0926655 15.4379249,13.0518784 15.5194991,13.0110912 C15.478712,13.0110912 15.4583184,12.9906977 15.4379249,12.9499106 C15.3971377,12.8683363 15.5194991,12.7867621 15.6214669,12.7663685 C15.7846154,12.7255814 15.9681574,12.7255814 16.0905188,12.60322 C15.8254025,12.5624329 15.5194991,12.6847943 15.2339893,12.5216458 C15.4175313,12.0118068 15.7438283,11.6039356 16.1924866,11.3592129 C16.2332737,11.3592129 16.3148479,11.3592129 16.3148479,11.4 C16.3148479,11.583542 16.1924866,11.7466905 16.0089445,11.7874776 C16.3148479,11.8690519 16.6207513,11.8690519 16.9266547,12.0118068 C16.8858676,12.093381 16.8042934,12.0525939 16.7635063,12.0525939 C16.9470483,12.1749553 17.191771,12.093381 17.3753131,12.236136 C17.2529517,12.3584973 17.1509839,12.236136 17.0286225,12.236136 C18.2318426,12.5828265 19.4962433,12.8479428 20.4955277,13.622898 C19.6389982,14.0511628 18.7620751,14.2347048 17.8443649,14.4386404 C17.7220036,14.4386404 17.6608229,14.4386404 17.5384615,14.3978533 C17.5384615,14.4386404 17.5384615,14.5202147 17.4976744,14.5202147 C17.3345259,14.5202147 17.2325581,14.5202147 17.1101968,14.6017889 C16.9674419,14.7241503 16.7431127,14.7649374 16.6207513,14.642576 C16.5799642,14.6017889 16.7431127,14.642576 16.7838998,14.5610018 Z" id="Shape" fill="#000091"></path>
                    <path d="M55.9796064,0 C48.7605247,0 41.5414431,0 34.3223614,0 C34.3223614,0 34.3631485,0 34.526297,0.102249489 C34.709839,0.204498978 34.9341682,0.327198364 35.0769231,0.388548057 C35.3624329,0.531697342 35.6275492,0.715746421 35.8110912,1.00204499 C35.8926655,1.12474438 35.9946333,1.34969325 35.9334526,1.51329243 C35.8518784,1.69734151 35.8110912,2.02453988 35.6275492,2.08588957 C35.40322,2.20858896 35.0973166,2.20858896 34.8118068,2.16768916 C34.6486583,2.16768916 34.5059034,2.12678937 34.3427549,2.08588957 C34.9137746,2.31083845 35.4644007,2.59713701 35.8518784,3.12883436 C35.8926655,3.21063395 36.0354204,3.25153374 36.1985689,3.25153374 C36.239356,3.25153374 36.239356,3.33333333 36.239356,3.37423313 C36.1577818,3.45603272 36.0762075,3.49693252 36.1169946,3.599182 L36.239356,3.599182 C36.422898,3.51738241 36.4025045,3.12883436 36.6676208,3.25153374 C36.8511628,3.37423313 36.932737,3.6400818 36.8307692,3.82413088 C36.6676208,3.98773006 36.5248658,4.08997955 36.3617174,4.21267894 C36.3209302,4.29447853 36.3209302,4.39672802 36.3617174,4.47852761 C36.4840787,4.64212679 36.5248658,4.78527607 36.5452594,4.94887526 C36.6676208,5.21472393 36.7084079,5.52147239 36.8103757,5.80777096 C36.9735242,6.3803681 37.1162791,6.97341513 37.0754919,7.54601227 C37.0754919,7.85276074 36.9123435,8.11860941 37.0347048,8.42535787 C37.1162791,8.73210634 37.2998211,8.95705521 37.4629696,9.24335378 C37.6261181,9.46830266 37.768873,9.63190184 37.8912343,9.85685072 C38.1155635,10.2453988 38.5438283,10.6339468 38.3602862,11.0838446 C38.2379249,11.3496933 37.8300537,11.3087935 37.5445438,11.4723926 C37.3202147,11.6564417 37.5037567,11.9836401 37.6261181,12.1676892 C37.8096601,12.5153374 37.4017889,12.7402863 37.1162791,12.8629857 C37.1978533,12.9856851 37.3406082,12.9447853 37.3813953,13.0265849 C37.4221825,13.2106339 37.6057245,13.3333333 37.5037567,13.5378323 C37.3406082,13.7627812 36.8919499,13.8854806 37.1162791,14.2331288 C37.2794275,14.4989775 37.1774597,14.805726 37.0754919,15.0920245 C36.9531306,15.4396728 36.6472272,15.603272 36.3821109,15.6646217 C36.1577818,15.7464213 35.8722719,15.7464213 35.6479428,15.7055215 C35.5663685,15.6646217 35.4847943,15.6237219 35.4236136,15.6237219 C34.7710197,15.5419223 34.1184258,15.3578732 33.4658318,15.3578732 C33.2822898,15.398773 33.0783542,15.4396728 32.9355993,15.5010225 C32.7520572,15.6237219 32.6093023,15.7668712 32.4665474,15.9100204 C32.4461538,15.9509202 32.4053667,15.9713701 32.3849732,16.0122699 C32.3645796,16.0327198 32.344186,16.0531697 32.344186,16.0736196 C32.3237925,16.0940695 32.3237925,16.0940695 32.3033989,16.1145194 C32.1810376,16.2576687 32.0994633,16.400818 31.9974955,16.5644172 C31.9974955,16.5848671 31.977102,16.5848671 31.977102,16.5848671 C31.977102,16.605317 31.9567084,16.6257669 31.9363148,16.6462168 C31.8139535,16.8711656 31.7119857,17.1165644 31.650805,17.3619632 C31.3856887,18.2413088 31.5080501,18.997955 31.6915921,19.1820041 C31.8139535,19.3047035 32.5209302,19.5773688 33.8125224,20 L56,20 L56,0 C56,3.97280859 55.9932021,3.97280859 55.9796064,0 Z" id="Path" fill="#E1000F"></path>
                    <path d="M35.6275492,7.46404293 C35.7906977,7.50483005 36.0150268,7.50483005 36.0150268,7.58640429 C35.9334526,7.89230769 35.4847943,7.97388193 35.2400716,8.27978533 L35.1177102,8.27978533 C34.9953488,8.36135957 35.036136,8.54490161 34.9341682,8.54490161 C34.8118068,8.50411449 34.709839,8.54490161 34.5874776,8.58568873 C34.7506261,8.74883721 34.9341682,8.85080501 35.1584973,8.81001789 C35.1992844,8.81001789 35.2808587,8.89159213 35.2808587,8.97316637 C35.2808587,8.97316637 35.3216458,8.97316637 35.3624329,8.93237925 C35.40322,8.93237925 35.4440072,8.93237925 35.4440072,8.97316637 L35.4440072,9.13631485 C35.3216458,9.29946333 35.1381038,9.21788909 34.9749553,9.25867621 C35.2808587,9.34025045 35.5867621,9.34025045 35.8722719,9.25867621 C36.0966011,9.17710197 35.8722719,8.78962433 36.0354204,8.60608229 C35.9538462,8.60608229 36.0354204,8.48372093 35.9538462,8.48372093 C36.0354204,8.40214669 36.1169946,8.30017889 36.1781753,8.25939177 C36.2597496,8.25939177 36.3617174,8.21860465 36.4025045,8.13703041 C36.4025045,8.05545617 36.239356,8.01466905 36.2801431,7.95348837 C36.5044723,7.79033989 36.7084079,7.56601073 36.6268336,7.34168157 C36.5860465,7.21932021 36.2801431,7.21932021 36.0966011,7.13774597 C35.913059,7.05617174 35.6683363,7.13774597 35.4440072,7.17853309 C35.2604651,7.17853309 35.0565295,7.30089445 34.8729875,7.34168157 C34.6078712,7.42325581 34.3631485,7.56601073 34.1388193,7.72915921 C34.4039356,7.60679785 34.6690519,7.56601073 34.9749553,7.50483005 C35.1992844,7.46404293 35.3828265,7.42325581 35.6275492,7.46404293" id="Path" fill="#808080"></path>
                </g>
            </g>
        </g>
    </g>
</svg>