<?xml version="1.0" encoding="UTF-8"?>
<svg width="194px" height="100px" viewBox="0 0 194 100" version="1.1" xmlns="http://www.w3.org/2000/svg" xmlns:xlink="http://www.w3.org/1999/xlink">
    <title>ac-logo@3x</title>
    <defs>
        <linearGradient x1="-0.0245762712%" y1="49.9959222%" x2="100.080932%" y2="49.9959222%" id="linearGradient-1">
            <stop stop-color="#2E94FA" offset="0%"></stop>
            <stop stop-color="#E1000F" offset="100%"></stop>
        </linearGradient>
    </defs>
    <g id="Page-1" stroke="none" stroke-width="1" fill="none" fill-rule="evenodd">
        <g id="Artboard-Copy-33" transform="translate(-711.000000, -280.000000)">
            <g id="ac-logo" transform="translate(711.000000, 280.000000)">
                <g id="marianne">
                    <g id="fc-avatar" fill-rule="nonzero">
                        <g id="XMLID_128_">
                            <path d="M44.8583285,1.72568522 C44.3936074,1.44788362 43.5571096,1.44788362 43.0923886,1.72568522 L2.38282624,25.1536197 C1.91810521,25.4314213 1.54632839,26.079625 1.54632839,26.6352282 L1.54632839,73.3984967 C1.54632839,73.9540999 1.91810521,74.6023036 2.38282624,74.8801052 L43.0923886,98.3080397 C43.5571096,98.5858413 44.3936074,98.5858413 44.8583285,98.3080397 L85.5678908,74.8801052 C86.0326118,74.6023036 86.4043887,73.9540999 86.4043887,73.3984967 L86.4043887,26.6352282 C86.4043887,26.079625 86.0326118,25.4314213 85.5678908,25.1536197 L44.8583285,1.72568522 Z" id="Path" fill="#FFFFFF"></path>
                            <path d="M44.7653843,1.72568522 L85.4749466,25.1536197 C85.9396676,25.4314213 86.3114444,26.079625 86.3114444,26.6352282 L86.3114444,73.3984967 C86.3114444,73.9540999 85.9396676,74.6023036 85.4749466,74.8801052 L44.7653843,98.3080397 C44.4865517,98.4006402 44.207719,98.4932407 43.9288864,98.4932407 C43.6500538,98.4932407 43.278277,98.4006402 43.0923886,98.3080397 L2.38282624,74.8801052 C1.91810521,74.6023036 1.54632839,73.9540999 1.54632839,73.3984967 L1.54632839,26.6352282 C1.54632839,26.079625 1.91810521,25.4314213 2.38282624,25.1536197 L43.0923886,1.72568522 C43.278277,1.63308468 43.6500538,1.54048415 43.9288864,1.54048415 C44.207719,1.54048415 44.5794959,1.63308468 44.7653843,1.72568522 Z M42.3488349,0.429277773 L1.63927259,23.8572123 C0.709830531,24.4128155 0.0592210871,25.6166224 0.0592210871,26.6352282 L0.0592210871,73.3984967 C0.0592210871,74.509703 0.709830531,75.6209094 1.63927259,76.1765126 L42.3488349,99.6044471 C42.9065001,99.9748492 43.5571096,99.9748492 43.9288864,99.9748492 C44.3006632,99.9748492 44.9512727,99.8822487 45.5089379,99.6044471 L86.2185002,76.1765126 C87.1479423,75.6209094 87.7985517,74.4171025 87.7985517,73.3984967 L87.7985517,26.6352282 C87.7985517,25.5240218 87.1479423,24.4128155 86.2185002,23.8572123 L45.6018821,0.429277773 C44.9512727,0.0588756466 44.3936074,0.0588756466 43.9288864,0.0588756466 C43.5571096,0.0588756466 42.9065001,0.151476178 42.3488349,0.429277773 Z" id="Shape" fill="url(#linearGradient-1)"></path>
                        </g>
                        <path d="M32.0286396,25.3460621 C32.0286396,25.3460621 31.9331742,25.2505967 31.9331742,25.2505967 C32.0286396,25.2505967 32.0286396,25.2505967 32.0286396,25.3460621 Z" id="Path" fill="#EA212E"></path>
                        <path d="M43.8213433,87.8281623 L12.1050119,69.5341774 C11.7340607,69.3484516 11.4558473,68.7912744 11.4558473,68.419823 L11.4558473,32.3890304 C11.4558473,31.924716 11.7340607,31.4604017 12.1050119,31.2746759 L43.9140811,12.8878282" id="XMLID_127_" fill="#7FBFFF"></path>
                        <path d="M11.5485851,68.2577566 L11.4558473,32.1772655 C11.4558473,31.7123107 11.7340607,31.2473559 12.1050119,31.061374 L43.9140811,12.6491647" id="XMLID_125_" fill="#2E94FA"></path>
                        <polygon id="Path" fill="#E1000F" points="12.1718377 30.9069212 21.9295837 50.5966587 33.1742243 31.0918014 23.6023402 24.3436754"></polygon>
                        <path d="M55.7995227,25.3460621 C55.7995227,25.3460621 55.8949881,25.2505967 55.8949881,25.2505967 C55.7995227,25.2505967 55.7995227,25.2505967 55.7995227,25.3460621 Z" id="Path" fill="#EA212E"></path>
                        <path d="M44.006819,87.5894988 L75.7231504,69.318155 C76.0941016,69.1326591 76.372315,68.5761715 76.372315,68.2051797 L76.372315,32.2189797 C76.372315,31.75524 76.0941016,31.2915003 75.7231504,31.1060044 L43.9140811,12.6491647" id="XMLID_124_" fill="#2E94FA"></path>
                        <path d="M76.2795772,68.2577566 L76.372315,32.2048528 C76.372315,31.7414479 76.0941016,31.278043 75.7231504,31.092681 L43.9140811,12.6491647" id="XMLID_121_" fill="#E1000F"></path>
                        <polygon id="Path" fill="#7FBFFF" points="75.4176611 30.8079013 65.8457769 50.3579952 54.4152745 30.7148056 63.8942277 24.1050119"></polygon>
                    </g>
                    <path d="M55.9693096,29.9700576 C56.7163107,30.3452642 57.4101492,30.8273807 57.8906563,31.5777938 C58.1039878,31.8998858 58.3711633,32.4895933 58.2109943,32.9185954 C57.9969812,33.4007119 57.8906563,34.258716 57.4101492,34.4194215 C56.8233172,34.7415135 56.0224721,34.7415135 55.2754711,34.6339225 C54.8488081,34.6339225 54.4753076,34.5270125 54.047963,34.4194215 C55.5426466,35.009129 56.9834862,35.7595421 57.9969812,37.1541392 C58.1039878,37.3679592 58.4774883,37.4755502 58.9041513,37.4755502 C59.0111578,37.4755502 59.0111578,37.6900512 59.0111578,37.7969613 C58.7978263,38.0114623 58.5844948,38.1190533 58.6908198,38.3866688 L59.0111578,38.3866688 C59.4916649,38.1721678 59.4385024,37.1541392 60.1316594,37.4755502 C60.6121664,37.7969613 60.8254979,38.4942598 60.5590039,38.9770573 C60.1316594,39.4053784 59.7581589,39.6736749 59.3314959,39.9950859 C59.2244893,40.209587 59.2244893,40.4778835 59.3314959,40.6923845 C59.6518339,41.1213865 59.7581589,41.496593 59.8113213,41.9255951 C60.1316594,42.6222126 60.2386659,43.4264212 60.5058415,44.1768343 C60.9325045,45.6783414 61.306005,47.232963 61.1989984,48.7344701 C61.1989984,49.5386787 60.7723354,50.2352962 61.0926735,51.0395048 C61.306005,51.8437134 61.7858305,52.4334209 62.213175,53.183834 C62.639838,53.7742225 63.0133385,54.2025436 63.3336766,54.7929321 C63.4638565,55.0190093 63.6206177,55.2450866 63.7807867,55.4732067 L63.9409557,55.7020078 C64.4439546,56.4285874 64.8992435,57.1796814 64.5611847,58.0090854 C64.2408466,58.7063839 63.1735076,58.5994739 62.4265065,59.0277949 C61.8396745,59.5105925 62.3201816,60.3685965 62.639838,60.8507131 C63.1203451,61.7625126 62.053006,62.3522202 61.306005,62.6736312 C61.5193365,62.9957232 61.892837,62.8881322 61.999162,63.1026332 C62.1061685,63.5847498 62.5866755,63.9068418 62.3201816,64.4427539 C62.1974989,64.6116309 62.0148381,64.7580363 61.829451,64.9023989 L61.6904106,65.0113518 C61.2787422,65.3375295 60.928415,65.6793692 61.306005,66.265672 C61.732668,66.9629705 61.466174,67.7664981 61.1989984,68.5175922 C60.8786604,69.4287108 60.0784969,69.8577128 59.3846583,70.0190993 C58.7978263,70.2329193 58.0501437,70.2329193 57.4639933,70.1260093 C57.2499802,70.0190993 57.0366487,69.9115083 56.8764797,69.9115083 C55.1684645,69.6970073 53.461131,69.2142097 51.7537974,69.2142097 C51.2732904,69.3218007 50.7396208,69.4287108 50.3661203,69.5900972 C49.8856133,69.9115083 49.5121127,70.2867148 49.1386122,70.6619213 C49.0854497,70.7695123 48.9784432,70.8226269 48.9252807,70.9302179 C48.8721182,70.9840133 48.8189558,71.0371279 48.8189558,71.0909234 L48.786922,71.1229283 L48.7433015,71.1665094 C48.7351226,71.1746809 48.7248991,71.1848952 48.7119492,71.1978334 C48.3916112,71.5737209 48.1782797,71.9489274 47.9117857,72.3772485 C47.9117857,72.431044 47.8579417,72.431044 47.8579417,72.431044 C47.8579417,72.4848395 47.8047792,72.538635 47.7516167,72.5917495 C47.4305971,73.182138 47.1641031,73.8249601 47.0039341,74.4684631 C46.3100955,76.7734978 46.6304336,78.7578025 47.1109406,79.2406 C47.4305971,79.562011 51.2740309,80.7536604 54.6539379,81.8615752 C48.7483136,86.7939539 43.9750439,89.2601432 40.3341289,89.2601432 C35.3062272,89.2601432 26.8734507,85.9188544 15.0357995,79.2362768 C17.901121,79.2362768 17.4933038,80.3846054 20.1616515,79.0478895 C21.442322,78.5133394 24.3240012,77.1766236 25.2850153,76.2144333 C25.8718473,75.6260877 26.4586794,75.038423 26.9923489,74.3969628 C28.059688,73.167157 29.127027,72.0442612 30.3545351,70.97448 C30.7280356,70.6544308 31.1015361,70.3330198 31.4750367,70.1191997 C31.5820432,70.0122897 31.5820432,69.7984696 31.6883682,69.6915596 C31.2085427,69.9053797 30.8875231,70.2799053 30.3545351,70.4937253 C30.2475286,70.4937253 30.1412036,70.3868153 30.2475286,70.2799053 C30.6210291,70.0122897 30.9945296,69.7453551 31.3148676,69.4777396 L31.2617052,69.4777396 C31.1546986,69.4777396 31.1546986,69.3708295 31.1546986,69.2639195 C29.8208656,69.0500994 28.8598515,69.9591752 27.9526814,70.7606599 C27.7393499,70.8682509 27.5260184,70.6544308 27.4728559,70.6544308 C25.9781723,71.1351855 24.8576708,72.4719013 23.3636687,73.060247 L23.3636687,72.845746 C22.7768367,73.060247 22.1893231,73.4340916 21.5493286,73.5410016 C20.6421585,73.7548217 19.8413134,73.6479116 19.0411499,73.6479116 C17.8136418,73.7548217 16.5861338,74.0224372 15.3586257,74.2900528 C15.3054632,74.2900528 15.3054632,74.2900528 15.2523007,74.3431673 C14.6116246,74.5031919 13.9716301,74.7708074 13.3841165,75.0915375 L13.3309541,75.145333 C13.2777916,75.1984475 13.2239475,75.252243 13.170785,75.3053576 C12.9574535,75.5191776 12.744122,75.7867932 12.4769465,75.8937032 C11.836952,76.2144333 11.3564449,76.7489834 10.8227754,77.2304191 C10.7696129,77.2835336 10.7164504,77.2835336 10.6626064,77.2835336 C10.1289369,77.8187647 10.7696129,76.2144333 11.3564449,75.8399077 C11.3032825,75.8399077 11.1962759,75.7867932 11.2494384,75.7336786 C11.3032825,75.6260877 11.3564449,75.5729731 11.4096074,75.4660631 C11.4096074,75.4122676 11.4096074,75.4122676 11.4627699,75.3591531 L11.4545911,75.3271482 L11.4184678,75.283567 C11.4130153,75.2753955 11.4096074,75.2658622 11.4096074,75.252243 C11.2494384,75.3591531 11.089951,75.4660631 10.9297819,75.5729731 C10.6626064,75.7867932 10.7696129,74.5569874 11.0361069,74.3969628 L10.9829444,74.3969628 C11.3564449,74.1824618 11.7837895,73.9686417 12.15729,73.7548217 L12.3167775,73.5947971 C11.7299455,73.8086172 11.2494384,74.0762327 10.7164504,74.3969628 C10.7164504,74.3969628 10.7164504,74.0224372 10.8766195,73.8624127 C10.9829444,73.8624127 11.089951,73.8624127 11.089951,73.9686417 C13.024929,72.4746252 15.3756649,72.0769471 17.7488927,71.7303407 L18.3963844,71.6363688 C19.7990561,71.4314012 21.1969567,71.2114525 22.5096611,70.7606599 C22.8299991,70.5468399 23.0964931,70.3330198 23.4168312,70.1729952 C23.8973382,69.9591752 24.3240012,69.4777396 24.9108332,69.1570095 C25.7116783,68.5686638 26.2985103,67.8202936 26.6188484,66.8581034 C26.6188484,66.7511933 26.5125234,66.6442833 26.5125234,66.6442833 C25.1780088,68.0341137 23.6840067,69.1570095 22.0829981,69.9591752 C19.94832,71.082071 17.6534728,70.8682509 15.4124697,71.188981 C15.5187947,70.97448 15.7328078,70.97448 15.8922952,70.97448 C15.8922952,70.6544308 16.1056267,70.5468399 16.3189582,70.3868153 L16.6399778,70.3868153 C16.7463028,70.3868153 16.7463028,70.1729952 16.8533093,70.1729952 C17.0666408,70.1729952 17.3862973,70.0660852 17.2799723,70.0660852 C16.9596343,69.6377641 16.3728023,70.3868153 15.8922952,70.0660852 C16.1056267,69.8522651 15.9993017,69.5846496 16.2126332,69.4777396 L16.6399778,69.4777396 C16.6399778,69.2639195 16.8533093,69.0500994 16.8533093,69.0500994 C18.3473114,68.1410237 19.788151,67.446449 21.1751465,66.6442833 C20.85549,66.6442833 20.695321,66.9650134 20.374983,66.7511933 C20.588996,66.7511933 20.374983,66.4304633 20.588996,66.4304633 C21.7094976,66.1097332 22.6166676,65.5213875 23.7371692,65.0937474 C23.3105062,65.0937474 23.0433306,65.4144775 22.6166676,65.0937474 C22.8299991,64.9868374 22.9363241,64.7730173 23.2034997,64.7730173 L23.2034997,64.4522872 C23.2034997,64.3446963 23.3105062,64.3446963 23.4168312,64.3446963 C23.3105062,64.3446963 23.2034997,64.2384672 23.2034997,64.2384672 C23.3105062,64.0239662 23.6308442,64.1315572 23.7903317,63.9177371 C23.6840067,63.9177371 23.4706752,63.9177371 23.4706752,63.8101461 C23.7903317,63.382506 24.2708387,63.3293915 24.8045083,63.2224814 C24.6975017,63.0086614 24.3778453,63.2224814 24.3778453,63.0086614 C24.3778453,62.9167324 24.4555443,62.9037942 24.5455116,62.9017513 L24.3778453,62.9017513 C24.1638322,62.7948413 24.2708387,62.5810213 24.2708387,62.4734303 C24.8576708,61.7788556 24.8576708,60.8697798 25.1780088,60.0676141 C25.0710023,60.0676141 24.9646773,60.0676141 24.9646773,59.9613851 C23.9505007,61.0835999 22.3494921,61.4581255 20.85549,61.8857656 L20.1616515,61.8857656 C19.681826,62.0995856 18.9341434,62.0995856 18.4543179,61.7788556 C18.0269733,61.5650355 17.8668043,61.2974199 17.4401413,60.9766899 C16.6399778,60.4959352 15.8391327,60.0676141 14.9319627,59.747565 C12.423784,58.9453993 9.80928039,58.5170782 7.1940952,58.6246692 C8.31459675,58.0363236 9.54210484,57.9825281 10.7164504,57.6086835 C12.423784,57.1272479 14.0247926,56.4857877 15.8391327,56.5926977 C15.5187947,56.4857877 15.1452942,56.5926977 14.8256377,56.5926977 C13.437279,56.4857877 11.997121,56.9134278 10.5024374,57.1810434 C9.48826078,57.3941825 8.58109073,57.768708 7.56759572,57.9825281 C6.9807637,58.1963482 6.66042566,58.7846938 5.96658711,58.6777838 L5.96658711,58.3570537 C6.9807637,57.1272479 8.20827179,55.9512375 9.80928039,55.8443275 C11.6236205,55.5229165 13.3309541,55.8443275 15.1452942,56.0581476 C16.4798088,56.1650576 17.6534728,56.4857877 18.9873059,56.7534032 C19.4678129,56.7534032 19.5748195,57.554888 20.0014825,57.661798 C20.588996,57.8756181 21.2289905,57.661798 21.8158226,58.0894381 C21.8158226,57.8756181 21.7094976,57.661798 21.8158226,57.5017734 C22.2424856,57.0741333 22.7229926,57.6086835 23.1496556,57.3941825 C23.9505007,56.9134278 22.4564986,56.0043521 22.0291541,55.2559819 C22.0291541,55.1490718 22.1361606,55.0421618 22.1361606,55.0421618 C22.9363241,55.7374175 23.5238377,56.5395832 24.5380143,57.0741333 C25.0178398,57.2879534 26.2453479,57.554888 26.0313348,56.9672233 C25.5515093,55.8443275 24.5380143,54.9352518 23.6840067,53.919266 L23.6840067,53.4916259 C23.4706752,53.4916259 23.4706752,53.3847159 23.3636687,53.2778059 L23.3636687,52.8501657 C22.9363241,52.6363457 23.0433306,52.2618201 22.8831616,51.94109 C22.5635052,51.4603354 22.7768367,50.7112842 22.5635052,50.1236195 C22.3494921,49.5352739 22.2424856,49.0007237 22.1361606,48.4123781 C21.8158226,46.7018176 21.442322,45.2043963 21.2289905,43.5469503 C21.015659,41.6225698 22.3494921,40.1251485 23.2566621,38.414588 C23.9505007,37.1847822 24.7513458,36.0087719 26.0851788,35.2066062 C26.4055169,33.9768004 27.2056804,32.9608146 28.0058439,31.9986243 C28.806689,31.0357531 30.1412036,30.3949739 31.1015361,29.9666528 C32.389704,29.3714976 33.0719558,29.1610824 33.7507999,28.9567957 C33.7548893,28.9554338 33.7651128,28.95271 33.7692023,28.9506671 C34.7554345,28.5175793 47.7052699,25.7937569 53.9948005,28.9506671 C54.1283883,29.0180817 54.101807,28.9506671 54.52847,29.2189636 C55.0089771,29.4872601 55.5958091,29.8086711 55.9693096,29.9700576 Z M7.10922676,59.2937419 C7.10922676,59.7638029 6.79326195,60.1825966 6.31998699,60.2864628 C7.10922676,60.4955267 7.89846653,60.4955267 8.68837857,60.8617215 C8.58283288,61.0707855 8.37241376,60.9662535 8.26754033,60.9662535 C8.74081529,61.2798494 9.37274492,61.0707855 9.84669214,61.4369803 C9.53072733,61.7505762 9.26787149,61.4369803 8.95190667,61.4369803 C12.0571013,62.3251691 15.3202784,63.0049598 17.8997613,64.9917331 C15.6893522,66.0896517 13.425834,66.5597127 11.0574424,67.0823726 C10.7414776,67.0823726 10.5834952,67.0823726 10.2675304,66.9778406 C10.2675304,67.0823726 10.2675304,67.2914365 10.162657,67.2914365 C9.74114645,67.2914365 9.47761835,67.2914365 9.1623258,67.5005004 C8.793252,67.8140964 8.21510362,67.9192941 7.89846653,67.6050324 C7.79359311,67.5005004 8.21510362,67.6050324 8.31997704,67.3966343 L7.53073727,67.3966343 C7.42519158,67.3966343 7.42519158,67.2914365 7.42519158,67.1875703 C6.95124435,67.2914365 6.31998699,67.5005004 5.84603977,67.6050324 C5.16167342,67.8140964 5.47763824,64.4164744 5.95158546,64.2074104 C5.84603977,64.1028785 5.63562064,64.1028785 5.63562064,63.8938145 C5.2147824,63.8938145 5.05679999,62.847829 5.31965583,62.7958959 C5.74049407,62.6913639 6.2144413,62.6913639 6.53040611,62.377768 C5.84603977,62.273236 5.63562064,59.8164018 6.79326195,59.1885442 C6.89880764,59.1885442 7.10922676,59.1885442 7.10922676,59.2937419 Z M11.6945107,68.5276347 C11.055965,69.1826541 10.2577829,68.8847113 9.5669308,69.1826541 C9.35362937,69.1826541 8.98137081,69.3016796 9.08802152,69.0636286 C9.15459331,68.7285376 9.44941122,68.6034471 9.76528755,68.4980678 L9.95549266,68.4359016 C10.0818432,68.3934467 10.2047972,68.3494755 10.3114479,68.2895836 C10.5240701,68.1705581 10.7896779,67.9325071 11.0023,68.0515326 C11.2149222,68.4086092 11.4812093,68.2895836 11.6945107,68.5276347 Z M8.07266744,54.8321363 C7.96567548,54.8321363 7.85799768,54.8321363 7.75031987,54.7245916 C7.85799768,54.6170468 7.85799768,54.509502 7.85799768,54.4019573 C6.83745899,55.5308348 4.52821586,55.1547706 6.6762852,54.1327528 C7.48215413,53.8101185 8.50200697,53.9176633 9.30787589,54.2402976 C8.98552833,54.6711617 8.50200697,54.5629319 8.07266744,54.8321363 Z M57.2194114,48.1124998 C57.1263445,48.1319625 57.0325831,48.150754 56.9402107,48.166861 C56.4512623,48.166861 55.9074461,48.4829611 55.4178032,48.5883278 C54.7107727,48.7990612 54.05861,49.1681802 53.4606205,49.589647 C54.1669565,49.2735469 54.873987,49.1681802 55.6900586,49.0097946 C56.288048,48.9044279 56.777691,48.7990612 57.4298537,48.9044279 C57.8646288,49.0097946 58.4633128,49.0097946 58.4633128,49.220528 C58.2459252,50.0111139 57.0492518,50.2218473 56.3970891,51.0124331 L56.0706604,51.0124331 C55.7442318,51.2231665 55.8532729,51.6969811 55.5810175,51.6969811 C55.2545889,51.5922855 54.9830281,51.6969811 54.6565994,51.8030189 C55.0913746,52.2244857 55.5810175,52.4875669 56.179007,52.3822002 C56.288048,52.3822002 56.5054356,52.5929336 56.5054356,52.803667 C56.5054356,52.803667 56.6144766,52.803667 56.7228232,52.6983003 C56.8318642,52.6983003 56.9402107,52.6983003 56.9402107,52.803667 L56.9402107,53.2251338 C56.7450481,53.4781482 56.490156,53.5036509 56.2241514,53.5063354 L56.0449629,53.5070066 C55.9261984,53.5076777 55.8060449,53.5130467 55.6900586,53.541234 C56.5054356,53.7519674 57.3215071,53.7519674 58.0820164,53.541234 C58.6807004,53.3305006 58.0820164,52.3298524 58.5174861,51.8553667 C58.3000985,51.8553667 58.5174861,51.5392666 58.3000985,51.5392666 C58.5174861,51.3285332 58.7348736,51.0647809 58.8980879,50.9594142 C59.1154755,50.9594142 59.3877309,50.8540475 59.4967719,50.6433141 C59.4967719,50.4325807 59.0613023,50.327214 59.1703433,50.1694995 C59.7683328,49.7480327 60.312149,49.1681802 60.0940669,48.5883278 C59.9857203,48.2722277 59.1703433,48.2722277 58.6807004,48.0614943 C58.3417702,47.9158601 57.9250528,47.9715635 57.5020847,48.054783 L57.2194114,48.1124998 Z" id="Fill-1-Copy" fill="#FFFFFF"></path>
                </g>
                <g id="Agent-Connect" transform="translate(96.300716, 31.503580)" fill-rule="nonzero">
                    <path d="M3.60381862,16.7064439 L5.20286396,12.3627685 L11.8854415,12.3627685 L13.4844869,16.7064439 L17.0883055,16.7064439 L10.7637232,0 L6.32458234,0 L4.06993452e-14,16.7064439 L3.60381862,16.7064439 Z M10.8353222,9.47494033 L6.25298329,9.47494033 L8.54415274,3.19809069 L10.8353222,9.47494033 Z M23.9379475,22.673031 C25.879077,22.673031 27.414479,22.2275257 28.5441527,21.3365155 C29.6738264,20.4455053 30.2386635,19.3158312 30.2386635,17.947494 C30.2386635,16.833731 29.8369134,15.9108991 29.0334129,15.1789976 C28.2299124,14.4470961 27.0723945,14.0811456 25.5608592,14.0811456 L22.5298329,14.0811456 C22.2593478,14.0811456 22.0564838,14.0214797 21.9212411,13.902148 C21.7859983,13.7828162 21.7183771,13.6038186 21.7183771,13.3651551 C21.7183771,13.2378681 21.7541766,13.1066031 21.8257757,12.9713604 C21.8973747,12.8361176 21.9968179,12.7128084 22.124105,12.601432 C22.2991248,12.6332537 22.4821002,12.65712 22.673031,12.673031 C22.8639618,12.688942 23.0628479,12.6968974 23.2696897,12.6968974 C24.0493239,12.6968974 24.741448,12.585521 25.3460621,12.3627685 C25.9506761,12.140016 26.4598251,11.833731 26.8735084,11.4439141 C27.2871916,11.0540972 27.601432,10.6006366 27.8162291,10.0835322 C28.0310263,9.56642788 28.1384248,9.01352439 28.1384248,8.424821 C28.1384248,8.21797919 28.1264916,8.01909308 28.1026253,7.82816229 C28.0787589,7.6372315 28.0350041,7.44630072 27.9713604,7.25536993 L30.0954654,7.25536993 L30.0954654,4.6778043 L25.7040573,4.6778043 C25.3540174,4.51869518 24.9761337,4.39936344 24.5704057,4.31980907 C24.1646778,4.2402547 23.7311057,4.20047733 23.2696897,4.20047733 C22.5218776,4.20047733 21.849642,4.31185374 21.2529833,4.53460621 C20.6563246,4.75735867 20.1511534,5.05966587 19.7374702,5.44152745 C19.3237869,5.82338902 19.0055687,6.26889431 18.7828162,6.77804296 C18.5600638,7.2871916 18.4486874,7.83611762 18.4486874,8.424821 C18.4486874,9.09307876 18.5879076,9.71360382 18.8663484,10.2863962 C19.1447893,10.8591885 19.5465394,11.3444708 20.071599,11.7422434 C19.6260938,12.0763723 19.2959427,12.4383454 19.0811456,12.8281623 C18.8663484,13.2179792 18.7589499,13.6515513 18.7589499,14.1288783 C18.7589499,14.4311855 18.8225936,14.7374702 18.9498807,15.0477327 C19.0771677,15.3579952 19.2601432,15.6404136 19.4988067,15.8949881 C18.957836,16.2768496 18.5441527,16.7104218 18.2577566,17.1957041 C17.9713604,17.6809864 17.8281623,18.2179792 17.8281623,18.8066826 C17.8281623,20.0636437 18.369133,21.0222751 19.451074,21.6825776 C20.533015,22.34288 22.0286396,22.673031 23.9379475,22.673031 Z M23.3174224,10.4057279 C22.6650757,10.4057279 22.1519492,10.2227525 21.778043,9.85680191 C21.4041367,9.49085135 21.2171838,9.01352439 21.2171838,8.424821 C21.2171838,7.83611762 21.4041367,7.3627685 21.778043,7.00477327 C22.1519492,6.64677804 22.6650757,6.46778043 23.3174224,6.46778043 C23.9538585,6.46778043 24.4590293,6.64677804 24.8329356,7.00477327 C25.2068418,7.3627685 25.3937947,7.83611762 25.3937947,8.424821 C25.3937947,9.01352439 25.2068418,9.49085135 24.8329356,9.85680191 C24.4590293,10.2227525 23.9538585,10.4057279 23.3174224,10.4057279 Z M23.9140811,20.2386635 C22.8639618,20.2386635 22.0644391,20.071599 21.5155131,19.7374702 C20.9665871,19.4033413 20.6921241,18.9498807 20.6921241,18.3770883 C20.6921241,17.9952267 20.7875895,17.6690532 20.9785203,17.398568 C21.1694511,17.1280829 21.4399362,16.8894194 21.7899761,16.6825776 L25.2267303,16.6825776 C25.9586318,16.6825776 26.4757358,16.8297535 26.778043,17.124105 C27.0803502,17.4184565 27.2315036,17.7883849 27.2315036,18.2338902 C27.2315036,18.8225936 26.9530627,19.303898 26.3961814,19.6778043 C25.8393,20.0517105 25.0119332,20.2386635 23.9140811,20.2386635 Z M37.3508353,17.1837709 C38.480509,17.1837709 39.4988067,16.9649959 40.4057279,16.5274463 C41.3126492,16.0898967 42.0445506,15.4972155 42.601432,14.7494033 L40.4295943,13.0310263 C40.1113764,13.4606205 39.6897375,13.8066826 39.1646778,14.0692124 C38.6396181,14.3317422 38.0509148,14.4630072 37.398568,14.4630072 C36.3802704,14.4630072 35.5449482,14.1845663 34.8926014,13.627685 C34.2402547,13.0708036 33.8663484,12.2991248 33.7708831,11.3126492 L42.1957041,11.3126492 C42.2434368,11.1058074 42.2871916,10.8512332 42.326969,10.548926 C42.3667463,10.2466188 42.3866348,9.92840095 42.3866348,9.59427208 C42.3866348,8.01909308 41.8774862,6.72633242 40.8591885,5.71599045 C39.8408909,4.70564849 38.5043754,4.20047733 36.849642,4.20047733 C35.8631664,4.20047733 34.9880668,4.37151961 34.2243437,4.71360382 C33.4606205,5.05568802 32.8162291,5.52108182 32.2911695,6.1097852 C31.7661098,6.69848859 31.3643597,7.38663484 31.0859189,8.17422434 C30.807478,8.96181384 30.6682578,9.80111388 30.6682578,10.6921241 C30.6682578,11.5672237 30.8154337,12.398568 31.1097852,13.1861575 C31.4041367,13.973747 31.833731,14.6618933 32.398568,15.2505967 C32.9634051,15.8393 33.6634845,16.3086713 34.4988067,16.6587112 C35.3341289,17.0087511 36.284805,17.1837709 37.3508353,17.1837709 Z M39.3794749,9.02147971 L33.9618138,9.02147971 C34.1686557,8.24184554 34.5186952,7.6650757 35.0119332,7.29116945 C35.5051712,6.9172632 36.1177405,6.73031026 36.849642,6.73031026 C37.6451868,6.73031026 38.2617344,6.9649959 38.699284,7.43436754 C39.1368336,7.90373918 39.3635639,8.43277633 39.3794749,9.02147971 Z M48.1384248,16.7064439 L48.1384248,8.85441527 C48.3611773,8.4725537 48.6913287,8.07875895 49.1288783,7.67303103 C49.5664279,7.2673031 50.1670644,7.06443914 50.9307876,7.06443914 C51.6626891,7.06443914 52.2394589,7.29912478 52.6610979,7.76849642 C53.0827368,8.23786806 53.2935561,8.87032629 53.2935561,9.66587112 L53.2935561,16.7064439 L56.372315,16.7064439 L56.372315,9.54653938 C56.372315,8.65552916 56.2490054,7.87589499 56.0023866,7.20763723 C55.7557678,6.53937947 55.4216389,5.98249813 55,5.53699284 C54.5783611,5.09148755 54.0851234,4.75735867 53.5202864,4.53460621 C52.9554494,4.31185374 52.3468575,4.20047733 51.6945107,4.20047733 C50.8989659,4.20047733 50.2108193,4.33969757 49.6300716,4.61813842 C49.0493239,4.89657928 48.5521081,5.23468564 48.1384248,5.63245823 L48.1384248,4.6778043 L45.1073986,4.6778043 L45.1073986,16.7064439 L48.1384248,16.7064439 Z M64.7732697,16.9451074 C65.2665077,16.9451074 65.7000794,16.9132857 66.0739857,16.849642 C66.4478919,16.7859983 66.7859983,16.6905329 67.0883055,16.5632458 L67.0883055,13.9140811 C66.8814637,13.9936355 66.6348449,14.0572792 66.3484487,14.1050119 C66.0620525,14.1527446 65.7120126,14.176611 65.2983294,14.176611 C64.709626,14.176611 64.2442322,14.0334129 63.902148,13.7470167 C63.5600638,13.4606205 63.3890215,12.9832936 63.3890215,12.3150358 L63.3890215,7.44630072 L67.0644391,7.44630072 L67.0644391,4.6778043 L63.3890215,4.6778043 L63.3890215,1.67064439 L60.3341289,1.67064439 L60.3341289,4.6778043 L58.0906921,4.6778043 L58.0906921,7.44630072 L60.3341289,7.44630072 L60.3341289,12.3150358 C60.3341289,13.7788384 60.7000794,14.9164678 61.4319809,15.7279236 C62.1638824,16.5393795 63.2776451,16.9451074 64.7732697,16.9451074 Z" id="Agent" fill="#2E94FA"></path>
                    <path d="M9.54653938,37.7088305 C11.0580747,37.7088305 12.4184565,37.398568 13.627685,36.778043 C14.8369134,36.1575179 15.823389,35.330151 16.5871122,34.2959427 L13.9140811,32.2434368 C13.4367542,32.9276055 12.8281623,33.480509 12.0883055,33.902148 C11.3484487,34.3237869 10.5011933,34.5346062 9.54653938,34.5346062 C8.76690521,34.5346062 8.04295943,34.3874303 7.37470167,34.0930788 C6.70644391,33.7987272 6.1376294,33.4009547 5.66825776,32.8997613 C5.19888612,32.398568 4.82895771,31.8019093 4.55847255,31.1097852 C4.28798739,30.4176611 4.15274463,29.6738264 4.15274463,28.8782816 C4.15274463,28.0827368 4.28798739,27.3389021 4.55847255,26.646778 C4.82895771,25.9546539 5.19888612,25.3579952 5.66825776,24.8568019 C6.1376294,24.3556086 6.70644391,23.957836 7.37470167,23.6634845 C8.04295943,23.369133 8.76690521,23.221957 9.54653938,23.221957 C10.5011933,23.221957 11.3484487,23.4327763 12.0883055,23.8544153 C12.8281623,24.2760542 13.4367542,24.8289577 13.9140811,25.5131265 L16.5871122,23.4367542 C15.823389,22.4343675 14.8369134,21.6189338 13.627685,20.9904535 C12.4184565,20.3619731 11.0580747,20.0477327 9.54653938,20.0477327 C8.24184554,20.0477327 7.04057279,20.2863962 5.94272076,20.7637232 C4.84486874,21.2410501 3.90612582,21.8774862 3.12649165,22.673031 C2.34685748,23.4685759 1.74224344,24.4033413 1.31264916,25.477327 C0.883054893,26.5513126 0.668257757,27.6849642 0.668257757,28.8782816 C0.668257757,30.071599 0.883054893,31.2052506 1.31264916,32.2792363 C1.74224344,33.353222 2.34685748,34.2879874 3.12649165,35.0835322 C3.90612582,35.879077 4.84486874,36.5155131 5.94272076,36.9928401 C7.04057279,37.4701671 8.24184554,37.7088305 9.54653938,37.7088305 Z M24.3675418,37.7088305 C25.3381067,37.7088305 26.2291169,37.5377883 27.0405728,37.1957041 C27.8520286,36.8536199 28.5481306,36.3922035 29.1288783,35.8114558 C29.709626,35.2307082 30.1591091,34.5425615 30.477327,33.7470167 C30.7955448,32.9514719 30.9546539,32.108194 30.9546539,31.2171838 C30.9546539,30.3261736 30.7955448,29.4828957 30.477327,28.6873508 C30.1591091,27.891806 29.709626,27.2036594 29.1288783,26.6229117 C28.5481306,26.042164 27.8520286,25.5807477 27.0405728,25.2386635 C26.2291169,24.8965793 25.3381067,24.725537 24.3675418,24.725537 C23.3969768,24.725537 22.5059666,24.8965793 21.6945107,25.2386635 C20.8830549,25.5807477 20.1869529,26.042164 19.6062053,26.6229117 C19.0254576,27.2036594 18.5759744,27.891806 18.2577566,28.6873508 C17.9395387,29.4828957 17.7804296,30.3261736 17.7804296,31.2171838 C17.7804296,32.108194 17.9395387,32.9514719 18.2577566,33.7470167 C18.5759744,34.5425615 19.0254576,35.2307082 19.6062053,35.8114558 C20.1869529,36.3922035 20.8830549,36.8536199 21.6945107,37.1957041 C22.5059666,37.5377883 23.3969768,37.7088305 24.3675418,37.7088305 Z M24.4152745,34.8448687 C23.4128878,34.8448687 22.5815435,34.5027845 21.9212411,33.8186158 C21.2609386,33.134447 20.9307876,32.2673031 20.9307876,31.2171838 C20.9307876,30.1670644 21.2609386,29.2999206 21.9212411,28.6157518 C22.5815435,27.931583 23.4128878,27.5894988 24.4152745,27.5894988 C25.3699284,27.5894988 26.1734289,27.931583 26.8257757,28.6157518 C27.4781224,29.2999206 27.8042959,30.1670644 27.8042959,31.2171838 C27.8042959,32.2513921 27.4781224,33.1145585 26.8257757,33.8066826 C26.1734289,34.4988067 25.3699284,34.8448687 24.4152745,34.8448687 Z M36.5155131,37.2315036 L36.5155131,29.3794749 C36.7382656,28.9976134 37.068417,28.6038186 37.5059666,28.1980907 C37.9435162,27.7923628 38.5441527,27.5894988 39.3078759,27.5894988 C40.0397774,27.5894988 40.6165472,27.8241844 41.0381862,28.2935561 C41.4598251,28.7629277 41.6706444,29.395386 41.6706444,30.1909308 L41.6706444,37.2315036 L44.7494033,37.2315036 L44.7494033,30.071599 C44.7494033,29.1805888 44.6260938,28.4009547 44.3794749,27.7326969 C44.1328561,27.0644391 43.7987272,26.5075578 43.3770883,26.0620525 C42.9554494,25.6165472 42.4622117,25.2824183 41.8973747,25.0596659 C41.3325377,24.8369134 40.7239458,24.725537 40.071599,24.725537 C39.2760542,24.725537 38.5879076,24.8647572 38.0071599,25.1431981 C37.4264122,25.4216389 36.9291964,25.7597453 36.5155131,26.1575179 L36.5155131,25.202864 L33.4844869,25.202864 L33.4844869,37.2315036 L36.5155131,37.2315036 Z M50.9785203,37.2315036 L50.9785203,29.3794749 C51.2012728,28.9976134 51.5314241,28.6038186 51.9689737,28.1980907 C52.4065233,27.7923628 53.0071599,27.5894988 53.7708831,27.5894988 C54.5027845,27.5894988 55.0795544,27.8241844 55.5011933,28.2935561 C55.9228323,28.7629277 56.1336516,29.395386 56.1336516,30.1909308 L56.1336516,37.2315036 L59.2124105,37.2315036 L59.2124105,30.071599 C59.2124105,29.1805888 59.0891009,28.4009547 58.8424821,27.7326969 C58.5958633,27.0644391 58.2617344,26.5075578 57.8400955,26.0620525 C57.4184565,25.6165472 56.9252189,25.2824183 56.3603819,25.0596659 C55.7955448,24.8369134 55.1869529,24.725537 54.5346062,24.725537 C53.7390614,24.725537 53.0509148,24.8647572 52.4701671,25.1431981 C51.8894194,25.4216389 51.3922035,25.7597453 50.9785203,26.1575179 L50.9785203,25.202864 L47.947494,25.202864 L47.947494,37.2315036 L50.9785203,37.2315036 Z M68.2338902,37.7088305 C69.3635639,37.7088305 70.3818616,37.4900556 71.2887828,37.052506 C72.1957041,36.6149564 72.9276055,36.0222751 73.4844869,35.274463 L71.3126492,33.5560859 C70.9944313,33.9856802 70.5727924,34.3317422 70.0477327,34.5942721 C69.522673,34.8568019 68.9339696,34.9880668 68.2816229,34.9880668 C67.2633253,34.9880668 66.4280031,34.709626 65.7756563,34.1527446 C65.1233096,33.5958633 64.7494033,32.8241844 64.6539379,31.8377088 L73.0787589,31.8377088 C73.1264916,31.630867 73.1702465,31.3762929 73.2100239,31.0739857 C73.2498012,30.7716785 73.2696897,30.4534606 73.2696897,30.1193317 C73.2696897,28.5441527 72.7605411,27.2513921 71.7422434,26.2410501 C70.7239458,25.2307082 69.3874303,24.725537 67.7326969,24.725537 C66.7462213,24.725537 65.8711217,24.8965793 65.1073986,25.2386635 C64.3436754,25.5807477 63.699284,26.0461415 63.1742243,26.6348449 C62.6491647,27.2235483 62.2474146,27.9116945 61.9689737,28.699284 C61.6905329,29.4868735 61.5513126,30.3261736 61.5513126,31.2171838 C61.5513126,32.0922833 61.6984886,32.9236277 61.9928401,33.7112172 C62.2871916,34.4988067 62.7167859,35.1869529 63.2816229,35.7756563 C63.8464599,36.3643597 64.5465394,36.833731 65.3818616,37.1837709 C66.2171838,37.5338108 67.1678599,37.7088305 68.2338902,37.7088305 Z M70.2625298,29.5465394 L64.8448687,29.5465394 C65.0517105,28.7669052 65.4017501,28.1901354 65.8949881,27.8162291 C66.3882261,27.4423229 67.0007954,27.2553699 67.7326969,27.2553699 C68.5282417,27.2553699 69.1447893,27.4900556 69.5823389,27.9594272 C70.0198885,28.4287988 70.2466188,28.957836 70.2625298,29.5465394 Z M81.6706444,37.7088305 C82.7684964,37.7088305 83.7509946,37.4860781 84.6181384,37.0405728 C85.4852823,36.5950675 86.1972953,36.0063645 86.7541766,35.274463 L84.3436754,33.4367542 C84.0572792,33.8504374 83.6873508,34.1885442 83.2338902,34.451074 C82.7804296,34.7136038 82.2593478,34.8448687 81.6706444,34.8448687 C80.6682578,34.8448687 79.8369134,34.5027845 79.176611,33.8186158 C78.5163086,33.134447 78.1861575,32.2673031 78.1861575,31.2171838 C78.1861575,30.1670644 78.5123311,29.2999206 79.1646778,28.6157518 C79.8170245,27.931583 80.6364361,27.5894988 81.6229117,27.5894988 C82.2434368,27.5894988 82.7804296,27.7207637 83.2338902,27.9832936 C83.6873508,28.2458234 84.0572792,28.5839301 84.3436754,28.9976134 L86.7541766,27.1599045 C86.1972953,26.4280031 85.4852823,25.8393 84.6181384,25.3937947 C83.7509946,24.9482895 82.7684964,24.725537 81.6706444,24.725537 C80.6364361,24.725537 79.7056485,24.9005568 78.8782816,25.2505967 C78.0509148,25.6006366 77.3548132,26.0700078 76.7899761,26.6587112 C76.2251391,27.2474146 75.7915673,27.9355609 75.4892601,28.7231504 C75.1869529,29.5107399 75.0357995,30.3420842 75.0357995,31.2171838 C75.0357995,32.0922833 75.1869529,32.9236277 75.4892601,33.7112172 C75.7915673,34.4988067 76.2251391,35.1869529 76.7899761,35.7756563 C77.3548132,36.3643597 78.0509148,36.833731 78.8782816,37.1837709 C79.7056485,37.5338108 80.6364361,37.7088305 81.6706444,37.7088305 Z M94.1050119,37.4701671 C94.5982499,37.4701671 95.0318217,37.4383454 95.4057279,37.3747017 C95.7796342,37.311058 96.1177405,37.2155926 96.4200477,37.0883055 L96.4200477,34.4391408 C96.2132059,34.5186952 95.9665871,34.5823389 95.6801909,34.6300716 C95.3937947,34.6778043 95.0437549,34.7016706 94.6300716,34.7016706 C94.0413682,34.7016706 93.5759744,34.5584726 93.2338902,34.2720764 C92.891806,33.9856802 92.7207637,33.5083532 92.7207637,32.8400955 L92.7207637,27.9713604 L96.3961814,27.9713604 L96.3961814,25.202864 L92.7207637,25.202864 L92.7207637,22.1957041 L89.6658711,22.1957041 L89.6658711,25.202864 L87.4224344,25.202864 L87.4224344,27.9713604 L89.6658711,27.9713604 L89.6658711,32.8400955 C89.6658711,34.303898 90.0318217,35.4415274 90.7637232,36.2529833 C91.4956246,37.0644391 92.6093873,37.4701671 94.1050119,37.4701671 Z" id="Connect" fill="#ED1C24"></path>
                </g>
            </g>
        </g>
    </g>
</svg>