<?xml version="1.0" encoding="UTF-8"?>
<svg width="233px" height="60px" viewBox="0 0 233 60" version="1.1" xmlns="http://www.w3.org/2000/svg" xmlns:xlink="http://www.w3.org/1999/xlink">
    <title>fc+-btn</title>
    <g id="Page-1" stroke="none" stroke-width="1" fill="none" fill-rule="evenodd">
        <g id="Artboard-Copy-33" transform="translate(-1380.000000, -460.000000)">
            <g id="fc+-btn" transform="translate(1380.000000, 460.000000)">
                <rect id="Rectangle" fill="#000091" x="0" y="0" width="233" height="60" rx="3"></rect>
                <path d="M69.9092308,27.4869231 C70.4046155,27.4869231 70.8650001,27.4115384 71.2903846,27.2607692 C71.7157691,27.1100001 72.0819231,26.8946153 72.3888462,26.6146154 C72.6957692,26.3346155 72.9380769,25.9980768 73.1157692,25.605 C73.2934615,25.2119232 73.3823077,24.7784615 73.3823077,24.3046154 C73.3823077,23.4 73.1023078,22.7053846 72.5423077,22.2207692 C71.9823076,21.7361538 71.3711538,21.3242308 70.7088462,20.985 C70.0465385,20.6457692 69.4353847,20.3065385 68.8753846,19.9673077 C68.3153845,19.6280769 68.0353846,19.156923 68.0353846,18.5538462 C68.0353846,18.0907691 68.1942307,17.7003847 68.5119231,17.3826923 C68.8296155,17.0649999 69.2523076,16.9061538 69.78,16.9061538 C70.2753847,16.9061538 70.725,17.0326922 71.1288462,17.2857692 C71.5326923,17.5388462 71.9015384,17.9023078 72.2353846,18.3761538 L73.3661538,17.3907692 C72.9461538,16.8415385 72.4400001,16.3973077 71.8476923,16.0580769 C71.2553845,15.7188462 70.5607691,15.5492308 69.7638462,15.5492308 C69.2900001,15.5492308 68.8511538,15.63 68.4473077,15.7915385 C68.0434615,15.9530769 67.6961538,16.1711538 67.4053846,16.4457692 C67.1146154,16.7203846 66.8884615,17.0434615 66.7269231,17.415 C66.5653846,17.7865385 66.4846154,18.1769232 66.4846154,18.5861538 C66.4846154,19.4799999 66.7646153,20.1692308 67.3246154,20.6538462 C67.8846155,21.1384615 68.4957692,21.5503846 69.1580769,21.8896154 C69.8203846,22.2288462 70.4315384,22.5680769 70.9915385,22.9073077 C71.5515385,23.2465385 71.8315385,23.7176924 71.8315385,24.3207692 C71.8315385,24.8376923 71.6619231,25.2684616 71.3226923,25.6130769 C70.9834615,25.9576922 70.5069231,26.13 69.8930769,26.13 C69.3653845,26.13 68.8673077,26.0007692 68.3988462,25.7423077 C67.9303846,25.4838462 67.4969232,25.1069232 67.0984615,24.6115385 L66,25.6292308 C66.4953847,26.2430769 67.0607693,26.7061539 67.6961538,27.0184615 C68.3315384,27.3307691 69.0692308,27.4869231 69.9092308,27.4869231 Z M76.5484615,20.2015385 L78.2123077,15.8723077 L76.6453846,15.8723077 L75.2723077,20.2015385 L76.5484615,20.2015385 Z M81.0715385,16.9223077 C81.3407693,16.9223077 81.5669232,16.828077 81.75,16.6396154 C81.9330768,16.4511538 82.0246154,16.2223078 82.0246154,15.9530769 C82.0246154,15.6946154 81.9330768,15.4711539 81.75,15.2826923 C81.5669232,15.0942307 81.3407693,15 81.0715385,15 C80.8023076,15 80.5734616,15.0942307 80.385,15.2826923 C80.1965384,15.4711539 80.1023077,15.6946154 80.1023077,15.9530769 C80.1023077,16.2223078 80.1965384,16.4511538 80.385,16.6396154 C80.5734616,16.828077 80.8023076,16.9223077 81.0715385,16.9223077 Z M81.75,27.18 L81.75,19.0384615 L80.3769231,19.0384615 L80.3769231,27.18 L81.75,27.18 Z M88.1469231,27.5030769 C88.7284615,27.5030769 89.2642309,27.3980769 89.7542308,27.1880769 C90.2442307,26.9780769 90.6723076,26.6738462 91.0384615,26.2753846 L91.0384615,27.18 L92.4115385,27.18 L92.4115385,15.0646154 L91.0384615,15.0646154 L91.0384615,19.9430769 C90.6723076,19.5446153 90.2442307,19.2403846 89.7542308,19.0303846 C89.2642309,18.8203846 88.7284615,18.7153846 88.1469231,18.7153846 C87.5115385,18.7153846 86.9353846,18.8338461 86.4184615,19.0707692 C85.9015385,19.3076924 85.4626922,19.6253845 85.1019231,20.0238462 C84.7411539,20.4223078 84.4611538,20.8880769 84.2619231,21.4211538 C84.0626924,21.9542308 83.9630769,22.516923 83.9630769,23.1092308 C83.9630769,23.7015385 84.0626924,24.2642308 84.2619231,24.7973077 C84.4611538,25.3303846 84.7411539,25.7961538 85.1019231,26.1946154 C85.4626922,26.593077 85.9015385,26.9107691 86.4184615,27.1476923 C86.9353846,27.3846155 87.5115385,27.5030769 88.1469231,27.5030769 Z M88.3084615,26.2107692 C87.8776922,26.2107692 87.4846154,26.13 87.1292308,25.9684615 C86.7738462,25.8069231 86.4696155,25.5861538 86.2165385,25.3061538 C85.9634615,25.0261539 85.7669232,24.6976922 85.6269231,24.3207692 C85.486923,23.9438462 85.4169231,23.5400001 85.4169231,23.1092308 C85.4169231,22.6784615 85.486923,22.2746153 85.6269231,21.8976923 C85.7669232,21.5207693 85.9634615,21.1923076 86.2165385,20.9123077 C86.4696155,20.6323078 86.7738462,20.4115385 87.1292308,20.25 C87.4846154,20.0884615 87.8776922,20.0076923 88.3084615,20.0076923 C88.8576923,20.0076923 89.3692309,20.1369231 89.8430769,20.3953846 C90.316923,20.6538462 90.7153846,21.0307691 91.0384615,21.5261538 L91.0384615,24.6923077 C90.7261539,25.1769231 90.3330768,25.5511539 89.8592308,25.815 C89.3853847,26.0788461 88.8684616,26.2107692 88.3084615,26.2107692 Z M99.0507692,27.5030769 C99.8046155,27.5030769 100.480385,27.3523078 101.078077,27.0507692 C101.675769,26.7492307 102.163077,26.3453845 102.54,25.8392308 L101.522308,25.0476923 C101.253077,25.4138462 100.908462,25.7073076 100.488462,25.9280769 C100.068462,26.1488462 99.6,26.2592308 99.0830769,26.2592308 C98.1784615,26.2592308 97.4434615,25.9657691 96.8780769,25.3788462 C96.3126923,24.7919232 96.03,24.0515384 96.03,23.1576923 L96.03,23.1253846 L102.265385,23.1253846 C102.286923,23.0176922 102.308462,22.8857693 102.33,22.7296154 C102.351538,22.5734615 102.362308,22.4146154 102.362308,22.2530769 C102.362308,21.7469232 102.276154,21.2757692 102.103846,20.8396154 C101.931538,20.4034615 101.686539,20.0292307 101.368846,19.7169231 C101.051154,19.4046155 100.666154,19.1596154 100.213846,18.9819231 C99.7615385,18.8042308 99.2607692,18.7153846 98.7115385,18.7153846 C98.086923,18.7153846 97.5188462,18.8284615 97.0073077,19.0546154 C96.4957691,19.2807692 96.0650001,19.5903847 95.715,19.9834615 C95.3649999,20.3765384 95.0930769,20.8423078 94.8992308,21.3807692 C94.7053846,21.9192307 94.6084615,22.4953846 94.6084615,23.1092308 C94.6084615,23.7015385 94.7107691,24.2642308 94.9153846,24.7973077 C95.1200001,25.3303846 95.4134615,25.7961538 95.7957692,26.1946154 C96.178077,26.593077 96.6465385,26.9107691 97.2011538,27.1476923 C97.7557691,27.3846155 98.3723077,27.5030769 99.0507692,27.5030769 Z M100.973077,22.0430769 L96.1430769,22.0430769 C96.3046154,21.343077 96.6115385,20.8100001 97.0638462,20.4438462 C97.5161538,20.0776922 98.0707691,19.8946154 98.7276923,19.8946154 C99.3953845,19.8946154 99.9311538,20.1073078 100.335,20.5326923 C100.738846,20.9580768 100.951539,21.4615385 100.973077,22.0430769 Z M106.061538,27.18 L106.061538,21.5423077 C106.32,21.1115384 106.645769,20.7480768 107.038846,20.4519231 C107.431923,20.1557693 107.919231,20.0076923 108.500769,20.0076923 C109.125385,20.0076923 109.626154,20.2096154 110.003077,20.6134615 C110.38,21.0173077 110.568462,21.5799999 110.568462,22.3015385 L110.568462,27.18 L111.957692,27.18 L111.957692,22.2530769 C111.957692,21.1007693 111.653462,20.2230768 111.045,19.62 C110.436538,19.0169232 109.68,18.7153846 108.775385,18.7153846 C108.172308,18.7153846 107.652692,18.8311539 107.216538,19.0626923 C106.780385,19.2942307 106.395385,19.5930768 106.061538,19.9592308 L106.061538,19.0384615 L104.688462,19.0384615 L104.688462,27.18 L106.061538,27.18 Z M118.015385,27.3415385 C118.306154,27.3415385 118.564615,27.3226922 118.790769,27.285 C119.016923,27.2473078 119.226923,27.1907693 119.420769,27.1153846 L119.420769,25.8876923 C119.27,25.9523077 119.097692,26.0007692 118.903846,26.0330769 C118.71,26.0653846 118.478462,26.0815385 118.209231,26.0815385 C117.713846,26.0815385 117.318077,25.9684615 117.021923,25.7423077 C116.725769,25.5161538 116.577692,25.0853845 116.577692,24.45 L116.577692,20.2984615 L119.404615,20.2984615 L119.404615,19.0384615 L116.577692,19.0384615 L116.577692,17.0030769 L115.188462,17.0030769 L115.188462,19.0384615 L113.653846,19.0384615 L113.653846,20.2984615 L115.188462,20.2984615 L115.188462,24.45 C115.188462,25.4407691 115.433462,26.1703846 115.923462,26.6388462 C116.413461,27.1073077 117.110769,27.3415385 118.015385,27.3415385 Z M122.199231,16.9223077 C122.468462,16.9223077 122.694615,16.828077 122.877692,16.6396154 C123.060769,16.4511538 123.152308,16.2223078 123.152308,15.9530769 C123.152308,15.6946154 123.060769,15.4711539 122.877692,15.2826923 C122.694615,15.0942307 122.468462,15 122.199231,15 C121.93,15 121.701154,15.0942307 121.512692,15.2826923 C121.324231,15.4711539 121.23,15.6946154 121.23,15.9530769 C121.23,16.2223078 121.324231,16.4511538 121.512692,16.6396154 C121.701154,16.828077 121.93,16.9223077 122.199231,16.9223077 Z M122.877692,27.18 L122.877692,19.0384615 L121.504615,19.0384615 L121.504615,27.18 L122.877692,27.18 Z M127.643077,27.18 L127.643077,20.2984615 L130.47,20.2984615 L130.47,19.0384615 L127.643077,19.0384615 L127.643077,18.0046154 C127.643077,17.476923 127.785769,17.0623078 128.071154,16.7607692 C128.356539,16.4592307 128.72,16.3084615 129.161538,16.3084615 C129.441538,16.3084615 129.681154,16.3596155 129.880385,16.4619231 C130.079615,16.5642307 130.249231,16.6961538 130.389231,16.8576923 L131.245385,15.8561538 C131.008461,15.6192307 130.712308,15.4280769 130.356923,15.2826923 C130.001538,15.1373077 129.597692,15.0646154 129.145385,15.0646154 C128.273077,15.0646154 127.573077,15.3419232 127.045385,15.8965385 C126.517692,16.4511538 126.253846,17.1646154 126.253846,18.0369231 L126.253846,19.0384615 L124.719231,19.0384615 L124.719231,20.2984615 L126.253846,20.2984615 L126.253846,27.18 L127.643077,27.18 Z M132.747692,16.9223077 C133.016923,16.9223077 133.243077,16.828077 133.426154,16.6396154 C133.609231,16.4511538 133.700769,16.2223078 133.700769,15.9530769 C133.700769,15.6946154 133.609231,15.4711539 133.426154,15.2826923 C133.243077,15.0942307 133.016923,15 132.747692,15 C132.478461,15 132.249615,15.0942307 132.061154,15.2826923 C131.872692,15.4711539 131.778462,15.6946154 131.778462,15.9530769 C131.778462,16.2223078 131.872692,16.4511538 132.061154,16.6396154 C132.249615,16.828077 132.478461,16.9223077 132.747692,16.9223077 Z M133.426154,27.18 L133.426154,19.0384615 L132.053077,19.0384615 L132.053077,27.18 L133.426154,27.18 Z M140.081538,27.5030769 C140.835385,27.5030769 141.511154,27.3523078 142.108846,27.0507692 C142.706538,26.7492307 143.193846,26.3453845 143.570769,25.8392308 L142.553077,25.0476923 C142.283846,25.4138462 141.939231,25.7073076 141.519231,25.9280769 C141.099231,26.1488462 140.630769,26.2592308 140.113846,26.2592308 C139.209231,26.2592308 138.474231,25.9657691 137.908846,25.3788462 C137.343462,24.7919232 137.060769,24.0515384 137.060769,23.1576923 L137.060769,23.1253846 L143.296154,23.1253846 C143.317692,23.0176922 143.339231,22.8857693 143.360769,22.7296154 C143.382308,22.5734615 143.393077,22.4146154 143.393077,22.2530769 C143.393077,21.7469232 143.306923,21.2757692 143.134615,20.8396154 C142.962308,20.4034615 142.717308,20.0292307 142.399615,19.7169231 C142.081923,19.4046155 141.696923,19.1596154 141.244615,18.9819231 C140.792308,18.8042308 140.291538,18.7153846 139.742308,18.7153846 C139.117692,18.7153846 138.549615,18.8284615 138.038077,19.0546154 C137.526538,19.2807692 137.095769,19.5903847 136.745769,19.9834615 C136.395769,20.3765384 136.123846,20.8423078 135.93,21.3807692 C135.736154,21.9192307 135.639231,22.4953846 135.639231,23.1092308 C135.639231,23.7015385 135.741538,24.2642308 135.946154,24.7973077 C136.150769,25.3303846 136.444231,25.7961538 136.826538,26.1946154 C137.208846,26.593077 137.677308,26.9107691 138.231923,27.1476923 C138.786538,27.3846155 139.403077,27.5030769 140.081538,27.5030769 Z M142.003846,22.0430769 L137.173846,22.0430769 C137.335385,21.343077 137.642308,20.8100001 138.094615,20.4438462 C138.546923,20.0776922 139.101538,19.8946154 139.758462,19.8946154 C140.426154,19.8946154 140.961923,20.1073078 141.365769,20.5326923 C141.769615,20.9580768 141.982308,21.4615385 142.003846,22.0430769 Z M147.092308,27.18 L147.092308,21.6553846 C147.34,21.2461539 147.646923,20.9150001 148.013077,20.6619231 C148.379231,20.4088461 148.826154,20.2823077 149.353846,20.2823077 C149.515385,20.2823077 149.660769,20.293077 149.79,20.3146154 C149.919231,20.3361538 150.043077,20.3630769 150.161538,20.3953846 L150.161538,18.9738462 C150.064615,18.9415385 149.956923,18.9173077 149.838462,18.9011538 C149.72,18.885 149.596154,18.8769231 149.466923,18.8769231 C148.95,18.8769231 148.500385,18.9846155 148.118077,19.2 C147.735769,19.4153845 147.393846,19.7007692 147.092308,20.0561538 L147.092308,19.0384615 L145.719231,19.0384615 L145.719231,27.18 L147.092308,27.18 Z M158.723077,27.5030769 C159.272308,27.5030769 159.789231,27.3846155 160.273846,27.1476923 C160.758462,26.9107691 161.151538,26.5769232 161.453077,26.1461538 L161.453077,27.18 L162.826154,27.18 L162.826154,21.72 C162.826154,20.8261539 162.535385,20.101923 161.953846,19.5473077 C161.372308,18.9926924 160.564615,18.7153846 159.530769,18.7153846 C158.82,18.7153846 158.184615,18.8553847 157.624615,19.1353846 C157.064615,19.4153845 156.606923,19.7976923 156.251538,20.2823077 L157.285385,21.0738462 C157.522308,20.7184615 157.831923,20.4411538 158.214231,20.2419231 C158.596539,20.0426924 159.024615,19.9430769 159.498462,19.9430769 C160.069231,19.9430769 160.537692,20.0992309 160.903846,20.4115385 C161.27,20.7238461 161.453077,21.1599999 161.453077,21.72 L161.453077,22.2853846 L158.723077,22.7376923 C157.850769,22.8776924 157.185769,23.1630768 156.728077,23.5938462 C156.270385,24.0246155 156.041538,24.5523076 156.041538,25.1769231 C156.041538,25.8876923 156.289231,26.4530769 156.784615,26.8730769 C157.28,27.2930769 157.926154,27.5030769 158.723077,27.5030769 Z M158.949231,26.3561538 C158.486154,26.3561538 158.114615,26.2376924 157.834615,26.0007692 C157.554615,25.7638461 157.414615,25.4730768 157.414615,25.1284615 C157.414615,24.7730769 157.546539,24.4715384 157.810385,24.2238462 C158.074231,23.9761539 158.486154,23.8092307 159.046154,23.7230769 L161.453077,23.3030769 L161.453077,24.8538462 C161.173077,25.3169232 160.820385,25.6830768 160.395,25.9523077 C159.969615,26.2215385 159.487692,26.3561538 158.949231,26.3561538 Z M169.368462,27.18 L172.550769,19.0384615 L171.064615,19.0384615 L168.463846,25.7423077 L165.863077,19.0384615 L164.376923,19.0384615 L167.559231,27.18 L169.368462,27.18 Z M177.978462,27.5030769 C178.732308,27.5030769 179.408077,27.3523078 180.005769,27.0507692 C180.603462,26.7492307 181.090769,26.3453845 181.467692,25.8392308 L180.45,25.0476923 C180.180769,25.4138462 179.836154,25.7073076 179.416154,25.9280769 C178.996154,26.1488462 178.527692,26.2592308 178.010769,26.2592308 C177.106154,26.2592308 176.371154,25.9657691 175.805769,25.3788462 C175.240385,24.7919232 174.957692,24.0515384 174.957692,23.1576923 L174.957692,23.1253846 L181.193077,23.1253846 C181.214615,23.0176922 181.236154,22.8857693 181.257692,22.7296154 C181.279231,22.5734615 181.29,22.4146154 181.29,22.2530769 C181.29,21.7469232 181.203846,21.2757692 181.031538,20.8396154 C180.859231,20.4034615 180.614231,20.0292307 180.296538,19.7169231 C179.978846,19.4046155 179.593846,19.1596154 179.141538,18.9819231 C178.689231,18.8042308 178.188462,18.7153846 177.639231,18.7153846 C177.014615,18.7153846 176.446539,18.8284615 175.935,19.0546154 C175.423461,19.2807692 174.992692,19.5903847 174.642692,19.9834615 C174.292692,20.3765384 174.020769,20.8423078 173.826923,21.3807692 C173.633077,21.9192307 173.536154,22.4953846 173.536154,23.1092308 C173.536154,23.7015385 173.638461,24.2642308 173.843077,24.7973077 C174.047692,25.3303846 174.341154,25.7961538 174.723462,26.1946154 C175.105769,26.593077 175.574231,26.9107691 176.128846,27.1476923 C176.683461,27.3846155 177.3,27.5030769 177.978462,27.5030769 Z M179.900769,22.0430769 L175.070769,22.0430769 C175.232308,21.343077 175.539231,20.8100001 175.991538,20.4438462 C176.443846,20.0776922 176.998461,19.8946154 177.655385,19.8946154 C178.323077,19.8946154 178.858846,20.1073078 179.262692,20.5326923 C179.666538,20.9580768 179.879231,21.4615385 179.900769,22.0430769 Z M187.347692,27.5030769 C188.090769,27.5030769 188.753077,27.3523078 189.334615,27.0507692 C189.916154,26.7492307 190.395385,26.3453845 190.772308,25.8392308 L189.673846,24.9992308 C189.426154,25.3653847 189.103077,25.6588461 188.704615,25.8796154 C188.306154,26.1003847 187.859231,26.2107692 187.363846,26.2107692 C186.922308,26.2107692 186.518462,26.13 186.152308,25.9684615 C185.786154,25.8069231 185.471154,25.5888462 185.207308,25.3142308 C184.943462,25.0396154 184.736154,24.7111539 184.585385,24.3288462 C184.434615,23.9465384 184.359231,23.5400001 184.359231,23.1092308 C184.359231,22.6784615 184.434615,22.2746153 184.585385,21.8976923 C184.736154,21.5207693 184.940769,21.1923076 185.199231,20.9123077 C185.457692,20.6323078 185.772692,20.4115385 186.144231,20.25 C186.515769,20.0884615 186.916923,20.0076923 187.347692,20.0076923 C187.843077,20.0076923 188.292692,20.1180768 188.696538,20.3388462 C189.100385,20.5596155 189.426154,20.8530768 189.673846,21.2192308 L190.772308,20.3792308 C190.395385,19.8838461 189.913461,19.4826923 189.326538,19.1757692 C188.739615,18.8688462 188.08,18.7153846 187.347692,18.7153846 C186.68,18.7153846 186.071538,18.8338461 185.522308,19.0707692 C184.973077,19.3076924 184.507308,19.6253845 184.125,20.0238462 C183.742692,20.4223078 183.446538,20.8880769 183.236538,21.4211538 C183.026538,21.9542308 182.921538,22.516923 182.921538,23.1092308 C182.921538,23.7015385 183.026538,24.2642308 183.236538,24.7973077 C183.446538,25.3303846 183.742692,25.7961538 184.125,26.1946154 C184.507308,26.593077 184.973077,26.9107691 185.522308,27.1476923 C186.071538,27.3846155 186.68,27.5030769 187.347692,27.5030769 Z M69.1621154,43.9107692 L69.1621154,38.9584615 L72.9432692,38.9584615 L72.9432692,36.9340385 L69.1621154,36.9340385 L69.1621154,34.2236538 L73.6125,34.2236538 L73.6125,32.1992308 L66.7863462,32.1992308 L66.7863462,43.9107692 L69.1621154,43.9107692 Z M77.5442308,43.9107692 L77.5442308,38.6238462 C77.7003845,38.3673078 77.9485578,38.1219231 78.28875,37.8876923 C78.6289422,37.6534615 79.0555768,37.5363462 79.5686538,37.5363462 C79.7582691,37.5363462 79.9283654,37.5475001 80.0789423,37.5698077 C80.2295192,37.5921153 80.3717308,37.62 80.5055769,37.6534615 L80.5055769,35.4282692 C80.4051923,35.3948077 80.2936538,35.366923 80.1709615,35.3446154 C80.0482693,35.3223078 79.9144232,35.3111538 79.7694231,35.3111538 C79.2898076,35.3111538 78.8687501,35.4087499 78.50625,35.6039423 C78.1437499,35.7991347 77.823077,36.0361538 77.5442308,36.315 L77.5442308,35.4784615 L75.4194231,35.4784615 L75.4194231,43.9107692 L77.5442308,43.9107692 Z M84.6213462,44.2453846 C85.1121153,44.2453846 85.5861539,44.1422115 86.0434615,43.9358654 C86.5007691,43.7295193 86.8632692,43.4590385 87.1309615,43.1244231 L87.1309615,43.9107692 L89.2725,43.9107692 L89.2725,38.4565385 C89.2725,37.9992309 89.194423,37.5670191 89.0382692,37.1599038 C88.8821155,36.7527885 88.650673,36.4014424 88.3439423,36.1058654 C88.0372116,35.8102884 87.6496154,35.5760576 87.1811538,35.4031731 C86.7126923,35.2302885 86.1773077,35.1438462 85.575,35.1438462 C84.8165385,35.1438462 84.1333653,35.2944231 83.5254808,35.5955769 C82.9175962,35.8967308 82.4240385,36.3038461 82.0448077,36.8169231 L83.6175,38.0048077 C83.8071153,37.6813462 84.0664422,37.433173 84.3954808,37.2602885 C84.7245193,37.0874039 85.0953845,37.0009615 85.5080769,37.0009615 C85.9876924,37.0009615 86.3780769,37.1320191 86.6792308,37.3941346 C86.9803846,37.6562501 87.1309615,38.0103845 87.1309615,38.4565385 L87.1309615,38.6740385 L84.5878846,39.1090385 C83.6844231,39.2540385 82.9900962,39.5607692 82.5049038,40.0292308 C82.0197115,40.4976923 81.7771154,41.0498077 81.7771154,41.6855769 C81.7771154,42.4774999 82.0420191,43.1021155 82.5718269,43.5594231 C83.1016347,44.0167307 83.7848077,44.2453846 84.6213462,44.2453846 Z M85.0563462,42.5388462 C84.6994232,42.5388462 84.4150001,42.4496155 84.2030769,42.2711538 C83.9911538,42.0926922 83.8851923,41.8696154 83.8851923,41.6019231 C83.8851923,41.3342308 83.9827884,41.1111539 84.1779808,40.9326923 C84.3731732,40.7542307 84.6938461,40.6259616 85.14,40.5478846 L87.1309615,40.1965385 L87.1309615,41.3509615 C86.9190384,41.6967309 86.6401924,41.9811539 86.2944231,42.2042308 C85.9486538,42.4273076 85.5359616,42.5388462 85.0563462,42.5388462 Z M93.8232692,43.9107692 L93.8232692,38.4063462 C93.979423,38.1386538 94.2108655,37.8625962 94.5175962,37.5781731 C94.8243268,37.29375 95.2453846,37.1515385 95.7807692,37.1515385 C96.2938462,37.1515385 96.698173,37.3160576 96.99375,37.6450962 C97.289327,37.9741347 97.4371154,38.4175001 97.4371154,38.9751923 L97.4371154,43.9107692 L99.5953846,43.9107692 L99.5953846,38.8915385 C99.5953846,38.2669232 99.5089422,37.7203846 99.3360577,37.2519231 C99.1631732,36.7834615 98.9289424,36.393077 98.6333654,36.0807692 C98.3377884,35.7684615 97.9920193,35.5342307 97.5960577,35.3780769 C97.2000961,35.2219232 96.7734615,35.1438462 96.3161538,35.1438462 C95.7584616,35.1438462 95.2760576,35.2414422 94.8689423,35.4366346 C94.461827,35.631827 94.1132691,35.8688461 93.8232692,36.1476923 L93.8232692,35.4784615 L91.6984615,35.4784615 L91.6984615,43.9107692 L93.8232692,43.9107692 Z M106.053462,44.2453846 C106.823077,44.2453846 107.511827,44.0892309 108.119712,43.7769231 C108.727596,43.4646153 109.226731,43.0519232 109.617115,42.5388462 L107.927308,41.2505769 C107.726538,41.5405768 107.467212,41.7775962 107.149327,41.9616346 C106.831442,42.1456731 106.466154,42.2376923 106.053462,42.2376923 C105.350769,42.2376923 104.767981,41.9978847 104.305096,41.5182692 C103.842211,41.0386538 103.610769,40.4307692 103.610769,39.6946154 C103.610769,38.9584615 103.839423,38.350577 104.296731,37.8709615 C104.754038,37.3913461 105.328462,37.1515385 106.02,37.1515385 C106.455,37.1515385 106.831442,37.2435577 107.149327,37.4275962 C107.467212,37.6116346 107.726538,37.8486539 107.927308,38.1386538 L109.617115,36.8503846 C109.226731,36.3373076 108.727596,35.9246155 108.119712,35.6123077 C107.511827,35.2999999 106.823077,35.1438462 106.053462,35.1438462 C105.328462,35.1438462 104.675962,35.2665384 104.095962,35.5119231 C103.515961,35.7573078 103.027981,36.0863461 102.632019,36.4990385 C102.236058,36.9117309 101.932115,37.3941346 101.720192,37.94625 C101.508269,38.4983654 101.402308,39.0811538 101.402308,39.6946154 C101.402308,40.308077 101.508269,40.8908654 101.720192,41.4429808 C101.932115,41.9950962 102.236058,42.4774999 102.632019,42.8901923 C103.027981,43.3028847 103.515961,43.631923 104.095962,43.8773077 C104.675962,44.1226924 105.328462,44.2453846 106.053462,44.2453846 Z M115.288846,44.2453846 C116.080769,44.2453846 116.794615,44.0920191 117.430385,43.7852885 C118.066154,43.4785578 118.579231,43.0630768 118.969615,42.5388462 L117.447115,41.3342308 C117.224039,41.6353846 116.928462,41.8779808 116.560385,42.0620192 C116.192308,42.2460577 115.779615,42.3380769 115.322308,42.3380769 C114.608461,42.3380769 114.022885,42.1428845 113.565577,41.7525 C113.108269,41.3621155 112.846154,40.8211538 112.779231,40.1296154 L118.685192,40.1296154 C118.718654,39.9846153 118.749327,39.8061539 118.777212,39.5942308 C118.805096,39.3823076 118.819038,39.1592308 118.819038,38.925 C118.819038,37.8207692 118.462115,36.9145191 117.748269,36.20625 C117.034423,35.4979809 116.0975,35.1438462 114.9375,35.1438462 C114.245962,35.1438462 113.6325,35.2637501 113.097115,35.5035577 C112.561731,35.7433653 112.11,36.0696153 111.741923,36.4823077 C111.373846,36.8950001 111.092212,37.3774038 110.897019,37.9295192 C110.701827,38.4816346 110.604231,39.0700001 110.604231,39.6946154 C110.604231,40.308077 110.707404,40.8908654 110.91375,41.4429808 C111.120096,41.9950962 111.42125,42.4774999 111.817212,42.8901923 C112.213173,43.3028847 112.703942,43.631923 113.289519,43.8773077 C113.875096,44.1226924 114.541538,44.2453846 115.288846,44.2453846 Z M116.710962,38.5234615 L112.913077,38.5234615 C113.058077,37.976923 113.303461,37.5725962 113.649231,37.3104808 C113.995,37.0483653 114.424423,36.9173077 114.9375,36.9173077 C115.495192,36.9173077 115.927404,37.0818268 116.234135,37.4108654 C116.540865,37.7399039 116.699808,38.1107691 116.710962,38.5234615 Z M126.565385,44.2453846 C127.625,44.2453846 128.578654,44.0278846 129.426346,43.5928846 C130.274039,43.1578846 130.965577,42.5778845 131.500962,41.8528846 L129.627115,40.4140385 C129.2925,40.8936539 128.865865,41.2812499 128.347212,41.5768269 C127.828558,41.8724039 127.234615,42.0201923 126.565385,42.0201923 C126.018846,42.0201923 125.511346,41.9170191 125.042885,41.7106731 C124.574423,41.504327 124.175673,41.2254808 123.846635,40.8741346 C123.517596,40.5227885 123.258269,40.1045192 123.068654,39.6193269 C122.879039,39.1341346 122.784231,38.6126922 122.784231,38.055 C122.784231,37.4973078 122.879039,36.9758654 123.068654,36.4906731 C123.258269,36.0054808 123.517596,35.5872115 123.846635,35.2358654 C124.175673,34.8845192 124.574423,34.605673 125.042885,34.3993269 C125.511346,34.1929809 126.018846,34.0898077 126.565385,34.0898077 C127.234615,34.0898077 127.828558,34.2375961 128.347212,34.5331731 C128.865865,34.8287501 129.2925,35.2163461 129.627115,35.6959615 L131.500962,34.2403846 C130.965577,33.5376923 130.274039,32.9660576 129.426346,32.5254808 C128.578654,32.0849039 127.625,31.8646154 126.565385,31.8646154 C125.650769,31.8646154 124.808654,32.0319231 124.039038,32.3665385 C123.269423,32.7011538 122.611346,33.1473078 122.064808,33.705 C121.518269,34.2626922 121.094423,34.9179808 120.793269,35.6708654 C120.492115,36.42375 120.341538,37.2184615 120.341538,38.055 C120.341538,38.8915385 120.492115,39.68625 120.793269,40.4391346 C121.094423,41.1920192 121.518269,41.8473078 122.064808,42.405 C122.611346,42.9626922 123.269423,43.4088462 124.039038,43.7434615 C124.808654,44.0780769 125.650769,44.2453846 126.565385,44.2453846 Z M137.289808,44.2453846 C137.970192,44.2453846 138.594808,44.1254807 139.163654,43.8856731 C139.7325,43.6458655 140.220481,43.3224038 140.627596,42.9152885 C141.034711,42.5081732 141.349808,42.0257691 141.572885,41.4680769 C141.795961,40.9103847 141.9075,40.3192307 141.9075,39.6946154 C141.9075,39.0700001 141.795961,38.4788461 141.572885,37.9211538 C141.349808,37.3634616 141.034711,36.8810576 140.627596,36.4739423 C140.220481,36.066827 139.7325,35.7433653 139.163654,35.5035577 C138.594808,35.2637501 137.970192,35.1438462 137.289808,35.1438462 C136.609423,35.1438462 135.984808,35.2637501 135.415962,35.5035577 C134.847115,35.7433653 134.359135,36.066827 133.952019,36.4739423 C133.544904,36.8810576 133.229808,37.3634616 133.006731,37.9211538 C132.783654,38.4788461 132.672115,39.0700001 132.672115,39.6946154 C132.672115,40.3192307 132.783654,40.9103847 133.006731,41.4680769 C133.229808,42.0257691 133.544904,42.5081732 133.952019,42.9152885 C134.359135,43.3224038 134.847115,43.6458655 135.415962,43.8856731 C135.984808,44.1254807 136.609423,44.2453846 137.289808,44.2453846 Z M137.323269,42.2376923 C136.620577,42.2376923 136.037789,41.9978847 135.574904,41.5182692 C135.112019,41.0386538 134.880577,40.4307692 134.880577,39.6946154 C134.880577,38.9584615 135.112019,38.350577 135.574904,37.8709615 C136.037789,37.3913461 136.620577,37.1515385 137.323269,37.1515385 C137.9925,37.1515385 138.555769,37.3913461 139.013077,37.8709615 C139.470385,38.350577 139.699038,38.9584615 139.699038,39.6946154 C139.699038,40.4196153 139.470385,41.0247115 139.013077,41.5099038 C138.555769,41.9950962 137.9925,42.2376923 137.323269,42.2376923 Z M145.973077,43.9107692 L145.973077,38.4063462 C146.129231,38.1386538 146.360673,37.8625962 146.667404,37.5781731 C146.974135,37.29375 147.395192,37.1515385 147.930577,37.1515385 C148.443654,37.1515385 148.847981,37.3160576 149.143558,37.6450962 C149.439135,37.9741347 149.586923,38.4175001 149.586923,38.9751923 L149.586923,43.9107692 L151.745192,43.9107692 L151.745192,38.8915385 C151.745192,38.2669232 151.65875,37.7203846 151.485865,37.2519231 C151.312981,36.7834615 151.07875,36.393077 150.783173,36.0807692 C150.487596,35.7684615 150.141827,35.5342307 149.745865,35.3780769 C149.349904,35.2219232 148.923269,35.1438462 148.465962,35.1438462 C147.908269,35.1438462 147.425865,35.2414422 147.01875,35.4366346 C146.611635,35.631827 146.263077,35.8688461 145.973077,36.1476923 L145.973077,35.4784615 L143.848269,35.4784615 L143.848269,43.9107692 L145.973077,43.9107692 Z M156.279231,43.9107692 L156.279231,38.4063462 C156.435385,38.1386538 156.666827,37.8625962 156.973558,37.5781731 C157.280288,37.29375 157.701346,37.1515385 158.236731,37.1515385 C158.749808,37.1515385 159.154135,37.3160576 159.449712,37.6450962 C159.745289,37.9741347 159.893077,38.4175001 159.893077,38.9751923 L159.893077,43.9107692 L162.051346,43.9107692 L162.051346,38.8915385 C162.051346,38.2669232 161.964904,37.7203846 161.792019,37.2519231 C161.619135,36.7834615 161.384904,36.393077 161.089327,36.0807692 C160.79375,35.7684615 160.447981,35.5342307 160.052019,35.3780769 C159.656058,35.2219232 159.229423,35.1438462 158.772115,35.1438462 C158.214423,35.1438462 157.732019,35.2414422 157.324904,35.4366346 C156.917789,35.631827 156.569231,35.8688461 156.279231,36.1476923 L156.279231,35.4784615 L154.154423,35.4784615 L154.154423,43.9107692 L156.279231,43.9107692 Z M168.542885,44.2453846 C169.334808,44.2453846 170.048654,44.0920191 170.684423,43.7852885 C171.320192,43.4785578 171.833269,43.0630768 172.223654,42.5388462 L170.701154,41.3342308 C170.478077,41.6353846 170.1825,41.8779808 169.814423,42.0620192 C169.446346,42.2460577 169.033654,42.3380769 168.576346,42.3380769 C167.8625,42.3380769 167.276923,42.1428845 166.819615,41.7525 C166.362308,41.3621155 166.100192,40.8211538 166.033269,40.1296154 L171.939231,40.1296154 C171.972692,39.9846153 172.003365,39.8061539 172.03125,39.5942308 C172.059135,39.3823076 172.073077,39.1592308 172.073077,38.925 C172.073077,37.8207692 171.716154,36.9145191 171.002308,36.20625 C170.288461,35.4979809 169.351538,35.1438462 168.191538,35.1438462 C167.5,35.1438462 166.886538,35.2637501 166.351154,35.5035577 C165.815769,35.7433653 165.364038,36.0696153 164.995962,36.4823077 C164.627885,36.8950001 164.34625,37.3774038 164.151058,37.9295192 C163.955865,38.4816346 163.858269,39.0700001 163.858269,39.6946154 C163.858269,40.308077 163.961442,40.8908654 164.167788,41.4429808 C164.374135,41.9950962 164.675288,42.4774999 165.07125,42.8901923 C165.467212,43.3028847 165.957981,43.631923 166.543558,43.8773077 C167.129135,44.1226924 167.795577,44.2453846 168.542885,44.2453846 Z M169.965,38.5234615 L166.167115,38.5234615 C166.312115,37.976923 166.5575,37.5725962 166.903269,37.3104808 C167.249039,37.0483653 167.678461,36.9173077 168.191538,36.9173077 C168.749231,36.9173077 169.181442,37.0818268 169.488173,37.4108654 C169.794904,37.7399039 169.953846,38.1107691 169.965,38.5234615 Z M178.196538,44.2453846 C178.966154,44.2453846 179.654904,44.0892309 180.262788,43.7769231 C180.870673,43.4646153 181.369808,43.0519232 181.760192,42.5388462 L180.070385,41.2505769 C179.869615,41.5405768 179.610288,41.7775962 179.292404,41.9616346 C178.974519,42.1456731 178.609231,42.2376923 178.196538,42.2376923 C177.493846,42.2376923 176.911058,41.9978847 176.448173,41.5182692 C175.985288,41.0386538 175.753846,40.4307692 175.753846,39.6946154 C175.753846,38.9584615 175.9825,38.350577 176.439808,37.8709615 C176.897115,37.3913461 177.471539,37.1515385 178.163077,37.1515385 C178.598077,37.1515385 178.974519,37.2435577 179.292404,37.4275962 C179.610288,37.6116346 179.869615,37.8486539 180.070385,38.1386538 L181.760192,36.8503846 C181.369808,36.3373076 180.870673,35.9246155 180.262788,35.6123077 C179.654904,35.2999999 178.966154,35.1438462 178.196538,35.1438462 C177.471539,35.1438462 176.819039,35.2665384 176.239038,35.5119231 C175.659038,35.7573078 175.171058,36.0863461 174.775096,36.4990385 C174.379135,36.9117309 174.075192,37.3941346 173.863269,37.94625 C173.651346,38.4983654 173.545385,39.0811538 173.545385,39.6946154 C173.545385,40.308077 173.651346,40.8908654 173.863269,41.4429808 C174.075192,41.9950962 174.379135,42.4774999 174.775096,42.8901923 C175.171058,43.3028847 175.659038,43.631923 176.239038,43.8773077 C176.819039,44.1226924 177.471539,44.2453846 178.196538,44.2453846 Z M186.996923,44.0780769 C187.342692,44.0780769 187.646635,44.0557693 187.90875,44.0111538 C188.170865,43.9665384 188.407885,43.8996153 188.619808,43.8103846 L188.619808,41.9532692 C188.474808,42.0090384 188.301923,42.0536538 188.101154,42.0871154 C187.900385,42.1205769 187.655,42.1373077 187.365,42.1373077 C186.952308,42.1373077 186.626058,42.0369231 186.38625,41.8361538 C186.146442,41.6353846 186.026538,41.3007692 186.026538,40.8323077 L186.026538,37.4192308 L188.603077,37.4192308 L188.603077,35.4784615 L186.026538,35.4784615 L186.026538,33.3703846 L183.885,33.3703846 L183.885,35.4784615 L182.312308,35.4784615 L182.312308,37.4192308 L183.885,37.4192308 L183.885,40.8323077 C183.885,41.8584615 184.141538,42.6559615 184.654615,43.2248077 C185.167692,43.7936538 185.948461,44.0780769 186.996923,44.0780769 Z" id="S’identifieravecFranceConnect" fill="#FFFFFF" fill-rule="nonzero"></path>
                <polygon id="Path" fill="#FFFFFF" fill-rule="nonzero" points="211.855 21 211.855691 30.1768181 221 30.176 221 33.823 211.855691 33.8236435 211.855 43 208.195 43 208.195652 33.8236435 199 33.823 199 30.176 208.195652 30.1768181 208.195 21"></polygon>
                <g id="Marianne" transform="translate(12.000000, 6.000000)">
                    <g id="Mosaique" fill-rule="nonzero">
                        <path d="M21.4370208,0.103102625 C21.2070099,-0.0343675418 20.7929901,-0.0343675418 20.5629792,0.103102625 L0.414019715,11.69642 C0.184008762,11.8338902 0,12.1546539 0,12.4295943 L0,35.5704057 C0,35.8453461 0.184008762,36.1661098 0.414019715,36.30358 L20.5629792,47.8968974 C20.7929901,48.0343675 21.2070099,48.0343675 21.4370208,47.8968974 L41.5859803,36.30358 C41.8159912,36.1661098 42,35.8453461 42,35.5704057 L42,12.4295943 C42,12.1546539 41.8159912,11.8338902 41.5859803,11.69642 L21.4370208,0.103102625 Z" id="Path" fill="#FFFFFF"></path>
                        <path d="M21,42.5978932 L5.32,33.5656751 C5.13714286,33.4739774 5,33.1988845 5,33.0154892 L5,15.2261459 C5,14.9969018 5.13714286,14.7676577 5.32,14.6759601 L21,5.59789315 L21,42.5978932 Z" id="XMLID_127_" fill="#0053CC"></path>
                        <path d="M5.04609453,33.1727544 L5,15.2392559 C5,15.0081541 5.1382836,14.7770523 5.32266173,14.6846116 L21,5.59789315 L5.04609453,33.1727544 Z" id="XMLID_125_" fill="#000091"></path>
                        <polygon id="Path" fill="#E1000F" points="5.45 14.6078422 10.3000039 24.0978932 15.8890561 14.6997353 11.1314332 11.3178932"></polygon>
                        <path d="M21.0457143,42.5978932 L36.68,33.5768535 C36.8628571,33.4852694 37,33.2105169 37,33.0273486 L37,15.2600219 C37,15.0310615 36.8628571,14.8021011 36.68,14.7105169 L21,5.59789315 L21.0457143,42.5978932 Z" id="XMLID_124_" fill="#000091"></path>
                        <path d="M37,33.0978932 L37,15.3796476 C37,15.0978932 37,14.8878712 36.68,14.6978932 L21,5.59789315 L37,33.0978932 Z" id="XMLID_121_" fill="#E1000F"></path>
                        <polygon id="Path" fill="#0053CC" points="35.9925385 14.2977833 31.46695 23.5899611 26 14.3709428 30.5132743 11.0978932"></polygon>
                    </g>
                    <path d="M26.2388097,14.3523049 C26.6101002,14.5387981 26.9549667,14.77843 27.1937986,15.1514163 C27.2998332,15.3115094 27.4326305,15.6046185 27.3530199,15.8178503 C27.2466465,16.0574822 27.1937986,16.4839457 26.9549667,16.563823 C26.6632869,16.7239161 26.2652337,16.7239161 25.8939432,16.6704389 C25.681874,16.6704389 25.4962288,16.6173002 25.2838209,16.563823 C26.0267405,16.8569321 26.7428975,17.2299185 27.2466465,17.923091 C27.2998332,18.0293684 27.4854784,18.0828456 27.6975476,18.0828456 C27.7507343,18.0828456 27.7507343,18.1894615 27.7507343,18.2426002 C27.6446997,18.3492161 27.5386651,18.4026932 27.591513,18.5357092 L27.7507343,18.5357092 C27.9895662,18.4290934 27.9631422,17.923091 28.30767,18.0828456 C28.5465019,18.2426002 28.6525365,18.5891864 28.5200779,18.8291568 C28.30767,19.0420501 28.1220247,19.1754046 27.9099555,19.3351592 C27.8567689,19.4417751 27.8567689,19.5751295 27.9099555,19.6817454 C28.0691768,19.8949772 28.1220247,20.0814704 28.1484487,20.2947022 C28.30767,20.64095 28.3608566,21.0406749 28.4936539,21.4136613 C28.7057231,22.1599725 28.8913684,22.9326839 28.8381817,23.6789951 C28.8381817,24.0787201 28.6261125,24.4249679 28.7853338,24.8246928 C28.8913684,25.2244178 29.1298615,25.5175269 29.3422694,25.8905132 C29.5543386,26.1839608 29.7399839,26.3968541 29.8992051,26.6903016 C29.9639099,26.8026714 30.0418267,26.9150412 30.1214374,27.0284263 L30.201048,27.1421499 C30.4510593,27.5032901 30.6773568,27.8766149 30.5093275,28.288863 C30.3501062,28.6354493 29.8195945,28.5823106 29.448304,28.7952039 C29.1566242,29.0351743 29.3954561,29.4616378 29.5543386,29.7012697 C29.7931705,30.1544719 29.2626588,30.4475809 28.8913684,30.6073355 C28.997403,30.7674286 29.1830482,30.7139514 29.2358961,30.8205673 C29.2890828,31.0601992 29.5279147,31.2202923 29.3954561,31.4866628 C29.3344778,31.5706016 29.2436878,31.6433712 29.1515427,31.7151254 L29.0824339,31.7692795 C28.8778176,31.9314033 28.7036905,32.1013118 28.8913684,32.3927286 C29.1034375,32.7393148 28.970979,33.1387013 28.8381817,33.5120262 C28.6789604,33.9648899 28.281246,34.1781216 27.9363795,34.2583374 C27.6446997,34.3646148 27.2730705,34.3646148 26.9817294,34.3114761 C26.875356,34.2583374 26.7693215,34.2048602 26.6897108,34.2048602 C25.8407565,34.0982443 24.992141,33.858274 24.1435255,33.858274 C23.9046936,33.9117511 23.6394378,33.9648899 23.4537925,34.0451056 C23.2149606,34.2048602 23.0293154,34.3913534 22.8436702,34.5778466 C22.8172462,34.6313238 22.7640595,34.6577239 22.7376356,34.7112011 C22.7112116,34.7379397 22.6847877,34.7643398 22.6847877,34.7910784 L22.6688656,34.8069861 L22.6471844,34.8286478 C22.6431191,34.8327093 22.6380376,34.8377863 22.631601,34.8442171 C22.4723797,35.0310487 22.3663451,35.2175419 22.2338866,35.4304352 C22.2338866,35.4571738 22.2071239,35.4571738 22.2071239,35.4571738 C22.2071239,35.4839124 22.1806999,35.510651 22.154276,35.5370511 C21.9947159,35.8304987 21.8622574,36.1500079 21.7826467,36.4698555 C21.4377802,37.6155533 21.5970015,38.6018348 21.8358334,38.8418052 C21.9947159,39.0015598 23.9050617,39.5938589 25.5850155,40.1445384 C22.6496756,42.5961349 20.2771629,43.8219332 18.4674773,43.8219332 C15.9684019,43.8219332 11.7769627,42.1611743 5.89315973,38.8396564 C7.31734319,38.8396564 7.11464115,39.4104233 8.44092046,38.7460201 C9.07746678,38.4803266 10.5097807,37.8159234 10.9874445,37.337675 C11.2791243,37.0452429 11.5708041,36.7531492 11.83606,36.4343169 C12.3665717,35.8230525 12.8970835,35.2649268 13.5072058,34.7332012 C13.6928511,34.5741235 13.8784963,34.4143689 14.0641415,34.3080915 C14.1173282,34.2549528 14.1173282,34.1486753 14.1701761,34.0955366 C13.931683,34.2018141 13.7721229,34.3879688 13.5072058,34.4942462 C13.4540191,34.4942462 13.4011712,34.4411075 13.4540191,34.3879688 C13.6396644,34.2549528 13.8253096,34.1222752 13.9845309,33.9892592 L13.9581069,33.9892592 C13.9049202,33.9892592 13.9049202,33.9361205 13.9049202,33.8829818 C13.24195,33.7767044 12.7642861,34.2285526 12.3133851,34.6269238 C12.2073505,34.6804009 12.1013159,34.5741235 12.0748919,34.5741235 C11.3319722,34.8130785 10.7750366,35.4774816 10.0324556,35.7699138 L10.0324556,35.6632979 C9.74077582,35.7699138 9.44875724,35.95573 9.13065346,36.0088687 C8.67975237,36.1151462 8.28169919,36.0620075 7.88398478,36.0620075 C7.27386242,36.1151462 6.66374006,36.2481622 6.05361769,36.3811782 C6.02719374,36.3811782 6.02719374,36.3811782 6.00076978,36.4075783 C5.68232724,36.4871172 5.36422346,36.6201332 5.07220488,36.7795493 L5.04578092,36.8062879 C5.01935696,36.832688 4.99259424,36.8594266 4.96617028,36.8858267 C4.86013569,36.9921042 4.7541011,37.1251202 4.62130379,37.1782589 C4.30320001,37.337675 4.0643681,37.6033686 3.79911224,37.842662 C3.77268828,37.8690622 3.74626433,37.8690622 3.7195016,37.8690622 C3.45424574,38.1350942 3.77268828,37.337675 4.0643681,37.1515203 C4.03794415,37.1515203 3.98475747,37.1251202 4.01118142,37.0987201 C4.03794415,37.0452429 4.0643681,37.0188428 4.09079206,36.965704 C4.09079206,36.9389655 4.09079206,36.9389655 4.11721601,36.9125653 L4.11315079,36.8966576 L4.09519605,36.8749959 C4.0924859,36.8709344 4.09079206,36.8661959 4.09079206,36.8594266 C4.01118142,36.9125653 3.93190956,36.965704 3.85229892,37.0188428 C3.7195016,37.1251202 3.77268828,36.5138557 3.90514683,36.4343169 L3.87872288,36.4343169 C4.0643681,36.327701 4.27677605,36.2214236 4.46242128,36.1151462 L4.54169315,36.0356073 C4.25001333,36.1418848 4.01118142,36.2749008 3.74626433,36.4343169 C3.74626433,36.4343169 3.74626433,36.2481622 3.82587496,36.1686233 C3.87872288,36.1686233 3.93190956,36.1686233 3.93190956,36.2214236 C4.89367379,35.4788355 6.06208691,35.281173 7.2416794,35.1088953 L7.56350963,35.0621874 C8.26069553,34.9603099 8.95551006,34.8509864 9.60797851,34.6269238 C9.76719978,34.5206463 9.89965833,34.4143689 10.0588796,34.3348301 C10.2977115,34.2285526 10.5097807,33.9892592 10.8014605,33.8298431 C11.1995137,33.5374109 11.4911935,33.1654399 11.6504148,32.6871915 C11.6504148,32.6340528 11.5975669,32.5809141 11.5975669,32.5809141 C10.9342578,33.2717174 10.1916769,33.8298431 9.39590933,34.2285526 C8.33488587,34.7866784 7.19425178,34.6804009 6.08038042,34.8398171 C6.13322833,34.7332012 6.23960169,34.7332012 6.31887356,34.7332012 C6.31887356,34.5741235 6.42490815,34.5206463 6.53094274,34.4411075 L6.69050278,34.4411075 C6.74335069,34.4411075 6.74335069,34.3348301 6.79653737,34.3348301 C6.90257196,34.3348301 7.06145447,34.2816914 7.00860656,34.2816914 C6.84938528,34.068798 6.55770546,34.4411075 6.31887356,34.2816914 C6.42490815,34.1754139 6.37206024,34.0423979 6.47809483,33.9892592 L6.69050278,33.9892592 C6.69050278,33.8829818 6.79653737,33.7767044 6.79653737,33.7767044 C7.53911828,33.3248561 8.25527524,32.9796237 8.94466947,32.5809141 C8.78578696,32.5809141 8.70617633,32.7403302 8.54695505,32.6340528 C8.65332842,32.6340528 8.54695505,32.4746367 8.65332842,32.4746367 C9.2102641,32.3152205 9.66116519,32.0227884 10.2181009,31.8102335 C10.0060317,31.8102335 9.87323437,31.9696497 9.66116519,31.8102335 C9.76719978,31.7570948 9.82004769,31.6508174 9.95284501,31.6508174 L9.95284501,31.4914012 C9.95284501,31.4379241 10.0060317,31.4379241 10.0588796,31.4379241 C10.0060317,31.4379241 9.95284501,31.3851238 9.95284501,31.3851238 C10.0060317,31.2785079 10.165253,31.3319851 10.2445248,31.2257077 C10.1916769,31.2257077 10.0856423,31.2257077 10.0856423,31.1722305 C10.2445248,30.9596757 10.4833567,30.9332755 10.7486126,30.8801368 C10.6954259,30.7738594 10.5365434,30.8801368 10.5365434,30.7738594 C10.5365434,30.7281669 10.575163,30.7217361 10.6198805,30.7207207 L10.5365434,30.7207207 C10.4301701,30.667582 10.4833567,30.5613045 10.4833567,30.5078274 C10.7750366,30.162595 10.7750366,29.7107467 10.9342578,29.3120371 C10.8810711,29.3120371 10.8282232,29.3120371 10.8282232,29.2592369 C10.3241355,29.8170241 9.52836787,30.0031788 8.78578696,30.2157337 L8.44092046,30.2157337 C8.20242732,30.3220111 7.8307981,30.3220111 7.59230496,30.162595 C7.37989701,30.0563175 7.30028637,29.9233015 7.08821719,29.7638854 C6.69050278,29.5249304 6.2924496,29.3120371 5.84154851,29.1529594 C4.59487983,28.7542498 3.29536324,28.5413565 1.99550788,28.5948337 C2.55244356,28.3024016 3.16256592,28.275663 3.74626433,28.0898467 C4.59487983,27.8505533 5.39064742,27.531721 6.2924496,27.5848597 C6.13322833,27.531721 5.9475831,27.5848597 5.7887006,27.5848597 C5.09862883,27.531721 4.38281065,27.7442758 3.63989097,27.8772919 C3.1358032,27.9832308 2.68490211,28.1693855 2.1811531,28.275663 C1.88947328,28.3819404 1.73025201,28.6743725 1.38538551,28.6212338 L1.38538551,28.4618177 C1.88947328,27.8505533 2.49959565,27.2660274 3.29536324,27.2128887 C4.19716542,27.0531341 5.04578092,27.2128887 5.9475831,27.3191661 C6.61089214,27.3723049 7.19425178,27.531721 7.85722206,27.664737 C8.09605396,27.664737 8.14924064,28.0631081 8.36130983,28.1162468 C8.65332842,28.2225243 8.97143219,28.1162468 9.26311201,28.3288017 C9.26311201,28.2225243 9.2102641,28.1162468 9.26311201,28.036708 C9.47518119,27.8241531 9.7140131,28.0898467 9.92608228,27.9832308 C10.3241355,27.7442758 9.58155455,27.2924276 9.3691466,26.9204566 C9.3691466,26.8673179 9.42233328,26.8141791 9.42233328,26.8141791 C9.82004769,27.15975 10.1120663,27.5584596 10.6161541,27.8241531 C10.8546472,27.9304306 11.4647696,28.0631081 11.3583962,27.7710144 C11.1199031,27.2128887 10.6161541,26.7610404 10.1916769,26.2560534 L10.1916769,26.0434986 C10.0856423,26.0434986 10.0856423,25.9903599 10.0324556,25.9372212 L10.0324556,25.7246663 C9.82004769,25.6183889 9.87323437,25.4322341 9.79362374,25.272818 C9.63474123,25.033863 9.74077582,24.6615536 9.63474123,24.3694599 C9.52836787,24.0770277 9.47518119,23.8113342 9.42233328,23.518902 C9.26311201,22.6686826 9.07746678,21.9244022 8.97143219,21.1005829 C8.8653976,20.1440861 9.52836787,19.3998056 9.97926896,18.5495862 C10.3241355,17.9383218 10.7221886,17.353796 11.3851589,16.9550864 C11.5443802,16.343822 11.9420946,15.838835 12.339809,15.3605866 C12.7378622,14.8819997 13.4011712,14.5635059 13.8784963,14.3506125 C14.5187691,14.0547958 14.8578765,13.9502107 15.1952901,13.8486717 C15.1973227,13.8479948 15.2024042,13.8466409 15.2044368,13.8456255 C15.6946351,13.630363 22.1312397,12.2765104 25.2573969,13.8456255 C25.3237956,13.8791334 25.3105836,13.8456255 25.5226528,13.97898 C25.7614847,14.1123345 26.0531645,14.2720891 26.2388097,14.3523049 Z M1.95332475,28.9273906 C1.95332475,29.1610303 1.79627715,29.3691881 1.56103989,29.4208139 C1.95332475,29.5247274 2.34560961,29.5247274 2.73822861,29.7067414 C2.68576802,29.8106548 2.58118101,29.7586981 2.52905457,29.7586981 C2.76429183,29.9145682 3.07838703,29.8106548 3.31395843,29.9926688 C3.15691083,30.1485389 3.02626059,29.9926688 2.86921299,29.9926688 C4.41262334,30.4341354 6.0345575,30.7720196 7.31666738,31.7595282 C6.21800246,32.3052392 5.09294018,32.538879 3.91575147,32.7986626 C3.75870387,32.7986626 3.68018007,32.7986626 3.52313246,32.7467059 C3.52313246,32.7986626 3.52313246,32.902576 3.47100603,32.902576 C3.26149785,32.902576 3.13051346,32.902576 2.97380001,33.0064895 C2.79035504,33.1623596 2.50299135,33.2146473 2.34560961,33.0584462 C2.29348317,33.0064895 2.50299135,33.0584462 2.55511779,32.9548637 L2.16283293,32.9548637 C2.11037235,32.9548637 2.11037235,32.902576 2.11037235,32.8509502 C1.87480095,32.902576 1.56103989,33.0064895 1.32546849,33.0584462 C0.98531007,33.1623596 1.14235767,31.4736008 1.37792907,31.3696873 C1.32546849,31.3177306 1.22088147,31.3177306 1.22088147,31.2138172 C1.01170743,31.2138172 0.933183632,30.693919 1.06383387,30.6681061 C1.27300791,30.6161494 1.50857931,30.6161494 1.66562691,30.4602793 C1.32546849,30.4083225 1.22088147,29.1871742 1.79627715,28.8751029 C1.84873773,28.8751029 1.95332475,28.8751029 1.95332475,28.9273906 Z M4.23240081,33.5170177 C3.91501714,33.8425895 3.51828757,33.6944996 3.17490545,33.8425895 C3.0688858,33.8425895 2.88385788,33.9017501 2.93686771,33.7834289 C2.96995664,33.6168748 3.11649335,33.5546996 3.27349697,33.5023218 L3.36803679,33.4714226 C3.43083824,33.4503207 3.49195147,33.4284652 3.5449613,33.3986965 C3.65064331,33.3395359 3.7826614,33.2212147 3.88834341,33.2803753 C3.99402542,33.4578571 4.12638116,33.3986965 4.23240081,33.5170177 Z M2.43219467,26.7097878 C2.37901524,26.7097878 2.32549491,26.7097878 2.27197458,26.6563336 C2.32549491,26.6028794 2.32549491,26.5494252 2.32549491,26.495971 C1.81824491,27.0570699 0.670455425,26.8701504 1.73813486,26.3621652 C2.13868509,26.2018026 2.6455942,26.2552568 3.04614444,26.4156194 C2.88592434,26.6297767 2.6455942,26.575982 2.43219467,26.7097878 Z M26.8601621,23.3698501 C26.813904,23.3795238 26.7673007,23.388864 26.7213878,23.3968699 C26.4783602,23.3968699 26.208061,23.5539847 25.9646882,23.6063563 C25.6132647,23.7110996 25.2891129,23.894567 24.9918873,24.1040535 C25.3429656,23.9469386 25.694389,23.894567 26.1000104,23.8158428 C26.3972359,23.7634712 26.6406087,23.7110996 26.9647606,23.7634712 C27.1808619,23.8158428 27.4784326,23.8158428 27.4784326,23.920586 C27.370382,24.3135399 26.7755857,24.4182831 26.4514338,24.8112371 L26.2891853,24.8112371 C26.1269367,24.9159803 26.1811347,25.1514858 26.0458125,25.1514858 C25.8835639,25.0994477 25.7485869,25.1514858 25.5863384,25.204191 C25.8024396,25.4136774 26.0458125,25.5444397 26.343038,25.4920681 C26.3972359,25.4920681 26.5052865,25.5968113 26.5052865,25.7015545 C26.5052865,25.7015545 26.5594845,25.7015545 26.6133372,25.6491829 C26.6675351,25.6491829 26.7213878,25.6491829 26.7213878,25.7015545 L26.7213878,25.911041 C26.6243839,26.0367996 26.4976919,26.0494755 26.3654766,26.0508098 L26.2764125,26.0511434 C26.2173817,26.051477 26.1576604,26.0541456 26.1000104,26.0681558 C26.5052865,26.1728991 26.9109079,26.1728991 27.2889125,26.0681558 C27.5864832,25.9634126 27.2889125,25.466049 27.505359,25.23021 C27.3973083,25.23021 27.505359,25.0730951 27.3973083,25.0730951 C27.505359,24.9683519 27.6134096,24.8372561 27.6945339,24.7848845 C27.8025845,24.7848845 27.9379067,24.7325128 27.9921046,24.6277696 C27.9921046,24.5230264 27.7756581,24.4706548 27.829856,24.3922641 C28.1270816,24.1827777 28.3973807,23.894567 28.2889849,23.6063563 C28.2351322,23.4492415 27.829856,23.4492415 27.5864832,23.3444982 C27.4180209,23.272112 27.2108951,23.2997989 27.0006624,23.3411625 L26.8601621,23.3698501 Z" id="Fill-1-Copy" fill="#FFFFFF"></path>
                </g>
            </g>
        </g>
    </g>
</svg>